<?xml version="1.0" encoding="UTF-8"?>
<!--Generator: Apple Native CoreSVG 341-->
<!DOCTYPE svg
PUBLIC "-//W3C//DTD SVG 1.1//EN"
       "http://www.w3.org/Graphics/SVG/1.1/DTD/svg11.dtd">
<svg version="1.1" xmlns="http://www.w3.org/2000/svg" xmlns:xlink="http://www.w3.org/1999/xlink" viewBox="0 0 3300 2200">
 <g id="Notes">
  <rect height="2200" id="artboard" style="fill:white;opacity:1" width="3300" x="0" y="0"/>
  <line style="fill:none;stroke:black;opacity:1;stroke-width:0.5;" x1="263" x2="3036" y1="292" y2="292"/>
  <text style="stroke:none;fill:black;font-family:sans-serif;font-size:13;font-weight:bold;" transform="matrix(1 0 0 1 263 322)">Weight/Scale Variations</text>
  <text style="stroke:none;fill:black;font-family:sans-serif;font-size:13;text-anchor:middle;" transform="matrix(1 0 0 1 559.711 322)">Ultralight</text>
  <text style="stroke:none;fill:black;font-family:sans-serif;font-size:13;text-anchor:middle;" transform="matrix(1 0 0 1 856.422 322)">Thin</text>
  <text style="stroke:none;fill:black;font-family:sans-serif;font-size:13;text-anchor:middle;" transform="matrix(1 0 0 1 1153.13 322)">Light</text>
  <text style="stroke:none;fill:black;font-family:sans-serif;font-size:13;text-anchor:middle;" transform="matrix(1 0 0 1 1449.84 322)">Regular</text>
  <text style="stroke:none;fill:black;font-family:sans-serif;font-size:13;text-anchor:middle;" transform="matrix(1 0 0 1 1746.56 322)">Medium</text>
  <text style="stroke:none;fill:black;font-family:sans-serif;font-size:13;text-anchor:middle;" transform="matrix(1 0 0 1 2043.27 322)">Semibold</text>
  <text style="stroke:none;fill:black;font-family:sans-serif;font-size:13;text-anchor:middle;" transform="matrix(1 0 0 1 2339.98 322)">Bold</text>
  <text style="stroke:none;fill:black;font-family:sans-serif;font-size:13;text-anchor:middle;" transform="matrix(1 0 0 1 2636.69 322)">Heavy</text>
  <text style="stroke:none;fill:black;font-family:sans-serif;font-size:13;text-anchor:middle;" transform="matrix(1 0 0 1 2933.4 322)">Black</text>
  <line style="fill:none;stroke:black;opacity:1;stroke-width:0.5;" x1="263" x2="3036" y1="1903" y2="1903"/>
  <g transform="matrix(0.2 0 0 0.2 263 1933)">
   <path d="m46.2402 4.15039c21.7773 0 39.4531-17.627 39.4531-39.4043s-17.6758-39.4043-39.4531-39.4043c-21.7285 0-39.4043 17.627-39.4043 39.4043s17.6758 39.4043 39.4043 39.4043Zm0-7.42188c-17.6758 0-31.9336-14.3066-31.9336-31.9824s14.2578-31.9824 31.9336-31.9824 31.9824 14.3066 31.9824 31.9824-14.3066 31.9824-31.9824 31.9824Zm3.61328-17.7734v-28.4668c0-2.24609-1.46484-3.75977-3.71094-3.75977-2.14844 0-3.61328 1.51367-3.61328 3.75977v28.4668c0 2.19727 1.46484 3.71094 3.61328 3.71094 2.24609 0 3.71094-1.51367 3.71094-3.71094Zm-17.8223-10.5957h28.418c2.19727 0 3.71094-1.46484 3.71094-3.61328 0-2.19727-1.51367-3.71094-3.71094-3.71094h-28.418c-2.24609 0-3.75977 1.51367-3.75977 3.71094 0 2.14844 1.51367 3.61328 3.75977 3.61328Z"/>
  </g>
  <g transform="matrix(0.2 0 0 0.2 281.506 1933)">
   <path d="m58.5449 14.5508c27.4902 0 49.8047-22.3145 49.8047-49.8047s-22.3145-49.8047-49.8047-49.8047-49.8047 22.3145-49.8047 49.8047 22.3145 49.8047 49.8047 49.8047Zm0-8.30078c-22.9492 0-41.5039-18.5547-41.5039-41.5039s18.5547-41.5039 41.5039-41.5039 41.5039 18.5547 41.5039 41.5039-18.5547 41.5039-41.5039 41.5039Zm4.05273-23.0957v-36.9141c0-2.49023-1.70898-4.19922-4.15039-4.19922-2.39258 0-4.05273 1.70898-4.05273 4.19922v36.9141c0 2.44141 1.66016 4.15039 4.05273 4.15039 2.44141 0 4.15039-1.66016 4.15039-4.15039Zm-22.5586-14.4043h36.9629c2.44141 0 4.15039-1.61133 4.15039-4.00391 0-2.44141-1.70898-4.15039-4.15039-4.15039h-36.9629c-2.49023 0-4.15039 1.70898-4.15039 4.15039 0 2.39258 1.66016 4.00391 4.15039 4.00391Z"/>
  </g>
  <g transform="matrix(0.2 0 0 0.2 304.924 1933)">
   <path d="m74.8535 28.3203c35.1074 0 63.623-28.4668 63.623-63.5742s-28.5156-63.623-63.623-63.623-63.5742 28.5156-63.5742 63.623 28.4668 63.5742 63.5742 63.5742Zm0-9.08203c-30.127 0-54.4922-24.3652-54.4922-54.4922s24.3652-54.4922 54.4922-54.4922 54.4922 24.3652 54.4922 54.4922-24.3652 54.4922-54.4922 54.4922Zm4.44336-30.3223v-48.4863c0-2.73438-1.85547-4.63867-4.54102-4.63867-2.58789 0-4.44336 1.9043-4.44336 4.63867v48.4863c0 2.68555 1.85547 4.58984 4.44336 4.58984 2.68555 0 4.54102-1.85547 4.54102-4.58984Zm-28.7109-19.7754h48.4863c2.68555 0 4.58984-1.80664 4.58984-4.39453 0-2.73438-1.85547-4.58984-4.58984-4.58984h-48.4863c-2.73438 0-4.58984 1.85547-4.58984 4.58984 0 2.58789 1.85547 4.39453 4.58984 4.39453Z"/>
  </g>
  <text style="stroke:none;fill:black;font-family:sans-serif;font-size:13;font-weight:bold;" transform="matrix(1 0 0 1 263 1953)">Design Variations</text>
  <text style="stroke:none;fill:black;font-family:sans-serif;font-size:13;" transform="matrix(1 0 0 1 263 1971)">Symbols are supported in up to nine weights and three scales.</text>
  <text style="stroke:none;fill:black;font-family:sans-serif;font-size:13;" transform="matrix(1 0 0 1 263 1989)">For optimal layout with text and other symbols, vertically align</text>
  <text style="stroke:none;fill:black;font-family:sans-serif;font-size:13;" transform="matrix(1 0 0 1 263 2007)">symbols with the adjacent text.</text>
  <line style="fill:none;stroke:#00AEEF;stroke-width:0.5;opacity:1.0;" x1="776" x2="776" y1="1919" y2="1933"/>
  <g transform="matrix(0.2 0 0 0.2 776 1933)">
   <path d="m16.5527 0.78125c2.58789 0 3.85742-0.976562 4.78516-3.71094l20.5566-57.5195h0.244141l20.6055 57.5195c0.927734 2.73438 2.19727 3.71094 4.73633 3.71094 2.58789 0 4.24805-1.5625 4.24805-4.00391 0-0.830078-0.146484-1.61133-0.537109-2.63672l-22.9004-60.9863c-1.12305-2.97852-3.125-4.49219-6.25-4.49219-3.02734 0-5.07812 1.46484-6.15234 4.44336l-22.9004 61.084c-0.390625 1.02539-0.537109 1.80664-0.537109 2.63672 0 2.44141 1.5625 3.95508 4.10156 3.95508Zm10.2051-20.9473h30.6641c2.00195 0 3.66211-1.66016 3.66211-3.66211 0-2.05078-1.66016-3.66211-3.66211-3.66211h-30.6641c-2.00195 0-3.66211 1.61133-3.66211 3.66211 0 2.00195 1.66016 3.66211 3.66211 3.66211Z"/>
  </g>
  <line style="fill:none;stroke:#00AEEF;stroke-width:0.5;opacity:1.0;" x1="792.836" x2="792.836" y1="1919" y2="1933"/>
  <text style="stroke:none;fill:black;font-family:sans-serif;font-size:13;font-weight:bold;" transform="matrix(1 0 0 1 776 1953)">Margins</text>
  <text style="stroke:none;fill:black;font-family:sans-serif;font-size:13;" transform="matrix(1 0 0 1 776 1971)">Leading and trailing margins on the left and right side of each symbol</text>
  <text style="stroke:none;fill:black;font-family:sans-serif;font-size:13;" transform="matrix(1 0 0 1 776 1989)">can be adjusted by modifying the x-location of the margin guidelines.</text>
  <text style="stroke:none;fill:black;font-family:sans-serif;font-size:13;" transform="matrix(1 0 0 1 776 2007)">Modifications are automatically applied proportionally to all</text>
  <text style="stroke:none;fill:black;font-family:sans-serif;font-size:13;" transform="matrix(1 0 0 1 776 2025)">scales and weights.</text>
  <g transform="matrix(0.2 0 0 0.2 1289 1933)">
   <path d="m14.209 13.1348 7.86133 7.86133c4.29688 4.39453 9.32617 4.10156 13.8672-1.02539l60.6934-68.2129-4.88281-4.88281-60.2539 67.6758c-1.80664 1.95312-3.4668 2.44141-5.81055 0.0976562l-5.17578-5.12695c-2.29492-2.29492-1.80664-3.95508 0.195312-5.81055l67.4805-62.1582-4.88281-4.83398-68.0664 62.5977c-4.98047 4.58984-5.32227 9.47266-1.02539 13.8184Zm44.873-97.4609c-2.05078 2.00195-2.24609 4.88281-1.07422 6.78711 1.12305 1.80664 3.4668 3.02734 6.5918 2.24609 5.85938-1.66016 12.5977-2.39258 18.8965 0.927734l-2.68555 7.12891c-1.61133 4.00391-0.732422 6.88477 1.70898 9.42383l10.2539 10.3027c2.34375 2.39258 4.54102 2.44141 7.08008 1.95312l4.44336-0.732422 2.58789 2.53906-0.195312 2.24609c-0.0976562 2.29492 0.537109 4.29688 2.7832 6.49414l3.36914 3.32031c2.29492 2.29492 5.51758 2.49023 7.8125 0.195312l12.9883-13.0371c2.29492-2.34375 2.14844-5.37109-0.195312-7.66602l-3.41797-3.41797c-2.19727-2.19727-4.05273-3.02734-6.34766-2.88086l-2.34375 0.244141-2.44141-2.44141 1.02539-4.6875c0.634766-2.73438-0.244141-4.98047-2.88086-7.61719l-11.2793-11.1816c-12.9395-12.8418-35.5957-11.0352-46.6797-0.146484Zm7.08008 2.05078c8.78906-6.39648 25.9766-5.66406 33.6914 1.95312l12.3047 12.207c1.02539 1.02539 1.2207 1.80664 0.927734 3.32031l-1.46484 6.64062 6.73828 6.68945 4.39453-0.244141c1.12305-0.0488281 1.51367 0.0488281 2.34375 0.878906l2.53906 2.49023-10.8398 10.8398-2.49023-2.49023c-0.830078-0.878906-0.976562-1.2207-0.927734-2.39258l0.292969-4.3457-6.68945-6.73828-6.83594 1.17188c-1.41602 0.292969-2.05078 0.195312-3.17383-0.878906l-8.93555-8.88672c-1.07422-1.02539-1.17188-1.70898-0.488281-3.36914l4.58984-11.4746c-6.10352-6.34766-17.041-7.51953-25.5859-4.58984-0.683594 0.244141-0.927734-0.390625-0.390625-0.78125Z"/>
  </g>
  <text style="stroke:none;fill:black;font-family:sans-serif;font-size:13;font-weight:bold;" transform="matrix(1 0 0 1 1289 1953)">Exporting</text>
  <text style="stroke:none;fill:black;font-family:sans-serif;font-size:13;" transform="matrix(1 0 0 1 1289 1971)">Symbols should be outlined when exporting to ensure the</text>
  <text style="stroke:none;fill:black;font-family:sans-serif;font-size:13;" transform="matrix(1 0 0 1 1289 1989)">design is preserved when submitting to Xcode.</text>
  <text id="template-version" style="stroke:none;fill:black;font-family:sans-serif;font-size:13;text-anchor:end;" transform="matrix(1 0 0 1 3036 1933)">Template v.2.0</text>
  <text style="stroke:none;fill:black;font-family:sans-serif;font-size:13;text-anchor:end;" transform="matrix(1 0 0 1 3036 1951)">Requires Xcode 12 or greater</text>
  <text id="descriptive-name" style="stroke:none;fill:black;font-family:sans-serif;font-size:13;text-anchor:end;" transform="matrix(1 0 0 1 3036 1969)">Generated from clock.fill</text>
  <text style="stroke:none;fill:black;font-family:sans-serif;font-size:13;text-anchor:end;" transform="matrix(1 0 0 1 3036 1987)">Typeset at 100.0 points</text>
  <text style="stroke:none;fill:black;font-family:sans-serif;font-size:13;" transform="matrix(1 0 0 1 263 726)">Small</text>
  <text style="stroke:none;fill:black;font-family:sans-serif;font-size:13;" transform="matrix(1 0 0 1 263 1156)">Medium</text>
  <text style="stroke:none;fill:black;font-family:sans-serif;font-size:13;" transform="matrix(1 0 0 1 263 1586)">Large</text>
 </g>
 <g id="Guides">
  <g id="H-reference" style="fill:#27AAE1;stroke:none;" transform="matrix(1 0 0 1 339 696)">
   <path d="M0.993654 0L3.63775 0L29.3281-67.1323L30.0303-67.1323L30.0303-70.459L28.1226-70.459ZM11.6885-24.4799L46.9815-24.4799L46.2315-26.7285L12.4385-26.7285ZM55.1196 0L57.7637 0L30.6382-70.459L29.4326-70.459L29.4326-67.1323Z"/>
  </g>
  <line id="Baseline-S" style="fill:none;stroke:#27AAE1;opacity:1;stroke-width:0.5;" x1="263" x2="3036" y1="696" y2="696"/>
  <line id="Capline-S" style="fill:none;stroke:#27AAE1;opacity:1;stroke-width:0.5;" x1="263" x2="3036" y1="625.541" y2="625.541"/>
  <g id="H-reference" style="fill:#27AAE1;stroke:none;" transform="matrix(1 0 0 1 339 1126)">
   <path d="M0.993654 0L3.63775 0L29.3281-67.1323L30.0303-67.1323L30.0303-70.459L28.1226-70.459ZM11.6885-24.4799L46.9815-24.4799L46.2315-26.7285L12.4385-26.7285ZM55.1196 0L57.7637 0L30.6382-70.459L29.4326-70.459L29.4326-67.1323Z"/>
  </g>
  <line id="Baseline-M" style="fill:none;stroke:#27AAE1;opacity:1;stroke-width:0.5;" x1="263" x2="3036" y1="1126" y2="1126"/>
  <line id="Capline-M" style="fill:none;stroke:#27AAE1;opacity:1;stroke-width:0.5;" x1="263" x2="3036" y1="1055.54" y2="1055.54"/>
  <g id="H-reference" style="fill:#27AAE1;stroke:none;" transform="matrix(1 0 0 1 339 1556)">
   <path d="M0.993654 0L3.63775 0L29.3281-67.1323L30.0303-67.1323L30.0303-70.459L28.1226-70.459ZM11.6885-24.4799L46.9815-24.4799L46.2315-26.7285L12.4385-26.7285ZM55.1196 0L57.7637 0L30.6382-70.459L29.4326-70.459L29.4326-67.1323Z"/>
  </g>
  <line id="Baseline-L" style="fill:none;stroke:#27AAE1;opacity:1;stroke-width:0.5;" x1="263" x2="3036" y1="1556" y2="1556"/>
  <line id="Capline-L" style="fill:none;stroke:#27AAE1;opacity:1;stroke-width:0.5;" x1="263" x2="3036" y1="1485.54" y2="1485.54"/>
  <line id="right-margin" style="fill:none;stroke:#00AEEF;stroke-width:0.5;opacity:1.0;" x1="1508.37" x2="1508.37" y1="1030.79" y2="1150.12"/>
  <line id="left-margin" style="fill:none;stroke:#00AEEF;stroke-width:0.5;opacity:1.0;" x1="1391.32" x2="1391.32" y1="1030.79" y2="1150.12"/>
 </g>
 <g id="Symbols">
  <g id="Black-L" transform="matrix(1 0 0 1 2854.19 1556)">
   <path d="M51.1637-23.9406C47.15-23.9406 44.0305-27.0821 44.0305-31.075C44.0305-35.0851 47.15-38.2278 51.1637-38.2278L72.0429-38.2278L72.0429-68.2017C72.0429-72.2142 75.1857-75.3545 79.175-75.3545C83.1875-75.3545 86.3302-72.2142 86.3302-68.2017L86.3302-31.075C86.3302-27.0821 83.1875-23.9406 79.175-23.9406ZM79.1958 32.6673C116.722 32.6673 147.154 2.23586 147.154-35.2697C147.154-72.7753 116.722-103.207 79.1958-103.207C41.6902-103.207 11.2588-72.7753 11.2588-35.2697C11.2588 2.23586 41.6902 32.6673 79.1958 32.6673Z"/>
  </g>
  <g id="Heavy-L" transform="matrix(1 0 0 1 2558.42 1556)">
   <path d="M48.9726-25.0567C45.3499-25.0567 42.5624-27.8799 42.5624-31.4724C42.5624-35.0783 45.3499-37.9072 48.9726-37.9072L71.8185-37.9072L71.8185-69.9686C71.8185-73.5856 74.6474-76.4033 78.2231-76.4033C81.8401-76.4033 84.669-73.5856 84.669-69.9686L84.669-31.4724C84.669-27.8799 81.8401-25.0567 78.2231-25.0567ZM78.2532 31.7248C115.252 31.7248 145.278 1.69868 145.278-35.2697C145.278-72.2381 115.252-102.264 78.2532-102.264C41.2849-102.264 11.2588-72.2381 11.2588-35.2697C11.2588 1.69868 41.2849 31.7248 78.2532 31.7248Z"/>
  </g>
  <g id="Bold-L" transform="matrix(1 0 0 1 2262.89 1556)">
   <path d="M46.2377-26.3801C43.114-26.3801 40.7488-28.7966 40.7488-31.8822C40.7488-34.9662 43.114-37.3959 46.2377-37.3959L71.5568-37.3959L71.5568-72.1137C71.5568-75.2242 73.9864-77.6274 77.0324-77.6274C80.1428-77.6274 82.5725-75.2242 82.5725-72.1137L82.5725-31.8822C82.5725-28.7966 80.1428-26.3801 77.0324-26.3801ZM77.0704 30.5419C113.401 30.5419 142.92 1.02282 142.92-35.2697C142.92-71.5622 113.401-101.081 77.0704-101.081C40.7779-101.081 11.2588-71.5622 11.2588-35.2697C11.2588 1.02282 40.7779 30.5419 77.0704 30.5419Z"/>
  </g>
  <g id="Semibold-L" transform="matrix(1 0 0 1 1966.99 1556)">
   <path d="M44.3523-27.2925C41.5727-27.2925 39.4986-29.4285 39.4986-32.1648C39.4986-34.889 41.5727-37.0434 44.3523-37.0434L71.3763-37.0434L71.3763-73.5926C71.3763-76.3538 73.5307-78.4713 76.2116-78.4713C78.9728-78.4713 81.1272-76.3538 81.1272-73.5926L81.1272-32.1648C81.1272-29.4285 78.9728-27.2925 76.2116-27.2925ZM76.2549 29.7265C112.125 29.7265 141.294 0.556883 141.294-35.2697C141.294-71.0963 112.125-100.266 76.2549-100.266C40.4284-100.266 11.2588-71.0963 11.2588-35.2697C11.2588 0.556883 40.4284 29.7265 76.2549 29.7265Z"/>
  </g>
  <g id="Medium-L" transform="matrix(1 0 0 1 1670.9 1556)">
   <path d="M42.9228-27.9843C40.4039-27.9843 38.5506-29.9076 38.5506-32.379C38.5506-34.8304 40.4039-36.7761 42.9228-36.7761L71.2395-36.7761L71.2395-74.714C71.2395-77.2103 73.1852-79.1111 75.5892-79.1111C78.0856-79.1111 80.0313-77.2103 80.0313-74.714L80.0313-32.379C80.0313-29.9076 78.0856-27.9843 75.5892-27.9843ZM75.6366 29.1081C111.157 29.1081 140.062 0.203591 140.062-35.2697C140.062-70.743 111.157-99.6475 75.6366-99.6475C40.1633-99.6475 11.2588-70.743 11.2588-35.2697C11.2588 0.203591 40.1633 29.1081 75.6366 29.1081Z"/>
  </g>
  <g id="Regular-L" transform="matrix(1 0 0 1 1374.99 1556)">
   <path d="M41.0581-28.8867C38.8795-28.8867 37.3141-30.5326 37.3141-32.6584C37.3141-34.754 38.8795-36.4275 41.0581-36.4275L71.061-36.4275L71.061-76.1766C71.061-78.3275 72.7345-79.9457 74.7774-79.9457C76.9283-79.9457 78.6018-78.3275 78.6018-76.1766L78.6018-32.6584C78.6018-30.5326 76.9283-28.8867 74.7774-28.8867ZM74.8301 28.3017C109.895 28.3017 138.454-0.257224 138.454-35.2697C138.454-70.2822 109.895-98.8411 74.8301-98.8411C39.8177-98.8411 11.2588-70.2822 11.2588-35.2697C11.2588-0.257224 39.8177 28.3017 74.8301 28.3017Z"/>
  </g>
  <g id="Light-L" transform="matrix(1 0 0 1 1079.2 1556)">
   <path d="M39.0351-29.4211C37.2954-29.4211 36.0926-30.7043 36.0926-32.4103C36.0926-34.0097 37.2954-35.3397 39.0351-35.3397L70.9847-35.3397L70.9847-77.3789C70.9847-79.0718 72.3146-80.3083 73.8804-80.3083C75.5733-80.3083 76.9032-79.0718 76.9032-77.3789L76.9032-32.4103C76.9032-30.7043 75.5733-29.4211 73.8804-29.4211ZM73.9141 27.3856C108.426 27.3856 136.603-0.791611 136.603-35.2697C136.603-69.7478 108.426-97.925 73.9141-97.925C39.436-97.925 11.2588-69.7478 11.2588-35.2697C11.2588-0.791611 39.436 27.3856 73.9141 27.3856Z"/>
  </g>
  <g id="Thin-L" transform="matrix(1 0 0 1 783.716 1556)">
   <path d="M36.3594-30.1279C35.2003-30.1279 34.4771-30.9315 34.4771-32.0822C34.4771-33.0253 35.2003-33.9009 36.3594-33.9009L70.8837-33.9009L70.8837-78.9692C70.8837-80.0563 71.7593-80.7879 72.694-80.7879C73.7811-80.7879 74.6567-80.0563 74.6567-78.9692L74.6567-32.0822C74.6567-30.9315 73.7811-30.1279 72.694-30.1279ZM72.7024 26.174C106.482 26.174 134.155-1.49838 134.155-35.2697C134.155-69.041 106.482-96.7134 72.7024-96.7134C38.9311-96.7134 11.2588-69.041 11.2588-35.2697C11.2588-1.49838 38.9311 26.174 72.7024 26.174Z"/>
  </g>
  <g id="Ultralight-L" transform="matrix(1 0 0 1 487.631 1556)">
   <path d="M34.989-30.4899C34.1273-30.4899 33.6497-31.0479 33.6497-31.9141C33.6497-32.5211 34.1273-33.164 34.989-33.164L70.832-33.164L70.832-79.7837C70.832-80.5605 71.4749-81.0336 72.0864-81.0336C72.8632-81.0336 73.5061-80.5605 73.5061-79.7837L73.5061-31.9141C73.5061-31.0479 72.8632-30.4899 72.0864-30.4899ZM72.0819 25.5534C105.487 25.5534 132.9-1.86039 132.9-35.2697C132.9-68.679 105.487-96.0928 72.0819-96.0928C38.6726-96.0928 11.2588-68.679 11.2588-35.2697C11.2588-1.86039 38.6726 25.5534 72.0819 25.5534Z"/>
  </g>
  <g id="Black-M" transform="matrix(1 0 0 1 2871.36 1126)">
   <path d="M41.2477-25.5967C37.8615-25.5967 35.2085-28.2549 35.2085-31.6356C35.2085-35.0227 37.8615-37.6806 41.2477-37.6806L55.9972-37.6806L55.9972-59.4188C55.9972-62.8053 58.6552-65.4638 62.0367-65.4638C65.4232-65.4638 68.0812-62.8053 68.0812-59.4188L68.0812-31.6356C68.0812-28.2549 65.4232-25.5967 62.0367-25.5967ZM62.0422 18.0589C91.4941 18.0589 115.367-5.81424 115.367-35.2606C115.367-64.707 91.4941-88.5802 62.0422-88.5802C32.5958-88.5802 8.72266-64.707 8.72266-35.2606C8.72266-5.81424 32.5958 18.0589 62.0422 18.0589Z"/>
  </g>
  <g id="Heavy-M" transform="matrix(1 0 0 1 2575.48 1126)">
   <path d="M39.2923-26.6384C36.2479-26.6384 33.886-29.019 33.886-32.047C33.886-35.0846 36.2479-37.4675 39.2923-37.4675L55.7849-37.4675L55.7849-61.0351C55.7849-64.0773 58.1677-66.4556 61.1889-66.4556C64.2311-66.4556 66.6139-64.0773 66.6139-61.0351L66.6139-32.047C66.6139-29.019 64.2311-26.6384 61.1889-26.6384ZM61.2053 17.222C90.1923 17.222 113.704-6.29008 113.704-35.2606C113.704-64.2312 90.1923-87.7433 61.2053-87.7433C32.2348-87.7433 8.72266-64.2312 8.72266-35.2606C8.72266-6.29008 32.2348 17.222 61.2053 17.222Z"/>
  </g>
  <g id="Bold-M" transform="matrix(1 0 0 1 2279.69 1126)">
   <path d="M37.105-27.8038C34.4429-27.8038 32.4066-29.8738 32.4066-32.5073C32.4066-35.154 34.4429-37.2291 37.105-37.2291L55.5473-37.2291L55.5473-62.8433C55.5473-65.5002 57.6225-67.5651 60.2405-67.5651C62.8975-67.5651 64.9726-65.5002 64.9726-62.8433L64.9726-32.5073C64.9726-29.8738 62.8975-27.8038 60.2405-27.8038ZM60.2692 16.2859C88.7361 16.2859 111.844-6.82236 111.844-35.2606C111.844-63.6989 88.7361-86.8071 60.2692-86.8071C31.8309-86.8071 8.72266-63.6989 8.72266-35.2606C8.72266-6.82236 31.8309 16.2859 60.2692 16.2859Z"/>
  </g>
  <g id="Semibold-M" transform="matrix(1 0 0 1 1983.62 1126)">
   <path d="M35.597-28.6072C33.1985-28.6072 31.3868-30.4631 31.3868-32.8246C31.3868-35.2018 33.1985-37.0648 35.597-37.0648L55.3836-37.0648L55.3836-64.0898C55.3836-66.4812 57.2466-68.33 59.5867-68.33C61.9781-68.33 63.8411-66.4812 63.8411-64.0898L63.8411-32.8246C63.8411-30.4631 61.9781-28.6072 59.5867-28.6072ZM59.6238 15.6405C87.7321 15.6405 110.562-7.18932 110.562-35.2606C110.562-63.332 87.7321-86.1618 59.6238-86.1618C31.5524-86.1618 8.72266-63.332 8.72266-35.2606C8.72266-7.18932 31.5524 15.6405 59.6238 15.6405Z"/>
  </g>
  <g id="Medium-M" transform="matrix(1 0 0 1 1687.4 1126)">
   <path d="M34.4536-29.2164C32.255-29.2164 30.6135-30.9099 30.6135-33.0651C30.6135-35.238 32.255-36.9401 34.4536-36.9401L55.2594-36.9401L55.2594-65.0349C55.2594-67.225 56.9615-68.9099 59.091-68.9099C61.281-68.9099 62.9832-67.225 62.9832-65.0349L62.9832-33.0651C62.9832-30.9099 61.281-29.2164 59.091-29.2164ZM59.1344 15.1511C86.9709 15.1511 109.59-7.46756 109.59-35.2606C109.59-63.0537 86.9709-85.6724 59.1344-85.6724C31.3413-85.6724 8.72266-63.0537 8.72266-35.2606C8.72266-7.46756 31.3413 15.1511 59.1344 15.1511Z"/>
  </g>
  <g id="Regular-M" transform="matrix(1 0 0 1 1391.32 1126)">
   <path d="M32.9623-30.011C31.0243-30.011 29.6048-31.4927 29.6048-33.3789C29.6048-35.2853 31.0243-36.7776 32.9623-36.7776L55.0974-36.7776L55.0974-66.2677C55.0974-68.1952 56.5898-69.6664 58.4443-69.6664C60.3718-69.6664 61.8641-68.1952 61.8641-66.2677L61.8641-33.3789C61.8641-31.4927 60.3718-30.011 58.4443-30.011ZM58.4961 14.5128C85.978 14.5128 108.321-7.83049 108.321-35.2606C108.321-62.6908 85.978-85.0341 58.4961-85.0341C31.0659-85.0341 8.72266-62.6908 8.72266-35.2606C8.72266-7.83049 31.0659 14.5128 58.4961 14.5128Z"/>
  </g>
  <g id="Light-M" transform="matrix(1 0 0 1 1095.44 1126)">
   <path d="M31.1485-30.4901C29.6041-30.4901 28.5097-31.6467 28.5097-33.1565C28.5097-34.618 29.6041-35.8023 31.1485-35.8023L55.029-35.8023L55.029-67.3457C55.029-68.8625 56.2133-69.9915 57.6401-69.9915C59.1569-69.9915 60.3412-68.8625 60.3412-67.3457L60.3412-33.1565C60.3412-31.6467 59.1569-30.4901 57.6401-30.4901ZM57.6748 13.6915C84.6605 13.6915 106.662-8.30959 106.662-35.2606C106.662-62.2117 84.6605-84.2128 57.6748-84.2128C30.7237-84.2128 8.72266-62.2117 8.72266-35.2606C8.72266-8.30959 30.7237 13.6915 57.6748 13.6915Z"/>
  </g>
  <g id="Thin-M" transform="matrix(1 0 0 1 799.828 1126)">
   <path d="M28.7497-31.1237C27.7257-31.1237 27.0614-31.8504 27.0614-32.8623C27.0614-33.7354 27.7257-34.5123 28.7497-34.5123L54.9385-34.5123L54.9385-68.7715C54.9385-69.7451 55.7154-70.4215 56.5765-70.4215C57.5501-70.4215 58.3271-69.7451 58.3271-68.7715L58.3271-32.8623C58.3271-31.8504 57.5501-31.1237 56.5765-31.1237ZM56.5885 12.6052C82.9179 12.6052 104.466-8.94325 104.466-35.2606C104.466-61.578 82.9179-83.1265 56.5885-83.1265C30.2711-83.1265 8.72266-61.578 8.72266-35.2606C8.72266-8.94325 30.2711 12.6052 56.5885 12.6052Z"/>
  </g>
  <g id="Ultralight-M" transform="matrix(1 0 0 1 503.679 1126)">
   <path d="M27.521-31.4483C26.7636-31.4483 26.3195-31.9547 26.3195-32.7116C26.3195-33.2833 26.7636-33.8516 27.521-33.8516L54.8921-33.8516L54.8921-69.5017C54.8921-70.1972 55.4604-70.6417 56.0317-70.6417C56.7271-70.6417 57.2955-70.1972 57.2955-69.5017L57.2955-32.7116C57.2955-31.9547 56.7271-31.4483 56.0317-31.4483ZM56.0321 12.0488C82.0254 12.0488 103.342-9.26781 103.342-35.2606C103.342-61.2535 82.0254-82.5701 56.0321-82.5701C30.0393-82.5701 8.72266-61.2535 8.72266-35.2606C8.72266-9.26781 30.0393 12.0488 56.0321 12.0488Z"/>
  </g>
  <g id="Black-S" transform="matrix(1 0 0 1 2884.57 696)">
   <path d="M32.8125-27.3926C30.0781-27.3926 27.9297-29.541 27.9297-32.2754C27.9297-35.0098 30.0781-37.1582 32.8125-37.1582L43.9453-37.1582L43.9453-53.7598C43.9453-56.4941 46.0938-58.6426 48.8281-58.6426C51.5625-58.6426 53.7109-56.4941 53.7109-53.7598L53.7109-32.2754C53.7109-29.541 51.5625-27.3926 48.8281-27.3926ZM48.8281 6.73828C72.0215 6.73828 90.8203-12.0605 90.8203-35.2539C90.8203-58.4473 72.0215-77.2461 48.8281-77.2461C25.6348-77.2461 6.83594-58.4473 6.83594-35.2539C6.83594-12.0605 25.6348 6.73828 48.8281 6.73828Z"/>
  </g>
  <g id="Heavy-S" transform="matrix(1 0 0 1 2588.47 696)">
   <path d="M31.3719-28.2223C28.8796-28.2223 26.9386-30.1749 26.9386-32.6557C26.9386-35.1481 28.8796-37.1006 31.3719-37.1006L43.7724-37.1006L43.7724-55.0044C43.7724-57.4968 45.725-59.4493 48.2058-59.4493C50.6982-59.4493 52.6507-57.4968 52.6507-55.0044L52.6507-32.6557C52.6507-30.1749 50.6982-28.2223 48.2058-28.2223ZM48.2173 6.12748C71.0765 6.12748 89.6102-12.4063 89.6102-35.2539C89.6102-58.1015 71.0765-76.6353 48.2173-76.6353C25.3697-76.6353 6.83594-58.1015 6.83594-35.2539C6.83594-12.4063 25.3697 6.12748 48.2173 6.12748Z"/>
  </g>
  <g id="Bold-S" transform="matrix(1 0 0 1 2292.43 696)">
   <path d="M29.7607-29.1504C27.5391-29.1504 25.8301-30.8838 25.8301-33.0811C25.8301-35.3027 27.5391-37.0361 29.7607-37.0361L43.5791-37.0361L43.5791-56.3965C43.5791-58.6182 45.3125-60.3516 47.5098-60.3516C49.7314-60.3516 51.4648-58.6182 51.4648-56.3965L51.4648-33.0811C51.4648-30.8838 49.7314-29.1504 47.5098-29.1504ZM47.5342 5.44434C70.0195 5.44434 88.2568-12.793 88.2568-35.2539C88.2568-57.7148 70.0195-75.9521 47.5342-75.9521C25.0732-75.9521 6.83594-57.7148 6.83594-35.2539C6.83594-12.793 25.0732 5.44434 47.5342 5.44434Z"/>
  </g>
  <g id="Semibold-S" transform="matrix(1 0 0 1 1996.19 696)">
   <path d="M28.6499-29.7902C26.6148-29.7902 25.0658-31.3726 25.0658-33.3743C25.0658-35.4094 26.6148-36.9917 28.6499-36.9917L43.4458-36.9917L43.4458-57.3563C43.4458-59.3913 45.0281-60.9736 47.0299-60.9736C49.0649-60.9736 50.6473-59.3913 50.6473-57.3563L50.6473-33.3743C50.6473-31.3726 49.0649-29.7902 47.0299-29.7902ZM47.0632 4.97334C69.2908 4.97334 87.3237-13.0596 87.3237-35.2539C87.3237-57.4482 69.2908-75.4812 47.0632-75.4812C24.8688-75.4812 6.83594-57.4482 6.83594-35.2539C6.83594-13.0596 24.8688 4.97334 47.0632 4.97334Z"/>
  </g>
  <g id="Medium-S" transform="matrix(1 0 0 1 1699.83 696)">
   <path d="M27.8076-30.2754C25.9141-30.2754 24.4863-31.7432 24.4863-33.5967C24.4863-35.4902 25.9141-36.958 27.8076-36.958L43.3447-36.958L43.3447-58.084C43.3447-59.9775 44.8125-61.4453 46.666-61.4453C48.5596-61.4453 50.0273-59.9775 50.0273-58.084L50.0273-33.5967C50.0273-31.7432 48.5596-30.2754 46.666-30.2754ZM46.7061 4.61621C68.7383 4.61621 86.6162-13.2617 86.6162-35.2539C86.6162-57.2461 68.7383-75.124 46.7061-75.124C24.7139-75.124 6.83594-57.2461 6.83594-35.2539C6.83594-13.2617 24.7139 4.61621 46.7061 4.61621Z"/>
  </g>
  <g id="Regular-S" transform="matrix(1 0 0 1 1403.58 696)">
   <path d="M26.709-30.9082C25-30.9082 23.7305-32.2266 23.7305-33.8867C23.7305-35.5957 25-36.9141 26.709-36.9141L43.2129-36.9141L43.2129-59.0332C43.2129-60.7422 44.5312-62.0605 46.1914-62.0605C47.9004-62.0605 49.2188-60.7422 49.2188-59.0332L49.2188-33.8867C49.2188-32.2266 47.9004-30.9082 46.1914-30.9082ZM46.2402 4.15039C68.0176 4.15039 85.6934-13.5254 85.6934-35.2539C85.6934-56.9824 68.0176-74.6582 46.2402-74.6582C24.5117-74.6582 6.83594-56.9824 6.83594-35.2539C6.83594-13.5254 24.5117 4.15039 46.2402 4.15039Z"/>
  </g>
  <g id="Light-S" transform="matrix(1 0 0 1 1107.6 696)">
   <path d="M25.1045-31.332C23.7437-31.332 22.7617-32.3628 22.7617-33.6899C22.7617-35.0054 23.7437-36.0513 25.1045-36.0513L43.1523-36.0513L43.1523-59.9868C43.1523-61.3325 44.1982-62.3481 45.48-62.3481C46.8257-62.3481 47.8716-61.3325 47.8716-59.9868L47.8716-33.6899C47.8716-32.3628 46.8257-31.332 45.48-31.332ZM45.5137 3.42383C66.8521 3.42383 84.2251-13.9492 84.2251-35.2539C84.2251-56.5586 66.8521-73.9316 45.5137-73.9316C24.209-73.9316 6.83594-56.5586 6.83594-35.2539C6.83594-13.9492 24.209 3.42383 45.5137 3.42383Z"/>
  </g>
  <g id="Thin-S" transform="matrix(1 0 0 1 811.863 696)">
   <path d="M22.9825-31.8926C22.0821-31.8926 21.4805-32.543 21.4805-33.4297C21.4805-34.2246 22.0821-34.9102 22.9825-34.9102L43.0723-34.9102L43.0723-61.248C43.0723-62.1133 43.7578-62.7285 44.5391-62.7285C45.4043-62.7285 46.0899-62.1133 46.0899-61.248L46.0899-33.4297C46.0899-32.543 45.4043-31.8926 44.5391-31.8926ZM44.5527 2.4629C65.3106 2.4629 82.2832-14.5098 82.2832-35.2539C82.2832-55.9981 65.3106-72.9707 44.5527-72.9707C23.8086-72.9707 6.83594-55.9981 6.83594-35.2539C6.83594-14.5098 23.8086 2.4629 44.5527 2.4629Z"/>
  </g>
  <g id="Ultralight-S" transform="matrix(1 0 0 1 515.649 696)">
   <path d="M21.8955-32.1797C21.231-32.1797 20.8242-32.6353 20.8242-33.2964C20.8242-33.8247 21.231-34.3257 21.8955-34.3257L43.0313-34.3257L43.0313-61.894C43.0313-62.5132 43.5322-62.9233 44.0571-62.9233C44.6763-62.9233 45.1773-62.5132 45.1773-61.894L45.1773-33.2964C45.1773-32.6353 44.6763-32.1797 44.0571-32.1797ZM44.0606 1.97072C64.521 1.97072 81.2886-14.7969 81.2886-35.2539C81.2886-55.7109 64.521-72.4785 44.0606-72.4785C23.6035-72.4785 6.83594-55.7109 6.83594-35.2539C6.83594-14.7969 23.6035 1.97072 44.0606 1.97072Z"/>
  </g>
 </g>
</svg>
