<?xml version="1.0" encoding="UTF-8"?>
<!--Generator: Apple Native CoreSVG 341-->
<!DOCTYPE svg
PUBLIC "-//W3C//DTD SVG 1.1//EN"
       "http://www.w3.org/Graphics/SVG/1.1/DTD/svg11.dtd">
<svg version="1.1" xmlns="http://www.w3.org/2000/svg" xmlns:xlink="http://www.w3.org/1999/xlink" viewBox="0 0 3300 2200">
 <g id="Notes">
  <rect height="2200" id="artboard" style="fill:white;opacity:1" width="3300" x="0" y="0"/>
  <line style="fill:none;stroke:black;opacity:1;stroke-width:0.5;" x1="263" x2="3036" y1="292" y2="292"/>
  <text style="stroke:none;fill:black;font-family:sans-serif;font-size:13;font-weight:bold;" transform="matrix(1 0 0 1 263 322)">Weight/Scale Variations</text>
  <text style="stroke:none;fill:black;font-family:sans-serif;font-size:13;text-anchor:middle;" transform="matrix(1 0 0 1 559.711 322)">Ultralight</text>
  <text style="stroke:none;fill:black;font-family:sans-serif;font-size:13;text-anchor:middle;" transform="matrix(1 0 0 1 856.422 322)">Thin</text>
  <text style="stroke:none;fill:black;font-family:sans-serif;font-size:13;text-anchor:middle;" transform="matrix(1 0 0 1 1153.13 322)">Light</text>
  <text style="stroke:none;fill:black;font-family:sans-serif;font-size:13;text-anchor:middle;" transform="matrix(1 0 0 1 1449.84 322)">Regular</text>
  <text style="stroke:none;fill:black;font-family:sans-serif;font-size:13;text-anchor:middle;" transform="matrix(1 0 0 1 1746.56 322)">Medium</text>
  <text style="stroke:none;fill:black;font-family:sans-serif;font-size:13;text-anchor:middle;" transform="matrix(1 0 0 1 2043.27 322)">Semibold</text>
  <text style="stroke:none;fill:black;font-family:sans-serif;font-size:13;text-anchor:middle;" transform="matrix(1 0 0 1 2339.98 322)">Bold</text>
  <text style="stroke:none;fill:black;font-family:sans-serif;font-size:13;text-anchor:middle;" transform="matrix(1 0 0 1 2636.69 322)">Heavy</text>
  <text style="stroke:none;fill:black;font-family:sans-serif;font-size:13;text-anchor:middle;" transform="matrix(1 0 0 1 2933.4 322)">Black</text>
  <line style="fill:none;stroke:black;opacity:1;stroke-width:0.5;" x1="263" x2="3036" y1="1903" y2="1903"/>
  <g transform="matrix(0.2 0 0 0.2 263 1933)">
   <path d="m46.2402 4.15039c21.7773 0 39.4531-17.627 39.4531-39.4043s-17.6758-39.4043-39.4531-39.4043c-21.7285 0-39.4043 17.627-39.4043 39.4043s17.6758 39.4043 39.4043 39.4043Zm0-7.42188c-17.6758 0-31.9336-14.3066-31.9336-31.9824s14.2578-31.9824 31.9336-31.9824 31.9824 14.3066 31.9824 31.9824-14.3066 31.9824-31.9824 31.9824Zm3.61328-17.7734v-28.4668c0-2.24609-1.46484-3.75977-3.71094-3.75977-2.14844 0-3.61328 1.51367-3.61328 3.75977v28.4668c0 2.19727 1.46484 3.71094 3.61328 3.71094 2.24609 0 3.71094-1.51367 3.71094-3.71094Zm-17.8223-10.5957h28.418c2.19727 0 3.71094-1.46484 3.71094-3.61328 0-2.19727-1.51367-3.71094-3.71094-3.71094h-28.418c-2.24609 0-3.75977 1.51367-3.75977 3.71094 0 2.14844 1.51367 3.61328 3.75977 3.61328Z"/>
  </g>
  <g transform="matrix(0.2 0 0 0.2 281.506 1933)">
   <path d="m58.5449 14.5508c27.4902 0 49.8047-22.3145 49.8047-49.8047s-22.3145-49.8047-49.8047-49.8047-49.8047 22.3145-49.8047 49.8047 22.3145 49.8047 49.8047 49.8047Zm0-8.30078c-22.9492 0-41.5039-18.5547-41.5039-41.5039s18.5547-41.5039 41.5039-41.5039 41.5039 18.5547 41.5039 41.5039-18.5547 41.5039-41.5039 41.5039Zm4.05273-23.0957v-36.9141c0-2.49023-1.70898-4.19922-4.15039-4.19922-2.39258 0-4.05273 1.70898-4.05273 4.19922v36.9141c0 2.44141 1.66016 4.15039 4.05273 4.15039 2.44141 0 4.15039-1.66016 4.15039-4.15039Zm-22.5586-14.4043h36.9629c2.44141 0 4.15039-1.61133 4.15039-4.00391 0-2.44141-1.70898-4.15039-4.15039-4.15039h-36.9629c-2.49023 0-4.15039 1.70898-4.15039 4.15039 0 2.39258 1.66016 4.00391 4.15039 4.00391Z"/>
  </g>
  <g transform="matrix(0.2 0 0 0.2 304.924 1933)">
   <path d="m74.8535 28.3203c35.1074 0 63.623-28.4668 63.623-63.5742s-28.5156-63.623-63.623-63.623-63.5742 28.5156-63.5742 63.623 28.4668 63.5742 63.5742 63.5742Zm0-9.08203c-30.127 0-54.4922-24.3652-54.4922-54.4922s24.3652-54.4922 54.4922-54.4922 54.4922 24.3652 54.4922 54.4922-24.3652 54.4922-54.4922 54.4922Zm4.44336-30.3223v-48.4863c0-2.73438-1.85547-4.63867-4.54102-4.63867-2.58789 0-4.44336 1.9043-4.44336 4.63867v48.4863c0 2.68555 1.85547 4.58984 4.44336 4.58984 2.68555 0 4.54102-1.85547 4.54102-4.58984Zm-28.7109-19.7754h48.4863c2.68555 0 4.58984-1.80664 4.58984-4.39453 0-2.73438-1.85547-4.58984-4.58984-4.58984h-48.4863c-2.73438 0-4.58984 1.85547-4.58984 4.58984 0 2.58789 1.85547 4.39453 4.58984 4.39453Z"/>
  </g>
  <text style="stroke:none;fill:black;font-family:sans-serif;font-size:13;font-weight:bold;" transform="matrix(1 0 0 1 263 1953)">Design Variations</text>
  <text style="stroke:none;fill:black;font-family:sans-serif;font-size:13;" transform="matrix(1 0 0 1 263 1971)">Symbols are supported in up to nine weights and three scales.</text>
  <text style="stroke:none;fill:black;font-family:sans-serif;font-size:13;" transform="matrix(1 0 0 1 263 1989)">For optimal layout with text and other symbols, vertically align</text>
  <text style="stroke:none;fill:black;font-family:sans-serif;font-size:13;" transform="matrix(1 0 0 1 263 2007)">symbols with the adjacent text.</text>
  <line style="fill:none;stroke:#00AEEF;stroke-width:0.5;opacity:1.0;" x1="776" x2="776" y1="1919" y2="1933"/>
  <g transform="matrix(0.2 0 0 0.2 776 1933)">
   <path d="m16.5527 0.78125c2.58789 0 3.85742-0.976562 4.78516-3.71094l20.5566-57.5195h0.244141l20.6055 57.5195c0.927734 2.73438 2.19727 3.71094 4.73633 3.71094 2.58789 0 4.24805-1.5625 4.24805-4.00391 0-0.830078-0.146484-1.61133-0.537109-2.63672l-22.9004-60.9863c-1.12305-2.97852-3.125-4.49219-6.25-4.49219-3.02734 0-5.07812 1.46484-6.15234 4.44336l-22.9004 61.084c-0.390625 1.02539-0.537109 1.80664-0.537109 2.63672 0 2.44141 1.5625 3.95508 4.10156 3.95508Zm10.2051-20.9473h30.6641c2.00195 0 3.66211-1.66016 3.66211-3.66211 0-2.05078-1.66016-3.66211-3.66211-3.66211h-30.6641c-2.00195 0-3.66211 1.61133-3.66211 3.66211 0 2.00195 1.66016 3.66211 3.66211 3.66211Z"/>
  </g>
  <line style="fill:none;stroke:#00AEEF;stroke-width:0.5;opacity:1.0;" x1="792.836" x2="792.836" y1="1919" y2="1933"/>
  <text style="stroke:none;fill:black;font-family:sans-serif;font-size:13;font-weight:bold;" transform="matrix(1 0 0 1 776 1953)">Margins</text>
  <text style="stroke:none;fill:black;font-family:sans-serif;font-size:13;" transform="matrix(1 0 0 1 776 1971)">Leading and trailing margins on the left and right side of each symbol</text>
  <text style="stroke:none;fill:black;font-family:sans-serif;font-size:13;" transform="matrix(1 0 0 1 776 1989)">can be adjusted by modifying the x-location of the margin guidelines.</text>
  <text style="stroke:none;fill:black;font-family:sans-serif;font-size:13;" transform="matrix(1 0 0 1 776 2007)">Modifications are automatically applied proportionally to all</text>
  <text style="stroke:none;fill:black;font-family:sans-serif;font-size:13;" transform="matrix(1 0 0 1 776 2025)">scales and weights.</text>
  <g transform="matrix(0.2 0 0 0.2 1289 1933)">
   <path d="m14.209 13.1348 7.86133 7.86133c4.29688 4.39453 9.32617 4.10156 13.8672-1.02539l60.6934-68.2129-4.88281-4.88281-60.2539 67.6758c-1.80664 1.95312-3.4668 2.44141-5.81055 0.0976562l-5.17578-5.12695c-2.29492-2.29492-1.80664-3.95508 0.195312-5.81055l67.4805-62.1582-4.88281-4.83398-68.0664 62.5977c-4.98047 4.58984-5.32227 9.47266-1.02539 13.8184Zm44.873-97.4609c-2.05078 2.00195-2.24609 4.88281-1.07422 6.78711 1.12305 1.80664 3.4668 3.02734 6.5918 2.24609 5.85938-1.66016 12.5977-2.39258 18.8965 0.927734l-2.68555 7.12891c-1.61133 4.00391-0.732422 6.88477 1.70898 9.42383l10.2539 10.3027c2.34375 2.39258 4.54102 2.44141 7.08008 1.95312l4.44336-0.732422 2.58789 2.53906-0.195312 2.24609c-0.0976562 2.29492 0.537109 4.29688 2.7832 6.49414l3.36914 3.32031c2.29492 2.29492 5.51758 2.49023 7.8125 0.195312l12.9883-13.0371c2.29492-2.34375 2.14844-5.37109-0.195312-7.66602l-3.41797-3.41797c-2.19727-2.19727-4.05273-3.02734-6.34766-2.88086l-2.34375 0.244141-2.44141-2.44141 1.02539-4.6875c0.634766-2.73438-0.244141-4.98047-2.88086-7.61719l-11.2793-11.1816c-12.9395-12.8418-35.5957-11.0352-46.6797-0.146484Zm7.08008 2.05078c8.78906-6.39648 25.9766-5.66406 33.6914 1.95312l12.3047 12.207c1.02539 1.02539 1.2207 1.80664 0.927734 3.32031l-1.46484 6.64062 6.73828 6.68945 4.39453-0.244141c1.12305-0.0488281 1.51367 0.0488281 2.34375 0.878906l2.53906 2.49023-10.8398 10.8398-2.49023-2.49023c-0.830078-0.878906-0.976562-1.2207-0.927734-2.39258l0.292969-4.3457-6.68945-6.73828-6.83594 1.17188c-1.41602 0.292969-2.05078 0.195312-3.17383-0.878906l-8.93555-8.88672c-1.07422-1.02539-1.17188-1.70898-0.488281-3.36914l4.58984-11.4746c-6.10352-6.34766-17.041-7.51953-25.5859-4.58984-0.683594 0.244141-0.927734-0.390625-0.390625-0.78125Z"/>
  </g>
  <text style="stroke:none;fill:black;font-family:sans-serif;font-size:13;font-weight:bold;" transform="matrix(1 0 0 1 1289 1953)">Exporting</text>
  <text style="stroke:none;fill:black;font-family:sans-serif;font-size:13;" transform="matrix(1 0 0 1 1289 1971)">Symbols should be outlined when exporting to ensure the</text>
  <text style="stroke:none;fill:black;font-family:sans-serif;font-size:13;" transform="matrix(1 0 0 1 1289 1989)">design is preserved when submitting to Xcode.</text>
  <text id="template-version" style="stroke:none;fill:black;font-family:sans-serif;font-size:13;text-anchor:end;" transform="matrix(1 0 0 1 3036 1933)">Template v.2.0</text>
  <text style="stroke:none;fill:black;font-family:sans-serif;font-size:13;text-anchor:end;" transform="matrix(1 0 0 1 3036 1951)">Requires Xcode 12 or greater</text>
  <text id="descriptive-name" style="stroke:none;fill:black;font-family:sans-serif;font-size:13;text-anchor:end;" transform="matrix(1 0 0 1 3036 1969)">Generated from ellipsis</text>
  <text style="stroke:none;fill:black;font-family:sans-serif;font-size:13;text-anchor:end;" transform="matrix(1 0 0 1 3036 1987)">Typeset at 100.0 points</text>
  <text style="stroke:none;fill:black;font-family:sans-serif;font-size:13;" transform="matrix(1 0 0 1 263 726)">Small</text>
  <text style="stroke:none;fill:black;font-family:sans-serif;font-size:13;" transform="matrix(1 0 0 1 263 1156)">Medium</text>
  <text style="stroke:none;fill:black;font-family:sans-serif;font-size:13;" transform="matrix(1 0 0 1 263 1586)">Large</text>
 </g>
 <g id="Guides">
  <g id="H-reference" style="fill:#27AAE1;stroke:none;" transform="matrix(1 0 0 1 339 696)">
   <path d="M0.993654 0L3.63775 0L29.3281-67.1323L30.0303-67.1323L30.0303-70.459L28.1226-70.459ZM11.6885-24.4799L46.9815-24.4799L46.2315-26.7285L12.4385-26.7285ZM55.1196 0L57.7637 0L30.6382-70.459L29.4326-70.459L29.4326-67.1323Z"/>
  </g>
  <line id="Baseline-S" style="fill:none;stroke:#27AAE1;opacity:1;stroke-width:0.5;" x1="263" x2="3036" y1="696" y2="696"/>
  <line id="Capline-S" style="fill:none;stroke:#27AAE1;opacity:1;stroke-width:0.5;" x1="263" x2="3036" y1="625.541" y2="625.541"/>
  <g id="H-reference" style="fill:#27AAE1;stroke:none;" transform="matrix(1 0 0 1 339 1126)">
   <path d="M0.993654 0L3.63775 0L29.3281-67.1323L30.0303-67.1323L30.0303-70.459L28.1226-70.459ZM11.6885-24.4799L46.9815-24.4799L46.2315-26.7285L12.4385-26.7285ZM55.1196 0L57.7637 0L30.6382-70.459L29.4326-70.459L29.4326-67.1323Z"/>
  </g>
  <line id="Baseline-M" style="fill:none;stroke:#27AAE1;opacity:1;stroke-width:0.5;" x1="263" x2="3036" y1="1126" y2="1126"/>
  <line id="Capline-M" style="fill:none;stroke:#27AAE1;opacity:1;stroke-width:0.5;" x1="263" x2="3036" y1="1055.54" y2="1055.54"/>
  <g id="H-reference" style="fill:#27AAE1;stroke:none;" transform="matrix(1 0 0 1 339 1556)">
   <path d="M0.993654 0L3.63775 0L29.3281-67.1323L30.0303-67.1323L30.0303-70.459L28.1226-70.459ZM11.6885-24.4799L46.9815-24.4799L46.2315-26.7285L12.4385-26.7285ZM55.1196 0L57.7637 0L30.6382-70.459L29.4326-70.459L29.4326-67.1323Z"/>
  </g>
  <line id="Baseline-L" style="fill:none;stroke:#27AAE1;opacity:1;stroke-width:0.5;" x1="263" x2="3036" y1="1556" y2="1556"/>
  <line id="Capline-L" style="fill:none;stroke:#27AAE1;opacity:1;stroke-width:0.5;" x1="263" x2="3036" y1="1485.54" y2="1485.54"/>
  <line id="right-margin" style="fill:none;stroke:#00AEEF;stroke-width:0.5;opacity:1.0;" x1="1504.1" x2="1504.1" y1="1030.79" y2="1150.12"/>
  <line id="left-margin" style="fill:none;stroke:#00AEEF;stroke-width:0.5;opacity:1.0;" x1="1395.59" x2="1395.59" y1="1030.79" y2="1150.12"/>
 </g>
 <g id="Symbols">
  <g id="Black-L" transform="matrix(1 0 0 1 2858.54 1556)">
   <path d="M26.7156-19.8129C35.2419-19.8129 42.1723-26.7433 42.1723-35.2697C42.1723-43.7961 35.2419-50.7265 26.7156-50.7265C18.1904-50.7265 11.2588-43.7961 11.2588-35.2697C11.2588-26.7433 18.1904-19.8129 26.7156-19.8129ZM74.8546-19.8129C83.381-19.8129 90.3114-26.7433 90.3114-35.2697C90.3114-43.7961 83.381-50.7265 74.8546-50.7265C66.3294-50.7265 59.3978-43.7961 59.3978-35.2697C59.3978-26.7433 66.3294-19.8129 74.8546-19.8129ZM122.994-19.8129C131.52-19.8129 138.452-26.7433 138.452-35.2697C138.452-43.7961 131.52-50.7265 122.994-50.7265C114.489-50.7265 107.537-43.7961 107.537-35.2697C107.537-26.7433 114.489-19.8129 122.994-19.8129Z"/>
  </g>
  <g id="Heavy-L" transform="matrix(1 0 0 1 2563.16 1556)">
   <path d="M25.831-20.6975C33.8786-20.6975 40.4031-27.222 40.4031-35.2697C40.4031-43.3174 33.8786-49.8419 25.831-49.8419C17.7889-49.8419 11.2588-43.3174 11.2588-35.2697C11.2588-27.222 17.7889-20.6975 25.831-20.6975ZM73.5262-20.6975C81.5739-20.6975 88.0984-27.222 88.0984-35.2697C88.0984-43.3174 81.5739-49.8419 73.5262-49.8419C65.4841-49.8419 58.954-43.3174 58.954-35.2697C58.954-27.222 65.4841-20.6975 73.5262-20.6975ZM121.221-20.6975C129.269-20.6975 135.799-27.222 135.799-35.2697C135.799-43.3174 129.269-49.8419 121.221-49.8419C113.21-49.8419 106.649-43.3174 106.649-35.2697C106.649-27.222 113.21-20.6975 121.221-20.6975Z"/>
  </g>
  <g id="Bold-L" transform="matrix(1 0 0 1 2268.27 1556)">
   <path d="M24.7397-21.7888C32.1957-21.7888 38.2206-27.8137 38.2206-35.2697C38.2206-42.7257 32.1957-48.7506 24.7397-48.7506C17.297-48.7506 11.2588-42.7257 11.2588-35.2697C11.2588-27.8137 17.297-21.7888 24.7397-21.7888ZM71.703-21.7888C79.1589-21.7888 85.1839-27.8137 85.1839-35.2697C85.1839-42.7257 79.1589-48.7506 71.703-48.7506C64.2602-48.7506 58.222-42.7257 58.222-35.2697C58.222-27.8137 64.2602-21.7888 71.703-21.7888ZM118.666-21.7888C126.122-21.7888 132.16-27.8137 132.16-35.2697C132.16-42.7257 126.122-48.7506 118.666-48.7506C111.261-48.7506 105.185-42.7257 105.185-35.2697C105.185-27.8137 111.261-21.7888 118.666-21.7888Z"/>
  </g>
  <g id="Semibold-L" transform="matrix(1 0 0 1 1972.81 1556)">
   <path d="M23.9874-22.5411C31.0355-22.5411 36.716-28.2216 36.716-35.2697C36.716-42.3178 31.0355-47.9983 23.9874-47.9983C16.9578-47.9983 11.2588-42.3178 11.2588-35.2697C11.2588-28.2216 16.9578-22.5411 23.9874-22.5411ZM70.446-22.5411C77.4941-22.5411 83.1746-28.2216 83.1746-35.2697C83.1746-42.3178 77.4941-47.9983 70.446-47.9983C63.4164-47.9983 57.7174-42.3178 57.7174-35.2697C57.7174-28.2216 63.4164-22.5411 70.446-22.5411ZM116.905-22.5411C123.953-22.5411 129.652-28.2216 129.652-35.2697C129.652-42.3178 123.953-47.9983 116.905-47.9983C109.918-47.9983 104.176-42.3178 104.176-35.2697C104.176-28.2216 109.918-22.5411 116.905-22.5411Z"/>
  </g>
  <g id="Medium-L" transform="matrix(1 0 0 1 1677.05 1556)">
   <path d="M23.417-23.1115C30.1557-23.1115 35.5751-28.5309 35.5751-35.2697C35.5751-42.0085 30.1557-47.4279 23.417-47.4279C16.7007-47.4279 11.2588-42.0085 11.2588-35.2697C11.2588-28.5309 16.7007-23.1115 23.417-23.1115ZM69.493-23.1115C76.2317-23.1115 81.6511-28.5309 81.6511-35.2697C81.6511-42.0085 76.2317-47.4279 69.493-47.4279C62.7767-47.4279 57.3348-42.0085 57.3348-35.2697C57.3348-28.5309 62.7767-23.1115 69.493-23.1115ZM115.569-23.1115C122.308-23.1115 127.75-28.5309 127.75-35.2697C127.75-42.0085 122.308-47.4279 115.569-47.4279C108.9-47.4279 103.411-42.0085 103.411-35.2697C103.411-28.5309 108.9-23.1115 115.569-23.1115Z"/>
  </g>
  <g id="Regular-L" transform="matrix(1 0 0 1 1381.58 1556)">
   <path d="M22.6729-23.8556C29.0082-23.8556 34.0871-28.9344 34.0871-35.2697C34.0871-41.605 29.0082-46.6838 22.6729-46.6838C16.3653-46.6838 11.2588-41.605 11.2588-35.2697C11.2588-28.9344 16.3653-23.8556 22.6729-23.8556ZM68.2498-23.8556C74.5852-23.8556 79.664-28.9344 79.664-35.2697C79.664-41.605 74.5852-46.6838 68.2498-46.6838C61.9422-46.6838 56.8357-41.605 56.8357-35.2697C56.8357-28.9344 61.9422-23.8556 68.2498-23.8556ZM113.827-23.8556C120.162-23.8556 125.269-28.9344 125.269-35.2697C125.269-41.605 120.162-46.6838 113.827-46.6838C107.572-46.6838 102.413-41.605 102.413-35.2697C102.413-28.9344 107.572-23.8556 113.827-23.8556Z"/>
  </g>
  <g id="Light-L" transform="matrix(1 0 0 1 1087.26 1556)">
   <path d="M21.9477-24.5808C27.8822-24.5808 32.6366-29.3352 32.6366-35.2697C32.6366-41.2042 27.8822-45.9586 21.9477-45.9586C16.0599-45.9586 11.2588-41.2042 11.2588-35.2697C11.2588-29.3352 16.0599-24.5808 21.9477-24.5808ZM65.8451-24.5808C71.7796-24.5808 76.534-29.3352 76.534-35.2697C76.534-41.2042 71.7796-45.9586 65.8451-45.9586C59.9573-45.9586 55.1562-41.2042 55.1562-35.2697C55.1562-29.3352 59.9573-24.5808 65.8451-24.5808ZM109.742-24.5808C115.677-24.5808 120.478-29.3352 120.478-35.2697C120.478-41.2042 115.677-45.9586 109.742-45.9586C103.888-45.9586 99.0536-41.2042 99.0536-35.2697C99.0536-29.3352 103.888-24.5808 109.742-24.5808Z"/>
  </g>
  <g id="Thin-L" transform="matrix(1 0 0 1 793.722 1556)">
   <path d="M20.9885-25.54C26.3929-25.54 30.7182-29.8652 30.7182-35.2697C30.7182-40.6742 26.3929-44.9994 20.9885-44.9994C15.656-44.9994 11.2588-40.6742 11.2588-35.2697C11.2588-29.8652 15.656-25.54 20.9885-25.54ZM62.6646-25.54C68.0691-25.54 72.3943-29.8652 72.3943-35.2697C72.3943-40.6742 68.0691-44.9994 62.6646-44.9994C57.3321-44.9994 52.9349-40.6742 52.9349-35.2697C52.9349-29.8652 57.3321-25.54 62.6646-25.54ZM104.341-25.54C109.745-25.54 114.142-29.8652 114.142-35.2697C114.142-40.6742 109.745-44.9994 104.341-44.9994C99.0167-44.9994 94.611-40.6742 94.611-35.2697C94.611-29.8652 99.0167-25.54 104.341-25.54Z"/>
  </g>
  <g id="Ultralight-L" transform="matrix(1 0 0 1 498.633 1556)">
   <path d="M20.4972-26.0313C25.6302-26.0313 29.7356-30.1368 29.7356-35.2697C29.7356-40.4027 25.6302-44.5081 20.4972-44.5081C15.4492-44.5081 11.2588-40.4027 11.2588-35.2697C11.2588-30.1368 15.4492-26.0313 20.4972-26.0313ZM61.0356-26.0313C66.1685-26.0313 70.274-30.1368 70.274-35.2697C70.274-40.4027 66.1685-44.5081 61.0356-44.5081C55.9876-44.5081 51.7972-40.4027 51.7972-35.2697C51.7972-30.1368 55.9876-26.0313 61.0356-26.0313ZM101.574-26.0313C106.707-26.0313 110.897-30.1368 110.897-35.2697C110.897-40.4027 106.707-44.5081 101.574-44.5081C96.5215-44.5081 92.3356-40.4027 92.3356-35.2697C92.3356-30.1368 96.5215-26.0313 101.574-26.0313Z"/>
  </g>
  <g id="Black-M" transform="matrix(1 0 0 1 2874.59 1126)">
   <path d="M21.3596-22.6237C28.3225-22.6237 33.9966-28.2978 33.9966-35.2606C33.9966-42.2235 28.3225-47.8976 21.3596-47.8976C14.3965-47.8976 8.72266-42.2235 8.72266-35.2606C8.72266-28.2978 14.3965-22.6237 21.3596-22.6237ZM58.8088-22.6237C65.7717-22.6237 71.4458-28.2978 71.4458-35.2606C71.4458-42.2235 65.7717-47.8976 58.8088-47.8976C51.8457-47.8976 46.1718-42.2235 46.1718-35.2606C46.1718-28.2978 51.8457-22.6237 58.8088-22.6237ZM96.258-22.6237C103.221-22.6237 108.895-28.2978 108.895-35.2606C108.895-42.2235 103.221-47.8976 96.258-47.8976C89.3004-47.8976 83.621-42.2235 83.621-35.2606C83.621-28.2978 89.3004-22.6237 96.258-22.6237Z"/>
  </g>
  <g id="Heavy-M" transform="matrix(1 0 0 1 2578.96 1126)">
   <path d="M20.5618-23.4215C27.0937-23.4215 32.4009-28.7288 32.4009-35.2606C32.4009-41.7925 27.0937-47.0998 20.5618-47.0998C14.0322-47.0998 8.72266-41.7925 8.72266-35.2606C8.72266-28.7288 14.0322-23.4215 20.5618-23.4215ZM57.7321-23.4215C64.264-23.4215 69.5712-28.7288 69.5712-35.2606C69.5712-41.7925 64.264-47.0998 57.7321-47.0998C51.2025-47.0998 45.8929-41.7925 45.8929-35.2606C45.8929-28.7288 51.2025-23.4215 57.7321-23.4215ZM94.9024-23.4215C101.434-23.4215 106.744-28.7288 106.744-35.2606C106.744-41.7925 101.434-47.0998 94.9024-47.0998C88.3892-47.0998 83.0632-41.7925 83.0632-35.2606C83.0632-28.7288 88.3892-23.4215 94.9024-23.4215Z"/>
  </g>
  <g id="Bold-M" transform="matrix(1 0 0 1 2283.45 1126)">
   <path d="M19.6693-24.314C25.719-24.314 30.6159-29.2109 30.6159-35.2606C30.6159-41.3104 25.719-46.2073 19.6693-46.2073C13.6247-46.2073 8.72266-41.3104 8.72266-35.2606C8.72266-29.2109 13.6247-24.314 19.6693-24.314ZM56.5276-24.314C62.5773-24.314 67.4742-29.2109 67.4742-35.2606C67.4742-41.3104 62.5773-46.2073 56.5276-46.2073C50.483-46.2073 45.581-41.3104 45.581-35.2606C45.581-29.2109 50.483-24.314 56.5276-24.314ZM93.3859-24.314C99.4356-24.314 104.338-29.2109 104.338-35.2606C104.338-41.3104 99.4356-46.2073 93.3859-46.2073C87.3699-46.2073 82.4393-41.3104 82.4393-35.2606C82.4393-29.2109 87.3699-24.314 93.3859-24.314Z"/>
  </g>
  <g id="Semibold-M" transform="matrix(1 0 0 1 1987.57 1126)">
   <path d="M19.054-24.9293C24.7714-24.9293 29.3854-29.5433 29.3854-35.2606C29.3854-40.978 24.7714-45.592 19.054-45.592C13.3437-45.592 8.72266-40.978 8.72266-35.2606C8.72266-29.5433 13.3437-24.9293 19.054-24.9293ZM55.6972-24.9293C61.4146-24.9293 66.0286-29.5433 66.0286-35.2606C66.0286-40.978 61.4146-45.592 55.6972-45.592C49.987-45.592 45.3659-40.978 45.3659-35.2606C45.3659-29.5433 49.987-24.9293 55.6972-24.9293ZM92.3404-24.9293C98.0578-24.9293 102.679-29.5433 102.679-35.2606C102.679-40.978 98.0578-45.592 92.3404-45.592C86.6672-45.592 82.0091-40.978 82.0091-35.2606C82.0091-29.5433 86.6672-24.9293 92.3404-24.9293Z"/>
  </g>
  <g id="Medium-M" transform="matrix(1 0 0 1 1691.48 1126)">
   <path d="M18.5875-25.3958C24.0528-25.3958 28.4523-29.7953 28.4523-35.2606C28.4523-40.726 24.0528-45.1255 18.5875-45.1255C13.1307-45.1255 8.72266-40.726 8.72266-35.2606C8.72266-29.7953 13.1307-25.3958 18.5875-25.3958ZM55.0676-25.3958C60.5329-25.3958 64.9324-29.7953 64.9324-35.2606C64.9324-40.726 60.5329-45.1255 55.0676-45.1255C49.6109-45.1255 45.2028-40.726 45.2028-35.2606C45.2028-29.7953 49.6109-25.3958 55.0676-25.3958ZM91.5477-25.3958C97.0131-25.3958 101.421-29.7953 101.421-35.2606C101.421-40.726 97.0131-45.1255 91.5477-45.1255C86.1344-45.1255 81.6829-40.726 81.6829-35.2606C81.6829-29.7953 86.1344-25.3958 91.5477-25.3958Z"/>
  </g>
  <g id="Regular-M" transform="matrix(1 0 0 1 1395.59 1126)">
   <path d="M17.9789-26.0044C23.1156-26.0044 27.2352-30.124 27.2352-35.2606C27.2352-40.3973 23.1156-44.5169 17.9789-44.5169C12.8529-44.5169 8.72266-40.3973 8.72266-35.2606C8.72266-30.124 12.8529-26.0044 17.9789-26.0044ZM54.2464-26.0044C59.383-26.0044 63.5026-30.124 63.5026-35.2606C63.5026-40.3973 59.383-44.5169 54.2464-44.5169C49.1203-44.5169 44.9901-40.3973 44.9901-35.2606C44.9901-30.124 49.1203-26.0044 54.2464-26.0044ZM90.5138-26.0044C95.6504-26.0044 99.7806-30.124 99.7806-35.2606C99.7806-40.3973 95.6504-44.5169 90.5138-44.5169C85.4394-44.5169 81.2575-40.3973 81.2575-35.2606C81.2575-30.124 85.4394-26.0044 90.5138-26.0044Z"/>
  </g>
  <g id="Light-M" transform="matrix(1 0 0 1 1101.03 1126)">
   <path d="M17.3287-26.6546C22.106-26.6546 25.9348-30.4833 25.9348-35.2606C25.9348-40.0379 22.106-43.8667 17.3287-43.8667C12.5791-43.8667 8.72266-40.0379 8.72266-35.2606C8.72266-30.4833 12.5791-26.6546 17.3287-26.6546ZM52.0904-26.6546C56.8677-26.6546 60.6964-30.4833 60.6964-35.2606C60.6964-40.0379 56.8677-43.8667 52.0904-43.8667C47.3407-43.8667 43.4843-40.0379 43.4843-35.2606C43.4843-30.4833 47.3407-26.6546 52.0904-26.6546ZM86.852-26.6546C91.6293-26.6546 95.4858-30.4833 95.4858-35.2606C95.4858-40.0379 91.6293-43.8667 86.852-43.8667C82.137-43.8667 78.2459-40.0379 78.2459-35.2606C78.2459-30.4833 82.137-26.6546 86.852-26.6546Z"/>
  </g>
  <g id="Thin-M" transform="matrix(1 0 0 1 807.158 1126)">
   <path d="M16.4688-27.5145C20.7708-27.5145 24.2149-30.9586 24.2149-35.2606C24.2149-39.5627 20.7708-43.0068 16.4688-43.0068C12.217-43.0068 8.72266-39.5627 8.72266-35.2606C8.72266-30.9586 12.217-27.5145 16.4688-27.5145ZM49.2389-27.5145C53.541-27.5145 56.985-30.9586 56.985-35.2606C56.985-39.5627 53.541-43.0068 49.2389-43.0068C44.9872-43.0068 41.4928-39.5627 41.4928-35.2606C41.4928-30.9586 44.9872-27.5145 49.2389-27.5145ZM82.0091-27.5145C86.3111-27.5145 89.8055-30.9586 89.8055-35.2606C89.8055-39.5627 86.3111-43.0068 82.0091-43.0068C77.7693-43.0068 74.263-39.5627 74.263-35.2606C74.263-30.9586 77.7693-27.5145 82.0091-27.5145Z"/>
  </g>
  <g id="Ultralight-M" transform="matrix(1 0 0 1 511.902 1126)">
   <path d="M16.0283-27.955C20.0869-27.955 23.3339-31.202 23.3339-35.2606C23.3339-39.3193 20.0869-42.5663 16.0283-42.5663C12.0315-42.5663 8.72266-39.3193 8.72266-35.2606C8.72266-31.202 12.0315-27.955 16.0283-27.955ZM47.7784-27.955C51.8371-27.955 55.0841-31.202 55.0841-35.2606C55.0841-39.3193 51.8371-42.5663 47.7784-42.5663C43.7817-42.5663 40.4728-39.3193 40.4728-35.2606C40.4728-31.202 43.7817-27.955 47.7784-27.955ZM79.5285-27.955C83.5872-27.955 86.8961-31.202 86.8961-35.2606C86.8961-39.3193 83.5872-42.5663 79.5285-42.5663C75.5322-42.5663 72.2229-39.3193 72.2229-35.2606C72.2229-31.202 75.5322-27.955 79.5285-27.955Z"/>
  </g>
  <g id="Black-S" transform="matrix(1 0 0 1 2887.11 696)">
   <path d="M16.9434-25.1465C22.5098-25.1465 27.0508-29.6875 27.0508-35.2539C27.0508-40.8203 22.5098-45.3613 16.9434-45.3613C11.377-45.3613 6.83594-40.8203 6.83594-35.2539C6.83594-29.6875 11.377-25.1465 16.9434-25.1465ZM46.2891-25.1465C51.8555-25.1465 56.3965-29.6875 56.3965-35.2539C56.3965-40.8203 51.8555-45.3613 46.2891-45.3613C40.7227-45.3613 36.1816-40.8203 36.1816-35.2539C36.1816-29.6875 40.7227-25.1465 46.2891-25.1465ZM75.6348-25.1465C81.2012-25.1465 85.7422-29.6875 85.7422-35.2539C85.7422-40.8203 81.2012-45.3613 75.6348-45.3613C70.0684-45.3613 65.5273-40.8203 65.5273-35.2539C65.5273-29.6875 70.0684-25.1465 75.6348-25.1465Z"/>
  </g>
  <g id="Heavy-S" transform="matrix(1 0 0 1 2591.05 696)">
   <path d="M16.3441-25.7458C21.5878-25.7458 25.8522-30.0102 25.8522-35.2539C25.8522-40.4976 21.5878-44.7621 16.3441-44.7621C11.1004-44.7621 6.83594-40.4976 6.83594-35.2539C6.83594-30.0102 11.1004-25.7458 16.3441-25.7458ZM45.6437-25.7458C50.8874-25.7458 55.1518-30.0102 55.1518-35.2539C55.1518-40.4976 50.8874-44.7621 45.6437-44.7621C40.4-44.7621 36.1355-40.4976 36.1355-35.2539C36.1355-30.0102 40.4-25.7458 45.6437-25.7458ZM74.9433-25.7458C80.187-25.7458 84.4514-30.0102 84.4514-35.2539C84.4514-40.4976 80.187-44.7621 74.9433-44.7621C69.7111-44.7621 65.4351-40.4976 65.4351-35.2539C65.4351-30.0102 69.7111-25.7458 74.9433-25.7458Z"/>
  </g>
  <g id="Bold-S" transform="matrix(1 0 0 1 2295.06 696)">
   <path d="M15.6738-26.416C20.5566-26.416 24.5117-30.3711 24.5117-35.2539C24.5117-40.1367 20.5566-44.0918 15.6738-44.0918C10.791-44.0918 6.83594-40.1367 6.83594-35.2539C6.83594-30.3711 10.791-26.416 15.6738-26.416ZM44.9219-26.416C49.8047-26.416 53.7598-30.3711 53.7598-35.2539C53.7598-40.1367 49.8047-44.0918 44.9219-44.0918C40.0391-44.0918 36.084-40.1367 36.084-35.2539C36.084-30.3711 40.0391-26.416 44.9219-26.416ZM74.1699-26.416C79.0527-26.416 83.0078-30.3711 83.0078-35.2539C83.0078-40.1367 79.0527-44.0918 74.1699-44.0918C69.3115-44.0918 65.332-40.1367 65.332-35.2539C65.332-30.3711 69.3115-26.416 74.1699-26.416Z"/>
  </g>
  <g id="Semibold-S" transform="matrix(1 0 0 1 1998.84 696)">
   <path d="M15.2117-26.8781C19.8457-26.8781 23.5875-30.6199 23.5875-35.2539C23.5875-39.8879 19.8457-43.6297 15.2117-43.6297C10.5777-43.6297 6.83594-39.8879 6.83594-35.2539C6.83594-30.6199 10.5777-26.8781 15.2117-26.8781ZM44.4242-26.8781C49.0582-26.8781 52.8-30.6199 52.8-35.2539C52.8-39.8879 49.0582-43.6297 44.4242-43.6297C39.7902-43.6297 36.0484-39.8879 36.0484-35.2539C36.0484-30.6199 39.7902-26.8781 44.4242-26.8781ZM73.6367-26.8781C78.2707-26.8781 82.0125-30.6199 82.0125-35.2539C82.0125-39.8879 78.2707-43.6297 73.6367-43.6297C69.036-43.6297 65.2609-39.8879 65.2609-35.2539C65.2609-30.6199 69.036-26.8781 73.6367-26.8781Z"/>
  </g>
  <g id="Medium-S" transform="matrix(1 0 0 1 1702.51 696)">
   <path d="M14.8613-27.2285C19.3066-27.2285 22.8867-30.8086 22.8867-35.2539C22.8867-39.6992 19.3066-43.2793 14.8613-43.2793C10.416-43.2793 6.83594-39.6992 6.83594-35.2539C6.83594-30.8086 10.416-27.2285 14.8613-27.2285ZM44.0469-27.2285C48.4922-27.2285 52.0723-30.8086 52.0723-35.2539C52.0723-39.6992 48.4922-43.2793 44.0469-43.2793C39.6016-43.2793 36.0215-39.6992 36.0215-35.2539C36.0215-30.8086 39.6016-27.2285 44.0469-27.2285ZM73.2324-27.2285C77.6777-27.2285 81.2578-30.8086 81.2578-35.2539C81.2578-39.6992 77.6777-43.2793 73.2324-43.2793C68.8271-43.2793 65.207-39.6992 65.207-35.2539C65.207-30.8086 68.8271-27.2285 73.2324-27.2285Z"/>
  </g>
  <g id="Regular-S" transform="matrix(1 0 0 1 1406.29 696)">
   <path d="M14.4043-27.6855C18.6035-27.6855 21.9727-31.0547 21.9727-35.2539C21.9727-39.4531 18.6035-42.8223 14.4043-42.8223C10.2051-42.8223 6.83594-39.4531 6.83594-35.2539C6.83594-31.0547 10.2051-27.6855 14.4043-27.6855ZM43.5547-27.6855C47.7539-27.6855 51.123-31.0547 51.123-35.2539C51.123-39.4531 47.7539-42.8223 43.5547-42.8223C39.3555-42.8223 35.9863-39.4531 35.9863-35.2539C35.9863-31.0547 39.3555-27.6855 43.5547-27.6855ZM72.7051-27.6855C76.9043-27.6855 80.2734-31.0547 80.2734-35.2539C80.2734-39.4531 76.9043-42.8223 72.7051-42.8223C68.5547-42.8223 65.1367-39.4531 65.1367-35.2539C65.1367-31.0547 68.5547-27.6855 72.7051-27.6855Z"/>
  </g>
  <g id="Light-S" transform="matrix(1 0 0 1 1111.48 696)">
   <path d="M13.8291-28.2607C17.7105-28.2607 20.8223-31.3726 20.8223-35.2539C20.8223-39.1353 17.7105-42.2471 13.8291-42.2471C9.96289-42.2471 6.83594-39.1353 6.83594-35.2539C6.83594-31.3726 9.96289-28.2607 13.8291-28.2607ZM41.6475-28.2607C45.5288-28.2607 48.6406-31.3726 48.6406-35.2539C48.6406-39.1353 45.5288-42.2471 41.6475-42.2471C37.7813-42.2471 34.6543-39.1353 34.6543-35.2539C34.6543-31.3726 37.7813-28.2607 41.6475-28.2607ZM69.4658-28.2607C73.3472-28.2607 76.4742-31.3726 76.4742-35.2539C76.4742-39.1353 73.3472-42.2471 69.4658-42.2471C65.6333-42.2471 62.4727-39.1353 62.4727-35.2539C62.4727-31.3726 65.6333-28.2607 69.4658-28.2607Z"/>
  </g>
  <g id="Thin-S" transform="matrix(1 0 0 1 817.28 696)">
   <path d="M13.0684-29.0215C16.5293-29.0215 19.3008-31.793 19.3008-35.2539C19.3008-38.7148 16.5293-41.4863 13.0684-41.4863C9.64258-41.4863 6.83594-38.7148 6.83594-35.2539C6.83594-31.793 9.64258-29.0215 13.0684-29.0215ZM39.125-29.0215C42.586-29.0215 45.3575-31.793 45.3575-35.2539C45.3575-38.7148 42.586-41.4863 39.125-41.4863C35.6992-41.4863 32.8926-38.7148 32.8926-35.2539C32.8926-31.793 35.6992-29.0215 39.125-29.0215ZM65.1817-29.0215C68.6426-29.0215 71.4493-31.793 71.4493-35.2539C71.4493-38.7148 68.6426-41.4863 65.1817-41.4863C61.7696-41.4863 58.9493-38.7148 58.9493-35.2539C58.9493-31.793 61.7696-29.0215 65.1817-29.0215Z"/>
  </g>
  <g id="Ultralight-S" transform="matrix(1 0 0 1 521.855 696)">
   <path d="M12.6787-29.4111C15.9243-29.4111 18.5215-32.0083 18.5215-35.2539C18.5215-38.4995 15.9243-41.0967 12.6787-41.0967C9.47852-41.0967 6.83594-38.4995 6.83594-35.2539C6.83594-32.0083 9.47852-29.4111 12.6787-29.4111ZM37.8331-29.4111C41.0787-29.4111 43.6758-32.0083 43.6758-35.2539C43.6758-38.4995 41.0787-41.0967 37.8331-41.0967C34.6328-41.0967 31.9903-38.4995 31.9903-35.2539C31.9903-32.0083 34.6328-29.4111 37.8331-29.4111ZM62.9874-29.4111C66.233-29.4111 68.8756-32.0083 68.8756-35.2539C68.8756-38.4995 66.233-41.0967 62.9874-41.0967C59.7906-41.0967 57.1446-38.4995 57.1446-35.2539C57.1446-32.0083 59.7906-29.4111 62.9874-29.4111Z"/>
  </g>
 </g>
</svg>
