<?xml version="1.0" encoding="UTF-8"?>
<!--Generator: Apple Native CoreSVG 341-->
<!DOCTYPE svg
PUBLIC "-//W3C//DTD SVG 1.1//EN"
       "http://www.w3.org/Graphics/SVG/1.1/DTD/svg11.dtd">
<svg version="1.1" xmlns="http://www.w3.org/2000/svg" xmlns:xlink="http://www.w3.org/1999/xlink" viewBox="0 0 3300 2200">
 <g id="Notes">
  <rect height="2200" id="artboard" style="fill:white;opacity:1" width="3300" x="0" y="0"/>
  <line style="fill:none;stroke:black;opacity:1;stroke-width:0.5;" x1="263" x2="3036" y1="292" y2="292"/>
  <text style="stroke:none;fill:black;font-family:sans-serif;font-size:13;font-weight:bold;" transform="matrix(1 0 0 1 263 322)">Weight/Scale Variations</text>
  <text style="stroke:none;fill:black;font-family:sans-serif;font-size:13;text-anchor:middle;" transform="matrix(1 0 0 1 559.711 322)">Ultralight</text>
  <text style="stroke:none;fill:black;font-family:sans-serif;font-size:13;text-anchor:middle;" transform="matrix(1 0 0 1 856.422 322)">Thin</text>
  <text style="stroke:none;fill:black;font-family:sans-serif;font-size:13;text-anchor:middle;" transform="matrix(1 0 0 1 1153.13 322)">Light</text>
  <text style="stroke:none;fill:black;font-family:sans-serif;font-size:13;text-anchor:middle;" transform="matrix(1 0 0 1 1449.84 322)">Regular</text>
  <text style="stroke:none;fill:black;font-family:sans-serif;font-size:13;text-anchor:middle;" transform="matrix(1 0 0 1 1746.56 322)">Medium</text>
  <text style="stroke:none;fill:black;font-family:sans-serif;font-size:13;text-anchor:middle;" transform="matrix(1 0 0 1 2043.27 322)">Semibold</text>
  <text style="stroke:none;fill:black;font-family:sans-serif;font-size:13;text-anchor:middle;" transform="matrix(1 0 0 1 2339.98 322)">Bold</text>
  <text style="stroke:none;fill:black;font-family:sans-serif;font-size:13;text-anchor:middle;" transform="matrix(1 0 0 1 2636.69 322)">Heavy</text>
  <text style="stroke:none;fill:black;font-family:sans-serif;font-size:13;text-anchor:middle;" transform="matrix(1 0 0 1 2933.4 322)">Black</text>
  <line style="fill:none;stroke:black;opacity:1;stroke-width:0.5;" x1="263" x2="3036" y1="1903" y2="1903"/>
  <g transform="matrix(0.2 0 0 0.2 263 1933)">
   <path d="m46.2402 4.15039c21.7773 0 39.4531-17.627 39.4531-39.4043s-17.6758-39.4043-39.4531-39.4043c-21.7285 0-39.4043 17.627-39.4043 39.4043s17.6758 39.4043 39.4043 39.4043Zm0-7.42188c-17.6758 0-31.9336-14.3066-31.9336-31.9824s14.2578-31.9824 31.9336-31.9824 31.9824 14.3066 31.9824 31.9824-14.3066 31.9824-31.9824 31.9824Zm3.61328-17.7734v-28.4668c0-2.24609-1.46484-3.75977-3.71094-3.75977-2.14844 0-3.61328 1.51367-3.61328 3.75977v28.4668c0 2.19727 1.46484 3.71094 3.61328 3.71094 2.24609 0 3.71094-1.51367 3.71094-3.71094Zm-17.8223-10.5957h28.418c2.19727 0 3.71094-1.46484 3.71094-3.61328 0-2.19727-1.51367-3.71094-3.71094-3.71094h-28.418c-2.24609 0-3.75977 1.51367-3.75977 3.71094 0 2.14844 1.51367 3.61328 3.75977 3.61328Z"/>
  </g>
  <g transform="matrix(0.2 0 0 0.2 281.506 1933)">
   <path d="m58.5449 14.5508c27.4902 0 49.8047-22.3145 49.8047-49.8047s-22.3145-49.8047-49.8047-49.8047-49.8047 22.3145-49.8047 49.8047 22.3145 49.8047 49.8047 49.8047Zm0-8.30078c-22.9492 0-41.5039-18.5547-41.5039-41.5039s18.5547-41.5039 41.5039-41.5039 41.5039 18.5547 41.5039 41.5039-18.5547 41.5039-41.5039 41.5039Zm4.05273-23.0957v-36.9141c0-2.49023-1.70898-4.19922-4.15039-4.19922-2.39258 0-4.05273 1.70898-4.05273 4.19922v36.9141c0 2.44141 1.66016 4.15039 4.05273 4.15039 2.44141 0 4.15039-1.66016 4.15039-4.15039Zm-22.5586-14.4043h36.9629c2.44141 0 4.15039-1.61133 4.15039-4.00391 0-2.44141-1.70898-4.15039-4.15039-4.15039h-36.9629c-2.49023 0-4.15039 1.70898-4.15039 4.15039 0 2.39258 1.66016 4.00391 4.15039 4.00391Z"/>
  </g>
  <g transform="matrix(0.2 0 0 0.2 304.924 1933)">
   <path d="m74.8535 28.3203c35.1074 0 63.623-28.4668 63.623-63.5742s-28.5156-63.623-63.623-63.623-63.5742 28.5156-63.5742 63.623 28.4668 63.5742 63.5742 63.5742Zm0-9.08203c-30.127 0-54.4922-24.3652-54.4922-54.4922s24.3652-54.4922 54.4922-54.4922 54.4922 24.3652 54.4922 54.4922-24.3652 54.4922-54.4922 54.4922Zm4.44336-30.3223v-48.4863c0-2.73438-1.85547-4.63867-4.54102-4.63867-2.58789 0-4.44336 1.9043-4.44336 4.63867v48.4863c0 2.68555 1.85547 4.58984 4.44336 4.58984 2.68555 0 4.54102-1.85547 4.54102-4.58984Zm-28.7109-19.7754h48.4863c2.68555 0 4.58984-1.80664 4.58984-4.39453 0-2.73438-1.85547-4.58984-4.58984-4.58984h-48.4863c-2.73438 0-4.58984 1.85547-4.58984 4.58984 0 2.58789 1.85547 4.39453 4.58984 4.39453Z"/>
  </g>
  <text style="stroke:none;fill:black;font-family:sans-serif;font-size:13;font-weight:bold;" transform="matrix(1 0 0 1 263 1953)">Design Variations</text>
  <text style="stroke:none;fill:black;font-family:sans-serif;font-size:13;" transform="matrix(1 0 0 1 263 1971)">Symbols are supported in up to nine weights and three scales.</text>
  <text style="stroke:none;fill:black;font-family:sans-serif;font-size:13;" transform="matrix(1 0 0 1 263 1989)">For optimal layout with text and other symbols, vertically align</text>
  <text style="stroke:none;fill:black;font-family:sans-serif;font-size:13;" transform="matrix(1 0 0 1 263 2007)">symbols with the adjacent text.</text>
  <line style="fill:none;stroke:#00AEEF;stroke-width:0.5;opacity:1.0;" x1="776" x2="776" y1="1919" y2="1933"/>
  <g transform="matrix(0.2 0 0 0.2 776 1933)">
   <path d="m16.5527 0.78125c2.58789 0 3.85742-0.976562 4.78516-3.71094l20.5566-57.5195h0.244141l20.6055 57.5195c0.927734 2.73438 2.19727 3.71094 4.73633 3.71094 2.58789 0 4.24805-1.5625 4.24805-4.00391 0-0.830078-0.146484-1.61133-0.537109-2.63672l-22.9004-60.9863c-1.12305-2.97852-3.125-4.49219-6.25-4.49219-3.02734 0-5.07812 1.46484-6.15234 4.44336l-22.9004 61.084c-0.390625 1.02539-0.537109 1.80664-0.537109 2.63672 0 2.44141 1.5625 3.95508 4.10156 3.95508Zm10.2051-20.9473h30.6641c2.00195 0 3.66211-1.66016 3.66211-3.66211 0-2.05078-1.66016-3.66211-3.66211-3.66211h-30.6641c-2.00195 0-3.66211 1.61133-3.66211 3.66211 0 2.00195 1.66016 3.66211 3.66211 3.66211Z"/>
  </g>
  <line style="fill:none;stroke:#00AEEF;stroke-width:0.5;opacity:1.0;" x1="792.836" x2="792.836" y1="1919" y2="1933"/>
  <text style="stroke:none;fill:black;font-family:sans-serif;font-size:13;font-weight:bold;" transform="matrix(1 0 0 1 776 1953)">Margins</text>
  <text style="stroke:none;fill:black;font-family:sans-serif;font-size:13;" transform="matrix(1 0 0 1 776 1971)">Leading and trailing margins on the left and right side of each symbol</text>
  <text style="stroke:none;fill:black;font-family:sans-serif;font-size:13;" transform="matrix(1 0 0 1 776 1989)">can be adjusted by modifying the x-location of the margin guidelines.</text>
  <text style="stroke:none;fill:black;font-family:sans-serif;font-size:13;" transform="matrix(1 0 0 1 776 2007)">Modifications are automatically applied proportionally to all</text>
  <text style="stroke:none;fill:black;font-family:sans-serif;font-size:13;" transform="matrix(1 0 0 1 776 2025)">scales and weights.</text>
  <g transform="matrix(0.2 0 0 0.2 1289 1933)">
   <path d="m14.209 13.1348 7.86133 7.86133c4.29688 4.39453 9.32617 4.10156 13.8672-1.02539l60.6934-68.2129-4.88281-4.88281-60.2539 67.6758c-1.80664 1.95312-3.4668 2.44141-5.81055 0.0976562l-5.17578-5.12695c-2.29492-2.29492-1.80664-3.95508 0.195312-5.81055l67.4805-62.1582-4.88281-4.83398-68.0664 62.5977c-4.98047 4.58984-5.32227 9.47266-1.02539 13.8184Zm44.873-97.4609c-2.05078 2.00195-2.24609 4.88281-1.07422 6.78711 1.12305 1.80664 3.4668 3.02734 6.5918 2.24609 5.85938-1.66016 12.5977-2.39258 18.8965 0.927734l-2.68555 7.12891c-1.61133 4.00391-0.732422 6.88477 1.70898 9.42383l10.2539 10.3027c2.34375 2.39258 4.54102 2.44141 7.08008 1.95312l4.44336-0.732422 2.58789 2.53906-0.195312 2.24609c-0.0976562 2.29492 0.537109 4.29688 2.7832 6.49414l3.36914 3.32031c2.29492 2.29492 5.51758 2.49023 7.8125 0.195312l12.9883-13.0371c2.29492-2.34375 2.14844-5.37109-0.195312-7.66602l-3.41797-3.41797c-2.19727-2.19727-4.05273-3.02734-6.34766-2.88086l-2.34375 0.244141-2.44141-2.44141 1.02539-4.6875c0.634766-2.73438-0.244141-4.98047-2.88086-7.61719l-11.2793-11.1816c-12.9395-12.8418-35.5957-11.0352-46.6797-0.146484Zm7.08008 2.05078c8.78906-6.39648 25.9766-5.66406 33.6914 1.95312l12.3047 12.207c1.02539 1.02539 1.2207 1.80664 0.927734 3.32031l-1.46484 6.64062 6.73828 6.68945 4.39453-0.244141c1.12305-0.0488281 1.51367 0.0488281 2.34375 0.878906l2.53906 2.49023-10.8398 10.8398-2.49023-2.49023c-0.830078-0.878906-0.976562-1.2207-0.927734-2.39258l0.292969-4.3457-6.68945-6.73828-6.83594 1.17188c-1.41602 0.292969-2.05078 0.195312-3.17383-0.878906l-8.93555-8.88672c-1.07422-1.02539-1.17188-1.70898-0.488281-3.36914l4.58984-11.4746c-6.10352-6.34766-17.041-7.51953-25.5859-4.58984-0.683594 0.244141-0.927734-0.390625-0.390625-0.78125Z"/>
  </g>
  <text style="stroke:none;fill:black;font-family:sans-serif;font-size:13;font-weight:bold;" transform="matrix(1 0 0 1 1289 1953)">Exporting</text>
  <text style="stroke:none;fill:black;font-family:sans-serif;font-size:13;" transform="matrix(1 0 0 1 1289 1971)">Symbols should be outlined when exporting to ensure the</text>
  <text style="stroke:none;fill:black;font-family:sans-serif;font-size:13;" transform="matrix(1 0 0 1 1289 1989)">design is preserved when submitting to Xcode.</text>
  <text id="template-version" style="stroke:none;fill:black;font-family:sans-serif;font-size:13;text-anchor:end;" transform="matrix(1 0 0 1 3036 1933)">Template v.2.0</text>
  <text style="stroke:none;fill:black;font-family:sans-serif;font-size:13;text-anchor:end;" transform="matrix(1 0 0 1 3036 1951)">Requires Xcode 12 or greater</text>
  <text id="descriptive-name" style="stroke:none;fill:black;font-family:sans-serif;font-size:13;text-anchor:end;" transform="matrix(1 0 0 1 3036 1969)">Generated from pencil</text>
  <text style="stroke:none;fill:black;font-family:sans-serif;font-size:13;text-anchor:end;" transform="matrix(1 0 0 1 3036 1987)">Typeset at 100.0 points</text>
  <text style="stroke:none;fill:black;font-family:sans-serif;font-size:13;" transform="matrix(1 0 0 1 263 726)">Small</text>
  <text style="stroke:none;fill:black;font-family:sans-serif;font-size:13;" transform="matrix(1 0 0 1 263 1156)">Medium</text>
  <text style="stroke:none;fill:black;font-family:sans-serif;font-size:13;" transform="matrix(1 0 0 1 263 1586)">Large</text>
 </g>
 <g id="Guides">
  <g id="H-reference" style="fill:#27AAE1;stroke:none;" transform="matrix(1 0 0 1 339 696)">
   <path d="M0.993654 0L3.63775 0L29.3281-67.1323L30.0303-67.1323L30.0303-70.459L28.1226-70.459ZM11.6885-24.4799L46.9815-24.4799L46.2315-26.7285L12.4385-26.7285ZM55.1196 0L57.7637 0L30.6382-70.459L29.4326-70.459L29.4326-67.1323Z"/>
  </g>
  <line id="Baseline-S" style="fill:none;stroke:#27AAE1;opacity:1;stroke-width:0.5;" x1="263" x2="3036" y1="696" y2="696"/>
  <line id="Capline-S" style="fill:none;stroke:#27AAE1;opacity:1;stroke-width:0.5;" x1="263" x2="3036" y1="625.541" y2="625.541"/>
  <g id="H-reference" style="fill:#27AAE1;stroke:none;" transform="matrix(1 0 0 1 339 1126)">
   <path d="M0.993654 0L3.63775 0L29.3281-67.1323L30.0303-67.1323L30.0303-70.459L28.1226-70.459ZM11.6885-24.4799L46.9815-24.4799L46.2315-26.7285L12.4385-26.7285ZM55.1196 0L57.7637 0L30.6382-70.459L29.4326-70.459L29.4326-67.1323Z"/>
  </g>
  <line id="Baseline-M" style="fill:none;stroke:#27AAE1;opacity:1;stroke-width:0.5;" x1="263" x2="3036" y1="1126" y2="1126"/>
  <line id="Capline-M" style="fill:none;stroke:#27AAE1;opacity:1;stroke-width:0.5;" x1="263" x2="3036" y1="1055.54" y2="1055.54"/>
  <g id="H-reference" style="fill:#27AAE1;stroke:none;" transform="matrix(1 0 0 1 339 1556)">
   <path d="M0.993654 0L3.63775 0L29.3281-67.1323L30.0303-67.1323L30.0303-70.459L28.1226-70.459ZM11.6885-24.4799L46.9815-24.4799L46.2315-26.7285L12.4385-26.7285ZM55.1196 0L57.7637 0L30.6382-70.459L29.4326-70.459L29.4326-67.1323Z"/>
  </g>
  <line id="Baseline-L" style="fill:none;stroke:#27AAE1;opacity:1;stroke-width:0.5;" x1="263" x2="3036" y1="1556" y2="1556"/>
  <line id="Capline-L" style="fill:none;stroke:#27AAE1;opacity:1;stroke-width:0.5;" x1="263" x2="3036" y1="1485.54" y2="1485.54"/>
  <line id="right-margin" style="fill:none;stroke:#00AEEF;stroke-width:0.5;opacity:1.0;" x1="1499.95" x2="1499.95" y1="1030.79" y2="1150.12"/>
  <line id="left-margin" style="fill:none;stroke:#00AEEF;stroke-width:0.5;opacity:1.0;" x1="1399.74" x2="1399.74" y1="1030.79" y2="1150.12"/>
 </g>
 <g id="Symbols">
  <g id="Black-L" transform="matrix(1 0 0 1 2859.14 1556)">
   <path d="M37.1624 17.8108L114.792-59.9138L98.9629-75.7431L21.3343 1.97909L14.7532 19.4088C13.5866 22.5238 16.782 25.43 19.587 24.4022ZM122.562-67.5819L130.916-75.9147C134.942-79.9388 135.121-84.6668 131.299-88.526L127.731-92.1525C123.933-96.0302 119.087-95.6513 115.064-91.7076L106.691-83.4344Z"/>
  </g>
  <g id="Heavy-L" transform="matrix(1 0 0 1 2564.7 1556)">
   <path d="M35.7638 15.7326L111.475-60.032L96.8823-74.6247L21.1767 1.12865L14.7257 17.6969C13.6919 20.4093 16.4848 23.0194 18.9843 22.1107ZM118.683-67.1299L126.52-74.9304C130.345-78.7505 130.525-83.1464 126.926-86.7597L123.748-89.9824C120.191-93.6147 115.7-93.254 111.886-89.5143L104.03-81.764Z"/>
  </g>
  <g id="Bold-L" transform="matrix(1 0 0 1 2270.55 1556)">
   <path d="M34.0199 13.3597L107.901-60.5283L94.8893-73.5397L21.0218 0.321854L14.6948 15.822C13.8151 18.0574 16.1309 20.2987 18.2538 19.5286ZM114.418-66.9267L121.594-74.0516C125.158-77.6032 125.331-81.5768 122.016-84.8828L119.352-87.5762C116.101-90.8938 112.056-90.5562 108.518-87.0849L101.33-80.0025Z"/>
  </g>
  <g id="Semibold-L" transform="matrix(1 0 0 1 1975.61 1556)">
   <path d="M32.8177 11.7238L105.437-60.8704L93.5154-72.7916L20.915-0.234348L14.6736 14.5295C13.9 16.436 15.8869 18.4231 17.7502 17.7486ZM111.477-66.7866L118.197-73.4457C121.583-76.8122 121.75-80.4947 118.631-83.5889L116.321-85.9175C113.282-89.0181 109.544-88.6963 106.196-85.4101L99.4687-78.7882Z"/>
  </g>
  <g id="Medium-L" transform="matrix(1 0 0 1 1680.24 1556)">
   <path d="M31.9061 10.4834L103.568-61.1298L92.4736-72.2244L20.834-0.656084L14.6575 13.5495C13.9644 15.2066 15.7019 17.0009 17.3684 16.3988ZM109.247-66.6804L115.622-72.9863C118.871-76.2125 119.034-79.6743 116.064-82.6078L114.023-84.6597C111.144-87.5958 107.639-87.2861 104.435-84.1402L98.0572-77.8674Z"/>
  </g>
  <g id="Regular-L" transform="matrix(1 0 0 1 1385.27 1556)">
   <path d="M30.7171 8.86553L101.131-61.4682L91.1148-71.4846L20.7283-1.20617L14.6364 12.2712C14.0484 13.6031 15.4606 15.1459 16.8703 14.6383ZM106.338-66.5419L112.264-72.387C115.335-75.4302 115.493-78.6041 112.716-81.3282L111.025-83.0191C108.356-85.7407 105.155-85.4466 102.139-82.4838L96.2162-76.6663Z"/>
  </g>
  <g id="Light-L" transform="matrix(1 0 0 1 1088.71 1556)">
   <path d="M29.4384 8.522L102.105-64.0638L93.5005-72.6678L20.881-0.175569L14.6364 12.5575C14.0866 13.6985 15.3079 14.9742 16.4695 14.5047ZM106.853-68.6985L112.206-73.9711C115.01-76.728 115.111-79.5393 112.582-82.0343L111.445-83.1718C109.043-85.6071 106.185-85.3321 103.475-82.6556L98.1819-77.4298Z"/>
  </g>
  <g id="Thin-L" transform="matrix(1 0 0 1 792.184 1556)">
   <path d="M27.7472 8.06765L103.392-67.4967L96.6557-74.2328L21.083 1.18749L14.6364 12.9361C14.137 13.8247 15.106 14.747 15.9395 14.328ZM107.535-71.5508L112.131-76.0662C114.581-78.4445 114.606-80.7761 112.406-82.9683L112-83.3737C109.952-85.4304 107.548-85.1807 105.242-82.8828L100.782-78.4394Z"/>
  </g>
  <g id="Ultralight-L" transform="matrix(1 0 0 1 495.57 1556)">
   <path d="M26.8809 7.83493L104.051-69.255L98.2718-75.0344L21.1864 1.88564L14.6364 13.1301C14.1629 13.8893 15.0026 14.6306 15.668 14.2375ZM107.884-73.0118L112.092-77.1393C114.361-79.3236 114.348-81.4096 112.315-83.4466L112.285-83.4772C110.417-85.3399 108.247-85.1031 106.147-82.9991L102.114-78.9566Z"/>
  </g>
  <g id="Black-M" transform="matrix(1 0 0 1 2873.93 1126)">
   <path d="M29.8201 7.60252L91.9171-54.6035L78.7821-67.7385L16.6848-5.53192L11.4536 8.61109C10.4408 11.3445 13.2365 13.8144 15.6386 12.921ZM98.3564-60.9749L105.197-67.8105C108.451-71.0648 108.582-74.964 105.463-78.1343L102.439-81.2159C99.3248-84.3922 95.3118-84.0857 92.0572-80.8936L85.2104-74.1149Z"/>
  </g>
  <g id="Heavy-M" transform="matrix(1 0 0 1 2579.43 1126)">
   <path d="M28.5708 5.60266L88.5845-54.4796L76.5281-66.5361L16.5166-6.45835L11.4267 6.9112C10.5402 9.26872 12.96 11.4738 15.0864 10.6932ZM94.5177-60.3341L100.905-66.7022C103.988-69.7834 104.124-73.3914 101.201-76.3424L98.5064-79.0804C95.6035-82.0432 91.906-81.7527 88.8271-78.7337L82.4284-72.4115Z"/>
  </g>
  <g id="Bold-M" transform="matrix(1 0 0 1 2285.19 1126)">
   <path d="M27.1733 3.36553L84.8565-54.3411L74.0066-65.191L16.3284-7.4947L11.3965 5.00963C10.6514 6.94663 12.6508 8.85539 14.4686 8.20114ZM90.2236-59.6173L96.1026-65.4624C98.9953-68.35 99.1382-71.6323 96.4325-74.338L94.1075-76.6915C91.4407-79.4155 88.0961-79.1429 85.2137-76.3176L79.3164-70.5061Z"/>
  </g>
  <g id="Semibold-M" transform="matrix(1 0 0 1 1990.18 1126)">
   <path d="M26.2098 1.82327L82.2865-54.2455L72.2683-64.2637L16.1987-8.20916L11.3758 3.6987C10.7281 5.3458 12.4375 7.0503 14.0427 6.48312ZM87.2633-59.123L92.7921-64.6077C95.5533-67.3618 95.7008-70.4196 93.1454-72.9561L91.075-75.0446C88.5709-77.604 85.4697-77.3437 82.7227-74.6519L77.171-69.1925Z"/>
  </g>
  <g id="Medium-M" transform="matrix(1 0 0 1 1694.76 1126)">
   <path d="M25.4793 0.653856L80.3377-54.1731L70.9502-63.5606L16.1004-8.75089L11.36 2.70469C10.7863 4.13199 12.2759 5.6816 13.7198 5.18045ZM85.0187-58.7483L90.282-63.9596C92.9435-66.6125 93.0943-69.5001 90.6529-71.9083L88.7756-73.7959C86.3949-76.2304 83.4781-75.9795 80.8339-73.3889L75.5443-68.1965Z"/>
  </g>
  <g id="Regular-M" transform="matrix(1 0 0 1 1399.74 1126)">
   <path d="M24.5265-0.871462L77.7959-54.0786L69.231-62.6435L15.9721-9.45749L11.3395 1.40817C10.8621 2.54875 12.065 3.89635 13.2985 3.48132ZM82.0909-58.2596L87.008-63.1143C89.5394-65.6351 89.6946-68.3007 87.4019-70.5417L85.7765-72.1671C83.5566-74.4387 80.8805-74.2001 78.3702-71.7415L73.4225-66.8973Z"/>
  </g>
  <g id="Light-M" transform="matrix(1 0 0 1 1103.15 1126)">
   <path d="M23.38-1.17946L78.6686-56.4057L71.3699-63.7044L16.109-8.5335L11.3395 1.66483C10.8963 2.63431 11.9281 3.74235 12.9392 3.36154ZM82.5529-60.1931L86.9567-64.5345C89.2485-66.7987 89.3524-69.1391 87.2821-71.1748L86.1529-72.304C84.1726-74.319 81.8045-74.0974 79.568-71.8955L75.1849-67.5818Z"/>
  </g>
  <g id="Thin-M" transform="matrix(1 0 0 1 806.613 1126)">
   <path d="M21.8638-1.58681L79.8227-59.4834L74.1987-65.1075L16.29-7.31145L11.3395 2.00429C10.9416 2.74746 11.7471 3.53868 12.464 3.20313ZM83.164-62.7503L86.8888-66.4129C88.8638-68.3376 88.8998-70.248 87.1237-72.0121L86.6508-72.4851C84.9873-74.1605 83.0265-73.9616 81.1521-72.0992L77.5159-68.487Z"/>
  </g>
  <g id="Ultralight-M" transform="matrix(1 0 0 1 509.989 1126)">
   <path d="M21.0872-1.79545L80.4139-61.0599L75.6476-65.8262L16.3828-6.68552L11.3395 2.17816C10.9648 2.80542 11.6543 3.43435 12.2206 3.12199ZM83.4769-64.0602L86.854-67.3749C88.6667-69.1258 88.668-70.816 87.0426-72.441L86.9058-72.5778C85.4046-74.0794 83.6525-73.8921 81.9635-72.2035L78.7098-68.9506Z"/>
  </g>
  <g id="Black-S" transform="matrix(1 0 0 1 2886.13 696)">
   <path d="M23.6816-1.07422L73.0957-50.5859L62.5488-61.1328L13.1348-11.6211L8.98438-0.341797C8.1543 1.9043 10.4492 3.90625 12.4023 3.17383ZM78.2715-55.7129L83.7402-61.1816C86.3281-63.7695 86.4258-66.8945 83.9355-69.4336L81.4941-71.9238C79.0039-74.4629 75.7812-74.2188 73.1934-71.6797L67.7246-66.2598Z"/>
  </g>
  <g id="Heavy-S" transform="matrix(1 0 0 1 2591.3 696)">
   <path d="M22.7597-2.74527L70.1339-50.1826L60.3477-59.9688L12.9734-12.5315L8.96133-1.82845C8.23497 0.118005 10.2303 1.92404 11.9759 1.28382ZM74.9294-54.9177L80.0755-60.0522C82.5481-62.5249 82.6573-65.4424 80.3053-67.8202L78.0829-70.0799C75.7425-72.4692 72.7503-72.2365 70.2777-69.8127L65.1201-64.7155Z"/>
  </g>
  <g id="Bold-S" transform="matrix(1 0 0 1 2296.68 696)">
   <path d="M21.7285-4.61426L66.8213-49.7314L57.8857-58.667L12.793-13.5498L8.93555-3.49121C8.3252-1.87988 9.98535-0.292969 11.499-0.830078ZM71.1914-54.0283L75.9766-58.7891C78.3203-61.1328 78.4424-63.8184 76.2451-66.0156L74.2676-68.0176C72.0947-70.2393 69.3604-70.0195 67.0166-67.7246L62.207-62.9883Z"/>
  </g>
  <g id="Semibold-S" transform="matrix(1 0 0 1 2001.41 696)">
   <path d="M21.0176-5.90283L64.5374-49.4204L56.1884-57.7694L12.6686-14.2519L8.91777-4.6376C8.3874-3.25732 9.8165-1.82148 11.1702-2.2875ZM68.6143-53.4151L73.1506-57.9182C75.4055-60.173 75.5364-62.6986 73.4458-64.7715L71.6371-66.5957C69.5798-68.7019 67.0231-68.491 64.7683-66.285L60.1986-61.7975Z"/>
  </g>
  <g id="Medium-S" transform="matrix(1 0 0 1 1705.8 696)">
   <path d="M20.4785-6.87988L62.8057-49.1846L54.9014-57.0889L12.5742-14.7842L8.9043-5.50684C8.43457-4.30176 9.68848-2.98047 10.9209-3.39258ZM66.6602-52.9502L71.0078-57.2578C73.1953-59.4453 73.333-61.8496 71.3232-63.8281L69.6426-65.5176C67.6729-67.5361 65.251-67.332 63.0635-65.1934L58.6758-60.8945Z"/>
  </g>
  <g id="Regular-S" transform="matrix(1 0 0 1 1410.51 696)">
   <path d="M19.7754-8.1543L60.5469-48.877L53.2227-56.2012L12.4512-15.4785L8.88672-6.64062C8.49609-5.66406 9.52148-4.49219 10.5957-4.83398ZM64.1113-52.3438L68.2129-56.3965C70.3125-58.4961 70.459-60.7422 68.5547-62.5977L67.041-64.1113C65.1855-66.0156 62.9395-65.8203 60.8398-63.7695L56.6895-59.7168Z"/>
  </g>
  <g id="Light-S" transform="matrix(1 0 0 1 1113.92 696)">
   <path d="M18.7612-8.42676L61.3188-50.9355L55.1147-57.1396L12.5723-14.6611L8.88672-6.41358C8.52637-5.58838 9.40039-4.62842 10.2778-4.93994ZM64.52-54.0542L68.1675-57.6528C70.0552-59.5254 70.1563-61.4839 68.4487-63.1577L67.374-64.2324C65.7305-65.9097 63.7568-65.7295 61.8994-63.9058L58.2485-60.3223Z"/>
  </g>
  <g id="Thin-S" transform="matrix(1 0 0 1 817.355 696)">
   <path d="M17.4199-8.7871L62.3398-53.6582L57.6172-58.3808L12.7324-13.5801L8.88672-6.11329C8.56641-5.48828 9.24024-4.80859 9.85743-5.08008ZM65.0605-56.3164L68.1074-59.3144C69.7148-60.8867 69.7559-62.4648 68.3086-63.8984L67.8144-64.3926C66.4512-65.7695 64.8379-65.6094 63.3008-64.0859L60.3105-61.123Z"/>
  </g>
  <g id="Ultralight-S" transform="matrix(1 0 0 1 520.721 696)">
   <path d="M16.7329-8.97167L62.8628-55.0527L58.8989-59.0166L12.8145-13.0264L8.88672-5.95948C8.58691-5.43701 9.15821-4.90088 9.6421-5.15185ZM65.3374-57.4751L68.0767-60.1655C69.5405-61.584 69.5508-62.9673 68.2368-64.2778L68.04-64.4746C66.8203-65.6978 65.3916-65.5479 64.0185-64.1782L61.3667-61.5332Z"/>
  </g>
 </g>
</svg>
