<?xml version="1.0" encoding="UTF-8"?>
<!--Generator: Apple Native CoreSVG 341-->
<!DOCTYPE svg
PUBLIC "-//W3C//DTD SVG 1.1//EN"
       "http://www.w3.org/Graphics/SVG/1.1/DTD/svg11.dtd">
<svg version="1.1" xmlns="http://www.w3.org/2000/svg" xmlns:xlink="http://www.w3.org/1999/xlink" viewBox="0 0 3300 2200">
 <g id="Notes">
  <rect height="2200" id="artboard" style="fill:white;opacity:1" width="3300" x="0" y="0"/>
  <line style="fill:none;stroke:black;opacity:1;stroke-width:0.5;" x1="263" x2="3036" y1="292" y2="292"/>
  <text style="stroke:none;fill:black;font-family:sans-serif;font-size:13;font-weight:bold;" transform="matrix(1 0 0 1 263 322)">Weight/Scale Variations</text>
  <text style="stroke:none;fill:black;font-family:sans-serif;font-size:13;text-anchor:middle;" transform="matrix(1 0 0 1 559.711 322)">Ultralight</text>
  <text style="stroke:none;fill:black;font-family:sans-serif;font-size:13;text-anchor:middle;" transform="matrix(1 0 0 1 856.422 322)">Thin</text>
  <text style="stroke:none;fill:black;font-family:sans-serif;font-size:13;text-anchor:middle;" transform="matrix(1 0 0 1 1153.13 322)">Light</text>
  <text style="stroke:none;fill:black;font-family:sans-serif;font-size:13;text-anchor:middle;" transform="matrix(1 0 0 1 1449.84 322)">Regular</text>
  <text style="stroke:none;fill:black;font-family:sans-serif;font-size:13;text-anchor:middle;" transform="matrix(1 0 0 1 1746.56 322)">Medium</text>
  <text style="stroke:none;fill:black;font-family:sans-serif;font-size:13;text-anchor:middle;" transform="matrix(1 0 0 1 2043.27 322)">Semibold</text>
  <text style="stroke:none;fill:black;font-family:sans-serif;font-size:13;text-anchor:middle;" transform="matrix(1 0 0 1 2339.98 322)">Bold</text>
  <text style="stroke:none;fill:black;font-family:sans-serif;font-size:13;text-anchor:middle;" transform="matrix(1 0 0 1 2636.69 322)">Heavy</text>
  <text style="stroke:none;fill:black;font-family:sans-serif;font-size:13;text-anchor:middle;" transform="matrix(1 0 0 1 2933.4 322)">Black</text>
  <line style="fill:none;stroke:black;opacity:1;stroke-width:0.5;" x1="263" x2="3036" y1="1903" y2="1903"/>
  <g transform="matrix(0.2 0 0 0.2 263 1933)">
   <path d="m46.2402 4.15039c21.7773 0 39.4531-17.627 39.4531-39.4043s-17.6758-39.4043-39.4531-39.4043c-21.7285 0-39.4043 17.627-39.4043 39.4043s17.6758 39.4043 39.4043 39.4043Zm0-7.42188c-17.6758 0-31.9336-14.3066-31.9336-31.9824s14.2578-31.9824 31.9336-31.9824 31.9824 14.3066 31.9824 31.9824-14.3066 31.9824-31.9824 31.9824Zm3.61328-17.7734v-28.4668c0-2.24609-1.46484-3.75977-3.71094-3.75977-2.14844 0-3.61328 1.51367-3.61328 3.75977v28.4668c0 2.19727 1.46484 3.71094 3.61328 3.71094 2.24609 0 3.71094-1.51367 3.71094-3.71094Zm-17.8223-10.5957h28.418c2.19727 0 3.71094-1.46484 3.71094-3.61328 0-2.19727-1.51367-3.71094-3.71094-3.71094h-28.418c-2.24609 0-3.75977 1.51367-3.75977 3.71094 0 2.14844 1.51367 3.61328 3.75977 3.61328Z"/>
  </g>
  <g transform="matrix(0.2 0 0 0.2 281.506 1933)">
   <path d="m58.5449 14.5508c27.4902 0 49.8047-22.3145 49.8047-49.8047s-22.3145-49.8047-49.8047-49.8047-49.8047 22.3145-49.8047 49.8047 22.3145 49.8047 49.8047 49.8047Zm0-8.30078c-22.9492 0-41.5039-18.5547-41.5039-41.5039s18.5547-41.5039 41.5039-41.5039 41.5039 18.5547 41.5039 41.5039-18.5547 41.5039-41.5039 41.5039Zm4.05273-23.0957v-36.9141c0-2.49023-1.70898-4.19922-4.15039-4.19922-2.39258 0-4.05273 1.70898-4.05273 4.19922v36.9141c0 2.44141 1.66016 4.15039 4.05273 4.15039 2.44141 0 4.15039-1.66016 4.15039-4.15039Zm-22.5586-14.4043h36.9629c2.44141 0 4.15039-1.61133 4.15039-4.00391 0-2.44141-1.70898-4.15039-4.15039-4.15039h-36.9629c-2.49023 0-4.15039 1.70898-4.15039 4.15039 0 2.39258 1.66016 4.00391 4.15039 4.00391Z"/>
  </g>
  <g transform="matrix(0.2 0 0 0.2 304.924 1933)">
   <path d="m74.8535 28.3203c35.1074 0 63.623-28.4668 63.623-63.5742s-28.5156-63.623-63.623-63.623-63.5742 28.5156-63.5742 63.623 28.4668 63.5742 63.5742 63.5742Zm0-9.08203c-30.127 0-54.4922-24.3652-54.4922-54.4922s24.3652-54.4922 54.4922-54.4922 54.4922 24.3652 54.4922 54.4922-24.3652 54.4922-54.4922 54.4922Zm4.44336-30.3223v-48.4863c0-2.73438-1.85547-4.63867-4.54102-4.63867-2.58789 0-4.44336 1.9043-4.44336 4.63867v48.4863c0 2.68555 1.85547 4.58984 4.44336 4.58984 2.68555 0 4.54102-1.85547 4.54102-4.58984Zm-28.7109-19.7754h48.4863c2.68555 0 4.58984-1.80664 4.58984-4.39453 0-2.73438-1.85547-4.58984-4.58984-4.58984h-48.4863c-2.73438 0-4.58984 1.85547-4.58984 4.58984 0 2.58789 1.85547 4.39453 4.58984 4.39453Z"/>
  </g>
  <text style="stroke:none;fill:black;font-family:sans-serif;font-size:13;font-weight:bold;" transform="matrix(1 0 0 1 263 1953)">Design Variations</text>
  <text style="stroke:none;fill:black;font-family:sans-serif;font-size:13;" transform="matrix(1 0 0 1 263 1971)">Symbols are supported in up to nine weights and three scales.</text>
  <text style="stroke:none;fill:black;font-family:sans-serif;font-size:13;" transform="matrix(1 0 0 1 263 1989)">For optimal layout with text and other symbols, vertically align</text>
  <text style="stroke:none;fill:black;font-family:sans-serif;font-size:13;" transform="matrix(1 0 0 1 263 2007)">symbols with the adjacent text.</text>
  <line style="fill:none;stroke:#00AEEF;stroke-width:0.5;opacity:1.0;" x1="776" x2="776" y1="1919" y2="1933"/>
  <g transform="matrix(0.2 0 0 0.2 776 1933)">
   <path d="m16.5527 0.78125c2.58789 0 3.85742-0.976562 4.78516-3.71094l20.5566-57.5195h0.244141l20.6055 57.5195c0.927734 2.73438 2.19727 3.71094 4.73633 3.71094 2.58789 0 4.24805-1.5625 4.24805-4.00391 0-0.830078-0.146484-1.61133-0.537109-2.63672l-22.9004-60.9863c-1.12305-2.97852-3.125-4.49219-6.25-4.49219-3.02734 0-5.07812 1.46484-6.15234 4.44336l-22.9004 61.084c-0.390625 1.02539-0.537109 1.80664-0.537109 2.63672 0 2.44141 1.5625 3.95508 4.10156 3.95508Zm10.2051-20.9473h30.6641c2.00195 0 3.66211-1.66016 3.66211-3.66211 0-2.05078-1.66016-3.66211-3.66211-3.66211h-30.6641c-2.00195 0-3.66211 1.61133-3.66211 3.66211 0 2.00195 1.66016 3.66211 3.66211 3.66211Z"/>
  </g>
  <line style="fill:none;stroke:#00AEEF;stroke-width:0.5;opacity:1.0;" x1="792.836" x2="792.836" y1="1919" y2="1933"/>
  <text style="stroke:none;fill:black;font-family:sans-serif;font-size:13;font-weight:bold;" transform="matrix(1 0 0 1 776 1953)">Margins</text>
  <text style="stroke:none;fill:black;font-family:sans-serif;font-size:13;" transform="matrix(1 0 0 1 776 1971)">Leading and trailing margins on the left and right side of each symbol</text>
  <text style="stroke:none;fill:black;font-family:sans-serif;font-size:13;" transform="matrix(1 0 0 1 776 1989)">can be adjusted by modifying the x-location of the margin guidelines.</text>
  <text style="stroke:none;fill:black;font-family:sans-serif;font-size:13;" transform="matrix(1 0 0 1 776 2007)">Modifications are automatically applied proportionally to all</text>
  <text style="stroke:none;fill:black;font-family:sans-serif;font-size:13;" transform="matrix(1 0 0 1 776 2025)">scales and weights.</text>
  <g transform="matrix(0.2 0 0 0.2 1289 1933)">
   <path d="m14.209 13.1348 7.86133 7.86133c4.29688 4.39453 9.32617 4.10156 13.8672-1.02539l60.6934-68.2129-4.88281-4.88281-60.2539 67.6758c-1.80664 1.95312-3.4668 2.44141-5.81055 0.0976562l-5.17578-5.12695c-2.29492-2.29492-1.80664-3.95508 0.195312-5.81055l67.4805-62.1582-4.88281-4.83398-68.0664 62.5977c-4.98047 4.58984-5.32227 9.47266-1.02539 13.8184Zm44.873-97.4609c-2.05078 2.00195-2.24609 4.88281-1.07422 6.78711 1.12305 1.80664 3.4668 3.02734 6.5918 2.24609 5.85938-1.66016 12.5977-2.39258 18.8965 0.927734l-2.68555 7.12891c-1.61133 4.00391-0.732422 6.88477 1.70898 9.42383l10.2539 10.3027c2.34375 2.39258 4.54102 2.44141 7.08008 1.95312l4.44336-0.732422 2.58789 2.53906-0.195312 2.24609c-0.0976562 2.29492 0.537109 4.29688 2.7832 6.49414l3.36914 3.32031c2.29492 2.29492 5.51758 2.49023 7.8125 0.195312l12.9883-13.0371c2.29492-2.34375 2.14844-5.37109-0.195312-7.66602l-3.41797-3.41797c-2.19727-2.19727-4.05273-3.02734-6.34766-2.88086l-2.34375 0.244141-2.44141-2.44141 1.02539-4.6875c0.634766-2.73438-0.244141-4.98047-2.88086-7.61719l-11.2793-11.1816c-12.9395-12.8418-35.5957-11.0352-46.6797-0.146484Zm7.08008 2.05078c8.78906-6.39648 25.9766-5.66406 33.6914 1.95312l12.3047 12.207c1.02539 1.02539 1.2207 1.80664 0.927734 3.32031l-1.46484 6.64062 6.73828 6.68945 4.39453-0.244141c1.12305-0.0488281 1.51367 0.0488281 2.34375 0.878906l2.53906 2.49023-10.8398 10.8398-2.49023-2.49023c-0.830078-0.878906-0.976562-1.2207-0.927734-2.39258l0.292969-4.3457-6.68945-6.73828-6.83594 1.17188c-1.41602 0.292969-2.05078 0.195312-3.17383-0.878906l-8.93555-8.88672c-1.07422-1.02539-1.17188-1.70898-0.488281-3.36914l4.58984-11.4746c-6.10352-6.34766-17.041-7.51953-25.5859-4.58984-0.683594 0.244141-0.927734-0.390625-0.390625-0.78125Z"/>
  </g>
  <text style="stroke:none;fill:black;font-family:sans-serif;font-size:13;font-weight:bold;" transform="matrix(1 0 0 1 1289 1953)">Exporting</text>
  <text style="stroke:none;fill:black;font-family:sans-serif;font-size:13;" transform="matrix(1 0 0 1 1289 1971)">Symbols should be outlined when exporting to ensure the</text>
  <text style="stroke:none;fill:black;font-family:sans-serif;font-size:13;" transform="matrix(1 0 0 1 1289 1989)">design is preserved when submitting to Xcode.</text>
  <text id="template-version" style="stroke:none;fill:black;font-family:sans-serif;font-size:13;text-anchor:end;" transform="matrix(1 0 0 1 3036 1933)">Template v.2.0</text>
  <text style="stroke:none;fill:black;font-family:sans-serif;font-size:13;text-anchor:end;" transform="matrix(1 0 0 1 3036 1951)">Requires Xcode 12 or greater</text>
  <text id="descriptive-name" style="stroke:none;fill:black;font-family:sans-serif;font-size:13;text-anchor:end;" transform="matrix(1 0 0 1 3036 1969)">Generated from bolt.slash</text>
  <text style="stroke:none;fill:black;font-family:sans-serif;font-size:13;text-anchor:end;" transform="matrix(1 0 0 1 3036 1987)">Typeset at 100.0 points</text>
  <text style="stroke:none;fill:black;font-family:sans-serif;font-size:13;" transform="matrix(1 0 0 1 263 726)">Small</text>
  <text style="stroke:none;fill:black;font-family:sans-serif;font-size:13;" transform="matrix(1 0 0 1 263 1156)">Medium</text>
  <text style="stroke:none;fill:black;font-family:sans-serif;font-size:13;" transform="matrix(1 0 0 1 263 1586)">Large</text>
 </g>
 <g id="Guides">
  <g id="H-reference" style="fill:#27AAE1;stroke:none;" transform="matrix(1 0 0 1 339 696)">
   <path d="M0.993654 0L3.63775 0L29.3281-67.1323L30.0303-67.1323L30.0303-70.459L28.1226-70.459ZM11.6885-24.4799L46.9815-24.4799L46.2315-26.7285L12.4385-26.7285ZM55.1196 0L57.7637 0L30.6382-70.459L29.4326-70.459L29.4326-67.1323Z"/>
  </g>
  <line id="Baseline-S" style="fill:none;stroke:#27AAE1;opacity:1;stroke-width:0.5;" x1="263" x2="3036" y1="696" y2="696"/>
  <line id="Capline-S" style="fill:none;stroke:#27AAE1;opacity:1;stroke-width:0.5;" x1="263" x2="3036" y1="625.541" y2="625.541"/>
  <g id="H-reference" style="fill:#27AAE1;stroke:none;" transform="matrix(1 0 0 1 339 1126)">
   <path d="M0.993654 0L3.63775 0L29.3281-67.1323L30.0303-67.1323L30.0303-70.459L28.1226-70.459ZM11.6885-24.4799L46.9815-24.4799L46.2315-26.7285L12.4385-26.7285ZM55.1196 0L57.7637 0L30.6382-70.459L29.4326-70.459L29.4326-67.1323Z"/>
  </g>
  <line id="Baseline-M" style="fill:none;stroke:#27AAE1;opacity:1;stroke-width:0.5;" x1="263" x2="3036" y1="1126" y2="1126"/>
  <line id="Capline-M" style="fill:none;stroke:#27AAE1;opacity:1;stroke-width:0.5;" x1="263" x2="3036" y1="1055.54" y2="1055.54"/>
  <g id="H-reference" style="fill:#27AAE1;stroke:none;" transform="matrix(1 0 0 1 339 1556)">
   <path d="M0.993654 0L3.63775 0L29.3281-67.1323L30.0303-67.1323L30.0303-70.459L28.1226-70.459ZM11.6885-24.4799L46.9815-24.4799L46.2315-26.7285L12.4385-26.7285ZM55.1196 0L57.7637 0L30.6382-70.459L29.4326-70.459L29.4326-67.1323Z"/>
  </g>
  <line id="Baseline-L" style="fill:none;stroke:#27AAE1;opacity:1;stroke-width:0.5;" x1="263" x2="3036" y1="1556" y2="1556"/>
  <line id="Capline-L" style="fill:none;stroke:#27AAE1;opacity:1;stroke-width:0.5;" x1="263" x2="3036" y1="1485.54" y2="1485.54"/>
  <line id="right-margin" style="fill:none;stroke:#00AEEF;stroke-width:0.5;opacity:1.0;" x1="1497.94" x2="1497.94" y1="1030.79" y2="1150.12"/>
  <line id="left-margin" style="fill:none;stroke:#00AEEF;stroke-width:0.5;opacity:1.0;" x1="1401.75" x2="1401.75" y1="1030.79" y2="1150.12"/>
 </g>
 <g id="Symbols">
  <g id="Black-L" transform="matrix(1 0 0 1 2866.15 1556)">
   <path d="M16.2292-24.3308C16.2292-21.0639 18.7418-18.7609 22.0987-18.7609L59.3108-18.7609L41.1271 31.9032C38.1635 40.2605 46.6434 44.5877 52.0216 37.8568L82.0881 0.381151L72.1852-9.44252L51.9419 17.0934L55.683 18.3242L69.9057-11.7428L49.9484-31.6793L39.2256-31.6793L43.8912-37.7365L33.4002-48.1899L18.2409-29.302C16.9261-27.6692 16.2292-26.0804 16.2292-24.3308ZM52.4634-71.9232L62.3467-61.9827L82.6108-88.5979L78.8697-89.8286L64.647-59.6824L84.5627-39.8251L95.3051-39.8251L90.6407-33.6887L101.094-23.2937L116.274-42.2024C117.589-43.8352 118.265-45.424 118.265-47.1737C118.265-50.4406 115.772-52.7436 112.416-52.7436L75.1823-52.7436L93.388-103.408C96.3504-111.765 87.8717-116.092 82.4924-109.361ZM115.216 20.1263C117.423 22.2737 121.04 22.3321 123.168 20.1263C125.373 17.9997 125.374 14.3815 123.168 12.1745L19.2671-91.6891C17.0637-93.8925 13.4223-93.8949 11.2373-91.6891C9.10946-89.5613 9.10946-85.8651 11.2373-83.7373Z"/>
  </g>
  <g id="Heavy-L" transform="matrix(1 0 0 1 2570.71 1556)">
   <path d="M16.6435-24.7151C16.6435-21.6816 18.9724-19.5133 22.1312-19.5133L58.9779-19.5133L40.6403 30.812C37.8152 38.6469 45.8199 42.7279 50.8511 36.397L80.6092-0.957141L71.4742-10.0173L51.2461 16.5499L54.4942 17.7089L68.6743-12.8474L50.0307-31.4608L37.6839-31.4608L43.0559-38.4356L33.4288-48.0483L18.5653-29.416C17.309-27.8549 16.6435-26.3654 16.6435-24.7151ZM51.3859-70.5617L60.4963-61.4123L80.7546-88.0543L77.5064-89.2133L63.3264-58.5822L81.9095-40.0437L94.281-40.0437L88.9146-32.994L98.5273-23.426L113.421-42.0884C114.677-43.6495 115.313-45.139 115.313-46.7893C115.313-49.8228 113.008-51.9912 109.855-51.9912L72.9725-51.9912L91.3459-102.316C94.1654-110.151 86.1663-114.232 81.1295-107.901ZM113.087 18.944C115.196 21.0031 118.644 21.0477 120.679 18.944C122.777 16.9152 122.782 13.4614 120.679 11.3521L18.8189-90.4931C16.7264-92.5856 13.2313-92.5968 11.1578-90.4931C9.12325-88.4586 9.12325-84.9357 11.1578-82.9012Z"/>
  </g>
  <g id="Bold-L" transform="matrix(1 0 0 1 2275.51 1556)">
   <path d="M17.2328-25.1691C17.2328-22.4797 19.2866-20.5101 22.1622-20.5101L58.6375-20.5101L40.093 29.5565C37.4817 36.649 44.7757 40.3557 49.3169 34.6061L78.8772-2.78076L70.7993-10.7915L50.2215 16.2389L52.8699 17.2909L67.1602-14.4686L50.4735-31.1173L35.6514-31.1173L42.1081-39.4827L33.6534-47.9461L19.0245-29.4874C17.8524-28.0333 17.2328-26.6816 17.2328-25.1691ZM50.0787-68.7149L58.1319-60.6458L78.7476-87.7434L76.0992-88.7954L61.8089-56.9687L78.4197-40.3872L93.2665-40.3872L86.8231-31.9546L95.2865-23.5203L109.953-42.0171C111.125-43.4712 111.707-44.8228 111.707-46.3353C111.707-49.0247 109.678-50.9943 106.816-50.9943L70.2892-50.9943L88.8849-101.061C91.483-108.153 84.2022-111.86 79.6478-106.111ZM110.742 17.5734C112.691 19.4801 115.864 19.5093 117.746 17.5734C119.669 15.7046 119.682 12.5179 117.746 10.5687L18.0793-89.107C16.1698-91.0165 12.9186-91.043 11.0206-89.107C9.13867-87.2251 9.13867-83.9843 11.0206-82.1024Z"/>
  </g>
  <g id="Semibold-L" transform="matrix(1 0 0 1 1979.84 1556)">
   <path d="M17.6391-25.4822C17.6391-23.0299 19.5032-21.1974 22.1836-21.1974L58.4029-21.1974L39.7157 28.691C37.2518 35.2717 44.0558 38.7203 48.2593 33.3714L77.6831-4.03795L70.334-11.3251L49.5151 16.0246L51.7502 17.0028L66.1164-15.5862L50.7787-30.8804L34.2503-30.8804L41.4546-40.2045L33.8082-47.8757L19.3411-29.5365C18.2271-28.1562 17.6391-26.8996 17.6391-25.4822ZM49.1776-67.4417L56.5018-60.1174L77.3641-87.529L75.1291-88.5072L60.7629-55.8564L76.0138-40.624L92.5671-40.624L85.3812-31.238L93.0524-23.5854L107.563-41.9679C108.677-43.3482 109.222-44.6048 109.222-46.0223C109.222-48.4745 107.382-50.307 104.72-50.307L68.4393-50.307L87.1884-100.195C89.6337-106.776 82.8482-110.225 78.6263-104.876ZM109.125 16.6285C110.964 18.4302 113.948 18.4487 115.725 16.6285C117.527 14.8701 117.545 11.8674 115.725 10.0287L17.5694-88.1515C15.7861-89.9348 12.703-89.9718 10.9261-88.1515C9.1493-86.3747 9.1493-83.3285 10.9261-81.5517Z"/>
  </g>
  <g id="Medium-L" transform="matrix(1 0 0 1 1683.91 1556)">
   <path d="M17.9471-25.7195C17.9471-23.4471 19.6674-21.7185 22.1999-21.7185L58.225-21.7185L39.4296 28.0347C37.0775 34.2274 43.5099 37.4803 47.4573 32.4353L76.7778-4.99121L69.9812-11.7298L48.9796 15.862L50.9011 16.7843L65.3249-16.4336L51.0102-30.7009L33.1879-30.7009L40.9592-40.7519L33.9257-47.8223L19.5812-29.5738C18.5111-28.2495 17.9471-27.0649 17.9471-25.7195ZM48.4943-66.4763L55.2659-59.7167L76.315-87.3665L74.3935-88.2888L59.9697-55.0129L74.1895-40.8036L92.0368-40.8036L84.2879-30.6946L91.3584-23.6347L105.75-41.9306C106.82-43.255 107.337-44.4396 107.337-45.785C107.337-48.0573 105.642-49.7859 103.132-49.7859L67.0366-49.7859L85.9019-99.5392C88.2315-105.732 81.8216-108.985 77.8517-103.94ZM107.899 15.912C109.654 17.6341 112.495 17.6446 114.192 15.912C115.902 14.2374 115.925 11.3742 114.192 9.61916L17.1828-87.4269C15.4951-89.1146 12.5396-89.1595 10.8545-87.4269C9.15736-85.7298 9.15736-82.8312 10.8545-81.1341Z"/>
  </g>
  <g id="Regular-L" transform="matrix(1 0 0 1 1388.23 1556)">
   <path d="M18.3489-26.0291C18.3489-23.9913 19.8816-22.3982 22.221-22.3982L57.993-22.3982L39.0564 27.1787C36.8502 32.8652 42.7979 35.8629 46.4113 31.2142L75.5969-6.23459L69.5211-12.2576L48.281 15.65L49.7937 16.4994L64.2926-17.5389L51.312-30.4667L31.8021-30.4667L40.3129-41.4658L34.0788-47.7526L19.8943-29.6225C18.8816-28.371 18.3489-27.2805 18.3489-26.0291ZM47.6031-65.2171L53.6538-59.194L74.9467-87.1545L73.434-88.0038L58.9351-53.9128L71.8101-41.0378L91.3451-41.0378L82.8619-29.9859L89.1488-23.699L103.386-41.882C104.399-43.1334 104.879-44.224 104.879-45.4754C104.879-47.5131 103.371-49.1062 101.059-49.1062L65.207-49.1062L84.224-98.6832C86.4026-104.37 80.4825-107.367 76.8414-102.719ZM106.3 14.9774C107.946 16.5957 110.6 16.5957 112.193 14.9774C113.783 13.412 113.811 10.7309 112.193 9.08503L16.6785-86.4819C15.1156-88.0448 12.3264-88.1001 10.761-86.4819C9.16787-84.8888 9.16787-82.1826 10.761-80.5895Z"/>
  </g>
  <g id="Light-L" transform="matrix(1 0 0 1 1092.15 1556)">
   <path d="M19.2459-26.2008C19.2459-24.7547 20.2824-23.5051 22.1828-23.5051L58.222-23.5051L39.0373 26.9306C37.251 31.491 41.92 33.7826 44.8081 30.0882L75.0434-8.56299L70.3799-13.1928L46.5251 17.7685L47.6943 18.427L63.3192-20.2872L53.8122-29.7605L29.6073-29.7605L40.2175-43.3552L35.453-48.1534L20.5814-29.2217C19.7023-28.1611 19.2459-27.2614 19.2459-26.2008ZM46.8779-62.9078L51.5544-58.2779L75.4429-89.273L74.2737-89.9314L58.6488-51.1836L68.0884-41.7439L92.2802-41.7439L81.7168-28.1156L86.515-23.3173L101.42-42.2828C102.299-43.3433 102.722-44.2431 102.722-45.3036C102.722-46.7497 101.673-47.9993 99.8189-47.9993L63.6993-47.9993L82.9643-98.4351C84.704-102.995 80.0817-105.287 77.1468-101.593ZM106.567 14.6339C107.851 15.8704 109.893 15.8704 111.143 14.6339C112.333 13.4311 112.379 11.3416 111.143 10.0584L14.9799-86.1384C13.8369-87.2814 11.6203-87.3749 10.4174-86.1384C9.16787-84.8888 9.16787-82.8124 10.4174-81.5628Z"/>
  </g>
  <g id="Thin-L" transform="matrix(1 0 0 1 796.271 1556)">
   <path d="M20.4323-26.428C20.4323-25.7644 20.8124-24.9692 22.1324-24.9692L58.5249-24.9692L39.0121 26.6025C37.781 29.6736 40.7589 31.0312 42.6878 28.5989L74.3114-11.6425L71.5158-14.4297L44.2029 20.5703L44.9177 20.9764L62.0319-23.922L57.1189-28.8266L26.7045-28.8266L40.0913-45.8542L37.2704-48.6835L21.4901-28.6916C20.7877-27.8834 20.4323-27.2361 20.4323-26.428ZM45.9187-59.8535L48.7778-57.0663L76.0992-92.0748L75.3844-92.4808L58.2701-47.574L63.1663-42.6779L93.5171-42.6779L80.2023-25.6419L83.0317-22.8125L98.8204-42.8129C99.5228-43.621 99.8698-44.2683 99.8698-45.0764C99.8698-45.7401 99.4261-46.5353 98.1781-46.5353L61.7052-46.5353L81.2984-98.1069C82.4575-101.178 79.5516-102.536 77.5507-100.103ZM106.921 14.1796C107.724 14.9112 108.959 14.9112 109.755 14.1796C110.414 13.4563 110.486 12.1494 109.755 11.3457L12.7334-85.684C12.1457-86.2717 10.6863-86.4157 9.96308-85.684C9.16787-84.8888 9.16787-83.6454 9.96308-82.8502Z"/>
  </g>
  <g id="Ultralight-L" transform="matrix(1 0 0 1 499.987 1556)">
   <path d="M21.0399-26.5444C21.0399-26.2815 21.0839-25.719 22.1065-25.719L58.68-25.719L38.9992 26.4344C38.0525 28.7428 40.1641 29.622 41.6018 27.8361L73.9365-13.2198L72.0976-15.0632L43.0134 22.0054L43.4955 22.2822L61.3725-25.7837L58.8126-28.3482L25.2177-28.3482L40.0267-47.1341L38.2012-48.955L21.9555-28.4201C21.3436-27.7412 21.0399-27.2232 21.0399-26.5444ZM45.4274-58.2891L47.3557-56.4458L76.4353-93.5099L75.9532-93.7866L58.0762-45.7252L60.6452-43.1562L94.1506-43.1562L79.4266-24.3748L81.2475-22.5539L97.4887-43.0844C98.1006-43.7632 98.4088-44.2812 98.4088-44.9601C98.4088-45.2229 98.2754-45.7854 97.3378-45.7854L60.6838-45.7854L80.4451-97.9388C81.3068-100.247 79.2801-101.126 77.7575-99.3406ZM107.102 13.9468C107.66 14.4199 108.481 14.4199 109.044 13.9468C109.432 13.4693 109.517 12.5631 109.044 12.0051L11.5827-85.4513C11.2795-85.7545 10.2079-85.9244 9.73036-85.4513C9.16787-84.8888 9.16787-84.072 9.73036-83.5095Z"/>
  </g>
  <g id="Black-M" transform="matrix(1 0 0 1 2880.3 1126)">
   <path d="M12.3388-26.4787C12.3388-23.8273 14.3762-21.9739 17.0877-21.9739L46.2678-21.9739L32.2787 17.6852C29.9206 24.4565 36.7253 27.9248 41.092 22.4955L64.7931-6.80573L56.6523-14.8839L40.6016 6.06145L43.8772 7.05074L55.0854-16.4563L38.9651-32.5712L31.4173-32.5712L34.7094-36.8269L26.0382-45.4464L13.9463-30.4849C12.8955-29.1841 12.3388-27.8937 12.3388-26.4787ZM41.4735-64.5148L49.6085-56.3224L65.6646-77.3304L62.389-78.3197L51.1809-54.75L67.2902-38.6978L74.8437-38.6978L71.5514-34.3795L80.171-25.817L92.2684-40.784C93.3192-42.0848 93.8703-43.3752 93.8703-44.7902C93.8703-47.4416 91.8387-49.295 89.127-49.295L59.9417-49.295L73.9359-88.9542C76.2944-95.7254 69.4893-99.1937 65.1229-93.7645ZM91.1296 8.62642C92.8743 10.3143 95.739 10.3714 97.4211 8.62642C99.1664 6.94402 99.1661 4.07965 97.4211 2.33495L15.0821-79.9525C13.3365-81.698 10.4672-81.6974 8.72775-79.9525C7.04564-78.2703 7.04564-75.3431 8.72775-73.661Z"/>
  </g>
  <g id="Heavy-M" transform="matrix(1 0 0 1 2584.77 1126)">
   <path d="M12.6611-26.8386C12.6611-24.3608 14.5647-22.6073 17.123-22.6073L45.9212-22.6073L31.8046 16.6414C29.5431 23.0058 36.0013 26.2986 40.0957 21.1724L63.3984-7.8992L55.878-15.3596L40.0834 5.33466L42.9088 6.27143L53.9713-17.2827L38.8149-32.4227L30.1127-32.4227L33.9016-37.336L25.9393-45.2711L14.2-30.6334C13.1941-29.3851 12.6611-28.1742 12.6611-26.8386ZM40.487-63.397L47.9932-55.8493L63.8042-76.6036L60.9789-77.5404L49.9163-53.9262L65.0399-38.8463L73.7563-38.8463L69.9697-33.8729L77.9047-25.9815L89.6605-40.6356C90.6664-41.8839 91.1829-43.0948 91.1829-44.4303C91.1829-46.9082 89.2935-48.6616 86.7375-48.6616L57.9206-48.6616L72.0559-87.9103C74.3151-94.2747 67.8591-97.5675 63.7625-92.4413ZM89.0229 7.50241C90.7056 9.13917 93.4615 9.18279 95.0841 7.50241C96.7622 5.88207 96.7645 3.12391 95.0841 1.44126L14.8006-78.815C13.1248-80.4908 10.3457-80.4954 8.68173-78.815C7.05911-77.1924 7.05911-74.3764 8.68173-72.7538Z"/>
  </g>
  <g id="Bold-M" transform="matrix(1 0 0 1 2289.38 1126)">
   <path d="M13.0217-27.2412C13.0217-24.9575 14.7755-23.3158 17.1625-23.3158L45.5334-23.3158L31.2741 15.4737C29.1208 21.3829 35.1915 24.4795 38.9812 19.6922L61.8383-9.12241L55.0119-15.8916L39.5037 4.52163L41.8254 5.39965L52.7251-18.207L38.647-32.2566L28.6532-32.2566L32.9979-37.9056L25.8287-45.0749L14.4838-30.7994C13.5281-29.6099 13.0217-28.4878 13.0217-27.2412ZM39.3834-62.1465L46.1863-55.3201L61.7231-75.7906L59.4014-76.6686L48.5017-53.0047L62.5226-39.0124L72.5398-39.0124L68.2003-33.3062L75.3696-26.1655L86.7431-40.4695C87.6988-41.6591 88.1766-42.7811 88.1766-44.0278C88.1766-46.3114 86.4463-47.9531 84.0644-47.9531L55.6597-47.9531L69.9528-86.7426C72.101-92.6519 66.0354-95.7484 62.2406-90.9612ZM86.6663 6.24506C88.2795 7.8246 90.9138 7.85315 92.4698 6.24506C94.0728 4.69413 94.0779 2.05478 92.4698 0.441553L14.4858-77.5425C12.888-79.1404 10.2097-79.1506 8.63024-77.5425C7.07419-75.9865 7.07419-73.2951 8.63024-71.739Z"/>
  </g>
  <g id="Semibold-M" transform="matrix(1 0 0 1 1993.58 1126)">
   <path d="M13.2702-27.5187C13.2702-25.3689 14.9208-23.8043 17.1897-23.8043L45.2661-23.8043L30.9085 14.6687C28.8296 20.2641 34.6332 23.2254 38.2128 18.6718L60.7627-9.96568L54.4148-16.2584L39.1041 3.96114L41.0785 4.79866L51.866-18.8443L38.5312-32.142L27.6471-32.142L32.375-38.2982L25.7525-44.9396L14.6795-30.9139C13.7584-29.7648 13.2702-28.7041 13.2702-27.5187ZM38.6227-61.2844L44.9407-54.9553L60.2884-75.2301L58.314-76.0676L47.5265-52.3695L60.7872-39.1269L71.7012-39.1269L66.9805-32.9155L73.6219-26.2923L84.7319-40.3551C85.653-41.5041 86.1041-42.5649 86.1041-43.7502C86.1041-45.9 84.4835-47.4646 82.2217-47.4646L54.1011-47.4646L68.5029-85.9376C70.5746-91.5331 64.7782-94.4944 61.1914-89.9408ZM85.0417 5.37824C86.607 6.91835 89.1574 6.93651 90.6675 5.37824C92.2187 3.87517 92.2258 1.31773 90.6675-0.247641L14.2687-76.6653C12.7247-78.2094 10.116-78.2236 8.59475-76.6653C7.08458-75.1552 7.08458-72.5496 8.59475-71.0395Z"/>
  </g>
  <g id="Medium-M" transform="matrix(1 0 0 1 1697.56 1126)">
   <path d="M13.4587-27.7292C13.4587-25.6809 15.031-24.1747 17.2104-24.1747L45.0634-24.1747L30.6312 14.0583C28.6089 19.4158 34.2098 22.2745 37.6303 17.8981L59.9472-10.6051L53.962-16.5366L38.8011 3.53615L40.5122 4.34296L51.2145-19.3275L38.4434-32.0552L26.8842-32.0552L31.9026-38.596L25.6947-44.8371L14.8279-31.0007C13.933-29.8823 13.4587-28.8681 13.4587-27.7292ZM38.0458-60.6307L43.9962-54.6787L59.2005-74.8051L57.4894-75.6119L46.7871-51.8878L59.4714-39.2137L71.0654-39.2137L66.0556-32.6193L72.2967-26.3884L83.2069-40.2683C84.1018-41.3866 84.5327-42.4009 84.5327-43.5398C84.5327-45.5881 82.9952-47.0943 80.8244-47.0943L52.9193-47.0943L67.4036-85.3273C69.4173-90.6848 63.825-93.5435 60.3959-89.167ZM83.8098 4.72098C85.3389 6.23119 87.8256 6.24147 89.301 4.72098C90.8129 3.2542 90.8215 0.758869 89.301-0.770217L14.1041-76.0002C12.6009-77.5035 10.0449-77.5207 8.56784-76.0002C7.09246-74.5248 7.09246-71.9844 8.56784-70.509Z"/>
  </g>
  <g id="Regular-M" transform="matrix(1 0 0 1 1401.75 1126)">
   <path d="M13.7045-28.0037C13.7045-26.0878 15.1747-24.6578 17.2373-24.6578L44.7991-24.6578L30.2695 13.2622C28.321 18.3094 33.6576 21.0342 36.8704 16.8889L58.8835-11.4391L53.3715-16.8993L38.4059 2.98181L39.7736 3.74856L50.3648-19.9577L38.3289-31.9419L25.8892-31.9419L31.2865-38.9843L25.6192-44.7033L15.0214-31.1139C14.1607-30.0356 13.7045-29.0819 13.7045-28.0037ZM37.2934-59.7781L42.7642-54.3179L57.7816-74.2508L56.4139-75.0175L45.8226-51.2595L57.755-39.327L70.2359-39.327L64.8492-32.2329L70.5682-26.5139L81.2177-40.1551C82.0784-41.2333 82.4829-42.187 82.4829-43.2653C82.4829-45.1812 81.0539-46.6112 79.0019-46.6112L51.3778-46.6112L65.9696-84.5311C67.9076-89.5783 62.5816-92.3032 59.3583-88.1579ZM82.203 3.86369C83.6847 5.3349 86.0885 5.3349 87.5185 3.86369C88.9792 2.44424 88.9897 0.0299184 87.5185-1.45184L13.8895-75.1326C12.4394-76.5827 9.95219-76.6038 8.53274-75.1326C7.10273-73.7026 7.10273-71.2471 8.53274-69.8171Z"/>
  </g>
  <g id="Light-M" transform="matrix(1 0 0 1 1105.6 1126)">
   <path d="M14.5087-28.1576C14.5087-26.7722 15.534-25.6502 17.2031-25.6502L45.0044-25.6502L30.2524 13.0397C28.6803 17.0774 32.8705 19.1691 35.433 15.8794L58.3873-13.5266L54.1415-17.7378L36.8317 4.88112L37.8914 5.47677L49.4922-22.4217L40.5704-31.3088L23.9214-31.3088L31.2009-40.6783L26.8512-45.0626L15.6374-30.7545C14.8965-29.8474 14.5087-29.0648 14.5087-28.1576ZM36.6432-57.7077L40.882-53.4965L58.2264-76.1501L57.1667-76.7457L45.5659-48.8126L54.4184-39.9601L71.0744-39.9601L63.8225-30.556L68.2069-26.1717L79.4553-40.5144C80.1962-41.4216 80.5494-42.2041 80.5494-43.1113C80.5494-44.4967 79.5311-45.6187 77.8897-45.6187L50.026-45.6187L64.8403-84.3087C66.3848-88.3463 62.2222-90.4381 59.632-87.1483ZM82.4425 3.5557C83.5992 4.68468 85.4554 4.68468 86.5774 3.5557C87.6787 2.46135 87.7064 0.577468 86.5774-0.579181L12.3666-74.8246C11.2929-75.8983 9.31909-75.9536 8.22474-74.8246C7.10273-73.7026 7.10273-71.8118 8.22474-70.6898Z"/>
  </g>
  <g id="Thin-M" transform="matrix(1 0 0 1 809.64 1126)">
   <path d="M15.5723-28.3613C15.5723-27.6774 16.0093-26.9628 17.1578-26.9628L45.276-26.9628L30.2298 12.7455C29.1556 15.448 31.8295 16.7024 33.5321 14.5442L57.731-16.2875L55.1598-18.8467L34.7496 7.39312L35.402 7.76246L48.338-25.6805L43.535-30.4715L21.3189-30.4715L31.0878-42.9187L28.4806-45.5379L16.4521-30.2793C15.8696-29.5984 15.5723-29.0422 15.5723-28.3613ZM35.7832-54.9694L38.3926-52.4103L58.8148-78.6621L58.1625-79.0314L45.2265-45.5764L50.0054-40.7974L72.1833-40.7974L62.4647-28.3382L65.0838-25.7191L77.1244-40.9896C77.7069-41.6705 77.9921-42.2268 77.9921-42.9076C77.9921-43.5915 77.5169-44.3062 76.4187-44.3062L48.2382-44.3062L63.3467-84.0145C64.3706-86.7169 61.747-87.9713 59.9941-85.8131ZM82.7594 3.14835C83.486 3.82472 84.6181 3.82472 85.3327 3.14835C85.9588 2.48398 86.0091 1.30165 85.3327 0.57498L10.3525-74.4173C9.77669-74.9931 8.48175-75.0937 7.81739-74.4173C7.10273-73.7026 7.10273-72.5586 7.81739-71.8439Z"/>
  </g>
  <g id="Ultralight-M" transform="matrix(1 0 0 1 513.311 1126)">
   <path d="M16.1171-28.4656C16.1171-28.1411 16.2527-27.6351 17.1346-27.6351L45.4151-27.6351L30.2182 12.5948C29.399 14.6134 31.2963 15.4389 32.5584 13.8603L57.3948-17.7017L55.6815-19.4146L33.6832 8.67975L34.127 8.93318L47.7469-27.3497L45.0535-30.0426L19.9859-30.0426L31.0298-44.0662L29.3152-45.7813L16.8694-30.0359C16.368-29.4709 16.1171-29.0306 16.1171-28.4656ZM35.3427-53.5668L37.1176-51.8539L59.1162-79.9487L58.6725-80.2021L45.0526-43.9189L47.7451-41.2263L72.7513-41.2263L61.7692-27.2023L63.4842-25.4872L75.9305-41.2331C76.4318-41.798 76.6823-42.2383 76.6823-42.8033C76.6823-43.1279 76.4853-43.6339 75.6652-43.6339L47.3225-43.6339L62.5817-83.8638C63.339-85.8824 61.5036-86.7079 60.1796-85.1292ZM82.9216 2.9397C83.4281 3.38425 84.1892 3.38425 84.6952 2.9397C85.0779 2.49558 85.1398 1.67257 84.6952 1.16614L9.32085-74.2086C9.00007-74.5294 8.05288-74.6532 7.60875-74.2086C7.10273-73.7026 7.10273-72.9411 7.60875-72.4351Z"/>
  </g>
  <g id="Black-S" transform="matrix(1 0 0 1 2891.46 696)">
   <path d="M9.61914-28.2715C9.61914-26.1719 11.2305-24.707 13.3789-24.707L36.377-24.707L25.4395 6.54297C23.584 11.9141 28.9551 14.6484 32.4219 10.3516L51.1719-12.7441L44.6777-19.1895L31.8848-2.53906L34.5703-1.75781L43.457-20.4102L30.7129-33.1543L24.9023-33.1543L27.4414-36.4258L20.5078-43.3105L10.8887-31.4453C10.0586-30.4199 9.61914-29.3945 9.61914-28.2715ZM32.7637-58.3984L39.2578-51.8555L52.0508-68.5547L49.3652-69.3359L40.4785-50.6348L53.2227-37.9395L59.0332-37.9395L56.4941-34.6191L63.3789-27.7832L72.998-39.6484C73.8281-40.6738 74.2676-41.6992 74.2676-42.8223C74.2676-44.9219 72.6562-46.3867 70.5078-46.3867L47.5098-46.3867L58.4473-77.6367C60.3027-83.0078 54.9316-85.7422 51.4648-81.4453ZM72.0703-0.537109C73.4375 0.78125 75.6836 0.830078 77.002-0.537109C78.3691-1.85547 78.3691-4.10156 77.002-5.46875L11.8164-70.6055C10.4492-71.9727 8.20312-71.9727 6.83594-70.6055C5.51758-69.2871 5.51758-66.9922 6.83594-65.6738Z"/>
  </g>
  <g id="Heavy-S" transform="matrix(1 0 0 1 2595.68 696)">
   <path d="M9.79201-28.5596C9.79201-26.5407 11.3457-25.1219 13.4135-25.1219L36.0543-25.1219L25.0361 5.67863C23.2152 10.8308 28.4365 13.496 31.7535 9.34893L50.0425-13.4126L43.9171-19.4891L31.6428-3.4034L33.9826-2.6452L42.6157-20.802L30.298-33.1082L24.038-33.1082L26.7615-36.6447L20.2658-43.1146L11.027-31.6182C10.2199-30.6158 9.79201-29.6365 9.79201-28.5596ZM32.0031-57.707L38.1169-51.5558L50.4028-67.6904L48.063-68.4486L39.4298-50.2429L51.7245-37.9856L57.996-37.9856L55.2725-34.4002L61.7424-27.9676L70.9928-39.4756C71.7998-40.4779 72.2162-41.4572 72.2162-42.5342C72.2162-44.5531 70.674-45.9718 68.6063-45.9718L45.954-45.9718L56.9837-76.7724C58.8046-81.9245 53.5833-84.5897 50.2663-80.4427ZM70.2379-1.45907C71.5936-0.140707 73.8166-0.103404 75.1235-1.45907C76.4791-2.7659 76.4791-4.98895 75.1235-6.34461L11.7703-69.672C10.4146-71.0277 8.18008-71.0277 6.83594-69.672C5.5291-68.3652 5.5291-66.0933 6.83594-64.7864Z"/>
  </g>
  <g id="Bold-S" transform="matrix(1 0 0 1 2300.02 696)">
   <path d="M9.98535-28.8818C9.98535-26.9531 11.4746-25.5859 13.4521-25.5859L35.6934-25.5859L24.585 4.71191C22.8027 9.61914 27.8564 12.207 31.0059 8.22754L48.7793-14.1602L43.0664-19.8242L31.3721-4.37012L33.3252-3.6377L41.6748-21.2402L29.834-33.0566L23.0713-33.0566L26.001-36.8896L19.9951-42.8955L11.1816-31.8115C10.4004-30.835 9.98535-29.9072 9.98535-28.8818ZM31.1523-56.9336L36.8408-51.2207L48.5596-66.7236L46.6064-67.4561L38.2568-49.8047L50.0488-38.0371L56.8359-38.0371L53.9062-34.1553L59.9121-28.1738L68.75-39.2822C69.5312-40.2588 69.9219-41.1865 69.9219-42.2119C69.9219-44.1406 68.457-45.5078 66.4795-45.5078L44.2139-45.5078L55.3467-75.8057C57.1289-80.7129 52.0752-83.3008 48.9258-79.3213ZM68.1885-2.49023C69.5312-1.17188 71.7285-1.14746 73.0225-2.49023C74.3652-3.78418 74.3652-5.98145 73.0225-7.32422L11.7188-68.6279C10.376-69.9707 8.1543-69.9707 6.83594-68.6279C5.54199-67.334 5.54199-65.0879 6.83594-63.7939Z"/>
  </g>
  <g id="Semibold-S" transform="matrix(1 0 0 1 2004.04 696)">
   <path d="M10.1187-29.104C10.1187-27.2375 11.5635-25.9059 13.4788-25.9059L35.4445-25.9059L24.2739 4.04541C22.5184 8.78379 27.4565 11.3184 30.4904 7.45439L47.9084-14.6756L42.4799-20.0553L31.1854-5.03662L32.872-4.32197L41.0261-21.5424L29.5141-33.0211L22.4048-33.0211L25.4767-37.0585L19.8085-42.7444L11.2883-31.9448C10.5248-30.986 10.1187-30.0938 10.1187-29.104ZM30.5658-56.4004L35.961-50.9896L47.2888-66.0571L45.6022-66.7718L37.4481-49.5025L48.8936-38.0727L56.0361-38.0727L52.9643-33.9864L58.6502-28.316L67.2037-39.1489C67.9672-40.1077 68.34-40.9999 68.34-41.9897C68.34-43.8563 66.9285-45.1879 65.0132-45.1879L43.0142-45.1879L54.2181-75.1392C55.9736-79.8775 51.0354-82.4121 48.0016-78.5481ZM66.7755-3.20117C68.1094-1.88281 70.2889-1.86729 71.5739-3.20117C72.9078-4.48623 72.9078-6.66572 71.5739-7.99961L11.6832-67.9081C10.3493-69.242 8.13652-69.242 6.83594-67.9081C5.55088-66.623 5.55088-64.3947 6.83594-63.1097Z"/>
  </g>
  <g id="Medium-S" transform="matrix(1 0 0 1 1707.88 696)">
   <path d="M10.2197-29.2725C10.2197-27.4531 11.6309-26.1484 13.499-26.1484L35.2559-26.1484L24.0381 3.54004C22.3027 8.15039 27.1533 10.6445 30.0996 6.86816L47.248-15.0664L42.0352-20.2305L31.0439-5.54199L32.5283-4.84082L40.5342-21.7715L29.2715-32.9941L21.8994-32.9941L25.0791-37.1865L19.667-42.6299L11.3691-32.0459C10.6191-31.1006 10.2197-30.2354 10.2197-29.2725ZM30.1211-55.9961L35.2939-50.8145L46.3252-65.5518L44.8408-66.2529L36.835-49.2734L48.0176-38.0996L55.4297-38.0996L52.25-33.8584L57.6934-28.4238L66.0312-39.0479C66.7812-39.9932 67.1406-40.8584 67.1406-41.8213C67.1406-43.6406 65.7695-44.9453 63.9014-44.9453L42.1045-44.9453L53.3623-74.6338C55.0977-79.2441 50.2471-81.7383 47.3008-77.9619ZM65.7041-3.74023C67.0312-2.42188 69.1973-2.41309 70.4756-3.74023C71.8027-5.01855 71.8027-7.18457 70.4756-8.51172L11.6562-67.3623C10.3291-68.6895 8.12305-68.6895 6.83594-67.3623C5.55762-66.084 5.55762-63.8691 6.83594-62.5908Z"/>
  </g>
  <g id="Regular-S" transform="matrix(1 0 0 1 1411.88 696)">
   <path d="M10.3516-29.4922C10.3516-27.7344 11.7188-26.4648 13.5254-26.4648L35.0098-26.4648L23.7305 2.88086C22.0215 7.32422 26.7578 9.76562 29.5898 6.10352L46.3867-15.5762L41.4551-20.459L30.8594-6.20117L32.0801-5.51758L39.8926-22.0703L28.9551-32.959L21.2402-32.959L24.5605-37.3535L19.4824-42.4805L11.4746-32.1777C10.7422-31.25 10.3516-30.4199 10.3516-29.4922ZM29.541-55.4688L34.4238-50.5859L45.0684-64.8926L43.8477-65.5762L36.0352-48.9746L46.875-38.1348L54.6387-38.1348L51.3184-33.6914L56.4453-28.5645L64.502-38.916C65.2344-39.8438 65.5762-40.6738 65.5762-41.6016C65.5762-43.3594 64.2578-44.6289 62.4512-44.6289L40.918-44.6289L52.2461-73.9746C53.9551-78.418 49.2188-80.8594 46.3867-77.1973ZM64.3066-4.44336C65.625-3.125 67.7734-3.125 69.043-4.44336C70.3613-5.71289 70.3613-7.86133 69.043-9.17969L11.6211-66.6504C10.3027-67.9688 8.10547-67.9688 6.83594-66.6504C5.56641-65.3809 5.56641-63.1836 6.83594-61.9141Z"/>
  </g>
  <g id="Light-S" transform="matrix(1 0 0 1 1115.67 696)">
   <path d="M11.063-29.6284C11.063-28.3398 12.0366-27.3428 13.4951-27.3428L35.1914-27.3428L23.7153 2.68408C22.3394 6.23438 26.0615 8.11574 28.3184 5.21046L45.9478-17.4228L42.1362-21.2007L29.4668-4.52101L30.4151-3.98878L39.1206-24.25L30.938-32.3989L19.4995-32.3989L24.4849-38.852L20.5723-42.7983L12.0195-31.8599C11.3931-31.0835 11.063-30.4048 11.063-29.6284ZM28.9658-53.6372L32.7588-49.8594L45.4619-66.5727L44.5137-67.105L35.8081-46.8101L43.9234-38.6948L55.3804-38.6948L50.4102-32.208L54.3565-28.2617L62.9429-39.2339C63.5693-40.0103 63.8657-40.689 63.8657-41.4653C63.8657-42.7539 62.9107-43.751 61.4673-43.751L39.7222-43.751L51.2471-73.7778C52.6079-77.3281 48.9009-79.2095 46.6289-76.3042ZM64.5186-4.71582C65.5493-3.70019 67.2134-3.70019 68.2105-4.71582C69.2109-5.69775 69.2261-7.37696 68.2105-8.40772L10.2739-66.3779C9.28858-67.3633 7.54541-67.3936 6.56348-66.3779C5.56641-65.3809 5.56641-63.6831 6.56348-62.686Z"/>
  </g>
  <g id="Thin-S" transform="matrix(1 0 0 1 819.619 696)">
   <path d="M12.0039-29.8086C12.0039-29.1406 12.457-28.5039 13.4551-28.5039L35.4316-28.5039L23.6953 2.42383C22.7598 4.79299 25.1406 5.93362 26.6367 4.02931L45.3672-19.8652L43.0371-22.1816L27.625-2.29886L28.2129-1.96682L38.0996-27.1328L33.5605-31.6582L17.1973-31.6582L24.3848-40.834L22.0137-43.2187L12.7402-31.4395C12.2539-30.8633 12.0039-30.3848 12.0039-29.8086ZM28.2051-51.2149L30.5567-48.8985L45.9824-68.7949L45.3945-69.1269L35.5078-43.9473L40.0196-39.4355L56.3613-39.4355L49.209-30.2461L51.5938-27.8613L60.8809-39.6543C61.3672-40.2305 61.6035-40.709 61.6035-41.2852C61.6035-41.9531 61.1289-42.5899 60.166-42.5899L38.1406-42.5899L49.9258-73.5176C50.8262-75.8867 48.4805-77.0274 46.9492-75.1231ZM64.7988-5.07617C65.4492-4.46093 66.4727-4.46093 67.1094-5.07617C67.6895-5.67773 67.7246-6.73634 67.1094-7.38673L8.49221-66.0176C7.94728-66.5625 6.8047-66.6328 6.20313-66.0176C5.56641-65.3809 5.56641-64.3437 6.20313-63.707Z"/>
  </g>
  <g id="Ultralight-S" transform="matrix(1 0 0 1 523.246 696)">
   <path d="M12.4858-29.9009C12.4858-29.5508 12.6724-29.0986 13.4346-29.0986L35.5547-29.0986L23.6851 2.29053C22.9751 4.05471 24.669 4.81596 25.7754 3.42434L45.0698-21.1162L43.4985-22.6841L26.6817-1.16068L27.085-0.931188L37.5767-28.6093L34.9038-31.2788L16.0181-31.2788L24.3335-41.8491L22.7519-43.4341L13.1094-31.2241C12.6948-30.7505 12.4858-30.3745 12.4858-29.9009ZM27.8154-49.9742L29.4288-48.4063L46.249-69.9331L45.8457-70.1626L35.354-42.481L38.0201-39.8149L56.8638-39.8149L48.5938-29.2412L50.1788-27.6563L59.8247-39.8696C60.2393-40.3433 60.4449-40.7192 60.4449-41.1929C60.4449-41.543 60.2163-41.9951 59.4995-41.9951L37.3306-41.9951L49.249-73.3843C49.9136-75.1485 48.2651-75.9097 47.1133-74.5181ZM64.9424-5.26074C65.398-4.85057 66.0933-4.85057 66.5454-5.26074C66.9102-5.66748 66.9556-6.40821 66.5454-6.86379L7.57962-65.833C7.26028-66.1524 6.42531-66.2432 6.01856-65.833C5.56641-65.3809 5.56641-64.6821 6.01856-64.23Z"/>
  </g>
 </g>
</svg>
