<?xml version="1.0" encoding="UTF-8"?>
<!--Generator: Apple Native CoreSVG 341-->
<!DOCTYPE svg
PUBLIC "-//W3C//DTD SVG 1.1//EN"
       "http://www.w3.org/Graphics/SVG/1.1/DTD/svg11.dtd">
<svg version="1.1" xmlns="http://www.w3.org/2000/svg" xmlns:xlink="http://www.w3.org/1999/xlink" viewBox="0 0 3300 2200">
 <g id="Notes">
  <rect height="2200" id="artboard" style="fill:white;opacity:1" width="3300" x="0" y="0"/>
  <line style="fill:none;stroke:black;opacity:1;stroke-width:0.5;" x1="263" x2="3036" y1="292" y2="292"/>
  <text style="stroke:none;fill:black;font-family:sans-serif;font-size:13;font-weight:bold;" transform="matrix(1 0 0 1 263 322)">Weight/Scale Variations</text>
  <text style="stroke:none;fill:black;font-family:sans-serif;font-size:13;text-anchor:middle;" transform="matrix(1 0 0 1 559.711 322)">Ultralight</text>
  <text style="stroke:none;fill:black;font-family:sans-serif;font-size:13;text-anchor:middle;" transform="matrix(1 0 0 1 856.422 322)">Thin</text>
  <text style="stroke:none;fill:black;font-family:sans-serif;font-size:13;text-anchor:middle;" transform="matrix(1 0 0 1 1153.13 322)">Light</text>
  <text style="stroke:none;fill:black;font-family:sans-serif;font-size:13;text-anchor:middle;" transform="matrix(1 0 0 1 1449.84 322)">Regular</text>
  <text style="stroke:none;fill:black;font-family:sans-serif;font-size:13;text-anchor:middle;" transform="matrix(1 0 0 1 1746.56 322)">Medium</text>
  <text style="stroke:none;fill:black;font-family:sans-serif;font-size:13;text-anchor:middle;" transform="matrix(1 0 0 1 2043.27 322)">Semibold</text>
  <text style="stroke:none;fill:black;font-family:sans-serif;font-size:13;text-anchor:middle;" transform="matrix(1 0 0 1 2339.98 322)">Bold</text>
  <text style="stroke:none;fill:black;font-family:sans-serif;font-size:13;text-anchor:middle;" transform="matrix(1 0 0 1 2636.69 322)">Heavy</text>
  <text style="stroke:none;fill:black;font-family:sans-serif;font-size:13;text-anchor:middle;" transform="matrix(1 0 0 1 2933.4 322)">Black</text>
  <line style="fill:none;stroke:black;opacity:1;stroke-width:0.5;" x1="263" x2="3036" y1="1903" y2="1903"/>
  <g transform="matrix(0.2 0 0 0.2 263 1933)">
   <path d="m46.2402 4.15039c21.7773 0 39.4531-17.627 39.4531-39.4043s-17.6758-39.4043-39.4531-39.4043c-21.7285 0-39.4043 17.627-39.4043 39.4043s17.6758 39.4043 39.4043 39.4043Zm0-7.42188c-17.6758 0-31.9336-14.3066-31.9336-31.9824s14.2578-31.9824 31.9336-31.9824 31.9824 14.3066 31.9824 31.9824-14.3066 31.9824-31.9824 31.9824Zm3.61328-17.7734v-28.4668c0-2.24609-1.46484-3.75977-3.71094-3.75977-2.14844 0-3.61328 1.51367-3.61328 3.75977v28.4668c0 2.19727 1.46484 3.71094 3.61328 3.71094 2.24609 0 3.71094-1.51367 3.71094-3.71094Zm-17.8223-10.5957h28.418c2.19727 0 3.71094-1.46484 3.71094-3.61328 0-2.19727-1.51367-3.71094-3.71094-3.71094h-28.418c-2.24609 0-3.75977 1.51367-3.75977 3.71094 0 2.14844 1.51367 3.61328 3.75977 3.61328Z"/>
  </g>
  <g transform="matrix(0.2 0 0 0.2 281.506 1933)">
   <path d="m58.5449 14.5508c27.4902 0 49.8047-22.3145 49.8047-49.8047s-22.3145-49.8047-49.8047-49.8047-49.8047 22.3145-49.8047 49.8047 22.3145 49.8047 49.8047 49.8047Zm0-8.30078c-22.9492 0-41.5039-18.5547-41.5039-41.5039s18.5547-41.5039 41.5039-41.5039 41.5039 18.5547 41.5039 41.5039-18.5547 41.5039-41.5039 41.5039Zm4.05273-23.0957v-36.9141c0-2.49023-1.70898-4.19922-4.15039-4.19922-2.39258 0-4.05273 1.70898-4.05273 4.19922v36.9141c0 2.44141 1.66016 4.15039 4.05273 4.15039 2.44141 0 4.15039-1.66016 4.15039-4.15039Zm-22.5586-14.4043h36.9629c2.44141 0 4.15039-1.61133 4.15039-4.00391 0-2.44141-1.70898-4.15039-4.15039-4.15039h-36.9629c-2.49023 0-4.15039 1.70898-4.15039 4.15039 0 2.39258 1.66016 4.00391 4.15039 4.00391Z"/>
  </g>
  <g transform="matrix(0.2 0 0 0.2 304.924 1933)">
   <path d="m74.8535 28.3203c35.1074 0 63.623-28.4668 63.623-63.5742s-28.5156-63.623-63.623-63.623-63.5742 28.5156-63.5742 63.623 28.4668 63.5742 63.5742 63.5742Zm0-9.08203c-30.127 0-54.4922-24.3652-54.4922-54.4922s24.3652-54.4922 54.4922-54.4922 54.4922 24.3652 54.4922 54.4922-24.3652 54.4922-54.4922 54.4922Zm4.44336-30.3223v-48.4863c0-2.73438-1.85547-4.63867-4.54102-4.63867-2.58789 0-4.44336 1.9043-4.44336 4.63867v48.4863c0 2.68555 1.85547 4.58984 4.44336 4.58984 2.68555 0 4.54102-1.85547 4.54102-4.58984Zm-28.7109-19.7754h48.4863c2.68555 0 4.58984-1.80664 4.58984-4.39453 0-2.73438-1.85547-4.58984-4.58984-4.58984h-48.4863c-2.73438 0-4.58984 1.85547-4.58984 4.58984 0 2.58789 1.85547 4.39453 4.58984 4.39453Z"/>
  </g>
  <text style="stroke:none;fill:black;font-family:sans-serif;font-size:13;font-weight:bold;" transform="matrix(1 0 0 1 263 1953)">Design Variations</text>
  <text style="stroke:none;fill:black;font-family:sans-serif;font-size:13;" transform="matrix(1 0 0 1 263 1971)">Symbols are supported in up to nine weights and three scales.</text>
  <text style="stroke:none;fill:black;font-family:sans-serif;font-size:13;" transform="matrix(1 0 0 1 263 1989)">For optimal layout with text and other symbols, vertically align</text>
  <text style="stroke:none;fill:black;font-family:sans-serif;font-size:13;" transform="matrix(1 0 0 1 263 2007)">symbols with the adjacent text.</text>
  <line style="fill:none;stroke:#00AEEF;stroke-width:0.5;opacity:1.0;" x1="776" x2="776" y1="1919" y2="1933"/>
  <g transform="matrix(0.2 0 0 0.2 776 1933)">
   <path d="m16.5527 0.78125c2.58789 0 3.85742-0.976562 4.78516-3.71094l20.5566-57.5195h0.244141l20.6055 57.5195c0.927734 2.73438 2.19727 3.71094 4.73633 3.71094 2.58789 0 4.24805-1.5625 4.24805-4.00391 0-0.830078-0.146484-1.61133-0.537109-2.63672l-22.9004-60.9863c-1.12305-2.97852-3.125-4.49219-6.25-4.49219-3.02734 0-5.07812 1.46484-6.15234 4.44336l-22.9004 61.084c-0.390625 1.02539-0.537109 1.80664-0.537109 2.63672 0 2.44141 1.5625 3.95508 4.10156 3.95508Zm10.2051-20.9473h30.6641c2.00195 0 3.66211-1.66016 3.66211-3.66211 0-2.05078-1.66016-3.66211-3.66211-3.66211h-30.6641c-2.00195 0-3.66211 1.61133-3.66211 3.66211 0 2.00195 1.66016 3.66211 3.66211 3.66211Z"/>
  </g>
  <line style="fill:none;stroke:#00AEEF;stroke-width:0.5;opacity:1.0;" x1="792.836" x2="792.836" y1="1919" y2="1933"/>
  <text style="stroke:none;fill:black;font-family:sans-serif;font-size:13;font-weight:bold;" transform="matrix(1 0 0 1 776 1953)">Margins</text>
  <text style="stroke:none;fill:black;font-family:sans-serif;font-size:13;" transform="matrix(1 0 0 1 776 1971)">Leading and trailing margins on the left and right side of each symbol</text>
  <text style="stroke:none;fill:black;font-family:sans-serif;font-size:13;" transform="matrix(1 0 0 1 776 1989)">can be adjusted by modifying the x-location of the margin guidelines.</text>
  <text style="stroke:none;fill:black;font-family:sans-serif;font-size:13;" transform="matrix(1 0 0 1 776 2007)">Modifications are automatically applied proportionally to all</text>
  <text style="stroke:none;fill:black;font-family:sans-serif;font-size:13;" transform="matrix(1 0 0 1 776 2025)">scales and weights.</text>
  <g transform="matrix(0.2 0 0 0.2 1289 1933)">
   <path d="m14.209 13.1348 7.86133 7.86133c4.29688 4.39453 9.32617 4.10156 13.8672-1.02539l60.6934-68.2129-4.88281-4.88281-60.2539 67.6758c-1.80664 1.95312-3.4668 2.44141-5.81055 0.0976562l-5.17578-5.12695c-2.29492-2.29492-1.80664-3.95508 0.195312-5.81055l67.4805-62.1582-4.88281-4.83398-68.0664 62.5977c-4.98047 4.58984-5.32227 9.47266-1.02539 13.8184Zm44.873-97.4609c-2.05078 2.00195-2.24609 4.88281-1.07422 6.78711 1.12305 1.80664 3.4668 3.02734 6.5918 2.24609 5.85938-1.66016 12.5977-2.39258 18.8965 0.927734l-2.68555 7.12891c-1.61133 4.00391-0.732422 6.88477 1.70898 9.42383l10.2539 10.3027c2.34375 2.39258 4.54102 2.44141 7.08008 1.95312l4.44336-0.732422 2.58789 2.53906-0.195312 2.24609c-0.0976562 2.29492 0.537109 4.29688 2.7832 6.49414l3.36914 3.32031c2.29492 2.29492 5.51758 2.49023 7.8125 0.195312l12.9883-13.0371c2.29492-2.34375 2.14844-5.37109-0.195312-7.66602l-3.41797-3.41797c-2.19727-2.19727-4.05273-3.02734-6.34766-2.88086l-2.34375 0.244141-2.44141-2.44141 1.02539-4.6875c0.634766-2.73438-0.244141-4.98047-2.88086-7.61719l-11.2793-11.1816c-12.9395-12.8418-35.5957-11.0352-46.6797-0.146484Zm7.08008 2.05078c8.78906-6.39648 25.9766-5.66406 33.6914 1.95312l12.3047 12.207c1.02539 1.02539 1.2207 1.80664 0.927734 3.32031l-1.46484 6.64062 6.73828 6.68945 4.39453-0.244141c1.12305-0.0488281 1.51367 0.0488281 2.34375 0.878906l2.53906 2.49023-10.8398 10.8398-2.49023-2.49023c-0.830078-0.878906-0.976562-1.2207-0.927734-2.39258l0.292969-4.3457-6.68945-6.73828-6.83594 1.17188c-1.41602 0.292969-2.05078 0.195312-3.17383-0.878906l-8.93555-8.88672c-1.07422-1.02539-1.17188-1.70898-0.488281-3.36914l4.58984-11.4746c-6.10352-6.34766-17.041-7.51953-25.5859-4.58984-0.683594 0.244141-0.927734-0.390625-0.390625-0.78125Z"/>
  </g>
  <text style="stroke:none;fill:black;font-family:sans-serif;font-size:13;font-weight:bold;" transform="matrix(1 0 0 1 1289 1953)">Exporting</text>
  <text style="stroke:none;fill:black;font-family:sans-serif;font-size:13;" transform="matrix(1 0 0 1 1289 1971)">Symbols should be outlined when exporting to ensure the</text>
  <text style="stroke:none;fill:black;font-family:sans-serif;font-size:13;" transform="matrix(1 0 0 1 1289 1989)">design is preserved when submitting to Xcode.</text>
  <text id="template-version" style="stroke:none;fill:black;font-family:sans-serif;font-size:13;text-anchor:end;" transform="matrix(1 0 0 1 3036 1933)">Template v.2.0</text>
  <text style="stroke:none;fill:black;font-family:sans-serif;font-size:13;text-anchor:end;" transform="matrix(1 0 0 1 3036 1951)">Requires Xcode 12 or greater</text>
  <text id="descriptive-name" style="stroke:none;fill:black;font-family:sans-serif;font-size:13;text-anchor:end;" transform="matrix(1 0 0 1 3036 1969)">Generated from sidebar.left</text>
  <text style="stroke:none;fill:black;font-family:sans-serif;font-size:13;text-anchor:end;" transform="matrix(1 0 0 1 3036 1987)">Typeset at 100.0 points</text>
  <text style="stroke:none;fill:black;font-family:sans-serif;font-size:13;" transform="matrix(1 0 0 1 263 726)">Small</text>
  <text style="stroke:none;fill:black;font-family:sans-serif;font-size:13;" transform="matrix(1 0 0 1 263 1156)">Medium</text>
  <text style="stroke:none;fill:black;font-family:sans-serif;font-size:13;" transform="matrix(1 0 0 1 263 1586)">Large</text>
 </g>
 <g id="Guides">
  <g id="H-reference" style="fill:#27AAE1;stroke:none;" transform="matrix(1 0 0 1 339 696)">
   <path d="M0.993654 0L3.63775 0L29.3281-67.1323L30.0303-67.1323L30.0303-70.459L28.1226-70.459ZM11.6885-24.4799L46.9815-24.4799L46.2315-26.7285L12.4385-26.7285ZM55.1196 0L57.7637 0L30.6382-70.459L29.4326-70.459L29.4326-67.1323Z"/>
  </g>
  <line id="Baseline-S" style="fill:none;stroke:#27AAE1;opacity:1;stroke-width:0.5;" x1="263" x2="3036" y1="696" y2="696"/>
  <line id="Capline-S" style="fill:none;stroke:#27AAE1;opacity:1;stroke-width:0.5;" x1="263" x2="3036" y1="625.541" y2="625.541"/>
  <g id="H-reference" style="fill:#27AAE1;stroke:none;" transform="matrix(1 0 0 1 339 1126)">
   <path d="M0.993654 0L3.63775 0L29.3281-67.1323L30.0303-67.1323L30.0303-70.459L28.1226-70.459ZM11.6885-24.4799L46.9815-24.4799L46.2315-26.7285L12.4385-26.7285ZM55.1196 0L57.7637 0L30.6382-70.459L29.4326-70.459L29.4326-67.1323Z"/>
  </g>
  <line id="Baseline-M" style="fill:none;stroke:#27AAE1;opacity:1;stroke-width:0.5;" x1="263" x2="3036" y1="1126" y2="1126"/>
  <line id="Capline-M" style="fill:none;stroke:#27AAE1;opacity:1;stroke-width:0.5;" x1="263" x2="3036" y1="1055.54" y2="1055.54"/>
  <g id="H-reference" style="fill:#27AAE1;stroke:none;" transform="matrix(1 0 0 1 339 1556)">
   <path d="M0.993654 0L3.63775 0L29.3281-67.1323L30.0303-67.1323L30.0303-70.459L28.1226-70.459ZM11.6885-24.4799L46.9815-24.4799L46.2315-26.7285L12.4385-26.7285ZM55.1196 0L57.7637 0L30.6382-70.459L29.4326-70.459L29.4326-67.1323Z"/>
  </g>
  <line id="Baseline-L" style="fill:none;stroke:#27AAE1;opacity:1;stroke-width:0.5;" x1="263" x2="3036" y1="1556" y2="1556"/>
  <line id="Capline-L" style="fill:none;stroke:#27AAE1;opacity:1;stroke-width:0.5;" x1="263" x2="3036" y1="1485.54" y2="1485.54"/>
  <line id="right-margin" style="fill:none;stroke:#00AEEF;stroke-width:0.5;opacity:1.0;" x1="1519.85" x2="1519.85" y1="1030.79" y2="1150.12"/>
  <line id="left-margin" style="fill:none;stroke:#00AEEF;stroke-width:0.5;opacity:1.0;" x1="1379.84" x2="1379.84" y1="1030.79" y2="1150.12"/>
 </g>
 <g id="Symbols">
  <g id="Black-L" transform="matrix(1 0 0 1 2841.56 1556)">
   <path d="M73.264 8.59133L91.4304 8.59133L91.4304-79.6179L73.264-79.6179ZM45.3041 26.4201L138.881 26.4201C156.715 26.4201 167.603 15.3671 167.603-2.82083L167.603-67.5601C167.603-85.748 156.715-96.8011 138.881-96.8011L45.3041-96.8011C27.1371-96.8011 16.084-85.748 16.084-67.5601L16.084-2.82083C16.084 15.3671 27.1371 26.4201 45.3041 26.4201ZM47.9932 6.41832C40.5494 6.41832 36.065 1.95468 36.065-5.50993L36.065-64.871C36.065-72.3356 40.5494-76.7993 47.9932-76.7993L135.693-76.7993C143.158-76.7993 147.622-72.3356 147.622-64.871L147.622-5.50993C147.622 1.95468 143.158 6.41832 135.693 6.41832ZM60.1301-54.7553C63.51-54.7553 66.1594-57.3683 66.1594-60.4342C66.1594-63.4988 63.51-66.1286 60.1301-66.1286L49.2406-66.1286C45.8814-66.1286 43.2308-63.4988 43.2308-60.4342C43.2308-57.3683 45.8814-54.7553 49.2406-54.7553ZM60.1301-36.0238C63.51-36.0238 66.1594-38.616 66.1594-41.7015C66.1594-44.7674 63.51-47.3388 60.1301-47.3388L49.2406-47.3388C45.8814-47.3388 43.2308-44.7674 43.2308-41.7015C43.2308-38.616 45.8814-36.0238 49.2406-36.0238ZM60.1301-17.2352C63.51-17.2352 66.1594-19.8846 66.1594-22.9505C66.1594-26.0164 63.51-28.5866 60.1301-28.5866L49.2406-28.5866C45.8814-28.5866 43.2308-26.0164 43.2308-22.9505C43.2308-19.8846 45.8814-17.2352 49.2406-17.2352Z"/>
  </g>
  <g id="Heavy-L" transform="matrix(1 0 0 1 2545.23 1556)">
   <path d="M71.0169 10.0858L87.0881 10.0858L87.0881-80.9542L71.0169-80.9542ZM44.5566 25.5046L139.08 25.5046C156.385 25.5046 166.834 14.8194 166.834-2.99813L166.834-67.3917C166.834-85.2092 156.385-95.8944 139.08-95.8944L44.5566-95.8944C26.7692-95.8944 16.084-85.2092 16.084-67.3917L16.084-2.99813C16.084 14.8194 26.7692 25.5046 44.5566 25.5046ZM46.6204 7.97405C38.4571 7.97405 33.5844 3.13156 33.5844-5.062L33.5844-65.3278C33.5844-73.5213 38.4571-78.3638 46.6204-78.3638L136.298-78.3638C144.491-78.3638 149.334-73.5213 149.334-65.3278L149.334-5.062C149.334 3.13156 144.491 7.97405 136.298 7.97405ZM58.1261-55.9901C61.1504-55.9901 63.5405-58.3714 63.5405-61.1367C63.5405-63.8964 61.1504-66.2621 58.1261-66.2621L46.5355-66.2621C43.5415-66.2621 41.1457-63.8964 41.1457-61.1367C41.1457-58.3714 43.5415-55.9901 46.5355-55.9901ZM58.1261-37.8083C61.1504-37.8083 63.5405-40.1594 63.5405-42.9493C63.5405-45.7146 61.1504-48.0356 58.1261-48.0356L46.5355-48.0356C43.5415-48.0356 41.1457-45.7146 41.1457-42.9493C41.1457-40.1594 43.5415-37.8083 46.5355-37.8083ZM58.1261-19.5875C61.1504-19.5875 63.5405-21.9776 63.5405-24.7429C63.5405-27.5083 61.1504-29.8236 58.1261-29.8236L46.5355-29.8236C43.5415-29.8236 41.1457-27.5083 41.1457-24.7429C41.1457-21.9776 43.5415-19.5875 46.5355-19.5875Z"/>
  </g>
  <g id="Bold-L" transform="matrix(1 0 0 1 2249.01 1556)">
   <path d="M68.3694 11.878L81.8211 11.878L81.8211-82.5988L68.3694-82.5988ZM43.4928 24.3601L139.341 24.3601C155.933 24.3601 165.852 14.1506 165.852-3.08673L165.852-67.3183C165.852-84.5557 155.933-94.7651 139.341-94.7651L43.4928-94.7651C26.2934-94.7651 16.084-84.5557 16.084-67.3183L16.084-3.08673C16.084 14.1506 26.2934 24.3601 43.4928 24.3601ZM44.8626 9.88032C35.8675 9.88032 30.5257 4.57653 30.5257-4.45654L30.5257-65.9485C30.5257-74.9816 35.8675-80.2853 44.8626-80.2853L137.073-80.2853C146.106-80.2853 151.41-74.9816 151.41-65.9485L151.41-4.45654C151.41 4.57653 146.106 9.88032 137.073 9.88032ZM55.756-57.5267C58.3422-57.5267 60.4022-59.6087 60.4022-61.9976C60.4022-64.3733 58.3422-66.4086 55.756-66.4086L43.2151-66.4086C40.6669-66.4086 38.5937-64.3733 38.5937-61.9976C38.5937-59.6087 40.6669-57.5267 43.2151-57.5267ZM55.756-39.9168C58.3422-39.9168 60.4022-41.9609 60.4022-44.3746C60.4022-46.7635 58.3422-48.7696 55.756-48.7696L43.2151-48.7696C40.6669-48.7696 38.5937-46.7635 38.5937-44.3746C38.5937-41.9609 40.6669-39.9168 43.2151-39.9168ZM55.756-22.2911C58.3422-22.2911 60.4022-24.3511 60.4022-26.74C60.4022-29.1289 58.3422-31.1218 55.756-31.1218L43.2151-31.1218C40.6669-31.1218 38.5937-29.1289 38.5937-26.74C38.5937-24.3511 40.6669-22.2911 43.2151-22.2911Z"/>
  </g>
  <g id="Semibold-L" transform="matrix(1 0 0 1 1952.64 1556)">
   <path d="M66.5442 13.1135L78.1901 13.1135L78.1901-83.7327L66.5442-83.7327ZM42.7594 23.571L139.521 23.571C155.621 23.571 165.174 13.6896 165.174-3.14781L165.174-67.2677C165.174-84.1051 155.621-93.9865 139.521-93.9865L42.7594-93.9865C25.9654-93.9865 16.084-84.1051 16.084-67.2677L16.084-3.14781C16.084 13.6896 25.9654 23.571 42.7594 23.571ZM43.6508 11.1945C34.0823 11.1945 28.4171 5.57269 28.4171-4.03914L28.4171-66.3764C28.4171-75.9882 34.0823-81.61 43.6508-81.61L137.608-81.61C147.219-81.61 152.841-75.9882 152.841-66.3764L152.841-4.03914C152.841 5.57269 147.219 11.1945 137.608 11.1945ZM54.122-58.586C56.4062-58.586 58.2387-60.4617 58.2387-62.5911C58.2387-64.7021 56.4062-66.5097 54.122-66.5097L40.926-66.5097C38.6853-66.5097 36.8343-64.7021 36.8343-62.5911C36.8343-60.4617 38.6853-58.586 40.926-58.586ZM54.122-41.3705C56.4062-41.3705 58.2387-43.2028 58.2387-45.3572C58.2387-47.4866 56.4062-49.2756 54.122-49.2756L40.926-49.2756C38.6853-49.2756 36.8343-47.4866 36.8343-45.3572C36.8343-43.2028 38.6853-41.3705 40.926-41.3705ZM54.122-24.1549C56.4062-24.1549 58.2387-25.9874 58.2387-28.1168C58.2387-30.2462 56.4062-32.0168 54.122-32.0168L40.926-32.0168C38.6853-32.0168 36.8343-30.2462 36.8343-28.1168C36.8343-25.9874 38.6853-24.1549 40.926-24.1549Z"/>
  </g>
  <g id="Medium-L" transform="matrix(1 0 0 1 1656.18 1556)">
   <path d="M65.1603 14.0503L75.4369 14.0503L75.4369-84.5924L65.1603-84.5924ZM42.2033 22.9727L139.657 22.9727C155.385 22.9727 164.661 13.34 164.661-3.19412L164.661-67.2294C164.661-83.7635 155.385-93.3962 139.657-93.3962L42.2033-93.3962C25.7167-93.3962 16.084-83.7635 16.084-67.2294L16.084-3.19412C16.084 13.34 25.7167 22.9727 42.2033 22.9727ZM42.7319 12.1909C32.7286 12.1909 26.8183 6.32802 26.8183-3.72265L26.8183-66.7008C26.8183-76.7515 32.7286-82.6144 42.7319-82.6144L138.013-82.6144C148.063-82.6144 153.926-76.7515 153.926-66.7008L153.926-3.72265C153.926 6.32802 148.063 12.1909 138.013 12.1909ZM52.8831-59.3892C54.9383-59.3892 56.5982-61.1085 56.5982-63.0411C56.5982-64.9514 54.9383-66.5863 52.8831-66.5863L39.1904-66.5863C37.1827-66.5863 35.5003-64.9514 35.5003-63.0411C35.5003-61.1085 37.1827-59.3892 39.1904-59.3892ZM52.8831-42.4727C54.9383-42.4727 56.5982-44.1445 56.5982-46.1022C56.5982-48.0349 54.9383-49.6593 52.8831-49.6593L39.1904-49.6593C37.1827-49.6593 35.5003-48.0349 35.5003-46.1022C35.5003-44.1445 37.1827-42.4727 39.1904-42.4727ZM52.8831-25.5681C54.9383-25.5681 56.5982-27.228 56.5982-29.1607C56.5982-31.0934 54.9383-32.6954 52.8831-32.6954L39.1904-32.6954C37.1827-32.6954 35.5003-31.0934 35.5003-29.1607C35.5003-27.228 37.1827-25.5681 39.1904-25.5681Z"/>
  </g>
  <g id="Regular-L" transform="matrix(1 0 0 1 1359.81 1556)">
   <path d="M63.3552 15.2723L71.8458 15.2723L71.8458-85.7138L63.3552-85.7138ZM41.478 22.1923L139.835 22.1923C155.077 22.1923 163.991 12.884 163.991-3.25453L163.991-67.1793C163.991-83.3179 155.077-92.6262 139.835-92.6262L41.478-92.6262C25.3923-92.6262 16.084-83.3179 16.084-67.1793L16.084-3.25453C16.084 12.884 25.3923 22.1923 41.478 22.1923ZM41.5334 13.4907C30.963 13.4907 24.7328 7.31324 24.7328-3.30984L24.7328-67.124C24.7328-77.7471 30.963-83.9245 41.5334-83.9245L138.541-83.9245C149.164-83.9245 155.342-77.7471 155.342-67.124L155.342-3.30984C155.342 7.31324 149.164 13.4907 138.541 13.4907ZM51.2671-60.4368C53.0236-60.4368 54.4584-61.9521 54.4584-63.6281C54.4584-65.2765 53.0236-66.6862 51.2671-66.6862L36.9265-66.6862C35.2227-66.6862 33.7603-65.2765 33.7603-63.6281C33.7603-61.9521 35.2227-60.4368 36.9265-60.4368ZM51.2671-43.9103C53.0236-43.9103 54.4584-45.3728 54.4584-47.074C54.4584-48.75 53.0236-50.1597 51.2671-50.1597L36.9265-50.1597C35.2227-50.1597 33.7603-48.75 33.7603-47.074C33.7603-45.3728 35.2227-43.9103 36.9265-43.9103ZM51.2671-27.4115C53.0236-27.4115 54.4584-28.8463 54.4584-30.5224C54.4584-32.1984 53.0236-33.5805 51.2671-33.5805L36.9265-33.5805C35.2227-33.5805 33.7603-32.1984 33.7603-30.5224C33.7603-28.8463 35.2227-27.4115 36.9265-27.4115Z"/>
  </g>
  <g id="Light-L" transform="matrix(1 0 0 1 1063.53 1556)">
   <path d="M62.4009 16.1311L68.9257 16.1311L68.9257-86.7826L62.4009-86.7826ZM39.8558 21.3335L140.103 21.3335C154.485 21.3335 163.113 12.4832 163.113-2.47203L163.113-68C163.113-82.9552 154.485-91.8055 140.103-91.8055L39.8558-91.8055C24.9342-91.8055 16.084-82.9552 16.084-68L16.084-2.47203C16.084 12.4832 24.9342 21.3335 39.8558 21.3335ZM39.9493 14.674C29.1881 14.674 22.7098 8.22933 22.7098-2.56552L22.7098-67.9065C22.7098-78.7014 29.1881-85.146 39.9493-85.146L139.248-85.146C150.042-85.146 156.487-78.7014 156.487-67.9065L156.487-2.56552C156.487 8.22933 150.042 14.674 139.248 14.674ZM50.351-61.5438C51.8212-61.5438 52.9698-62.7727 52.9698-64.1625C52.9698-65.5056 51.8212-66.6671 50.351-66.6671L34.8271-66.6671C33.3906-66.6671 32.1953-65.5056 32.1953-64.1625C32.1953-62.7727 33.3906-61.5438 34.8271-61.5438ZM50.351-44.7119C51.8212-44.7119 52.9698-45.9072 52.9698-47.2839C52.9698-48.6737 51.8212-49.8353 50.351-49.8353L34.8271-49.8353C33.3906-49.8353 32.1953-48.6737 32.1953-47.2839C32.1953-45.9072 33.3906-44.7119 34.8271-44.7119ZM50.351-27.9268C51.8212-27.9268 52.9698-29.0753 52.9698-30.4651C52.9698-31.8549 51.8212-32.9698 50.351-32.9698L34.8271-32.9698C33.3906-32.9698 32.1953-31.8549 32.1953-30.4651C32.1953-29.0753 33.3906-27.9268 34.8271-27.9268Z"/>
  </g>
  <g id="Thin-L" transform="matrix(1 0 0 1 767.404 1556)">
   <path d="M61.1388 17.267L65.0637 17.267L65.0637-88.1961L61.1388-88.1961ZM37.7102 20.1976L140.456 20.1976C153.703 20.1976 161.952 11.9531 161.952-1.43712L161.952-69.0854C161.952-82.4756 153.703-90.7201 140.456-90.7201L37.7102-90.7201C24.3284-90.7201 16.084-82.4756 16.084-69.0854L16.084-1.43712C16.084 11.9531 24.3284 20.1976 37.7102 20.1976ZM37.8542 16.2389C26.8406 16.2389 20.0342 9.44094 20.0342-1.58109L20.0342-68.9414C20.0342-79.9635 26.8406-86.7615 37.8542-86.7615L140.181-86.7615C151.203-86.7615 158.001-79.9635 158.001-68.9414L158.001-1.58109C158.001 9.44094 151.203 16.2389 140.181 16.2389ZM49.1394-63.0078C50.231-63.0078 51.0009-63.8581 51.0009-64.8693C51.0009-65.8085 50.231-66.6419 49.1394-66.6419L32.0505-66.6419C30.9673-66.6419 30.1255-65.8085 30.1255-64.8693C30.1255-63.8581 30.9673-63.0078 32.0505-63.0078ZM49.1394-45.7721C50.231-45.7721 51.0009-46.614 51.0009-47.5616C51.0009-48.5727 50.231-49.4062 49.1394-49.4062L32.0505-49.4062C30.9673-49.4062 30.1255-48.5727 30.1255-47.5616C30.1255-46.614 30.9673-45.7721 32.0505-45.7721ZM49.1394-28.6083C50.231-28.6083 51.0009-29.3782 51.0009-30.3894C51.0009-31.4006 50.231-32.162 49.1394-32.162L32.0505-32.162C30.9673-32.162 30.1255-31.4006 30.1255-30.3894C30.1255-29.3782 30.9673-28.6083 32.0505-28.6083Z"/>
  </g>
  <g id="Ultralight-L" transform="matrix(1 0 0 1 470.991 1556)">
   <path d="M60.4924 17.8488L63.0856 17.8488L63.0856-88.9201L60.4924-88.9201ZM36.6113 19.6158L140.637 19.6158C153.302 19.6158 161.357 11.6816 161.357-0.90704L161.357-69.6413C161.357-82.23 153.302-90.1642 140.637-90.1642L36.6113-90.1642C24.0182-90.1642 16.084-82.23 16.084-69.6413L16.084-0.90704C16.084 11.6816 24.0182 19.6158 36.6113 19.6158ZM36.7811 17.0405C25.6382 17.0405 18.6637 10.0615 18.6637-1.07686L18.6637-69.4715C18.6637-80.6099 25.6382-87.5889 36.7811-87.5889L140.66-87.5889C151.798-87.5889 158.777-80.6099 158.777-69.4715L158.777-1.07686C158.777 10.0615 151.798 17.0405 140.66 17.0405ZM48.5188-63.7577C49.4165-63.7577 49.9924-64.4141 49.9924-65.2313C49.9924-65.9636 49.4165-66.629 48.5188-66.629L30.6283-66.629C29.7262-66.629 29.0653-65.9636 29.0653-65.2313C29.0653-64.4141 29.7262-63.7577 30.6283-63.7577ZM48.5188-46.3151C49.4165-46.3151 49.9924-46.976 49.9924-47.7038C49.9924-48.521 49.4165-49.1864 48.5188-49.1864L30.6283-49.1864C29.7262-49.1864 29.0653-48.521 29.0653-47.7038C29.0653-46.976 29.7262-46.3151 30.6283-46.3151ZM48.5188-28.9574C49.4165-28.9574 49.9924-29.5334 49.9924-30.3506C49.9924-31.1678 49.4165-31.7483 48.5188-31.7483L30.6283-31.7483C29.7262-31.7483 29.0653-31.1678 29.0653-30.3506C29.0653-29.5334 29.7262-28.9574 30.6283-28.9574Z"/>
  </g>
  <g id="Black-M" transform="matrix(1 0 0 1 2861.97 1126)">
   <path d="M58.5626-2.44767L74.1712-2.44767L74.1712-68.6154L58.5626-68.6154ZM35.5217 13.2035L107.461 13.2035C121.617 13.2035 130.39 4.38612 130.39-9.86274L130.39-60.5334C130.39-74.7822 121.617-83.5996 107.461-83.5996L35.5217-83.5996C21.2783-83.5996 12.4609-74.7822 12.4609-60.5334L12.4609-9.86274C12.4609 4.38612 21.2783 13.2035 35.5217 13.2035ZM38.1476-4.13991C32.9731-4.13991 29.7989-7.30867 29.7989-12.4886L29.7989-57.9075C29.7989-63.0874 32.9731-66.2562 38.1476-66.2562L104.703-66.2562C109.883-66.2562 113.052-63.0874 113.052-57.9075L113.052-12.4886C113.052-7.30867 109.883-4.13991 104.703-4.13991ZM48.1834-49.4457C51.0689-49.4457 53.3055-51.6304 53.3055-54.2252C53.3055-56.8203 51.0689-59.0511 48.1834-59.0511L40.1891-59.0511C37.3091-59.0511 35.0728-56.8203 35.0728-54.2252C35.0728-51.6304 37.3091-49.4457 40.1891-49.4457ZM48.1834-34.4199C51.0689-34.4199 53.3055-36.5991 53.3055-39.1997C53.3055-41.7945 51.0689-43.9683 48.1834-43.9683L40.1891-43.9683C37.3091-43.9683 35.0728-41.7945 35.0728-39.1997C35.0728-36.5991 37.3091-34.4199 40.1891-34.4199ZM48.1834-19.3368C51.0689-19.3368 53.3055-21.5734 53.3055-24.1682C53.3055-26.763 51.0689-28.937 48.1834-28.937L40.1891-28.937C37.3091-28.937 35.0728-26.763 35.0728-24.1682C35.0728-21.5734 37.3091-19.3368 40.1891-19.3368Z"/>
  </g>
  <g id="Heavy-M" transform="matrix(1 0 0 1 2565.6 1126)">
   <path d="M56.454-1.06598L70.1957-1.06598L70.1957-69.8231L56.454-69.8231ZM34.9406 12.3878L107.632 12.3878C121.349 12.3878 129.72 3.88776 129.72-10.1083L129.72-60.293C129.72-74.289 121.349-82.789 107.632-82.789L34.9406-82.789C20.961-82.789 12.4609-74.289 12.4609-60.293L12.4609-10.1083C12.4609 3.88776 20.961 12.3878 34.9406 12.3878ZM36.9517-2.72824C31.0914-2.72824 27.5605-6.24271 27.5605-12.1194L27.5605-58.2818C27.5605-64.1585 31.0914-67.673 36.9517-67.673L105.229-67.673C111.106-67.673 114.62-64.1585 114.62-58.2818L114.62-12.1194C114.62-6.24271 111.106-2.72824 105.229-2.72824ZM46.3089-50.5507C48.8731-50.5507 50.8827-52.5353 50.8827-54.8627C50.8827-57.1878 48.8731-59.1833 46.3089-59.1833L37.7384-59.1833C35.1906-59.1833 33.1788-57.1878 33.1788-54.8627C33.1788-52.5353 35.1906-50.5507 37.7384-50.5507ZM46.3089-36.0904C48.8731-36.0904 50.8827-38.0586 50.8827-40.4001C50.8827-42.7275 48.8731-44.6794 46.3089-44.6794L37.7384-44.6794C35.1906-44.6794 33.1788-42.7275 33.1788-40.4001C33.1788-38.0586 35.1906-36.0904 37.7384-36.0904ZM46.3089-21.5887C48.8731-21.5887 50.8827-23.5983 50.8827-25.9257C50.8827-28.2531 48.8731-30.2027 46.3089-30.2027L37.7384-30.2027C35.1906-30.2027 33.1788-28.2531 33.1788-25.9257C33.1788-23.5983 35.1906-21.5887 37.7384-21.5887Z"/>
  </g>
  <g id="Bold-M" transform="matrix(1 0 0 1 2269.26 1126)">
   <path d="M54.0952 0.47963L65.7485 0.47963L65.7485-71.1741L54.0952-71.1741ZM34.2905 11.4753L107.823 11.4753C121.049 11.4753 128.97 3.33027 128.97-10.3829L128.97-60.024C128.97-73.7372 121.049-81.8822 107.823-81.8822L34.2905-81.8822C20.6059-81.8822 12.4609-73.7372 12.4609-60.024L12.4609-10.3829C12.4609 3.33027 20.6059 11.4753 34.2905 11.4753ZM35.614-1.14908C28.9865-1.14908 25.0566-5.05028 25.0566-11.7064L25.0566-58.7006C25.0566-65.3567 28.9865-69.2579 35.614-69.2579L105.817-69.2579C112.474-69.2579 116.375-65.3567 116.375-58.7006L116.375-11.7064C116.375-5.05028 112.474-1.14908 105.817-1.14908ZM44.2121-51.7868C46.4168-51.7868 48.1725-53.5476 48.1725-55.5759C48.1725-57.599 46.4168-59.3312 44.2121-59.3312L34.9969-59.3312C32.8208-59.3312 31.06-57.599 31.06-55.5759C31.06-53.5476 32.8208-51.7868 34.9969-51.7868ZM44.2121-37.959C46.4168-37.959 48.1725-39.6913 48.1725-41.743C48.1725-43.7712 46.4168-45.4749 44.2121-45.4749L34.9969-45.4749C32.8208-45.4749 31.06-43.7712 31.06-41.743C31.06-39.6913 32.8208-37.959 34.9969-37.959ZM44.2121-24.1079C46.4168-24.1079 48.1725-25.8635 48.1725-27.8918C48.1725-29.92 46.4168-31.6185 44.2121-31.6185L34.9969-31.6185C32.8208-31.6185 31.06-29.92 31.06-27.8918C31.06-25.8635 32.8208-24.1079 34.9969-24.1079Z"/>
  </g>
  <g id="Semibold-M" transform="matrix(1 0 0 1 1972.81 1126)">
   <path d="M52.469 1.54517L62.6827 1.54517L62.6827-72.1054L52.469-72.1054ZM33.8423 10.8462L107.954 10.8462C120.843 10.8462 128.454 2.94594 128.454-10.5722L128.454-59.8387C128.454-73.3568 120.843-81.2571 107.954-81.2571L33.8423-81.2571C20.3612-81.2571 12.4609-73.3568 12.4609-59.8387L12.4609-10.5722C12.4609 2.94594 20.3612 10.8462 33.8423 10.8462ZM34.6917-0.0604106C27.5353-0.0604106 23.3305-4.22823 23.3305-11.4217L23.3305-58.9892C23.3305-66.1827 27.5353-70.3505 34.6917-70.3505L106.223-70.3505C113.416-70.3505 117.584-66.1827 117.584-58.9892L117.584-11.4217C117.584-4.22823 113.416-0.0604106 106.223-0.0604106ZM42.7666-52.6389C44.7235-52.6389 46.3041-54.2455 46.3041-56.0675C46.3041-57.8824 44.7235-59.4331 42.7666-59.4331L33.107-59.4331C31.1871-59.4331 29.5994-57.8824 29.5994-56.0675C29.5994-54.2455 31.1871-52.6389 33.107-52.6389ZM42.7666-39.2473C44.7235-39.2473 46.3041-40.8168 46.3041-42.6688C46.3041-44.4907 44.7235-46.0233 42.7666-46.0233L33.107-46.0233C31.1871-46.0233 29.5994-44.4907 29.5994-42.6688C29.5994-40.8168 31.1871-39.2473 33.107-39.2473ZM42.7666-25.8445C44.7235-25.8445 46.3041-27.4251 46.3041-29.2471C46.3041-31.0691 44.7235-32.5945 42.7666-32.5945L33.107-32.5945C31.1871-32.5945 29.5994-31.0691 29.5994-29.2471C29.5994-27.4251 31.1871-25.8445 33.107-25.8445Z"/>
  </g>
  <g id="Medium-M" transform="matrix(1 0 0 1 1676.29 1126)">
   <path d="M51.236 2.3531L60.3581 2.3531L60.3581-72.8116L51.236-72.8116ZM33.5025 10.3692L108.054 10.3692C120.686 10.3692 128.062 2.65453 128.062-10.7158L128.062-59.6981C128.062-73.0684 120.686-80.783 108.054-80.783L33.5025-80.783C20.1756-80.783 12.4609-73.0684 12.4609-59.6981L12.4609-10.7158C12.4609 2.65453 20.1756 10.3692 33.5025 10.3692ZM33.9924 0.76506C26.435 0.76506 22.0216-3.60491 22.0216-11.2058L22.0216-59.2081C22.0216-66.809 26.435-71.1789 33.9924-71.1789L106.53-71.1789C114.131-71.1789 118.501-66.809 118.501-59.2081L118.501-11.2058C118.501-3.60491 114.131 0.76506 106.53 0.76506ZM41.6705-53.2851C43.4395-53.2851 44.8874-54.7747 44.8874-56.4403C44.8874-58.0974 43.4395-59.5104 41.6705-59.5104L31.674-59.5104C29.9484-59.5104 28.4919-58.0974 28.4919-56.4403C28.4919-54.7747 29.9484-53.2851 31.674-53.2851ZM41.6705-40.224C43.4395-40.224 44.8874-41.6702 44.8874-43.3707C44.8874-45.0363 43.4395-46.4391 41.6705-46.4391L31.674-46.4391C29.9484-46.4391 28.4919-45.0363 28.4919-43.3707C28.4919-41.6702 29.9484-40.224 31.674-40.224ZM41.6705-27.1613C43.4395-27.1613 44.8874-28.6092 44.8874-30.2748C44.8874-31.9405 43.4395-33.3346 41.6705-33.3346L31.674-33.3346C29.9484-33.3346 28.4919-31.9405 28.4919-30.2748C28.4919-28.6092 29.9484-27.1613 31.674-27.1613Z"/>
  </g>
  <g id="Regular-M" transform="matrix(1 0 0 1 1379.84 1126)">
   <path d="M49.6277 3.40693L57.3259 3.40693L57.3259-73.7328L49.6277-73.7328ZM33.0592 9.74698L108.184 9.74698C120.482 9.74698 127.551 2.27442 127.551-10.9031L127.551-59.5147C127.551-72.6922 120.482-80.1648 108.184-80.1648L33.0592-80.1648C19.9335-80.1648 12.4609-72.6922 12.4609-59.5147L12.4609-10.9031C12.4609 2.27442 19.9335 9.74698 33.0592 9.74698ZM33.0803 1.84176C24.9998 1.84176 20.3144-2.79189 20.3144-10.9242L20.3144-59.4936C20.3144-67.6259 24.9998-72.2595 33.0803-72.2595L106.931-72.2595C115.064-72.2595 119.697-67.6259 119.697-59.4936L119.697-10.9242C119.697-2.79189 115.064 1.84176 106.931 1.84176ZM40.2408-54.1279C41.7648-54.1279 43.0395-55.4649 43.0395-56.9266C43.0395-58.3777 41.7648-59.6112 40.2408-59.6112L29.8048-59.6112C28.3326-59.6112 27.0473-58.3777 27.0473-56.9266C27.0473-55.4649 28.3326-54.1279 29.8048-54.1279ZM40.2408-41.4981C41.7648-41.4981 43.0395-42.7834 43.0395-44.2863C43.0395-45.7479 41.7648-46.9815 40.2408-46.9815L29.8048-46.9815C28.3326-46.9815 27.0473-45.7479 27.0473-44.2863C27.0473-42.7834 28.3326-41.4981 29.8048-41.4981ZM40.2408-28.8789C41.7648-28.8789 43.0395-30.1537 43.0395-31.6153C43.0395-33.077 41.7648-34.3 40.2408-34.3L29.8048-34.3C28.3326-34.3 27.0473-33.077 27.0473-31.6153C27.0473-30.1537 28.3326-28.8789 29.8048-28.8789Z"/>
  </g>
  <g id="Light-M" transform="matrix(1 0 0 1 1083.52 1126)">
   <path d="M48.7722 4.17692L54.708 4.17692L54.708-74.691L48.7722-74.691ZM31.6048 8.97699L108.424 8.97699C119.951 8.97699 126.764 1.91509 126.764-10.2015L126.764-60.2505C126.764-72.3671 119.951-79.429 108.424-79.429L31.6048-79.429C19.5228-79.429 12.4609-72.3671 12.4609-60.2505L12.4609-10.2015C12.4609 1.91509 19.5228 8.97699 31.6048 8.97699ZM31.6601 2.90264C23.4085 2.90264 18.5006-1.97056 18.5006-10.2568L18.5006-60.1952C18.5006-68.4814 23.4085-73.3546 31.6601-73.3546L107.565-73.3546C115.851-73.3546 120.724-68.4814 120.724-60.1952L120.724-10.2568C120.724-1.97056 115.851 2.90264 107.565 2.90264ZM39.4195-55.1203C40.6868-55.1203 41.7049-56.2007 41.7049-57.4057C41.7049-58.583 40.6868-59.5941 39.4195-59.5941L27.9226-59.5941C26.69-59.5941 25.6442-58.583 25.6442-57.4057C25.6442-56.2007 26.69-55.1203 27.9226-55.1203ZM39.4195-42.2168C40.6868-42.2168 41.7049-43.2625 41.7049-44.4745C41.7049-45.6795 40.6868-46.6906 39.4195-46.6906L27.9226-46.6906C26.69-46.6906 25.6442-45.6795 25.6442-44.4745C25.6442-43.2625 26.69-42.2168 27.9226-42.2168ZM39.4195-29.3409C40.6868-29.3409 41.7049-30.359 41.7049-31.564C41.7049-32.769 40.6868-33.7524 39.4195-33.7524L27.9226-33.7524C26.69-33.7524 25.6442-32.769 25.6442-31.564C25.6442-30.359 26.69-29.3409 27.9226-29.3409Z"/>
  </g>
  <g id="Thin-M" transform="matrix(1 0 0 1 787.33 1126)">
   <path d="M47.6406 5.19529L51.2455 5.19529L51.2455-75.9583L47.6406-75.9583ZM29.6812 7.95861L108.74 7.95861C119.25 7.95861 125.723 1.43985 125.723-9.27365L125.723-61.2236C125.723-71.9371 119.25-78.4559 108.74-78.4559L29.6812-78.4559C18.9797-78.4559 12.4609-71.9371 12.4609-61.2236L12.4609-9.27365C12.4609 1.43985 18.9797 7.95861 29.6812 7.95861ZM29.7818 4.30574C21.3038 4.30574 16.1018-0.884296 16.1018-9.37423L16.1018-61.123C16.1018-69.613 21.3038-74.803 29.7818-74.803L108.402-74.803C116.892-74.803 122.082-69.613 122.082-61.123L122.082-9.37423C122.082-0.884296 116.892 4.30574 108.402 4.30574ZM38.3332-56.4329C39.2611-56.4329 39.9397-57.1738 39.9397-58.0393C39.9397-58.8546 39.2611-59.5715 38.3332-59.5715L25.4332-59.5715C24.5174-59.5715 23.7885-58.8546 23.7885-58.0393C23.7885-57.1738 24.5174-56.4329 25.4332-56.4329ZM38.3332-43.1673C39.2611-43.1673 39.9397-43.8962 39.9397-44.7234C39.9397-45.589 39.2611-46.3059 38.3332-46.3059L25.4332-46.3059C24.5174-46.3059 23.7885-45.589 23.7885-44.7234C23.7885-43.8962 24.5174-43.1673 25.4332-43.1673ZM38.3332-29.9519C39.2611-29.9519 39.9397-30.6306 39.9397-31.4961C39.9397-32.3616 39.2611-33.0282 38.3332-33.0282L25.4332-33.0282C24.5174-33.0282 23.7885-32.3616 23.7885-31.4961C23.7885-30.6306 24.5174-29.9519 25.4332-29.9519Z"/>
  </g>
  <g id="Ultralight-M" transform="matrix(1 0 0 1 490.886 1126)">
   <path d="M47.0611 5.7169L49.472 5.7169L49.472-76.6074L47.0611-76.6074ZM28.6959 7.437L108.903 7.437C118.89 7.437 125.189 1.19644 125.189-8.79841L125.189-61.722C125.189-71.7169 118.89-77.9575 108.903-77.9575L28.6959-77.9575C18.7015-77.9575 12.4609-71.7169 12.4609-61.722L12.4609-8.79841C12.4609 1.19644 18.7015 7.437 28.6959 7.437ZM28.8197 5.0244C20.2259 5.0244 14.8731-0.327915 14.8731-8.92217L14.8731-61.5983C14.8731-70.1925 20.2259-75.5448 28.8197-75.5448L108.831-75.5448C117.425-75.5448 122.777-70.1925 122.777-61.5983L122.777-8.92217C122.777-0.327915 117.425 5.0244 108.831 5.0244ZM37.7768-57.1052C38.5308-57.1052 39.0356-57.6722 39.0356-58.3639C39.0356-58.9937 38.5308-59.5599 37.7768-59.5599L24.1582-59.5599C23.4047-59.5599 22.838-58.9937 22.838-58.3639C22.838-57.6722 23.4047-57.1052 24.1582-57.1052ZM37.7768-43.6541C38.5308-43.6541 39.0356-44.2207 39.0356-44.8509C39.0356-45.5426 38.5308-46.1088 37.7768-46.1088L24.1582-46.1088C23.4047-46.1088 22.838-45.5426 22.838-44.8509C22.838-44.2207 23.4047-43.6541 24.1582-43.6541ZM37.7768-30.2649C38.5308-30.2649 39.0356-30.7697 39.0356-31.4613C39.0356-32.153 38.5308-32.6573 37.7768-32.6573L24.1582-32.6573C23.4047-32.6573 22.838-32.153 22.838-31.4613C22.838-30.7697 23.4047-30.2649 24.1582-30.2649Z"/>
  </g>
  <g id="Black-S" transform="matrix(1 0 0 1 2877.35 696)">
   <path d="M46.4844-9.91211L59.1797-9.91211L59.1797-61.084L46.4844-61.084ZM27.9297 2.92969L84.1797 2.92969C95.3613 2.92969 102.344-4.05273 102.344-15.2344L102.344-55.1758C102.344-66.3574 95.3613-73.3398 84.1797-73.3398L27.9297-73.3398C16.748-73.3398 9.76562-66.3574 9.76562-55.1758L9.76562-15.2344C9.76562-4.05273 16.748 2.92969 27.9297 2.92969ZM30.1758-11.2305C26.3184-11.2305 23.9258-13.623 23.9258-17.4805L23.9258-52.9297C23.9258-56.7871 26.3184-59.1797 30.1758-59.1797L81.9336-59.1797C85.791-59.1797 88.1836-56.7871 88.1836-52.9297L88.1836-17.4805C88.1836-13.623 85.791-11.2305 81.9336-11.2305ZM38.2812-46.0938C40.625-46.0938 42.4316-47.8516 42.4316-49.9512C42.4316-52.0508 40.625-53.8574 38.2812-53.8574L32.1289-53.8574C29.7852-53.8574 27.9785-52.0508 27.9785-49.9512C27.9785-47.8516 29.7852-46.0938 32.1289-46.0938ZM38.2812-34.1309C40.625-34.1309 42.4316-35.8887 42.4316-37.9883C42.4316-40.0879 40.625-41.8457 38.2812-41.8457L32.1289-41.8457C29.7852-41.8457 27.9785-40.0879 27.9785-37.9883C27.9785-35.8887 29.7852-34.1309 32.1289-34.1309ZM38.2812-22.1191C40.625-22.1191 42.4316-23.9258 42.4316-26.0254C42.4316-28.125 40.625-29.8828 38.2812-29.8828L32.1289-29.8828C29.7852-29.8828 27.9785-28.125 27.9785-26.0254C27.9785-23.9258 29.7852-22.1191 32.1289-22.1191Z"/>
  </g>
  <g id="Heavy-S" transform="matrix(1 0 0 1 2580.87 696)">
   <path d="M44.7903-8.82881L56.1142-8.82881L56.1142-61.9944L44.7903-61.9944ZM27.6185 2.33042L84.2949 2.33042C95.2 2.33042 101.871-4.43304 101.871-15.534L101.871-54.8761C101.871-65.9771 95.2-72.7406 84.2949-72.7406L27.6185-72.7406C16.5291-72.7406 9.76562-65.9771 9.76562-54.8761L9.76562-15.534C9.76562-4.43304 16.5291 2.33042 27.6185 2.33042ZM29.3345-10.1587C24.9124-10.1587 22.2432-12.8163 22.2432-17.25L22.2432-53.1602C22.2432-57.5938 24.9124-60.2515 29.3345-60.2515L82.3024-60.2515C86.736-60.2515 89.3937-57.5938 89.3937-53.1602L89.3937-17.25C89.3937-12.8163 86.736-10.1587 82.3024-10.1587ZM36.7831-46.912C38.8848-46.912 40.5301-48.5315 40.5301-50.4352C40.5301-52.3389 38.8848-53.9727 36.7831-53.9727L30.2735-53.9727C28.1833-53.9727 26.538-52.3389 26.538-50.4352C26.538-48.5315 28.1833-46.912 30.2735-46.912ZM36.7831-35.4677C38.8848-35.4677 40.5301-37.0757 40.5301-38.9909C40.5301-40.8946 38.8848-42.4911 36.7831-42.4911L30.2735-42.4911C28.1833-42.4911 26.538-40.8946 26.538-38.9909C26.538-37.0757 28.1833-35.4677 30.2735-35.4677ZM36.7831-23.9861C38.8848-23.9861 40.5301-25.6314 40.5301-27.5351C40.5301-29.4388 38.8848-31.0353 36.7831-31.0353L30.2735-31.0353C28.1833-31.0353 26.538-29.4388 26.538-27.5351C26.538-25.6314 28.1833-23.9861 30.2735-23.9861Z"/>
  </g>
  <g id="Bold-S" transform="matrix(1 0 0 1 2284.42 696)">
   <path d="M42.8955-7.61719L52.6855-7.61719L52.6855-63.0127L42.8955-63.0127ZM27.2705 1.66016L84.4238 1.66016C95.0195 1.66016 101.343-4.8584 101.343-15.8691L101.343-54.541C101.343-65.5518 95.0195-72.0703 84.4238-72.0703L27.2705-72.0703C16.2842-72.0703 9.76562-65.5518 9.76562-54.541L9.76562-15.8691C9.76562-4.8584 16.2842 1.66016 27.2705 1.66016ZM28.3936-8.95996C23.3398-8.95996 20.3613-11.9141 20.3613-16.9922L20.3613-53.418C20.3613-58.4961 23.3398-61.4502 28.3936-61.4502L82.7148-61.4502C87.793-61.4502 90.7471-58.4961 90.7471-53.418L90.7471-16.9922C90.7471-11.9141 87.793-8.95996 82.7148-8.95996ZM35.1074-47.8271C36.9385-47.8271 38.4033-49.292 38.4033-50.9766C38.4033-52.6611 36.9385-54.1016 35.1074-54.1016L28.1982-54.1016C26.3916-54.1016 24.9268-52.6611 24.9268-50.9766C24.9268-49.292 26.3916-47.8271 28.1982-47.8271ZM35.1074-36.9629C36.9385-36.9629 38.4033-38.4033 38.4033-40.1123C38.4033-41.7969 36.9385-43.2129 35.1074-43.2129L28.1982-43.2129C26.3916-43.2129 24.9268-41.7969 24.9268-40.1123C24.9268-38.4033 26.3916-36.9629 28.1982-36.9629ZM35.1074-26.0742C36.9385-26.0742 38.4033-27.5391 38.4033-29.2236C38.4033-30.9082 36.9385-32.3242 35.1074-32.3242L28.1982-32.3242C26.3916-32.3242 24.9268-30.9082 24.9268-29.2236C24.9268-27.5391 26.3916-26.0742 28.1982-26.0742Z"/>
  </g>
  <g id="Semibold-S" transform="matrix(1 0 0 1 1987.89 696)">
   <path d="M41.5892-6.78184L50.3217-6.78184L50.3217-63.7147L41.5892-63.7147ZM27.0306 1.19805L84.5127 1.19805C94.8951 1.19805 100.978-5.15166 100.978-16.1002L100.978-54.31C100.978-65.2585 94.8951-71.6082 84.5127-71.6082L27.0306-71.6082C16.1153-71.6082 9.76562-65.2585 9.76562-54.31L9.76562-16.1002C9.76562-5.15166 16.1153 1.19805 27.0306 1.19805ZM27.7448-8.1335C22.2557-8.1335 19.0639-11.292 19.0639-16.8145L19.0639-53.5957C19.0639-59.1182 22.2557-62.2767 27.7448-62.2767L82.9992-62.2767C88.5217-62.2767 91.6802-59.1182 91.6802-53.5957L91.6802-16.8145C91.6802-11.292 88.5217-8.1335 82.9992-8.1335ZM33.9521-48.4581C35.5966-48.4581 36.937-49.8163 36.937-51.3498C36.937-52.8833 35.5966-54.1904 33.9521-54.1904L26.7675-54.1904C25.1563-54.1904 23.8159-52.8833 23.8159-51.3498C23.8159-49.8163 25.1563-48.4581 26.7675-48.4581ZM33.9521-37.9937C35.5966-37.9937 36.937-39.3187 36.937-40.8854C36.937-42.4189 35.5966-43.7105 33.9521-43.7105L26.7675-43.7105C25.1563-43.7105 23.8159-42.4189 23.8159-40.8854C23.8159-39.3187 25.1563-37.9937 26.7675-37.9937ZM33.9521-27.5139C35.5966-27.5139 36.937-28.8543 36.937-30.3878C36.937-31.9213 35.5966-33.2129 33.9521-33.2129L26.7675-33.2129C25.1563-33.2129 23.8159-31.9213 23.8159-30.3878C23.8159-28.8543 25.1563-27.5139 26.7675-27.5139Z"/>
  </g>
  <g id="Medium-S" transform="matrix(1 0 0 1 1691.32 696)">
   <path d="M40.5986-6.14844L48.5293-6.14844L48.5293-64.2471L40.5986-64.2471ZM26.8486 0.847656L84.5801 0.847656C94.8008 0.847656 100.702-5.37402 100.702-16.2754L100.702-54.1348C100.702-65.0361 94.8008-71.2578 84.5801-71.2578L26.8486-71.2578C15.9873-71.2578 9.76562-65.0361 9.76562-54.1348L9.76562-16.2754C9.76562-5.37402 15.9873 0.847656 26.8486 0.847656ZM27.2529-7.50684C21.4336-7.50684 18.0801-10.8203 18.0801-16.6797L18.0801-53.7305C18.0801-59.5898 21.4336-62.9033 27.2529-62.9033L83.2148-62.9033C89.0742-62.9033 92.3877-59.5898 92.3877-53.7305L92.3877-16.6797C92.3877-10.8203 89.0742-7.50684 83.2148-7.50684ZM33.0762-48.9365C34.5791-48.9365 35.8252-50.2139 35.8252-51.6328C35.8252-53.0518 34.5791-54.2578 33.0762-54.2578L25.6826-54.2578C24.2197-54.2578 22.9736-53.0518 22.9736-51.6328C22.9736-50.2139 24.2197-48.9365 25.6826-48.9365ZM33.0762-38.7754C34.5791-38.7754 35.8252-40.0127 35.8252-41.4717C35.8252-42.8906 34.5791-44.0879 33.0762-44.0879L25.6826-44.0879C24.2197-44.0879 22.9736-42.8906 22.9736-41.4717C22.9736-40.0127 24.2197-38.7754 25.6826-38.7754ZM33.0762-28.6055C34.5791-28.6055 35.8252-29.8516 35.8252-31.2705C35.8252-32.6895 34.5791-33.8867 33.0762-33.8867L25.6826-33.8867C24.2197-33.8867 22.9736-32.6895 22.9736-31.2705C22.9736-29.8516 24.2197-28.6055 25.6826-28.6055Z"/>
  </g>
  <g id="Regular-S" transform="matrix(1 0 0 1 1394.79 696)">
   <path d="M39.3066-5.32227L46.1914-5.32227L46.1914-64.9414L39.3066-64.9414ZM26.6113 0.390625L84.668 0.390625C94.6777 0.390625 100.342-5.66406 100.342-16.5039L100.342-53.9062C100.342-64.7461 94.6777-70.8008 84.668-70.8008L26.6113-70.8008C15.8203-70.8008 9.76562-64.7461 9.76562-53.9062L9.76562-16.5039C9.76562-5.66406 15.8203 0.390625 26.6113 0.390625ZM26.6113-6.68945C20.3613-6.68945 16.7969-10.2051 16.7969-16.5039L16.7969-53.9062C16.7969-60.2051 20.3613-63.7207 26.6113-63.7207L83.4961-63.7207C89.7949-63.7207 93.3105-60.2051 93.3105-53.9062L93.3105-16.5039C93.3105-10.2051 89.7949-6.68945 83.4961-6.68945ZM31.9336-49.5605C33.252-49.5605 34.375-50.7324 34.375-52.002C34.375-53.2715 33.252-54.3457 31.9336-54.3457L24.2676-54.3457C22.998-54.3457 21.875-53.2715 21.875-52.002C21.875-50.7324 22.998-49.5605 24.2676-49.5605ZM31.9336-39.7949C33.252-39.7949 34.375-40.918 34.375-42.2363C34.375-43.5059 33.252-44.5801 31.9336-44.5801L24.2676-44.5801C22.998-44.5801 21.875-43.5059 21.875-42.2363C21.875-40.918 22.998-39.7949 24.2676-39.7949ZM31.9336-30.0293C33.252-30.0293 34.375-31.1523 34.375-32.4219C34.375-33.6914 33.252-34.7656 31.9336-34.7656L24.2676-34.7656C22.998-34.7656 21.875-33.6914 21.875-32.4219C21.875-31.1523 22.998-30.0293 24.2676-30.0293Z"/>
  </g>
  <g id="Light-S" transform="matrix(1 0 0 1 1098.43 696)">
   <path d="M38.5498-4.64112L43.8755-4.64112L43.8755-65.7891L38.5498-65.7891ZM25.3247-0.290522L84.8799-0.290522C94.2085-0.290522 99.6455-5.98193 99.6455-15.8833L99.6455-54.5571C99.6455-64.4585 94.2085-70.1499 84.8799-70.1499L25.3247-70.1499C15.457-70.1499 9.76562-64.4585 9.76562-54.5571L9.76562-15.8833C9.76562-5.98193 15.457-0.290522 25.3247-0.290522ZM25.355-5.75098C18.9536-5.75098 15.1924-9.47852 15.1924-15.9136L15.1924-54.5269C15.1924-60.9619 18.9536-64.6894 25.355-64.6894L84.0561-64.6894C90.4912-64.6894 94.2187-60.9619 94.2187-54.5269L94.2187-15.9136C94.2187-9.47852 90.4912-5.75098 84.0561-5.75098ZM31.207-50.4385C32.2983-50.4385 33.1943-51.3833 33.1943-52.4258C33.1943-53.4531 32.2983-54.3306 31.207-54.3306L22.6026-54.3306C21.5449-54.3306 20.6338-53.4531 20.6338-52.4258C20.6338-51.3833 21.5449-50.4385 22.6026-50.4385ZM31.207-40.4307C32.2983-40.4307 33.1943-41.3418 33.1943-42.4028C33.1943-43.4453 32.2983-44.3228 31.207-44.3228L22.6026-44.3228C21.5449-44.3228 20.6338-43.4453 20.6338-42.4028C20.6338-41.3418 21.5449-40.4307 22.6026-40.4307ZM31.207-30.438C32.2983-30.438 33.1943-31.334 33.1943-32.3765C33.1943-33.4189 32.2983-34.2813 31.207-34.2813L22.6026-34.2813C21.5449-34.2813 20.6338-33.4189 20.6338-32.3765C20.6338-31.334 21.5449-30.438 22.6026-30.438Z"/>
  </g>
  <g id="Thin-S" transform="matrix(1 0 0 1 802.177 696)">
   <path d="M37.5488-3.74025L40.8125-3.74025L40.8125-66.9101L37.5488-66.9101ZM23.6231-1.19139L85.1602-1.19139C93.5879-1.19139 98.7246-6.40234 98.7246-15.0625L98.7246-55.418C98.7246-64.0781 93.5879-69.2891 85.1602-69.2891L23.6231-69.2891C14.9766-69.2891 9.76562-64.0781 9.76562-55.418L9.76562-15.0625C9.76562-6.40234 14.9766-1.19139 23.6231-1.19139ZM23.6934-4.50978C17.0918-4.50978 13.0703-8.51759 13.0703-15.1328L13.0703-55.3476C13.0703-61.9629 17.0918-65.9707 23.6934-65.9707L84.7969-65.9707C91.4121-65.9707 95.4199-61.9629 95.4199-55.3476L95.4199-15.1328C95.4199-8.51759 91.4121-4.50978 84.7969-4.50978ZM30.2461-51.5996C31.0371-51.5996 31.6328-52.2441 31.6328-52.9863C31.6328-53.6934 31.0371-54.3105 30.2461-54.3105L20.4004-54.3105C19.6231-54.3105 18.9922-53.6934 18.9922-52.9863C18.9922-52.2441 19.6231-51.5996 20.4004-51.5996ZM30.2461-41.2715C31.0371-41.2715 31.6328-41.9023 31.6328-42.623C31.6328-43.3652 31.0371-43.9824 30.2461-43.9824L20.4004-43.9824C19.6231-43.9824 18.9922-43.3652 18.9922-42.623C18.9922-41.9023 19.6231-41.2715 20.4004-41.2715ZM30.2461-30.9785C31.0371-30.9785 31.6328-31.5742 31.6328-32.3164C31.6328-33.0586 31.0371-33.6406 30.2461-33.6406L20.4004-33.6406C19.6231-33.6406 18.9922-33.0586 18.9922-32.3164C18.9922-31.5742 19.6231-30.9785 20.4004-30.9785Z"/>
  </g>
  <g id="Ultralight-S" transform="matrix(1 0 0 1 505.702 696)">
   <path d="M37.0362-3.27882L39.2437-3.27882L39.2437-67.4844L37.0362-67.4844ZM22.7515-1.65282L85.3037-1.65282C93.27-1.65282 98.2529-6.61767 98.2529-14.6421L98.2529-55.8589C98.2529-63.8833 93.27-68.8482 85.3037-68.8482L22.7515-68.8482C14.7305-68.8482 9.76562-63.8833 9.76562-55.8589L9.76562-14.6421C9.76562-6.61767 14.7305-1.65282 22.7515-1.65282ZM22.8423-3.87405C16.1382-3.87405 11.9834-8.02541 11.9834-14.7329L11.9834-55.7681C11.9834-62.4756 16.1382-66.6269 22.8423-66.6269L85.1763-66.6269C91.8838-66.6269 96.0351-62.4756 96.0351-55.7681L96.0351-14.7329C96.0351-8.02541 91.8838-3.87405 85.1763-3.87405ZM29.7539-52.1943C30.3911-52.1943 30.833-52.685 30.833-53.2734C30.833-53.8164 30.3911-54.3003 29.7539-54.3003L19.2725-54.3003C18.6387-54.3003 18.1514-53.8164 18.1514-53.2734C18.1514-52.685 18.6387-52.1943 19.2725-52.1943ZM29.7539-41.7021C30.3911-41.7021 30.833-42.1894 30.833-42.7358C30.833-43.3242 30.3911-43.8081 29.7539-43.8081L19.2725-43.8081C18.6387-43.8081 18.1514-43.3242 18.1514-42.7358C18.1514-42.1894 18.6387-41.7021 19.2725-41.7021ZM29.7539-31.2554C30.3911-31.2554 30.833-31.6973 30.833-32.2856C30.833-32.874 30.3911-33.3125 29.7539-33.3125L19.2725-33.3125C18.6387-33.3125 18.1514-32.874 18.1514-32.2856C18.1514-31.6973 18.6387-31.2554 19.2725-31.2554Z"/>
  </g>
 </g>
</svg>
