<?xml version="1.0" encoding="UTF-8"?>
<!--Generator: Apple Native CoreSVG 341-->
<!DOCTYPE svg
PUBLIC "-//W3C//DTD SVG 1.1//EN"
       "http://www.w3.org/Graphics/SVG/1.1/DTD/svg11.dtd">
<svg version="1.1" xmlns="http://www.w3.org/2000/svg" xmlns:xlink="http://www.w3.org/1999/xlink" viewBox="0 0 3300 2200">
 <g id="Notes">
  <rect height="2200" id="artboard" style="fill:white;opacity:1" width="3300" x="0" y="0"/>
  <line style="fill:none;stroke:black;opacity:1;stroke-width:0.5;" x1="263" x2="3036" y1="292" y2="292"/>
  <text style="stroke:none;fill:black;font-family:sans-serif;font-size:13;font-weight:bold;" transform="matrix(1 0 0 1 263 322)">Weight/Scale Variations</text>
  <text style="stroke:none;fill:black;font-family:sans-serif;font-size:13;text-anchor:middle;" transform="matrix(1 0 0 1 559.711 322)">Ultralight</text>
  <text style="stroke:none;fill:black;font-family:sans-serif;font-size:13;text-anchor:middle;" transform="matrix(1 0 0 1 856.422 322)">Thin</text>
  <text style="stroke:none;fill:black;font-family:sans-serif;font-size:13;text-anchor:middle;" transform="matrix(1 0 0 1 1153.13 322)">Light</text>
  <text style="stroke:none;fill:black;font-family:sans-serif;font-size:13;text-anchor:middle;" transform="matrix(1 0 0 1 1449.84 322)">Regular</text>
  <text style="stroke:none;fill:black;font-family:sans-serif;font-size:13;text-anchor:middle;" transform="matrix(1 0 0 1 1746.56 322)">Medium</text>
  <text style="stroke:none;fill:black;font-family:sans-serif;font-size:13;text-anchor:middle;" transform="matrix(1 0 0 1 2043.27 322)">Semibold</text>
  <text style="stroke:none;fill:black;font-family:sans-serif;font-size:13;text-anchor:middle;" transform="matrix(1 0 0 1 2339.98 322)">Bold</text>
  <text style="stroke:none;fill:black;font-family:sans-serif;font-size:13;text-anchor:middle;" transform="matrix(1 0 0 1 2636.69 322)">Heavy</text>
  <text style="stroke:none;fill:black;font-family:sans-serif;font-size:13;text-anchor:middle;" transform="matrix(1 0 0 1 2933.4 322)">Black</text>
  <line style="fill:none;stroke:black;opacity:1;stroke-width:0.5;" x1="263" x2="3036" y1="1903" y2="1903"/>
  <g transform="matrix(0.2 0 0 0.2 263 1933)">
   <path d="m46.2402 4.15039c21.7773 0 39.4531-17.627 39.4531-39.4043s-17.6758-39.4043-39.4531-39.4043c-21.7285 0-39.4043 17.627-39.4043 39.4043s17.6758 39.4043 39.4043 39.4043Zm0-7.42188c-17.6758 0-31.9336-14.3066-31.9336-31.9824s14.2578-31.9824 31.9336-31.9824 31.9824 14.3066 31.9824 31.9824-14.3066 31.9824-31.9824 31.9824Zm3.61328-17.7734v-28.4668c0-2.24609-1.46484-3.75977-3.71094-3.75977-2.14844 0-3.61328 1.51367-3.61328 3.75977v28.4668c0 2.19727 1.46484 3.71094 3.61328 3.71094 2.24609 0 3.71094-1.51367 3.71094-3.71094Zm-17.8223-10.5957h28.418c2.19727 0 3.71094-1.46484 3.71094-3.61328 0-2.19727-1.51367-3.71094-3.71094-3.71094h-28.418c-2.24609 0-3.75977 1.51367-3.75977 3.71094 0 2.14844 1.51367 3.61328 3.75977 3.61328Z"/>
  </g>
  <g transform="matrix(0.2 0 0 0.2 281.506 1933)">
   <path d="m58.5449 14.5508c27.4902 0 49.8047-22.3145 49.8047-49.8047s-22.3145-49.8047-49.8047-49.8047-49.8047 22.3145-49.8047 49.8047 22.3145 49.8047 49.8047 49.8047Zm0-8.30078c-22.9492 0-41.5039-18.5547-41.5039-41.5039s18.5547-41.5039 41.5039-41.5039 41.5039 18.5547 41.5039 41.5039-18.5547 41.5039-41.5039 41.5039Zm4.05273-23.0957v-36.9141c0-2.49023-1.70898-4.19922-4.15039-4.19922-2.39258 0-4.05273 1.70898-4.05273 4.19922v36.9141c0 2.44141 1.66016 4.15039 4.05273 4.15039 2.44141 0 4.15039-1.66016 4.15039-4.15039Zm-22.5586-14.4043h36.9629c2.44141 0 4.15039-1.61133 4.15039-4.00391 0-2.44141-1.70898-4.15039-4.15039-4.15039h-36.9629c-2.49023 0-4.15039 1.70898-4.15039 4.15039 0 2.39258 1.66016 4.00391 4.15039 4.00391Z"/>
  </g>
  <g transform="matrix(0.2 0 0 0.2 304.924 1933)">
   <path d="m74.8535 28.3203c35.1074 0 63.623-28.4668 63.623-63.5742s-28.5156-63.623-63.623-63.623-63.5742 28.5156-63.5742 63.623 28.4668 63.5742 63.5742 63.5742Zm0-9.08203c-30.127 0-54.4922-24.3652-54.4922-54.4922s24.3652-54.4922 54.4922-54.4922 54.4922 24.3652 54.4922 54.4922-24.3652 54.4922-54.4922 54.4922Zm4.44336-30.3223v-48.4863c0-2.73438-1.85547-4.63867-4.54102-4.63867-2.58789 0-4.44336 1.9043-4.44336 4.63867v48.4863c0 2.68555 1.85547 4.58984 4.44336 4.58984 2.68555 0 4.54102-1.85547 4.54102-4.58984Zm-28.7109-19.7754h48.4863c2.68555 0 4.58984-1.80664 4.58984-4.39453 0-2.73438-1.85547-4.58984-4.58984-4.58984h-48.4863c-2.73438 0-4.58984 1.85547-4.58984 4.58984 0 2.58789 1.85547 4.39453 4.58984 4.39453Z"/>
  </g>
  <text style="stroke:none;fill:black;font-family:sans-serif;font-size:13;font-weight:bold;" transform="matrix(1 0 0 1 263 1953)">Design Variations</text>
  <text style="stroke:none;fill:black;font-family:sans-serif;font-size:13;" transform="matrix(1 0 0 1 263 1971)">Symbols are supported in up to nine weights and three scales.</text>
  <text style="stroke:none;fill:black;font-family:sans-serif;font-size:13;" transform="matrix(1 0 0 1 263 1989)">For optimal layout with text and other symbols, vertically align</text>
  <text style="stroke:none;fill:black;font-family:sans-serif;font-size:13;" transform="matrix(1 0 0 1 263 2007)">symbols with the adjacent text.</text>
  <line style="fill:none;stroke:#00AEEF;stroke-width:0.5;opacity:1.0;" x1="776" x2="776" y1="1919" y2="1933"/>
  <g transform="matrix(0.2 0 0 0.2 776 1933)">
   <path d="m16.5527 0.78125c2.58789 0 3.85742-0.976562 4.78516-3.71094l20.5566-57.5195h0.244141l20.6055 57.5195c0.927734 2.73438 2.19727 3.71094 4.73633 3.71094 2.58789 0 4.24805-1.5625 4.24805-4.00391 0-0.830078-0.146484-1.61133-0.537109-2.63672l-22.9004-60.9863c-1.12305-2.97852-3.125-4.49219-6.25-4.49219-3.02734 0-5.07812 1.46484-6.15234 4.44336l-22.9004 61.084c-0.390625 1.02539-0.537109 1.80664-0.537109 2.63672 0 2.44141 1.5625 3.95508 4.10156 3.95508Zm10.2051-20.9473h30.6641c2.00195 0 3.66211-1.66016 3.66211-3.66211 0-2.05078-1.66016-3.66211-3.66211-3.66211h-30.6641c-2.00195 0-3.66211 1.61133-3.66211 3.66211 0 2.00195 1.66016 3.66211 3.66211 3.66211Z"/>
  </g>
  <line style="fill:none;stroke:#00AEEF;stroke-width:0.5;opacity:1.0;" x1="792.836" x2="792.836" y1="1919" y2="1933"/>
  <text style="stroke:none;fill:black;font-family:sans-serif;font-size:13;font-weight:bold;" transform="matrix(1 0 0 1 776 1953)">Margins</text>
  <text style="stroke:none;fill:black;font-family:sans-serif;font-size:13;" transform="matrix(1 0 0 1 776 1971)">Leading and trailing margins on the left and right side of each symbol</text>
  <text style="stroke:none;fill:black;font-family:sans-serif;font-size:13;" transform="matrix(1 0 0 1 776 1989)">can be adjusted by modifying the x-location of the margin guidelines.</text>
  <text style="stroke:none;fill:black;font-family:sans-serif;font-size:13;" transform="matrix(1 0 0 1 776 2007)">Modifications are automatically applied proportionally to all</text>
  <text style="stroke:none;fill:black;font-family:sans-serif;font-size:13;" transform="matrix(1 0 0 1 776 2025)">scales and weights.</text>
  <g transform="matrix(0.2 0 0 0.2 1289 1933)">
   <path d="m14.209 13.1348 7.86133 7.86133c4.29688 4.39453 9.32617 4.10156 13.8672-1.02539l60.6934-68.2129-4.88281-4.88281-60.2539 67.6758c-1.80664 1.95312-3.4668 2.44141-5.81055 0.0976562l-5.17578-5.12695c-2.29492-2.29492-1.80664-3.95508 0.195312-5.81055l67.4805-62.1582-4.88281-4.83398-68.0664 62.5977c-4.98047 4.58984-5.32227 9.47266-1.02539 13.8184Zm44.873-97.4609c-2.05078 2.00195-2.24609 4.88281-1.07422 6.78711 1.12305 1.80664 3.4668 3.02734 6.5918 2.24609 5.85938-1.66016 12.5977-2.39258 18.8965 0.927734l-2.68555 7.12891c-1.61133 4.00391-0.732422 6.88477 1.70898 9.42383l10.2539 10.3027c2.34375 2.39258 4.54102 2.44141 7.08008 1.95312l4.44336-0.732422 2.58789 2.53906-0.195312 2.24609c-0.0976562 2.29492 0.537109 4.29688 2.7832 6.49414l3.36914 3.32031c2.29492 2.29492 5.51758 2.49023 7.8125 0.195312l12.9883-13.0371c2.29492-2.34375 2.14844-5.37109-0.195312-7.66602l-3.41797-3.41797c-2.19727-2.19727-4.05273-3.02734-6.34766-2.88086l-2.34375 0.244141-2.44141-2.44141 1.02539-4.6875c0.634766-2.73438-0.244141-4.98047-2.88086-7.61719l-11.2793-11.1816c-12.9395-12.8418-35.5957-11.0352-46.6797-0.146484Zm7.08008 2.05078c8.78906-6.39648 25.9766-5.66406 33.6914 1.95312l12.3047 12.207c1.02539 1.02539 1.2207 1.80664 0.927734 3.32031l-1.46484 6.64062 6.73828 6.68945 4.39453-0.244141c1.12305-0.0488281 1.51367 0.0488281 2.34375 0.878906l2.53906 2.49023-10.8398 10.8398-2.49023-2.49023c-0.830078-0.878906-0.976562-1.2207-0.927734-2.39258l0.292969-4.3457-6.68945-6.73828-6.83594 1.17188c-1.41602 0.292969-2.05078 0.195312-3.17383-0.878906l-8.93555-8.88672c-1.07422-1.02539-1.17188-1.70898-0.488281-3.36914l4.58984-11.4746c-6.10352-6.34766-17.041-7.51953-25.5859-4.58984-0.683594 0.244141-0.927734-0.390625-0.390625-0.78125Z"/>
  </g>
  <text style="stroke:none;fill:black;font-family:sans-serif;font-size:13;font-weight:bold;" transform="matrix(1 0 0 1 1289 1953)">Exporting</text>
  <text style="stroke:none;fill:black;font-family:sans-serif;font-size:13;" transform="matrix(1 0 0 1 1289 1971)">Symbols should be outlined when exporting to ensure the</text>
  <text style="stroke:none;fill:black;font-family:sans-serif;font-size:13;" transform="matrix(1 0 0 1 1289 1989)">design is preserved when submitting to Xcode.</text>
  <text id="template-version" style="stroke:none;fill:black;font-family:sans-serif;font-size:13;text-anchor:end;" transform="matrix(1 0 0 1 3036 1933)">Template v.2.0</text>
  <text style="stroke:none;fill:black;font-family:sans-serif;font-size:13;text-anchor:end;" transform="matrix(1 0 0 1 3036 1951)">Requires Xcode 12 or greater</text>
  <text id="descriptive-name" style="stroke:none;fill:black;font-family:sans-serif;font-size:13;text-anchor:end;" transform="matrix(1 0 0 1 3036 1969)">Generated from square.and.arrow.up</text>
  <text style="stroke:none;fill:black;font-family:sans-serif;font-size:13;text-anchor:end;" transform="matrix(1 0 0 1 3036 1987)">Typeset at 100.0 points</text>
  <text style="stroke:none;fill:black;font-family:sans-serif;font-size:13;" transform="matrix(1 0 0 1 263 726)">Small</text>
  <text style="stroke:none;fill:black;font-family:sans-serif;font-size:13;" transform="matrix(1 0 0 1 263 1156)">Medium</text>
  <text style="stroke:none;fill:black;font-family:sans-serif;font-size:13;" transform="matrix(1 0 0 1 263 1586)">Large</text>
 </g>
 <g id="Guides">
  <g id="H-reference" style="fill:#27AAE1;stroke:none;" transform="matrix(1 0 0 1 339 696)">
   <path d="M0.993654 0L3.63775 0L29.3281-67.1323L30.0303-67.1323L30.0303-70.459L28.1226-70.459ZM11.6885-24.4799L46.9815-24.4799L46.2315-26.7285L12.4385-26.7285ZM55.1196 0L57.7637 0L30.6382-70.459L29.4326-70.459L29.4326-67.1323Z"/>
  </g>
  <line id="Baseline-S" style="fill:none;stroke:#27AAE1;opacity:1;stroke-width:0.5;" x1="263" x2="3036" y1="696" y2="696"/>
  <line id="Capline-S" style="fill:none;stroke:#27AAE1;opacity:1;stroke-width:0.5;" x1="263" x2="3036" y1="625.541" y2="625.541"/>
  <g id="H-reference" style="fill:#27AAE1;stroke:none;" transform="matrix(1 0 0 1 339 1126)">
   <path d="M0.993654 0L3.63775 0L29.3281-67.1323L30.0303-67.1323L30.0303-70.459L28.1226-70.459ZM11.6885-24.4799L46.9815-24.4799L46.2315-26.7285L12.4385-26.7285ZM55.1196 0L57.7637 0L30.6382-70.459L29.4326-70.459L29.4326-67.1323Z"/>
  </g>
  <line id="Baseline-M" style="fill:none;stroke:#27AAE1;opacity:1;stroke-width:0.5;" x1="263" x2="3036" y1="1126" y2="1126"/>
  <line id="Capline-M" style="fill:none;stroke:#27AAE1;opacity:1;stroke-width:0.5;" x1="263" x2="3036" y1="1055.54" y2="1055.54"/>
  <g id="H-reference" style="fill:#27AAE1;stroke:none;" transform="matrix(1 0 0 1 339 1556)">
   <path d="M0.993654 0L3.63775 0L29.3281-67.1323L30.0303-67.1323L30.0303-70.459L28.1226-70.459ZM11.6885-24.4799L46.9815-24.4799L46.2315-26.7285L12.4385-26.7285ZM55.1196 0L57.7637 0L30.6382-70.459L29.4326-70.459L29.4326-67.1323Z"/>
  </g>
  <line id="Baseline-L" style="fill:none;stroke:#27AAE1;opacity:1;stroke-width:0.5;" x1="263" x2="3036" y1="1556" y2="1556"/>
  <line id="Capline-L" style="fill:none;stroke:#27AAE1;opacity:1;stroke-width:0.5;" x1="263" x2="3036" y1="1485.54" y2="1485.54"/>
  <line id="right-margin" style="fill:none;stroke:#00AEEF;stroke-width:0.5;opacity:1.0;" x1="1505.63" x2="1505.63" y1="1030.79" y2="1150.12"/>
  <line id="left-margin" style="fill:none;stroke:#00AEEF;stroke-width:0.5;opacity:1.0;" x1="1394.06" x2="1394.06" y1="1030.79" y2="1150.12"/>
 </g>
 <g id="Symbols">
  <g id="Black-L" transform="matrix(1 0 0 1 2856.86 1556)">
   <path d="M54.0492-81.489C56.2197-81.489 58.219-82.3964 59.6417-83.9192L66.0726-90.7722L76.5334-107.415L87.0126-90.7722L93.4239-83.9192C94.8675-82.3964 96.8251-81.489 99.0164-81.489C102.775-81.489 106.406-84.3761 106.406-88.5834C106.406-90.7568 105.594-92.2795 104.151-93.7439L83.5889-113.415C81.282-115.663 78.9207-116.491 76.5334-116.491C74.1669-116.491 71.8044-115.663 69.4779-113.415L48.9357-93.7439C47.4713-92.2795 46.6807-90.7568 46.6807-88.5834C46.6807-84.3761 50.2883-81.489 54.0492-81.489ZM76.5334-18.8714C81.4457-18.8714 85.239-22.8763 85.239-27.4561L85.239-86.5676L83.2942-108.562C82.9605-112.297 80.2683-115.322 76.5334-115.322C72.8182-115.322 70.1271-112.297 69.7935-108.562L67.8487-86.5676L67.8487-27.4561C67.8487-22.8763 71.6419-18.8714 76.5334-18.8714ZM45.4402 36.7246L107.646 36.7246C126.452 36.7246 137.004 26.1713 137.004 7.36718L137.004-41.4214C137.004-60.2255 126.452-70.7568 107.646-70.7568L97.3658-70.7568L97.3658-50.777L106.244-50.777C113.156-50.777 117.023-46.8507 117.023-39.9624L117.023 5.90821C117.023 12.8185 113.156 16.7436 106.244 16.7436L46.8408 16.7436C39.9317 16.7436 36.065 12.8185 36.065 5.90821L36.065-39.9624C36.065-46.8507 39.9317-50.777 46.8408-50.777L55.701-50.777L55.701-70.7568L45.4402-70.7568C26.6361-70.7568 16.084-60.2255 16.084-41.4214L16.084 7.36718C16.084 26.1713 26.6361 36.7246 45.4402 36.7246Z"/>
  </g>
  <g id="Heavy-L" transform="matrix(1 0 0 1 2561.29 1556)">
   <path d="M53.1579-81.7039C55.0824-81.7039 56.919-82.5065 58.1961-83.8886L65.5073-91.6556L75.3841-106.37L85.2799-91.6556L92.5665-83.8886C93.8738-82.5065 95.65-81.7039 97.6047-81.7039C101.042-81.7039 104.258-84.3185 104.258-88.094C104.258-90.0588 103.515-91.4409 102.207-92.7784L81.5782-112.56C79.5399-114.554 77.5028-115.282 75.3841-115.282C73.2956-115.282 71.2529-114.554 69.19-112.56L48.5854-92.7784C47.2479-91.4409 46.5346-90.0588 46.5346-88.094C46.5346-84.3185 49.7092-81.7039 53.1579-81.7039ZM75.3841-19.0737C79.741-19.0737 83.1526-22.628 83.1526-26.707L83.1526-87.1512L81.4907-107.807C81.2072-111.174 78.7511-113.914 75.3841-113.914C72.0417-113.914 69.5912-111.174 69.3077-107.807L67.6458-87.1512L67.6458-26.707C67.6458-22.628 71.0574-19.0737 75.3841-19.0737ZM44.6957 34.9854L106.097 34.9854C124.436 34.9854 134.714 24.7017 134.714 6.36804L134.714-42.3234C134.714-60.6571 124.436-70.9049 106.097-70.9049L95.1104-70.9049L95.1104-53.4101L105.026-53.4101C112.838-53.4101 117.214-48.9836 117.214-41.2134L117.214 5.25808C117.214 13.0641 112.838 17.485 105.026 17.485L45.761 17.485C37.9607 17.485 33.5844 13.0641 33.5844 5.25808L33.5844-41.2134C33.5844-48.9836 37.9607-53.4101 45.761-53.4101L55.6578-53.4101L55.6578-70.9049L44.6957-70.9049C26.362-70.9049 16.084-60.6571 16.084-42.3234L16.084 6.36804C16.084 24.7017 26.362 34.9854 44.6957 34.9854Z"/>
  </g>
  <g id="Bold-L" transform="matrix(1 0 0 1 2265.99 1556)">
   <path d="M52.0217-81.8908C53.6389-81.8908 55.2533-82.5628 56.3461-83.7608L64.8081-92.6947L73.97-105.168L83.1434-92.6947L91.5806-83.7608C92.7114-82.5628 94.2498-81.8908 95.905-81.8908C98.9057-81.8908 101.607-84.1524 101.607-87.3752C101.607-89.064 100.955-90.262 99.8246-91.4308L79.096-111.396C77.3956-113.067 75.7508-113.672 73.97-113.672C72.2271-113.672 70.5691-113.067 68.8439-111.396L48.1401-91.4308C46.9713-90.262 46.3577-89.064 46.3577-87.3752C46.3577-84.1524 48.9945-81.8908 52.0217-81.8908ZM73.97-19.2974C77.628-19.2974 80.5484-22.2834 80.5484-25.7326L80.5484-87.9406L79.2324-106.84C79.0104-109.731 76.8612-112.102 73.97-112.102C71.1035-112.102 68.9675-109.731 68.7455-106.84L67.4295-87.9406L67.4295-25.7326C67.4295-22.2834 70.3499-19.2974 73.97-19.2974ZM43.796 32.9381L104.169 32.9381C121.947 32.9381 131.894 22.9775 131.894 5.21288L131.894-43.3109C131.894-61.0756 121.947-70.985 104.169-70.985L92.1645-70.985L92.1645-56.5564L103.468-56.5564C112.431-56.5564 117.452-51.4927 117.452-42.5941L117.452 4.49603C117.452 13.4459 112.431 18.4964 103.468 18.4964L44.4836 18.4964C35.547 18.4964 30.5257 13.4459 30.5257 4.49603L30.5257-42.5941C30.5257-51.4927 35.547-56.5564 44.4836-56.5564L55.7754-56.5564L55.7754-70.985L43.796-70.985C26.0313-70.985 16.084-61.0756 16.084-43.3109L16.084 5.21288C16.084 22.9775 26.0313 32.9381 43.796 32.9381Z"/>
  </g>
  <g id="Semibold-L" transform="matrix(1 0 0 1 1970.25 1556)">
   <path d="M51.2384-82.0196C52.6438-82.0196 54.105-82.6016 55.0707-83.6727L64.326-93.411L72.9951-104.34L81.6706-93.411L90.9009-83.6727C91.91-82.6016 93.2845-82.0196 94.7333-82.0196C97.4329-82.0196 99.7792-84.0379 99.7792-86.8797C99.7792-88.3781 99.191-89.4492 98.1819-90.5017L77.3848-110.593C75.9174-112.041 74.5429-112.561 72.9951-112.561C71.4906-112.561 70.0976-112.041 68.6053-110.593L47.8331-90.5017C46.7806-89.4492 46.2358-88.3781 46.2358-86.8797C46.2358-84.0379 48.5018-82.0196 51.2384-82.0196ZM72.9951-19.4516C76.1713-19.4516 78.753-22.0458 78.753-25.0609L78.753-88.4848L77.6755-106.173C77.4959-108.736 75.5583-110.854 72.9951-110.854C70.4568-110.854 68.5376-108.736 68.358-106.173L67.2805-88.4848L67.2805-25.0609C67.2805-22.0458 69.8622-19.4516 72.9951-19.4516ZM43.1757 31.5268L102.839 31.5268C120.23 31.5268 129.95 21.7889 129.95 4.41652L129.95-43.9918C129.95-61.3641 120.23-71.0402 102.839-71.0402L90.1337-71.0402L90.1337-58.7255L102.394-58.7255C112.15-58.7255 117.616-53.2225 117.616-43.5459L117.616 3.97067C117.616 13.7091 112.15 19.1936 102.394 19.1936L43.603 19.1936C33.8831 19.1936 28.4171 13.7091 28.4171 3.97067L28.4171-43.5459C28.4171-53.2225 33.8831-58.7255 43.603-58.7255L55.8565-58.7255L55.8565-71.0402L43.1757-71.0402C25.8034-71.0402 16.084-61.3641 16.084-43.9918L16.084 4.41652C16.084 21.7889 25.8034 31.5268 43.1757 31.5268Z"/>
  </g>
  <g id="Medium-L" transform="matrix(1 0 0 1 1674.28 1556)">
   <path d="M50.6445-82.1173C51.8892-82.1173 53.2343-82.631 54.1037-83.6059L63.9605-93.9541L72.2559-103.712L80.5538-93.9541L90.3855-83.6059C91.3024-82.631 92.5526-82.1173 93.8448-82.1173C96.3161-82.1173 98.3934-83.9511 98.3934-86.504C98.3934-87.8581 97.8532-88.8329 96.9364-89.7973L76.0873-109.984C74.7965-111.264 73.627-111.72 72.2559-111.72C70.9321-111.72 69.7402-111.264 68.4244-109.984L47.6003-89.7973C46.636-88.8329 46.1433-87.8581 46.1433-86.504C46.1433-83.9511 48.1282-82.1173 50.6445-82.1173ZM72.2559-19.5685C75.0667-19.5685 77.3917-21.8656 77.3917-24.5515L77.3917-88.8974L76.495-105.668C76.3476-107.982 74.5703-109.907 72.2559-109.907C69.9663-109.907 68.2116-107.982 68.0641-105.668L67.1674-88.8974L67.1674-24.5515C67.1674-21.8656 69.4924-19.5685 72.2559-19.5685ZM42.7054 30.4566L101.831 30.4566C118.929 30.4566 128.475 20.8876 128.475 3.81269L128.475-44.508C128.475-61.5829 118.929-71.082 101.831-71.082L88.5937-71.082L88.5937-60.3702L101.579-60.3702C111.938-60.3702 117.741-54.534 117.741-44.2676L117.741 3.57233C117.741 13.9086 111.938 19.7223 101.579 19.7223L42.9353 19.7223C32.6214 19.7223 26.8183 13.9086 26.8183 3.57233L26.8183-44.2676C26.8183-54.534 32.6214-60.3702 42.9353-60.3702L55.918-60.3702L55.918-71.082L42.7054-71.082C25.6305-71.082 16.084-61.5829 16.084-44.508L16.084 3.81269C16.084 20.8876 25.6305 30.4566 42.7054 30.4566Z"/>
  </g>
  <g id="Regular-L" transform="matrix(1 0 0 1 1378.53 1556)">
   <path d="M49.8698-82.2447C50.905-82.2447 52.0986-82.6694 52.8424-83.5187L63.4837-94.6626L71.2917-102.893L79.0971-94.6626L89.7133-83.5187C90.5099-82.6694 91.5979-82.2447 92.6859-82.2447C94.8594-82.2447 96.5857-83.8378 96.5857-86.0139C96.5857-87.1798 96.1083-88.0291 95.3117-88.8784L74.3949-109.19C73.3345-110.25 72.4325-110.622 71.2917-110.622C70.2036-110.622 69.2739-110.25 68.1884-109.19L47.2967-88.8784C46.4474-88.0291 46.0228-87.1798 46.0228-86.0139C46.0228-83.8378 47.641-82.2447 49.8698-82.2447ZM71.2917-19.721C73.626-19.721 75.6161-21.6307 75.6161-23.8871L75.6161-89.4357L74.9553-105.008C74.8498-106.998 73.2818-108.672 71.2917-108.672C69.3267-108.672 67.7863-106.998 67.6808-105.008L67.02-89.4357L67.02-23.8871C67.02-21.6307 69.0101-19.721 71.2917-19.721ZM42.092 29.0607L100.516 29.0607C117.231 29.0607 126.552 19.712 126.552 3.02509L126.552-45.1814C126.552-61.8683 117.231-71.1366 100.516-71.1366L86.5852-71.1366L86.5852-62.5154L100.516-62.5154C111.66-62.5154 117.903-56.2448 117.903-45.209L117.903 3.05274C117.903 14.1689 111.66 20.4119 100.516 20.4119L42.0643 20.4119C30.9758 20.4119 24.7328 14.1689 24.7328 3.05274L24.7328-45.209C24.7328-56.2448 30.9758-62.5154 42.0643-62.5154L55.9982-62.5154L55.9982-71.1366L42.092-71.1366C25.405-71.1366 16.084-61.8683 16.084-45.1814L16.084 3.02509C16.084 19.712 25.405 29.0607 42.092 29.0607Z"/>
  </g>
  <g id="Light-L" transform="matrix(1 0 0 1 1082.74 1556)">
   <path d="M48.8773-81.863C49.6836-81.863 50.5908-82.1923 51.1819-82.8507L63.0065-95.0252L70.3756-102.664L77.6848-95.0252L89.5225-82.8507C90.1473-82.1923 90.9872-81.863 91.8271-81.863C93.4471-81.863 94.8108-83.1126 94.8108-84.7924C94.8108-85.653 94.4479-86.3114 93.8231-86.9699L72.7345-107.701C71.9413-108.494 71.2492-108.79 70.3756-108.79C69.5357-108.79 68.7968-108.494 68.0167-107.701L46.915-86.9699C46.2566-86.3114 45.9273-85.653 45.9273-84.7924C45.9273-83.1126 47.1638-81.863 48.8773-81.863ZM70.3756-19.7019C72.1564-19.7019 73.6885-21.1535 73.6885-22.9138L73.6885-90.409L73.2376-104.13C73.1703-105.662 71.9076-106.992 70.3756-106.992C68.8305-106.992 67.6146-105.662 67.5472-104.13L67.0963-90.409L67.0963-22.9138C67.0963-21.1535 68.6284-19.7019 70.3756-19.7019ZM41.6148 28.3355L99.1232 28.3355C115.552 28.3355 124.701 19.1395 124.701 2.75789L124.701-45.0287C124.701-61.4102 115.552-70.5259 99.1232-70.5259L83.5697-70.5259L83.5697-63.9468L99.1232-63.9468C111.298-63.9468 118.075-57.1227 118.075-45.0754L118.075 2.80463C118.075 14.9323 111.298 21.7097 99.1232 21.7097L41.5681 21.7097C29.4871 21.7097 22.7098 14.9323 22.7098 2.80463L22.7098-45.0754C22.7098-57.1227 29.4871-63.9468 41.5681-63.9468L57.1814-63.9468L57.1814-70.5259L41.6148-70.5259C25.2333-70.5259 16.084-61.4102 16.084-45.0287L16.084 2.75789C16.084 19.1395 25.2333 28.3355 41.6148 28.3355Z"/>
  </g>
  <g id="Thin-L" transform="matrix(1 0 0 1 787.254 1556)">
   <path d="M47.5648-81.3582C48.0681-81.3582 48.5967-81.5612 48.9859-81.9673L62.3755-95.5048L69.164-102.361L75.8169-95.5048L89.2701-81.9673C89.6677-81.5612 90.1794-81.3582 90.6912-81.3582C91.5792-81.3582 92.4633-82.1534 92.4633-83.177C92.4633-83.6336 92.2518-84.0396 91.8542-84.4457L70.5384-105.732C70.0987-106.172 69.6842-106.367 69.164-106.367C68.6522-106.367 68.1657-106.172 67.7895-105.732L46.4102-84.4457C46.0041-84.0396 45.8011-83.6336 45.8011-83.177C45.8011-82.1534 46.5328-81.3582 47.5648-81.3582ZM69.164-19.6767C70.2128-19.6767 71.1391-20.5225 71.1391-21.6265L71.1391-91.6963L70.9658-102.969C70.949-103.895 70.0902-104.771 69.164-104.771C68.1742-104.771 67.3874-103.895 67.3705-102.969L67.1973-91.6963L67.1973-21.6265C67.1973-20.5225 68.1236-19.6767 69.164-19.6767ZM40.9838 27.3763L97.2806 27.3763C113.33 27.3763 122.252 18.3822 122.252 2.40451L122.252-44.8267C122.252-60.8044 113.33-69.7181 97.2806-69.7181L79.5815-69.7181L79.5815-65.8399L97.2806-65.8399C110.818-65.8399 118.302-58.2838 118.302-44.8987L118.302 2.47649C118.302 15.942 110.818 23.4261 97.2806 23.4261L40.9118 23.4261C27.5183 23.4261 20.0342 15.942 20.0342 2.47649L20.0342-44.8987C20.0342-58.2838 27.5183-65.8399 40.9118-65.8399L58.7464-65.8399L58.7464-69.7181L40.9838-69.7181C25.0061-69.7181 16.084-60.8044 16.084-44.8267L16.084 2.40451C16.084 18.3822 25.0061 27.3763 40.9838 27.3763Z"/>
  </g>
  <g id="Ultralight-L" transform="matrix(1 0 0 1 491.17 1556)">
   <path d="M46.8925-81.0996C47.2406-81.0996 47.5754-81.238 47.8611-81.5148L62.0523-95.7504L68.5434-102.206L74.8602-95.7504L89.1408-81.5148C89.422-81.238 89.7657-81.0996 90.1094-81.0996C90.6225-81.0996 91.2609-81.6621 91.2609-82.3495C91.2609-82.5993 91.127-82.8761 90.8458-83.1528L69.4136-104.724C69.1549-104.983 68.8826-105.125 68.5434-105.125C68.1997-105.125 67.8425-104.983 67.6731-104.724L46.1516-83.1528C45.8748-82.8761 45.7365-82.5993 45.7365-82.3495C45.7365-81.6621 46.2096-81.0996 46.8925-81.0996ZM68.5434-19.6637C69.2173-19.6637 69.8333-20.1993 69.8333-20.9671L69.8333-92.3557L69.8023-102.375C69.8112-102.99 69.1593-103.633 68.5434-103.633C67.838-103.633 67.271-102.99 67.28-102.375L67.249-92.3557L67.249-20.9671C67.249-20.1993 67.865-19.6637 68.5434-19.6637ZM40.6606 26.885L96.3368 26.885C112.193 26.885 120.998 17.9943 120.998 2.22351L120.998-44.7233C120.998-60.4942 112.193-69.3044 96.3368-69.3044L77.5388-69.3044L77.5388-66.8096L96.3368-66.8096C110.572-66.8096 118.419-58.8786 118.419-44.8082L118.419 2.30842C118.419 16.4592 110.572 24.3053 96.3368 24.3053L40.5757 24.3053C26.5098 24.3053 18.6637 16.4592 18.6637 2.30842L18.6637-44.8082C18.6637-58.8786 26.5098-66.8096 40.5757-66.8096L59.548-66.8096L59.548-69.3044L40.6606-69.3044C24.8897-69.3044 16.084-60.4942 16.084-44.7233L16.084 2.22351C16.084 17.9943 24.8897 26.885 40.6606 26.885Z"/>
  </g>
  <g id="Black-M" transform="matrix(1 0 0 1 2873.24 1126)">
   <path d="M42.5057-70.8323C44.3677-70.8323 46.0177-71.6124 47.2244-72.8872L51.6104-77.5507L60.1573-92.0224L68.7102-77.5507L73.0905-72.8872C74.3026-71.6124 75.9417-70.8323 77.8091-70.8323C80.9219-70.8323 84.0421-73.2566 84.0421-76.8202C84.0421-78.6418 83.3707-79.9165 82.1585-81.1342L66.263-96.3355C64.2811-98.2603 62.2015-98.9779 60.1573-98.9779C58.1186-98.9779 56.0392-98.2603 54.0516-96.3355L38.1618-81.1342C36.9441-79.9165 36.2782-78.6418 36.2782-76.8202C36.2782-73.2566 39.3935-70.8323 42.5057-70.8323ZM60.1573-22.3797C64.3654-22.3797 67.5701-25.8076 67.5701-29.719L67.5701-74.6336L65.8487-92.5726C65.5523-95.7202 63.305-98.264 60.1573-98.264C57.0154-98.264 54.7678-95.7202 54.4713-92.5726L52.7499-74.6336L52.7499-29.719C52.7499-25.8076 55.9547-22.3797 60.1573-22.3797ZM35.7796 21.9128L84.5407 21.9128C99.4717 21.9128 107.859 13.5256 107.859-1.40557L107.859-39.2307C107.859-54.162 99.4717-62.5439 84.5407-62.5439L76.9632-62.5439L76.9632-45.2057L83.1704-45.2057C87.8911-45.2057 90.5212-42.5188 90.5212-37.8031L90.5212-2.83327C90.5212 1.88767 87.8911 4.57486 83.1704 4.57486L37.1502 4.57486C32.429 4.57486 29.7989 1.88767 29.7989-2.83327L29.7989-37.8031C29.7989-42.5188 32.429-45.2057 37.1502-45.2057L43.3513-45.2057L43.3513-62.5439L35.7796-62.5439C20.8484-62.5439 12.4609-54.162 12.4609-39.2307L12.4609-1.40557C12.4609 13.5256 20.8484 21.9128 35.7796 21.9128Z"/>
  </g>
  <g id="Heavy-M" transform="matrix(1 0 0 1 2577.56 1126)">
   <path d="M41.726-71.0776C43.3686-71.0776 44.8859-71.7641 45.9644-72.9189L51.1018-78.3808L59.1183-91.0216L67.1466-78.3808L72.2699-72.9189C73.3647-71.7641 74.8493-71.0776 76.5083-71.0776C79.3583-71.0776 82.1065-73.2673 82.1065-76.4544C82.1065-78.1003 81.4909-79.2552 80.396-80.3665L64.4505-95.6375C62.7065-97.3379 60.9245-97.9643 59.1183-97.9643C57.3284-97.9643 55.5441-97.3379 53.786-95.6375L37.8546-80.3665C36.7434-79.2552 36.1441-78.1003 36.1441-76.4544C36.1441-73.2673 38.8714-71.0776 41.726-71.0776ZM59.1183-22.5792C62.8345-22.5792 65.7084-25.609 65.7084-29.0765L65.7084-75.1143L64.2442-91.916C63.9933-94.7462 61.9486-97.0419 59.1183-97.0419C56.3021-97.0419 54.2597-94.7462 54.0088-91.916L52.5445-75.1143L52.5445-29.0765C52.5445-25.609 55.4185-22.5792 59.1183-22.5792ZM35.0958 20.2795L83.1548 20.2795C97.6566 20.2795 105.792 12.1419 105.792-2.35765L105.792-40.1266C105.792-54.6261 97.6566-62.7451 83.1548-62.7451L75.0366-62.7451L75.0366-47.6477L82.1079-47.6477C87.6134-47.6477 90.6924-44.5229 90.6924-39.0383L90.6924-3.44592C90.6924 2.05732 87.6134 5.17992 82.1079 5.17992L36.1405 5.17992C30.6395 5.17992 27.5605 2.05732 27.5605-3.44592L27.5605-39.0383C27.5605-44.5229 30.6395-47.6477 36.1405-47.6477L43.1999-47.6477L43.1999-62.7451L35.0958-62.7451C20.5963-62.7451 12.4609-54.6261 12.4609-40.1266L12.4609-2.35765C12.4609 12.1419 20.5963 20.2795 35.0958 20.2795Z"/>
  </g>
  <g id="Bold-M" transform="matrix(1 0 0 1 2282.01 1126)">
   <path d="M40.8537-71.352C42.251-71.352 43.6199-71.9337 44.5549-72.9545L50.5329-79.3094L57.956-89.902L65.3974-79.3094L71.3519-72.9545C72.3155-71.9337 73.6272-71.352 75.0531-71.352C77.6091-71.352 79.9413-73.2792 79.9413-76.0453C79.9413-77.4947 79.388-78.5154 78.4244-79.5077L62.423-94.8567C60.9452-96.306 59.4961-96.8306 57.956-96.8306C56.4445-96.8306 54.9903-96.306 53.489-94.8567L37.511-79.5077C36.5188-78.5154 35.9942-77.4947 35.9942-76.0453C35.9942-73.2792 38.2874-71.352 40.8537-71.352ZM57.956-22.8025C61.122-22.8025 63.6258-25.3867 63.6258-28.3579L63.6258-75.6521L62.4493-91.1814C62.2493-93.6567 60.4312-95.6747 57.956-95.6747C55.5042-95.6747 53.6913-93.6567 53.4913-91.1814L52.3148-75.6521L52.3148-28.3579C52.3148-25.3867 54.8186-22.8025 57.956-22.8025ZM34.331 18.4525L81.6045 18.4525C95.6263 18.4525 103.48 10.594 103.48-3.42269L103.48-41.1287C103.48-55.1453 95.6263-62.9701 81.6045-62.9701L72.8814-62.9701L72.8814-50.3795L80.9193-50.3795C87.3028-50.3795 90.8839-46.7647 90.8839-40.4201L90.8839-4.13126C90.8839 2.24709 87.3028 5.85676 80.9193 5.85676L35.011 5.85676C28.6378 5.85676 25.0566 2.24709 25.0566-4.13126L25.0566-40.4201C25.0566-46.7647 28.6378-50.3795 35.011-50.3795L43.0306-50.3795L43.0306-62.9701L34.331-62.9701C20.3143-62.9701 12.4609-55.1453 12.4609-41.1287L12.4609-3.42269C12.4609 10.594 20.3143 18.4525 34.331 18.4525Z"/>
  </g>
  <g id="Semibold-M" transform="matrix(1 0 0 1 1986.09 1126)">
   <path d="M40.2524-71.5412C41.4805-71.5412 42.7471-72.0507 43.5832-72.979L50.1407-79.9496L57.1547-89.1301L64.1916-79.9496L70.7191-72.979C71.5922-72.0507 72.7848-71.5412 74.0499-71.5412C76.4033-71.5412 78.4486-73.2874 78.4486-75.7632C78.4486-77.0772 77.9383-78.0055 77.0652-78.9156L61.0253-94.3184C59.7309-95.5946 58.5114-96.049 57.1547-96.049C55.8351-96.049 54.6084-95.5946 53.2842-94.3184L37.2741-78.9156C36.364-78.0055 35.8908-77.0772 35.8908-75.7632C35.8908-73.2874 37.8848-71.5412 40.2524-71.5412ZM57.1547-22.9564C59.9414-22.9564 62.19-25.2335 62.19-27.8624L62.19-76.0228L61.2119-90.6751C61.047-92.9056 59.3852-94.7322 57.1547-94.7322C54.9542-94.7322 53.2995-92.9056 53.1346-90.6751L52.1564-76.0228L52.1564-27.8624C52.1564-25.2335 54.4051-22.9564 57.1547-22.9564ZM33.8037 17.1929L80.5357 17.1929C94.2265 17.1929 101.886 9.52683 101.886-4.15692L101.886-41.8195C101.886-55.5033 94.2265-63.1252 80.5357-63.1252L71.3956-63.1252L71.3956-52.2628L80.0999-52.2628C87.0887-52.2628 91.016-48.3102 91.016-41.3727L91.016-4.60373C91.016 2.37792 87.0887 6.32337 80.0999 6.32337L34.2323 6.32337C27.2578 6.32337 23.3305 2.37792 23.3305-4.60373L23.3305-41.3727C23.3305-48.3102 27.2578-52.2628 34.2323-52.2628L42.9138-52.2628L42.9138-63.1252L33.8037-63.1252C20.1199-63.1252 12.4609-55.5033 12.4609-41.8195L12.4609-4.15692C12.4609 9.52683 20.1199 17.1929 33.8037 17.1929Z"/>
  </g>
  <g id="Medium-M" transform="matrix(1 0 0 1 1689.99 1126)">
   <path d="M39.7965-71.6846C40.8963-71.6846 42.0853-72.1394 42.8464-72.9976L49.8433-80.435L56.5471-88.5449L63.2773-80.435L70.2393-72.9976C71.0438-72.1394 72.146-71.6846 73.2892-71.6846C75.489-71.6846 77.3167-73.2936 77.3167-75.5493C77.3167-76.7606 76.8391-77.6188 76.0346-78.4667L59.9654-93.9103C58.8102-95.0552 57.7647-95.4563 56.5471-95.4563C55.373-95.4563 54.3189-95.0552 53.1289-93.9103L37.0945-78.4667C36.2466-77.6188 35.8124-76.7606 35.8124-75.5493C35.8124-73.2936 37.5795-71.6846 39.7965-71.6846ZM56.5471-23.0731C59.0462-23.0731 61.1014-25.1173 61.1014-27.4868L61.1014-76.304L60.2736-90.2911C60.1354-92.336 58.5921-94.0176 56.5471-94.0176C54.5371-94.0176 53.0023-92.336 52.8641-90.2911L52.0363-76.304L52.0363-27.4868C52.0363-25.1173 54.0915-23.0731 56.5471-23.0731ZM33.4038 16.2378L79.7253 16.2378C93.1652 16.2378 100.677 8.71768 100.677-4.71364L100.677-42.3434C100.677-55.7747 93.1652-63.2428 79.7253-63.2428L70.269-63.2428L70.269-53.6908L79.4786-53.6908C86.9263-53.6908 91.1161-49.4821 91.1161-42.095L91.1161-4.96198C91.1161 2.47712 86.9263 6.67718 79.4786 6.67718L33.6419 6.67718C26.2114 6.67718 22.0216 2.47712 22.0216-4.96198L22.0216-42.095C22.0216-49.4821 26.2114-53.6908 33.6419-53.6908L42.8253-53.6908L42.8253-63.2428L33.4038-63.2428C19.9725-63.2428 12.4609-55.7747 12.4609-42.3434L12.4609-4.71364C12.4609 8.71768 19.9725 16.2378 33.4038 16.2378Z"/>
  </g>
  <g id="Regular-M" transform="matrix(1 0 0 1 1394.06 1126)">
   <path d="M39.2017-71.8717C40.1343-71.8717 41.2221-72.2551 41.8854-73.0218L49.4554-81.0681L55.7547-87.7815L62.0847-81.0681L69.6134-73.0218C70.3284-72.2551 71.3128-71.8717 72.2971-71.8717C74.2964-71.8717 75.8404-73.3017 75.8404-75.2703C75.8404-76.3476 75.4053-77.1144 74.6903-77.8811L58.583-93.3779C57.6093-94.3517 56.7908-94.6833 55.7547-94.6833C54.7704-94.6833 53.9413-94.3517 52.9263-93.3779L36.8603-77.8811C36.0935-77.1144 35.7101-76.3476 35.7101-75.2703C35.7101-73.3017 37.1813-71.8717 39.2017-71.8717ZM55.7547-23.2253C57.8786-23.2253 59.6814-24.9658 59.6814-26.9968L59.6814-76.6706L59.0498-89.7903C58.9463-91.5932 57.5575-93.0855 55.7547-93.0855C53.9931-93.0855 52.6148-91.5932 52.5113-89.7903L51.8797-76.6706L51.8797-26.9968C51.8797-24.9658 53.6825-23.2253 55.7547-23.2253ZM32.8823 14.9921L78.6683 14.9921C91.7809 14.9921 99.1002 7.66228 99.1002-5.4398L99.1002-43.0266C99.1002-56.1287 91.7809-63.3963 78.6683-63.3963L68.7995-63.3963L68.7995-55.5533L78.6683-55.5533C86.7146-55.5533 91.2467-51.0106 91.2467-43.0372L91.2467-5.42925C91.2467 2.60651 86.7146 7.13866 78.6683 7.13866L32.8718 7.13866C24.8466 7.13866 20.3144 2.60651 20.3144-5.42925L20.3144-43.0372C20.3144-51.0106 24.8466-55.5533 32.8718-55.5533L42.7098-55.5533L42.7098-63.3963L32.8823-63.3963C19.7802-63.3963 12.4609-56.1287 12.4609-43.0266L12.4609-5.4398C12.4609 7.66228 19.7802 14.9921 32.8823 14.9921Z"/>
  </g>
  <g id="Light-M" transform="matrix(1 0 0 1 1098.18 1126)">
   <path d="M38.312-71.5295C39.0392-71.5295 39.8704-71.8273 40.3967-72.4229L49.0276-81.3933L54.9334-87.5762L60.8184-81.3933L69.4423-72.4229C70.0033-71.8273 70.7652-71.5295 71.5271-71.5295C73.0302-71.5295 74.2491-72.6515 74.2491-74.1752C74.2491-74.9787 73.9167-75.5744 73.3556-76.17L57.0944-92.0432C56.3602-92.7775 55.7299-93.0406 54.9334-93.0406C54.1715-93.0406 53.5135-92.7775 52.7723-92.0432L36.518-76.17C35.9224-75.5744 35.6246-74.9787 35.6246-74.1752C35.6246-72.6515 36.7536-71.5295 38.312-71.5295ZM54.9334-23.2082C56.561-23.2082 57.9532-24.538 57.9532-26.1241L57.9532-77.5433L57.5098-89.0032C57.4406-90.3954 56.3255-91.5797 54.9334-91.5797C53.5482-91.5797 52.4608-90.3954 52.3915-89.0032L51.9481-77.5433L51.9481-26.1241C51.9481-24.538 53.3403-23.2082 54.9334-23.2082ZM32.4545 14.3419L77.4192 14.3419C90.2751 14.3419 97.4404 7.14895 97.4404-5.67936L97.4404-42.8897C97.4404-55.718 90.2751-62.8487 77.4192-62.8487L66.096-62.8487L66.096-56.8367L77.4192-56.8367C86.3895-56.8367 91.4007-51.7977 91.4007-42.9174L91.4007-5.6517C91.4007 3.29095 86.3895 8.30221 77.4192 8.30221L32.4269 8.30221C23.5119 8.30221 18.5006 3.29095 18.5006-5.6517L18.5006-42.9174C18.5006-51.7977 23.5119-56.8367 32.4269-56.8367L43.7707-56.8367L43.7707-62.8487L32.4545-62.8487C19.6262-62.8487 12.4609-55.718 12.4609-42.8897L12.4609-5.67936C12.4609 7.14895 19.6262 14.3419 32.4545 14.3419Z"/>
  </g>
  <g id="Thin-M" transform="matrix(1 0 0 1 802.569 1126)">
   <path d="M37.1352-71.0769C37.5908-71.0769 38.0826-71.2615 38.4279-71.6309L48.4618-81.8232L53.8471-87.3046L59.1438-81.8232L69.216-71.6309C69.5733-71.2615 70.041-71.0769 70.5087-71.0769C71.3555-71.0769 72.1445-71.7915 72.1445-72.7269C72.1445-73.1683 71.9478-73.5376 71.5905-73.907L55.1255-90.2781C54.7081-90.6954 54.3268-90.8681 53.8471-90.8681C53.3794-90.8681 52.9478-90.6954 52.5687-90.2781L36.0654-73.907C35.6961-73.5376 35.5114-73.1683 35.5114-72.7269C35.5114-71.7915 36.1878-71.0769 37.1352-71.0769ZM53.8471-23.1855C54.8185-23.1855 55.6675-23.9723 55.6675-24.9699L55.6675-78.6974L55.4731-87.9622C55.4491-88.8113 54.6961-89.5882 53.8471-89.5882C52.9598-89.5882 52.2571-88.8113 52.2331-87.9622L52.0387-78.6974L52.0387-24.9699C52.0387-23.9723 52.8877-23.1855 53.8471-23.1855ZM31.8888 13.4819L75.7671 13.4819C88.2836 13.4819 95.2453 6.47003 95.2453-5.99619L95.2453-42.7087C95.2453-55.1749 88.2836-62.1245 75.7671-62.1245L62.5204-62.1245L62.5204-58.534L75.7671-58.534C85.9595-58.534 91.6044-52.8388 91.6044-42.759L91.6044-5.94589C91.6044 4.19618 85.9595 9.84109 75.7671 9.84109L31.8385 9.84109C21.7467 9.84109 16.1018 4.19618 16.1018-5.94589L16.1018-42.759C16.1018-52.8388 21.7467-58.534 31.8385-58.534L45.1738-58.534L45.1738-62.1245L31.8888-62.1245C19.4226-62.1245 12.4609-55.1749 12.4609-42.7087L12.4609-5.99619C12.4609 6.47003 19.4226 13.4819 31.8888 13.4819Z"/>
  </g>
  <g id="Ultralight-M" transform="matrix(1 0 0 1 506.42 1126)">
   <path d="M36.5324-70.845C36.849-70.845 37.1668-70.9718 37.4194-71.2252L48.172-82.0435L53.2907-87.1655L58.286-82.0435L69.1001-71.2252C69.3531-70.9718 69.6701-70.845 69.9871-70.845C70.4977-70.845 71.0665-71.3511 71.0665-71.985C71.0665-72.241 70.9393-72.4944 70.6863-72.7478L54.1171-89.3739C53.862-89.629 53.6081-89.7553 53.2907-89.7553C52.9737-89.7553 52.658-89.629 52.4643-89.3739L35.8336-72.7478C35.5802-72.4944 35.4535-72.241 35.4535-71.985C35.4535-71.3511 35.898-70.845 36.5324-70.845ZM53.2907-23.174C53.926-23.174 54.4968-23.6825 54.4968-24.3788L54.4968-79.2886L54.4299-87.429C54.429-87.9999 53.8616-88.5682 53.2907-88.5682C52.6584-88.5682 52.1528-87.9999 52.152-87.429L52.085-79.2886L52.085-24.3788C52.085-23.6825 52.6559-23.174 53.2907-23.174ZM31.599 13.0415L74.921 13.0415C87.2636 13.0415 94.1209 6.12229 94.1209-6.15846L94.1209-42.616C94.1209-54.8967 87.2636-61.7536 74.921-61.7536L60.689-61.7536L60.689-59.4033L74.921-59.4033C85.7392-59.4033 91.7087-53.372 91.7087-42.6778L91.7087-6.09658C91.7087 4.65983 85.7392 10.6293 74.921 10.6293L31.5371 10.6293C20.8426 10.6293 14.8731 4.65983 14.8731-6.09658L14.8731-42.6778C14.8731-53.372 20.8426-59.4033 31.5371-59.4033L45.8925-59.4033L45.8925-61.7536L31.599-61.7536C19.3182-61.7536 12.4609-54.8967 12.4609-42.616L12.4609-6.15846C12.4609 6.12229 19.3182 13.0415 31.599 13.0415Z"/>
  </g>
  <g id="Black-S" transform="matrix(1 0 0 1 2885.99 696)">
   <path d="M33.4961-63.0371C35.0098-63.0371 36.3281-63.6719 37.3047-64.6973L40.5762-68.1641L47.4121-80.0293L54.248-68.1641L57.5195-64.6973C58.4961-63.6719 59.8145-63.0371 61.3281-63.0371C63.8184-63.0371 66.3574-64.9902 66.3574-67.8711C66.3574-69.3359 65.8203-70.3613 64.8438-71.3379L52.3926-83.252C50.7812-84.8145 49.0723-85.4004 47.4121-85.4004C45.752-85.4004 44.043-84.8145 42.4316-83.252L29.9805-71.3379C29.0039-70.3613 28.4668-69.3359 28.4668-67.8711C28.4668-64.9902 31.0059-63.0371 33.4961-63.0371ZM47.4121-25.0977C50.8301-25.0977 53.418-27.8809 53.418-31.0547L53.418-66.0156L52.002-80.3223C51.7578-82.8613 49.9512-84.9121 47.4121-84.9121C44.873-84.9121 43.0664-82.8613 42.8223-80.3223L41.4062-66.0156L41.4062-31.0547C41.4062-27.8809 43.9941-25.0977 47.4121-25.0977ZM28.2227 10.0098L66.6016 10.0098C78.418 10.0098 85.0586 3.36914 85.0586-8.44727L85.0586-38.0859C85.0586-49.9023 78.418-56.543 66.6016-56.543L60.7422-56.543L60.7422-42.3828L65.4297-42.3828C68.9453-42.3828 70.8984-40.3809 70.8984-36.8652L70.8984-9.66797C70.8984-6.15234 68.9453-4.15039 65.4297-4.15039L29.3945-4.15039C25.8789-4.15039 23.9258-6.15234 23.9258-9.66797L23.9258-36.8652C23.9258-40.3809 25.8789-42.3828 29.3945-42.3828L34.082-42.3828L34.082-56.543L28.2227-56.543C16.4062-56.543 9.76562-49.9023 9.76562-38.0859L9.76562-8.44727C9.76562 3.36914 16.4062 10.0098 28.2227 10.0098Z"/>
  </g>
  <g id="Heavy-S" transform="matrix(1 0 0 1 2590.05 696)">
   <path d="M32.9429-63.2906C34.2952-63.2906 35.5329-63.8563 36.4173-64.801L40.1959-68.8325L46.6284-79.1995L53.0726-68.8325L56.8396-64.801C57.7355-63.8563 58.9501-63.2906 60.314-63.2906C62.6429-63.2906 64.9053-65.0824 64.9053-67.6982C64.9053-69.0478 64.4028-69.9925 63.5069-70.9L51.0327-82.8255C49.5942-84.2267 48.1157-84.7435 46.6284-84.7435C45.1527-84.7435 43.6742-84.2267 42.2242-82.8255L29.7615-70.9C28.8541-69.9925 28.3631-69.0478 28.3631-67.6982C28.3631-65.0824 30.614-63.2906 32.9429-63.2906ZM46.6284-25.2705C49.6892-25.2705 52.0466-27.7656 52.0466-30.6168L52.0466-66.3153L50.8265-79.8613C50.6169-82.1814 48.9485-84.0593 46.6284-84.0593C44.3199-84.0593 42.6515-82.1814 42.442-79.8613L41.2219-66.3153L41.2219-30.6168C41.2219-27.7656 43.5793-25.2705 46.6284-25.2705ZM27.6925 8.69598L65.5759 8.69598C77.0581 8.69598 83.5028 2.25127 83.5028-9.23093L83.5028-38.8696C83.5028-50.3518 77.0581-56.785 65.5759-56.785L59.4399-56.785L59.4399-44.3074L64.6806-44.3074C68.7494-44.3074 71.0252-41.9943 71.0252-37.937L71.0252-10.1635C71.0252-6.09472 68.7494-3.78161 64.6806-3.78161L28.5878-3.78161C24.519-3.78161 22.2432-6.09472 22.2432-10.1635L22.2432-37.937C22.2432-41.9943 24.519-44.3074 28.5878-44.3074L33.817-44.3074L33.817-56.785L27.6925-56.785C16.2103-56.785 9.76562-50.3518 9.76562-38.8696L9.76562-9.23093C9.76562 2.25127 16.2103 8.69598 27.6925 8.69598Z"/>
  </g>
  <g id="Bold-S" transform="matrix(1 0 0 1 2294.21 696)">
   <path d="M32.3242-63.5742C33.4961-63.5742 34.6436-64.0625 35.4248-64.917L39.7705-69.5801L45.752-78.2715L51.7578-69.5801L56.0791-64.917C56.8848-64.0625 57.9834-63.5742 59.1797-63.5742C61.3281-63.5742 63.2812-65.1855 63.2812-67.5049C63.2812-68.7256 62.8174-69.5801 62.0117-70.4102L49.5117-82.3486C48.2666-83.5693 47.0459-84.0088 45.752-84.0088C44.4824-84.0088 43.2617-83.5693 41.9922-82.3486L29.5166-70.4102C28.6865-69.5801 28.2471-68.7256 28.2471-67.5049C28.2471-65.1855 30.1758-63.5742 32.3242-63.5742ZM45.752-25.4639C48.4131-25.4639 50.5127-27.6367 50.5127-30.127L50.5127-66.6504L49.5117-79.3457C49.3408-81.4209 47.8271-83.1055 45.752-83.1055C43.7012-83.1055 42.1875-81.4209 42.0166-79.3457L41.0156-66.6504L41.0156-30.127C41.0156-27.6367 43.1152-25.4639 45.752-25.4639ZM27.0996 7.22656L64.4287 7.22656C75.5371 7.22656 81.7627 1.00098 81.7627-10.1074L81.7627-39.7461C81.7627-50.8545 75.5371-57.0557 64.4287-57.0557L57.9834-57.0557L57.9834-46.46L63.8428-46.46C68.5303-46.46 71.167-43.7988 71.167-39.1357L71.167-10.7178C71.167-6.03027 68.5303-3.36914 63.8428-3.36914L27.6855-3.36914C22.998-3.36914 20.3613-6.03027 20.3613-10.7178L20.3613-39.1357C20.3613-43.7988 22.998-46.46 27.6855-46.46L33.5205-46.46L33.5205-57.0557L27.0996-57.0557C15.9912-57.0557 9.76562-50.8545 9.76562-39.7461L9.76562-10.1074C9.76562 1.00098 15.9912 7.22656 27.0996 7.22656Z"/>
  </g>
  <g id="Semibold-S" transform="matrix(1 0 0 1 1998.1 696)">
   <path d="M31.8977-63.7697C32.9451-63.7697 34.0304-64.2047 34.7405-64.997L39.4772-70.0955L45.1477-77.6316L50.8514-70.0955L55.5548-64.997C56.2982-64.2047 57.3169-63.7697 58.3977-63.7697C60.4217-63.7697 62.1615-65.2566 62.1615-67.3716C62.1615-68.5034 61.7243-69.2957 60.9809-70.0725L48.4631-82.0198C47.3513-83.1161 46.3083-83.5022 45.1477-83.5022C44.0203-83.5022 42.9773-83.1161 41.8322-82.0198L29.3478-70.0725C28.571-69.2957 28.1671-68.5034 28.1671-67.3716C28.1671-65.2566 29.8736-63.7697 31.8977-63.7697ZM45.1477-25.5972C47.5333-25.5972 49.4552-27.5479 49.4552-29.7893L49.4552-66.8814L48.6053-78.9902C48.461-80.8966 47.054-82.4479 45.1477-82.4479C43.2746-82.4479 41.8676-80.8966 41.7233-78.9902L40.8734-66.8814L40.8734-29.7893C40.8734-27.5479 42.7953-25.5972 45.1477-25.5972ZM26.6908 6.21348L63.6378 6.21348C74.4885 6.21348 80.563 0.138965 80.563-10.7117L80.563-40.3504C80.563-51.2011 74.4885-57.2423 63.6378-57.2423L56.9792-57.2423L56.9792-47.944L63.2651-47.944C68.3792-47.944 71.2647-45.043 71.2647-39.9622L71.2647-11.0999C71.2647-5.98584 68.3792-3.08477 63.2651-3.08477L27.0635-3.08477C21.9494-3.08477 19.0639-5.98584 19.0639-11.0999L19.0639-39.9622C19.0639-45.043 21.9494-47.944 27.0635-47.944L33.3161-47.944L33.3161-57.2423L26.6908-57.2423C15.8401-57.2423 9.76562-51.2011 9.76562-40.3504L9.76562-10.7117C9.76562 0.138965 15.8401 6.21348 26.6908 6.21348Z"/>
  </g>
  <g id="Medium-S" transform="matrix(1 0 0 1 1701.85 696)">
   <path d="M31.5742-63.918C32.5273-63.918 33.5654-64.3125 34.2217-65.0576L39.2549-70.4863L44.6895-77.1465L50.1641-70.4863L55.1572-65.0576C55.8535-64.3125 56.8115-63.918 57.8047-63.918C59.7344-63.918 61.3125-65.3105 61.3125-67.2705C61.3125-68.335 60.8955-69.0801 60.1992-69.8164L47.668-81.7705C46.6572-82.7725 45.749-83.1182 44.6895-83.1182C43.6699-83.1182 42.7617-82.7725 41.7109-81.7705L29.2197-69.8164C28.4834-69.0801 28.1064-68.335 28.1064-67.2705C28.1064-65.3105 29.6445-63.918 31.5742-63.918ZM44.6895-25.6982C46.8662-25.6982 48.6533-27.4805 48.6533-29.5332L48.6533-67.0566L47.918-78.7207C47.7939-80.499 46.4678-81.9492 44.6895-81.9492C42.9512-81.9492 41.625-80.499 41.501-78.7207L40.7656-67.0566L40.7656-29.5332C40.7656-27.4805 42.5527-25.6982 44.6895-25.6982ZM26.3809 5.44531L63.0381 5.44531C73.6934 5.44531 79.6533-0.514648 79.6533-11.1699L79.6533-40.8086C79.6533-51.4639 73.6934-57.3838 63.0381-57.3838L56.2178-57.3838L56.2178-49.0693L62.8271-49.0693C68.2646-49.0693 71.3389-45.9863 71.3389-40.5889L71.3389-11.3896C71.3389-5.95215 68.2646-2.86914 62.8271-2.86914L26.5918-2.86914C21.1543-2.86914 18.0801-5.95215 18.0801-11.3896L18.0801-40.5889C18.0801-45.9863 21.1543-49.0693 26.5918-49.0693L33.1611-49.0693L33.1611-57.3838L26.3809-57.3838C15.7256-57.3838 9.76562-51.4639 9.76562-40.8086L9.76562-11.1699C9.76562-0.514648 15.7256 5.44531 26.3809 5.44531Z"/>
  </g>
  <g id="Regular-S" transform="matrix(1 0 0 1 1405.73 696)">
   <path d="M31.1523-64.1113C31.9824-64.1113 32.959-64.4531 33.5449-65.1367L38.9648-70.9961L44.0918-76.5137L49.2676-70.9961L54.6387-65.1367C55.2734-64.4531 56.1523-64.1113 57.0312-64.1113C58.8379-64.1113 60.2051-65.3809 60.2051-67.1387C60.2051-68.1152 59.8145-68.7988 59.1797-69.4824L46.6309-81.4453C45.752-82.3242 45.0195-82.6172 44.0918-82.6172C43.2129-82.6172 42.4805-82.3242 41.5527-81.4453L29.0527-69.4824C28.3691-68.7988 28.0273-68.1152 28.0273-67.1387C28.0273-65.3809 29.3457-64.1113 31.1523-64.1113ZM44.0918-25.8301C45.9961-25.8301 47.6074-27.3926 47.6074-29.1992L47.6074-67.2852L47.0215-78.3691C46.9238-79.9805 45.7031-81.2988 44.0918-81.2988C42.5293-81.2988 41.3086-79.9805 41.2109-78.3691L40.625-67.2852L40.625-29.1992C40.625-27.3926 42.2363-25.8301 44.0918-25.8301ZM25.9766 4.44336L62.2559 4.44336C72.6562 4.44336 78.4668-1.36719 78.4668-11.7676L78.4668-41.4062C78.4668-51.8066 72.6562-57.5684 62.2559-57.5684L55.2246-57.5684L55.2246-50.5371L62.2559-50.5371C68.1152-50.5371 71.4355-47.2168 71.4355-41.4062L71.4355-11.7676C71.4355-5.9082 68.1152-2.58789 62.2559-2.58789L25.9766-2.58789C20.1172-2.58789 16.7969-5.9082 16.7969-11.7676L16.7969-41.4062C16.7969-47.2168 20.1172-50.5371 25.9766-50.5371L32.959-50.5371L32.959-57.5684L25.9766-57.5684C15.5762-57.5684 9.76562-51.8066 9.76562-41.4062L9.76562-11.7676C9.76562-1.36719 15.5762 4.44336 25.9766 4.44336Z"/>
  </g>
  <g id="Light-S" transform="matrix(1 0 0 1 1109.75 696)">
   <path d="M30.3652-63.8086C31.0137-63.8086 31.7632-64.0747 32.228-64.6069L38.5864-71.2837L43.3652-76.332L48.1475-71.2837L54.4873-64.6069C54.9858-64.0747 55.668-63.8086 56.3501-63.8086C57.7178-63.8086 58.7974-64.8057 58.7974-66.1699C58.7974-66.9043 58.4976-67.4365 57.999-67.9688L45.314-80.2647C44.647-80.9317 44.0811-81.1641 43.3652-81.1641C42.6831-81.1641 42.1021-80.9317 41.4165-80.2647L28.75-67.9688C28.2178-67.4365 27.9517-66.9043 27.9517-66.1699C27.9517-64.8057 28.9673-63.8086 30.3652-63.8086ZM43.3652-25.8149C44.8306-25.8149 46.0786-27.0142 46.0786-28.4273L46.0786-68.0571L45.6592-77.6729C45.5918-78.9209 44.6133-79.9668 43.3652-79.9668C42.1357-79.9668 41.1724-78.9209 41.105-77.6729L40.6855-68.0571L40.6855-28.4273C40.6855-27.0142 41.9336-25.8149 43.3652-25.8149ZM25.5981 3.86817L61.1509 3.86817C71.3242 3.86817 76.9985-1.82129 76.9985-11.9795L76.9985-41.2852C76.9985-51.4434 71.3242-57.084 61.1509-57.084L52.833-57.084L52.833-51.6724L61.1509-51.6724C67.8276-51.6724 71.5718-47.9131 71.5718-41.3003L71.5718-11.9644C71.5718-5.30274 67.8276-1.5586 61.1509-1.5586L25.583-1.5586C18.9365-1.5586 15.1924-5.30274 15.1924-11.9644L15.1924-41.3003C15.1924-47.9131 18.9365-51.6724 25.583-51.6724L33.8975-51.6724L33.8975-57.084L25.5981-57.084C15.4399-57.084 9.76562-51.4434 9.76562-41.2852L9.76562-11.9795C9.76562-1.82129 15.4399 3.86817 25.5981 3.86817Z"/>
  </g>
  <g id="Thin-S" transform="matrix(1 0 0 1 814.011 696)">
   <path d="M29.3242-63.4082C29.7324-63.4082 30.1817-63.5742 30.4864-63.9063L38.0859-71.6641L42.4043-76.0918L46.666-71.6641L54.2871-63.9063C54.6055-63.5742 55.0274-63.4082 55.4492-63.4082C56.2363-63.4082 56.9356-64.0449 56.9356-64.8887C56.9356-65.3028 56.7559-65.6348 56.4375-65.9668L43.5723-78.7031C43.1856-79.0899 42.8399-79.2422 42.4043-79.2422C41.9824-79.2422 41.6016-79.0899 41.2363-78.7031L28.3496-65.9668C28.0176-65.6348 27.8516-65.3028 27.8516-64.8887C27.8516-64.0449 28.4668-63.4082 29.3242-63.4082ZM42.4043-25.7949C43.2891-25.7949 44.0567-26.5137 44.0567-27.4063L44.0567-69.0781L43.8574-76.752C43.8301-77.5196 43.1719-78.2051 42.4043-78.2051C41.6152-78.2051 40.9922-77.5196 40.9648-76.752L40.7656-69.0781L40.7656-27.4063C40.7656-26.5137 41.5332-25.7949 42.4043-25.7949ZM25.0977 3.10743L59.6895 3.10743C69.5625 3.10743 75.0567-2.42187 75.0567-12.2598L75.0567-41.125C75.0567-50.9629 69.5625-56.4434 59.6895-56.4434L49.67-56.4434L49.67-53.1738L59.6895-53.1738C67.4473-53.1738 71.752-48.834 71.752-41.1602L71.752-12.2246C71.752-4.50196 67.4473-0.197284 59.6895-0.197284L25.0625-0.197284C17.375-0.197284 13.0703-4.50196 13.0703-12.2246L13.0703-41.1602C13.0703-48.834 17.375-53.1738 25.0625-53.1738L35.1387-53.1738L35.1387-56.4434L25.0977-56.4434C15.2598-56.4434 9.76562-50.9629 9.76562-41.125L9.76562-12.2598C9.76562-2.42187 15.2598 3.10743 25.0977 3.10743Z"/>
  </g>
  <g id="Ultralight-S" transform="matrix(1 0 0 1 517.797 696)">
   <path d="M28.791-63.2031C29.0762-63.2031 29.3716-63.3179 29.5943-63.5474L37.8296-71.8589L41.9121-75.9688L45.9073-71.8589L54.1846-63.5474C54.4107-63.3179 54.6992-63.2031 54.9878-63.2031C55.4776-63.2031 55.982-63.6553 55.982-64.2324C55.982-64.4825 55.8638-64.7119 55.6377-64.9414L42.6802-77.9033C42.437-78.1465 42.2041-78.2578 41.9121-78.2578C41.6235-78.2578 41.3452-78.1465 41.144-77.9033L28.1445-64.9414C27.915-64.7119 27.8003-64.4825 27.8003-64.2324C27.8003-63.6553 28.2105-63.2031 28.791-63.2031ZM41.9121-25.7847C42.4995-25.7847 43.021-26.2573 43.021-26.8833L43.021-69.6011L42.9346-76.2803C42.9278-76.8018 42.4336-77.3028 41.9121-77.3028C41.3486-77.3028 40.8999-76.8018 40.8931-76.2803L40.8066-69.6011L40.8066-26.8833C40.8066-26.2573 41.3281-25.7847 41.9121-25.7847ZM24.8413 2.71779L58.9409 2.71779C68.6602 2.71779 74.062-2.72948 74.062-12.4033L74.062-41.043C74.062-50.7168 68.6602-56.1152 58.9409-56.1152L48.0499-56.1152L48.0499-53.9428L58.9409-53.9428C67.2524-53.9428 71.8442-49.3056 71.8442-41.0884L71.8442-12.3579C71.8442-4.09181 67.2524 0.499976 58.9409 0.499976L24.7959 0.499976C16.5752 0.499976 11.9834-4.09181 11.9834-12.3579L11.9834-41.0884C11.9834-49.3056 16.5752-53.9428 24.7959-53.9428L35.7744-53.9428L35.7744-56.1152L24.8413-56.1152C15.1675-56.1152 9.76562-50.7168 9.76562-41.043L9.76562-12.4033C9.76562-2.72948 15.1675 2.71779 24.8413 2.71779Z"/>
  </g>
 </g>
</svg>
