<?xml version="1.0" encoding="UTF-8"?>
<!--Generator: Apple Native CoreSVG 341-->
<!DOCTYPE svg
PUBLIC "-//W3C//DTD SVG 1.1//EN"
       "http://www.w3.org/Graphics/SVG/1.1/DTD/svg11.dtd">
<svg version="1.1" xmlns="http://www.w3.org/2000/svg" xmlns:xlink="http://www.w3.org/1999/xlink" viewBox="0 0 3300 2200">
 <g id="Notes">
  <rect height="2200" id="artboard" style="fill:white;opacity:1" width="3300" x="0" y="0"/>
  <line style="fill:none;stroke:black;opacity:1;stroke-width:0.5;" x1="263" x2="3036" y1="292" y2="292"/>
  <text style="stroke:none;fill:black;font-family:sans-serif;font-size:13;font-weight:bold;" transform="matrix(1 0 0 1 263 322)">Weight/Scale Variations</text>
  <text style="stroke:none;fill:black;font-family:sans-serif;font-size:13;text-anchor:middle;" transform="matrix(1 0 0 1 559.711 322)">Ultralight</text>
  <text style="stroke:none;fill:black;font-family:sans-serif;font-size:13;text-anchor:middle;" transform="matrix(1 0 0 1 856.422 322)">Thin</text>
  <text style="stroke:none;fill:black;font-family:sans-serif;font-size:13;text-anchor:middle;" transform="matrix(1 0 0 1 1153.13 322)">Light</text>
  <text style="stroke:none;fill:black;font-family:sans-serif;font-size:13;text-anchor:middle;" transform="matrix(1 0 0 1 1449.84 322)">Regular</text>
  <text style="stroke:none;fill:black;font-family:sans-serif;font-size:13;text-anchor:middle;" transform="matrix(1 0 0 1 1746.56 322)">Medium</text>
  <text style="stroke:none;fill:black;font-family:sans-serif;font-size:13;text-anchor:middle;" transform="matrix(1 0 0 1 2043.27 322)">Semibold</text>
  <text style="stroke:none;fill:black;font-family:sans-serif;font-size:13;text-anchor:middle;" transform="matrix(1 0 0 1 2339.98 322)">Bold</text>
  <text style="stroke:none;fill:black;font-family:sans-serif;font-size:13;text-anchor:middle;" transform="matrix(1 0 0 1 2636.69 322)">Heavy</text>
  <text style="stroke:none;fill:black;font-family:sans-serif;font-size:13;text-anchor:middle;" transform="matrix(1 0 0 1 2933.4 322)">Black</text>
  <line style="fill:none;stroke:black;opacity:1;stroke-width:0.5;" x1="263" x2="3036" y1="1903" y2="1903"/>
  <g transform="matrix(0.2 0 0 0.2 263 1933)">
   <path d="m46.2402 4.15039c21.7773 0 39.4531-17.627 39.4531-39.4043s-17.6758-39.4043-39.4531-39.4043c-21.7285 0-39.4043 17.627-39.4043 39.4043s17.6758 39.4043 39.4043 39.4043Zm0-7.42188c-17.6758 0-31.9336-14.3066-31.9336-31.9824s14.2578-31.9824 31.9336-31.9824 31.9824 14.3066 31.9824 31.9824-14.3066 31.9824-31.9824 31.9824Zm3.61328-17.7734v-28.4668c0-2.24609-1.46484-3.75977-3.71094-3.75977-2.14844 0-3.61328 1.51367-3.61328 3.75977v28.4668c0 2.19727 1.46484 3.71094 3.61328 3.71094 2.24609 0 3.71094-1.51367 3.71094-3.71094Zm-17.8223-10.5957h28.418c2.19727 0 3.71094-1.46484 3.71094-3.61328 0-2.19727-1.51367-3.71094-3.71094-3.71094h-28.418c-2.24609 0-3.75977 1.51367-3.75977 3.71094 0 2.14844 1.51367 3.61328 3.75977 3.61328Z"/>
  </g>
  <g transform="matrix(0.2 0 0 0.2 281.506 1933)">
   <path d="m58.5449 14.5508c27.4902 0 49.8047-22.3145 49.8047-49.8047s-22.3145-49.8047-49.8047-49.8047-49.8047 22.3145-49.8047 49.8047 22.3145 49.8047 49.8047 49.8047Zm0-8.30078c-22.9492 0-41.5039-18.5547-41.5039-41.5039s18.5547-41.5039 41.5039-41.5039 41.5039 18.5547 41.5039 41.5039-18.5547 41.5039-41.5039 41.5039Zm4.05273-23.0957v-36.9141c0-2.49023-1.70898-4.19922-4.15039-4.19922-2.39258 0-4.05273 1.70898-4.05273 4.19922v36.9141c0 2.44141 1.66016 4.15039 4.05273 4.15039 2.44141 0 4.15039-1.66016 4.15039-4.15039Zm-22.5586-14.4043h36.9629c2.44141 0 4.15039-1.61133 4.15039-4.00391 0-2.44141-1.70898-4.15039-4.15039-4.15039h-36.9629c-2.49023 0-4.15039 1.70898-4.15039 4.15039 0 2.39258 1.66016 4.00391 4.15039 4.00391Z"/>
  </g>
  <g transform="matrix(0.2 0 0 0.2 304.924 1933)">
   <path d="m74.8535 28.3203c35.1074 0 63.623-28.4668 63.623-63.5742s-28.5156-63.623-63.623-63.623-63.5742 28.5156-63.5742 63.623 28.4668 63.5742 63.5742 63.5742Zm0-9.08203c-30.127 0-54.4922-24.3652-54.4922-54.4922s24.3652-54.4922 54.4922-54.4922 54.4922 24.3652 54.4922 54.4922-24.3652 54.4922-54.4922 54.4922Zm4.44336-30.3223v-48.4863c0-2.73438-1.85547-4.63867-4.54102-4.63867-2.58789 0-4.44336 1.9043-4.44336 4.63867v48.4863c0 2.68555 1.85547 4.58984 4.44336 4.58984 2.68555 0 4.54102-1.85547 4.54102-4.58984Zm-28.7109-19.7754h48.4863c2.68555 0 4.58984-1.80664 4.58984-4.39453 0-2.73438-1.85547-4.58984-4.58984-4.58984h-48.4863c-2.73438 0-4.58984 1.85547-4.58984 4.58984 0 2.58789 1.85547 4.39453 4.58984 4.39453Z"/>
  </g>
  <text style="stroke:none;fill:black;font-family:sans-serif;font-size:13;font-weight:bold;" transform="matrix(1 0 0 1 263 1953)">Design Variations</text>
  <text style="stroke:none;fill:black;font-family:sans-serif;font-size:13;" transform="matrix(1 0 0 1 263 1971)">Symbols are supported in up to nine weights and three scales.</text>
  <text style="stroke:none;fill:black;font-family:sans-serif;font-size:13;" transform="matrix(1 0 0 1 263 1989)">For optimal layout with text and other symbols, vertically align</text>
  <text style="stroke:none;fill:black;font-family:sans-serif;font-size:13;" transform="matrix(1 0 0 1 263 2007)">symbols with the adjacent text.</text>
  <line style="fill:none;stroke:#00AEEF;stroke-width:0.5;opacity:1.0;" x1="776" x2="776" y1="1919" y2="1933"/>
  <g transform="matrix(0.2 0 0 0.2 776 1933)">
   <path d="m16.5527 0.78125c2.58789 0 3.85742-0.976562 4.78516-3.71094l20.5566-57.5195h0.244141l20.6055 57.5195c0.927734 2.73438 2.19727 3.71094 4.73633 3.71094 2.58789 0 4.24805-1.5625 4.24805-4.00391 0-0.830078-0.146484-1.61133-0.537109-2.63672l-22.9004-60.9863c-1.12305-2.97852-3.125-4.49219-6.25-4.49219-3.02734 0-5.07812 1.46484-6.15234 4.44336l-22.9004 61.084c-0.390625 1.02539-0.537109 1.80664-0.537109 2.63672 0 2.44141 1.5625 3.95508 4.10156 3.95508Zm10.2051-20.9473h30.6641c2.00195 0 3.66211-1.66016 3.66211-3.66211 0-2.05078-1.66016-3.66211-3.66211-3.66211h-30.6641c-2.00195 0-3.66211 1.61133-3.66211 3.66211 0 2.00195 1.66016 3.66211 3.66211 3.66211Z"/>
  </g>
  <line style="fill:none;stroke:#00AEEF;stroke-width:0.5;opacity:1.0;" x1="792.836" x2="792.836" y1="1919" y2="1933"/>
  <text style="stroke:none;fill:black;font-family:sans-serif;font-size:13;font-weight:bold;" transform="matrix(1 0 0 1 776 1953)">Margins</text>
  <text style="stroke:none;fill:black;font-family:sans-serif;font-size:13;" transform="matrix(1 0 0 1 776 1971)">Leading and trailing margins on the left and right side of each symbol</text>
  <text style="stroke:none;fill:black;font-family:sans-serif;font-size:13;" transform="matrix(1 0 0 1 776 1989)">can be adjusted by modifying the x-location of the margin guidelines.</text>
  <text style="stroke:none;fill:black;font-family:sans-serif;font-size:13;" transform="matrix(1 0 0 1 776 2007)">Modifications are automatically applied proportionally to all</text>
  <text style="stroke:none;fill:black;font-family:sans-serif;font-size:13;" transform="matrix(1 0 0 1 776 2025)">scales and weights.</text>
  <g transform="matrix(0.2 0 0 0.2 1289 1933)">
   <path d="m14.209 13.1348 7.86133 7.86133c4.29688 4.39453 9.32617 4.10156 13.8672-1.02539l60.6934-68.2129-4.88281-4.88281-60.2539 67.6758c-1.80664 1.95312-3.4668 2.44141-5.81055 0.0976562l-5.17578-5.12695c-2.29492-2.29492-1.80664-3.95508 0.195312-5.81055l67.4805-62.1582-4.88281-4.83398-68.0664 62.5977c-4.98047 4.58984-5.32227 9.47266-1.02539 13.8184Zm44.873-97.4609c-2.05078 2.00195-2.24609 4.88281-1.07422 6.78711 1.12305 1.80664 3.4668 3.02734 6.5918 2.24609 5.85938-1.66016 12.5977-2.39258 18.8965 0.927734l-2.68555 7.12891c-1.61133 4.00391-0.732422 6.88477 1.70898 9.42383l10.2539 10.3027c2.34375 2.39258 4.54102 2.44141 7.08008 1.95312l4.44336-0.732422 2.58789 2.53906-0.195312 2.24609c-0.0976562 2.29492 0.537109 4.29688 2.7832 6.49414l3.36914 3.32031c2.29492 2.29492 5.51758 2.49023 7.8125 0.195312l12.9883-13.0371c2.29492-2.34375 2.14844-5.37109-0.195312-7.66602l-3.41797-3.41797c-2.19727-2.19727-4.05273-3.02734-6.34766-2.88086l-2.34375 0.244141-2.44141-2.44141 1.02539-4.6875c0.634766-2.73438-0.244141-4.98047-2.88086-7.61719l-11.2793-11.1816c-12.9395-12.8418-35.5957-11.0352-46.6797-0.146484Zm7.08008 2.05078c8.78906-6.39648 25.9766-5.66406 33.6914 1.95312l12.3047 12.207c1.02539 1.02539 1.2207 1.80664 0.927734 3.32031l-1.46484 6.64062 6.73828 6.68945 4.39453-0.244141c1.12305-0.0488281 1.51367 0.0488281 2.34375 0.878906l2.53906 2.49023-10.8398 10.8398-2.49023-2.49023c-0.830078-0.878906-0.976562-1.2207-0.927734-2.39258l0.292969-4.3457-6.68945-6.73828-6.83594 1.17188c-1.41602 0.292969-2.05078 0.195312-3.17383-0.878906l-8.93555-8.88672c-1.07422-1.02539-1.17188-1.70898-0.488281-3.36914l4.58984-11.4746c-6.10352-6.34766-17.041-7.51953-25.5859-4.58984-0.683594 0.244141-0.927734-0.390625-0.390625-0.78125Z"/>
  </g>
  <text style="stroke:none;fill:black;font-family:sans-serif;font-size:13;font-weight:bold;" transform="matrix(1 0 0 1 1289 1953)">Exporting</text>
  <text style="stroke:none;fill:black;font-family:sans-serif;font-size:13;" transform="matrix(1 0 0 1 1289 1971)">Symbols should be outlined when exporting to ensure the</text>
  <text style="stroke:none;fill:black;font-family:sans-serif;font-size:13;" transform="matrix(1 0 0 1 1289 1989)">design is preserved when submitting to Xcode.</text>
  <text id="template-version" style="stroke:none;fill:black;font-family:sans-serif;font-size:13;text-anchor:end;" transform="matrix(1 0 0 1 3036 1933)">Template v.2.0</text>
  <text style="stroke:none;fill:black;font-family:sans-serif;font-size:13;text-anchor:end;" transform="matrix(1 0 0 1 3036 1951)">Requires Xcode 12 or greater</text>
  <text id="descriptive-name" style="stroke:none;fill:black;font-family:sans-serif;font-size:13;text-anchor:end;" transform="matrix(1 0 0 1 3036 1969)">Generated from arrow.down.circle.fill</text>
  <text style="stroke:none;fill:black;font-family:sans-serif;font-size:13;text-anchor:end;" transform="matrix(1 0 0 1 3036 1987)">Typeset at 100.0 points</text>
  <text style="stroke:none;fill:black;font-family:sans-serif;font-size:13;" transform="matrix(1 0 0 1 263 726)">Small</text>
  <text style="stroke:none;fill:black;font-family:sans-serif;font-size:13;" transform="matrix(1 0 0 1 263 1156)">Medium</text>
  <text style="stroke:none;fill:black;font-family:sans-serif;font-size:13;" transform="matrix(1 0 0 1 263 1586)">Large</text>
 </g>
 <g id="Guides">
  <g id="H-reference" style="fill:#27AAE1;stroke:none;" transform="matrix(1 0 0 1 339 696)">
   <path d="M0.993654 0L3.63775 0L29.3281-67.1323L30.0303-67.1323L30.0303-70.459L28.1226-70.459ZM11.6885-24.4799L46.9815-24.4799L46.2315-26.7285L12.4385-26.7285ZM55.1196 0L57.7637 0L30.6382-70.459L29.4326-70.459L29.4326-67.1323Z"/>
  </g>
  <line id="Baseline-S" style="fill:none;stroke:#27AAE1;opacity:1;stroke-width:0.5;" x1="263" x2="3036" y1="696" y2="696"/>
  <line id="Capline-S" style="fill:none;stroke:#27AAE1;opacity:1;stroke-width:0.5;" x1="263" x2="3036" y1="625.541" y2="625.541"/>
  <g id="H-reference" style="fill:#27AAE1;stroke:none;" transform="matrix(1 0 0 1 339 1126)">
   <path d="M0.993654 0L3.63775 0L29.3281-67.1323L30.0303-67.1323L30.0303-70.459L28.1226-70.459ZM11.6885-24.4799L46.9815-24.4799L46.2315-26.7285L12.4385-26.7285ZM55.1196 0L57.7637 0L30.6382-70.459L29.4326-70.459L29.4326-67.1323Z"/>
  </g>
  <line id="Baseline-M" style="fill:none;stroke:#27AAE1;opacity:1;stroke-width:0.5;" x1="263" x2="3036" y1="1126" y2="1126"/>
  <line id="Capline-M" style="fill:none;stroke:#27AAE1;opacity:1;stroke-width:0.5;" x1="263" x2="3036" y1="1055.54" y2="1055.54"/>
  <g id="H-reference" style="fill:#27AAE1;stroke:none;" transform="matrix(1 0 0 1 339 1556)">
   <path d="M0.993654 0L3.63775 0L29.3281-67.1323L30.0303-67.1323L30.0303-70.459L28.1226-70.459ZM11.6885-24.4799L46.9815-24.4799L46.2315-26.7285L12.4385-26.7285ZM55.1196 0L57.7637 0L30.6382-70.459L29.4326-70.459L29.4326-67.1323Z"/>
  </g>
  <line id="Baseline-L" style="fill:none;stroke:#27AAE1;opacity:1;stroke-width:0.5;" x1="263" x2="3036" y1="1556" y2="1556"/>
  <line id="Capline-L" style="fill:none;stroke:#27AAE1;opacity:1;stroke-width:0.5;" x1="263" x2="3036" y1="1485.54" y2="1485.54"/>
  <line id="right-margin" style="fill:none;stroke:#00AEEF;stroke-width:0.5;opacity:1.0;" x1="1508.37" x2="1508.37" y1="1030.79" y2="1150.12"/>
  <line id="left-margin" style="fill:none;stroke:#00AEEF;stroke-width:0.5;opacity:1.0;" x1="1391.32" x2="1391.32" y1="1030.79" y2="1150.12"/>
 </g>
 <g id="Symbols">
  <g id="Black-L" transform="matrix(1 0 0 1 2854.19 1556)">
   <path d="M79.1958 32.6673C116.722 32.6673 147.154 2.23586 147.154-35.2697C147.154-72.7753 116.722-103.207 79.1958-103.207C41.6902-103.207 11.2588-72.7753 11.2588-35.2697C11.2588 2.23586 41.6902 32.6673 79.1958 32.6673ZM79.2166 0.649355C76.5957 0.649355 73.9996-0.237226 71.4394-2.68057L49.0328-24.1169C47.4516-25.7553 46.5234-27.4157 46.5234-29.8238C46.5234-34.422 50.5618-37.6232 54.6552-37.6232C57.0801-37.6232 59.2547-36.5394 60.815-34.9374L67.7076-27.5433L70.3035-22.6084L69.6517-32.1513L69.6517-61.7239C69.6517-66.8334 73.8747-71.1888 79.2166-71.1888C84.6378-71.1888 88.7815-66.8334 88.7815-61.7239L88.7815-32.1513L88.1506-22.6096L90.7232-27.5433L97.6378-34.9374C99.2346-36.5978 101.352-37.6232 103.777-37.6232C107.848-37.6232 111.909-34.422 111.909-29.8238C111.909-27.4157 111.001-25.7553 109.399-24.1169L87.0146-2.68057C84.4533-0.237226 81.8584 0.649355 79.2166 0.649355Z"/>
  </g>
  <g id="Heavy-L" transform="matrix(1 0 0 1 2558.42 1556)">
   <path d="M78.2532 31.7248C115.252 31.7248 145.278 1.69868 145.278-35.2697C145.278-72.2381 115.252-102.264 78.2532-102.264C41.2849-102.264 11.2588-72.2381 11.2588-35.2697C11.2588 1.69868 41.2849 31.7248 78.2532 31.7248ZM78.2834-0.144238C75.9862-0.144238 73.7651-0.916665 71.5237-3.0688L49.3376-24.3326C47.9109-25.7984 47.0781-27.2999 47.0781-29.4488C47.0781-33.5468 50.6009-36.4203 54.3275-36.4203C56.4607-36.4203 58.4311-35.4782 59.8276-34.0213L67.4969-25.8215L70.4182-21.075L69.8298-30.6393L69.8298-62.0466C69.8298-66.5731 73.584-70.3952 78.2834-70.3952C83.0577-70.3952 86.737-66.5731 86.737-62.0466L86.737-30.6393L86.1789-21.0806L89.0588-25.8215L96.7638-34.0213C98.1692-35.5229 100.101-36.4203 102.234-36.4203C105.925-36.4203 109.483-33.5468 109.483-29.4488C109.483-27.2999 108.681-25.7984 107.224-24.3326L85.0733-3.0688C82.8263-0.916665 80.6108-0.144238 78.2834-0.144238Z"/>
  </g>
  <g id="Bold-L" transform="matrix(1 0 0 1 2262.89 1556)">
   <path d="M77.0704 30.5419C113.401 30.5419 142.92 1.02282 142.92-35.2697C142.92-71.5622 113.401-101.081 77.0704-101.081C40.7779-101.081 11.2588-71.5622 11.2588-35.2697C11.2588 1.02282 40.7779 30.5419 77.0704 30.5419ZM77.1084-1.12031C75.2108-1.12031 73.4359-1.75434 71.5939-3.53789L49.6546-24.6462C48.4274-25.8894 47.7174-27.1838 47.7174-29.0026C47.7174-32.4634 50.6098-34.9222 53.8457-34.9222C55.6178-34.9222 57.3197-34.1494 58.509-32.8842L67.1834-23.6706L70.5491-19.0652L70.0452-28.608L70.0452-62.461C70.0452-66.2579 73.208-69.4191 77.1084-69.4191C81.076-69.4191 84.1716-66.2579 84.1716-62.461L84.1716-28.608L83.7056-19.0785L87.0069-23.6706L95.7326-32.8842C96.8998-34.1786 98.5858-34.9222 100.358-34.9222C103.542-34.9222 106.486-32.4634 106.486-29.0026C106.486-27.1838 105.814-25.8894 104.549-24.6462L82.6608-3.53789C80.8056-1.75434 79.044-1.12031 77.1084-1.12031Z"/>
  </g>
  <g id="Semibold-L" transform="matrix(1 0 0 1 1966.99 1556)">
   <path d="M76.2549 29.7265C112.125 29.7265 141.294 0.556883 141.294-35.2697C141.294-71.0963 112.125-100.266 76.2549-100.266C40.4284-100.266 11.2588-71.0963 11.2588-35.2697C11.2588 0.556883 40.4284 29.7265 76.2549 29.7265ZM76.2983-1.79322C74.6762-1.79322 73.2089-2.33182 71.6423-3.86127L49.873-24.8624C48.7834-25.9522 48.1581-27.1038 48.1581-28.695C48.1581-31.7164 50.616-33.8894 53.5136-33.8894C55.0367-33.8894 56.5536-33.2332 57.5999-32.1002L66.9674-22.1877L70.6394-17.6797L70.1936-27.2076L70.1936-62.7468C70.1936-66.0405 72.9487-68.7462 76.2983-68.7462C79.7098-68.7462 82.403-66.0405 82.403-62.7468L82.403-27.2076L82.0006-17.6982L85.5923-22.1877L95.0216-32.1002C96.0246-33.2518 97.5414-33.8894 99.0645-33.8894C101.9-33.8894 104.42-31.7164 104.42-28.695C104.42-27.1038 103.838-25.9522 102.705-24.8624L80.9976-3.86127C79.4126-2.33182 77.9638-1.79322 76.2983-1.79322Z"/>
  </g>
  <g id="Medium-L" transform="matrix(1 0 0 1 1670.9 1556)">
   <path d="M75.6366 29.1081C111.157 29.1081 140.062 0.203591 140.062-35.2697C140.062-70.743 111.157-99.6475 75.6366-99.6475C40.1633-99.6475 11.2588-70.743 11.2588-35.2697C11.2588 0.203591 40.1633 29.1081 75.6366 29.1081ZM75.6841-2.30344C74.2708-2.30344 73.0368-2.7697 71.679-4.10648L50.0387-25.0263C49.0534-25.9997 48.4922-27.0431 48.4922-28.4617C48.4922-31.1501 50.6206-33.1063 53.2618-33.1063C54.5961-33.1063 55.9727-32.5386 56.9106-31.5058L66.8035-21.0634L70.7079-16.6292L70.3061-26.1458L70.3061-62.9634C70.3061-65.8757 72.7522-68.236 75.6841-68.236C78.6739-68.236 81.062-65.8757 81.062-62.9634L81.062-26.1458L80.7077-16.6516L84.5197-21.0634L94.4826-31.5058C95.3611-32.5491 96.7496-33.1063 98.0839-33.1063C100.655-33.1063 102.853-31.1501 102.853-28.4617C102.853-27.0431 102.34-25.9997 101.307-25.0263L79.7366-4.10648C78.3563-2.7697 77.1448-2.30344 75.6841-2.30344Z"/>
  </g>
  <g id="Regular-L" transform="matrix(1 0 0 1 1374.99 1556)">
   <path d="M74.8301 28.3017C109.895 28.3017 138.454-0.257224 138.454-35.2697C138.454-70.2822 109.895-98.8411 74.8301-98.8411C39.8177-98.8411 11.2588-70.2822 11.2588-35.2697C11.2588-0.257224 39.8177 28.3017 74.8301 28.3017ZM74.8829-2.96894C73.7421-2.96894 72.8124-3.34084 71.7269-4.42631L50.2548-25.2402C49.4055-26.0618 48.9281-26.9639 48.9281-28.1574C48.9281-30.4114 50.6267-32.0849 52.9334-32.0849C54.0214-32.0849 55.2149-31.6326 56.0115-30.7305L66.5899-19.5968L70.7972-15.2589L70.453-24.7608L70.453-63.246C70.453-65.6608 72.4958-67.5705 74.8829-67.5705C77.3228-67.5705 79.3129-65.6608 79.3129-63.246L79.3129-24.7608L79.0214-15.2865L83.1207-19.5968L93.7794-30.7305C94.4956-31.6326 95.7168-32.0849 96.8048-32.0849C99.031-32.0849 100.81-30.4114 100.81-28.1574C100.81-26.9639 100.385-26.0618 99.4834-25.2402L78.0917-4.42631C76.9785-3.34084 76.0765-2.96894 74.8829-2.96894Z"/>
  </g>
  <g id="Light-L" transform="matrix(1 0 0 1 1079.2 1556)">
   <path d="M73.9141 27.3856C108.426 27.3856 136.603-0.791611 136.603-35.2697C136.603-69.7478 108.426-97.925 73.9141-97.925C39.436-97.925 11.2588-69.7478 11.2588-35.2697C11.2588-0.791611 39.436 27.3856 73.9141 27.3856ZM73.9477-3.59876C73.0741-3.59876 72.3353-3.89431 71.5552-4.67442L50.083-25.7555C49.4246-26.3672 49.0617-27.0593 49.0617-27.9666C49.0617-29.667 50.3786-30.997 52.1127-30.997C52.9526-30.997 53.8599-30.621 54.4847-29.9289L66.0364-17.9937L70.8163-13.1595L70.5675-22.3369L70.5675-63.6277C70.5675-65.489 72.1332-66.9406 73.9477-66.9406C75.7959-66.9406 77.328-65.489 77.328-63.6277L77.328-22.3369L77.1129-13.2062L81.7656-17.9937L93.3977-29.9289C93.9421-30.621 94.8961-30.997 95.736-30.997C97.3897-30.997 98.7871-29.667 98.7871-27.9666C98.7871-27.0593 98.4578-26.3672 97.7657-25.7555L76.374-4.67442C75.5471-3.89431 74.855-3.59876 73.9477-3.59876Z"/>
  </g>
  <g id="Thin-L" transform="matrix(1 0 0 1 783.716 1556)">
   <path d="M72.7024 26.174C106.482 26.174 134.155-1.49838 134.155-35.2697C134.155-69.041 106.482-96.7134 72.7024-96.7134C38.9311-96.7134 11.2588-69.041 11.2588-35.2697C11.2588-1.49838 38.9311 26.174 72.7024 26.174ZM72.7109-4.43174C72.1907-4.43174 71.7042-4.62632 71.328-5.00256L49.8559-26.437C49.4498-26.7711 49.2384-27.1855 49.2384-27.7142C49.2384-28.6826 50.0504-29.5582 51.0273-29.5582C51.5391-29.5582 52.0677-29.2832 52.4653-28.8687L65.3044-15.8734L70.8415-10.3829L70.7189-19.1312L70.7189-64.1326C70.7189-65.2618 71.6536-66.1077 72.7109-66.1077C73.7766-66.1077 74.7028-65.2618 74.7028-64.1326L74.7028-19.1312L74.5887-10.4549L79.9734-15.8734L92.8929-28.8687C93.2101-29.2832 93.8107-29.5582 94.3225-29.5582C95.2189-29.5582 96.1114-28.6826 96.1114-27.7142C96.1114-27.1855 95.9084-26.7711 95.4939-26.437L74.1022-5.00256C73.654-4.62632 73.2395-4.43174 72.7109-4.43174Z"/>
  </g>
  <g id="Ultralight-L" transform="matrix(1 0 0 1 487.631 1556)">
   <path d="M72.0819 25.5534C105.487 25.5534 132.9-1.86039 132.9-35.2697C132.9-68.679 105.487-96.0928 72.0819-96.0928C38.6726-96.0928 11.2588-68.679 11.2588-35.2697C11.2588-1.86039 38.6726 25.5534 72.0819 25.5534ZM72.0774-4.85839C71.7382-4.85839 71.381-5.00126 71.2116-5.17063L49.7395-26.7861C49.4627-26.9779 49.3289-27.2502 49.3289-27.5849C49.3289-28.1784 49.8824-28.8213 50.4714-28.8213C50.8151-28.8213 51.1498-28.598 51.431-28.3257L64.9294-14.7873L70.8544-8.96072L70.7965-17.4893L70.7965-64.3911C70.7965-65.1455 71.408-65.681 72.0774-65.681C72.7423-65.681 73.3583-65.1455 73.3583-64.3911L73.3583-17.4893L73.2958-9.04564L79.0555-14.7873L92.6343-28.3257C92.8351-28.598 93.2548-28.8213 93.5985-28.8213C94.107-28.8213 94.741-28.1784 94.741-27.5849C94.741-27.2502 94.6026-26.9779 94.3303-26.7861L72.9386-5.17063C72.6843-5.00126 72.4121-4.85839 72.0774-4.85839Z"/>
  </g>
  <g id="Black-M" transform="matrix(1 0 0 1 2871.36 1126)">
   <path d="M62.0422 18.0589C91.4941 18.0589 115.367-5.81424 115.367-35.2606C115.367-64.707 91.4941-88.5802 62.0422-88.5802C32.5958-88.5802 8.72266-64.707 8.72266-35.2606C8.72266-5.81424 32.5958 18.0589 62.0422 18.0589ZM62.0477-6.83594C59.7751-6.83594 57.4674-7.61057 55.2514-9.71243L37.7025-26.5045C36.3706-27.8937 35.585-29.2882 35.585-31.3379C35.585-35.2553 39.1052-37.9703 42.5142-37.9703C44.61-37.9703 46.4313-37.0192 47.7577-35.6818L52.5621-30.5373L54.3711-26.4848L53.8245-33.8157L53.8245-55.5302C53.8245-59.9148 57.4345-63.6854 62.0477-63.6854C66.7236-63.6854 70.2709-59.9148 70.2709-55.5302L70.2709-33.8157L69.7299-26.4845L71.5339-30.5373L76.3436-35.6818C77.7218-37.0763 79.4857-37.9703 81.5815-37.9703C84.9853-37.9703 88.5107-35.2553 88.5107-31.3379C88.5107-29.2882 87.7306-27.8937 86.3932-26.5045L68.8496-9.71243C66.6338-7.61057 64.3258-6.83594 62.0477-6.83594Z"/>
  </g>
  <g id="Heavy-M" transform="matrix(1 0 0 1 2575.48 1126)">
   <path d="M61.2053 17.222C90.1923 17.222 113.704-6.29008 113.704-35.2606C113.704-64.2312 90.1923-87.7433 61.2053-87.7433C32.2348-87.7433 8.72266-64.2312 8.72266-35.2606C8.72266-6.29008 32.2348 17.222 61.2053 17.222ZM61.2218-7.55363C59.241-7.55363 57.2822-8.22371 55.3496-10.0691L38.0163-26.6679C36.8178-27.9077 36.1149-29.1662 36.1149-30.9889C36.1149-34.4683 39.1663-36.8948 42.2695-36.8948C44.103-36.8948 45.7512-36.0752 46.9333-34.8603L52.4071-29.002L54.4814-25.1795L53.9881-32.5613L53.9881-55.8105C53.9881-59.6762 57.1838-62.9677 61.2218-62.9677C65.3198-62.9677 68.4554-59.6762 68.4554-55.8105L68.4554-32.5613L67.9785-25.1818L70.0318-29.002L75.5244-34.8603C76.7314-36.1188 78.3382-36.8948 80.1717-36.8948C83.2563-36.8948 86.3263-34.4683 86.3263-30.9889C86.3263-29.1662 85.6398-27.9077 84.4249-26.6679L67.1103-10.0691C65.1754-8.22371 63.2189-7.55363 61.2218-7.55363Z"/>
  </g>
  <g id="Bold-M" transform="matrix(1 0 0 1 2279.69 1126)">
   <path d="M60.2692 16.2859C88.7361 16.2859 111.844-6.82236 111.844-35.2606C111.844-63.6989 88.7361-86.8071 60.2692-86.8071C31.8309-86.8071 8.72266-63.6989 8.72266-35.2606C8.72266-6.82236 31.8309 16.2859 60.2692 16.2859ZM60.2978-8.35647C58.6435-8.35647 57.0751-8.9096 55.4596-10.468L38.3674-26.8506C37.3181-27.9233 36.7077-29.0298 36.7077-30.5986C36.7077-33.5881 39.2346-35.6917 41.9958-35.6917C43.5358-35.6917 44.9904-35.0192 46.0111-33.9413L52.2337-27.2845L54.6049-23.7193L54.1711-31.1579L54.1711-56.1239C54.1711-59.4093 56.9033-62.1648 60.2978-62.1648C63.7494-62.1648 66.4245-59.4093 66.4245-56.1239L66.4245-31.1579L66.0193-23.7244L68.3516-27.2845L74.608-33.9413C75.6234-35.0478 77.0546-35.6917 78.5947-35.6917C81.3221-35.6917 83.8827-33.5881 83.8827-30.5986C83.8827-29.0298 83.3009-27.9233 82.223-26.8506L65.1646-10.468C63.544-8.9096 61.9807-8.35647 60.2978-8.35647Z"/>
  </g>
  <g id="Semibold-M" transform="matrix(1 0 0 1 1983.62 1126)">
   <path d="M59.6238 15.6405C87.7321 15.6405 110.562-7.18932 110.562-35.2606C110.562-63.332 87.7321-86.1618 59.6238-86.1618C31.5524-86.1618 8.72266-63.332 8.72266-35.2606C8.72266-7.18932 31.5524 15.6405 59.6238 15.6405ZM59.6608-8.90994C58.2315-8.90994 56.9322-9.38244 55.5353-10.743L38.6095-26.9766C37.663-27.9341 37.1164-28.9357 37.1164-30.3294C37.1164-32.9812 39.2817-34.8623 41.8071-34.8623C43.1448-34.8623 44.4659-34.2912 45.3753-33.3077L52.1142-26.1005L54.69-22.7126L54.2972-30.1905L54.2972-56.34C54.2972-59.2253 56.71-61.6114 59.6608-61.6114C62.6668-61.6114 65.0244-59.2253 65.0244-56.34L65.0244-30.1905L64.6687-22.7197L67.1932-26.1005L73.9762-33.3077C74.8596-34.3094 76.1697-34.8623 77.5074-34.8623C79.9887-34.8623 82.1981-32.9812 82.1981-30.3294C82.1981-28.9357 81.6885-27.9341 80.705-26.9766L63.8233-10.743C62.4193-9.38244 61.1271-8.90994 59.6608-8.90994Z"/>
  </g>
  <g id="Medium-M" transform="matrix(1 0 0 1 1687.4 1126)">
   <path d="M59.1344 15.1511C86.9709 15.1511 109.59-7.46756 109.59-35.2606C109.59-63.0537 86.9709-85.6724 59.1344-85.6724C31.3413-85.6724 8.72266-63.0537 8.72266-35.2606C8.72266-7.46756 31.3413 15.1511 59.1344 15.1511ZM59.1778-9.3296C57.9192-9.3296 56.824-9.74097 55.5928-10.9516L38.793-27.0721C37.9245-27.9423 37.4263-28.8644 37.4263-30.1254C37.4263-32.521 39.3174-34.2334 41.664-34.2334C42.8484-34.2334 44.0682-33.7392 44.8933-32.8273L52.0236-25.2028L54.7545-21.9493L54.3929-29.457L54.3929-56.5038C54.3929-59.0858 56.5634-61.1917 59.1778-61.1917C61.8459-61.1917 63.9628-59.0858 63.9628-56.5038L63.9628-29.457L63.6446-21.9579L66.3149-25.2028L73.4972-32.8273C74.2805-33.7495 75.4987-34.2334 76.6831-34.2334C78.9776-34.2334 80.9207-32.521 80.9207-30.1254C80.9207-28.8644 80.4659-27.9423 79.554-27.0721L62.8063-10.9516C61.5665-9.74097 60.4799-9.3296 59.1778-9.3296Z"/>
  </g>
  <g id="Regular-M" transform="matrix(1 0 0 1 1391.32 1126)">
   <path d="M58.4961 14.5128C85.978 14.5128 108.321-7.83049 108.321-35.2606C108.321-62.6908 85.978-85.0341 58.4961-85.0341C31.0659-85.0341 8.72266-62.6908 8.72266-35.2606C8.72266-7.83049 31.0659 14.5128 58.4961 14.5128ZM58.5478-9.87699C57.5118-9.87699 56.6827-10.2086 55.6677-11.2236L39.0324-27.1967C38.2656-27.9529 37.8305-28.7714 37.8305-29.8592C37.8305-31.9208 39.364-33.4131 41.4774-33.4131C42.4617-33.4131 43.5495-33.0192 44.2645-32.2007L51.9053-24.0318L54.8387-20.9537L54.5176-28.5002L54.5176-56.7176C54.5176-58.9038 56.3722-60.6443 58.5478-60.6443C60.7753-60.6443 62.5781-58.9038 62.5781-56.7176L62.5781-28.5002L62.3088-20.9643L65.1692-24.0318L72.8724-32.2007C73.5251-33.0192 74.6235-33.4131 75.6078-33.4131C77.6588-33.4131 79.2546-31.9208 79.2546-29.8592C79.2546-28.7714 78.8713-27.9529 78.0528-27.1967L61.4797-11.2236C60.4542-10.2086 59.6357-9.87699 58.5478-9.87699Z"/>
  </g>
  <g id="Light-M" transform="matrix(1 0 0 1 1095.44 1126)">
   <path d="M57.6748 13.6915C84.6605 13.6915 106.662-8.30959 106.662-35.2606C106.662-62.2117 84.6605-84.2128 57.6748-84.2128C30.7237-84.2128 8.72266-62.2117 8.72266-35.2606C8.72266-8.30959 30.7237 13.6915 57.6748 13.6915ZM57.7094-10.4417C56.9129-10.4417 56.2549-10.7048 55.5137-11.446L38.8784-27.6587C38.2827-28.2267 37.9503-28.857 37.9503-29.6881C37.9503-31.2535 39.1416-32.4378 40.7416-32.4378C41.5035-32.4378 42.3346-32.1123 42.8956-31.482L51.4091-22.5945L54.8558-19.0715L54.6203-26.3271L54.6203-57.0598C54.6203-58.7498 56.0471-60.0796 57.7094-60.0796C59.4064-60.0796 60.7985-58.7498 60.7985-57.0598L60.7985-26.3271L60.5977-19.0992L63.9544-22.5945L72.5302-31.482C73.0289-32.1123 73.8877-32.4378 74.6496-32.4378C76.1873-32.4378 77.4409-31.2535 77.4409-29.6881C77.4409-28.857 77.1431-28.2267 76.5128-27.6587L59.9397-11.446C59.1709-10.7048 58.5406-10.4417 57.7094-10.4417Z"/>
  </g>
  <g id="Thin-M" transform="matrix(1 0 0 1 799.828 1126)">
   <path d="M56.5885 12.6052C82.9179 12.6052 104.466-8.94325 104.466-35.2606C104.466-61.578 82.9179-83.1265 56.5885-83.1265C30.2711-83.1265 8.72266-61.578 8.72266-35.2606C8.72266-8.94325 30.2711 12.6052 56.5885 12.6052ZM56.6005-11.1885C56.1208-11.1885 55.6892-11.3611 55.3101-11.7402L38.6747-28.2697C38.3054-28.5888 38.1087-28.9701 38.1087-29.4618C38.1087-30.3709 38.8474-31.1479 39.7685-31.1479C40.2362-31.1479 40.7279-30.9129 41.0852-30.5316L50.7528-20.6935L54.8784-16.5822L54.7561-23.453L54.7561-57.5124C54.7561-58.5461 55.6171-59.3328 56.6005-59.3328C57.5959-59.3328 58.445-58.5461 58.445-57.5124L58.445-23.453L58.3346-16.6325L62.3476-20.6935L72.0775-30.5316C72.3726-30.9129 72.9146-31.1479 73.3822-31.1479C74.241-31.1479 75.042-30.3709 75.042-29.4618C75.042-28.9701 74.8574-28.5888 74.476-28.2697L57.903-11.7402C57.4736-11.3611 57.0922-11.1885 56.6005-11.1885Z"/>
  </g>
  <g id="Ultralight-M" transform="matrix(1 0 0 1 503.679 1126)">
   <path d="M56.0321 12.0488C82.0254 12.0488 103.342-9.26781 103.342-35.2606C103.342-61.2535 82.0254-82.5701 56.0321-82.5701C30.0393-82.5701 8.72266-61.2535 8.72266-35.2606C8.72266-9.26781 30.0393 12.0488 56.0321 12.0488ZM56.0325-11.571C55.7151-11.571 55.3994-11.6973 55.2057-11.8909L38.5704-28.5827C38.317-28.7742 38.1898-29.0281 38.1898-29.3459C38.1898-29.9189 38.6967-30.4872 39.27-30.4872C39.587-30.4872 39.9049-30.2986 40.1579-30.0447L50.4167-19.7198L54.89-15.3071L54.8256-21.9809L54.8256-57.7442C54.8256-58.4418 55.3969-58.9503 56.0325-58.9503C56.6686-58.9503 57.2395-58.4418 57.2395-57.7442L57.2395-21.9809L57.1755-15.369L61.5246-19.7198L71.8457-30.0447C72.0364-30.2986 72.4161-30.4872 72.7331-30.4872C73.2442-30.4872 73.8134-29.9189 73.8134-29.3459C73.8134-29.0281 73.6866-28.7742 73.4328-28.5827L56.8598-11.8909C56.6042-11.6973 56.3504-11.571 56.0325-11.571Z"/>
  </g>
  <g id="Black-S" transform="matrix(1 0 0 1 2884.57 696)">
   <path d="M48.8281 6.73828C72.0215 6.73828 90.8203-12.0605 90.8203-35.2539C90.8203-58.4473 72.0215-77.2461 48.8281-77.2461C25.6348-77.2461 6.83594-58.4473 6.83594-35.2539C6.83594-12.0605 25.6348 6.73828 48.8281 6.73828ZM48.8281-12.793C46.9727-12.793 45.0684-13.4277 43.2617-15.1367L29.4434-28.3691C28.3691-29.4922 27.7344-30.6152 27.7344-32.2754C27.7344-35.4492 30.6152-37.6465 33.3496-37.6465C35.0586-37.6465 36.5234-36.8652 37.5977-35.791L41.2109-31.9336L42.5781-28.6621L42.1387-34.375L42.1387-51.0742C42.1387-54.6387 45.0684-57.7148 48.8281-57.7148C52.6367-57.7148 55.5176-54.6387 55.5176-51.0742L55.5176-34.375L55.0781-28.6621L56.4453-31.9336L60.0586-35.791C61.1816-36.9141 62.5977-37.6465 64.3066-37.6465C67.041-37.6465 69.9219-35.4492 69.9219-32.2754C69.9219-30.6152 69.2871-29.4922 68.2129-28.3691L54.3945-15.1367C52.5879-13.4277 50.6836-12.793 48.8281-12.793Z"/>
  </g>
  <g id="Heavy-S" transform="matrix(1 0 0 1 2588.47 696)">
   <path d="M48.2173 6.12748C71.0765 6.12748 89.6102-12.4063 89.6102-35.2539C89.6102-58.1015 71.0765-76.6353 48.2173-76.6353C25.3697-76.6353 6.83594-58.1015 6.83594-35.2539C6.83594-12.4063 25.3697 6.12748 48.2173 6.12748ZM48.2289-13.3346C46.5923-13.3346 44.9646-13.8887 43.3654-15.4133L29.7315-28.4498C28.7494-29.4691 28.1723-30.5 28.1723-31.9988C28.1723-34.8615 30.6959-36.8513 33.2344-36.8513C34.7474-36.8513 36.097-36.1738 37.0675-35.1802L41.1418-30.8042L42.6703-27.7862L42.2654-33.5798L42.2654-51.2701C42.2654-54.4543 44.8955-57.1732 48.2289-57.1732C51.611-57.1732 54.1923-54.4543 54.1923-51.2701L54.1923-33.5798L53.7989-27.7862L55.3159-30.8042L59.4017-35.1802C60.398-36.2111 61.7103-36.8513 63.2233-36.8513C65.7503-36.8513 68.2854-34.8615 68.2854-31.9988C68.2854-30.5 67.7198-29.4691 66.7262-28.4498L53.1038-15.4133C51.5046-13.8887 49.8769-13.3346 48.2289-13.3346Z"/>
  </g>
  <g id="Bold-S" transform="matrix(1 0 0 1 2292.43 696)">
   <path d="M47.5342 5.44434C70.0195 5.44434 88.2568-12.793 88.2568-35.2539C88.2568-57.7148 70.0195-75.9521 47.5342-75.9521C25.0732-75.9521 6.83594-57.7148 6.83594-35.2539C6.83594-12.793 25.0732 5.44434 47.5342 5.44434ZM47.5586-13.9404C46.167-13.9404 44.8486-14.4043 43.4814-15.7227L30.0537-28.54C29.1748-29.4434 28.6621-30.3711 28.6621-31.6895C28.6621-34.2041 30.7861-35.9619 33.1055-35.9619C34.3994-35.9619 35.6201-35.4004 36.4746-34.4971L41.0645-29.541L42.7734-26.8066L42.4072-32.6904L42.4072-51.4893C42.4072-54.248 44.7021-56.5674 47.5586-56.5674C50.4639-56.5674 52.71-54.248 52.71-51.4893L52.71-32.6904L52.3682-26.8066L54.0527-29.541L58.667-34.4971C59.5215-35.4248 60.7178-35.9619 62.0117-35.9619C64.3066-35.9619 66.4551-34.2041 66.4551-31.6895C66.4551-30.3711 65.9668-29.4434 65.0635-28.54L51.6602-15.7227C50.293-14.4043 48.9746-13.9404 47.5586-13.9404Z"/>
  </g>
  <g id="Semibold-S" transform="matrix(1 0 0 1 1996.19 696)">
   <path d="M47.0632 4.97334C69.2908 4.97334 87.3237-13.0596 87.3237-35.2539C87.3237-57.4482 69.2908-75.4812 47.0632-75.4812C24.8688-75.4812 6.83594-57.4482 6.83594-35.2539C6.83594-13.0596 24.8688 4.97334 47.0632 4.97334ZM47.0965-14.3581C45.8737-14.3581 44.7687-14.7598 43.5614-15.9359L30.2759-28.6022C29.4681-29.4256 28.9998-30.2822 28.9998-31.4762C28.9998-33.7509 30.8483-35.3487 33.0166-35.3487C34.1595-35.3487 35.2913-34.8672 36.0658-34.0261L41.0111-28.6701L42.8445-26.1313L42.505-32.0772L42.505-51.6403C42.505-54.1059 44.5688-56.1497 47.0965-56.1497C49.6729-56.1497 51.688-54.1059 51.688-51.6403L51.688-32.0772L51.3817-26.1313L53.1818-28.6701L58.1604-34.0261C58.9172-34.8827 60.0335-35.3487 61.1764-35.3487C63.3113-35.3487 65.1932-33.7509 65.1932-31.4762C65.1932-30.2822 64.7582-29.4256 63.9171-28.6022L50.6648-15.9359C49.4576-14.7598 48.3525-14.3581 47.0965-14.3581Z"/>
  </g>
  <g id="Medium-S" transform="matrix(1 0 0 1 1699.83 696)">
   <path d="M46.7061 4.61621C68.7383 4.61621 86.6162-13.2617 86.6162-35.2539C86.6162-57.2461 68.7383-75.124 46.7061-75.124C24.7139-75.124 6.83594-57.2461 6.83594-35.2539C6.83594-13.2617 24.7139 4.61621 46.7061 4.61621ZM46.7461-14.6748C45.6514-14.6748 44.708-15.0293 43.6221-16.0977L30.4443-28.6494C29.6904-29.4121 29.2559-30.2148 29.2559-31.3145C29.2559-33.4072 30.8955-34.8838 32.9492-34.8838C33.9775-34.8838 35.042-34.4629 35.7559-33.6689L40.9707-28.0098L42.8984-25.6191L42.5791-31.6123L42.5791-51.7549C42.5791-53.998 44.4678-55.833 46.7461-55.833C49.0732-55.833 50.9131-53.998 50.9131-51.7549L50.9131-31.6123L50.6338-25.6191L52.5215-28.0098L57.7764-33.6689C58.459-34.4717 59.5146-34.8838 60.543-34.8838C62.5566-34.8838 64.2363-33.4072 64.2363-31.3145C64.2363-30.2148 63.8418-29.4121 63.0479-28.6494L49.9102-16.0977C48.8242-15.0293 47.8809-14.6748 46.7461-14.6748Z"/>
  </g>
  <g id="Regular-S" transform="matrix(1 0 0 1 1403.58 696)">
   <path d="M46.2402 4.15039C68.0176 4.15039 85.6934-13.5254 85.6934-35.2539C85.6934-56.9824 68.0176-74.6582 46.2402-74.6582C24.5117-74.6582 6.83594-56.9824 6.83594-35.2539C6.83594-13.5254 24.5117 4.15039 46.2402 4.15039ZM46.2891-15.0879C45.3613-15.0879 44.6289-15.3809 43.7012-16.3086L30.6641-28.7109C29.9805-29.3945 29.5898-30.127 29.5898-31.1035C29.5898-32.959 30.957-34.2773 32.8613-34.2773C33.7402-34.2773 34.7168-33.9355 35.3516-33.2031L40.918-27.1484L42.9688-24.9512L42.6758-31.0059L42.6758-51.9043C42.6758-53.8574 44.3359-55.4199 46.2891-55.4199C48.291-55.4199 49.9023-53.8574 49.9023-51.9043L49.9023-31.0059L49.6582-24.9512L51.6602-27.1484L57.2754-33.2031C57.8613-33.9355 58.8379-34.2773 59.7168-34.2773C61.5723-34.2773 62.9883-32.959 62.9883-31.1035C62.9883-30.127 62.6465-29.3945 61.9141-28.7109L48.9258-16.3086C47.998-15.3809 47.2656-15.0879 46.2891-15.0879Z"/>
  </g>
  <g id="Light-S" transform="matrix(1 0 0 1 1107.6 696)">
   <path d="M45.5137 3.42383C66.8521 3.42383 84.2251-13.9492 84.2251-35.2539C84.2251-56.5586 66.8521-73.9316 45.5137-73.9316C24.209-73.9316 6.83594-56.5586 6.83594-35.2539C6.83594-13.9492 24.209 3.42383 45.5137 3.42383ZM45.5474-15.5874C44.8315-15.5874 44.2505-15.8198 43.5649-16.5054L30.5278-29.1196C29.9956-29.6367 29.6958-30.2026 29.6958-30.9521C29.6958-32.3687 30.7603-33.4146 32.2105-33.4146C32.8926-33.4146 33.6421-33.1333 34.1406-32.5674L40.479-25.877L42.9839-23.2861L42.7666-29.0835L42.7666-52.207C42.7666-53.7212 44.0483-54.9204 45.5474-54.9204C47.0801-54.9204 48.3281-53.7212 48.3281-52.207L48.3281-29.0835L48.1445-23.3013L50.5855-25.877L56.9727-32.5674C57.4224-33.1333 58.187-33.4146 58.8691-33.4146C60.2705-33.4146 61.3838-32.3687 61.3838-30.9521C61.3838-30.2026 61.1177-29.6367 60.5518-29.1196L47.5635-16.5054C46.8628-15.8198 46.2969-15.5874 45.5474-15.5874Z"/>
  </g>
  <g id="Thin-S" transform="matrix(1 0 0 1 811.863 696)">
   <path d="M44.5527 2.4629C65.3106 2.4629 82.2832-14.5098 82.2832-35.2539C82.2832-55.9981 65.3106-72.9707 44.5527-72.9707C23.8086-72.9707 6.83594-55.9981 6.83594-35.2539C6.83594-14.5098 23.8086 2.4629 44.5527 2.4629ZM44.5664-16.248C44.1309-16.248 43.75-16.4004 43.3848-16.7656L30.3477-29.6601C30.0156-29.957 29.8359-30.3027 29.8359-30.752C29.8359-31.5879 30.5-32.2735 31.3496-32.2735C31.7715-32.2735 32.2207-32.0723 32.5391-31.7266L39.8984-24.1953L43.0039-21.084L42.8867-26.5411L42.8867-52.6074C42.8867-53.541 43.668-54.2598 44.5664-54.2598C45.4785-54.2598 46.2461-53.541 46.2461-52.6074L46.2461-26.5411L46.1426-21.1192L49.1641-24.1953L56.5723-31.7266C56.8418-32.0723 57.3262-32.2735 57.7481-32.2735C58.5489-32.2735 59.2617-31.5879 59.2617-30.752C59.2617-30.3027 59.0957-29.957 58.75-29.6601L45.7617-16.7656C45.3613-16.4004 45.0156-16.248 44.5664-16.248Z"/>
  </g>
  <g id="Ultralight-S" transform="matrix(1 0 0 1 515.649 696)">
   <path d="M44.0606 1.97072C64.521 1.97072 81.2886-14.7969 81.2886-35.2539C81.2886-55.7109 64.521-72.4785 44.0606-72.4785C23.6035-72.4785 6.83594-55.7109 6.83594-35.2539C6.83594-14.7969 23.6035 1.97072 44.0606 1.97072ZM44.064-16.5864C43.772-16.5864 43.4937-16.6977 43.2925-16.8989L30.2554-29.937C30.0259-30.1211 29.9077-30.354 29.9077-30.6494C29.9077-31.188 30.3667-31.689 30.9087-31.689C31.1973-31.689 31.4927-31.5288 31.7188-31.2959L39.6011-23.334L43.0142-19.9561L42.9482-25.2388L42.9482-52.8125C42.9482-53.4487 43.4732-53.9214 44.064-53.9214C44.6582-53.9214 45.1797-53.4487 45.1797-52.8125L45.1797-25.2388L45.1172-20.0015L48.4361-23.334L56.3672-31.2959C56.5444-31.5288 56.8853-31.689 57.1738-31.689C57.667-31.689 58.1748-31.188 58.1748-30.6494C58.1748-30.354 58.0601-30.1211 57.8272-29.937L44.8389-16.8989C44.5923-16.6977 44.3594-16.5864 44.064-16.5864Z"/>
  </g>
 </g>
</svg>
