<?xml version="1.0" encoding="UTF-8"?>
<!--Generator: Apple Native CoreSVG 341-->
<!DOCTYPE svg
PUBLIC "-//W3C//DTD SVG 1.1//EN"
       "http://www.w3.org/Graphics/SVG/1.1/DTD/svg11.dtd">
<svg version="1.1" xmlns="http://www.w3.org/2000/svg" xmlns:xlink="http://www.w3.org/1999/xlink" viewBox="0 0 3300 2200">
 <g id="Notes">
  <rect height="2200" id="artboard" style="fill:white;opacity:1" width="3300" x="0" y="0"/>
  <line style="fill:none;stroke:black;opacity:1;stroke-width:0.5;" x1="263" x2="3036" y1="292" y2="292"/>
  <text style="stroke:none;fill:black;font-family:sans-serif;font-size:13;font-weight:bold;" transform="matrix(1 0 0 1 263 322)">Weight/Scale Variations</text>
  <text style="stroke:none;fill:black;font-family:sans-serif;font-size:13;text-anchor:middle;" transform="matrix(1 0 0 1 559.711 322)">Ultralight</text>
  <text style="stroke:none;fill:black;font-family:sans-serif;font-size:13;text-anchor:middle;" transform="matrix(1 0 0 1 856.422 322)">Thin</text>
  <text style="stroke:none;fill:black;font-family:sans-serif;font-size:13;text-anchor:middle;" transform="matrix(1 0 0 1 1153.13 322)">Light</text>
  <text style="stroke:none;fill:black;font-family:sans-serif;font-size:13;text-anchor:middle;" transform="matrix(1 0 0 1 1449.84 322)">Regular</text>
  <text style="stroke:none;fill:black;font-family:sans-serif;font-size:13;text-anchor:middle;" transform="matrix(1 0 0 1 1746.56 322)">Medium</text>
  <text style="stroke:none;fill:black;font-family:sans-serif;font-size:13;text-anchor:middle;" transform="matrix(1 0 0 1 2043.27 322)">Semibold</text>
  <text style="stroke:none;fill:black;font-family:sans-serif;font-size:13;text-anchor:middle;" transform="matrix(1 0 0 1 2339.98 322)">Bold</text>
  <text style="stroke:none;fill:black;font-family:sans-serif;font-size:13;text-anchor:middle;" transform="matrix(1 0 0 1 2636.69 322)">Heavy</text>
  <text style="stroke:none;fill:black;font-family:sans-serif;font-size:13;text-anchor:middle;" transform="matrix(1 0 0 1 2933.4 322)">Black</text>
  <line style="fill:none;stroke:black;opacity:1;stroke-width:0.5;" x1="263" x2="3036" y1="1903" y2="1903"/>
  <g transform="matrix(0.2 0 0 0.2 263 1933)">
   <path d="m46.2402 4.15039c21.7773 0 39.4531-17.627 39.4531-39.4043s-17.6758-39.4043-39.4531-39.4043c-21.7285 0-39.4043 17.627-39.4043 39.4043s17.6758 39.4043 39.4043 39.4043Zm0-7.42188c-17.6758 0-31.9336-14.3066-31.9336-31.9824s14.2578-31.9824 31.9336-31.9824 31.9824 14.3066 31.9824 31.9824-14.3066 31.9824-31.9824 31.9824Zm3.61328-17.7734v-28.4668c0-2.24609-1.46484-3.75977-3.71094-3.75977-2.14844 0-3.61328 1.51367-3.61328 3.75977v28.4668c0 2.19727 1.46484 3.71094 3.61328 3.71094 2.24609 0 3.71094-1.51367 3.71094-3.71094Zm-17.8223-10.5957h28.418c2.19727 0 3.71094-1.46484 3.71094-3.61328 0-2.19727-1.51367-3.71094-3.71094-3.71094h-28.418c-2.24609 0-3.75977 1.51367-3.75977 3.71094 0 2.14844 1.51367 3.61328 3.75977 3.61328Z"/>
  </g>
  <g transform="matrix(0.2 0 0 0.2 281.506 1933)">
   <path d="m58.5449 14.5508c27.4902 0 49.8047-22.3145 49.8047-49.8047s-22.3145-49.8047-49.8047-49.8047-49.8047 22.3145-49.8047 49.8047 22.3145 49.8047 49.8047 49.8047Zm0-8.30078c-22.9492 0-41.5039-18.5547-41.5039-41.5039s18.5547-41.5039 41.5039-41.5039 41.5039 18.5547 41.5039 41.5039-18.5547 41.5039-41.5039 41.5039Zm4.05273-23.0957v-36.9141c0-2.49023-1.70898-4.19922-4.15039-4.19922-2.39258 0-4.05273 1.70898-4.05273 4.19922v36.9141c0 2.44141 1.66016 4.15039 4.05273 4.15039 2.44141 0 4.15039-1.66016 4.15039-4.15039Zm-22.5586-14.4043h36.9629c2.44141 0 4.15039-1.61133 4.15039-4.00391 0-2.44141-1.70898-4.15039-4.15039-4.15039h-36.9629c-2.49023 0-4.15039 1.70898-4.15039 4.15039 0 2.39258 1.66016 4.00391 4.15039 4.00391Z"/>
  </g>
  <g transform="matrix(0.2 0 0 0.2 304.924 1933)">
   <path d="m74.8535 28.3203c35.1074 0 63.623-28.4668 63.623-63.5742s-28.5156-63.623-63.623-63.623-63.5742 28.5156-63.5742 63.623 28.4668 63.5742 63.5742 63.5742Zm0-9.08203c-30.127 0-54.4922-24.3652-54.4922-54.4922s24.3652-54.4922 54.4922-54.4922 54.4922 24.3652 54.4922 54.4922-24.3652 54.4922-54.4922 54.4922Zm4.44336-30.3223v-48.4863c0-2.73438-1.85547-4.63867-4.54102-4.63867-2.58789 0-4.44336 1.9043-4.44336 4.63867v48.4863c0 2.68555 1.85547 4.58984 4.44336 4.58984 2.68555 0 4.54102-1.85547 4.54102-4.58984Zm-28.7109-19.7754h48.4863c2.68555 0 4.58984-1.80664 4.58984-4.39453 0-2.73438-1.85547-4.58984-4.58984-4.58984h-48.4863c-2.73438 0-4.58984 1.85547-4.58984 4.58984 0 2.58789 1.85547 4.39453 4.58984 4.39453Z"/>
  </g>
  <text style="stroke:none;fill:black;font-family:sans-serif;font-size:13;font-weight:bold;" transform="matrix(1 0 0 1 263 1953)">Design Variations</text>
  <text style="stroke:none;fill:black;font-family:sans-serif;font-size:13;" transform="matrix(1 0 0 1 263 1971)">Symbols are supported in up to nine weights and three scales.</text>
  <text style="stroke:none;fill:black;font-family:sans-serif;font-size:13;" transform="matrix(1 0 0 1 263 1989)">For optimal layout with text and other symbols, vertically align</text>
  <text style="stroke:none;fill:black;font-family:sans-serif;font-size:13;" transform="matrix(1 0 0 1 263 2007)">symbols with the adjacent text.</text>
  <line style="fill:none;stroke:#00AEEF;stroke-width:0.5;opacity:1.0;" x1="776" x2="776" y1="1919" y2="1933"/>
  <g transform="matrix(0.2 0 0 0.2 776 1933)">
   <path d="m16.5527 0.78125c2.58789 0 3.85742-0.976562 4.78516-3.71094l20.5566-57.5195h0.244141l20.6055 57.5195c0.927734 2.73438 2.19727 3.71094 4.73633 3.71094 2.58789 0 4.24805-1.5625 4.24805-4.00391 0-0.830078-0.146484-1.61133-0.537109-2.63672l-22.9004-60.9863c-1.12305-2.97852-3.125-4.49219-6.25-4.49219-3.02734 0-5.07812 1.46484-6.15234 4.44336l-22.9004 61.084c-0.390625 1.02539-0.537109 1.80664-0.537109 2.63672 0 2.44141 1.5625 3.95508 4.10156 3.95508Zm10.2051-20.9473h30.6641c2.00195 0 3.66211-1.66016 3.66211-3.66211 0-2.05078-1.66016-3.66211-3.66211-3.66211h-30.6641c-2.00195 0-3.66211 1.61133-3.66211 3.66211 0 2.00195 1.66016 3.66211 3.66211 3.66211Z"/>
  </g>
  <line style="fill:none;stroke:#00AEEF;stroke-width:0.5;opacity:1.0;" x1="792.836" x2="792.836" y1="1919" y2="1933"/>
  <text style="stroke:none;fill:black;font-family:sans-serif;font-size:13;font-weight:bold;" transform="matrix(1 0 0 1 776 1953)">Margins</text>
  <text style="stroke:none;fill:black;font-family:sans-serif;font-size:13;" transform="matrix(1 0 0 1 776 1971)">Leading and trailing margins on the left and right side of each symbol</text>
  <text style="stroke:none;fill:black;font-family:sans-serif;font-size:13;" transform="matrix(1 0 0 1 776 1989)">can be adjusted by modifying the x-location of the margin guidelines.</text>
  <text style="stroke:none;fill:black;font-family:sans-serif;font-size:13;" transform="matrix(1 0 0 1 776 2007)">Modifications are automatically applied proportionally to all</text>
  <text style="stroke:none;fill:black;font-family:sans-serif;font-size:13;" transform="matrix(1 0 0 1 776 2025)">scales and weights.</text>
  <g transform="matrix(0.2 0 0 0.2 1289 1933)">
   <path d="m14.209 13.1348 7.86133 7.86133c4.29688 4.39453 9.32617 4.10156 13.8672-1.02539l60.6934-68.2129-4.88281-4.88281-60.2539 67.6758c-1.80664 1.95312-3.4668 2.44141-5.81055 0.0976562l-5.17578-5.12695c-2.29492-2.29492-1.80664-3.95508 0.195312-5.81055l67.4805-62.1582-4.88281-4.83398-68.0664 62.5977c-4.98047 4.58984-5.32227 9.47266-1.02539 13.8184Zm44.873-97.4609c-2.05078 2.00195-2.24609 4.88281-1.07422 6.78711 1.12305 1.80664 3.4668 3.02734 6.5918 2.24609 5.85938-1.66016 12.5977-2.39258 18.8965 0.927734l-2.68555 7.12891c-1.61133 4.00391-0.732422 6.88477 1.70898 9.42383l10.2539 10.3027c2.34375 2.39258 4.54102 2.44141 7.08008 1.95312l4.44336-0.732422 2.58789 2.53906-0.195312 2.24609c-0.0976562 2.29492 0.537109 4.29688 2.7832 6.49414l3.36914 3.32031c2.29492 2.29492 5.51758 2.49023 7.8125 0.195312l12.9883-13.0371c2.29492-2.34375 2.14844-5.37109-0.195312-7.66602l-3.41797-3.41797c-2.19727-2.19727-4.05273-3.02734-6.34766-2.88086l-2.34375 0.244141-2.44141-2.44141 1.02539-4.6875c0.634766-2.73438-0.244141-4.98047-2.88086-7.61719l-11.2793-11.1816c-12.9395-12.8418-35.5957-11.0352-46.6797-0.146484Zm7.08008 2.05078c8.78906-6.39648 25.9766-5.66406 33.6914 1.95312l12.3047 12.207c1.02539 1.02539 1.2207 1.80664 0.927734 3.32031l-1.46484 6.64062 6.73828 6.68945 4.39453-0.244141c1.12305-0.0488281 1.51367 0.0488281 2.34375 0.878906l2.53906 2.49023-10.8398 10.8398-2.49023-2.49023c-0.830078-0.878906-0.976562-1.2207-0.927734-2.39258l0.292969-4.3457-6.68945-6.73828-6.83594 1.17188c-1.41602 0.292969-2.05078 0.195312-3.17383-0.878906l-8.93555-8.88672c-1.07422-1.02539-1.17188-1.70898-0.488281-3.36914l4.58984-11.4746c-6.10352-6.34766-17.041-7.51953-25.5859-4.58984-0.683594 0.244141-0.927734-0.390625-0.390625-0.78125Z"/>
  </g>
  <text style="stroke:none;fill:black;font-family:sans-serif;font-size:13;font-weight:bold;" transform="matrix(1 0 0 1 1289 1953)">Exporting</text>
  <text style="stroke:none;fill:black;font-family:sans-serif;font-size:13;" transform="matrix(1 0 0 1 1289 1971)">Symbols should be outlined when exporting to ensure the</text>
  <text style="stroke:none;fill:black;font-family:sans-serif;font-size:13;" transform="matrix(1 0 0 1 1289 1989)">design is preserved when submitting to Xcode.</text>
  <text id="template-version" style="stroke:none;fill:black;font-family:sans-serif;font-size:13;text-anchor:end;" transform="matrix(1 0 0 1 3036 1933)">Template v.2.0</text>
  <text style="stroke:none;fill:black;font-family:sans-serif;font-size:13;text-anchor:end;" transform="matrix(1 0 0 1 3036 1951)">Requires Xcode 12 or greater</text>
  <text id="descriptive-name" style="stroke:none;fill:black;font-family:sans-serif;font-size:13;text-anchor:end;" transform="matrix(1 0 0 1 3036 1969)">Generated from arrow.down.circle</text>
  <text style="stroke:none;fill:black;font-family:sans-serif;font-size:13;text-anchor:end;" transform="matrix(1 0 0 1 3036 1987)">Typeset at 100.0 points</text>
  <text style="stroke:none;fill:black;font-family:sans-serif;font-size:13;" transform="matrix(1 0 0 1 263 726)">Small</text>
  <text style="stroke:none;fill:black;font-family:sans-serif;font-size:13;" transform="matrix(1 0 0 1 263 1156)">Medium</text>
  <text style="stroke:none;fill:black;font-family:sans-serif;font-size:13;" transform="matrix(1 0 0 1 263 1586)">Large</text>
 </g>
 <g id="Guides">
  <g id="H-reference" style="fill:#27AAE1;stroke:none;" transform="matrix(1 0 0 1 339 696)">
   <path d="M0.993654 0L3.63775 0L29.3281-67.1323L30.0303-67.1323L30.0303-70.459L28.1226-70.459ZM11.6885-24.4799L46.9815-24.4799L46.2315-26.7285L12.4385-26.7285ZM55.1196 0L57.7637 0L30.6382-70.459L29.4326-70.459L29.4326-67.1323Z"/>
  </g>
  <line id="Baseline-S" style="fill:none;stroke:#27AAE1;opacity:1;stroke-width:0.5;" x1="263" x2="3036" y1="696" y2="696"/>
  <line id="Capline-S" style="fill:none;stroke:#27AAE1;opacity:1;stroke-width:0.5;" x1="263" x2="3036" y1="625.541" y2="625.541"/>
  <g id="H-reference" style="fill:#27AAE1;stroke:none;" transform="matrix(1 0 0 1 339 1126)">
   <path d="M0.993654 0L3.63775 0L29.3281-67.1323L30.0303-67.1323L30.0303-70.459L28.1226-70.459ZM11.6885-24.4799L46.9815-24.4799L46.2315-26.7285L12.4385-26.7285ZM55.1196 0L57.7637 0L30.6382-70.459L29.4326-70.459L29.4326-67.1323Z"/>
  </g>
  <line id="Baseline-M" style="fill:none;stroke:#27AAE1;opacity:1;stroke-width:0.5;" x1="263" x2="3036" y1="1126" y2="1126"/>
  <line id="Capline-M" style="fill:none;stroke:#27AAE1;opacity:1;stroke-width:0.5;" x1="263" x2="3036" y1="1055.54" y2="1055.54"/>
  <g id="H-reference" style="fill:#27AAE1;stroke:none;" transform="matrix(1 0 0 1 339 1556)">
   <path d="M0.993654 0L3.63775 0L29.3281-67.1323L30.0303-67.1323L30.0303-70.459L28.1226-70.459ZM11.6885-24.4799L46.9815-24.4799L46.2315-26.7285L12.4385-26.7285ZM55.1196 0L57.7637 0L30.6382-70.459L29.4326-70.459L29.4326-67.1323Z"/>
  </g>
  <line id="Baseline-L" style="fill:none;stroke:#27AAE1;opacity:1;stroke-width:0.5;" x1="263" x2="3036" y1="1556" y2="1556"/>
  <line id="Capline-L" style="fill:none;stroke:#27AAE1;opacity:1;stroke-width:0.5;" x1="263" x2="3036" y1="1485.54" y2="1485.54"/>
  <line id="right-margin" style="fill:none;stroke:#00AEEF;stroke-width:0.5;opacity:1.0;" x1="1508.37" x2="1508.37" y1="1030.79" y2="1150.12"/>
  <line id="left-margin" style="fill:none;stroke:#00AEEF;stroke-width:0.5;opacity:1.0;" x1="1391.32" x2="1391.32" y1="1030.79" y2="1150.12"/>
 </g>
 <g id="Symbols">
  <g id="Black-L" transform="matrix(1 0 0 1 2854.19 1556)">
   <path d="M79.1958 32.6673C116.725 32.6673 147.154 2.25907 147.154-35.2697C147.154-72.7985 116.725-103.207 79.1958-103.207C41.6878-103.207 11.2588-72.7985 11.2588-35.2697C11.2588 2.25907 41.6878 32.6673 79.1958 32.6673ZM79.1958 12.5197C52.7846 12.5197 31.426-8.85853 31.426-35.2697C31.426-61.6809 52.7846-83.0592 79.1958-83.0592C105.607-83.0592 126.985-61.6809 126.985-35.2697C126.985-8.85853 105.607 12.5197 79.1958 12.5197ZM79.1958-68.8335C74.2459-68.8335 70.2774-64.769 70.2774-60.0735L70.2774-32.2721L71.3004-17.6088C71.5757-13.1441 74.9173-9.69667 79.1958-9.69667C83.4939-9.69667 86.8575-13.1441 87.112-17.6088L88.135-32.2721L88.135-60.0735C88.135-64.769 84.2249-68.8335 79.1958-68.8335ZM79.1958-1.70593C81.6415-1.70593 84.0612-2.53411 86.4265-4.78261L107.397-24.8622C108.841-26.385 109.711-27.9078 109.711-30.1783C109.711-34.4637 105.963-37.4104 102.146-37.4104C99.8963-37.4104 97.9387-36.4434 96.4367-34.9206L89.9194-27.9603L85.5037-20.4589L72.8879-20.4589L68.471-27.9603L61.9536-34.9206C60.4725-36.4434 58.4732-37.4104 56.2443-37.4104C52.425-37.4104 48.7006-34.4637 48.7006-30.1783C48.7006-27.9078 49.5496-26.385 51.014-24.8622L71.9651-4.78261C74.35-2.53411 76.7709-1.70593 79.1958-1.70593Z" data-clipstroke-keyframes="0 4 0 0.49910918 1.5009863 0 0.24850748 0.25060266 1.7493968 0 0.49586442 0.003246713 1.9966586 0 0.75063205 0.7484781 1.2515224 0 1 0.49910918 1.5009863 0 0 2.8979897 2.101783 0 0.67421484 2.3214755 2.678297 0 1 2.4255087 2.574235"/>
  </g>
  <g id="Heavy-L" transform="matrix(1 0 0 1 2558.42 1556)">
   <path d="M78.2532 31.7248C115.263 31.7248 145.278 1.74009 145.278-35.2697C145.278-72.2795 115.263-102.264 78.2532-102.264C41.2736-102.264 11.2588-72.2795 11.2588-35.2697C11.2588 1.74009 41.2736 31.7248 78.2532 31.7248ZM78.2532 13.9829C51.0308 13.9829 29.0252-8.04727 29.0252-35.2697C29.0252-62.4921 51.0308-84.5223 78.2532-84.5223C105.476-84.5223 127.506-62.4921 127.506-35.2697C127.506-8.04727 105.476 13.9829 78.2532 13.9829ZM78.2532-68.3862C73.8819-68.3862 70.3364-64.7817 70.3364-60.619L70.3364-30.7745L71.2227-16.5514C71.4615-12.5269 74.4948-9.5366 78.2532-9.5366C82.0363-9.5366 85.1053-12.5269 85.314-16.5514L86.2002-30.7745L86.2002-60.619C86.2002-64.7817 82.6994-68.3862 78.2532-68.3862ZM78.2532-2.15318C80.4166-2.15318 82.4982-2.88099 84.5812-4.87468L105.523-24.9688C106.83-26.3509 107.618-27.733 107.618-29.7625C107.618-33.6072 104.313-36.272 100.831-36.272C98.8315-36.272 97.0553-35.4192 95.7034-34.0371L88.378-26.2257L83.0725-18.4532L73.434-18.4532L68.1229-26.2257L60.7975-34.0371C59.4758-35.4192 57.6392-36.272 55.6701-36.272C52.1768-36.272 48.9129-33.6072 48.9129-29.7625C48.9129-27.733 49.6709-26.3509 51.0083-24.9688L71.9253-4.87468C74.0328-2.88099 76.1201-2.15318 78.2532-2.15318Z" data-clipstroke-keyframes="0 4 0 0.49911496 1.500977 0 0.24847426 0.2506417 1.7493632 0 0.49584827 0.0032687387 1.9966583 0 0.75062776 0.7484882 1.2515179 0 1 0.49911496 1.500977 0 0 2.9072053 2.0925224 0 0.6894653 2.3274267 2.6723008 0 1 2.4297023 2.5699944"/>
  </g>
  <g id="Bold-L" transform="matrix(1 0 0 1 2262.89 1556)">
   <path d="M77.0704 30.5419C113.427 30.5419 142.92 1.08726 142.92-35.2697C142.92-71.6267 113.427-101.081 77.0704-101.081C40.7514-101.081 11.2588-71.6267 11.2588-35.2697C11.2588 1.08726 40.7514 30.5419 77.0704 30.5419ZM77.0704 15.7963C48.8414 15.7963 26.0292-7.04073 26.0292-35.2697C26.0292-63.4987 48.8414-86.3357 77.0704-86.3357C105.299-86.3357 128.136-63.4987 128.136-35.2697C128.136-7.04073 105.299 15.7963 77.0704 15.7963ZM77.0704-67.8404C73.4212-67.8404 70.4132-64.812 70.4132-61.3176L70.4132-28.7511L71.1303-15.1705C71.3231-11.7214 73.9499-9.27725 77.0704-9.27725C80.2156-9.27725 82.8936-11.7214 83.0484-15.1705L83.7656-28.7511L83.7656-61.3176C83.7656-64.812 80.7868-67.8404 77.0704-67.8404ZM77.0704-2.699C78.8804-2.699 80.5544-3.30382 82.284-4.975L103.217-25.1442C104.348-26.3422 105.029-27.5402 105.029-29.2626C105.029-32.5393 102.269-34.8434 99.2391-34.8434C97.5546-34.8434 96.0162-34.1289 94.8562-32.9309L86.4797-24.0445L80.2243-16.0383L73.9164-16.0383L67.6478-24.0445L59.2713-32.9309C58.1493-34.1289 56.5349-34.8434 54.8885-34.8434C51.8321-34.8434 49.1369-32.5393 49.1369-29.2626C49.1369-27.5402 49.7797-26.3422 50.9485-25.1442L71.8568-4.975C73.6111-3.30382 75.2984-2.699 77.0704-2.699Z" data-clipstroke-keyframes="0 4 0 0.4991212 1.5009787 0 0.24844806 0.25067374 1.7493408 0 0.4958291 0.0032933003 1.9966578 0 0.75062466 0.7484971 1.2515188 0 1 0.4991212 1.5009787 0 0 2.9206703 2.079029 0 0.71070486 2.3356314 2.6640682 0 1 2.4357862 2.5638874"/>
  </g>
  <g id="Semibold-L" transform="matrix(1 0 0 1 1966.99 1556)">
   <path d="M76.2549 29.7265C112.162 29.7265 141.294 0.637211 141.294-35.2697C141.294-71.1766 112.162-100.266 76.2549-100.266C40.3914-100.266 11.2588-71.1766 11.2588-35.2697C11.2588 0.637211 40.3914 29.7265 76.2549 29.7265ZM76.2549 17.0464C47.3321 17.0464 23.9637-6.34682 23.9637-35.2697C23.9637-64.1926 47.3321-87.5858 76.2549-87.5858C105.178-87.5858 128.571-64.1926 128.571-35.2697C128.571-6.34682 105.178 17.0464 76.2549 17.0464ZM76.2549-67.4641C73.1035-67.4641 70.4661-64.8329 70.4661-61.7991L70.4661-27.3563L71.0667-14.2185C71.2277-11.1661 73.5743-9.09845 76.2549-9.09845C78.9605-9.09845 81.3689-11.1661 81.4866-14.2185L82.0872-27.3563L82.0872-61.7991C82.0872-64.8329 79.4683-67.4641 76.2549-67.4641ZM76.2549-3.07528C77.8214-3.07528 79.2144-3.59531 80.7004-5.04416L101.628-25.2651C102.637-26.3361 103.243-27.4072 103.243-28.9179C103.243-31.8032 100.86-33.8585 98.1417-33.8585C96.6744-33.8585 95.2999-33.2395 94.2722-32.1684L85.1711-22.5408L78.2609-14.3735L74.249-14.3735L67.3203-22.5408L58.2192-32.1684C57.2348-33.2395 55.7736-33.8585 54.3497-33.8585C51.5945-33.8585 49.2914-31.8032 49.2914-28.9179C49.2914-27.4072 49.8548-26.3361 50.9073-25.2651L71.8095-5.04416C73.3204-3.59531 74.7319-3.07528 76.2549-3.07528Z" data-clipstroke-keyframes="0 4 0 0.49912587 1.5009798 0 0.24842998 0.250696 1.7493253 0 0.49581593 0.0033102364 1.9966576 0 0.7506225 0.74850345 1.2515194 0 1 0.49912587 1.5009798 0 0 2.9295669 2.070107 0 0.7253472 2.3420832 2.6575913 0 1 2.440967 2.558688"/>
  </g>
  <g id="Medium-L" transform="matrix(1 0 0 1 1670.9 1556)">
   <path d="M75.6366 29.1081C111.202 29.1081 140.062 0.295961 140.062-35.2697C140.062-70.8354 111.202-99.6475 75.6366-99.6475C40.1184-99.6475 11.2588-70.8354 11.2588-35.2697C11.2588 0.295961 40.1184 29.1081 75.6366 29.1081ZM75.6366 17.9943C46.1876 17.9943 22.3976-5.82067 22.3976-35.2697C22.3976-64.7187 46.1876-88.5337 75.6366-88.5337C105.086-88.5337 128.901-64.7187 128.901-35.2697C128.901-5.82067 105.086 17.9943 75.6366 17.9943ZM75.6366-67.1788C72.8627-67.1788 70.5062-64.8487 70.5062-62.1643L70.5062-26.2986L71.0184-13.4967C71.1554-10.745 73.2894-8.96288 75.6366-8.96288C78.0088-8.96288 80.2128-10.745 80.3023-13.4967L80.8145-26.2986L80.8145-62.1643C80.8145-64.8487 78.4685-67.1788 75.6366-67.1788ZM75.6366-3.36059C77.0183-3.36059 78.1983-3.81634 79.4996-5.0966L100.422-25.3567C101.339-26.3316 101.89-27.3064 101.89-28.6566C101.89-31.245 99.7915-33.1117 97.3097-33.1117C96.007-33.1117 94.7568-32.565 93.8294-31.5902L84.1788-21.4006L76.7721-13.1112L74.5012-13.1112L67.072-21.4006L57.4214-31.5902C56.5415-32.565 55.1964-33.1117 53.9411-33.1117C51.4144-33.1117 49.4085-31.245 49.4085-28.6566C49.4085-27.3064 49.9117-26.3316 50.876-25.3567L71.7737-5.0966C73.0999-3.81634 74.3024-3.36059 75.6366-3.36059Z" data-clipstroke-keyframes="0 4 0 0.49912962 1.5009806 0 0.24841629 0.250713 1.7493135 0 0.4958059 0.00332308 1.9966574 0 0.75062096 0.74850833 1.2515199 0 1 0.49912962 1.5009806 0 0 2.9365122 2.0631418 0 0.7364497 2.3472543 2.652401 0 1 2.4453893 2.554253"/>
  </g>
  <g id="Regular-L" transform="matrix(1 0 0 1 1374.99 1556)">
   <path d="M74.8301 28.3017C109.951 28.3017 138.454-0.149147 138.454-35.2697C138.454-70.3903 109.951-98.8411 74.8301-98.8411C39.7624-98.8411 11.2588-70.3903 11.2588-35.2697C11.2588-0.149147 39.7624 28.3017 74.8301 28.3017ZM74.8301 19.2307C44.6948 19.2307 20.3549-5.13439 20.3549-35.2697C20.3549-65.405 44.6948-89.7701 74.8301-89.7701C104.965-89.7701 129.331-65.405 129.331-35.2697C129.331-5.13439 104.965 19.2307 74.8301 19.2307ZM74.8301-66.8067C72.5486-66.8067 70.5585-64.8693 70.5585-62.6405L70.5585-24.9191L70.9555-12.5552C71.061-10.1957 72.9179-8.78605 74.8301-8.78605C76.7675-8.78605 78.7048-10.1957 78.7576-12.5552L79.1546-24.9191L79.1546-62.6405C79.1546-64.8693 77.1645-66.8067 74.8301-66.8067ZM74.8301-3.73274C75.9709-3.73274 76.873-4.10463 77.9334-5.16499L98.8502-25.4763C99.6468-26.3256 100.124-27.1749 100.124-28.3157C100.124-30.5169 98.3979-32.1376 96.2244-32.1376C95.1364-32.1376 94.0484-31.6853 93.2518-30.836L82.8845-19.9134L74.8301-11.4646L74.8301-11.4646L66.7481-19.9134L56.3808-30.836C55.637-31.6853 54.4435-32.1376 53.4082-32.1376C51.1794-32.1376 49.5612-30.5169 49.5612-28.3157C49.5612-27.1749 49.9859-26.3256 50.8352-25.4763L71.7269-5.16499C72.8124-4.10463 73.7421-3.73274 74.8301-3.73274Z" data-clipstroke-keyframes="0 4 0 0.4991348 1.5009816 0 0.24839842 0.2507353 1.7492981 0 0.49579284 0.0033398352 1.9966571 0 0.7506188 0.7485149 1.2515205 0 1 0.4991348 1.5009816 0 0 2.9458413 2.0537858 0 0.7509312 2.3543751 2.645254 0 1 2.4518254 2.5478013"/>
  </g>
  <g id="Light-L" transform="matrix(1 0 0 1 1079.2 1556)">
   <path d="M73.9141 27.3856C108.519 27.3856 136.603-0.66445 136.603-35.2697C136.603-69.875 108.519-97.925 73.9141-97.925C39.3425-97.925 11.2588-69.875 11.2588-35.2697C11.2588-0.66445 39.3425 27.3856 73.9141 27.3856ZM73.9141 20.4903C43.0726 20.4903 18.141-4.42824 18.141-35.2697C18.141-66.1112 43.0726-91.0297 73.9141-91.0297C104.756-91.0297 129.674-66.1112 129.674-35.2697C129.674-4.42824 104.756 20.4903 73.9141 20.4903ZM73.9141-66.4822C72.1669-66.4822 70.6348-64.9838 70.6348-63.2703L70.6348-22.438L70.9173-11.1429C70.9847-9.37508 72.4026-8.21349 73.9141-8.21349C75.4124-8.21349 76.9108-9.37508 76.9445-11.1429L77.227-22.438L77.227-63.2703C77.227-64.9838 75.6949-66.4822 73.9141-66.4822ZM73.9141-4.05719C74.7876-4.05719 75.4798-4.35274 76.273-5.14591L97.3616-25.8771C97.9863-26.5356 98.3492-27.194 98.3492-28.0676C98.3492-29.7344 96.9856-31.0307 95.3656-31.0307C94.5256-31.0307 93.6857-30.6547 93.0609-29.9963L81.644-18.1957L73.9141-10.2432L73.9141-10.2432L66.1374-18.1957L54.7204-29.9963C54.1293-30.6547 53.222-31.0307 52.4158-31.0307C50.7023-31.0307 49.4658-29.7344 49.4658-28.0676C49.4658-27.194 49.795-26.5356 50.4535-25.8771L71.5552-5.14591C72.3353-4.35274 73.0741-4.05719 73.9141-4.05719Z" data-clipstroke-keyframes="0 4 0 0.4991267 1.5010552 0 0.24847661 0.250649 1.7494005 0 0.49578533 0.0033392205 1.9966568 0 0.750631 0.7484946 1.2515575 0 1 0.4991267 1.5010552 0 0 2.9574447 2.0423138 0 0.78073335 2.372195 2.6275656 0 1 2.4626427 2.5371158"/>
  </g>
  <g id="Thin-L" transform="matrix(1 0 0 1 783.716 1556)">
   <path d="M72.7024 26.174C106.626 26.174 134.155-1.34598 134.155-35.2697C134.155-69.1934 106.626-96.7134 72.7024-96.7134C38.7872-96.7134 11.2588-69.1934 11.2588-35.2697C11.2588-1.34598 38.7872 26.174 72.7024 26.174ZM72.7024 22.1563C40.927 22.1563 15.2129-3.49429 15.2129-35.2697C15.2129-67.0451 40.927-92.6957 72.7024-92.6957C104.478-92.6957 130.128-67.0451 130.128-35.2697C130.128-3.49429 104.478 22.1563 72.7024 22.1563ZM72.7024-66.0531C71.662-66.0531 70.7358-65.1353 70.7358-64.1033L70.7358-19.1565L70.8668-9.27498C70.8837-8.28968 71.7211-7.45623 72.7024-7.45623C73.6203-7.45623 74.5381-8.28968 74.5465-9.27498L74.6775-19.1565L74.6775-64.1033C74.6775-65.1353 73.7513-66.0531 72.7024-66.0531ZM72.7024-4.4863C73.2227-4.4863 73.6371-4.68088 74.0769-5.12067L95.3927-26.4072C95.7903-26.8132 96.0018-27.2193 96.0018-27.7395C96.0018-28.6995 95.1177-29.5667 94.2297-29.5667C93.7179-29.5667 93.2061-29.2917 92.8085-28.8856L80.0032-15.924L72.7024-8.62768L72.7024-8.62768L65.3297-15.924L52.5244-28.8856C52.1352-29.2917 51.6066-29.5667 51.1032-29.5667C50.0713-29.5667 49.3396-28.6995 49.3396-27.7395C49.3396-27.2193 49.5426-26.8132 49.9487-26.4072L71.328-5.12067C71.7042-4.68088 72.1907-4.4863 72.7024-4.4863Z" data-clipstroke-keyframes="0 4 0 0.49911413 1.5011477 0 0.24858002 0.25053394 1.7495334 0 0.49577537 0.003338395 1.9966562 0 0.75064707 0.7484669 1.2516038 0 1 0.49911413 1.5011477 0 0 2.9733243 2.0266144 0 0.8201491 2.3964038 2.6035352 0 1 2.4771678 2.5227706"/>
  </g>
  <g id="Ultralight-L" transform="matrix(1 0 0 1 487.631 1556)">
   <path d="M72.0819 25.5534C105.657 25.5534 132.9-1.69505 132.9-35.2697C132.9-68.8443 105.657-96.0928 72.0819-96.0928C38.5027-96.0928 11.2588-68.8443 11.2588-35.2697C11.2588-1.69505 38.5027 25.5534 72.0819 25.5534ZM72.0819 23.0096C39.8281 23.0096 13.7132-3.01593 13.7132-35.2697C13.7132-67.5235 39.8281-93.549 72.0819-93.549C104.336-93.549 130.361-67.5235 130.361-35.2697C130.361-3.01593 104.336 23.0096 72.0819 23.0096ZM72.0819-65.8333C71.4035-65.8333 70.7875-65.2129 70.7875-64.53L70.7875-17.4758L70.841-8.31826C70.832-7.73375 71.372-7.06837 72.0819-7.06837C72.7023-7.06837 73.3228-7.73375 73.3183-8.31826L73.3717-17.4758L73.3717-64.53C73.3717-65.2129 72.7558-65.8333 72.0819-65.8333ZM72.0819-4.70609C72.4211-4.70609 72.6933-4.84896 72.9521-5.10774L94.3842-26.6787C94.6655-26.9554 94.7994-27.2322 94.7994-27.5714C94.7994-28.1694 94.161-28.8168 93.6479-28.8168C93.3042-28.8168 92.9605-28.5935 92.6792-28.3168L79.1629-14.7604L72.0819-7.80024L72.0819-7.80024L64.916-14.7604L51.3996-28.3168C51.1138-28.5935 50.7791-28.8168 50.4309-28.8168C49.748-28.8168 49.2749-28.1694 49.2749-27.5714C49.2749-27.2322 49.4133-26.9554 49.6901-26.6787L71.2116-5.10774C71.381-4.84896 71.7382-4.70609 72.0819-4.70609Z" data-clipstroke-keyframes="0 4 0 0.4991068 1.5011932 0 0.248633 0.25047454 1.7496005 0 0.49577028 0.0033379663 1.996656 0 0.7506553 0.74845225 1.2516266 0 1 0.4991068 1.5011932 0 0 2.9827595 2.0172682 0 0.84033763 2.4097152 2.590311 0 1 2.4856427 2.5143838"/>
  </g>
  <g id="Black-M" transform="matrix(1 0 0 1 2871.36 1126)">
   <path d="M62.0422 18.0589C91.4936 18.0589 115.367-5.80932 115.367-35.2606C115.367-64.712 91.4936-88.5802 62.0422-88.5802C32.5964-88.5802 8.72266-64.712 8.72266-35.2606C8.72266-5.80932 32.5964 18.0589 62.0422 18.0589ZM62.0422 0.677054C42.1819 0.677054 26.1103-15.4003 26.1103-35.2606C26.1103-55.1209 42.1819-71.1983 62.0422-71.1983C81.9025-71.1983 97.9799-55.1209 97.9799-35.2606C97.9799-15.4003 81.9025 0.677054 62.0422 0.677054ZM62.0422-61.6043C57.7825-61.6043 54.4065-58.1196 54.4065-54.0938L54.4065-33.8893L55.3011-22.2954C55.5405-18.5383 58.3349-15.5081 62.0422-15.5081C65.7554-15.5081 68.555-18.5383 68.7889-22.2954L69.6835-33.8893L69.6835-54.0938C69.6835-58.1196 66.3645-61.6043 62.0422-61.6043ZM62.0422-8.91697C64.1435-8.91697 66.2802-9.6345 68.3192-11.5593L84.6145-27.1603C85.8266-28.4351 86.5552-29.7098 86.5552-31.6398C86.5552-35.2663 83.3208-37.7474 80.1508-37.7474C78.2263-37.7474 76.5873-36.9105 75.318-35.6357L70.821-30.8557L68.2086-25.3443L55.8758-25.3443L53.2637-30.8557L48.7667-35.6357C47.503-36.9105 45.8529-37.7474 43.9339-37.7474C40.7646-37.7474 37.5351-35.2663 37.5351-31.6398C37.5351-29.7098 38.2581-28.4351 39.4758-27.1603L55.7652-11.5593C57.81-9.6345 59.9464-8.91697 62.0422-8.91697Z" data-clipstroke-keyframes="0 4 0 0.4991024 1.5010128 0 0.24855801 0.25054482 1.7494538 0 0.49588108 0.0032221824 1.9966589 0 0.7506389 0.74846387 1.2515355 0 1 0.4991024 1.5010128 0 0 2.8896337 2.1102073 0 0.662509 2.3185956 2.6812453 0 1 2.4241168 2.5757117"/>
  </g>
  <g id="Heavy-M" transform="matrix(1 0 0 1 2575.48 1126)">
   <path d="M61.2053 17.222C90.1969 17.222 113.704-6.26912 113.704-35.2606C113.704-64.2522 90.1969-87.7433 61.2053-87.7433C32.2302-87.7433 8.72266-64.2522 8.72266-35.2606C8.72266-6.26912 32.2302 17.222 61.2053 17.222ZM61.2053 1.99116C40.6171 1.99116 23.9677-14.6724 23.9677-35.2606C23.9677-55.8489 40.6171-72.5124 61.2053-72.5124C81.7936-72.5124 98.4571-55.8489 98.4571-35.2606C98.4571-14.6724 81.7936 1.99116 61.2053 1.99116ZM61.2053-61.197C57.4619-61.197 54.4571-58.1214 54.4571-54.5689L54.4571-32.6541L55.2286-21.392C55.4359-18.0106 57.9694-15.4045 61.2053-15.4045C64.4554-15.4045 67.0076-18.0106 67.1985-21.392L67.97-32.6541L67.97-54.5689C67.97-58.1214 65.0088-61.197 61.2053-61.197ZM61.2053-9.32425C63.0552-9.32425 64.8809-9.95071 66.6685-11.6511L82.9193-27.2275C84.0142-28.3823 84.6735-29.5372 84.6735-31.2563C84.6735-34.5012 81.838-36.7368 78.9443-36.7368C77.2417-36.7368 75.7572-36.0044 74.6187-34.8495L69.4286-29.3186L65.9165-23.4963L56.4942-23.4963L52.9798-29.3186L47.7897-34.8495C46.6677-36.0044 45.1503-36.7368 43.4641-36.7368C40.5659-36.7368 37.7514-34.5012 37.7514-31.2563C37.7514-29.5372 38.3942-28.3823 39.5055-27.2275L55.7422-11.6511C57.544-9.95071 59.3719-9.32425 61.2053-9.32425Z" data-clipstroke-keyframes="0 4 0 0.4991097 1.5009897 0 0.24850677 0.25060385 1.7493978 0 0.49586156 0.003250038 1.9966586 0 0.75063205 0.74847853 1.2515241 0 1 0.4991097 1.5009897 0 0 2.8999577 2.0998151 0 0.67820346 2.3230588 2.676714 0 1 2.4264212 2.5733232"/>
  </g>
  <g id="Bold-M" transform="matrix(1 0 0 1 2279.69 1126)">
   <path d="M60.2692 16.2859C88.7463 16.2859 111.844-6.78347 111.844-35.2606C111.844-63.7378 88.7463-86.8071 60.2692-86.8071C31.8206-86.8071 8.72266-63.7378 8.72266-35.2606C8.72266-6.78347 31.8206 16.2859 60.2692 16.2859ZM60.2692 3.46117C38.8667 3.46117 21.5708-13.8582 21.5708-35.2606C21.5708-56.6631 38.8667-73.9825 60.2692-73.9825C81.6717-73.9825 98.991-56.6631 98.991-35.2606C98.991-13.8582 81.6717 3.46117 60.2692 3.46117ZM60.2692-60.7414C57.1032-60.7414 54.5138-58.1235 54.5138-55.1004L54.5138-31.2724L55.1475-20.3815C55.3189-17.4204 57.5605-15.2885 60.2692-15.2885C63.0013-15.2885 65.2766-17.4204 65.4194-20.3815L66.0531-31.2724L66.0531-55.1004C66.0531-58.1235 63.4922-60.7414 60.2692-60.7414ZM60.2692-9.77986C61.8378-9.77986 63.3155-10.3044 64.8218-11.7537L81.0231-27.3026C81.9867-28.3234 82.5685-29.3441 82.5685-30.8272C82.5685-33.6453 80.1793-35.6062 77.5947-35.6062C76.1402-35.6062 74.8286-34.9907 73.8364-33.97L67.871-27.599L63.3524-21.4291L57.186-21.4291L52.6622-27.599L46.6968-33.97C45.7332-34.9907 44.3643-35.6062 42.9385-35.6062C40.3437-35.6062 37.9933-33.6453 37.9933-30.8272C37.9933-29.3441 38.5465-28.3234 39.5387-27.3026L55.7165-11.7537C57.2464-10.3044 58.7291-9.77986 60.2692-9.77986Z" data-clipstroke-keyframes="0 4 0 0.49911895 1.5009658 0 0.24844946 0.25067046 1.749336 0 0.49583972 0.0032812099 1.9966581 0 0.7506244 0.7484955 1.2515123 0 1 0.49911895 1.5009658 0 0 2.9118962 2.0877957 0 0.6957599 2.3293557 2.670336 0 1 2.4313416 2.5683184"/>
  </g>
  <g id="Semibold-M" transform="matrix(1 0 0 1 1983.62 1126)">
   <path d="M59.6238 15.6405C87.7463 15.6405 110.562-7.13807 110.562-35.2606C110.562-63.3832 87.7463-86.1618 59.6238-86.1618C31.5382-86.1618 8.72266-63.3832 8.72266-35.2606C8.72266-7.13807 31.5382 15.6405 59.6238 15.6405ZM59.6238 4.47459C37.6599 4.47459 19.9185-13.2968 19.9185-35.2606C19.9185-57.2245 37.6599-74.9959 59.6238-74.9959C81.5876-74.9959 99.359-57.2245 99.359-35.2606C99.359-13.2968 81.5876 4.47459 59.6238 4.47459ZM59.6238-60.4273C56.856-60.4273 54.5529-58.125 54.5529-55.4668L54.5529-30.3198L55.0916-19.6848C55.2383-17.0135 57.2787-15.2086 59.6238-15.2086C61.9988-15.2086 64.0833-17.0135 64.193-19.6848L64.7317-30.3198L64.7317-55.4668C64.7317-58.125 62.4467-60.4273 59.6238-60.4273ZM59.6238-10.0939C60.9986-10.0939 62.2363-10.5483 63.5488-11.8245L79.7158-27.3544C80.5889-28.2827 81.1174-29.211 81.1174-30.5314C81.1174-33.0553 79.0358-34.8267 76.6642-34.8267C75.3809-34.8267 74.1884-34.2919 73.2971-33.3636L66.7972-26.4136L61.5847-20.004L57.6628-20.004L52.4432-26.4136L45.9433-33.3636C45.0891-34.2919 43.8225-34.8267 42.5762-34.8267C40.1904-34.8267 38.1601-33.0553 38.1601-30.5314C38.1601-29.211 38.6515-28.2827 39.5616-27.3544L55.6987-11.8245C57.0412-10.5483 58.286-10.0939 59.6238-10.0939Z" data-clipstroke-keyframes="0 4 0 0.49912608 1.5009503 0 0.24840996 0.25071678 1.749294 0 0.4958247 0.0033027069 1.9966578 0 0.7506191 0.74850756 1.2515047 0 1 0.49912608 1.5009503 0 0 2.921593 2.0780475 0 0.70786315 2.333213 2.6664276 0 1 2.4350517 2.564562"/>
  </g>
  <g id="Medium-M" transform="matrix(1 0 0 1 1687.4 1126)">
   <path d="M59.1344 15.1511C86.9881 15.1511 109.59-7.40694 109.59-35.2606C109.59-63.1144 86.9881-85.6724 59.1344-85.6724C31.3241-85.6724 8.72266-63.1144 8.72266-35.2606C8.72266-7.40694 31.3241 15.1511 59.1344 15.1511ZM59.1344 5.24301C36.7449 5.24301 18.6656-12.8711 18.6656-35.2606C18.6656-57.6501 36.7449-75.7643 59.1344-75.7643C81.5239-75.7643 99.6381-57.6501 99.6381-35.2606C99.6381-12.8711 81.5239 5.24301 59.1344 5.24301ZM59.1344-60.1892C56.6685-60.1892 54.5825-58.126 54.5825-55.7447L54.5825-29.5975L55.0492-19.1566C55.1772-16.7049 57.065-15.148 59.1344-15.148C61.2386-15.148 63.1785-16.7049 63.263-19.1566L63.7297-29.5975L63.7297-55.7447C63.7297-58.126 61.654-60.1892 59.1344-60.1892ZM59.1344-10.3321C60.3622-10.3321 61.418-10.7332 62.5835-11.8781L78.7246-27.3937C79.5291-28.2519 80.017-29.1101 80.017-30.3071C80.017-32.6079 78.1687-34.2358 75.9587-34.2358C74.8052-34.2358 73.703-33.7621 72.8882-32.9039L65.983-25.5147L60.2443-18.9234L58.0244-18.9234L52.2772-25.5147L45.372-32.9039C44.6006-33.7621 43.4116-34.2358 42.3015-34.2358C40.0743-34.2358 38.2866-32.6079 38.2866-30.3071C38.2866-29.1101 38.7311-28.2519 39.579-27.3937L55.6853-11.8781C56.8856-10.7332 57.95-10.3321 59.1344-10.3321Z" data-clipstroke-keyframes="0 4 0 0.4991319 1.5009391 0 0.24837999 0.25075206 1.7492626 0 0.49581325 0.0033190108 1.9966576 0 0.7506151 0.7485169 1.251499 0 1 0.4991319 1.5009391 0 0 2.9283812 2.0712135 0 0.71704036 2.3366852 2.66291 0 1 2.4385734 2.5610034"/>
  </g>
  <g id="Regular-M" transform="matrix(1 0 0 1 1391.32 1126)">
   <path d="M58.4961 14.5128C85.9991 14.5128 108.321-7.75763 108.321-35.2606C108.321-62.7637 85.9991-85.0341 58.4961-85.0341C31.0448-85.0341 8.72266-62.7637 8.72266-35.2606C8.72266-7.75763 31.0448 14.5128 58.4961 14.5128ZM58.4961 6.24529C35.5514 6.24529 17.0314-12.316 17.0314-35.2606C17.0314-58.2053 35.5514-76.7666 58.4961-76.7666C81.4408-76.7666 100.002-58.2053 100.002-35.2606C100.002-12.316 81.4408 6.24529 58.4961 6.24529ZM58.4961-59.8785C56.4239-59.8785 54.6211-58.1275 54.6211-56.1071L54.6211-28.6554L54.9939-18.4676C55.0974-16.3025 56.7862-15.0689 58.4961-15.0689C60.2472-15.0689 61.9982-16.3025 62.05-18.4676L62.4228-28.6554L62.4228-56.1071C62.4228-58.1275 60.62-59.8785 58.4961-59.8785ZM58.4961-10.6427C59.5322-10.6427 60.3507-10.9744 61.3244-11.9481L77.4317-27.4449C78.1467-28.2117 78.5818-28.9784 78.5818-30.0145C78.5818-32.0243 77.0378-33.4649 75.0385-33.4649C74.0542-33.4649 73.0698-33.071 72.3548-32.3042L64.921-24.3423L58.4961-17.5139L58.4961-17.5139L52.0606-24.3423L44.6268-32.3042C43.9635-33.071 42.8757-33.4649 41.9431-33.4649C39.9227-33.4649 38.4515-32.0243 38.4515-30.0145C38.4515-28.9784 38.8349-28.2117 39.6017-27.4449L55.6677-11.9481C56.6827-10.9744 57.5118-10.6427 58.4961-10.6427Z" data-clipstroke-keyframes="0 4 0 0.49914 1.5009251 0 0.2483409 0.2507984 1.7492216 0 0.49579838 0.0033402822 1.9966574 0 0.7506099 0.74852943 1.2514921 0 1 0.49914 1.5009251 0 0 2.9375196 2.062013 0 0.72901064 2.3415265 2.6580074 0 1 2.4439583 2.555574"/>
  </g>
  <g id="Light-M" transform="matrix(1 0 0 1 1095.44 1126)">
   <path d="M57.6748 13.6915C84.7158 13.6915 106.662-8.21963 106.662-35.2606C106.662-62.3017 84.7158-84.2128 57.6748-84.2128C30.6684-84.2128 8.72266-62.3017 8.72266-35.2606C8.72266-8.21963 30.6684 13.6915 57.6748 13.6915ZM57.6748 7.37462C34.097 7.37462 15.0465-11.6829 15.0465-35.2606C15.0465-58.8384 34.097-77.8959 57.6748-77.8959C81.2526-77.8959 100.31-58.8384 100.31-35.2606C100.31-11.6829 81.2526 7.37462 57.6748 7.37462ZM57.6748-59.5877C56.0817-59.5877 54.6896-58.2301 54.6896-56.6717L54.6896-26.431L54.9597-17.2014C55.029-15.5667 56.3242-14.5556 57.6748-14.5556C59.0323-14.5556 60.3898-15.5667 60.4245-17.2014L60.6946-26.431L60.6946-56.6717C60.6946-58.2301 59.3024-59.5877 57.6748-59.5877ZM57.6748-10.9336C58.4713-10.9336 59.1016-11.1968 59.8358-11.931L76.0971-27.8042C76.6581-28.3999 76.9905-28.9955 76.9905-29.7921C76.9905-31.3228 75.7716-32.4725 74.2685-32.4725C73.5066-32.4725 72.7447-32.147 72.1837-31.5513L63.8088-22.8023L57.6748-16.4188L57.6748-16.4188L51.5131-22.8023L43.1381-31.5513C42.6118-32.147 41.7806-32.4725 41.0534-32.4725C39.495-32.4725 38.366-31.3228 38.366-29.7921C38.366-28.9955 38.6638-28.3999 39.2595-27.8042L55.5137-11.931C56.2549-11.1968 56.9129-10.9336 57.6748-10.9336Z" data-clipstroke-keyframes="0 4 0 0.49913153 1.501013 0 0.2484314 0.25069898 1.7493415 0 0.49578968 0.003339577 1.9966569 0 0.75062394 0.7485064 1.2515363 0 1 0.49913153 1.501013 0 0 2.9506931 2.048989 0 0.7634985 2.3618398 2.6378446 0 1 2.4563696 2.543312"/>
  </g>
  <g id="Thin-M" transform="matrix(1 0 0 1 799.828 1126)">
   <path d="M56.5885 12.6052C83.0185 12.6052 104.466-8.83065 104.466-35.2606C104.466-61.6906 83.0185-83.1265 56.5885-83.1265C30.1705-83.1265 8.72266-61.6906 8.72266-35.2606C8.72266-8.83065 30.1705 12.6052 56.5885 12.6052ZM56.5885 8.86824C32.1734 8.86824 12.4213-10.8455 12.4213-35.2606C12.4213-59.6758 32.1734-79.3895 56.5885-79.3895C81.0036-79.3895 100.717-59.6758 100.717-35.2606C100.717-10.8455 81.0036 8.86824 56.5885 8.86824ZM56.5885-59.2029C55.6291-59.2029 54.7801-58.3659 54.7801-57.4185L54.7801-23.489L54.9145-15.5267C54.9385-14.5936 55.7132-13.8767 56.5885-13.8767C57.4255-13.8767 58.2625-14.5936 58.2745-15.5267L58.4089-23.489L58.4089-57.4185C58.4089-58.3659 57.5599-59.2029 56.5885-59.2029ZM56.5885-11.3184C57.0682-11.3184 57.4495-11.491 57.8669-11.9084L74.3319-28.2795C74.6892-28.6488 74.8859-29.0182 74.8859-29.4979C74.8859-30.3949 74.0969-31.1599 73.2501-31.1599C72.7824-31.1599 72.3148-30.9249 71.9574-30.5556L62.3378-20.7656L56.5885-14.9704L56.5885-14.9704L50.7889-20.7656L41.1693-30.5556C40.824-30.9249 40.3323-31.1599 39.8766-31.1599C38.9292-31.1599 38.2528-30.3949 38.2528-29.4979C38.2528-29.0182 38.4375-28.6488 38.8068-28.2795L55.3101-11.9084C55.6892-11.491 56.1208-11.3184 56.5885-11.3184Z" data-clipstroke-keyframes="0 4 0 0.49911785 1.5011225 0 0.24855107 0.25056624 1.7494965 0 0.49577817 0.0033386275 1.9966564 0 0.7506426 0.7484748 1.2515912 0 1 0.49911785 1.5011225 0 0 2.9688148 2.0310726 0 0.8091115 2.38955 2.6103384 0 1 2.4730754 2.526812"/>
  </g>
  <g id="Ultralight-M" transform="matrix(1 0 0 1 503.679 1126)">
   <path d="M56.0321 12.0488C82.1491 12.0488 103.342-9.14362 103.342-35.2606C103.342-61.3777 82.1491-82.5701 56.0321-82.5701C29.9155-82.5701 8.72266-61.3777 8.72266-35.2606C8.72266-9.14362 29.9155 12.0488 56.0321 12.0488ZM56.0321 9.63326C31.1881 9.63326 11.0767-10.4166 11.0767-35.2606C11.0767-60.1046 31.1881-80.1545 56.0321-80.1545C80.8761-80.1545 100.926-60.1046 100.926-35.2606C100.926-10.4166 80.8761 9.63326 56.0321 9.63326ZM56.0321-59.0059C55.3973-59.0059 54.8264-58.4355 54.8264-57.8011L54.8264-21.9821L54.8913-14.6689C54.8921-14.0951 55.4002-13.5289 56.0321-13.5289C56.6025-13.5289 57.173-14.0951 57.1734-14.6689L57.2382-21.9821L57.2382-57.8011C57.2382-58.4355 56.6674-59.0059 56.0321-59.0059ZM56.0321-11.5154C56.3495-11.5154 56.6034-11.6417 56.8585-11.8968L73.4277-28.5229C73.6808-28.7763 73.8079-29.0298 73.8079-29.3472C73.8079-29.9197 73.2391-30.4876 72.7285-30.4876C72.4115-30.4876 72.0945-30.299 71.8415-30.0456L61.5844-19.7223L56.0321-14.2286L56.0321-14.2286L50.418-19.7223L40.1608-30.0456C39.9082-30.299 39.5904-30.4876 39.2738-30.4876C38.6394-30.4876 38.1949-29.9197 38.1949-29.3472C38.1949-29.0298 38.3216-28.7763 38.575-28.5229L55.2057-11.8968C55.3994-11.6417 55.7151-11.5154 56.0321-11.5154Z" data-clipstroke-keyframes="0 4 0 0.49910972 1.5011756 0 0.24861237 0.25049773 1.7495744 0 0.49577227 0.0033381337 1.9966561 0 0.7506521 0.748458 1.2516178 0 1 0.49910972 1.5011756 0 0 2.9796844 2.0203125 0 0.8324742 2.404872 2.5951242 0 1 2.4829018 2.517094"/>
  </g>
  <g id="Black-S" transform="matrix(1 0 0 1 2884.57 696)">
   <path d="M48.8281 6.73828C72.0215 6.73828 90.8203-12.0605 90.8203-35.2539C90.8203-58.4473 72.0215-77.2461 48.8281-77.2461C25.6348-77.2461 6.83594-58.4473 6.83594-35.2539C6.83594-12.0605 25.6348 6.73828 48.8281 6.73828ZM48.8281-7.42188C33.4473-7.42188 20.9961-19.873 20.9961-35.2539C20.9961-50.6348 33.4473-63.0859 48.8281-63.0859C64.209-63.0859 76.6602-50.6348 76.6602-35.2539C76.6602-19.873 64.209-7.42188 48.8281-7.42188ZM48.8281-56.0059C45.3613-56.0059 42.627-53.1738 42.627-49.9023L42.627-34.4238L43.3594-25.293C43.5547-22.2656 45.8008-19.7754 48.8281-19.7754C51.8555-19.7754 54.1016-22.2656 54.2969-25.293L55.0293-34.4238L55.0293-49.9023C55.0293-53.1738 52.3438-56.0059 48.8281-56.0059ZM48.8281-14.502C50.5371-14.502 52.2949-15.0879 53.9551-16.6504L66.748-28.9062C67.7246-29.9316 68.3105-30.957 68.3105-32.5195C68.3105-35.4492 65.6738-37.4512 63.1348-37.4512C61.5723-37.4512 60.2539-36.7676 59.2285-35.7422L55.8594-32.1777L54.1016-27.9785L43.5547-27.9785L41.7969-32.1777L38.4277-35.7422C37.4023-36.7676 36.084-37.4512 34.5215-37.4512C31.9824-37.4512 29.3457-35.4492 29.3457-32.5195C29.3457-30.957 29.9316-29.9316 30.9082-28.9062L43.7012-16.6504C45.3613-15.0879 47.1191-14.502 48.8281-14.502Z" data-clipstroke-keyframes="0 4 0 0.49909934 1.5010297 0 0.24858454 0.2505148 1.749485 0 0.49588796 0.0032113674 1.996659 0 0.7506426 0.7484567 1.251544 0 1 0.49909934 1.5010297 0 0 2.8865805 2.113296 0 0.6590052 2.3181708 2.681706 0 1 2.4241807 2.575696"/>
  </g>
  <g id="Heavy-S" transform="matrix(1 0 0 1 2588.47 696)">
   <path d="M48.2173 6.12748C71.0765 6.12748 89.6102-12.3948 89.6102-35.2539C89.6102-58.1131 71.0765-76.6353 48.2173-76.6353C25.3697-76.6353 6.83594-58.1131 6.83594-35.2539C6.83594-12.3948 25.3697 6.12748 48.2173 6.12748ZM48.2173-6.4423C32.2948-6.4423 19.4172-19.3314 19.4172-35.2539C19.4172-51.1764 32.2948-64.0655 48.2173-64.0655C64.1398-64.0655 77.0289-51.1764 77.0289-35.2539C77.0289-19.3314 64.1398-6.4423 48.2173-6.4423ZM48.2173-55.6947C45.1308-55.6947 42.6615-53.1623 42.6615-50.2366L42.6615-33.6517L43.3018-24.6822C43.474-21.9084 45.5472-19.7523 48.2173-19.7523C50.8989-19.7523 52.9837-21.9084 53.1444-24.6822L53.7847-33.6517L53.7847-50.2366C53.7847-53.1623 51.3526-55.6947 48.2173-55.6947ZM48.2173-14.8131C49.7419-14.8131 51.2577-15.3299 52.7335-16.7311L65.4688-28.9178C66.3647-29.8625 66.9046-30.8072 66.9046-32.2199C66.9046-34.8845 64.5675-36.7136 62.2013-36.7136C60.8001-36.7136 59.5855-36.1107 58.6523-35.166L54.8106-31.0599L52.2461-26.538L44.1885-26.538L41.624-31.0599L37.7824-35.166C36.8607-36.1107 35.623-36.7136 34.2334-36.7136C31.8672-36.7136 29.5416-34.8845 29.5416-32.2199C29.5416-30.8072 30.0699-29.8625 30.9773-28.9178L43.7012-16.7311C45.1885-15.3299 46.7043-14.8131 48.2173-14.8131Z" data-clipstroke-keyframes="0 4 0 0.49910805 1.5009875 0 0.24851386 0.25059512 1.749403 0 0.4958681 0.0032418747 1.9966587 0 0.7506328 0.74847615 1.251523 0 1 0.49910805 1.5009875 0 0 2.8958507 2.1039302 0 0.67050874 2.3202143 2.6795664 0 1 2.4247923 2.5749605"/>
  </g>
  <g id="Bold-S" transform="matrix(1 0 0 1 2292.43 696)">
   <path d="M47.5342 5.44434C70.0195 5.44434 88.2568-12.7686 88.2568-35.2539C88.2568-57.7393 70.0195-75.9521 47.5342-75.9521C25.0732-75.9521 6.83594-57.7393 6.83594-35.2539C6.83594-12.7686 25.0732 5.44434 47.5342 5.44434ZM47.5342-5.34668C31.0059-5.34668 17.6514-18.7256 17.6514-35.2539C17.6514-51.7822 31.0059-65.1611 47.5342-65.1611C64.0625-65.1611 77.4414-51.7822 77.4414-35.2539C77.4414-18.7256 64.0625-5.34668 47.5342-5.34668ZM47.5342-55.3467C44.873-55.3467 42.7002-53.1494 42.7002-50.6104L42.7002-32.7881L43.2373-23.999C43.3838-21.5088 45.2637-19.7266 47.5342-19.7266C49.8291-19.7266 51.7334-21.5088 51.8555-23.999L52.3926-32.7881L52.3926-50.6104C52.3926-53.1494 50.2441-55.3467 47.5342-55.3467ZM47.5342-15.1611C48.8525-15.1611 50.0977-15.6006 51.3672-16.8213L64.0381-28.9307C64.8438-29.7852 65.332-30.6396 65.332-31.8848C65.332-34.2529 63.3301-35.8887 61.1572-35.8887C59.9365-35.8887 58.8379-35.376 58.0078-34.5215L53.6377-29.8096L50.1709-24.9268L44.8975-24.9268L41.4307-29.8096L37.0605-34.5215C36.2549-35.376 35.1074-35.8887 33.9111-35.8887C31.7383-35.8887 29.7607-34.2529 29.7607-31.8848C29.7607-30.6396 30.2246-29.7852 31.0547-28.9307L43.7012-16.8213C44.9951-15.6006 46.2402-15.1611 47.5342-15.1611Z" data-clipstroke-keyframes="0 4 0 0.49911916 1.5009434 0 0.24843483 0.25068566 1.7493129 0 0.49584585 0.0032760105 1.9966583 0 0.7506219 0.74849856 1.2515011 0 1 0.49911916 1.5009434 0 0 2.9065135 2.0931542 0 0.6833749 2.3235753 2.6760917 0 1 2.4277685 2.5718608"/>
  </g>
  <g id="Semibold-S" transform="matrix(1 0 0 1 1996.19 696)">
   <path d="M47.0632 4.97334C69.2908 4.97334 87.3237-13.0263 87.3237-35.2539C87.3237-57.4815 69.2908-75.4812 47.0632-75.4812C24.8688-75.4812 6.83594-57.4815 6.83594-35.2539C6.83594-13.0263 24.8688 4.97334 47.0632 4.97334ZM47.0632-4.59131C30.1172-4.59131 16.4339-18.3079 16.4339-35.2539C16.4339-52.1999 30.1172-65.9165 47.0632-65.9165C64.0092-65.9165 77.7258-52.1999 77.7258-35.2539C77.7258-18.3079 64.0092-4.59131 47.0632-4.59131ZM47.0632-55.1067C44.6953-55.1067 42.7269-53.1405 42.7269-50.8681L42.7269-32.1927L43.1929-23.528C43.3216-21.2333 45.0682-19.7088 47.0632-19.7088C49.0915-19.7088 50.8714-21.2333 50.9668-23.528L51.4328-32.1927L51.4328-50.8681C51.4328-53.1405 49.4799-55.1067 47.0632-55.1067ZM47.0632-15.4011C48.2394-15.4011 49.2979-15.7872 50.4252-16.8835L63.0517-28.9396C63.7951-29.7318 64.2479-30.5241 64.2479-31.6537C64.2479-33.8175 62.477-35.3199 60.4374-35.3199C59.3411-35.3199 58.3225-34.8694 57.5635-34.0771L52.829-28.9476L48.7401-23.8159L45.3862-23.8159L41.2974-28.9476L36.5629-34.0771C35.8372-34.8694 34.752-35.3199 33.689-35.3199C31.6494-35.3199 29.9118-33.8175 29.9118-31.6537C29.9118-30.5241 30.3313-29.7318 31.108-28.9396L43.7012-16.8835C44.8618-15.7872 45.9203-15.4011 47.0632-15.4011Z" data-clipstroke-keyframes="0 4 0 0.49912772 1.500915 0 0.24838033 0.25074854 1.7492518 0 0.49583054 0.003299555 1.9966581 0 0.7506144 0.7485145 1.2514869 0 1 0.49912772 1.500915 0 0 2.9143658 2.0852196 0 0.6922455 2.3255877 2.6739974 0 1 2.430217 2.5693345"/>
  </g>
  <g id="Medium-S" transform="matrix(1 0 0 1 1699.83 696)">
   <path d="M46.7061 4.61621C68.7383 4.61621 86.6162-13.2217 86.6162-35.2539C86.6162-57.2861 68.7383-75.124 46.7061-75.124C24.7139-75.124 6.83594-57.2861 6.83594-35.2539C6.83594-13.2217 24.7139 4.61621 46.7061 4.61621ZM46.7061-4.01855C29.4434-4.01855 15.5107-17.9912 15.5107-35.2539C15.5107-52.5166 29.4434-66.4893 46.7061-66.4893C63.9688-66.4893 77.9414-52.5166 77.9414-35.2539C77.9414-17.9912 63.9688-4.01855 46.7061-4.01855ZM46.7061-54.9248C44.5605-54.9248 42.7471-53.1338 42.7471-51.0635L42.7471-31.7412L43.1592-23.1709C43.2744-21.0244 44.9199-19.6953 46.7061-19.6953C48.5322-19.6953 50.2178-21.0244 50.293-23.1709L50.7051-31.7412L50.7051-51.0635C50.7051-53.1338 48.9004-54.9248 46.7061-54.9248ZM46.7061-15.583C47.7744-15.583 48.6914-15.9287 49.7109-16.9307L62.3037-28.9463C63-29.6914 63.4258-30.4365 63.4258-31.4785C63.4258-33.4873 61.8301-34.8887 59.8916-34.8887C58.8896-34.8887 57.9316-34.4854 57.2266-33.7402L52.2158-28.2939L47.6553-22.9736L45.7568-22.9736L41.1963-28.2939L36.1855-33.7402C35.5205-34.4854 34.4824-34.8887 33.5205-34.8887C31.582-34.8887 30.0264-33.4873 30.0264-31.4785C30.0264-30.4365 30.4121-29.6914 31.1484-28.9463L43.7012-16.9307C44.7607-15.9287 45.6777-15.583 46.7061-15.583Z" data-clipstroke-keyframes="0 4 0 0.4991347 1.5008943 0 0.24833901 0.2507965 1.7492058 0 0.4958189 0.0033174127 1.9966578 0 0.7506087 0.7485268 1.2514766 0 1 0.4991347 1.5008943 0 0 2.9214377 2.0780916 0 0.6989715 2.3268719 2.6726575 0 1 2.4324818 2.5670242"/>
  </g>
  <g id="Regular-S" transform="matrix(1 0 0 1 1403.58 696)">
   <path d="M46.2402 4.15039C68.0176 4.15039 85.6934-13.4766 85.6934-35.2539C85.6934-57.0312 68.0176-74.6582 46.2402-74.6582C24.5117-74.6582 6.83594-57.0312 6.83594-35.2539C6.83594-13.4766 24.5117 4.15039 46.2402 4.15039ZM46.2402-3.27148C28.5645-3.27148 14.3066-17.5781 14.3066-35.2539C14.3066-52.9297 28.5645-67.2363 46.2402-67.2363C63.916-67.2363 78.2227-52.9297 78.2227-35.2539C78.2227-17.5781 63.916-3.27148 46.2402-3.27148ZM46.2402-54.6875C44.3848-54.6875 42.7734-53.125 42.7734-51.3184L42.7734-31.1523L43.1152-22.7051C43.2129-20.752 44.7266-19.6777 46.2402-19.6777C47.8027-19.6777 49.3652-20.752 49.4141-22.7051L49.7559-31.1523L49.7559-51.3184C49.7559-53.125 48.1445-54.6875 46.2402-54.6875ZM46.2402-15.8203C47.168-15.8203 47.9004-16.1133 48.7793-16.9922L61.3281-28.9551C61.9629-29.6387 62.3535-30.3223 62.3535-31.25C62.3535-33.0566 60.9863-34.3262 59.1797-34.3262C58.3008-34.3262 57.4219-33.9844 56.7871-33.3008L51.416-27.4414L46.2402-21.875L46.2402-21.875L41.0645-27.4414L35.6934-33.3008C35.1074-33.9844 34.1309-34.3262 33.3008-34.3262C31.4941-34.3262 30.1758-33.0566 30.1758-31.25C30.1758-30.3223 30.5176-29.6387 31.2012-28.9551L43.7012-16.9922C44.6289-16.1133 45.3613-15.8203 46.2402-15.8203Z" data-clipstroke-keyframes="0 4 0 0.49914446 1.5008684 0 0.24828511 0.25085935 1.7491465 0 0.49580374 0.0033407123 1.9966576 0 0.75060123 0.7485432 1.2514638 0 1 0.49914446 1.5008684 0 0 2.9296143 2.0698285 0 0.7077446 2.3292654 2.6701777 0 1 2.4363968 2.5630462"/>
  </g>
  <g id="Light-S" transform="matrix(1 0 0 1 1107.6 696)">
   <path d="M45.5137 3.42383C66.8823 3.42383 84.2251-13.8853 84.2251-35.2539C84.2251-56.6226 66.8823-73.9316 45.5137-73.9316C24.1787-73.9316 6.83594-56.6226 6.83594-35.2539C6.83594-13.8853 24.1787 3.42383 45.5137 3.42383ZM45.5137-2.27247C27.2778-2.27247 12.5508-17.0181 12.5508-35.2539C12.5508-53.4897 27.2778-68.2353 45.5137-68.2353C63.7495-68.2353 78.4951-53.4897 78.4951-35.2539C78.4951-17.0181 63.7495-2.27247 45.5137-2.27247ZM45.5137-54.4302C44.082-54.4302 42.834-53.2158 42.834-51.8179L42.834-29.1846L43.085-21.585C43.1523-20.1011 44.3179-19.2236 45.5137-19.2236C46.728-19.2236 47.9424-20.1011 47.9761-21.585L48.2271-29.1846L48.2271-51.8179C48.2271-53.2158 46.979-54.4302 45.5137-54.4302ZM45.5137-16.0776C46.2295-16.0776 46.7954-16.3101 47.4624-16.9771L60.1475-29.2729C60.646-29.8052 60.9458-30.3374 60.9458-31.0532C60.9458-32.436 59.8662-33.4482 58.4985-33.4482C57.8164-33.4482 57.1343-33.167 56.6357-32.6348L50.4321-26.0791L45.5137-20.9063L45.5137-20.9063L40.5801-26.0791L34.3765-32.6348C33.9116-33.167 33.1621-33.4482 32.5137-33.4482C31.1157-33.4482 30.1001-32.436 30.1001-31.0532C30.1001-30.3374 30.3662-29.8052 30.8984-29.2729L43.5649-16.9771C44.2505-16.3101 44.8315-16.0776 45.5137-16.0776Z" data-clipstroke-keyframes="0 4 0 0.49913585 1.5009707 0 0.24838725 0.2507476 1.7492833 0 0.4957939 0.0033399223 1.9966571 0 0.7506171 0.74851775 1.251515 0 1 0.49913585 1.5009707 0 0 2.944211 2.0553975 0 0.7466734 2.3518624 2.647748 0 1 2.4502914 2.5493166"/>
  </g>
  <g id="Thin-S" transform="matrix(1 0 0 1 811.863 696)">
   <path d="M44.5527 2.4629C65.3809 2.4629 82.2832-14.4258 82.2832-35.2539C82.2832-56.082 65.3809-72.9707 44.5527-72.9707C23.7383-72.9707 6.83594-56.082 6.83594-35.2539C6.83594-14.4258 23.7383 2.4629 44.5527 2.4629ZM44.5527-0.95119C25.5762-0.95119 10.2285-16.2774 10.2285-35.2539C10.2285-54.2305 25.5762-69.5566 44.5527-69.5566C63.5293-69.5566 78.8555-54.2305 78.8555-35.2539C78.8555-16.2774 63.5293-0.95119 44.5527-0.95119ZM44.5527-54.0898C43.6816-54.0898 42.9141-53.3359 42.9141-52.4785L42.9141-26.5821L43.0449-20.1035C43.0723-19.2402 43.7774-18.6231 44.5527-18.6231C45.3067-18.6231 46.0606-19.2402 46.0742-20.1035L46.2051-26.5821L46.2051-52.4785C46.2051-53.3359 45.4375-54.0898 44.5527-54.0898ZM44.5527-16.418C44.9883-16.418 45.334-16.5703 45.7207-16.957L58.586-29.6934C58.9043-30.0254 59.084-30.3574 59.084-30.793C59.084-31.6152 58.3848-32.2871 57.5977-32.2871C57.1758-32.2871 56.7539-32.086 56.4355-31.7539L49.1309-24.2774L44.5527-19.625L44.5527-19.625L39.9395-24.2774L32.6348-31.7539C32.3301-32.086 31.8809-32.2871 31.4727-32.2871C30.6152-32.2871 30-31.6152 30-30.793C30-30.3574 30.166-30.0254 30.4981-29.6934L43.3848-16.957C43.75-16.5703 44.1309-16.418 44.5527-16.418Z" data-clipstroke-keyframes="0 4 0 0.49912143 1.5010968 0 0.24852234 0.25059825 1.7494596 0 0.49578092 0.0033388573 1.9966565 0 0.7506381 0.7484825 1.2515783 0 1 0.49912143 1.5010968 0 0 2.9643893 2.0354483 0 0.7981599 2.3828073 2.6170316 0 1 2.4690337 2.5308034"/>
  </g>
  <g id="Ultralight-S" transform="matrix(1 0 0 1 515.649 696)">
   <path d="M44.0606 1.97072C64.6118 1.97072 81.2886-14.7026 81.2886-35.2539C81.2886-55.8052 64.6118-72.4785 44.0606-72.4785C23.5127-72.4785 6.83594-55.8052 6.83594-35.2539C6.83594-14.7026 23.5127 1.97072 44.0606 1.97072ZM44.0606-0.274438C24.7046-0.274438 9.0391-15.898 9.0391-35.2539C9.0391-54.6099 24.7046-70.2334 44.0606-70.2334C63.4165-70.2334 79.04-54.6099 79.04-35.2539C79.04-15.898 63.4165-0.274438 44.0606-0.274438ZM44.0606-53.9155C43.4766-53.9155 42.9551-53.3975 42.9551-52.8169L42.9551-25.2491L43.0244-19.3448C43.0313-18.7993 43.5005-18.3154 44.0606-18.3154C44.5786-18.3154 45.0967-18.7993 45.1001-19.3448L45.1695-25.2491L45.1695-52.8169C45.1695-53.3975 44.648-53.9155 44.0606-53.9155ZM44.0606-16.5923C44.3526-16.5923 44.5855-16.7036 44.8286-16.9468L57.7862-29.9087C58.0122-30.1382 58.1304-30.3677 58.1304-30.6597C58.1304-31.1948 57.626-31.6924 57.1362-31.6924C56.8477-31.6924 56.5591-31.5322 56.333-31.3028L48.4644-23.3545L44.0606-18.9688L44.0606-18.9688L39.6113-23.3545L31.7427-31.3028C31.52-31.5322 31.2246-31.6924 30.9395-31.6924C30.3589-31.6924 29.9487-31.1948 29.9487-30.6597C29.9487-30.3677 30.0635-30.1382 30.293-29.9087L43.2925-16.9468C43.4937-16.7036 43.772-16.5923 44.0606-16.5923Z" data-clipstroke-keyframes="0 4 0 0.49911258 1.5011578 0 0.24859153 0.25052106 1.7495481 0 0.49577427 0.0033383023 1.9966562 0 0.75064886 0.74846375 1.2516088 0 1 0.49911258 1.5011578 0 0 2.9751282 2.0248308 0 0.824531 2.3991408 2.6008182 0 1 2.478798 2.521161"/>
  </g>
 </g>
 <g id="Data">
  <g id="Black-L-draw-attachment-data" data-d="0 1 0 2933.4 1540.77"/>
  <g id="Heavy-L-draw-attachment-data" data-d="0 1 0 2636.69 1541.26"/>
  <g id="Bold-L-draw-attachment-data" data-d="0 1 0 2339.98 1542"/>
  <g id="Semibold-L-draw-attachment-data" data-d="0 1 0 2043.27 1542.51"/>
  <g id="Medium-L-draw-attachment-data" data-d="0 1 0 1746.56 1542.9"/>
  <g id="Regular-L-draw-attachment-data" data-d="0 1 0 1449.84 1543.41"/>
  <g id="Light-L-draw-attachment-data" data-d="0 1 0 1153.13 1544.87"/>
  <g id="Thin-L-draw-attachment-data" data-d="0 1 0 856.422 1546.8"/>
  <g id="Ultralight-L-draw-attachment-data" data-d="0 1 0 559.711 1547.79"/>
  <g id="Black-M-draw-attachment-data" data-d="0 1 0 2933.4 1106.05"/>
  <g id="Heavy-M-draw-attachment-data" data-d="0 1 0 2636.69 1106.39"/>
  <g id="Bold-M-draw-attachment-data" data-d="0 1 0 2339.98 1106.76"/>
  <g id="Semibold-M-draw-attachment-data" data-d="0 1 0 2043.27 1107.02"/>
  <g id="Medium-M-draw-attachment-data" data-d="0 1 0 1746.56 1107.22"/>
  <g id="Regular-M-draw-attachment-data" data-d="0 1 0 1449.84 1107.48"/>
  <g id="Light-M-draw-attachment-data" data-d="0 1 0 1153.13 1108.79"/>
  <g id="Thin-M-draw-attachment-data" data-d="0 1 0 856.422 1110.52"/>
  <g id="Ultralight-M-draw-attachment-data" data-d="0 1 0 559.711 1111.41"/>
  <g id="Black-S-draw-attachment-data" data-d="0 1 0 2933.4 672.722"/>
  <g id="Heavy-S-draw-attachment-data" data-d="0 1 0 2636.69 672.842"/>
  <g id="Bold-S-draw-attachment-data" data-d="0 1 0 2339.98 672.975"/>
  <g id="Semibold-S-draw-attachment-data" data-d="0 1 0 2043.27 673.068"/>
  <g id="Medium-S-draw-attachment-data" data-d="0 1 0 1746.56 673.138"/>
  <g id="Regular-S-draw-attachment-data" data-d="0 1 0 1449.84 673.229"/>
  <g id="Light-S-draw-attachment-data" data-d="0 1 0 1153.13 674.388"/>
  <g id="Thin-S-draw-attachment-data" data-d="0 1 0 856.422 675.921"/>
  <g id="Ultralight-S-draw-attachment-data" data-d="0 1 0 559.711 676.706"/>
 </g>
</svg>
