<?xml version="1.0" encoding="UTF-8"?>
<!--Generator: Apple Native CoreSVG 341-->
<!DOCTYPE svg
PUBLIC "-//W3C//DTD SVG 1.1//EN"
       "http://www.w3.org/Graphics/SVG/1.1/DTD/svg11.dtd">
<svg version="1.1" xmlns="http://www.w3.org/2000/svg" xmlns:xlink="http://www.w3.org/1999/xlink" viewBox="0 0 3300 2200">
 <g id="Notes">
  <rect height="2200" id="artboard" style="fill:white;opacity:1" width="3300" x="0" y="0"/>
  <line style="fill:none;stroke:black;opacity:1;stroke-width:0.5;" x1="263" x2="3036" y1="292" y2="292"/>
  <text style="stroke:none;fill:black;font-family:sans-serif;font-size:13;font-weight:bold;" transform="matrix(1 0 0 1 263 322)">Weight/Scale Variations</text>
  <text style="stroke:none;fill:black;font-family:sans-serif;font-size:13;text-anchor:middle;" transform="matrix(1 0 0 1 559.711 322)">Ultralight</text>
  <text style="stroke:none;fill:black;font-family:sans-serif;font-size:13;text-anchor:middle;" transform="matrix(1 0 0 1 856.422 322)">Thin</text>
  <text style="stroke:none;fill:black;font-family:sans-serif;font-size:13;text-anchor:middle;" transform="matrix(1 0 0 1 1153.13 322)">Light</text>
  <text style="stroke:none;fill:black;font-family:sans-serif;font-size:13;text-anchor:middle;" transform="matrix(1 0 0 1 1449.84 322)">Regular</text>
  <text style="stroke:none;fill:black;font-family:sans-serif;font-size:13;text-anchor:middle;" transform="matrix(1 0 0 1 1746.56 322)">Medium</text>
  <text style="stroke:none;fill:black;font-family:sans-serif;font-size:13;text-anchor:middle;" transform="matrix(1 0 0 1 2043.27 322)">Semibold</text>
  <text style="stroke:none;fill:black;font-family:sans-serif;font-size:13;text-anchor:middle;" transform="matrix(1 0 0 1 2339.98 322)">Bold</text>
  <text style="stroke:none;fill:black;font-family:sans-serif;font-size:13;text-anchor:middle;" transform="matrix(1 0 0 1 2636.69 322)">Heavy</text>
  <text style="stroke:none;fill:black;font-family:sans-serif;font-size:13;text-anchor:middle;" transform="matrix(1 0 0 1 2933.4 322)">Black</text>
  <line style="fill:none;stroke:black;opacity:1;stroke-width:0.5;" x1="263" x2="3036" y1="1903" y2="1903"/>
  <g transform="matrix(0.2 0 0 0.2 263 1933)">
   <path d="m46.2402 4.15039c21.7773 0 39.4531-17.627 39.4531-39.4043s-17.6758-39.4043-39.4531-39.4043c-21.7285 0-39.4043 17.627-39.4043 39.4043s17.6758 39.4043 39.4043 39.4043Zm0-7.42188c-17.6758 0-31.9336-14.3066-31.9336-31.9824s14.2578-31.9824 31.9336-31.9824 31.9824 14.3066 31.9824 31.9824-14.3066 31.9824-31.9824 31.9824Zm3.61328-17.7734v-28.4668c0-2.24609-1.46484-3.75977-3.71094-3.75977-2.14844 0-3.61328 1.51367-3.61328 3.75977v28.4668c0 2.19727 1.46484 3.71094 3.61328 3.71094 2.24609 0 3.71094-1.51367 3.71094-3.71094Zm-17.8223-10.5957h28.418c2.19727 0 3.71094-1.46484 3.71094-3.61328 0-2.19727-1.51367-3.71094-3.71094-3.71094h-28.418c-2.24609 0-3.75977 1.51367-3.75977 3.71094 0 2.14844 1.51367 3.61328 3.75977 3.61328Z"/>
  </g>
  <g transform="matrix(0.2 0 0 0.2 281.506 1933)">
   <path d="m58.5449 14.5508c27.4902 0 49.8047-22.3145 49.8047-49.8047s-22.3145-49.8047-49.8047-49.8047-49.8047 22.3145-49.8047 49.8047 22.3145 49.8047 49.8047 49.8047Zm0-8.30078c-22.9492 0-41.5039-18.5547-41.5039-41.5039s18.5547-41.5039 41.5039-41.5039 41.5039 18.5547 41.5039 41.5039-18.5547 41.5039-41.5039 41.5039Zm4.05273-23.0957v-36.9141c0-2.49023-1.70898-4.19922-4.15039-4.19922-2.39258 0-4.05273 1.70898-4.05273 4.19922v36.9141c0 2.44141 1.66016 4.15039 4.05273 4.15039 2.44141 0 4.15039-1.66016 4.15039-4.15039Zm-22.5586-14.4043h36.9629c2.44141 0 4.15039-1.61133 4.15039-4.00391 0-2.44141-1.70898-4.15039-4.15039-4.15039h-36.9629c-2.49023 0-4.15039 1.70898-4.15039 4.15039 0 2.39258 1.66016 4.00391 4.15039 4.00391Z"/>
  </g>
  <g transform="matrix(0.2 0 0 0.2 304.924 1933)">
   <path d="m74.8535 28.3203c35.1074 0 63.623-28.4668 63.623-63.5742s-28.5156-63.623-63.623-63.623-63.5742 28.5156-63.5742 63.623 28.4668 63.5742 63.5742 63.5742Zm0-9.08203c-30.127 0-54.4922-24.3652-54.4922-54.4922s24.3652-54.4922 54.4922-54.4922 54.4922 24.3652 54.4922 54.4922-24.3652 54.4922-54.4922 54.4922Zm4.44336-30.3223v-48.4863c0-2.73438-1.85547-4.63867-4.54102-4.63867-2.58789 0-4.44336 1.9043-4.44336 4.63867v48.4863c0 2.68555 1.85547 4.58984 4.44336 4.58984 2.68555 0 4.54102-1.85547 4.54102-4.58984Zm-28.7109-19.7754h48.4863c2.68555 0 4.58984-1.80664 4.58984-4.39453 0-2.73438-1.85547-4.58984-4.58984-4.58984h-48.4863c-2.73438 0-4.58984 1.85547-4.58984 4.58984 0 2.58789 1.85547 4.39453 4.58984 4.39453Z"/>
  </g>
  <text style="stroke:none;fill:black;font-family:sans-serif;font-size:13;font-weight:bold;" transform="matrix(1 0 0 1 263 1953)">Design Variations</text>
  <text style="stroke:none;fill:black;font-family:sans-serif;font-size:13;" transform="matrix(1 0 0 1 263 1971)">Symbols are supported in up to nine weights and three scales.</text>
  <text style="stroke:none;fill:black;font-family:sans-serif;font-size:13;" transform="matrix(1 0 0 1 263 1989)">For optimal layout with text and other symbols, vertically align</text>
  <text style="stroke:none;fill:black;font-family:sans-serif;font-size:13;" transform="matrix(1 0 0 1 263 2007)">symbols with the adjacent text.</text>
  <line style="fill:none;stroke:#00AEEF;stroke-width:0.5;opacity:1.0;" x1="776" x2="776" y1="1919" y2="1933"/>
  <g transform="matrix(0.2 0 0 0.2 776 1933)">
   <path d="m16.5527 0.78125c2.58789 0 3.85742-0.976562 4.78516-3.71094l20.5566-57.5195h0.244141l20.6055 57.5195c0.927734 2.73438 2.19727 3.71094 4.73633 3.71094 2.58789 0 4.24805-1.5625 4.24805-4.00391 0-0.830078-0.146484-1.61133-0.537109-2.63672l-22.9004-60.9863c-1.12305-2.97852-3.125-4.49219-6.25-4.49219-3.02734 0-5.07812 1.46484-6.15234 4.44336l-22.9004 61.084c-0.390625 1.02539-0.537109 1.80664-0.537109 2.63672 0 2.44141 1.5625 3.95508 4.10156 3.95508Zm10.2051-20.9473h30.6641c2.00195 0 3.66211-1.66016 3.66211-3.66211 0-2.05078-1.66016-3.66211-3.66211-3.66211h-30.6641c-2.00195 0-3.66211 1.61133-3.66211 3.66211 0 2.00195 1.66016 3.66211 3.66211 3.66211Z"/>
  </g>
  <line style="fill:none;stroke:#00AEEF;stroke-width:0.5;opacity:1.0;" x1="792.836" x2="792.836" y1="1919" y2="1933"/>
  <text style="stroke:none;fill:black;font-family:sans-serif;font-size:13;font-weight:bold;" transform="matrix(1 0 0 1 776 1953)">Margins</text>
  <text style="stroke:none;fill:black;font-family:sans-serif;font-size:13;" transform="matrix(1 0 0 1 776 1971)">Leading and trailing margins on the left and right side of each symbol</text>
  <text style="stroke:none;fill:black;font-family:sans-serif;font-size:13;" transform="matrix(1 0 0 1 776 1989)">can be adjusted by modifying the x-location of the margin guidelines.</text>
  <text style="stroke:none;fill:black;font-family:sans-serif;font-size:13;" transform="matrix(1 0 0 1 776 2007)">Modifications are automatically applied proportionally to all</text>
  <text style="stroke:none;fill:black;font-family:sans-serif;font-size:13;" transform="matrix(1 0 0 1 776 2025)">scales and weights.</text>
  <g transform="matrix(0.2 0 0 0.2 1289 1933)">
   <path d="m14.209 13.1348 7.86133 7.86133c4.29688 4.39453 9.32617 4.10156 13.8672-1.02539l60.6934-68.2129-4.88281-4.88281-60.2539 67.6758c-1.80664 1.95312-3.4668 2.44141-5.81055 0.0976562l-5.17578-5.12695c-2.29492-2.29492-1.80664-3.95508 0.195312-5.81055l67.4805-62.1582-4.88281-4.83398-68.0664 62.5977c-4.98047 4.58984-5.32227 9.47266-1.02539 13.8184Zm44.873-97.4609c-2.05078 2.00195-2.24609 4.88281-1.07422 6.78711 1.12305 1.80664 3.4668 3.02734 6.5918 2.24609 5.85938-1.66016 12.5977-2.39258 18.8965 0.927734l-2.68555 7.12891c-1.61133 4.00391-0.732422 6.88477 1.70898 9.42383l10.2539 10.3027c2.34375 2.39258 4.54102 2.44141 7.08008 1.95312l4.44336-0.732422 2.58789 2.53906-0.195312 2.24609c-0.0976562 2.29492 0.537109 4.29688 2.7832 6.49414l3.36914 3.32031c2.29492 2.29492 5.51758 2.49023 7.8125 0.195312l12.9883-13.0371c2.29492-2.34375 2.14844-5.37109-0.195312-7.66602l-3.41797-3.41797c-2.19727-2.19727-4.05273-3.02734-6.34766-2.88086l-2.34375 0.244141-2.44141-2.44141 1.02539-4.6875c0.634766-2.73438-0.244141-4.98047-2.88086-7.61719l-11.2793-11.1816c-12.9395-12.8418-35.5957-11.0352-46.6797-0.146484Zm7.08008 2.05078c8.78906-6.39648 25.9766-5.66406 33.6914 1.95312l12.3047 12.207c1.02539 1.02539 1.2207 1.80664 0.927734 3.32031l-1.46484 6.64062 6.73828 6.68945 4.39453-0.244141c1.12305-0.0488281 1.51367 0.0488281 2.34375 0.878906l2.53906 2.49023-10.8398 10.8398-2.49023-2.49023c-0.830078-0.878906-0.976562-1.2207-0.927734-2.39258l0.292969-4.3457-6.68945-6.73828-6.83594 1.17188c-1.41602 0.292969-2.05078 0.195312-3.17383-0.878906l-8.93555-8.88672c-1.07422-1.02539-1.17188-1.70898-0.488281-3.36914l4.58984-11.4746c-6.10352-6.34766-17.041-7.51953-25.5859-4.58984-0.683594 0.244141-0.927734-0.390625-0.390625-0.78125Z"/>
  </g>
  <text style="stroke:none;fill:black;font-family:sans-serif;font-size:13;font-weight:bold;" transform="matrix(1 0 0 1 1289 1953)">Exporting</text>
  <text style="stroke:none;fill:black;font-family:sans-serif;font-size:13;" transform="matrix(1 0 0 1 1289 1971)">Symbols should be outlined when exporting to ensure the</text>
  <text style="stroke:none;fill:black;font-family:sans-serif;font-size:13;" transform="matrix(1 0 0 1 1289 1989)">design is preserved when submitting to Xcode.</text>
  <text id="template-version" style="stroke:none;fill:black;font-family:sans-serif;font-size:13;text-anchor:end;" transform="matrix(1 0 0 1 3036 1933)">Template v.2.0</text>
  <text style="stroke:none;fill:black;font-family:sans-serif;font-size:13;text-anchor:end;" transform="matrix(1 0 0 1 3036 1951)">Requires Xcode 12 or greater</text>
  <text id="descriptive-name" style="stroke:none;fill:black;font-family:sans-serif;font-size:13;text-anchor:end;" transform="matrix(1 0 0 1 3036 1969)">Generated from square.and.arrow.down</text>
  <text style="stroke:none;fill:black;font-family:sans-serif;font-size:13;text-anchor:end;" transform="matrix(1 0 0 1 3036 1987)">Typeset at 100.0 points</text>
  <text style="stroke:none;fill:black;font-family:sans-serif;font-size:13;" transform="matrix(1 0 0 1 263 726)">Small</text>
  <text style="stroke:none;fill:black;font-family:sans-serif;font-size:13;" transform="matrix(1 0 0 1 263 1156)">Medium</text>
  <text style="stroke:none;fill:black;font-family:sans-serif;font-size:13;" transform="matrix(1 0 0 1 263 1586)">Large</text>
 </g>
 <g id="Guides">
  <g id="H-reference" style="fill:#27AAE1;stroke:none;" transform="matrix(1 0 0 1 339 696)">
   <path d="M0.993654 0L3.63775 0L29.3281-67.1323L30.0303-67.1323L30.0303-70.459L28.1226-70.459ZM11.6885-24.4799L46.9815-24.4799L46.2315-26.7285L12.4385-26.7285ZM55.1196 0L57.7637 0L30.6382-70.459L29.4326-70.459L29.4326-67.1323Z"/>
  </g>
  <line id="Baseline-S" style="fill:none;stroke:#27AAE1;opacity:1;stroke-width:0.5;" x1="263" x2="3036" y1="696" y2="696"/>
  <line id="Capline-S" style="fill:none;stroke:#27AAE1;opacity:1;stroke-width:0.5;" x1="263" x2="3036" y1="625.541" y2="625.541"/>
  <g id="H-reference" style="fill:#27AAE1;stroke:none;" transform="matrix(1 0 0 1 339 1126)">
   <path d="M0.993654 0L3.63775 0L29.3281-67.1323L30.0303-67.1323L30.0303-70.459L28.1226-70.459ZM11.6885-24.4799L46.9815-24.4799L46.2315-26.7285L12.4385-26.7285ZM55.1196 0L57.7637 0L30.6382-70.459L29.4326-70.459L29.4326-67.1323Z"/>
  </g>
  <line id="Baseline-M" style="fill:none;stroke:#27AAE1;opacity:1;stroke-width:0.5;" x1="263" x2="3036" y1="1126" y2="1126"/>
  <line id="Capline-M" style="fill:none;stroke:#27AAE1;opacity:1;stroke-width:0.5;" x1="263" x2="3036" y1="1055.54" y2="1055.54"/>
  <g id="H-reference" style="fill:#27AAE1;stroke:none;" transform="matrix(1 0 0 1 339 1556)">
   <path d="M0.993654 0L3.63775 0L29.3281-67.1323L30.0303-67.1323L30.0303-70.459L28.1226-70.459ZM11.6885-24.4799L46.9815-24.4799L46.2315-26.7285L12.4385-26.7285ZM55.1196 0L57.7637 0L30.6382-70.459L29.4326-70.459L29.4326-67.1323Z"/>
  </g>
  <line id="Baseline-L" style="fill:none;stroke:#27AAE1;opacity:1;stroke-width:0.5;" x1="263" x2="3036" y1="1556" y2="1556"/>
  <line id="Capline-L" style="fill:none;stroke:#27AAE1;opacity:1;stroke-width:0.5;" x1="263" x2="3036" y1="1485.54" y2="1485.54"/>
  <line id="right-margin" style="fill:none;stroke:#00AEEF;stroke-width:0.5;opacity:1.0;" x1="1505.63" x2="1505.63" y1="1030.79" y2="1150.12"/>
  <line id="left-margin" style="fill:none;stroke:#00AEEF;stroke-width:0.5;opacity:1.0;" x1="1394.06" x2="1394.06" y1="1030.79" y2="1150.12"/>
 </g>
 <g id="Symbols">
  <g id="Black-L" transform="matrix(1 0 0 1 2856.86 1556)">
   <path d="M45.4402 36.7246L107.646 36.7246C126.452 36.7246 137.004 26.1713 137.004 7.36718L137.004-41.4214C137.004-60.2255 126.452-70.7568 107.646-70.7568L97.3658-70.7568L97.3658-50.7758L106.244-50.7758C113.156-50.7758 117.023-46.8495 117.023-39.9612L117.023 5.90701C117.023 12.8173 113.156 16.7424 106.244 16.7424L46.8419 16.7424C39.9329 16.7424 36.0662 12.8173 36.0662 5.90701L36.0662-39.9612C36.0662-46.8495 39.9329-50.7758 46.8419-50.7758L55.701-50.7758L55.701-70.7568L45.4402-70.7568C26.6361-70.7568 16.084-60.2255 16.084-41.4214L16.084 7.36718C16.084 26.1713 26.6361 36.7246 45.4402 36.7246ZM76.5346-103.932C71.6431-103.932 67.8499-99.9475 67.8499-95.3468L67.8499-36.2561L69.7947-14.2412C70.1283-10.5063 72.8194-7.48042 76.5346-7.48042C80.2695-7.48042 82.9617-10.5063 83.2954-14.2412L85.2402-36.2561L85.2402-95.3468C85.2402-99.9475 81.4469-103.932 76.5346-103.932ZM54.0504-41.3151C50.2895-41.3151 46.6819-38.4268 46.6819-34.2207C46.6819-32.067 47.4725-30.5234 48.9368-29.081L69.4999-9.40905C71.8056-7.13974 74.1681-6.33238 76.5346-6.33238C78.9219-6.33238 81.2832-7.13974 83.5901-9.40905L104.152-29.081C105.596-30.5234 106.407-32.067 106.407-34.2207C106.407-38.4268 102.776-41.3151 99.0176-41.3151C96.8263-41.3151 94.8687-40.4273 93.4251-38.8837L87.0138-32.0307L76.5346-15.3887L66.0738-32.0307L59.6429-38.8837C58.2202-40.4273 56.2417-41.3151 54.0504-41.3151Z"/>
  </g>
  <g id="Heavy-L" transform="matrix(1 0 0 1 2561.29 1556)">
   <path d="M44.6957 34.9854L106.097 34.9854C124.436 34.9854 134.714 24.7017 134.714 6.36804L134.714-42.3234C134.714-60.6571 124.436-70.9049 106.097-70.9049L95.1104-70.9049L95.1104-53.4045L105.026-53.4045C112.838-53.4045 117.214-48.978 117.214-41.2078L117.214 5.25247C117.214 13.0585 112.838 17.4794 105.026 17.4794L45.7667 17.4794C37.9663 17.4794 33.59 13.0585 33.59 5.25247L33.59-41.2078C33.59-48.978 37.9663-53.4045 45.7667-53.4045L55.6578-53.4045L55.6578-70.9049L44.6957-70.9049C26.362-70.9049 16.084-60.6571 16.084-42.3234L16.084 6.36804C16.084 24.7017 26.362 34.9854 44.6957 34.9854ZM75.3897-104.031C71.063-104.031 67.6514-100.507 67.6514-96.3979L67.6514-35.9839L69.3133-15.2977C69.5968-11.9307 72.0473-9.19109 75.3897-9.19109C78.7567-9.19109 81.2129-11.9307 81.4963-15.2977L83.1582-35.9839L83.1582-96.3979C83.1582-100.507 79.7466-104.031 75.3897-104.031ZM53.1635-41.4066C49.7148-41.4066 46.5402-38.7864 46.5402-35.0165C46.5402-33.0763 47.2536-31.664 48.591-30.3623L69.2258-10.5749C71.2585-8.55104 73.3012-7.85342 75.3897-7.85342C77.5085-7.85342 79.5455-8.55104 81.5838-10.5749L102.213-30.3623C103.52-31.664 104.264-33.0763 104.264-35.0165C104.264-38.7864 101.048-41.4066 97.6103-41.4066C95.6556-41.4066 93.8794-40.6286 92.5721-39.2163L85.2855-31.4493L75.3897-16.7405L65.5129-31.4493L58.2017-39.2163C56.9246-40.6286 55.1182-41.4066 53.1635-41.4066Z"/>
  </g>
  <g id="Bold-L" transform="matrix(1 0 0 1 2265.99 1556)">
   <path d="M43.796 32.9381L104.169 32.9381C121.947 32.9381 131.894 22.9775 131.894 5.21288L131.894-43.3109C131.894-61.0756 121.947-70.985 104.169-70.985L92.1645-70.985L92.1645-56.5432L103.468-56.5432C112.431-56.5432 117.452-51.4795 117.452-42.5809L117.452 4.4828C117.452 13.4326 112.431 18.4831 103.468 18.4831L44.4969 18.4831C35.5603 18.4831 30.539 13.4326 30.539 4.4828L30.539-42.5809C30.539-51.4795 35.5603-56.5432 44.4969-56.5432L55.7754-56.5432L55.7754-70.985L43.796-70.985C26.0313-70.985 16.084-61.0756 16.084-43.3109L16.084 5.21288C16.084 22.9775 26.0313 32.9381 43.796 32.9381ZM73.9832-103.819C70.3632-103.819 67.4428-100.871 67.4428-97.3836L67.4428-35.2136L68.7587-16.2762C68.9807-13.385 71.1168-11.0137 73.9832-11.0137C76.8744-11.0137 79.0236-13.385 79.2456-16.2762L80.5616-35.2136L80.5616-97.3836C80.5616-100.871 77.6412-103.819 73.9832-103.819ZM52.0349-41.2386C49.0078-41.2386 46.3709-38.9638 46.3709-35.7542C46.3709-34.0902 46.9845-32.8542 48.1533-31.7366L68.8952-11.7587C70.5823-10.0495 72.2404-9.48266 73.9832-9.48266C75.764-9.48266 77.4088-10.0495 79.1092-11.7587L99.8378-31.7366C100.969-32.8542 101.62-34.0902 101.62-35.7542C101.62-38.9638 98.9189-41.2386 95.9182-41.2386C94.263-41.2386 92.7246-40.5914 91.5938-39.3554L83.1566-30.4215L73.9832-17.961L64.8213-30.4215L56.3593-39.3554C55.2665-40.5914 53.6901-41.2386 52.0349-41.2386Z"/>
  </g>
  <g id="Semibold-L" transform="matrix(1 0 0 1 1970.25 1556)">
   <path d="M43.1757 31.5268L102.839 31.5268C120.23 31.5268 129.95 21.7889 129.95 4.41652L129.95-43.9918C129.95-61.3641 120.23-71.0402 102.839-71.0402L90.1337-71.0402L90.1337-58.707L102.394-58.707C112.15-58.707 117.616-53.204 117.616-43.5274L117.616 3.95219C117.616 13.6906 112.15 19.1751 102.394 19.1751L43.6215 19.1751C33.9016 19.1751 28.4356 13.6906 28.4356 3.95219L28.4356-43.5274C28.4356-53.204 33.9016-58.707 43.6215-58.707L55.8565-58.707L55.8565-71.0402L43.1757-71.0402C25.8034-71.0402 16.084-61.3641 16.084-43.9918L16.084 4.41652C16.084 21.7889 25.8034 31.5268 43.1757 31.5268ZM73.0135-103.672C69.8807-103.672 67.299-101.122 67.299-98.0631L67.299-34.6825L68.3764-16.9507C68.556-14.3875 70.4752-12.2702 73.0135-12.2702C75.5767-12.2702 77.5144-14.3875 77.694-16.9507L78.7715-34.6825L78.7715-98.0631C78.7715-101.122 76.1897-103.672 73.0135-103.672ZM51.2569-41.1228C48.5203-41.1228 46.2543-39.0861 46.2543-36.2627C46.2543-34.7892 46.7991-33.6748 47.8516-32.6841L68.6672-12.5747C70.1161-11.0825 71.5091-10.6058 73.0135-10.6058C74.5614-10.6058 75.9359-11.0825 77.4033-12.5747L98.2004-32.6841C99.2095-33.6748 99.7977-34.7892 99.7977-36.2627C99.7977-39.0861 97.4513-41.1228 94.7517-41.1228C93.303-41.1228 91.9285-40.5657 90.9194-39.4513L81.689-29.713L73.0135-18.8024L64.3445-29.713L55.0892-39.4513C54.1235-40.5657 52.7056-41.1228 51.2569-41.1228Z"/>
  </g>
  <g id="Medium-L" transform="matrix(1 0 0 1 1674.28 1556)">
   <path d="M42.7054 30.4566L101.831 30.4566C118.929 30.4566 128.475 20.8876 128.475 3.81269L128.475-44.508C128.475-61.5829 118.929-71.082 101.831-71.082L88.5937-71.082L88.5937-60.3477L101.579-60.3477C111.938-60.3477 117.741-54.5116 117.741-44.2452L117.741 3.54986C117.741 13.8862 111.938 19.6998 101.579 19.6998L42.9577 19.6998C32.6439 19.6998 26.8408 13.8862 26.8408 3.54986L26.8408-44.2452C26.8408-54.5116 32.6439-60.3477 42.9577-60.3477L55.918-60.3477L55.918-71.082L42.7054-71.082C25.6305-71.082 16.084-61.5829 16.084-44.508L16.084 3.81269C16.084 20.8876 25.6305 30.4566 42.7054 30.4566ZM72.2783-103.561C69.5149-103.561 67.1899-101.312 67.1899-98.5784L67.1899-34.2799L68.0866-17.4621C68.234-15.1477 69.9888-13.223 72.2783-13.223C74.5928-13.223 76.3701-15.1477 76.5175-17.4621L77.4142-34.2799L77.4142-98.5784C77.4142-101.312 75.0892-103.561 72.2783-103.561ZM50.6669-41.035C48.1507-41.035 46.1658-39.1788 46.1658-36.6484C46.1658-35.3192 46.6585-34.2969 47.6228-33.4025L68.4943-13.1935C69.7626-11.8658 70.9546-11.4575 72.2783-11.4575C73.6495-11.4575 74.819-11.8658 76.1098-13.1935L96.9588-33.4025C97.8757-34.2969 98.4158-35.3192 98.4158-36.6484C98.4158-39.1788 96.3385-41.035 93.8673-41.035C92.575-41.035 91.3249-40.5463 90.408-39.524L80.5762-29.1757L72.2783-19.4404L63.9829-29.1757L54.1262-39.524C53.2567-40.5463 51.9591-41.035 50.6669-41.035Z"/>
  </g>
  <g id="Regular-L" transform="matrix(1 0 0 1 1378.53 1556)">
   <path d="M42.092 29.0607L100.516 29.0607C117.231 29.0607 126.552 19.712 126.552 3.02509L126.552-45.1814C126.552-61.8683 117.231-71.1366 100.516-71.1366L86.5852-71.1366L86.5852-62.4877L100.516-62.4877C111.66-62.4877 117.903-56.2171 117.903-45.1814L117.903 3.02509C117.903 14.1413 111.66 20.3842 100.516 20.3842L42.092 20.3842C31.0034 20.3842 24.7605 14.1413 24.7605 3.02509L24.7605-45.1814C24.7605-56.2171 31.0034-62.4877 42.092-62.4877L55.9982-62.4877L55.9982-71.1366L42.092-71.1366C25.405-71.1366 16.084-61.8683 16.084-45.1814L16.084 3.02509C16.084 19.712 25.405 29.0607 42.092 29.0607ZM71.3193-103.417C69.0378-103.417 67.0477-101.56 67.0477-99.2504L67.0477-33.7547L67.7085-18.1293C67.814-16.1392 69.3543-14.4657 71.3193-14.4657C73.3094-14.4657 74.8774-16.1392 74.9829-18.1293L75.6438-33.7547L75.6438-99.2504C75.6438-101.56 73.6537-103.417 71.3193-103.417ZM49.8974-40.9205C47.6686-40.9205 46.0504-39.2997 46.0504-37.1513C46.0504-36.0105 46.4751-35.1085 47.3244-34.3396L68.2689-14.0006C69.3016-12.8875 70.2313-12.5683 71.3193-12.5683C72.4601-12.5683 73.3622-12.8875 74.4226-14.0006L95.3394-34.3396C96.1359-35.1085 96.6134-36.0105 96.6134-37.1513C96.6134-39.2997 94.8871-40.9205 92.7136-40.9205C91.6256-40.9205 90.5375-40.5209 89.741-39.6188L79.1248-28.475L71.3193-20.2726L63.5113-28.475L52.87-39.6188C52.1262-40.5209 50.9854-40.9205 49.8974-40.9205Z"/>
  </g>
  <g id="Light-L" transform="matrix(1 0 0 1 1082.74 1556)">
   <path d="M41.6148 28.3355L99.1232 28.3355C115.552 28.3355 124.701 19.1395 124.701 2.75789L124.701-45.0287C124.701-61.4102 115.552-70.5259 99.1232-70.5259L83.5697-70.5259L83.5697-63.9L99.1232-63.9C111.298-63.9 118.075-57.076 118.075-45.0287L118.075 2.75789C118.075 14.8856 111.298 21.6629 99.1232 21.6629L41.6148 21.6629C29.5339 21.6629 22.7565 14.8856 22.7565 2.75789L22.7565-45.0287C22.7565-57.076 29.5339-63.9 41.6148-63.9L57.1814-63.9L57.1814-70.5259L41.6148-70.5259C25.2333-70.5259 16.084-61.4102 16.084-45.0287L16.084 2.75789C16.084 19.1395 25.2333 28.3355 41.6148 28.3355ZM70.4223-101.107C68.6751-101.107 67.1431-99.6893 67.1431-97.8954L67.1431-30.4338L67.594-16.6788C67.6613-15.1467 68.8772-13.8168 70.4223-13.8168C71.9544-13.8168 73.217-15.1467 73.2844-16.6788L73.7352-30.4338L73.7352-97.8954C73.7352-99.6893 72.2032-101.107 70.4223-101.107ZM48.9241-38.9929C47.2106-38.9929 45.9741-37.6966 45.9741-36.0635C45.9741-35.1899 46.3033-34.4977 46.9618-33.9197L68.0971-13.1418C68.8435-12.3149 69.5824-12.053 70.4223-12.053C71.2959-12.053 71.988-12.3149 72.7812-13.1418L93.8698-33.9197C94.4946-34.4977 94.8575-35.1899 94.8575-36.0635C94.8575-37.6966 93.4938-38.9929 91.8738-38.9929C91.0339-38.9929 90.194-38.6506 89.5692-37.9584L77.7315-25.784L70.4223-18.1923L63.0533-25.784L51.2287-37.9584C50.6376-38.6506 49.764-38.9929 48.9241-38.9929Z"/>
  </g>
  <g id="Thin-L" transform="matrix(1 0 0 1 787.254 1556)">
   <path d="M40.9838 27.3763L97.2806 27.3763C113.33 27.3763 122.252 18.3822 122.252 2.40451L122.252-44.8267C122.252-60.8044 113.33-69.7181 97.2806-69.7181L79.5815-69.7181L79.5815-65.7679L97.2806-65.7679C110.818-65.7679 118.302-58.2119 118.302-44.8267L118.302 2.40451C118.302 15.87 110.818 23.3541 97.2806 23.3541L40.9838 23.3541C27.5903 23.3541 20.1062 15.87 20.1062 2.40451L20.1062-44.8267C20.1062-58.2119 27.5903-65.7679 40.9838-65.7679L58.7464-65.7679L58.7464-69.7181L40.9838-69.7181C25.0061-69.7181 16.084-60.8044 16.084-44.8267L16.084 2.40451C16.084 18.3822 25.0061 27.3763 40.9838 27.3763ZM69.236-98.053C68.1955-98.053 67.2693-97.2156 67.2693-96.1032L67.2693-26.0417L67.4425-14.7604C67.4594-13.8342 68.2462-12.9585 69.236-12.9585C70.1622-12.9585 71.021-13.8342 71.0378-14.7604L71.211-26.0417L71.211-96.1032C71.211-97.2156 70.2848-98.053 69.236-98.053ZM47.6367-36.4434C46.6048-36.4434 45.8731-35.5762 45.8731-34.6247C45.8731-34.1045 46.0761-33.69 46.4822-33.3644L67.8699-12.0059C68.2377-11.5577 68.7242-11.3715 69.236-11.3715C69.7562-11.3715 70.1706-11.5577 70.6104-12.0059L91.9262-33.3644C92.3238-33.69 92.5353-34.1045 92.5353-34.6247C92.5353-35.5762 91.6512-36.4434 90.7632-36.4434C90.2514-36.4434 89.7396-36.1769 89.342-35.7624L75.8889-22.2249L69.236-15.4409L62.4475-22.2249L49.0579-35.7624C48.6687-36.1769 48.1485-36.4434 47.6367-36.4434Z"/>
  </g>
  <g id="Ultralight-L" transform="matrix(1 0 0 1 491.17 1556)">
   <path d="M40.6606 26.885L96.3368 26.885C112.193 26.885 120.998 17.9943 120.998 2.22351L120.998-44.7233C120.998-60.4942 112.193-69.3044 96.3368-69.3044L77.5388-69.3044L77.5388-66.7247L96.3368-66.7247C110.572-66.7247 118.419-58.7936 118.419-44.7233L118.419 2.22351C118.419 16.3743 110.572 24.2204 96.3368 24.2204L40.6606 24.2204C26.5947 24.2204 18.7486 16.3743 18.7486 2.22351L18.7486-44.7233C18.7486-58.7936 26.5947-66.7247 40.6606-66.7247L59.548-66.7247L59.548-69.3044L40.6606-69.3044C24.8897-69.3044 16.084-60.4942 16.084-44.7233L16.084 2.22351C16.084 17.9943 24.8897 26.885 40.6606 26.885ZM68.6283-96.4886C67.9499-96.4886 67.3339-95.9486 67.3339-95.1853L67.3339-23.7921L67.3649-13.7778C67.356-13.1619 67.9229-12.519 68.6283-12.519C69.2443-12.519 69.8962-13.1619 69.8872-13.7778L69.9182-23.7921L69.9182-95.1853C69.9182-95.9486 69.3022-96.4886 68.6283-96.4886ZM46.9774-35.1376C46.2945-35.1376 45.8214-34.4902 45.8214-33.8877C45.8214-33.5485 45.9598-33.2763 46.2365-33.0799L67.7536-11.4241C67.9274-11.1698 68.2846-11.0224 68.6283-11.0224C68.9675-11.0224 69.2398-11.1698 69.4986-11.4241L90.9307-33.0799C91.2119-33.2763 91.3458-33.5485 91.3458-33.8877C91.3458-34.4902 90.7074-35.1376 90.1943-35.1376C89.8506-35.1376 89.5069-34.9098 89.2257-34.6376L74.9451-20.4019L68.6283-14.0317L62.1372-20.4019L47.946-34.6376C47.6603-34.9098 47.3211-35.1376 46.9774-35.1376Z"/>
  </g>
  <g id="Black-M" transform="matrix(1 0 0 1 2873.24 1126)">
   <path d="M35.7796 21.9128L84.5407 21.9128C99.4717 21.9128 107.859 13.5256 107.859-1.40557L107.859-39.2307C107.859-54.162 99.4717-62.5439 84.5407-62.5439L76.9632-62.5439L76.9632-45.206L83.1704-45.206C87.8911-45.206 90.5212-42.5191 90.5212-37.8033L90.5212-2.83298C90.5212 1.88795 87.8911 4.57514 83.1704 4.57514L37.1499 4.57514C32.4287 4.57514 29.7986 1.88795 29.7986-2.83298L29.7986-37.8033C29.7986-42.5191 32.4287-45.206 37.1499-45.206L43.3513-45.206L43.3513-62.5439L35.7796-62.5439C20.8484-62.5439 12.4609-54.162 12.4609-39.2307L12.4609-1.40557C12.4609 13.5256 20.8484 21.9128 35.7796 21.9128ZM60.157-88.0573C55.9544-88.0573 52.7496-84.6349 52.7496-80.718L52.7496-35.8089L54.471-17.8644C54.7675-14.7168 57.0151-12.173 60.157-12.173C63.3047-12.173 65.552-14.7168 65.8484-17.8644L67.5698-35.8089L67.5698-80.718C67.5698-84.6349 64.3651-88.0573 60.157-88.0573ZM42.5055-39.6045C39.3932-39.6045 36.2779-37.1804 36.2779-33.6166C36.2779-31.8007 36.9438-30.5205 38.1615-29.308L54.0568-14.107C56.039-12.1767 58.1183-11.4646 60.157-11.4646C62.2012-11.4646 64.2808-12.1767 66.2627-14.107L82.1583-29.308C83.3704-30.5205 84.0419-31.8007 84.0419-33.6166C84.0419-37.1804 80.9216-39.6045 77.8088-39.6045C75.9414-39.6045 74.3024-38.8301 73.0902-37.5499L68.7099-32.8863L60.157-18.4143L51.6101-32.8863L47.2241-37.5499C46.0174-38.8301 44.3729-39.6045 42.5055-39.6045Z"/>
  </g>
  <g id="Heavy-M" transform="matrix(1 0 0 1 2577.56 1126)">
   <path d="M35.0958 20.2795L83.1548 20.2795C97.6566 20.2795 105.792 12.1419 105.792-2.35765L105.792-40.1266C105.792-54.6261 97.6566-62.7451 83.1548-62.7451L75.0366-62.7451L75.0366-47.6455L82.1079-47.6455C87.6134-47.6455 90.6924-44.5206 90.6924-39.036L90.6924-3.44819C90.6924 2.05504 87.6134 5.17764 82.1079 5.17764L36.1428 5.17764C30.6418 5.17764 27.5628 2.05504 27.5628-3.44819L27.5628-39.036C27.5628-44.5206 30.6418-47.6455 36.1428-47.6455L43.1999-47.6455L43.1999-62.7451L35.0958-62.7451C20.5963-62.7451 12.4609-54.6261 12.4609-40.1266L12.4609-2.35765C12.4609 12.1419 20.5963 20.2795 35.0958 20.2795ZM59.1205-88.3678C55.4207-88.3678 52.5468-85.3545 52.5468-81.8705L52.5468-35.8491L54.011-19.0311C54.262-16.2008 56.3044-13.9052 59.1205-13.9052C61.9508-13.9052 63.9955-16.2008 64.2465-19.0311L65.7107-35.8491L65.7107-81.8705C65.7107-85.3545 62.8367-88.3678 59.1205-88.3678ZM41.7283-39.8717C38.8737-39.8717 36.1464-37.6798 36.1464-34.4949C36.1464-32.8631 36.7456-31.6918 37.8569-30.5992L53.8047-15.3259C55.5464-13.6092 57.3307-12.9991 59.1205-12.9991C60.9268-12.9991 62.7088-13.6092 64.4528-15.3259L80.3983-30.5992C81.4932-31.6918 82.1088-32.8631 82.1088-34.4949C82.1088-37.6798 79.3606-39.8717 76.5105-39.8717C74.8515-39.8717 73.367-39.1994 72.2722-38.0281L67.1488-32.5662L59.1205-19.9277L51.1041-32.5662L45.9666-38.0281C44.8882-39.1994 43.3873-39.8717 41.7283-39.8717Z"/>
  </g>
  <g id="Bold-M" transform="matrix(1 0 0 1 2282.01 1126)">
   <path d="M34.331 18.4525L81.6045 18.4525C95.6263 18.4525 103.48 10.594 103.48-3.42269L103.48-41.1287C103.48-55.1453 95.6263-62.9701 81.6045-62.9701L72.8814-62.9701L72.8814-50.3744L80.9193-50.3744C87.3028-50.3744 90.8839-46.7596 90.8839-40.415L90.8839-4.13639C90.8839 2.24196 87.3028 5.85163 80.9193 5.85163L35.0161 5.85163C28.6429 5.85163 25.0618 2.24196 25.0618-4.13639L25.0618-40.415C25.0618-46.7596 28.6429-50.3744 35.0161-50.3744L43.0306-50.3744L43.0306-62.9701L34.331-62.9701C20.3143-62.9701 12.4609-55.1453 12.4609-41.1287L12.4609-3.42269C12.4609 10.594 20.3143 18.4525 34.331 18.4525ZM57.9611-88.7151C54.8237-88.7151 52.3199-86.1595 52.3199-83.1597L52.3199-35.8941L53.4964-20.3361C53.6964-17.8609 55.5093-15.8428 57.9611-15.8428C60.4364-15.8428 62.2544-17.8609 62.4544-20.3361L63.6309-35.8941L63.6309-83.1597C63.6309-86.1595 61.1271-88.7151 57.9611-88.7151ZM40.8589-40.1707C38.2925-40.1707 35.9993-38.2384 35.9993-35.4774C35.9993-34.0515 36.5239-33.0021 37.5162-32.0437L53.5227-16.6895C54.9954-15.2116 56.4496-14.7156 57.9611-14.7156C59.5012-14.7156 60.9503-15.2116 62.4281-16.6895L78.4296-32.0437C79.3931-33.0021 79.9464-34.0515 79.9464-35.4774C79.9464-38.2384 77.6143-40.1707 75.0582-40.1707C73.6324-40.1707 72.3207-39.6125 71.3571-38.5631L65.4026-32.2081L57.9611-21.6207L50.538-32.2081L44.56-38.5631C43.625-39.6125 42.2847-40.1707 40.8589-40.1707Z"/>
  </g>
  <g id="Semibold-M" transform="matrix(1 0 0 1 1986.09 1126)">
   <path d="M33.8037 17.1929L80.5357 17.1929C94.2265 17.1929 101.886 9.52683 101.886-4.15692L101.886-41.8195C101.886-55.5033 94.2265-63.1252 80.5357-63.1252L71.3956-63.1252L71.3956-52.2557L80.0999-52.2557C87.0887-52.2557 91.016-48.3031 91.016-41.3656L91.016-4.61084C91.016 2.37082 87.0887 6.31627 80.0999 6.31627L34.2394 6.31627C27.2649 6.31627 23.3376 2.37082 23.3376-4.61084L23.3376-41.3656C23.3376-48.3031 27.2649-52.2557 34.2394-52.2557L42.9138-52.2557L42.9138-63.1252L33.8037-63.1252C20.1199-63.1252 12.4609-55.5033 12.4609-41.8195L12.4609-4.15692C12.4609 9.52683 20.1199 17.1929 33.8037 17.1929ZM57.1618-88.9545C54.4122-88.9545 52.1635-86.7144 52.1635-84.0485L52.1635-35.9251L53.1417-21.2358C53.3066-19.0053 54.9613-17.1786 57.1618-17.1786C59.3923-17.1786 61.0541-19.0053 61.219-21.2358L62.1971-35.9251L62.1971-84.0485C62.1971-86.7144 59.9485-88.9545 57.1618-88.9545ZM40.2595-40.3768C37.8919-40.3768 35.8979-38.6235 35.8979-36.1548C35.8979-34.8708 36.3711-33.9054 37.2813-33.0394L53.3283-17.6295C54.6156-16.3163 55.8422-15.899 57.1618-15.899C58.5185-15.899 59.738-16.3163 61.0324-17.6295L77.0723-33.0394C77.9454-33.9054 78.4557-34.8708 78.4557-36.1548C78.4557-38.6235 76.4104-40.3768 74.057-40.3768C72.7919-40.3768 71.5993-39.8972 70.7262-38.9319L64.1987-31.9613L57.1618-22.7879L50.1478-31.9613L43.5903-38.9319C42.7542-39.8972 41.5247-40.3768 40.2595-40.3768Z"/>
  </g>
  <g id="Medium-M" transform="matrix(1 0 0 1 1689.99 1126)">
   <path d="M33.4038 16.2378L79.7253 16.2378C93.1652 16.2378 100.677 8.71768 100.677-4.71364L100.677-42.3434C100.677-55.7747 93.1652-63.2428 79.7253-63.2428L70.269-63.2428L70.269-53.6822L79.4786-53.6822C86.9263-53.6822 91.1161-49.4735 91.1161-42.0864L91.1161-4.97058C91.1161 2.46852 86.9263 6.66858 79.4786 6.66858L33.6505 6.66858C26.22 6.66858 22.0302 2.46852 22.0302-4.97058L22.0302-42.0864C22.0302-49.4735 26.22-53.6822 33.6505-53.6822L42.8253-53.6822L42.8253-63.2428L33.4038-63.2428C19.9725-63.2428 12.4609-55.7747 12.4609-42.3434L12.4609-4.71364C12.4609 8.71768 19.9725 16.2378 33.4038 16.2378ZM56.5557-89.136C54.1001-89.136 52.0449-87.1352 52.0449-84.7224L52.0449-35.9486L52.8727-21.918C53.0109-19.8731 54.5457-18.1915 56.5557-18.1915C58.6007-18.1915 60.144-19.8731 60.2822-21.918L61.11-35.9486L61.11-84.7224C61.11-87.1352 59.0548-89.136 56.5557-89.136ZM39.8051-40.5331C37.5881-40.5331 35.821-38.9155 35.821-36.6684C35.821-35.492 36.2552-34.5904 37.1031-33.7945L53.1809-18.3423C54.3275-17.1539 55.3816-16.7962 56.5557-16.7962C57.7733-16.7962 58.8188-17.1539 59.974-18.3423L76.0432-33.7945C76.8477-34.5904 77.3253-35.492 77.3253-36.6684C77.3253-38.9155 75.4976-40.5331 73.2978-40.5331C72.1546-40.5331 71.0524-40.1132 70.2479-39.2115L63.2859-31.7741L56.5557-23.6729L49.8519-31.7741L42.855-39.2115C42.0939-40.1132 40.9483-40.5331 39.8051-40.5331Z"/>
  </g>
  <g id="Regular-M" transform="matrix(1 0 0 1 1394.06 1126)">
   <path d="M32.8823 14.9921L78.6683 14.9921C91.7809 14.9921 99.1002 7.66228 99.1002-5.4398L99.1002-43.0266C99.1002-56.1287 91.7809-63.3963 78.6683-63.3963L68.7995-63.3963L68.7995-55.5428L78.6683-55.5428C86.7146-55.5428 91.2467-51.0001 91.2467-43.0266L91.2467-5.4398C91.2467 2.59596 86.7146 7.12811 78.6683 7.12811L32.8823 7.12811C24.8571 7.12811 20.325 2.59596 20.325-5.4398L20.325-43.0266C20.325-51.0001 24.8571-55.5428 32.8823-55.5428L42.7098-55.5428L42.7098-63.3963L32.8823-63.3963C19.7802-63.3963 12.4609-56.1287 12.4609-43.0266L12.4609-5.4398C12.4609 7.66228 19.7802 14.9921 32.8823 14.9921ZM55.7652-89.3728C53.6931-89.3728 51.8903-87.6841 51.8903-85.6014L51.8903-35.9793L52.5219-22.8078C52.6254-21.005 54.0036-19.5127 55.7652-19.5127C57.5681-19.5127 58.9569-21.005 59.0604-22.8078L59.692-35.9793L59.692-85.6014C59.692-87.6841 57.8891-89.3728 55.7652-89.3728ZM39.2123-40.737C37.1919-40.737 35.7207-39.2964 35.7207-37.3383C35.7207-36.3023 36.1041-35.4838 36.8708-34.7793L52.9886-19.272C53.9519-18.2465 54.7809-17.9666 55.7652-17.9666C56.8013-17.9666 57.6198-18.2465 58.5936-19.272L74.7009-34.7793C75.4159-35.4838 75.851-36.3023 75.851-37.3383C75.851-39.2964 74.3069-40.737 72.3076-40.737C71.3233-40.737 70.339-40.3948 69.624-39.5763L62.0952-31.53L55.7652-24.8272L49.4659-31.53L41.8959-39.5763C41.2327-40.3948 40.1966-40.737 39.2123-40.737Z"/>
  </g>
  <g id="Light-M" transform="matrix(1 0 0 1 1098.18 1126)">
   <path d="M32.4545 14.3419L77.4192 14.3419C90.2751 14.3419 97.4404 7.14895 97.4404-5.67936L97.4404-42.8897C97.4404-55.718 90.2751-62.8487 77.4192-62.8487L66.096-62.8487L66.096-56.809L77.4192-56.809C86.3895-56.809 91.4007-51.7701 91.4007-42.8897L91.4007-5.67936C91.4007 3.26329 86.3895 8.27454 77.4192 8.27454L32.4545 8.27454C23.5396 8.27454 18.5283 3.26329 18.5283-5.67936L18.5283-42.8897C18.5283-51.7701 23.5396-56.809 32.4545-56.809L43.7707-56.809L43.7707-62.8487L32.4545-62.8487C19.6262-62.8487 12.4609-55.718 12.4609-42.8897L12.4609-5.67936C12.4609 7.14895 19.6262 14.3419 32.4545 14.3419ZM54.961-87.3024C53.368-87.3024 51.9758-86.0072 51.9758-84.3865L51.9758-33.002L52.4192-21.5074C52.4885-20.1152 53.5758-18.9309 54.961-18.9309C56.3532-18.9309 57.4682-20.1152 57.5375-21.5074L57.9809-33.002L57.9809-84.3865C57.9809-86.0072 56.5887-87.3024 54.961-87.3024ZM38.3396-39.0088C36.7812-39.0088 35.6522-37.8591 35.6522-36.363C35.6522-35.5665 35.9501-34.9362 36.5457-34.4029L52.8346-18.502C53.5412-17.7331 54.1991-17.5046 54.961-17.5046C55.7575-17.5046 56.3878-17.7331 57.122-18.502L73.3833-34.4029C73.9443-34.9362 74.2768-35.5665 74.2768-36.363C74.2768-37.8591 73.0578-39.0088 71.5547-39.0088C70.7929-39.0088 70.031-38.7179 69.47-38.0876L60.8461-29.1173L54.961-22.9621L49.0553-29.1173L40.4244-38.0876C39.898-38.7179 39.1015-39.0088 38.3396-39.0088Z"/>
  </g>
  <g id="Thin-M" transform="matrix(1 0 0 1 802.569 1126)">
   <path d="M31.8888 13.4819L75.7671 13.4819C88.2836 13.4819 95.2453 6.47003 95.2453-5.99619L95.2453-42.7087C95.2453-55.1749 88.2836-62.1245 75.7671-62.1245L62.5204-62.1245L62.5204-58.4837L75.7671-58.4837C85.9595-58.4837 91.6044-52.7885 91.6044-42.7087L91.6044-5.99619C91.6044 4.14588 85.9595 9.79079 75.7671 9.79079L31.8888 9.79079C21.797 9.79079 16.1521 4.14588 16.1521-5.99619L16.1521-42.7087C16.1521-52.7885 21.797-58.4837 31.8888-58.4837L45.1738-58.4837L45.1738-62.1245L31.8888-62.1245C19.4226-62.1245 12.4609-55.1749 12.4609-42.7087L12.4609-5.99619C12.4609 6.47003 19.4226 13.4819 31.8888 13.4819ZM53.8974-84.5641C52.938-84.5641 52.089-83.7894 52.089-82.7797L52.089-29.0642L52.2834-19.7874C52.3074-18.9384 53.0101-18.1614 53.8974-18.1614C54.7464-18.1614 55.4994-18.9384 55.5234-19.7874L55.7178-29.0642L55.7178-82.7797C55.7178-83.7894 54.8688-84.5641 53.8974-84.5641ZM37.1855-36.7231C36.2381-36.7231 35.5617-35.9581 35.5617-35.0731C35.5617-34.5934 35.7464-34.212 36.1157-33.905L52.631-17.4836C52.9981-17.0542 53.4297-16.8936 53.8974-16.8936C54.3771-16.8936 54.7584-17.0542 55.1758-17.4836L71.6408-33.905C71.9981-34.212 72.1948-34.5934 72.1948-35.0731C72.1948-35.9581 71.4058-36.7231 70.559-36.7231C70.0913-36.7231 69.6236-36.5001 69.2663-36.1188L59.1941-25.9264L53.8974-20.4954L48.5121-25.9264L38.4782-36.1188C38.1328-36.5001 37.6532-36.7231 37.1855-36.7231Z"/>
  </g>
  <g id="Ultralight-M" transform="matrix(1 0 0 1 506.42 1126)">
   <path d="M31.599 13.0415L74.921 13.0415C87.2636 13.0415 94.1209 6.12229 94.1209-6.15846L94.1209-42.616C94.1209-54.8967 87.2636-61.7536 74.921-61.7536L60.689-61.7536L60.689-59.3414L74.921-59.3414C85.7392-59.3414 91.7087-53.3101 91.7087-42.616L91.7087-6.15846C91.7087 4.59794 85.7392 10.5674 74.921 10.5674L31.599 10.5674C20.9045 10.5674 14.935 4.59794 14.935-6.15846L14.935-42.616C14.935-53.3101 20.9045-59.3414 31.599-59.3414L45.8925-59.3414L45.8925-61.7536L31.599-61.7536C19.3182-61.7536 12.4609-54.8967 12.4609-42.616L12.4609-6.15846C12.4609 6.12229 19.3182 13.0415 31.599 13.0415ZM53.3526-83.1616C52.7178-83.1616 52.1469-82.6534 52.1469-81.9567L52.1469-27.0473L52.2139-18.9065C52.2147-18.3357 52.7203-17.7673 53.3526-17.7673C53.9234-17.7673 54.4909-18.3357 54.4918-18.9065L54.5587-27.0473L54.5587-81.9567C54.5587-82.6534 53.9878-83.1616 53.3526-83.1616ZM36.5943-35.5524C35.9599-35.5524 35.5154-34.9845 35.5154-34.4124C35.5154-34.095 35.6421-33.8411 35.8955-33.65L52.5266-16.962C52.7199-16.7065 53.0356-16.5806 53.3526-16.5806C53.67-16.5806 53.9239-16.7065 54.179-16.962L70.7482-33.65C71.0012-33.8411 71.1284-34.095 71.1284-34.4124C71.1284-34.9845 70.5596-35.5524 70.049-35.5524C69.732-35.5524 69.415-35.3642 69.162-35.1103L58.3479-24.2921L53.3526-19.2319L48.2339-24.2921L37.4813-35.1103C37.2287-35.3642 36.9113-35.5524 36.5943-35.5524Z"/>
  </g>
  <g id="Black-S" transform="matrix(1 0 0 1 2885.99 696)">
   <path d="M28.2227 10.0098L66.6016 10.0098C78.418 10.0098 85.0586 3.36914 85.0586-8.44727L85.0586-38.0859C85.0586-49.9023 78.418-56.543 66.6016-56.543L60.7422-56.543L60.7422-42.3828L65.4297-42.3828C68.9453-42.3828 70.8984-40.3809 70.8984-36.8652L70.8984-9.66797C70.8984-6.15234 68.9453-4.15039 65.4297-4.15039L29.3945-4.15039C25.8789-4.15039 23.9258-6.15234 23.9258-9.66797L23.9258-36.8652C23.9258-40.3809 25.8789-42.3828 29.3945-42.3828L34.082-42.3828L34.082-56.543L28.2227-56.543C16.4062-56.543 9.76562-49.9023 9.76562-38.0859L9.76562-8.44727C9.76562 3.36914 16.4062 10.0098 28.2227 10.0098ZM47.4121-76.416C43.9941-76.416 41.4062-73.6328 41.4062-70.459L41.4062-35.498L42.8223-21.1914C43.0664-18.6523 44.873-16.6016 47.4121-16.6016C49.9512-16.6016 51.7578-18.6523 52.002-21.1914L53.418-35.498L53.418-70.459C53.418-73.6328 50.8301-76.416 47.4121-76.416ZM33.4961-38.4766C31.0059-38.4766 28.4668-36.5234 28.4668-33.6426C28.4668-32.1777 29.0039-31.1523 29.9805-30.1758L42.4316-18.2617C44.043-16.6992 45.752-16.1133 47.4121-16.1133C49.0723-16.1133 50.7812-16.6992 52.3926-18.2617L64.8438-30.1758C65.8203-31.1523 66.3574-32.1777 66.3574-33.6426C66.3574-36.5234 63.8184-38.4766 61.3281-38.4766C59.8145-38.4766 58.4961-37.8418 57.5195-36.8164L54.248-33.3496L47.4121-21.4844L40.5762-33.3496L37.3047-36.8164C36.3281-37.8418 35.0098-38.4766 33.4961-38.4766Z"/>
  </g>
  <g id="Heavy-S" transform="matrix(1 0 0 1 2590.05 696)">
   <path d="M27.6925 8.69598L65.5759 8.69598C77.0581 8.69598 83.5028 2.25127 83.5028-9.23093L83.5028-38.8696C83.5028-50.3518 77.0581-56.785 65.5759-56.785L59.4399-56.785L59.4399-44.3074L64.6806-44.3074C68.7494-44.3074 71.0252-41.9943 71.0252-37.937L71.0252-10.1635C71.0252-6.09472 68.7494-3.78161 64.6806-3.78161L28.5878-3.78161C24.519-3.78161 22.2432-6.09472 22.2432-10.1635L22.2432-37.937C22.2432-41.9943 24.519-44.3074 28.5878-44.3074L33.817-44.3074L33.817-56.785L27.6925-56.785C16.2103-56.785 9.76562-50.3518 9.76562-38.8696L9.76562-9.23093C9.76562 2.25127 16.2103 8.69598 27.6925 8.69598ZM46.6284-76.9461C43.5793-76.9461 41.2219-74.4626 41.2219-71.5999L41.2219-35.9129L42.442-22.3554C42.6515-20.0353 44.3199-18.1574 46.6284-18.1574C48.9485-18.1574 50.6169-20.0353 50.8265-22.3554L52.0466-35.9129L52.0466-71.5999C52.0466-74.4626 49.6892-76.9461 46.6284-76.9461ZM32.9429-38.926C30.614-38.926 28.3631-37.1342 28.3631-34.5184C28.3631-33.1804 28.8541-32.2241 29.7615-31.3282L42.2357-19.4026C43.6742-17.99 45.1527-17.4847 46.6284-17.4847C48.1157-17.4847 49.5942-17.99 51.0327-19.4026L63.5069-31.3282C64.4028-32.2241 64.9053-33.1804 64.9053-34.5184C64.9053-37.1342 62.6429-38.926 60.314-38.926C58.9501-38.926 57.7355-38.3719 56.8396-37.4157L53.0726-33.3842L46.6284-23.0171L40.1959-33.3842L36.4173-37.4157C35.5329-38.3719 34.3068-38.926 32.9429-38.926Z"/>
  </g>
  <g id="Bold-S" transform="matrix(1 0 0 1 2294.21 696)">
   <path d="M27.0996 7.22656L64.4287 7.22656C75.5371 7.22656 81.7627 1.00098 81.7627-10.1074L81.7627-39.7461C81.7627-50.8545 75.5371-57.0557 64.4287-57.0557L57.9834-57.0557L57.9834-46.46L63.8428-46.46C68.5303-46.46 71.167-43.7988 71.167-39.1357L71.167-10.7178C71.167-6.03027 68.5303-3.36914 63.8428-3.36914L27.6855-3.36914C22.998-3.36914 20.3613-6.03027 20.3613-10.7178L20.3613-39.1357C20.3613-43.7988 22.998-46.46 27.6855-46.46L33.5205-46.46L33.5205-57.0557L27.0996-57.0557C15.9912-57.0557 9.76562-50.8545 9.76562-39.7461L9.76562-10.1074C9.76562 1.00098 15.9912 7.22656 27.0996 7.22656ZM45.752-77.5391C43.1152-77.5391 41.0156-75.3906 41.0156-72.876L41.0156-36.377L42.0166-23.6572C42.1875-21.582 43.7012-19.8975 45.752-19.8975C47.8271-19.8975 49.3408-21.582 49.5117-23.6572L50.5127-36.377L50.5127-72.876C50.5127-75.3906 48.4131-77.5391 45.752-77.5391ZM32.3242-39.4287C30.1758-39.4287 28.2471-37.8174 28.2471-35.498C28.2471-34.3018 28.6865-33.4229 29.5166-32.6172L42.0166-20.6787C43.2617-19.4336 44.4824-19.0186 45.752-19.0186C47.0459-19.0186 48.2666-19.4336 49.5117-20.6787L62.0117-32.6172C62.8174-33.4229 63.2812-34.3018 63.2812-35.498C63.2812-37.8174 61.3281-39.4287 59.1797-39.4287C57.9834-39.4287 56.8848-38.9648 56.0791-38.0859L51.7578-33.4229L45.752-24.7314L39.7705-33.4229L35.4248-38.0859C34.6436-38.9648 33.5205-39.4287 32.3242-39.4287Z"/>
  </g>
  <g id="Semibold-S" transform="matrix(1 0 0 1 1998.1 696)">
   <path d="M26.6908 6.21348L63.6378 6.21348C74.4885 6.21348 80.563 0.138965 80.563-10.7117L80.563-40.3504C80.563-51.2011 74.4885-57.2423 63.6378-57.2423L56.9792-57.2423L56.9792-47.944L63.2651-47.944C68.3792-47.944 71.2647-45.043 71.2647-39.9622L71.2647-11.0999C71.2647-5.98584 68.3792-3.08477 63.2651-3.08477L27.0635-3.08477C21.9494-3.08477 19.0639-5.98584 19.0639-11.0999L19.0639-39.9622C19.0639-45.043 21.9494-47.944 27.0635-47.944L33.3161-47.944L33.3161-57.2423L26.6908-57.2423C15.8401-57.2423 9.76562-51.2011 9.76562-40.3504L9.76562-10.7117C9.76562 0.138965 15.8401 6.21348 26.6908 6.21348ZM45.1477-77.9479C42.7953-77.9479 40.8734-76.0305 40.8734-73.7558L40.8734-36.6969L41.7233-24.5548C41.8676-22.6484 43.2746-21.0972 45.1477-21.0972C47.054-21.0972 48.461-22.6484 48.6053-24.5548L49.4552-36.6969L49.4552-73.7558C49.4552-76.0305 47.5333-77.9479 45.1477-77.9479ZM31.8977-39.7753C29.8736-39.7753 28.1671-38.2884 28.1671-36.1734C28.1671-35.0749 28.571-34.2493 29.3478-33.5059L41.8655-21.5585C42.9773-20.4289 44.0203-20.0761 45.1477-20.0761C46.3083-20.0761 47.3513-20.4289 48.4631-21.5585L60.9809-33.5059C61.7243-34.2493 62.1615-35.0749 62.1615-36.1734C62.1615-38.2884 60.4217-39.7753 58.3977-39.7753C57.3169-39.7753 56.2982-39.3736 55.5548-38.548L50.8514-33.4495L45.1477-25.9134L39.4772-33.4495L34.7405-38.548C34.0304-39.3736 32.9784-39.7753 31.8977-39.7753Z"/>
  </g>
  <g id="Medium-S" transform="matrix(1 0 0 1 1701.85 696)">
   <path d="M26.3809 5.44531L63.0381 5.44531C73.6934 5.44531 79.6533-0.514648 79.6533-11.1699L79.6533-40.8086C79.6533-51.4639 73.6934-57.3838 63.0381-57.3838L56.2178-57.3838L56.2178-49.0693L62.8271-49.0693C68.2646-49.0693 71.3389-45.9863 71.3389-40.5889L71.3389-11.3896C71.3389-5.95215 68.2646-2.86914 62.8271-2.86914L26.5918-2.86914C21.1543-2.86914 18.0801-5.95215 18.0801-11.3896L18.0801-40.5889C18.0801-45.9863 21.1543-49.0693 26.5918-49.0693L33.1611-49.0693L33.1611-57.3838L26.3809-57.3838C15.7256-57.3838 9.76562-51.4639 9.76562-40.8086L9.76562-11.1699C9.76562-0.514648 15.7256 5.44531 26.3809 5.44531ZM44.6895-78.2578C42.5527-78.2578 40.7656-76.5156 40.7656-74.4229L40.7656-36.9395L41.501-25.2354C41.625-23.457 42.9512-22.0068 44.6895-22.0068C46.4678-22.0068 47.7939-23.457 47.918-25.2354L48.6533-36.9395L48.6533-74.4229C48.6533-76.5156 46.8662-78.2578 44.6895-78.2578ZM31.5742-40.0381C29.6445-40.0381 28.1064-38.6455 28.1064-36.6855C28.1064-35.6611 28.4834-34.876 29.2197-34.1797L41.751-22.2256C42.7617-21.1836 43.6699-20.8779 44.6895-20.8779C45.749-20.8779 46.6572-21.1836 47.668-22.2256L60.1992-34.1797C60.8955-34.876 61.3125-35.6611 61.3125-36.6855C61.3125-38.6455 59.7344-40.0381 57.8047-40.0381C56.8115-40.0381 55.8535-39.6836 55.1572-38.8984L50.1641-33.4697L44.6895-26.8096L39.2549-33.4697L34.2217-38.8984C33.5654-39.6836 32.5674-40.0381 31.5742-40.0381Z"/>
  </g>
  <g id="Regular-S" transform="matrix(1 0 0 1 1405.73 696)">
   <path d="M25.9766 4.44336L62.2559 4.44336C72.6562 4.44336 78.4668-1.36719 78.4668-11.7676L78.4668-41.4062C78.4668-51.8066 72.6562-57.5684 62.2559-57.5684L55.2246-57.5684L55.2246-50.5371L62.2559-50.5371C68.1152-50.5371 71.4355-47.2168 71.4355-41.4062L71.4355-11.7676C71.4355-5.9082 68.1152-2.58789 62.2559-2.58789L25.9766-2.58789C20.1172-2.58789 16.7969-5.9082 16.7969-11.7676L16.7969-41.4062C16.7969-47.2168 20.1172-50.5371 25.9766-50.5371L32.959-50.5371L32.959-57.5684L25.9766-57.5684C15.5762-57.5684 9.76562-51.8066 9.76562-41.4062L9.76562-11.7676C9.76562-1.36719 15.5762 4.44336 25.9766 4.44336ZM44.0918-78.6621C42.2363-78.6621 40.625-77.1484 40.625-75.293L40.625-37.2559L41.2109-26.123C41.3086-24.5117 42.5293-23.1934 44.0918-23.1934C45.7031-23.1934 46.9238-24.5117 47.0215-26.123L47.6074-37.2559L47.6074-75.293C47.6074-77.1484 45.9961-78.6621 44.0918-78.6621ZM31.1523-40.3809C29.3457-40.3809 28.0273-39.1113 28.0273-37.3535C28.0273-36.4258 28.3691-35.6934 29.0527-35.0586L41.6016-23.0957C42.4805-22.168 43.2129-21.9238 44.0918-21.9238C45.0195-21.9238 45.752-22.168 46.6309-23.0957L59.1797-35.0586C59.8145-35.6934 60.2051-36.4258 60.2051-37.3535C60.2051-39.1113 58.8379-40.3809 57.0312-40.3809C56.1523-40.3809 55.2734-40.0879 54.6387-39.3555L49.2676-33.4961L44.0918-27.9785L38.9648-33.4961L33.5449-39.3555C32.959-40.0879 32.0312-40.3809 31.1523-40.3809Z"/>
  </g>
  <g id="Light-S" transform="matrix(1 0 0 1 1109.75 696)">
   <path d="M25.5981 3.86817L61.1509 3.86817C71.3242 3.86817 76.9985-1.82129 76.9985-11.9795L76.9985-41.2852C76.9985-51.4434 71.3242-57.084 61.1509-57.084L52.833-57.084L52.833-51.6572L61.1509-51.6572C67.8276-51.6572 71.5718-47.8979 71.5718-41.2852L71.5718-11.9795C71.5718-5.31788 67.8276-1.57374 61.1509-1.57374L25.5981-1.57374C18.9517-1.57374 15.2075-5.31788 15.2075-11.9795L15.2075-41.2852C15.2075-47.8979 18.9517-51.6572 25.5981-51.6572L33.8975-51.6572L33.8975-57.084L25.5981-57.084C15.4399-57.084 9.76562-51.4434 9.76562-41.2852L9.76562-11.9795C9.76562-1.82129 15.4399 3.86817 25.5981 3.86817ZM43.3804-76.8306C41.9487-76.8306 40.7007-75.6651 40.7007-74.2183L40.7007-34.6221L41.1201-24.9727C41.1875-23.7246 42.1509-22.6787 43.3804-22.6787C44.6284-22.6787 45.6069-23.7246 45.6743-24.9727L46.0938-34.6221L46.0938-74.2183C46.0938-75.6651 44.8457-76.8306 43.3804-76.8306ZM30.3804-38.8521C28.9824-38.8521 27.9668-37.8399 27.9668-36.4907C27.9668-35.7749 28.2329-35.209 28.7651-34.7256L41.4653-22.4146C42.1172-21.7139 42.6982-21.5151 43.3804-21.5151C44.0962-21.5151 44.6621-21.7139 45.3291-22.4146L58.0142-34.7256C58.5127-35.209 58.8125-35.7749 58.8125-36.4907C58.8125-37.8399 57.7329-38.8521 56.3652-38.8521C55.6831-38.8521 55.001-38.6045 54.5024-38.0386L48.1626-31.3618L43.3804-26.3286L38.6016-31.3618L32.2432-38.0386C31.7783-38.6045 31.0625-38.8521 30.3804-38.8521Z"/>
  </g>
  <g id="Thin-S" transform="matrix(1 0 0 1 814.011 696)">
   <path d="M25.0977 3.10743L59.6895 3.10743C69.5625 3.10743 75.0567-2.42187 75.0567-12.2598L75.0567-41.125C75.0567-50.9629 69.5625-56.4434 59.6895-56.4434L49.67-56.4434L49.67-53.1387L59.6895-53.1387C67.4473-53.1387 71.752-48.7988 71.752-41.125L71.752-12.2598C71.752-4.53712 67.4473-0.23244 59.6895-0.23244L25.0977-0.23244C17.4102-0.23244 13.1055-4.53712 13.1055-12.2598L13.1055-41.125C13.1055-48.7988 17.4102-53.1387 25.0977-53.1387L35.1387-53.1387L35.1387-56.4434L25.0977-56.4434C15.2598-56.4434 9.76562-50.9629 9.76562-41.125L9.76562-12.2598C9.76562-2.42187 15.2598 3.10743 25.0977 3.10743ZM42.4395-74.4082C41.5684-74.4082 40.8008-73.7032 40.8008-72.7969L40.8008-31.1387L41-23.4512C41.0273-22.6836 41.6504-21.9981 42.4395-21.9981C43.2071-21.9981 43.8653-22.6836 43.8926-23.4512L44.0918-31.1387L44.0918-72.7969C44.0918-73.7032 43.3242-74.4082 42.4395-74.4082ZM29.3594-36.8301C28.502-36.8301 27.8867-36.1582 27.8867-35.3496C27.8867-34.9141 28.0527-34.5684 28.3848-34.2852L41.2852-21.5137C41.6367-21.1133 42.0176-20.9746 42.4395-20.9746C42.875-20.9746 43.2207-21.1133 43.6074-21.5137L56.4727-34.2852C56.791-34.5684 56.9707-34.9141 56.9707-35.3496C56.9707-36.1582 56.2715-36.8301 55.4844-36.8301C55.0625-36.8301 54.6406-36.6426 54.3223-36.2969L46.7012-28.5391L42.4395-24.1465L38.1211-28.5391L30.5215-36.2969C30.2168-36.6426 29.7813-36.8301 29.3594-36.8301Z"/>
  </g>
  <g id="Ultralight-S" transform="matrix(1 0 0 1 517.797 696)">
   <path d="M24.8413 2.71779L58.9409 2.71779C68.6602 2.71779 74.062-2.72948 74.062-12.4033L74.062-41.043C74.062-50.7168 68.6602-56.1152 58.9409-56.1152L48.0499-56.1152L48.0499-53.8974L58.9409-53.8974C67.2524-53.8974 71.8442-49.2602 71.8442-41.043L71.8442-12.4033C71.8442-4.13722 67.2524 0.454566 58.9409 0.454566L24.8413 0.454566C16.6206 0.454566 12.0288-4.13722 12.0288-12.4033L12.0288-41.043C12.0288-49.2602 16.6206-53.8974 24.8413-53.8974L35.7744-53.8974L35.7744-56.1152L24.8413-56.1152C15.1675-56.1152 9.76562-50.7168 9.76562-41.043L9.76562-12.4033C9.76562-2.72948 15.1675 2.71779 24.8413 2.71779ZM41.9575-73.1675C41.3735-73.1675 40.852-72.6983 40.852-72.0689L40.852-29.3546L40.9385-22.6719C40.9453-22.1504 41.3941-21.6494 41.9575-21.6494C42.479-21.6494 42.9732-22.1504 42.98-22.6719L43.0664-29.3546L43.0664-72.0689C43.0664-72.6983 42.5449-73.1675 41.9575-73.1675ZM28.8364-35.7945C28.2559-35.7945 27.8457-35.2969 27.8457-34.7652C27.8457-34.4732 27.9605-34.2402 28.1899-34.0596L41.1929-21.0523C41.3906-20.8057 41.669-20.6978 41.9575-20.6978C42.2495-20.6978 42.4824-20.8057 42.7256-21.0523L55.6831-34.0596C55.9092-34.2402 56.0274-34.4732 56.0274-34.7652C56.0274-35.2969 55.523-35.7945 55.0332-35.7945C54.7446-35.7945 54.4561-35.6377 54.23-35.4048L45.9527-27.0933L41.9575-23.0288L37.875-27.0933L29.6397-35.4048C29.417-35.6377 29.125-35.7945 28.8364-35.7945Z"/>
  </g>
 </g>
</svg>
