<?xml version="1.0" encoding="UTF-8"?>
<!--Generator: Apple Native CoreSVG 341-->
<!DOCTYPE svg
PUBLIC "-//W3C//DTD SVG 1.1//EN"
       "http://www.w3.org/Graphics/SVG/1.1/DTD/svg11.dtd">
<svg version="1.1" xmlns="http://www.w3.org/2000/svg" xmlns:xlink="http://www.w3.org/1999/xlink" viewBox="0 0 3300 2200">
 <g id="Notes">
  <rect height="2200" id="artboard" style="fill:white;opacity:1" width="3300" x="0" y="0"/>
  <line style="fill:none;stroke:black;opacity:1;stroke-width:0.5;" x1="263" x2="3036" y1="292" y2="292"/>
  <text style="stroke:none;fill:black;font-family:sans-serif;font-size:13;font-weight:bold;" transform="matrix(1 0 0 1 263 322)">Weight/Scale Variations</text>
  <text style="stroke:none;fill:black;font-family:sans-serif;font-size:13;text-anchor:middle;" transform="matrix(1 0 0 1 559.711 322)">Ultralight</text>
  <text style="stroke:none;fill:black;font-family:sans-serif;font-size:13;text-anchor:middle;" transform="matrix(1 0 0 1 856.422 322)">Thin</text>
  <text style="stroke:none;fill:black;font-family:sans-serif;font-size:13;text-anchor:middle;" transform="matrix(1 0 0 1 1153.13 322)">Light</text>
  <text style="stroke:none;fill:black;font-family:sans-serif;font-size:13;text-anchor:middle;" transform="matrix(1 0 0 1 1449.84 322)">Regular</text>
  <text style="stroke:none;fill:black;font-family:sans-serif;font-size:13;text-anchor:middle;" transform="matrix(1 0 0 1 1746.56 322)">Medium</text>
  <text style="stroke:none;fill:black;font-family:sans-serif;font-size:13;text-anchor:middle;" transform="matrix(1 0 0 1 2043.27 322)">Semibold</text>
  <text style="stroke:none;fill:black;font-family:sans-serif;font-size:13;text-anchor:middle;" transform="matrix(1 0 0 1 2339.98 322)">Bold</text>
  <text style="stroke:none;fill:black;font-family:sans-serif;font-size:13;text-anchor:middle;" transform="matrix(1 0 0 1 2636.69 322)">Heavy</text>
  <text style="stroke:none;fill:black;font-family:sans-serif;font-size:13;text-anchor:middle;" transform="matrix(1 0 0 1 2933.4 322)">Black</text>
  <line style="fill:none;stroke:black;opacity:1;stroke-width:0.5;" x1="263" x2="3036" y1="1903" y2="1903"/>
  <g transform="matrix(0.2 0 0 0.2 263 1933)">
   <path d="m46.2402 4.15039c21.7773 0 39.4531-17.627 39.4531-39.4043s-17.6758-39.4043-39.4531-39.4043c-21.7285 0-39.4043 17.627-39.4043 39.4043s17.6758 39.4043 39.4043 39.4043Zm0-7.42188c-17.6758 0-31.9336-14.3066-31.9336-31.9824s14.2578-31.9824 31.9336-31.9824 31.9824 14.3066 31.9824 31.9824-14.3066 31.9824-31.9824 31.9824Zm3.61328-17.7734v-28.4668c0-2.24609-1.46484-3.75977-3.71094-3.75977-2.14844 0-3.61328 1.51367-3.61328 3.75977v28.4668c0 2.19727 1.46484 3.71094 3.61328 3.71094 2.24609 0 3.71094-1.51367 3.71094-3.71094Zm-17.8223-10.5957h28.418c2.19727 0 3.71094-1.46484 3.71094-3.61328 0-2.19727-1.51367-3.71094-3.71094-3.71094h-28.418c-2.24609 0-3.75977 1.51367-3.75977 3.71094 0 2.14844 1.51367 3.61328 3.75977 3.61328Z"/>
  </g>
  <g transform="matrix(0.2 0 0 0.2 281.506 1933)">
   <path d="m58.5449 14.5508c27.4902 0 49.8047-22.3145 49.8047-49.8047s-22.3145-49.8047-49.8047-49.8047-49.8047 22.3145-49.8047 49.8047 22.3145 49.8047 49.8047 49.8047Zm0-8.30078c-22.9492 0-41.5039-18.5547-41.5039-41.5039s18.5547-41.5039 41.5039-41.5039 41.5039 18.5547 41.5039 41.5039-18.5547 41.5039-41.5039 41.5039Zm4.05273-23.0957v-36.9141c0-2.49023-1.70898-4.19922-4.15039-4.19922-2.39258 0-4.05273 1.70898-4.05273 4.19922v36.9141c0 2.44141 1.66016 4.15039 4.05273 4.15039 2.44141 0 4.15039-1.66016 4.15039-4.15039Zm-22.5586-14.4043h36.9629c2.44141 0 4.15039-1.61133 4.15039-4.00391 0-2.44141-1.70898-4.15039-4.15039-4.15039h-36.9629c-2.49023 0-4.15039 1.70898-4.15039 4.15039 0 2.39258 1.66016 4.00391 4.15039 4.00391Z"/>
  </g>
  <g transform="matrix(0.2 0 0 0.2 304.924 1933)">
   <path d="m74.8535 28.3203c35.1074 0 63.623-28.4668 63.623-63.5742s-28.5156-63.623-63.623-63.623-63.5742 28.5156-63.5742 63.623 28.4668 63.5742 63.5742 63.5742Zm0-9.08203c-30.127 0-54.4922-24.3652-54.4922-54.4922s24.3652-54.4922 54.4922-54.4922 54.4922 24.3652 54.4922 54.4922-24.3652 54.4922-54.4922 54.4922Zm4.44336-30.3223v-48.4863c0-2.73438-1.85547-4.63867-4.54102-4.63867-2.58789 0-4.44336 1.9043-4.44336 4.63867v48.4863c0 2.68555 1.85547 4.58984 4.44336 4.58984 2.68555 0 4.54102-1.85547 4.54102-4.58984Zm-28.7109-19.7754h48.4863c2.68555 0 4.58984-1.80664 4.58984-4.39453 0-2.73438-1.85547-4.58984-4.58984-4.58984h-48.4863c-2.73438 0-4.58984 1.85547-4.58984 4.58984 0 2.58789 1.85547 4.39453 4.58984 4.39453Z"/>
  </g>
  <text style="stroke:none;fill:black;font-family:sans-serif;font-size:13;font-weight:bold;" transform="matrix(1 0 0 1 263 1953)">Design Variations</text>
  <text style="stroke:none;fill:black;font-family:sans-serif;font-size:13;" transform="matrix(1 0 0 1 263 1971)">Symbols are supported in up to nine weights and three scales.</text>
  <text style="stroke:none;fill:black;font-family:sans-serif;font-size:13;" transform="matrix(1 0 0 1 263 1989)">For optimal layout with text and other symbols, vertically align</text>
  <text style="stroke:none;fill:black;font-family:sans-serif;font-size:13;" transform="matrix(1 0 0 1 263 2007)">symbols with the adjacent text.</text>
  <line style="fill:none;stroke:#00AEEF;stroke-width:0.5;opacity:1.0;" x1="776" x2="776" y1="1919" y2="1933"/>
  <g transform="matrix(0.2 0 0 0.2 776 1933)">
   <path d="m16.5527 0.78125c2.58789 0 3.85742-0.976562 4.78516-3.71094l20.5566-57.5195h0.244141l20.6055 57.5195c0.927734 2.73438 2.19727 3.71094 4.73633 3.71094 2.58789 0 4.24805-1.5625 4.24805-4.00391 0-0.830078-0.146484-1.61133-0.537109-2.63672l-22.9004-60.9863c-1.12305-2.97852-3.125-4.49219-6.25-4.49219-3.02734 0-5.07812 1.46484-6.15234 4.44336l-22.9004 61.084c-0.390625 1.02539-0.537109 1.80664-0.537109 2.63672 0 2.44141 1.5625 3.95508 4.10156 3.95508Zm10.2051-20.9473h30.6641c2.00195 0 3.66211-1.66016 3.66211-3.66211 0-2.05078-1.66016-3.66211-3.66211-3.66211h-30.6641c-2.00195 0-3.66211 1.61133-3.66211 3.66211 0 2.00195 1.66016 3.66211 3.66211 3.66211Z"/>
  </g>
  <line style="fill:none;stroke:#00AEEF;stroke-width:0.5;opacity:1.0;" x1="792.836" x2="792.836" y1="1919" y2="1933"/>
  <text style="stroke:none;fill:black;font-family:sans-serif;font-size:13;font-weight:bold;" transform="matrix(1 0 0 1 776 1953)">Margins</text>
  <text style="stroke:none;fill:black;font-family:sans-serif;font-size:13;" transform="matrix(1 0 0 1 776 1971)">Leading and trailing margins on the left and right side of each symbol</text>
  <text style="stroke:none;fill:black;font-family:sans-serif;font-size:13;" transform="matrix(1 0 0 1 776 1989)">can be adjusted by modifying the x-location of the margin guidelines.</text>
  <text style="stroke:none;fill:black;font-family:sans-serif;font-size:13;" transform="matrix(1 0 0 1 776 2007)">Modifications are automatically applied proportionally to all</text>
  <text style="stroke:none;fill:black;font-family:sans-serif;font-size:13;" transform="matrix(1 0 0 1 776 2025)">scales and weights.</text>
  <g transform="matrix(0.2 0 0 0.2 1289 1933)">
   <path d="m14.209 13.1348 7.86133 7.86133c4.29688 4.39453 9.32617 4.10156 13.8672-1.02539l60.6934-68.2129-4.88281-4.88281-60.2539 67.6758c-1.80664 1.95312-3.4668 2.44141-5.81055 0.0976562l-5.17578-5.12695c-2.29492-2.29492-1.80664-3.95508 0.195312-5.81055l67.4805-62.1582-4.88281-4.83398-68.0664 62.5977c-4.98047 4.58984-5.32227 9.47266-1.02539 13.8184Zm44.873-97.4609c-2.05078 2.00195-2.24609 4.88281-1.07422 6.78711 1.12305 1.80664 3.4668 3.02734 6.5918 2.24609 5.85938-1.66016 12.5977-2.39258 18.8965 0.927734l-2.68555 7.12891c-1.61133 4.00391-0.732422 6.88477 1.70898 9.42383l10.2539 10.3027c2.34375 2.39258 4.54102 2.44141 7.08008 1.95312l4.44336-0.732422 2.58789 2.53906-0.195312 2.24609c-0.0976562 2.29492 0.537109 4.29688 2.7832 6.49414l3.36914 3.32031c2.29492 2.29492 5.51758 2.49023 7.8125 0.195312l12.9883-13.0371c2.29492-2.34375 2.14844-5.37109-0.195312-7.66602l-3.41797-3.41797c-2.19727-2.19727-4.05273-3.02734-6.34766-2.88086l-2.34375 0.244141-2.44141-2.44141 1.02539-4.6875c0.634766-2.73438-0.244141-4.98047-2.88086-7.61719l-11.2793-11.1816c-12.9395-12.8418-35.5957-11.0352-46.6797-0.146484Zm7.08008 2.05078c8.78906-6.39648 25.9766-5.66406 33.6914 1.95312l12.3047 12.207c1.02539 1.02539 1.2207 1.80664 0.927734 3.32031l-1.46484 6.64062 6.73828 6.68945 4.39453-0.244141c1.12305-0.0488281 1.51367 0.0488281 2.34375 0.878906l2.53906 2.49023-10.8398 10.8398-2.49023-2.49023c-0.830078-0.878906-0.976562-1.2207-0.927734-2.39258l0.292969-4.3457-6.68945-6.73828-6.83594 1.17188c-1.41602 0.292969-2.05078 0.195312-3.17383-0.878906l-8.93555-8.88672c-1.07422-1.02539-1.17188-1.70898-0.488281-3.36914l4.58984-11.4746c-6.10352-6.34766-17.041-7.51953-25.5859-4.58984-0.683594 0.244141-0.927734-0.390625-0.390625-0.78125Z"/>
  </g>
  <text style="stroke:none;fill:black;font-family:sans-serif;font-size:13;font-weight:bold;" transform="matrix(1 0 0 1 1289 1953)">Exporting</text>
  <text style="stroke:none;fill:black;font-family:sans-serif;font-size:13;" transform="matrix(1 0 0 1 1289 1971)">Symbols should be outlined when exporting to ensure the</text>
  <text style="stroke:none;fill:black;font-family:sans-serif;font-size:13;" transform="matrix(1 0 0 1 1289 1989)">design is preserved when submitting to Xcode.</text>
  <text id="template-version" style="stroke:none;fill:black;font-family:sans-serif;font-size:13;text-anchor:end;" transform="matrix(1 0 0 1 3036 1933)">Template v.2.0</text>
  <text style="stroke:none;fill:black;font-family:sans-serif;font-size:13;text-anchor:end;" transform="matrix(1 0 0 1 3036 1951)">Requires Xcode 12 or greater</text>
  <text id="descriptive-name" style="stroke:none;fill:black;font-family:sans-serif;font-size:13;text-anchor:end;" transform="matrix(1 0 0 1 3036 1969)">Generated from desktopcomputer</text>
  <text style="stroke:none;fill:black;font-family:sans-serif;font-size:13;text-anchor:end;" transform="matrix(1 0 0 1 3036 1987)">Typeset at 100.0 points</text>
  <text style="stroke:none;fill:black;font-family:sans-serif;font-size:13;" transform="matrix(1 0 0 1 263 726)">Small</text>
  <text style="stroke:none;fill:black;font-family:sans-serif;font-size:13;" transform="matrix(1 0 0 1 263 1156)">Medium</text>
  <text style="stroke:none;fill:black;font-family:sans-serif;font-size:13;" transform="matrix(1 0 0 1 263 1586)">Large</text>
 </g>
 <g id="Guides">
  <g id="H-reference" style="fill:#27AAE1;stroke:none;" transform="matrix(1 0 0 1 339 696)">
   <path d="M0.993654 0L3.63775 0L29.3281-67.1323L30.0303-67.1323L30.0303-70.459L28.1226-70.459ZM11.6885-24.4799L46.9815-24.4799L46.2315-26.7285L12.4385-26.7285ZM55.1196 0L57.7637 0L30.6382-70.459L29.4326-70.459L29.4326-67.1323Z"/>
  </g>
  <line id="Baseline-S" style="fill:none;stroke:#27AAE1;opacity:1;stroke-width:0.5;" x1="263" x2="3036" y1="696" y2="696"/>
  <line id="Capline-S" style="fill:none;stroke:#27AAE1;opacity:1;stroke-width:0.5;" x1="263" x2="3036" y1="625.541" y2="625.541"/>
  <g id="H-reference" style="fill:#27AAE1;stroke:none;" transform="matrix(1 0 0 1 339 1126)">
   <path d="M0.993654 0L3.63775 0L29.3281-67.1323L30.0303-67.1323L30.0303-70.459L28.1226-70.459ZM11.6885-24.4799L46.9815-24.4799L46.2315-26.7285L12.4385-26.7285ZM55.1196 0L57.7637 0L30.6382-70.459L29.4326-70.459L29.4326-67.1323Z"/>
  </g>
  <line id="Baseline-M" style="fill:none;stroke:#27AAE1;opacity:1;stroke-width:0.5;" x1="263" x2="3036" y1="1126" y2="1126"/>
  <line id="Capline-M" style="fill:none;stroke:#27AAE1;opacity:1;stroke-width:0.5;" x1="263" x2="3036" y1="1055.54" y2="1055.54"/>
  <g id="H-reference" style="fill:#27AAE1;stroke:none;" transform="matrix(1 0 0 1 339 1556)">
   <path d="M0.993654 0L3.63775 0L29.3281-67.1323L30.0303-67.1323L30.0303-70.459L28.1226-70.459ZM11.6885-24.4799L46.9815-24.4799L46.2315-26.7285L12.4385-26.7285ZM55.1196 0L57.7637 0L30.6382-70.459L29.4326-70.459L29.4326-67.1323Z"/>
  </g>
  <line id="Baseline-L" style="fill:none;stroke:#27AAE1;opacity:1;stroke-width:0.5;" x1="263" x2="3036" y1="1556" y2="1556"/>
  <line id="Capline-L" style="fill:none;stroke:#27AAE1;opacity:1;stroke-width:0.5;" x1="263" x2="3036" y1="1485.54" y2="1485.54"/>
  <line id="right-margin" style="fill:none;stroke:#00AEEF;stroke-width:0.5;opacity:1.0;" x1="1520.48" x2="1520.48" y1="1030.79" y2="1150.12"/>
  <line id="left-margin" style="fill:none;stroke:#00AEEF;stroke-width:0.5;opacity:1.0;" x1="1379.21" x2="1379.21" y1="1030.79" y2="1150.12"/>
 </g>
 <g id="Symbols">
  <g id="Black-L" transform="matrix(1 0 0 1 2836.13 1556)">
   <path d="M36.0616 11.9357L158.484 11.9357C171.019 11.9357 178.461 4.49312 178.461-8.04192L178.461-85.0266C178.461-97.5604 171.019-105.004 158.484-105.004L36.0616-105.004C23.5266-105.004 16.084-97.5604 16.084-85.0266L16.084-8.04192C16.084 4.49312 23.5266 11.9357 36.0616 11.9357ZM37.3094-22.0078C35.707-22.0078 34.8969-22.6584 34.8969-24.3996L34.8969-82.4126C34.8969-84.7749 36.3133-86.1913 38.6767-86.1913L155.869-86.1913C158.232-86.1913 159.648-84.7749 159.648-82.4126L159.648-24.3996C159.648-22.6584 158.859-22.0078 157.236-22.0078ZM74.5283 24.2969L120.038 24.2969L120.038 9.0873L74.5283 9.0873ZM74.4835 36.1313L120.083 36.1313C124.472 36.1313 127.972 32.4196 127.972 28.3018C127.972 24.1852 124.472 20.4527 120.083 20.4527L74.4835 20.4527C70.0737 20.4527 66.5736 24.1852 66.5736 28.3018C66.5736 32.4196 70.0737 36.1313 74.4835 36.1313Z"/>
  </g>
  <g id="Heavy-L" transform="matrix(1 0 0 1 2540.96 1556)">
   <path d="M34.6071 10.9607L156.844 10.9607C168.45 10.9607 175.367 4.04374 175.367-7.5624L175.367-84.3751C175.367-95.9756 168.45-102.898 156.844-102.898L34.6071-102.898C23.0009-102.898 16.084-95.9756 16.084-84.3751L16.084-7.5624C16.084 4.04374 23.0009 10.9607 34.6071 10.9607ZM35.1989-21.4282C33.5242-21.4282 32.6919-22.1053 32.6919-23.905L32.6919-82.3401C32.6919-84.8 34.1822-86.2902 36.6477-86.2902L154.804-86.2902C157.269-86.2902 158.759-84.8 158.759-82.3401L158.759-23.905C158.759-22.1053 157.957-21.4282 156.253-21.4282ZM73.6955 24.0041L117.786 24.0041L117.786 8.59468L73.6955 8.59468ZM73.553 34.6576L117.929 34.6576C121.895 34.6576 125.078 31.332 125.078 27.5584C125.078 23.7904 121.895 20.4347 117.929 20.4347L73.553 20.4347C69.5563 20.4347 66.3734 23.7904 66.3734 27.5584C66.3734 31.332 69.5563 34.6576 73.553 34.6576Z"/>
  </g>
  <g id="Bold-L" transform="matrix(1 0 0 1 2246.18 1556)">
   <path d="M32.6748 9.74679L154.928 9.74679C165.299 9.74679 171.518 3.52765 171.518-6.84398L171.518-83.7695C171.518-94.1279 165.299-100.36 154.928-100.36L32.6748-100.36C22.3031-100.36 16.084-94.1279 16.084-83.7695L16.084-6.84398C16.084 3.52765 22.3031 9.74679 32.6748 9.74679ZM32.5863-20.721C30.812-20.721 29.9417-21.4437 29.9417-23.3276L29.9417-82.3821C29.9417-84.935 31.5092-86.5026 34.0754-86.5026L153.527-86.5026C156.093-86.5026 157.661-84.935 157.661-82.3821L157.661-23.3276C157.661-21.4437 156.828-20.721 155.016-20.721ZM72.6434 23.6578L114.997 23.6578L114.997 7.92048L72.6434 7.92048ZM72.3408 32.7842L115.299 32.7842C118.721 32.7842 121.482 29.9574 121.482 26.6438C121.482 23.3435 118.721 20.4787 115.299 20.4787L72.3408 20.4787C68.8812 20.4787 66.12 23.3435 66.12 26.6438C66.12 29.9574 68.8812 32.7842 72.3408 32.7842Z"/>
  </g>
  <g id="Semibold-L" transform="matrix(1 0 0 1 1950.79 1556)">
   <path d="M31.3426 8.90995L153.606 8.90995C163.127 8.90995 168.865 3.17187 168.865-6.34871L168.865-83.352C168.865-92.8541 163.127-98.6107 153.606-98.6107L31.3426-98.6107C21.8221-98.6107 16.084-92.8541 16.084-83.352L16.084-6.34871C16.084 3.17187 21.8221 8.90995 31.3426 8.90995ZM30.7852-20.2334C28.9423-20.2334 28.0457-20.9876 28.0457-22.9295L28.0457-82.4111C28.0457-85.0282 29.6665-86.649 32.302-86.649L152.647-86.649C155.282-86.649 156.903-85.0282 156.903-82.4111L156.903-22.9295C156.903-20.9876 156.05-20.2334 154.164-20.2334ZM71.9181 23.4191L113.074 23.4191L113.074 7.45569L71.9181 7.45569ZM71.5051 31.4927L113.487 31.4927C116.533 31.4927 119.003 29.0098 119.003 26.0133C119.003 23.0353 116.533 20.5091 113.487 20.5091L71.5051 20.5091C68.4158 20.5091 65.9453 23.0353 65.9453 26.0133C65.9453 29.0098 68.4158 31.4927 71.5051 31.4927Z"/>
  </g>
  <g id="Medium-L" transform="matrix(1 0 0 1 1655.09 1556)">
   <path d="M30.3326 8.27543L152.604 8.27543C161.479 8.27543 166.853 2.90209 166.853-5.97317L166.853-83.0354C166.853-91.8882 161.479-97.284 152.604-97.284L30.3326-97.284C21.4573-97.284 16.084-91.8882 16.084-83.0354L16.084-5.97317C16.084 2.90209 21.4573 8.27543 30.3326 8.27543ZM29.4195-19.8637C27.5245-19.8637 26.608-20.6418 26.608-22.6277L26.608-82.433C26.608-85.0988 28.2693-86.76 30.9574-86.76L151.979-86.76C154.667-86.76 156.329-85.0988 156.329-82.433L156.329-22.6277C156.329-20.6418 155.46-19.8637 153.517-19.8637ZM71.3682 23.2381L111.616 23.2381L111.616 7.10327L71.3682 7.10327ZM70.8715 30.5134L112.113 30.5134C114.874 30.5134 117.124 28.2913 117.124 25.5352C117.124 22.8017 114.874 20.5321 112.113 20.5321L70.8715 20.5321C68.0629 20.5321 65.8129 22.8017 65.8129 25.5352C65.8129 28.2913 68.0629 30.5134 70.8715 30.5134Z"/>
  </g>
  <g id="Regular-L" transform="matrix(1 0 0 1 1359.69 1556)">
   <path d="M29.0151 7.44779L151.297 7.44779C159.331 7.44779 164.228 2.55022 164.228-5.48334L164.228-82.6225C164.228-90.6284 159.331-95.5536 151.297-95.5536L29.0151-95.5536C20.9816-95.5536 16.084-90.6284 16.084-82.6225L16.084-5.48334C16.084 2.55022 20.9816 7.44779 29.0151 7.44779ZM27.6382-19.3815C25.6753-19.3815 24.7328-20.1908 24.7328-22.234L24.7328-82.4617C24.7328-85.1909 26.4468-86.9048 29.2036-86.9048L151.109-86.9048C153.865-86.9048 155.579-85.1909 155.579-82.4617L155.579-22.234C155.579-20.1908 154.69-19.3815 152.674-19.3815ZM70.6509 23.002L109.714 23.002L109.714 6.64359L70.6509 6.64359ZM70.045 29.2361L110.32 29.2361C112.71 29.2361 114.672 27.3541 114.672 24.9117C114.672 22.4969 112.71 20.5621 110.32 20.5621L70.045 20.5621C67.6026 20.5621 65.6401 22.4969 65.6401 24.9117C65.6401 27.3541 67.6026 29.2361 70.045 29.2361Z"/>
  </g>
  <g id="Light-L" transform="matrix(1 0 0 1 1064.36 1556)">
   <path d="M26.8394 6.56987L150.705 6.56987C157.346 6.56987 161.461 2.45479 161.461-4.18554L161.461-83.5004C161.461-90.094 157.346-94.2558 150.705-94.2558L26.8394-94.2558C20.1991-94.2558 16.084-90.094 16.084-83.5004L16.084-4.18554C16.084 2.45479 20.1991 6.56987 26.8394 6.56987ZM25.8441-18.9616C23.7477-18.9616 22.7098-19.8854 22.7098-22.0623L22.7098-83.3396C22.7098-85.9543 24.3856-87.63 27.047-87.63L150.498-87.63C153.159-87.63 154.835-85.9543 154.835-83.3396L154.835-22.0623C154.835-19.8854 153.831-18.9616 151.701-18.9616ZM69.792 22.8684L107.787 22.8684L107.787 5.76567L69.792 5.76567ZM68.8235 27.6329L108.755 27.6329C110.629 27.6329 112.115 26.228 112.115 24.32C112.115 22.4587 110.629 21.0202 108.755 21.0202L68.8235 21.0202C66.9155 21.0202 65.4302 22.4587 65.4302 24.32C65.4302 26.228 66.9155 27.6329 68.8235 27.6329Z"/>
  </g>
  <g id="Thin-L" transform="matrix(1 0 0 1 769.48 1556)">
   <path d="M23.9618 5.40874L149.923 5.40874C154.721 5.40874 157.801 2.32858 157.801-2.46909L157.801-84.6616C157.801-89.3873 154.721-92.5394 149.923-92.5394L23.9618-92.5394C19.1641-92.5394 16.084-89.3873 16.084-84.6616L16.084-2.46909C16.084 2.32858 19.1641 5.40874 23.9618 5.40874ZM23.4714-18.4063C21.1983-18.4063 20.0342-19.4815 20.0342-21.8351L20.0342-84.5007C20.0342-86.9639 21.6594-88.5892 24.1946-88.5892L149.69-88.5892C152.225-88.5892 153.851-86.9639 153.851-84.5007L153.851-21.8351C153.851-19.4815 152.695-18.4063 150.413-18.4063ZM68.6561 22.6917L105.237 22.6917L105.237 4.60454L68.6561 4.60454ZM67.208 25.5126L106.685 25.5126C107.878 25.5126 108.732 24.7388 108.732 23.5375C108.732 22.4083 107.878 21.626 106.685 21.626L67.208 21.626C66.0068 21.626 65.1525 22.4083 65.1525 23.5375C65.1525 24.7388 66.0068 25.5126 67.208 25.5126Z"/>
  </g>
  <g id="Ultralight-L" transform="matrix(1 0 0 1 473.706 1556)">
   <path d="M22.4879 4.81402L149.522 4.81402C153.376 4.81402 155.926 2.26394 155.926-1.58994L155.926-85.2563C155.926-89.0253 153.376-91.6603 149.522-91.6603L22.4879-91.6603C18.6341-91.6603 16.084-89.0253 16.084-85.2563L16.084-1.58994C16.084 2.26394 18.6341 4.81402 22.4879 4.81402ZM22.2561-18.1218C19.8925-18.1218 18.6637-19.2747 18.6637-21.7187L18.6637-85.0955C18.6637-87.4811 20.2631-89.0805 22.7337-89.0805L149.276-89.0805C151.747-89.0805 153.346-87.4811 153.346-85.0955L153.346-21.7187C153.346-19.2747 152.113-18.1218 149.754-18.1218ZM68.0743 22.6012L103.931 22.6012L103.931 4.00982L68.0743 4.00982ZM66.3806 24.4266L105.625 24.4266C106.469 24.4266 107 23.976 107 23.1367C107 22.3824 106.469 21.9363 105.625 21.9363L66.3806 21.9363C65.5413 21.9363 65.0103 22.3824 65.0103 23.1367C65.0103 23.976 65.5413 24.4266 66.3806 24.4266Z"/>
  </g>
  <g id="Black-M" transform="matrix(1 0 0 1 2856.9 1126)">
   <path d="M28.8938 2.03044L124.113 2.03044C134.434 2.03044 140.546-4.08143 140.546-14.4024L140.546-74.4882C140.546-84.8095 134.434-90.921 124.113-90.921L28.8938-90.921C18.5728-90.921 12.4609-84.8095 12.4609-74.4882L12.4609-14.4024C12.4609-4.08143 18.5728 2.03044 28.8938 2.03044ZM30.476-25.4274C29.2786-25.4274 28.657-25.9241 28.657-27.2409L28.657-71.9655C28.657-73.6963 29.6856-74.725 31.4162-74.725L121.59-74.725C123.321-74.725 124.35-73.6963 124.35-71.9655L124.35-27.2409C124.35-25.9241 123.733-25.4274 122.531-25.4274ZM58.3396 11.1217L94.6725 11.1217L94.6725-0.590983L58.3396-0.590983ZM58.3397 21.106L94.6723 21.106C98.3659 21.106 101.286 17.9633 101.286 14.5496C101.286 11.1357 98.3659 7.98744 94.6723 7.98744L58.3397 7.98744C54.6406 7.98744 51.721 11.1357 51.721 14.5496C51.721 17.9633 54.6406 21.106 58.3397 21.106Z"/>
  </g>
  <g id="Heavy-M" transform="matrix(1 0 0 1 2561.57 1126)">
   <path d="M27.6726 1.15824L122.565 1.15824C132.106 1.15824 137.776-4.51193 137.776-14.0534L137.776-73.7704C137.776-83.3095 132.106-88.982 122.565-88.982L27.6726-88.982C18.1311-88.982 12.4609-83.3095 12.4609-73.7704L12.4609-14.0534C12.4609-4.51193 18.1311 1.15824 27.6726 1.15824ZM28.5783-24.8995C27.3225-24.8995 26.6881-25.4116 26.6881-26.7732L26.6881-71.8136C26.6881-73.6504 27.7925-74.7548 29.6315-74.7548L120.606-74.7548C122.445-74.7548 123.549-73.6504 123.549-71.8136L123.549-26.7732C123.549-25.4116 122.931-24.8995 121.659-24.8995ZM57.6047 10.8478L92.649 10.8478L92.649-0.991568L57.6047-0.991568ZM57.5428 19.8133L92.7109 19.8133C96.0391 19.8133 98.6926 17.0039 98.6926 13.8775C98.6926 10.7533 96.0391 7.92754 92.7109 7.92754L57.5428 7.92754C54.1982 7.92754 51.5447 10.7533 51.5447 13.8775C51.5447 17.0039 54.1982 19.8133 57.5428 19.8133Z"/>
  </g>
  <g id="Bold-M" transform="matrix(1 0 0 1 2266.41 1126)">
   <path d="M26.3064 0.182554L120.833 0.182554C129.502 0.182554 134.679-4.99351 134.679-13.6629L134.679-72.9674C134.679-81.6317 129.502-86.8129 120.833-86.8129L26.3064-86.8129C17.637-86.8129 12.4609-81.6317 12.4609-72.9674L12.4609-13.6629C12.4609-4.99351 17.637 0.182554 26.3064 0.182554ZM26.4554-24.309C25.1344-24.309 24.4857-24.8382 24.4857-26.2501L24.4857-71.6437C24.4857-73.599 25.6748-74.7881 27.6352-74.7881L119.504-74.7881C121.465-74.7881 122.654-73.599 122.654-71.6437L122.654-26.2501C122.654-24.8382 122.034-24.309 120.684-24.309ZM56.7826 10.5413L90.3855 10.5413L90.3855-1.43968L56.7826-1.43968ZM56.6513 18.3671L90.5168 18.3671C93.4362 18.3671 95.7921 15.9308 95.7921 13.1256C95.7921 10.3255 93.4362 7.86052 90.5168 7.86052L56.6513 7.86052C53.7033 7.86052 51.3474 10.3255 51.3474 13.1256C51.3474 15.9308 53.7033 18.3671 56.6513 18.3671Z"/>
  </g>
  <g id="Semibold-M" transform="matrix(1 0 0 1 1970.76 1126)">
   <path d="M25.3646-0.490075L119.639-0.490075C127.708-0.490075 132.543-5.32551 132.543-13.3938L132.543-72.4138C132.543-80.475 127.708-85.3175 119.639-85.3175L25.3646-85.3175C17.2964-85.3175 12.4609-80.475 12.4609-72.4138L12.4609-13.3938C12.4609-5.32551 17.2964-0.490075 25.3646-0.490075ZM24.9919-23.9019C23.6259-23.9019 22.9673-24.443 22.9673-25.8894L22.9673-71.5266C22.9673-73.5635 24.2149-74.8111 26.2589-74.8111L118.745-74.8111C120.789-74.8111 122.037-73.5635 122.037-71.5266L122.037-25.8894C122.037-24.443 121.415-23.9019 120.012-23.9019ZM56.2158 10.3301L88.8251 10.3301L88.8251-1.7486L56.2158-1.7486ZM56.0367 17.3702L89.0043 17.3702C91.6417 17.3702 93.7925 15.191 93.7925 12.6072C93.7925 10.0306 91.6417 7.81432 89.0043 7.81432L56.0367 7.81432C53.3622 7.81432 51.2114 10.0306 51.2114 12.6072C51.2114 15.191 53.3622 17.3702 56.0367 17.3702Z"/>
  </g>
  <g id="Medium-M" transform="matrix(1 0 0 1 1674.86 1126)">
   <path d="M24.6505-1.00009L118.734-1.00009C126.346-1.00009 130.924-5.57724 130.924-13.1897L130.924-71.9941C130.924-79.5979 126.346-84.1836 118.734-84.1836L24.6505-84.1836C17.0381-84.1836 12.4609-79.5979 12.4609-71.9941L12.4609-13.1897C12.4609-5.57724 17.0381-1.00009 24.6505-1.00009ZM23.8822-23.5932C22.4821-23.5932 21.8161-24.1433 21.8161-25.6159L21.8161-71.4378C21.8161-73.5367 23.1079-74.8285 25.2154-74.8285L118.169-74.8285C120.277-74.8285 121.569-73.5367 121.569-71.4378L121.569-25.6159C121.569-24.1433 120.946-23.5932 119.502-23.5932ZM55.7861 10.1699L87.6419 10.1699L87.6419-1.98284L55.7861-1.98284ZM55.5707 16.6143L87.8573 16.6143C90.2811 16.6143 92.2763 14.63 92.2763 12.2142C92.2763 9.80699 90.2811 7.77929 87.8573 7.77929L55.5707 7.77929C53.1035 7.77929 51.1083 9.80699 51.1083 12.2142C51.1083 14.63 53.1035 16.6143 55.5707 16.6143Z"/>
  </g>
  <g id="Regular-M" transform="matrix(1 0 0 1 1379.21 1126)">
   <path d="M23.7191-1.66533L117.553-1.66533C124.571-1.66533 128.812-5.90559 128.812-12.9234L128.812-71.4466C128.812-78.4539 124.571-82.7047 117.553-82.7047L23.7191-82.7047C16.7012-82.7047 12.4609-78.4539 12.4609-71.4466L12.4609-12.9234C12.4609-5.90559 16.7012-1.66533 23.7191-1.66533ZM22.4348-23.1906C20.9902-23.1906 20.3144-23.7524 20.3144-25.2592L20.3144-71.322C20.3144-73.5016 21.664-74.8512 23.8542-74.8512L117.418-74.8512C119.608-74.8512 120.958-73.5016 120.958-71.322L120.958-25.2592C120.958-23.7524 120.334-23.1906 118.838-23.1906ZM55.2256 9.96101L86.0986 9.96101L86.0986-2.28838L55.2256-2.28838ZM54.9628 15.6283L86.3614 15.6283C88.5064 15.6283 90.2987 13.8983 90.2987 11.7015C90.2987 9.51532 88.5064 7.7336 86.3614 7.7336L54.9628 7.7336C52.7661 7.7336 50.9738 9.51532 50.9738 11.7015C50.9738 13.8983 52.7661 15.6283 54.9628 15.6283Z"/>
  </g>
  <g id="Light-M" transform="matrix(1 0 0 1 1083.74 1126)">
   <path d="M21.7684-2.45243L117.023-2.45243C122.792-2.45243 126.33-5.99114 126.33-11.7599L126.33-72.2337C126.33-77.9748 122.792-81.5412 117.023-81.5412L21.7684-81.5412C15.9996-81.5412 12.4609-77.9748 12.4609-72.2337L12.4609-11.7599C12.4609-5.99114 15.9996-2.45243 21.7684-2.45243ZM20.8263-22.8142C19.262-22.8142 18.5006-23.4786 18.5006-25.1052L18.5006-72.1091C18.5006-74.1861 19.816-75.5014 21.9207-75.5014L116.871-75.5014C118.975-75.5014 120.291-74.1861 120.291-72.1091L120.291-25.1052C120.291-23.4786 119.564-22.8142 117.965-22.8142ZM54.4556 9.84123L84.3704 9.84123L84.3704-3.07548L54.4556-3.07548ZM53.8677 14.1909L84.9583 14.1909C86.6413 14.1909 88.0058 12.8887 88.0058 11.1711C88.0058 9.4811 86.6413 8.14426 84.9583 8.14426L53.8677 8.14426C52.1501 8.14426 50.7856 9.4811 50.7856 11.1711C50.7856 12.8887 52.1501 14.1909 53.8677 14.1909Z"/>
  </g>
  <g id="Thin-M" transform="matrix(1 0 0 1 788.667 1126)">
   <path d="M19.1885-3.49344L116.321-3.49344C120.438-3.49344 123.049-6.10429 123.049-10.221L123.049-73.2747C123.049-77.3411 120.438-80.0023 116.321-80.0023L19.1885-80.0023C15.0718-80.0023 12.4609-77.3411 12.4609-73.2747L12.4609-10.221C12.4609-6.10429 15.0718-3.49344 19.1885-3.49344ZM18.6991-22.3163C16.9763-22.3163 16.1018-23.1165 16.1018-24.9016L16.1018-73.1501C16.1018-75.0913 17.3719-76.3614 19.3634-76.3614L116.146-76.3614C118.138-76.3614 119.408-75.0913 119.408-73.1501L119.408-24.9016C119.408-23.1165 118.546-22.3163 116.811-22.3163ZM53.4372 9.68282L82.0847 9.68282L82.0847-4.11649L53.4372-4.11649ZM52.4194 12.29L83.1026 12.29C84.1746 12.29 84.9733 11.5535 84.9733 10.4695C84.9733 9.43584 84.1746 8.68739 83.1026 8.68739L52.4194 8.68739C51.3354 8.68739 50.5366 9.43584 50.5366 10.4695C50.5366 11.5535 51.3354 12.29 52.4194 12.29Z"/>
  </g>
  <g id="Ultralight-M" transform="matrix(1 0 0 1 492.797 1126)">
   <path d="M17.8671-4.02664L115.962-4.02664C119.233-4.02664 121.368-6.16225 121.368-9.43282L121.368-73.8079C121.368-77.0166 119.233-79.2141 115.962-79.2141L17.8671-79.2141C14.5966-79.2141 12.4609-77.0166 12.4609-73.8079L12.4609-9.43282C12.4609-6.16225 14.5966-4.02664 17.8671-4.02664ZM17.6095-22.0613C15.8056-22.0613 14.8731-22.931 14.8731-24.7972L14.8731-73.6833C14.8731-75.5549 16.1201-76.8019 18.0536-76.8019L115.776-76.8019C117.709-76.8019 118.956-75.5549 118.956-73.6833L118.956-24.7972C118.956-22.931 118.024-22.0613 116.22-22.0613ZM52.9156 9.60168L80.914 9.60168L80.914-4.64968L52.9156-4.64968ZM51.6775 11.3163L82.1521 11.3163C82.9111 11.3163 83.4201 10.8697 83.4201 10.1102C83.4201 9.41266 82.9111 8.96558 82.1521 8.96558L51.6775 8.96558C50.9181 8.96558 50.4091 9.41266 50.4091 10.1102C50.4091 10.8697 50.9181 11.3163 51.6775 11.3163Z"/>
  </g>
  <g id="Black-S" transform="matrix(1 0 0 1 2873.1 696)">
   <path d="M22.9004-5.81055L97.7051-5.81055C105.957-5.81055 110.84-10.6934 110.84-18.9453L110.84-66.2598C110.84-74.5117 105.957-79.3945 97.7051-79.3945L22.9004-79.3945C14.6484-79.3945 9.76562-74.5117 9.76562-66.2598L9.76562-18.9453C9.76562-10.6934 14.6484-5.81055 22.9004-5.81055ZM24.3652-27.6855C23.4375-27.6855 22.9492-28.0762 22.9492-29.1016L22.9492-64.1113C22.9492-65.4297 23.7305-66.2109 25.0488-66.2109L95.5566-66.2109C96.875-66.2109 97.6562-65.4297 97.6562-64.1113L97.6562-29.1016C97.6562-28.0762 97.168-27.6855 96.2402-27.6855ZM45.8984 1.17188L74.707 1.17188L74.707-8.00781L45.8984-8.00781ZM45.8984 9.22852L74.707 9.22852C77.6855 9.22852 80.0293 6.68945 80.0293 3.95508C80.0293 1.2207 77.6855-1.31836 74.707-1.31836L45.8984-1.31836C42.9199-1.31836 40.5762 1.2207 40.5762 3.95508C40.5762 6.68945 42.9199 9.22852 45.8984 9.22852Z"/>
  </g>
  <g id="Heavy-S" transform="matrix(1 0 0 1 2577.41 696)">
   <path d="M22.1052-6.45592L96.4489-6.45592C104.194-6.45592 108.788-11.0506 108.788-18.7955L108.788-65.5452C108.788-73.2901 104.194-77.8848 96.4489-77.8848L22.1052-77.8848C14.3603-77.8848 9.76562-73.2901 9.76562-65.5452L9.76562-18.7955C9.76562-11.0506 14.3603-6.45592 22.1052-6.45592ZM22.9477-27.2822C21.9854-27.2822 21.4971-27.6728 21.4971-28.7213L21.4971-63.8808C21.4971-65.3029 22.3475-66.1533 23.7696-66.1533L94.7845-66.1533C96.2066-66.1533 97.057-65.3029 97.057-63.8808L97.057-28.7213C97.057-27.6728 96.5802-27.2822 95.6064-27.2822ZM45.3683 0.95291L73.1973 0.95291L73.1973-8.24983L45.3683-8.24983ZM45.3568 8.30656L73.2089 8.30656C75.9338 8.30656 78.1047 5.99799 78.1047 3.448C78.1047 0.898018 75.9338-1.42208 73.2089-1.42208L45.3568-1.42208C42.6203-1.42208 40.4494 0.898018 40.4494 3.448C40.4494 5.99799 42.6203 8.30656 45.3568 8.30656Z"/>
  </g>
  <g id="Bold-S" transform="matrix(1 0 0 1 2281.85 696)">
   <path d="M21.2158-7.17773L95.0439-7.17773C102.222-7.17773 106.494-11.4502 106.494-18.6279L106.494-64.7461C106.494-71.9238 102.222-76.1963 95.0439-76.1963L21.2158-76.1963C14.0381-76.1963 9.76562-71.9238 9.76562-64.7461L9.76562-18.6279C9.76562-11.4502 14.0381-7.17773 21.2158-7.17773ZM21.3623-26.8311C20.3613-26.8311 19.873-27.2217 19.873-28.2959L19.873-63.623C19.873-65.1611 20.8008-66.0889 22.3389-66.0889L93.9209-66.0889C95.459-66.0889 96.3867-65.1611 96.3867-63.623L96.3867-28.2959C96.3867-27.2217 95.9229-26.8311 94.8975-26.8311ZM44.7754 0.708008L71.5088 0.708008L71.5088-8.52051L44.7754-8.52051ZM44.751 7.27539L71.5332 7.27539C73.9746 7.27539 75.9521 5.22461 75.9521 2.88086C75.9521 0.537109 73.9746-1.53809 71.5332-1.53809L44.751-1.53809C42.2852-1.53809 40.3076 0.537109 40.3076 2.88086C40.3076 5.22461 42.2852 7.27539 44.751 7.27539Z"/>
  </g>
  <g id="Semibold-S" transform="matrix(1 0 0 1 1985.93 696)">
   <path d="M20.6026-7.67539L94.0753-7.67539C100.862-7.67539 104.912-11.7257 104.912-18.5124L104.912-64.1951C104.912-70.9818 100.862-75.0321 94.0753-75.0321L20.6026-75.0321C13.8159-75.0321 9.76562-70.9818 9.76562-64.1951L9.76562-18.5124C9.76562-11.7257 13.8159-7.67539 20.6026-7.67539ZM20.2692-26.52C19.2416-26.52 18.7533-26.9106 18.7533-28.0026L18.7533-63.4453C18.7533-65.0634 19.7344-66.0444 21.3524-66.0444L93.3255-66.0444C94.9436-66.0444 95.9246-65.0634 95.9246-63.4453L95.9246-28.0026C95.9246-26.9106 95.4696-26.52 94.4087-26.52ZM44.3666 0.53916L70.3446 0.53916L70.3446-8.70713L44.3666-8.70713ZM44.3333 6.56445L70.3779 6.56445C72.6238 6.56445 74.4681 4.69141 74.4681 2.48984C74.4681 0.288281 72.6238-1.61807 70.3779-1.61807L44.3333-1.61807C42.0541-1.61807 40.2099 0.288281 40.2099 2.48984C40.2099 4.69141 42.0541 6.56445 44.3333 6.56445Z"/>
  </g>
  <g id="Medium-S" transform="matrix(1 0 0 1 1689.82 696)">
   <path d="M20.1377-8.05273L93.3408-8.05273C99.8311-8.05273 103.713-11.9346 103.713-18.4248L103.713-63.7773C103.713-70.2676 99.8311-74.1494 93.3408-74.1494L20.1377-74.1494C13.6475-74.1494 9.76562-70.2676 9.76562-63.7773L9.76562-18.4248C9.76562-11.9346 13.6475-8.05273 20.1377-8.05273ZM19.4404-26.2842C18.3926-26.2842 17.9043-26.6748 17.9043-27.7803L17.9043-63.3105C17.9043-64.9893 18.9258-66.0107 20.6045-66.0107L92.874-66.0107C94.5527-66.0107 95.5742-64.9893 95.5742-63.3105L95.5742-27.7803C95.5742-26.6748 95.126-26.2842 94.0381-26.2842ZM44.0566 0.411133L69.4619 0.411133L69.4619-8.84863L44.0566-8.84863ZM44.0166 6.02539L69.502 6.02539C71.5996 6.02539 73.3428 4.28711 73.3428 2.19336C73.3428 0.0996094 71.5996-1.67871 69.502-1.67871L44.0166-1.67871C41.8789-1.67871 40.1357 0.0996094 40.1357 2.19336C40.1357 4.28711 41.8789 6.02539 44.0166 6.02539Z"/>
  </g>
  <g id="Regular-S" transform="matrix(1 0 0 1 1393.89 696)">
   <path d="M19.5312-8.54492L92.3828-8.54492C98.4863-8.54492 102.148-12.207 102.148-18.3105L102.148-63.2324C102.148-69.3359 98.4863-72.998 92.3828-72.998L19.5312-72.998C13.4277-72.998 9.76562-69.3359 9.76562-63.2324L9.76562-18.3105C9.76562-12.207 13.4277-8.54492 19.5312-8.54492ZM18.3594-25.9766C17.2852-25.9766 16.7969-26.3672 16.7969-27.4902L16.7969-63.1348C16.7969-64.8926 17.8711-65.9668 19.6289-65.9668L92.2852-65.9668C94.043-65.9668 95.1172-64.8926 95.1172-63.1348L95.1172-27.4902C95.1172-26.3672 94.6777-25.9766 93.5547-25.9766ZM43.6523 0.244141L68.3105 0.244141L68.3105-9.0332L43.6523-9.0332ZM43.6035 5.32227L68.3594 5.32227C70.2637 5.32227 71.875 3.75977 71.875 1.80664C71.875-0.146484 70.2637-1.75781 68.3594-1.75781L43.6035-1.75781C41.6504-1.75781 40.0391-0.146484 40.0391 1.80664C40.0391 3.75977 41.6504 5.32227 43.6035 5.32227Z"/>
  </g>
  <g id="Light-S" transform="matrix(1 0 0 1 1098.27 696)">
   <path d="M17.8057-9.24121L91.9136-9.24121C96.9121-9.24121 99.9536-12.2827 99.9536-17.2813L99.9536-63.9287C99.9536-68.9121 96.9121-71.9688 91.9136-71.9688L17.8057-71.9688C12.8071-71.9688 9.76562-68.9121 9.76562-63.9287L9.76562-17.2813C9.76562-12.2827 12.8071-9.24121 17.8057-9.24121ZM16.9365-25.6436C15.7564-25.6436 15.1924-26.125 15.1924-27.354L15.1924-63.831C15.1924-65.498 16.2363-66.542 17.9185-66.542L91.8008-66.542C93.4829-66.542 94.5269-65.498 94.5269-63.831L94.5269-27.354C94.5269-26.125 93.9966-25.6436 92.7827-25.6436ZM42.9712 0.138184L66.7818 0.138184L66.7818-9.72949L42.9712-9.72949ZM42.6348 4.05079L67.1182 4.05079C68.6138 4.05079 69.8467 2.86671 69.8467 1.33741C69.8467-0.176758 68.6138-1.39453 67.1182-1.39453L42.6348-1.39453C41.1055-1.39453 39.8726-0.176758 39.8726 1.33741C39.8726 2.86671 41.1055 4.05079 42.6348 4.05079Z"/>
  </g>
  <g id="Thin-S" transform="matrix(1 0 0 1 803.014 696)">
   <path d="M15.5235-10.1621L91.293-10.1621C94.8301-10.1621 97.0508-12.3828 97.0508-15.9199L97.0508-64.8496C97.0508-68.3516 94.8301-70.6074 91.293-70.6074L15.5235-70.6074C11.9863-70.6074 9.76562-68.3516 9.76562-64.8496L9.76562-15.9199C9.76562-12.3828 11.9863-10.1621 15.5235-10.1621ZM15.0547-25.2031C13.7344-25.2031 13.0703-25.8047 13.0703-27.1738L13.0703-64.7519C13.0703-66.2988 14.0742-67.3027 15.6563-67.3027L91.1602-67.3027C92.7422-67.3027 93.7461-66.2988 93.7461-64.7519L93.7461-27.1738C93.7461-25.8047 93.0957-25.2031 91.7617-25.2031ZM42.0703-0.00195119L64.7598-0.00195119L64.7598-10.6504L42.0703-10.6504ZM41.3535 2.36916L65.4766 2.36916C66.4317 2.36916 67.1641 1.68556 67.1641 0.716805C67.1641-0.216796 66.4317-0.914069 65.4766-0.914069L41.3535-0.914069C40.3848-0.914069 39.6523-0.216796 39.6523 0.716805C39.6523 1.68556 40.3848 2.36916 41.3535 2.36916Z"/>
  </g>
  <g id="Ultralight-S" transform="matrix(1 0 0 1 507.046 696)">
   <path d="M14.3545-10.6338L90.9751-10.6338C93.7637-10.6338 95.564-12.4341 95.564-15.2227L95.564-65.3213C95.564-68.0645 93.7637-69.9102 90.9751-69.9102L14.3545-69.9102C11.5659-69.9102 9.76562-68.0645 9.76562-65.3213L9.76562-15.2227C9.76562-12.4341 11.5659-10.6338 14.3545-10.6338ZM14.0909-24.9775C12.6988-24.9775 11.9834-25.6406 11.9834-27.0815L11.9834-65.2236C11.9834-66.709 12.9668-67.6924 14.4976-67.6924L90.832-67.6924C92.3628-67.6924 93.3462-66.709 93.3462-65.2236L93.3462-27.0815C93.3462-25.6406 92.6343-24.9775 91.2388-24.9775ZM41.6089-0.073728L63.7242-0.073728L63.7242-11.1221L41.6089-11.1221ZM40.6973 1.50784L64.6358 1.50784C65.314 1.50784 65.7901 1.08059 65.7901 0.398937C65.7901-0.237304 65.314-0.667977 64.6358-0.667977L40.6973-0.667977C40.0156-0.667977 39.5396-0.237304 39.5396 0.398937C39.5396 1.08059 40.0156 1.50784 40.6973 1.50784Z"/>
  </g>
 </g>
</svg>
