<?xml version="1.0" encoding="UTF-8"?>
<!--Generator: Apple Native CoreSVG 341-->
<!DOCTYPE svg
PUBLIC "-//W3C//DTD SVG 1.1//EN"
       "http://www.w3.org/Graphics/SVG/1.1/DTD/svg11.dtd">
<svg version="1.1" xmlns="http://www.w3.org/2000/svg" xmlns:xlink="http://www.w3.org/1999/xlink" viewBox="0 0 3300 2200">
 <g id="Notes">
  <rect height="2200" id="artboard" style="fill:white;opacity:1" width="3300" x="0" y="0"/>
  <line style="fill:none;stroke:black;opacity:1;stroke-width:0.5;" x1="263" x2="3036" y1="292" y2="292"/>
  <text style="stroke:none;fill:black;font-family:sans-serif;font-size:13;font-weight:bold;" transform="matrix(1 0 0 1 263 322)">Weight/Scale Variations</text>
  <text style="stroke:none;fill:black;font-family:sans-serif;font-size:13;text-anchor:middle;" transform="matrix(1 0 0 1 559.711 322)">Ultralight</text>
  <text style="stroke:none;fill:black;font-family:sans-serif;font-size:13;text-anchor:middle;" transform="matrix(1 0 0 1 856.422 322)">Thin</text>
  <text style="stroke:none;fill:black;font-family:sans-serif;font-size:13;text-anchor:middle;" transform="matrix(1 0 0 1 1153.13 322)">Light</text>
  <text style="stroke:none;fill:black;font-family:sans-serif;font-size:13;text-anchor:middle;" transform="matrix(1 0 0 1 1449.84 322)">Regular</text>
  <text style="stroke:none;fill:black;font-family:sans-serif;font-size:13;text-anchor:middle;" transform="matrix(1 0 0 1 1746.56 322)">Medium</text>
  <text style="stroke:none;fill:black;font-family:sans-serif;font-size:13;text-anchor:middle;" transform="matrix(1 0 0 1 2043.27 322)">Semibold</text>
  <text style="stroke:none;fill:black;font-family:sans-serif;font-size:13;text-anchor:middle;" transform="matrix(1 0 0 1 2339.98 322)">Bold</text>
  <text style="stroke:none;fill:black;font-family:sans-serif;font-size:13;text-anchor:middle;" transform="matrix(1 0 0 1 2636.69 322)">Heavy</text>
  <text style="stroke:none;fill:black;font-family:sans-serif;font-size:13;text-anchor:middle;" transform="matrix(1 0 0 1 2933.4 322)">Black</text>
  <line style="fill:none;stroke:black;opacity:1;stroke-width:0.5;" x1="263" x2="3036" y1="1903" y2="1903"/>
  <g transform="matrix(0.2 0 0 0.2 263 1933)">
   <path d="m46.2402 4.15039c21.7773 0 39.4531-17.627 39.4531-39.4043s-17.6758-39.4043-39.4531-39.4043c-21.7285 0-39.4043 17.627-39.4043 39.4043s17.6758 39.4043 39.4043 39.4043Zm0-7.42188c-17.6758 0-31.9336-14.3066-31.9336-31.9824s14.2578-31.9824 31.9336-31.9824 31.9824 14.3066 31.9824 31.9824-14.3066 31.9824-31.9824 31.9824Zm3.61328-17.7734v-28.4668c0-2.24609-1.46484-3.75977-3.71094-3.75977-2.14844 0-3.61328 1.51367-3.61328 3.75977v28.4668c0 2.19727 1.46484 3.71094 3.61328 3.71094 2.24609 0 3.71094-1.51367 3.71094-3.71094Zm-17.8223-10.5957h28.418c2.19727 0 3.71094-1.46484 3.71094-3.61328 0-2.19727-1.51367-3.71094-3.71094-3.71094h-28.418c-2.24609 0-3.75977 1.51367-3.75977 3.71094 0 2.14844 1.51367 3.61328 3.75977 3.61328Z"/>
  </g>
  <g transform="matrix(0.2 0 0 0.2 281.506 1933)">
   <path d="m58.5449 14.5508c27.4902 0 49.8047-22.3145 49.8047-49.8047s-22.3145-49.8047-49.8047-49.8047-49.8047 22.3145-49.8047 49.8047 22.3145 49.8047 49.8047 49.8047Zm0-8.30078c-22.9492 0-41.5039-18.5547-41.5039-41.5039s18.5547-41.5039 41.5039-41.5039 41.5039 18.5547 41.5039 41.5039-18.5547 41.5039-41.5039 41.5039Zm4.05273-23.0957v-36.9141c0-2.49023-1.70898-4.19922-4.15039-4.19922-2.39258 0-4.05273 1.70898-4.05273 4.19922v36.9141c0 2.44141 1.66016 4.15039 4.05273 4.15039 2.44141 0 4.15039-1.66016 4.15039-4.15039Zm-22.5586-14.4043h36.9629c2.44141 0 4.15039-1.61133 4.15039-4.00391 0-2.44141-1.70898-4.15039-4.15039-4.15039h-36.9629c-2.49023 0-4.15039 1.70898-4.15039 4.15039 0 2.39258 1.66016 4.00391 4.15039 4.00391Z"/>
  </g>
  <g transform="matrix(0.2 0 0 0.2 304.924 1933)">
   <path d="m74.8535 28.3203c35.1074 0 63.623-28.4668 63.623-63.5742s-28.5156-63.623-63.623-63.623-63.5742 28.5156-63.5742 63.623 28.4668 63.5742 63.5742 63.5742Zm0-9.08203c-30.127 0-54.4922-24.3652-54.4922-54.4922s24.3652-54.4922 54.4922-54.4922 54.4922 24.3652 54.4922 54.4922-24.3652 54.4922-54.4922 54.4922Zm4.44336-30.3223v-48.4863c0-2.73438-1.85547-4.63867-4.54102-4.63867-2.58789 0-4.44336 1.9043-4.44336 4.63867v48.4863c0 2.68555 1.85547 4.58984 4.44336 4.58984 2.68555 0 4.54102-1.85547 4.54102-4.58984Zm-28.7109-19.7754h48.4863c2.68555 0 4.58984-1.80664 4.58984-4.39453 0-2.73438-1.85547-4.58984-4.58984-4.58984h-48.4863c-2.73438 0-4.58984 1.85547-4.58984 4.58984 0 2.58789 1.85547 4.39453 4.58984 4.39453Z"/>
  </g>
  <text style="stroke:none;fill:black;font-family:sans-serif;font-size:13;font-weight:bold;" transform="matrix(1 0 0 1 263 1953)">Design Variations</text>
  <text style="stroke:none;fill:black;font-family:sans-serif;font-size:13;" transform="matrix(1 0 0 1 263 1971)">Symbols are supported in up to nine weights and three scales.</text>
  <text style="stroke:none;fill:black;font-family:sans-serif;font-size:13;" transform="matrix(1 0 0 1 263 1989)">For optimal layout with text and other symbols, vertically align</text>
  <text style="stroke:none;fill:black;font-family:sans-serif;font-size:13;" transform="matrix(1 0 0 1 263 2007)">symbols with the adjacent text.</text>
  <line style="fill:none;stroke:#00AEEF;stroke-width:0.5;opacity:1.0;" x1="776" x2="776" y1="1919" y2="1933"/>
  <g transform="matrix(0.2 0 0 0.2 776 1933)">
   <path d="m16.5527 0.78125c2.58789 0 3.85742-0.976562 4.78516-3.71094l20.5566-57.5195h0.244141l20.6055 57.5195c0.927734 2.73438 2.19727 3.71094 4.73633 3.71094 2.58789 0 4.24805-1.5625 4.24805-4.00391 0-0.830078-0.146484-1.61133-0.537109-2.63672l-22.9004-60.9863c-1.12305-2.97852-3.125-4.49219-6.25-4.49219-3.02734 0-5.07812 1.46484-6.15234 4.44336l-22.9004 61.084c-0.390625 1.02539-0.537109 1.80664-0.537109 2.63672 0 2.44141 1.5625 3.95508 4.10156 3.95508Zm10.2051-20.9473h30.6641c2.00195 0 3.66211-1.66016 3.66211-3.66211 0-2.05078-1.66016-3.66211-3.66211-3.66211h-30.6641c-2.00195 0-3.66211 1.61133-3.66211 3.66211 0 2.00195 1.66016 3.66211 3.66211 3.66211Z"/>
  </g>
  <line style="fill:none;stroke:#00AEEF;stroke-width:0.5;opacity:1.0;" x1="792.836" x2="792.836" y1="1919" y2="1933"/>
  <text style="stroke:none;fill:black;font-family:sans-serif;font-size:13;font-weight:bold;" transform="matrix(1 0 0 1 776 1953)">Margins</text>
  <text style="stroke:none;fill:black;font-family:sans-serif;font-size:13;" transform="matrix(1 0 0 1 776 1971)">Leading and trailing margins on the left and right side of each symbol</text>
  <text style="stroke:none;fill:black;font-family:sans-serif;font-size:13;" transform="matrix(1 0 0 1 776 1989)">can be adjusted by modifying the x-location of the margin guidelines.</text>
  <text style="stroke:none;fill:black;font-family:sans-serif;font-size:13;" transform="matrix(1 0 0 1 776 2007)">Modifications are automatically applied proportionally to all</text>
  <text style="stroke:none;fill:black;font-family:sans-serif;font-size:13;" transform="matrix(1 0 0 1 776 2025)">scales and weights.</text>
  <g transform="matrix(0.2 0 0 0.2 1289 1933)">
   <path d="m14.209 13.1348 7.86133 7.86133c4.29688 4.39453 9.32617 4.10156 13.8672-1.02539l60.6934-68.2129-4.88281-4.88281-60.2539 67.6758c-1.80664 1.95312-3.4668 2.44141-5.81055 0.0976562l-5.17578-5.12695c-2.29492-2.29492-1.80664-3.95508 0.195312-5.81055l67.4805-62.1582-4.88281-4.83398-68.0664 62.5977c-4.98047 4.58984-5.32227 9.47266-1.02539 13.8184Zm44.873-97.4609c-2.05078 2.00195-2.24609 4.88281-1.07422 6.78711 1.12305 1.80664 3.4668 3.02734 6.5918 2.24609 5.85938-1.66016 12.5977-2.39258 18.8965 0.927734l-2.68555 7.12891c-1.61133 4.00391-0.732422 6.88477 1.70898 9.42383l10.2539 10.3027c2.34375 2.39258 4.54102 2.44141 7.08008 1.95312l4.44336-0.732422 2.58789 2.53906-0.195312 2.24609c-0.0976562 2.29492 0.537109 4.29688 2.7832 6.49414l3.36914 3.32031c2.29492 2.29492 5.51758 2.49023 7.8125 0.195312l12.9883-13.0371c2.29492-2.34375 2.14844-5.37109-0.195312-7.66602l-3.41797-3.41797c-2.19727-2.19727-4.05273-3.02734-6.34766-2.88086l-2.34375 0.244141-2.44141-2.44141 1.02539-4.6875c0.634766-2.73438-0.244141-4.98047-2.88086-7.61719l-11.2793-11.1816c-12.9395-12.8418-35.5957-11.0352-46.6797-0.146484Zm7.08008 2.05078c8.78906-6.39648 25.9766-5.66406 33.6914 1.95312l12.3047 12.207c1.02539 1.02539 1.2207 1.80664 0.927734 3.32031l-1.46484 6.64062 6.73828 6.68945 4.39453-0.244141c1.12305-0.0488281 1.51367 0.0488281 2.34375 0.878906l2.53906 2.49023-10.8398 10.8398-2.49023-2.49023c-0.830078-0.878906-0.976562-1.2207-0.927734-2.39258l0.292969-4.3457-6.68945-6.73828-6.83594 1.17188c-1.41602 0.292969-2.05078 0.195312-3.17383-0.878906l-8.93555-8.88672c-1.07422-1.02539-1.17188-1.70898-0.488281-3.36914l4.58984-11.4746c-6.10352-6.34766-17.041-7.51953-25.5859-4.58984-0.683594 0.244141-0.927734-0.390625-0.390625-0.78125Z"/>
  </g>
  <text style="stroke:none;fill:black;font-family:sans-serif;font-size:13;font-weight:bold;" transform="matrix(1 0 0 1 1289 1953)">Exporting</text>
  <text style="stroke:none;fill:black;font-family:sans-serif;font-size:13;" transform="matrix(1 0 0 1 1289 1971)">Symbols should be outlined when exporting to ensure the</text>
  <text style="stroke:none;fill:black;font-family:sans-serif;font-size:13;" transform="matrix(1 0 0 1 1289 1989)">design is preserved when submitting to Xcode.</text>
  <text id="template-version" style="stroke:none;fill:black;font-family:sans-serif;font-size:13;text-anchor:end;" transform="matrix(1 0 0 1 3036 1933)">Template v.2.0</text>
  <text style="stroke:none;fill:black;font-family:sans-serif;font-size:13;text-anchor:end;" transform="matrix(1 0 0 1 3036 1951)">Requires Xcode 12 or greater</text>
  <text id="descriptive-name" style="stroke:none;fill:black;font-family:sans-serif;font-size:13;text-anchor:end;" transform="matrix(1 0 0 1 3036 1969)">Generated from photo.on.rectangle</text>
  <text style="stroke:none;fill:black;font-family:sans-serif;font-size:13;text-anchor:end;" transform="matrix(1 0 0 1 3036 1987)">Typeset at 100.0 points</text>
  <text style="stroke:none;fill:black;font-family:sans-serif;font-size:13;" transform="matrix(1 0 0 1 263 726)">Small</text>
  <text style="stroke:none;fill:black;font-family:sans-serif;font-size:13;" transform="matrix(1 0 0 1 263 1156)">Medium</text>
  <text style="stroke:none;fill:black;font-family:sans-serif;font-size:13;" transform="matrix(1 0 0 1 263 1586)">Large</text>
 </g>
 <g id="Guides">
  <g id="H-reference" style="fill:#27AAE1;stroke:none;" transform="matrix(1 0 0 1 339 696)">
   <path d="M0.993654 0L3.63775 0L29.3281-67.1323L30.0303-67.1323L30.0303-70.459L28.1226-70.459ZM11.6885-24.4799L46.9815-24.4799L46.2315-26.7285L12.4385-26.7285ZM55.1196 0L57.7637 0L30.6382-70.459L29.4326-70.459L29.4326-67.1323Z"/>
  </g>
  <line id="Baseline-S" style="fill:none;stroke:#27AAE1;opacity:1;stroke-width:0.5;" x1="263" x2="3036" y1="696" y2="696"/>
  <line id="Capline-S" style="fill:none;stroke:#27AAE1;opacity:1;stroke-width:0.5;" x1="263" x2="3036" y1="625.541" y2="625.541"/>
  <g id="H-reference" style="fill:#27AAE1;stroke:none;" transform="matrix(1 0 0 1 339 1126)">
   <path d="M0.993654 0L3.63775 0L29.3281-67.1323L30.0303-67.1323L30.0303-70.459L28.1226-70.459ZM11.6885-24.4799L46.9815-24.4799L46.2315-26.7285L12.4385-26.7285ZM55.1196 0L57.7637 0L30.6382-70.459L29.4326-70.459L29.4326-67.1323Z"/>
  </g>
  <line id="Baseline-M" style="fill:none;stroke:#27AAE1;opacity:1;stroke-width:0.5;" x1="263" x2="3036" y1="1126" y2="1126"/>
  <line id="Capline-M" style="fill:none;stroke:#27AAE1;opacity:1;stroke-width:0.5;" x1="263" x2="3036" y1="1055.54" y2="1055.54"/>
  <g id="H-reference" style="fill:#27AAE1;stroke:none;" transform="matrix(1 0 0 1 339 1556)">
   <path d="M0.993654 0L3.63775 0L29.3281-67.1323L30.0303-67.1323L30.0303-70.459L28.1226-70.459ZM11.6885-24.4799L46.9815-24.4799L46.2315-26.7285L12.4385-26.7285ZM55.1196 0L57.7637 0L30.6382-70.459L29.4326-70.459L29.4326-67.1323Z"/>
  </g>
  <line id="Baseline-L" style="fill:none;stroke:#27AAE1;opacity:1;stroke-width:0.5;" x1="263" x2="3036" y1="1556" y2="1556"/>
  <line id="Capline-L" style="fill:none;stroke:#27AAE1;opacity:1;stroke-width:0.5;" x1="263" x2="3036" y1="1485.54" y2="1485.54"/>
  <line id="right-margin" style="fill:none;stroke:#00AEEF;stroke-width:0.5;opacity:1.0;" x1="1523.01" x2="1523.01" y1="1030.79" y2="1150.12"/>
  <line id="left-margin" style="fill:none;stroke:#00AEEF;stroke-width:0.5;opacity:1.0;" x1="1376.68" x2="1376.68" y1="1030.79" y2="1150.12"/>
 </g>
 <g id="Symbols">
  <g id="Black-L" transform="matrix(1 0 0 1 2833.53 1556)">
   <path d="M80.1996 26.2353L156.071 26.2353C166.618 26.2353 171.653 20.9899 171.653 9.83857L171.653 7.99678L142.374-19.1394C140.267-21.1039 137.739-22.0385 134.985-22.0385C132.409-22.0385 129.832-21.1259 127.601-19.1614L104.947 0.861953L95.851-7.36902C93.846-9.19231 91.511-10.0441 89.142-10.0441C86.917-10.0441 84.5676-9.17269 82.6211-7.44944L64.6165 8.86528C64.6165 21.0483 69.3611 26.2353 80.1996 26.2353ZM101.957-17.9762C108.986-17.9762 114.765-23.7764 114.765-30.8854C114.765-37.892 108.986-43.6934 101.957-43.6934C94.8685-43.6934 89.0915-37.892 89.0915-30.8854C89.0915-23.7764 94.8685-17.9762 101.957-17.9762ZM39.8556 2.72166L59.629 2.72166L59.629-17.2594L42.5864-17.2594C38.2704-17.2594 36.065-19.1895 36.065-23.8224L36.065-79.4279C36.065-84.0607 38.2704-85.9713 42.5864-85.9713L122.796-85.9713C127.086-85.9713 129.296-84.0607 129.296-79.4279L129.296-66.1903L149.298-66.1903L149.298-82.2627C149.298-97.3632 140.649-105.972 125.527-105.972L39.8556-105.972C24.6915-105.972 16.084-97.3656 16.084-82.2627L16.084-20.9667C16.084-5.86506 24.6915 2.72166 39.8556 2.72166ZM74.2244 35.4361L159.875 35.4361C175.018 35.4361 183.646 26.8274 183.646 11.7477L183.646-49.5691C183.646-64.6684 175.018-73.2575 159.875-73.2575L74.2244-73.2575C59.0591-73.2575 50.4528-64.6708 50.4528-49.5691L50.4528 11.7477C50.4528 26.8506 59.0591 35.4361 74.2244 35.4361ZM76.9552 15.4563C72.6392 15.4563 70.4326 13.5249 70.4326 8.8933L70.4326-46.7135C70.4326-51.3463 72.6392-53.2765 76.9552-53.2765L157.144-53.2765C161.455-53.2765 163.665-51.3463 163.665-46.7135L163.665 8.8933C163.665 13.5249 161.455 15.4563 157.144 15.4563Z"/>
  </g>
  <g id="Heavy-L" transform="matrix(1 0 0 1 2538.18 1556)">
   <path d="M76.9453 25.9191L154.972 25.9191C165.574 25.9191 170.765 20.6202 170.765 9.54188L170.765 7.14912L141.529-20.0607C139.337-22.1118 136.693-23.0961 133.84-23.0961C131.132-23.0961 128.513-22.1476 126.173-20.0965L102.854 0.515609L93.5226-7.92707C91.4168-9.8419 89.0443-10.7345 86.5799-10.7345C84.292-10.7345 81.9465-9.81733 79.8853-8.00749L61.1469 8.80787C61.1469 20.6649 66.1203 25.9191 76.9453 25.9191ZM99.5248-18.8679C106.637-18.8679 112.465-24.7321 112.465-31.9188C112.465-38.9894 106.637-44.8592 99.5248-44.8592C92.3683-44.8592 86.5454-38.9894 86.5454-31.9188C86.5454-24.7321 92.3683-18.8679 99.5248-18.8679ZM38.8315 1.94039L57.5702 1.94039L57.5702-15.56L40.9557-15.56C36.118-15.56 33.5844-17.8547 33.5844-22.9917L33.5844-79.2944C33.5844-84.4313 36.118-86.7015 40.9557-86.7015L122.574-86.7015C127.359-86.7015 129.915-84.4313 129.915-79.2944L129.915-66.1602L147.445-66.1602L147.445-81.5695C147.445-96.1162 139.28-104.226 124.698-104.226L38.8315-104.226C24.1886-104.226 16.084-96.1274 16.084-81.5695L16.084-20.6863C16.084-6.13405 24.1886 1.94039 38.8315 1.94039ZM72.3514 33.7039L158.188 33.7039C172.8 33.7039 180.935 25.5936 180.935 11.0771L180.935-49.8362C180.935-64.3773 172.8-72.463 158.188-72.463L72.3514-72.463C57.7029-72.463 49.6039-64.3885 49.6039-49.8362L49.6039 11.0771C49.6039 25.635 57.7029 33.7039 72.3514 33.7039ZM74.4756 16.2091C69.6379 16.2091 67.0987 13.9087 67.0987 8.7774L67.0987-47.5309C67.0987-52.6678 69.6379-54.9626 74.4756-54.9626L156.063-54.9626C160.879-54.9626 163.435-52.6678 163.435-47.5309L163.435 8.7774C163.435 13.9087 160.879 16.2091 156.063 16.2091Z"/>
  </g>
  <g id="Bold-L" transform="matrix(1 0 0 1 2243.12 1556)">
   <path d="M72.9784 25.4154L153.687 25.4154C164.276 25.4154 169.584 20.0997 169.584 9.18054L169.584 6.0965L140.432-21.1236C138.124-23.2822 135.358-24.3354 132.367-24.3354C129.49-24.3354 126.831-23.3334 124.354-21.1748L100.272 0.0853472L90.6932-8.58881C88.4718-10.6114 86.0681-11.5577 83.4809-11.5577C81.1013-11.5577 78.7708-10.5866 76.5786-8.66923L57.0676 8.70884C57.0676 20.1289 62.2433 25.4154 72.9784 25.4154ZM96.617-19.9296C103.829-19.9296 109.719-25.8707 109.719-33.1498C109.719-40.2972 103.829-46.2516 96.617-46.2516C89.376-46.2516 83.4993-40.2972 83.4993-33.1498C83.4993-25.8707 89.376-19.9296 96.617-19.9296ZM37.5412 1.0691L54.9968 1.0691L54.9968-13.3727L38.987-13.3727C33.4665-13.3727 30.5257-16.1207 30.5257-21.9099L30.5257-79.0807C30.5257-84.8699 33.4665-87.5932 38.987-87.5932L122.349-87.5932C127.779-87.5932 130.773-84.8699 130.773-79.0807L130.773-66.2336L145.252-66.2336L145.252-80.7164C145.252-94.5419 137.672-102.06 123.795-102.06L37.5412-102.06C23.5885-102.06 16.084-94.5684 16.084-80.7164L16.084-20.2362C16.084-6.39747 23.5885 1.0691 37.5412 1.0691ZM69.9563 31.56L156.172 31.56C170.087 31.56 177.629 24.0422 177.629 10.2547L177.629-50.2635C177.629-64.0758 170.087-71.5688 156.172-71.5688L69.9563-71.5688C55.9904-71.5688 48.4991-64.1022 48.4991-50.2635L48.4991 10.2547C48.4991 24.1066 55.9904 31.56 69.9563 31.56ZM71.4021 17.1315C65.8816 17.1315 62.9276 14.3702 62.9276 8.59422L62.9276-48.5898C62.9276-54.379 65.8816-57.1271 71.4021-57.1271L154.726-57.1271C160.194-57.1271 163.188-54.379 163.188-48.5898L163.188 8.59422C163.188 14.3702 160.194 17.1315 154.726 17.1315Z"/>
  </g>
  <g id="Semibold-L" transform="matrix(1 0 0 1 1947.55 1556)">
   <path d="M70.2437 25.0682L152.801 25.0682C163.381 25.0682 168.77 19.7408 168.77 8.93144L168.77 5.37084L139.676-21.8563C137.289-24.0891 134.437-25.1898 131.351-25.1898C128.357-25.1898 125.672-24.1509 123.1-21.9181L98.4922-0.211273L88.7427-9.04501C86.4416-11.1419 84.0164-12.1252 81.3445-12.1252C78.9016-12.1252 76.5815-11.117 74.299-9.12543L54.2554 8.64058C54.2554 19.7594 59.5705 25.0682 70.2437 25.0682ZM94.6124-20.6615C101.893-20.6615 107.826-26.6557 107.826-33.9984C107.826-41.1989 101.893-47.2115 94.6124-47.2115C87.3131-47.2115 81.3992-41.1989 81.3992-33.9984C81.3992-26.6557 87.3131-20.6615 94.6124-20.6615ZM36.6517 0.468443L53.2228 0.468443L53.2228-11.8647L37.6298-11.8647C31.6387-11.8647 28.4171-14.9252 28.4171-21.1641L28.4171-78.9334C28.4171-85.1723 31.6387-88.2079 37.6298-88.2079L122.195-88.2079C128.068-88.2079 131.364-85.1723 131.364-78.9334L131.364-66.2842L143.74-66.2842L143.74-80.1283C143.74-93.4566 136.563-100.566 123.173-100.566L36.6517-100.566C23.1749-100.566 16.084-93.4936 16.084-80.1283L16.084-19.9259C16.084-6.57907 23.1749 0.468443 36.6517 0.468443ZM68.3052 30.082L154.783 30.082C168.216 30.082 175.35 22.9726 175.35 9.68771L175.35-50.5581C175.35-63.8679 168.216-70.9524 154.783-70.9524L68.3052-70.9524C54.8098-70.9524 47.7374-63.9049 47.7374-50.5581L47.7374 9.68771C47.7374 23.053 54.8098 30.082 68.3052 30.082ZM69.2833 17.7674C63.2921 17.7674 60.0521 14.6883 60.0521 8.46793L60.0521-49.3198C60.0521-55.5587 63.2921-58.6193 69.2833-58.6193L153.805-58.6193C159.722-58.6193 163.017-55.5587 163.017-49.3198L163.017 8.46793C163.017 14.6883 159.722 17.7674 153.805 17.7674Z"/>
  </g>
  <g id="Medium-L" transform="matrix(1 0 0 1 1651.7 1556)">
   <path d="M68.17 24.8049L152.129 24.8049C162.702 24.8049 168.153 19.4687 168.153 8.74256L168.153 4.8206L139.102-22.4118C136.655-24.7009 133.739-25.8376 130.58-25.8376C127.499-25.8376 124.794-24.7708 122.148-22.4817L97.1425-0.436182L87.2637-9.39092C84.9022-11.5441 82.4607-12.5555 79.7246-12.5555C77.2338-12.5555 74.9215-11.5191 72.5706-9.47134L52.1231 8.58881C52.1231 19.4792 57.5439 24.8049 68.17 24.8049ZM93.0925-21.2165C100.425-21.2165 106.39-27.2509 106.39-34.6419C106.39-41.8825 100.425-47.9394 93.0925-47.9394C85.7489-47.9394 79.8069-41.8825 79.8069-34.6419C79.8069-27.2509 85.7489-21.2165 93.0925-21.2165ZM35.9773 0.0129988L51.8776 0.0129988L51.8776-10.7213L36.6007-10.7213C30.2527-10.7213 26.8183-14.0188 26.8183-20.5986L26.8183-78.8217C26.8183-85.4016 30.2527-88.6741 36.6007-88.6741L122.077-88.6741C128.288-88.6741 131.812-85.4016 131.812-78.8217L131.812-66.3226L142.594-66.3226L142.594-79.6824C142.594-92.6337 135.722-99.4334 122.701-99.4334L35.9773-99.4334C22.8612-99.4334 16.084-92.6786 16.084-79.6824L16.084-19.6905C16.084-6.71677 22.8612 0.0129988 35.9773 0.0129988ZM67.0532 28.9613L153.729 28.9613C166.798 28.9613 173.622 22.1617 173.622 9.2578L173.622-50.7815C173.622-63.7103 166.798-70.485 153.729-70.485L67.0532-70.485C53.9146-70.485 47.1599-63.7552 47.1599-50.7815L47.1599 9.2578C47.1599 22.254 53.9146 28.9613 67.0532 28.9613ZM67.6766 18.2495C61.3286 18.2495 57.8717 14.9296 57.8717 8.37218L57.8717-49.8734C57.8717-56.4532 61.3286-59.7507 67.6766-59.7507L153.106-59.7507C159.364-59.7507 162.888-56.4532 162.888-49.8734L162.888 8.37218C162.888 14.9296 159.364 18.2495 153.106 18.2495Z"/>
  </g>
  <g id="Regular-L" transform="matrix(1 0 0 1 1356.12 1556)">
   <path d="M65.4653 24.4615L151.252 24.4615C161.817 24.4615 167.348 19.1138 167.348 8.49619L167.348 4.10291L138.354-23.1365C135.828-25.4989 132.828-26.6826 129.576-26.6826C126.379-26.6826 123.647-25.5793 120.908-23.2169L95.3819-0.729543L85.3346-9.8421C82.8943-12.0688 80.4315-13.1168 77.6117-13.1168C75.0583-13.1168 72.7563-12.0436 70.316-9.92252L49.3417 8.5213C49.3417 19.1138 54.9005 24.4615 65.4653 24.4615ZM91.1099-21.9404C98.5111-21.9404 104.517-28.0272 104.517-35.4811C104.517-42.7743 98.5111-48.8887 91.1099-48.8887C83.7087-48.8887 77.73-42.7743 77.73-35.4811C77.73-28.0272 83.7087-21.9404 91.1099-21.9404ZM35.0976-0.581059L50.123-0.581059L50.123-9.22992L35.2584-9.22992C28.4449-9.22992 24.7328-12.8365 24.7328-19.861L24.7328-78.6761C24.7328-85.7006 28.4449-89.2821 35.2584-89.2821L121.924-89.2821C128.574-89.2821 132.397-85.7006 132.397-78.6761L132.397-66.3726L141.099-66.3726L141.099-79.1007C141.099-91.5603 134.625-97.956 122.085-97.956L35.0976-97.956C22.4521-97.956 16.084-91.6156 16.084-79.1007L16.084-19.3836C16.084-6.89638 22.4521-0.581059 35.0976-0.581059ZM65.4202 27.4996L152.355 27.4996C164.948 27.4996 171.369 21.1039 171.369 8.69704L171.369-51.0728C171.369-63.5047 164.948-69.8754 152.355-69.8754L65.4202-69.8754C52.747-69.8754 46.4066-63.5601 46.4066-51.0728L46.4066 8.69704C46.4066 21.212 52.747 27.4996 65.4202 27.4996ZM65.5811 18.8784C58.7675 18.8784 55.0278 15.2442 55.0278 8.24728L55.0278-50.5954C55.0278-57.62 58.7675-61.2265 65.5811-61.2265L152.194-61.2265C158.897-61.2265 162.72-57.62 162.72-50.5954L162.72 8.24728C162.72 15.2442 158.897 18.8784 152.194 18.8784Z"/>
  </g>
  <g id="Light-L" transform="matrix(1 0 0 1 1060.38 1556)">
   <path d="M63.1369 23.3927L150.851 23.3927C160.882 23.3927 166.012 18.3504 166.012 8.28625L166.012 3.35858L137.266-23.3655C134.607-25.8042 131.645-27.0834 128.202-27.0834C124.852-27.0834 122.178-25.8847 119.324-23.4459L93.6643-1.03491L83.7314-10.1093C81.2721-12.3741 78.8856-13.4794 75.9513-13.4794C73.2452-13.4794 71.0195-12.3872 68.5602-10.1897L47.9294 8.27319C47.9294 18.3504 53.1065 23.3927 63.1369 23.3927ZM89.7739-22.3984C97.2324-22.3984 103.277-28.5234 103.277-36.0155C103.277-43.3468 97.2324-49.5185 89.7739-49.5185C82.3155-49.5185 76.3177-43.3468 76.3177-36.0155C76.3177-28.5234 82.3155-22.3984 89.7739-22.3984ZM34.067-0.561974L48.1954-0.561974L48.1954-7.1878L34.2278-7.1878C26.7082-7.1878 22.7098-11.1188 22.7098-18.7732L22.7098-78.218C22.7098-85.8724 26.7082-89.8165 34.2278-89.8165L122.096-89.8165C129.395-89.8165 133.58-85.8724 133.58-78.218L133.58-67.136L140.24-67.136L140.24-78.5472C140.24-90.2816 134.072-96.4292 122.257-96.4292L34.067-96.4292C22.1849-96.4292 16.084-90.3751 16.084-78.5472L16.084-18.4103C16.084-6.62918 22.1849-0.561974 34.067-0.561974ZM63.2827 26.03L151.439 26.03C163.287 26.03 169.422 19.8824 169.422 8.18174L169.422-51.9889C169.422-63.6765 163.287-69.8372 151.439-69.8372L63.2827-69.8372C51.3538-69.8372 45.2997-63.77 45.2997-51.9889L45.2997 8.18174C45.2997 20.0096 51.3538 26.03 63.2827 26.03ZM63.4435 19.451C55.9238 19.451 51.8787 15.4732 51.8787 7.86558L51.8787-51.626C51.8787-59.2804 55.9238-63.2114 63.4435-63.2114L151.278-63.2114C158.611-63.2114 162.796-59.2804 162.796-51.626L162.796 7.86558C162.796 15.4732 158.611 19.451 151.278 19.451Z"/>
  </g>
  <g id="Thin-L" transform="matrix(1 0 0 1 764.957 1556)">
   <path d="M60.0574 21.9792L150.321 21.9792C159.645 21.9792 164.245 17.3407 164.245 8.00859L164.245 2.37415L135.828-23.6684C132.992-26.2081 130.08-27.6135 126.384-27.6135C122.833-27.6135 120.234-26.2885 117.229-23.7488L91.3925-1.43878L81.6111-10.4627C79.1265-12.778 76.841-13.959 73.7552-13.959C70.8472-13.959 68.7225-12.8415 66.2379-10.5431L46.0615 7.94505C46.0615 17.3407 50.7338 21.9792 60.0574 21.9792ZM88.007-23.0042C95.5412-23.0042 101.636-29.1797 101.636-36.7223C101.636-44.1041 95.5412-50.3515 88.007-50.3515C80.4728-50.3515 74.4498-44.1041 74.4498-36.7223C74.4498-29.1797 80.4728-23.0042 88.007-23.0042ZM32.7039-0.536732L45.6459-0.536732L45.6459-4.48692L32.8648-4.48692C24.4111-4.48692 20.0342-8.84702 20.0342-17.3344L20.0342-77.6122C20.0342-86.0996 24.4111-90.5232 32.8648-90.5232L122.323-90.5232C130.48-90.5232 135.145-86.0996 135.145-77.6122L135.145-68.1457L139.104-68.1457L139.104-77.8152C139.104-88.5904 133.34-94.4099 122.484-94.4099L32.7039-94.4099C21.8315-94.4099 16.084-88.7344 16.084-77.8152L16.084-17.1229C16.084-6.2758 21.8315-0.536732 32.7039-0.536732ZM60.4556 24.0864L150.227 24.0864C161.091 24.0864 166.847 18.2669 166.847 7.50021L166.847-53.2005C166.847-63.9037 161.091-69.7867 150.227-69.7867L60.4556-69.7867C49.5112-69.7867 43.8356-64.0477 43.8356-53.2005L43.8356 7.50021C43.8356 18.4193 49.5112 24.0864 60.4556 24.0864ZM60.6164 20.2082C52.1628 20.2082 47.7138 15.7761 47.7138 7.36074L47.7138-52.9891C47.7138-61.4764 52.1628-65.8365 60.6164-65.8365L150.066-65.8365C158.232-65.8365 162.897-61.4764 162.897-52.9891L162.897 7.36074C162.897 15.7761 158.232 20.2082 150.066 20.2082Z"/>
  </g>
  <g id="Ultralight-L" transform="matrix(1 0 0 1 468.905 1556)">
   <path d="M58.4801 21.2552L150.05 21.2552C159.011 21.2552 163.34 16.8235 163.34 7.86638L163.34 1.86993L135.091-23.8236C132.164-26.415 129.278-27.885 125.453-27.885C121.798-27.885 119.238-26.4954 116.156-23.904L90.2289-1.64564L80.5251-10.6437C78.0276-12.9848 75.7938-14.2046 72.6304-14.2046C69.619-14.2046 67.546-13.0743 65.0485-10.7241L45.1048 7.77697C45.1048 16.8235 49.5185 21.2552 58.4801 21.2552ZM87.102-23.3145C94.6749-23.3145 100.796-29.5159 100.796-37.0843C100.796-44.4919 94.6749-50.7782 87.102-50.7782C79.529-50.7782 73.493-44.4919 73.493-37.0843C73.493-29.5159 79.529-23.3145 87.102-23.3145ZM32.0058-0.523803L44.3401-0.523803L44.3401-3.10355L32.1666-3.10355C23.2346-3.10355 18.6637-7.68344 18.6637-16.5975L18.6637-77.3019C18.6637-86.2159 23.2346-90.8852 32.1666-90.8852L122.44-90.8852C131.036-90.8852 135.947-86.2159 135.947-77.3019L135.947-68.6628L138.522-68.6628L138.522-77.4403C138.522-87.7242 132.965-93.3756 122.6-93.3756L32.0058-93.3756C21.6505-93.3756 16.084-87.894 16.084-77.4403L16.084-16.4636C16.084-6.09479 21.6505-0.523803 32.0058-0.523803ZM59.0076 23.0909L149.607 23.0909C159.966 23.0909 165.528 17.4395 165.528 7.15114L165.528-53.8211C165.528-64.02 159.966-69.7609 149.607-69.7609L59.0076-69.7609C48.5674-69.7609 43.0858-64.1899 43.0858-53.8211L43.0858 7.15114C43.0858 17.6048 48.5674 23.0909 59.0076 23.0909ZM59.1684 20.5961C50.2364 20.5961 45.5806 15.9313 45.5806 7.10216L45.5806-53.6872C45.5806-62.6012 50.2364-67.1811 59.1684-67.1811L149.446-67.1811C158.038-67.1811 162.949-62.6012 162.949-53.6872L162.949 7.10216C162.949 15.9313 158.038 20.5961 149.446 20.5961Z"/>
  </g>
  <g id="Black-M" transform="matrix(1 0 0 1 2855 1126)">
   <path d="M64.6153 12.5169L121.805 12.5169C129.856 12.5169 133.569 8.54026 133.569-0.0868278L133.569-1.11263L110.881-22.003C109.305-23.4609 107.451-24.1552 105.377-24.1552C103.473-24.1552 101.52-23.4661 99.8707-22.0082L82.8731-7.01165L76.0436-13.2014C74.5744-14.5405 72.8079-15.1731 71.039-15.1731C69.3486-15.1731 67.5355-14.5347 66.1234-13.2637L52.8516-1.05169C52.8516 8.59736 56.2792 12.5169 64.6153 12.5169ZM80.8992-21.1583C86.2826-21.1583 90.7213-25.6022 90.7213-31.0482C90.7213-36.4267 86.2826-40.8703 80.8992-40.8703C75.4587-40.8703 71.0197-36.4267 71.0197-31.0482C71.0197-25.6022 75.4587-21.1583 80.8992-21.1583ZM31.6184-5.15312L47.7053-5.15312L47.7053-22.4911L34.2553-22.4911C31.2643-22.4911 29.7989-23.7171 29.7989-26.9584L29.7989-69.5246C29.7989-72.7659 31.2643-73.9862 34.2553-73.9862L95.3493-73.9862C98.3359-73.9862 99.8002-72.7659 99.8002-69.5246L99.8002-59.3454L117.144-59.3454L117.144-72.1889C117.144-84.2655 110.068-91.3299 97.9861-91.3299L31.6184-91.3299C19.5256-91.3299 12.4609-84.265 12.4609-72.1889L12.4609-24.2886C12.4609-12.2123 19.5256-5.15312 31.6184-5.15312ZM58.8249 20.8078L125.187 20.8078C137.274 20.8078 144.345 13.7434 144.345 1.67226L144.345-46.2335C144.345-58.3104 137.274-65.369 125.187-65.369L58.8249-65.369C46.7324-65.369 39.6675-58.3099 39.6675-46.2335L39.6675 1.67226C39.6675 13.7483 46.7324 20.8078 58.8249 20.8078ZM61.4618 3.46954C58.4708 3.46954 57.0057 2.24377 57.0057-0.997822L57.0057-43.5637C57.0057-46.805 58.4708-48.0311 61.4618-48.0311L122.55-48.0311C125.542-48.0311 127.007-46.805 127.007-43.5637L127.007-0.997822C127.007 2.24377 125.542 3.46954 122.55 3.46954Z"/>
  </g>
  <g id="Heavy-M" transform="matrix(1 0 0 1 2559.52 1126)">
   <path d="M61.6489 12.3063L120.768 12.3063C128.922 12.3063 132.824 8.24934 132.824-0.357498L132.824-1.87261L110.156-22.8825C108.508-24.4181 106.538-25.1521 104.384-25.1521C102.366-25.1521 100.367-24.4367 98.6209-22.9012L80.9856-7.32205L73.9154-13.7223C72.3493-15.1473 70.5391-15.8146 68.6876-15.8146C66.9498-15.8146 65.1334-15.1332 63.6109-13.7846L49.5902-1.08493C49.5902 8.29296 53.2765 12.3063 61.6489 12.3063ZM78.6451-21.9878C84.1035-21.9878 88.5878-26.4907 88.5878-32.0092C88.5878-37.4466 84.1035-41.9518 78.6451-41.9518C73.143-41.9518 68.6611-37.4466 68.6611-32.0092C68.6611-26.4907 73.143-21.9878 78.6451-21.9878ZM30.7123-5.91862L45.8706-5.91862L45.8706-21.0182L32.7562-21.0182C29.3203-21.0182 27.5605-22.5707 27.5605-26.2467L27.5605-69.4363C27.5605-73.1123 29.3203-74.6507 32.7562-74.6507L95.1163-74.6507C98.5267-74.6507 100.296-73.1123 100.296-69.4363L100.296-59.2456L115.412-59.2456L115.412-71.5623C115.412-83.1645 108.781-89.7644 97.1602-89.7644L30.7123-89.7644C19.0586-89.7644 12.4609-83.169 12.4609-71.5623L12.4609-24.1043C12.4609-12.4999 19.0586-5.91862 30.7123-5.91862ZM57.1911 19.2499L123.623 19.2499C135.26 19.2499 141.874 12.65 141.874 1.06423L141.874-46.4101C141.874-58.0101 135.26-64.5958 123.623-64.5958L57.1911-64.5958C45.5351-64.5958 38.9397-58.0146 38.9397-46.4101L38.9397 1.06423C38.9397 12.671 45.5351 19.2499 57.1911 19.2499ZM59.2351 4.1526C55.7991 4.1526 54.0371 2.59785 54.0371-1.07591L54.0371-44.2677C54.0371-47.9438 55.7991-49.4962 59.2351-49.4962L121.579-49.4962C125.005-49.4962 126.774-47.9438 126.774-44.2677L126.774-1.07591C126.774 2.59785 125.005 4.1526 121.579 4.1526Z"/>
  </g>
  <g id="Bold-M" transform="matrix(1 0 0 1 2264.19 1126)">
   <path d="M58.3305 12.0708L119.607 12.0708C127.878 12.0708 131.991 7.9239 131.991-0.660282L131.991-2.72275L109.345-23.8665C107.617-25.4888 105.516-26.2674 103.274-26.2674C101.127-26.2674 99.0761-25.5226 97.2229-23.9002L78.8742-7.66929L71.5347-14.305C69.8603-15.8262 68.0012-16.5321 66.0571-16.5321C64.2663-16.5321 62.4463-15.8027 60.8004-14.3673L45.9418-1.12211C45.9418 7.95245 49.9176 12.0708 58.3305 12.0708ZM76.1236-22.9156C81.666-22.9156 86.2011-27.4845 86.2011-33.0841C86.2011-38.5876 81.666-43.1616 76.1236-43.1616C70.5526-43.1616 66.0226-38.5876 66.0226-33.0841C66.0226-27.4845 70.5526-22.9156 76.1236-22.9156ZM29.6986-6.77494L43.8181-6.77494L43.8181-19.3707L31.0794-19.3707C27.1457-19.3707 25.0566-21.2883 25.0566-25.4506L25.0566-69.3375C25.0566-73.4998 27.1457-75.394 31.0794-75.394L94.8556-75.394C98.7401-75.394 100.85-73.4998 100.85-69.3375L100.85-59.1339L113.474-59.1339L113.474-70.8613C113.474-81.9328 107.342-88.0132 96.2363-88.0132L29.6986-88.0132C18.5362-88.0132 12.4609-81.943 12.4609-70.8613L12.4609-23.8982C12.4609-12.8216 18.5362-6.77494 29.6986-6.77494ZM55.3634 17.5073L121.872 17.5073C133.006 17.5073 139.11 11.4269 139.11 0.384071L139.11-46.6077C139.11-57.674 133.006-63.7309 121.872-63.7309L55.3634-63.7309C44.1958-63.7309 38.1257-57.6843 38.1257-46.6077L38.1257 0.384071C38.1257 11.4658 44.1958 17.5073 55.3634 17.5073ZM56.7441 4.91671C52.8105 4.91671 50.7163 2.99393 50.7163-1.16326L50.7163-45.0553C50.7163-49.2176 52.8105-51.1352 56.7441-51.1352L120.492-51.1352C124.405-51.1352 126.514-49.2176 126.514-45.0553L126.514-1.16326C126.514 2.99393 124.405 4.91671 120.492 4.91671Z"/>
  </g>
  <g id="Semibold-M" transform="matrix(1 0 0 1 1968.43 1126)">
   <path d="M56.0428 11.9084L118.807 11.9084C127.157 11.9084 131.417 7.69955 131.417-0.86902L131.417-3.30884L108.786-24.5448C107.002-26.227 104.812-27.0362 102.508-27.0362C100.273-27.0362 98.1865-26.2711 96.2591-24.589L77.4185-7.90867L69.8935-14.7067C68.1443-16.2942 66.2516-17.0268 64.2437-17.0268C62.4163-17.0268 60.5938-16.2642 58.8628-14.769L43.4266-1.14775C43.4266 7.71771 47.602 11.9084 56.0428 11.9084ZM74.3852-23.5552C79.9855-23.5552 84.5558-28.1697 84.5558-33.8251C84.5558-39.3741 79.9855-43.9957 74.3852-43.9957C68.7668-43.9957 64.2036-39.3741 64.2036-33.8251C64.2036-28.1697 68.7668-23.5552 74.3852-23.5552ZM28.9998-7.36529L42.4031-7.36529L42.4031-18.2348L29.9233-18.2348C25.6466-18.2348 23.3305-20.4042 23.3305-24.9018L23.3305-69.2694C23.3305-73.767 25.6466-75.9064 29.9233-75.9064L94.6759-75.9064C98.8872-75.9064 101.232-73.767 101.232-69.2694L101.232-59.0569L112.138-59.0569L112.138-70.3781C112.138-81.0837 106.349-86.8059 95.5994-86.8059L28.9998-86.8059C18.1761-86.8059 12.4609-81.0979 12.4609-70.3781L12.4609-23.756C12.4609-13.0434 18.1761-7.36529 28.9998-7.36529ZM54.1034 16.3059L120.666 16.3059C131.453 16.3059 137.205 10.5837 137.205-0.0848291L137.205-46.7439C137.205-57.4424 131.453-63.1347 120.666-63.1347L54.1034-63.1347C43.2725-63.1347 37.5645-57.4566 37.5645-46.7439L37.5645-0.0848291C37.5645 10.6349 43.2725 16.3059 54.1034 16.3059ZM55.0269 5.44349C50.7501 5.44349 48.4269 3.26699 48.4269-1.22348L48.4269-45.5982C48.4269-50.0958 50.7501-52.2652 55.0269-52.2652L119.742-52.2652C123.991-52.2652 126.335-50.0958 126.335-45.5982L126.335-1.22348C126.335 3.26699 123.991 5.44349 119.742 5.44349Z"/>
  </g>
  <g id="Medium-M" transform="matrix(1 0 0 1 1672.45 1126)">
   <path d="M54.3081 11.7853L118.201 11.7853C126.611 11.7853 130.981 7.52944 130.981-1.02729L130.981-3.75323L108.362-25.0592C106.536-26.7867 104.278-27.6191 101.928-27.6191C99.6257-27.6191 97.512-26.8387 95.5283-25.1112L76.3148-8.09017L68.649-15.0113C66.8432-16.649 64.925-17.4019 62.8687-17.4019C61.0136-17.4019 59.1892-16.6142 57.3936-15.0736L41.5195-1.16718C41.5195 7.53971 45.8462 11.7853 54.3081 11.7853ZM73.0672-24.0402C78.7113-24.0402 83.3082-28.6892 83.3082-34.387C83.3082-39.9705 78.7113-44.6281 73.0672-44.6281C67.4128-44.6281 62.8244-39.9705 62.8244-34.387C62.8244-28.6892 67.4128-24.0402 73.0672-24.0402ZM28.47-7.81291L41.3302-7.81291L41.3302-17.3736L29.0468-17.3736C24.5098-17.3736 22.0216-19.7339 22.0216-24.4856L22.0216-69.2177C22.0216-73.9695 24.5098-76.295 29.0468-76.295L94.5397-76.295C98.9988-76.295 101.521-73.9695 101.521-69.2177L101.521-58.9985L111.126-58.9985L111.126-70.0117C111.126-80.4398 105.597-85.8905 95.1165-85.8905L28.47-85.8905C17.903-85.8905 12.4609-80.457 12.4609-70.0117L12.4609-23.6483C12.4609-13.2115 17.903-7.81291 28.47-7.81291ZM53.148 15.395L119.751 15.395C130.275 15.395 135.76 9.94432 135.76-0.440369L135.76-46.8472C135.76-57.2667 130.275-62.6826 119.751-62.6826L53.148-62.6826C42.5724-62.6826 37.139-57.2839 37.139-46.8472L37.139-0.440369C37.139 10.005 42.5724 15.395 53.148 15.395ZM53.7248 5.84291C49.1879 5.84291 46.691 3.47404 46.691-1.26914L46.691-46.0099C46.691-50.7616 49.1879-53.1219 53.7248-53.1219L119.174-53.1219C123.677-53.1219 126.199-50.7616 126.199-46.0099L126.199-1.26914C126.199 3.47404 123.677 5.84291 119.174 5.84291Z"/>
  </g>
  <g id="Regular-M" transform="matrix(1 0 0 1 1376.68 1126)">
   <path d="M52.0456 11.6247L117.41 11.6247C125.899 11.6247 130.413 7.30755 130.413-1.23374L130.413-4.33288L107.809-25.73C105.928-27.5168 103.582-28.3795 101.171-28.3795C98.7811-28.3795 96.6321-27.5791 94.575-25.7923L74.8752-8.32692L67.0258-15.4086C65.1461-17.1119 63.1946-17.8912 61.0752-17.8912C59.184-17.8912 57.357-17.0707 55.4774-15.4709L39.0319-1.19253C39.0319 7.30755 43.5561 11.6247 52.0456 11.6247ZM71.348-24.6729C77.0493-24.6729 81.681-29.3668 81.681-35.1199C81.681-40.7485 77.0493-45.453 71.348-45.453C65.6466-45.453 61.0255-40.7485 61.0255-35.1199C61.0255-29.3668 65.6466-24.6729 71.348-24.6729ZM27.7789-8.39677L39.9308-8.39677L39.9308-16.2502L27.9035-16.2502C23.0272-16.2502 20.3144-18.8595 20.3144-23.9428L20.3144-69.1504C20.3144-74.2337 23.0272-76.8018 27.9035-76.8018L94.362-76.8018C99.1443-76.8018 101.899-74.2337 101.899-69.1504L101.899-58.9223L109.805-58.9223L109.805-69.5338C109.805-79.6 104.615-84.6964 94.4866-84.6964L27.7789-84.6964C17.5468-84.6964 12.4609-79.6211 12.4609-69.5338L12.4609-23.5077C12.4609-13.4309 17.5468-8.39677 27.7789-8.39677ZM51.9019 14.2068L118.558 14.2068C128.738 14.2068 133.876 9.11038 133.876-0.904116L133.876-46.9819C133.876-57.0376 128.738-62.0929 118.558-62.0929L51.9019-62.0929C41.6593-62.0929 36.5839-57.0587 36.5839-46.9819L36.5839-0.904116C36.5839 9.18323 41.6593 14.2068 51.9019 14.2068ZM52.0265 6.36389C47.1502 6.36389 44.4269 3.74409 44.4269-1.3287L44.4269-46.5468C44.4269-51.6301 47.1502-54.2394 52.0265-54.2394L118.433-54.2394C123.267-54.2394 126.022-51.6301 126.022-46.5468L126.022-1.3287C126.022 3.74409 123.267 6.36389 118.433 6.36389Z"/>
  </g>
  <g id="Light-M" transform="matrix(1 0 0 1 1080.84 1126)">
   <path d="M49.9581 10.6665L117.05 10.6665C125.061 10.6665 129.215 6.62311 129.215-1.42196L129.215-5.0002L106.833-25.9354C104.833-27.7905 102.521-28.7388 99.9388-28.7388C97.4122-28.7388 95.3146-27.8528 93.1548-25.9977L73.3352-8.6007L65.5885-15.6481C63.6917-17.3857 61.8086-18.2163 59.5866-18.2163C57.5584-18.2163 55.7999-17.3787 53.9031-15.7104L37.7657-1.41498C37.7657 6.62311 41.9476 10.6665 49.9581 10.6665ZM70.1502-25.0835C75.9029-25.0835 80.5688-29.8117 80.5688-35.599C80.5688-41.2618 75.9029-46.0176 70.1502-46.0176C64.3975-46.0176 59.7593-41.2618 59.7593-35.599C59.7593-29.8117 64.3975-25.0835 70.1502-25.0835ZM26.8549-8.37966L38.2026-8.37966L38.2026-14.4194L26.9795-14.4194C21.4701-14.4194 18.5006-17.3195 18.5006-22.9675L18.5006-68.7397C18.5006-74.3877 21.4701-77.2809 26.9795-77.2809L94.5159-77.2809C99.8801-77.2809 102.96-74.3877 102.96-68.7397L102.96-59.6068L109.035-59.6068L109.035-69.0375C109.035-78.4536 104.119-83.3276 94.6406-83.3276L26.8549-83.3276C17.3073-83.3276 12.4609-78.5089 12.4609-69.0375L12.4609-22.635C12.4609-13.1913 17.3073-8.37966 26.8549-8.37966ZM49.9855 12.8893L117.736 12.8893C127.249 12.8893 132.13 8.01528 132.13-1.36611L132.13-47.8033C132.13-57.1916 127.249-62.0586 117.736-62.0586L49.9855-62.0586C40.4102-62.0586 35.5915-57.247 35.5915-47.8033L35.5915-1.36611C35.5915 8.10524 40.4102 12.8893 49.9855 12.8893ZM50.1101 6.87722C44.6006 6.87722 41.6035 3.94942 41.6035-1.67092L41.6035-47.4708C41.6035-53.1188 44.6006-56.0189 50.1101-56.0189L117.612-56.0189C123.011-56.0189 126.091-53.1188 126.091-47.4708L126.091-1.67092C126.091 3.94942 123.011 6.87722 117.612 6.87722Z"/>
  </g>
  <g id="Thin-M" transform="matrix(1 0 0 1 785.281 1126)">
   <path d="M47.1971 9.39914L116.575 9.39914C123.952 9.39914 127.631 5.71789 127.631-1.67089L127.631-5.8828L105.543-26.2069C103.385-28.1526 101.118-29.2141 98.3094-29.2141C95.6018-29.2141 93.572-28.2149 91.2765-26.2692L71.2985-8.96279L63.6875-15.9649C61.7681-17.7477 59.9755-18.6463 57.6177-18.6463C55.4085-18.6463 53.7406-17.786 51.8211-16.0272L36.091-1.70917C36.091 5.71789 39.8203 9.39914 47.1971 9.39914ZM68.566-25.6267C74.3866-25.6267 79.0978-30.4001 79.0978-36.2327C79.0978-41.9407 74.3866-46.7644 68.566-46.7644C62.7454-46.7644 58.0846-41.9407 58.0846-36.2327C58.0846-30.4001 62.7454-25.6267 68.566-25.6267ZM25.6328-8.35703L35.9169-8.35703L35.9169-11.9979L25.7574-11.9979C19.4107-11.9979 16.1018-15.2828 16.1018-21.6776L16.1018-68.1966C16.1018-74.5914 19.4107-77.9145 25.7574-77.9145L94.7196-77.9145C100.853-77.9145 104.363-74.5914 104.363-68.1966L104.363-60.512L108.016-60.512L108.016-68.3813C108.016-76.9373 103.463-81.5171 94.8442-81.5171L25.6328-81.5171C16.9904-81.5171 12.4609-77.0379 12.4609-68.3813L12.4609-21.4809C12.4609-12.8745 16.9904-8.35703 25.6328-8.35703ZM47.4508 11.1467L116.65 11.1467C125.281 11.1467 129.822 6.56692 129.822-1.97714L129.822-48.8895C129.822-57.3953 125.281-62.0134 116.65-62.0134L47.4508-62.0134C38.7581-62.0134 34.2789-57.4959 34.2789-48.8895L34.2789-1.97714C34.2789 6.67952 38.7581 11.1467 47.4508 11.1467ZM47.5754 7.55614C41.2287 7.55614 37.8695 4.22099 37.8695-2.12353L37.8695-48.6928C37.8695-55.0877 41.2287-58.3725 47.5754-58.3725L116.526-58.3725C122.671-58.3725 126.181-55.0877 126.181-48.6928L126.181-2.12353C126.181 4.22099 122.671 7.55614 116.526 7.55614Z"/>
  </g>
  <g id="Ultralight-M" transform="matrix(1 0 0 1 489.161 1126)">
   <path d="M45.783 8.75003L116.332 8.75003C123.384 8.75003 126.819 5.25424 126.819-1.7984L126.819-6.33486L104.883-26.346C102.643-28.3381 100.399-29.4575 97.4748-29.4575C94.6745-29.4575 92.6795-28.4004 90.3144-26.4083L70.2553-9.14825L62.7139-16.1272C60.7828-17.9332 59.0366-18.8665 56.6093-18.8665C54.3074-18.8665 52.6858-17.9947 50.7547-16.1895L35.2333-1.85986C35.2333 5.25424 38.7308 8.75003 45.783 8.75003ZM67.7547-25.9048C73.61-25.9048 78.3443-30.7015 78.3443-36.5573C78.3443-42.2884 73.61-47.147 67.7547-47.147C61.8993-47.147 57.2268-42.2884 57.2268-36.5573C57.2268-30.7015 61.8993-25.9048 67.7547-25.9048ZM25.0069-8.34544L34.7462-8.34544L34.7462-10.7576L25.1315-10.7576C18.3559-10.7576 14.8731-14.2395 14.8731-21.0169L14.8731-67.9184C14.8731-74.6957 18.3559-78.2391 25.1315-78.2391L94.8239-78.2391C101.352-78.2391 105.082-74.6957 105.082-67.9184L105.082-60.9756L107.495-60.9756L107.495-68.0451C107.495-76.1607 103.126-80.5898 94.9486-80.5898L25.0069-80.5898C16.8282-80.5898 12.4609-76.2845 12.4609-68.0451L12.4609-20.8897C12.4609-12.7122 16.8282-8.34544 25.0069-8.34544ZM46.1526 10.2542L116.094 10.2542C124.272 10.2542 128.64 5.82508 128.64-2.2901L128.64-49.4459C128.64-57.4996 124.272-61.9902 116.094-61.9902L46.1526-61.9902C37.912-61.9902 33.6066-57.6234 33.6066-49.4459L33.6066-2.2901C33.6066 5.94927 37.912 10.2542 46.1526 10.2542ZM46.2772 7.90388C39.5016 7.90388 35.9569 4.36009 35.9569-2.35535L35.9569-49.3188C35.9569-56.0961 39.5016-59.578 46.2772-59.578L115.969-59.578C122.497-59.578 126.228-56.0961 126.228-49.3188L126.228-2.35535C126.228 4.36009 122.497 7.90388 115.969 7.90388Z"/>
  </g>
  <g id="Black-S" transform="matrix(1 0 0 1 2871.63 696)">
   <path d="M51.416 2.19727L95.752 2.19727C102.002 2.19727 104.834-0.878906 104.834-7.61719L104.834-8.30078L87.0605-24.6094C85.8398-25.7324 84.4238-26.2695 82.8125-26.2695C81.3477-26.2695 79.834-25.7324 78.5645-24.6094L65.4297-13.0371L60.1562-17.8223C59.0332-18.8477 57.666-19.3359 56.2988-19.3359C54.9805-19.3359 53.5645-18.8477 52.4902-17.8711L42.334-8.44727C42.334-0.830078 44.9219 2.19727 51.416 2.19727ZM64.0137-23.9746C68.2129-23.9746 71.6797-27.4414 71.6797-31.6895C71.6797-35.8887 68.2129-39.3555 64.0137-39.3555C59.7656-39.3555 56.2988-35.8887 56.2988-31.6895C56.2988-27.4414 59.7656-23.9746 64.0137-23.9746ZM25-11.4258L37.8418-11.4258L37.8418-25.5859L27.2461-25.5859C25-25.5859 23.9258-26.4648 23.9258-28.9062L23.9258-62.1094C23.9258-64.5508 25-65.4297 27.2461-65.4297L74.8047-65.4297C77.0508-65.4297 78.125-64.5508 78.125-62.1094L78.125-54.1992L92.2852-54.1992L92.2852-64.3555C92.2852-73.9258 86.6211-79.5898 77.0508-79.5898L25-79.5898C15.4297-79.5898 9.76562-73.9258 9.76562-64.3555L9.76562-26.6602C9.76562-17.0898 15.4297-11.4258 25-11.4258ZM46.4844 9.08203L98.5352 9.08203C108.105 9.08203 113.77 3.41797 113.77-6.15234L113.77-43.8477C113.77-53.418 108.105-59.082 98.5352-59.082L46.4844-59.082C36.9141-59.082 31.25-53.418 31.25-43.8477L31.25-6.15234C31.25 3.41797 36.9141 9.08203 46.4844 9.08203ZM48.7305-5.07812C46.4844-5.07812 45.4102-5.95703 45.4102-8.39844L45.4102-41.6016C45.4102-44.043 46.4844-44.9219 48.7305-44.9219L96.2891-44.9219C98.5352-44.9219 99.6094-44.043 99.6094-41.6016L99.6094-8.39844C99.6094-5.95703 98.5352-5.07812 96.2891-5.07812Z"/>
  </g>
  <g id="Heavy-S" transform="matrix(1 0 0 1 2575.87 696)">
   <path d="M49.1457 2.13964L94.9107 2.13964C101.31 2.13964 104.35-1.04025 104.35-7.82463L104.35-8.86548L86.565-25.3354C85.2982-26.5161 83.7785-27.0762 82.121-27.0762C80.5755-27.0762 79.0157-26.5276 77.6771-25.3469L64.0122-13.2676L58.5198-18.2371C57.3161-19.3317 55.9028-19.843 54.478-19.843C53.1366-19.843 51.709-19.3202 50.5426-18.286L39.7064-8.44727C39.7064-1.00295 42.5594 2.13964 49.1457 2.13964ZM62.2389-24.6315C66.4957-24.6315 69.9971-28.1444 69.9971-32.4501C69.9971-36.6954 66.4957-40.2083 62.2389-40.2083C57.9448-40.2083 54.4434-36.6954 54.4434-32.4501C54.4434-28.1444 57.9448-24.6315 62.2389-24.6315ZM24.3431-12.0827L36.4934-12.0827L36.4934-24.5603L26.0821-24.5603C23.5364-24.5603 22.2432-25.6812 22.2432-28.4222L22.2432-62.0863C22.2432-64.8274 23.5364-65.9368 26.0821-65.9368L74.5857-65.9368C77.1199-65.9368 78.4131-64.8274 78.4131-62.0863L78.4131-54.0264L90.9022-54.0264L90.9022-63.883C90.9022-73.1306 85.5839-78.4259 76.3247-78.4259L24.3431-78.4259C15.0609-78.4259 9.76562-73.1306 9.76562-63.883L9.76562-26.6141C9.76562-17.3664 15.0609-12.0827 24.3431-12.0827ZM45.3319 7.91806L97.302 7.91806C106.573 7.91806 111.88 2.62278 111.88-6.61332L111.88-43.8938C111.88-53.1414 106.573-58.4251 97.302-58.4251L45.3319-58.4251C36.0497-58.4251 30.7544-53.1414 30.7544-43.8938L30.7544-6.61332C30.7544 2.63431 36.0497 7.91806 45.3319 7.91806ZM47.0709-4.55952C44.5252-4.55952 43.232-5.68044 43.232-8.42149L43.232-42.0856C43.232-44.8266 44.5252-45.9476 47.0709-45.9476L95.563-45.9476C98.1088-45.9476 99.4019-44.8266 99.4019-42.0856L99.4019-8.42149C99.4019-5.68044 98.1088-4.55952 95.563-4.55952Z"/>
  </g>
  <g id="Bold-S" transform="matrix(1 0 0 1 2280.21 696)">
   <path d="M46.6064 2.0752L93.9697 2.0752C100.537 2.0752 103.809-1.2207 103.809-8.05664L103.809-9.49707L86.0107-26.1475C84.6924-27.3926 83.0566-27.9785 81.3477-27.9785C79.7119-27.9785 78.1006-27.417 76.6846-26.1719L62.4268-13.5254L56.6895-18.7012C55.3955-19.873 53.9307-20.4102 52.4414-20.4102C51.0742-20.4102 49.6338-19.8486 48.3643-18.75L36.7676-8.44727C36.7676-1.19629 39.917 2.0752 46.6064 2.0752ZM60.2539-25.3662C64.5752-25.3662 68.1152-28.9307 68.1152-33.3008C68.1152-37.5977 64.5752-41.1621 60.2539-41.1621C55.9082-41.1621 52.3682-37.5977 52.3682-33.3008C52.3682-28.9307 55.9082-25.3662 60.2539-25.3662ZM23.6084-12.8174L34.9854-12.8174L34.9854-23.4131L24.7803-23.4131C21.8994-23.4131 20.3613-24.8047 20.3613-27.8809L20.3613-62.0605C20.3613-65.1367 21.8994-66.5039 24.7803-66.5039L74.3408-66.5039C77.1973-66.5039 78.7354-65.1367 78.7354-62.0605L78.7354-53.833L89.3555-53.833L89.3555-63.3545C89.3555-72.2412 84.4238-77.124 75.5127-77.124L23.6084-77.124C14.6484-77.124 9.76562-72.2412 9.76562-63.3545L9.76562-26.5625C9.76562-17.6758 14.6484-12.8174 23.6084-12.8174ZM44.043 6.61621L95.9229 6.61621C104.858 6.61621 109.766 1.7334 109.766-7.12891L109.766-43.9453C109.766-52.832 104.858-57.6904 95.9229-57.6904L44.043-57.6904C35.083-57.6904 30.2002-52.832 30.2002-43.9453L30.2002-7.12891C30.2002 1.75781 35.083 6.61621 44.043 6.61621ZM45.2148-3.97949C42.334-3.97949 40.7959-5.37109 40.7959-8.44727L40.7959-42.627C40.7959-45.7031 42.334-47.0947 45.2148-47.0947L94.751-47.0947C97.6318-47.0947 99.1699-45.7031 99.1699-42.627L99.1699-8.44727C99.1699-5.37109 97.6318-3.97949 94.751-3.97949Z"/>
  </g>
  <g id="Semibold-S" transform="matrix(1 0 0 1 1984.23 696)">
   <path d="M44.8558 2.03076L93.321 2.03076C100.004 2.03076 103.435-1.34512 103.435-8.2166L103.435-9.93252L85.6286-26.7073C84.2747-27.9969 82.559-28.6006 80.8145-28.6006C79.1165-28.6006 77.4696-28.0302 76.0003-26.7406L61.3337-13.7031L55.4275-19.0211C54.0714-20.2463 52.571-20.8012 51.0373-20.8012C49.6523-20.8012 48.203-20.213 46.8624-19.0699L34.7414-8.44727C34.7414-1.32959 38.0952 2.03076 44.8558 2.03076ZM58.8854-25.8728C63.2511-25.8728 66.8178-29.4728 66.8178-33.8873C66.8178-38.2197 63.2511-41.8197 58.8854-41.8197C54.5041-41.8197 50.9374-38.2197 50.9374-33.8873C50.9374-29.4728 54.5041-25.8728 58.8854-25.8728ZM23.1019-13.3239L33.9456-13.3239L33.9456-22.6222L23.8827-22.6222C20.7708-22.6222 19.0639-24.2004 19.0639-27.5076L19.0639-62.0428C19.0639-65.35 20.7708-66.8949 23.8827-66.8949L74.172-66.8949C77.2506-66.8949 78.9575-65.35 78.9575-62.0428L78.9575-53.6997L88.2891-53.6997L88.2891-62.9901C88.2891-71.628 83.624-76.2265 74.9528-76.2265L23.1019-76.2265C14.3641-76.2265 9.76562-71.628 9.76562-62.9901L9.76562-26.527C9.76562-17.8891 14.3641-13.3239 23.1019-13.3239ZM43.1543 5.71865L94.972 5.71865C103.676 5.71865 108.308 1.12021 108.308-7.48438L108.308-43.9809C108.308-52.6187 103.676-57.1839 94.972-57.1839L43.1543-57.1839C34.4165-57.1839 29.8181-52.6187 29.8181-43.9809L29.8181-7.48438C29.8181 1.15352 34.4165 5.71865 43.1543 5.71865ZM43.9352-3.57959C40.8232-3.57959 39.1163-5.15781 39.1163-8.46504L39.1163-43.0002C39.1163-46.3074 40.8232-47.8856 43.9352-47.8856L94.1911-47.8856C97.303-47.8856 99.01-46.3074 99.01-43.0002L99.01-8.46504C99.01-5.15781 97.303-3.57959 94.1911-3.57959Z"/>
  </g>
  <g id="Medium-S" transform="matrix(1 0 0 1 1688.07 696)">
   <path d="M43.5283 1.99707L92.8291 1.99707C99.5996 1.99707 103.152-1.43945 103.152-8.33789L103.152-10.2627L85.3389-27.1318C83.958-28.4551 82.1816-29.0723 80.4102-29.0723C78.665-29.0723 76.9912-28.4951 75.4814-27.1719L60.5049-13.8379L54.4707-19.2637C53.0674-20.5293 51.54-21.0977 49.9727-21.0977C48.5742-21.0977 47.1182-20.4893 45.7236-19.3125L33.2051-8.44727C33.2051-1.43066 36.7139 1.99707 43.5283 1.99707ZM57.8477-26.2568C62.2471-26.2568 65.834-29.8838 65.834-34.332C65.834-38.6914 62.2471-42.3184 57.8477-42.3184C53.4395-42.3184 49.8525-38.6914 49.8525-34.332C49.8525-29.8838 53.4395-26.2568 57.8477-26.2568ZM22.7178-13.708L33.1572-13.708L33.1572-22.0225L23.2021-22.0225C19.915-22.0225 18.0801-23.7422 18.0801-27.2246L18.0801-62.0293C18.0801-65.5117 19.915-67.1914 23.2021-67.1914L74.0439-67.1914C77.291-67.1914 79.126-65.5117 79.126-62.0293L79.126-53.5986L87.4805-53.5986L87.4805-62.7139C87.4805-71.1631 83.0176-75.5459 74.5283-75.5459L22.7178-75.5459C14.1484-75.5459 9.76562-71.1631 9.76562-62.7139L9.76562-26.5C9.76562-18.0508 14.1484-13.708 22.7178-13.708ZM42.4805 5.03809L94.251 5.03809C102.78 5.03809 107.203 0.655273 107.203-7.75391L107.203-44.0078C107.203-52.457 102.78-56.7998 94.251-56.7998L42.4805-56.7998C33.9111-56.7998 29.5283-52.457 29.5283-44.0078L29.5283-7.75391C29.5283 0.695312 33.9111 5.03809 42.4805 5.03809ZM42.9648-3.27637C39.6777-3.27637 37.8428-4.99609 37.8428-8.47852L37.8428-43.2832C37.8428-46.7656 39.6777-48.4854 42.9648-48.4854L93.7666-48.4854C97.0537-48.4854 98.8887-46.7656 98.8887-43.2832L98.8887-8.47852C98.8887-4.99609 97.0537-3.27637 93.7666-3.27637Z"/>
  </g>
  <g id="Regular-S" transform="matrix(1 0 0 1 1392.08 696)">
   <path d="M41.7969 1.95312L92.1875 1.95312C99.0723 1.95312 102.783-1.5625 102.783-8.49609L102.783-10.6934L84.9609-27.6855C83.5449-29.0527 81.6895-29.6875 79.8828-29.6875C78.0762-29.6875 76.3672-29.1016 74.8047-27.7344L59.4238-14.0137L53.2227-19.5801C51.7578-20.8984 50.1953-21.4844 48.584-21.4844C47.168-21.4844 45.7031-20.8496 44.2383-19.6289L31.2012-8.44727C31.2012-1.5625 34.9121 1.95312 41.7969 1.95312ZM56.4941-26.7578C60.9375-26.7578 64.5508-30.4199 64.5508-34.9121C64.5508-39.3066 60.9375-42.9688 56.4941-42.9688C52.0508-42.9688 48.4375-39.3066 48.4375-34.9121C48.4375-30.4199 52.0508-26.7578 56.4941-26.7578ZM22.2168-14.209L32.1289-14.209L32.1289-21.2402L22.3145-21.2402C18.7988-21.2402 16.7969-23.1445 16.7969-26.8555L16.7969-62.0117C16.7969-65.7227 18.7988-67.5781 22.3145-67.5781L73.877-67.5781C77.3438-67.5781 79.3457-65.7227 79.3457-62.0117L79.3457-53.4668L86.4258-53.4668L86.4258-62.3535C86.4258-70.5566 82.2266-74.6582 73.9746-74.6582L22.2168-74.6582C13.8672-74.6582 9.76562-70.5566 9.76562-62.3535L9.76562-26.4648C9.76562-18.2617 13.8672-14.209 22.2168-14.209ZM41.6016 4.15039L93.3105 4.15039C101.611 4.15039 105.762 0.0488281 105.762-8.10547L105.762-44.043C105.762-52.2461 101.611-56.2988 93.3105-56.2988L41.6016-56.2988C33.252-56.2988 29.1504-52.2461 29.1504-44.043L29.1504-8.10547C29.1504 0.0976562 33.252 4.15039 41.6016 4.15039ZM41.6992-2.88086C38.1836-2.88086 36.1816-4.78516 36.1816-8.49609L36.1816-43.6523C36.1816-47.3633 38.1836-49.2676 41.6992-49.2676L93.2129-49.2676C96.7285-49.2676 98.7305-47.3633 98.7305-43.6523L98.7305-8.49609C98.7305-4.78516 96.7285-2.88086 93.2129-2.88086Z"/>
  </g>
  <g id="Light-S" transform="matrix(1 0 0 1 1096.14 696)">
   <path d="M39.9502 1.10548L91.8696 1.10548C98.3306 1.10548 101.724-2.16796 101.724-8.6626L101.724-11.2837L84.0982-27.8672C82.5762-29.2949 80.751-30.0054 78.793-30.0054C76.8652-30.0054 75.2017-29.3437 73.5483-27.916L58.0615-14.2559L51.9512-19.792C50.4712-21.1406 48.9692-21.772 47.2671-21.772C45.73-21.772 44.3257-21.1221 42.8457-19.8408L30.0811-8.64404C30.0811-2.16796 33.4893 1.10548 39.9502 1.10548ZM55.4346-27.1211C59.9233-27.1211 63.5669-30.8135 63.5669-35.3359C63.5669-39.7607 59.9233-43.4683 55.4346-43.4683C50.9458-43.4683 47.3174-39.7607 47.3174-35.3359C47.3174-30.8135 50.9458-27.1211 55.4346-27.1211ZM21.3994-14.1938L30.6001-14.1938L30.6001-19.6206L21.4971-19.6206C17.4214-19.6206 15.1924-21.7822 15.1924-25.9927L15.1924-61.6484C15.1924-65.8589 17.4214-68.0019 21.4971-68.0019L74.0132-68.0019C77.9946-68.0019 80.2842-65.8589 80.2842-61.6484L80.2842-54.0723L85.7446-54.0723L85.7446-61.9146C85.7446-69.5425 81.7876-73.4473 74.1108-73.4473L21.3994-73.4473C13.6553-73.4473 9.76562-69.5728 9.76562-61.9146L9.76562-25.6929C9.76562-18.0498 13.6553-14.1938 21.3994-14.1938ZM39.9063 2.98487L92.584 2.98487C100.294 2.98487 104.218-0.919914 104.218-8.51416L104.218-44.7695C104.218-52.3823 100.294-56.2686 92.584-56.2686L39.9063-56.2686C32.147-56.2686 28.2725-52.4126 28.2725-44.7695L28.2725-8.51416C28.2725-0.85595 32.147 2.98487 39.9063 2.98487ZM40.0039-2.42676C35.9282-2.42676 33.6841-4.60352 33.6841-8.79883L33.6841-44.4697C33.6841-48.6802 35.9282-50.8418 40.0039-50.8418L92.4863-50.8418C96.5015-50.8418 98.791-48.6802 98.791-44.4697L98.791-8.79883C98.791-4.60352 96.5015-2.42676 92.4863-2.42676Z"/>
  </g>
  <g id="Thin-S" transform="matrix(1 0 0 1 800.452 696)">
   <path d="M37.5078-0.0156095L91.4492-0.0156095C97.3496-0.0156095 100.322-2.96874 100.322-8.88281L100.322-12.0644L82.957-28.1074C81.2949-29.6152 79.5098-30.4258 77.3516-30.4258C75.2637-30.4258 73.6602-29.6641 71.8867-28.1562L56.2598-14.5762L50.2696-20.0723C48.7696-21.4609 47.3477-22.1523 45.5254-22.1523C43.8282-22.1523 42.5039-21.4824 41.0039-20.1211L28.5996-8.90429C28.5996-2.96874 31.6074-0.0156095 37.5078-0.0156095ZM54.0332-27.6016C58.582-27.6016 62.2656-31.334 62.2656-35.8965C62.2656-40.3613 58.582-44.1289 54.0332-44.1289C49.4844-44.1289 45.836-40.3613 45.836-35.8965C45.836-31.334 49.4844-27.6016 54.0332-27.6016ZM20.3184-14.1738L28.5782-14.1738L28.5782-17.4785L20.416-17.4785C15.5996-17.4785 13.0703-19.9805 13.0703-24.8516L13.0703-61.168C13.0703-66.0391 15.5996-68.5625 20.416-68.5625L74.1934-68.5625C78.8555-68.5625 81.5254-66.0391 81.5254-61.168L81.5254-54.873L84.8438-54.873L84.8438-61.334C84.8438-68.2012 81.207-71.8457 74.291-71.8457L20.3184-71.8457C13.375-71.8457 9.76562-68.2715 9.76562-61.334L9.76562-24.6719C9.76562-17.7695 13.375-14.1738 20.3184-14.1738ZM37.6641 1.44338L91.6231 1.44338C98.5528 1.44338 102.176-2.20115 102.176-9.05468L102.176-45.7305C102.176-52.5625 98.5528-56.2285 91.6231-56.2285L37.6641-56.2285C30.6856-56.2285 27.1113-52.6328 27.1113-45.7305L27.1113-9.05468C27.1113-2.11717 30.6856 1.44338 37.6641 1.44338ZM37.7617-1.82618C32.9454-1.82618 30.3809-4.36328 30.3809-9.19921L30.3809-45.5508C30.3809-50.4219 32.9454-52.9238 37.7617-52.9238L91.5254-52.9238C96.2012-52.9238 98.8711-50.4219 98.8711-45.5508L98.8711-9.19921C98.8711-4.36328 96.2012-1.82618 91.5254-1.82618Z"/>
  </g>
  <g id="Ultralight-S" transform="matrix(1 0 0 1 504.263 696)">
   <path d="M36.2569-0.589824L91.2339-0.589824C96.8472-0.589824 99.6045-3.37889 99.6045-8.9956L99.6045-12.4643L82.3726-28.2305C80.6387-29.7793 78.874-30.6411 76.6133-30.6411C74.4434-30.6411 72.8706-29.8281 71.0357-28.2793L55.3369-14.7402L49.4082-20.2158C47.898-21.625 46.5171-22.3472 44.6333-22.3472C42.854-22.3472 41.5708-21.667 40.0606-20.2646L27.8408-9.03759C27.8408-3.37889 30.6436-0.589824 36.2569-0.589824ZM53.3155-27.8476C57.895-27.8476 61.5991-31.6006 61.5991-36.1836C61.5991-40.6689 57.895-44.4673 53.3155-44.4673C48.7359-44.4673 45.0772-40.6689 45.0772-36.1836C45.0772-31.6006 48.7359-27.8476 53.3155-27.8476ZM19.7647-14.1636L27.5425-14.1636L27.5425-16.3814L19.8623-16.3814C14.6665-16.3814 11.9834-19.0576 11.9834-24.2671L11.9834-60.9219C11.9834-66.1313 14.6665-68.8496 19.8623-68.8496L74.2856-68.8496C79.2964-68.8496 82.1611-66.1313 82.1611-60.9219L82.1611-55.2832L84.3823-55.2832L84.3823-61.0366C84.3823-67.5142 80.9097-71.0254 74.3833-71.0254L19.7647-71.0254C13.2315-71.0254 9.76562-67.605 9.76562-61.0366L9.76562-24.1489C9.76562-17.626 13.2315-14.1636 19.7647-14.1636ZM36.5157 0.653836L91.1309 0.653836C97.6607 0.653836 101.13-2.8574 101.13-9.33153L101.13-46.2226C101.13-52.6548 97.6607-56.208 91.1309-56.208L36.5157-56.208C29.937-56.208 26.5166-52.7456 26.5166-46.2226L26.5166-9.33153C26.5166-2.76316 29.937 0.653836 36.5157 0.653836ZM36.6133-1.51857C31.4175-1.51857 28.689-4.24024 28.689-9.40429L28.689-46.1045C28.689-51.3139 31.4175-53.9902 36.6133-53.9902L91.0332-53.9902C96.0474-53.9902 98.9121-51.3139 98.9121-46.1045L98.9121-9.40429C98.9121-4.24024 96.0474-1.51857 91.0332-1.51857Z"/>
  </g>
 </g>
</svg>
