<?xml version="1.0" encoding="UTF-8"?>
<!--Generator: Apple Native CoreSVG 341-->
<!DOCTYPE svg
PUBLIC "-//W3C//DTD SVG 1.1//EN"
       "http://www.w3.org/Graphics/SVG/1.1/DTD/svg11.dtd">
<svg version="1.1" xmlns="http://www.w3.org/2000/svg" xmlns:xlink="http://www.w3.org/1999/xlink" viewBox="0 0 3300 2200">
 <g id="Notes">
  <rect height="2200" id="artboard" style="fill:white;opacity:1" width="3300" x="0" y="0"/>
  <line style="fill:none;stroke:black;opacity:1;stroke-width:0.5;" x1="263" x2="3036" y1="292" y2="292"/>
  <text style="stroke:none;fill:black;font-family:sans-serif;font-size:13;font-weight:bold;" transform="matrix(1 0 0 1 263 322)">Weight/Scale Variations</text>
  <text style="stroke:none;fill:black;font-family:sans-serif;font-size:13;text-anchor:middle;" transform="matrix(1 0 0 1 559.711 322)">Ultralight</text>
  <text style="stroke:none;fill:black;font-family:sans-serif;font-size:13;text-anchor:middle;" transform="matrix(1 0 0 1 856.422 322)">Thin</text>
  <text style="stroke:none;fill:black;font-family:sans-serif;font-size:13;text-anchor:middle;" transform="matrix(1 0 0 1 1153.13 322)">Light</text>
  <text style="stroke:none;fill:black;font-family:sans-serif;font-size:13;text-anchor:middle;" transform="matrix(1 0 0 1 1449.84 322)">Regular</text>
  <text style="stroke:none;fill:black;font-family:sans-serif;font-size:13;text-anchor:middle;" transform="matrix(1 0 0 1 1746.56 322)">Medium</text>
  <text style="stroke:none;fill:black;font-family:sans-serif;font-size:13;text-anchor:middle;" transform="matrix(1 0 0 1 2043.27 322)">Semibold</text>
  <text style="stroke:none;fill:black;font-family:sans-serif;font-size:13;text-anchor:middle;" transform="matrix(1 0 0 1 2339.98 322)">Bold</text>
  <text style="stroke:none;fill:black;font-family:sans-serif;font-size:13;text-anchor:middle;" transform="matrix(1 0 0 1 2636.69 322)">Heavy</text>
  <text style="stroke:none;fill:black;font-family:sans-serif;font-size:13;text-anchor:middle;" transform="matrix(1 0 0 1 2933.4 322)">Black</text>
  <line style="fill:none;stroke:black;opacity:1;stroke-width:0.5;" x1="263" x2="3036" y1="1903" y2="1903"/>
  <g transform="matrix(0.2 0 0 0.2 263 1933)">
   <path d="m46.2402 4.15039c21.7773 0 39.4531-17.627 39.4531-39.4043s-17.6758-39.4043-39.4531-39.4043c-21.7285 0-39.4043 17.627-39.4043 39.4043s17.6758 39.4043 39.4043 39.4043Zm0-7.42188c-17.6758 0-31.9336-14.3066-31.9336-31.9824s14.2578-31.9824 31.9336-31.9824 31.9824 14.3066 31.9824 31.9824-14.3066 31.9824-31.9824 31.9824Zm3.61328-17.7734v-28.4668c0-2.24609-1.46484-3.75977-3.71094-3.75977-2.14844 0-3.61328 1.51367-3.61328 3.75977v28.4668c0 2.19727 1.46484 3.71094 3.61328 3.71094 2.24609 0 3.71094-1.51367 3.71094-3.71094Zm-17.8223-10.5957h28.418c2.19727 0 3.71094-1.46484 3.71094-3.61328 0-2.19727-1.51367-3.71094-3.71094-3.71094h-28.418c-2.24609 0-3.75977 1.51367-3.75977 3.71094 0 2.14844 1.51367 3.61328 3.75977 3.61328Z"/>
  </g>
  <g transform="matrix(0.2 0 0 0.2 281.506 1933)">
   <path d="m58.5449 14.5508c27.4902 0 49.8047-22.3145 49.8047-49.8047s-22.3145-49.8047-49.8047-49.8047-49.8047 22.3145-49.8047 49.8047 22.3145 49.8047 49.8047 49.8047Zm0-8.30078c-22.9492 0-41.5039-18.5547-41.5039-41.5039s18.5547-41.5039 41.5039-41.5039 41.5039 18.5547 41.5039 41.5039-18.5547 41.5039-41.5039 41.5039Zm4.05273-23.0957v-36.9141c0-2.49023-1.70898-4.19922-4.15039-4.19922-2.39258 0-4.05273 1.70898-4.05273 4.19922v36.9141c0 2.44141 1.66016 4.15039 4.05273 4.15039 2.44141 0 4.15039-1.66016 4.15039-4.15039Zm-22.5586-14.4043h36.9629c2.44141 0 4.15039-1.61133 4.15039-4.00391 0-2.44141-1.70898-4.15039-4.15039-4.15039h-36.9629c-2.49023 0-4.15039 1.70898-4.15039 4.15039 0 2.39258 1.66016 4.00391 4.15039 4.00391Z"/>
  </g>
  <g transform="matrix(0.2 0 0 0.2 304.924 1933)">
   <path d="m74.8535 28.3203c35.1074 0 63.623-28.4668 63.623-63.5742s-28.5156-63.623-63.623-63.623-63.5742 28.5156-63.5742 63.623 28.4668 63.5742 63.5742 63.5742Zm0-9.08203c-30.127 0-54.4922-24.3652-54.4922-54.4922s24.3652-54.4922 54.4922-54.4922 54.4922 24.3652 54.4922 54.4922-24.3652 54.4922-54.4922 54.4922Zm4.44336-30.3223v-48.4863c0-2.73438-1.85547-4.63867-4.54102-4.63867-2.58789 0-4.44336 1.9043-4.44336 4.63867v48.4863c0 2.68555 1.85547 4.58984 4.44336 4.58984 2.68555 0 4.54102-1.85547 4.54102-4.58984Zm-28.7109-19.7754h48.4863c2.68555 0 4.58984-1.80664 4.58984-4.39453 0-2.73438-1.85547-4.58984-4.58984-4.58984h-48.4863c-2.73438 0-4.58984 1.85547-4.58984 4.58984 0 2.58789 1.85547 4.39453 4.58984 4.39453Z"/>
  </g>
  <text style="stroke:none;fill:black;font-family:sans-serif;font-size:13;font-weight:bold;" transform="matrix(1 0 0 1 263 1953)">Design Variations</text>
  <text style="stroke:none;fill:black;font-family:sans-serif;font-size:13;" transform="matrix(1 0 0 1 263 1971)">Symbols are supported in up to nine weights and three scales.</text>
  <text style="stroke:none;fill:black;font-family:sans-serif;font-size:13;" transform="matrix(1 0 0 1 263 1989)">For optimal layout with text and other symbols, vertically align</text>
  <text style="stroke:none;fill:black;font-family:sans-serif;font-size:13;" transform="matrix(1 0 0 1 263 2007)">symbols with the adjacent text.</text>
  <line style="fill:none;stroke:#00AEEF;stroke-width:0.5;opacity:1.0;" x1="776" x2="776" y1="1919" y2="1933"/>
  <g transform="matrix(0.2 0 0 0.2 776 1933)">
   <path d="m16.5527 0.78125c2.58789 0 3.85742-0.976562 4.78516-3.71094l20.5566-57.5195h0.244141l20.6055 57.5195c0.927734 2.73438 2.19727 3.71094 4.73633 3.71094 2.58789 0 4.24805-1.5625 4.24805-4.00391 0-0.830078-0.146484-1.61133-0.537109-2.63672l-22.9004-60.9863c-1.12305-2.97852-3.125-4.49219-6.25-4.49219-3.02734 0-5.07812 1.46484-6.15234 4.44336l-22.9004 61.084c-0.390625 1.02539-0.537109 1.80664-0.537109 2.63672 0 2.44141 1.5625 3.95508 4.10156 3.95508Zm10.2051-20.9473h30.6641c2.00195 0 3.66211-1.66016 3.66211-3.66211 0-2.05078-1.66016-3.66211-3.66211-3.66211h-30.6641c-2.00195 0-3.66211 1.61133-3.66211 3.66211 0 2.00195 1.66016 3.66211 3.66211 3.66211Z"/>
  </g>
  <line style="fill:none;stroke:#00AEEF;stroke-width:0.5;opacity:1.0;" x1="792.836" x2="792.836" y1="1919" y2="1933"/>
  <text style="stroke:none;fill:black;font-family:sans-serif;font-size:13;font-weight:bold;" transform="matrix(1 0 0 1 776 1953)">Margins</text>
  <text style="stroke:none;fill:black;font-family:sans-serif;font-size:13;" transform="matrix(1 0 0 1 776 1971)">Leading and trailing margins on the left and right side of each symbol</text>
  <text style="stroke:none;fill:black;font-family:sans-serif;font-size:13;" transform="matrix(1 0 0 1 776 1989)">can be adjusted by modifying the x-location of the margin guidelines.</text>
  <text style="stroke:none;fill:black;font-family:sans-serif;font-size:13;" transform="matrix(1 0 0 1 776 2007)">Modifications are automatically applied proportionally to all</text>
  <text style="stroke:none;fill:black;font-family:sans-serif;font-size:13;" transform="matrix(1 0 0 1 776 2025)">scales and weights.</text>
  <g transform="matrix(0.2 0 0 0.2 1289 1933)">
   <path d="m14.209 13.1348 7.86133 7.86133c4.29688 4.39453 9.32617 4.10156 13.8672-1.02539l60.6934-68.2129-4.88281-4.88281-60.2539 67.6758c-1.80664 1.95312-3.4668 2.44141-5.81055 0.0976562l-5.17578-5.12695c-2.29492-2.29492-1.80664-3.95508 0.195312-5.81055l67.4805-62.1582-4.88281-4.83398-68.0664 62.5977c-4.98047 4.58984-5.32227 9.47266-1.02539 13.8184Zm44.873-97.4609c-2.05078 2.00195-2.24609 4.88281-1.07422 6.78711 1.12305 1.80664 3.4668 3.02734 6.5918 2.24609 5.85938-1.66016 12.5977-2.39258 18.8965 0.927734l-2.68555 7.12891c-1.61133 4.00391-0.732422 6.88477 1.70898 9.42383l10.2539 10.3027c2.34375 2.39258 4.54102 2.44141 7.08008 1.95312l4.44336-0.732422 2.58789 2.53906-0.195312 2.24609c-0.0976562 2.29492 0.537109 4.29688 2.7832 6.49414l3.36914 3.32031c2.29492 2.29492 5.51758 2.49023 7.8125 0.195312l12.9883-13.0371c2.29492-2.34375 2.14844-5.37109-0.195312-7.66602l-3.41797-3.41797c-2.19727-2.19727-4.05273-3.02734-6.34766-2.88086l-2.34375 0.244141-2.44141-2.44141 1.02539-4.6875c0.634766-2.73438-0.244141-4.98047-2.88086-7.61719l-11.2793-11.1816c-12.9395-12.8418-35.5957-11.0352-46.6797-0.146484Zm7.08008 2.05078c8.78906-6.39648 25.9766-5.66406 33.6914 1.95312l12.3047 12.207c1.02539 1.02539 1.2207 1.80664 0.927734 3.32031l-1.46484 6.64062 6.73828 6.68945 4.39453-0.244141c1.12305-0.0488281 1.51367 0.0488281 2.34375 0.878906l2.53906 2.49023-10.8398 10.8398-2.49023-2.49023c-0.830078-0.878906-0.976562-1.2207-0.927734-2.39258l0.292969-4.3457-6.68945-6.73828-6.83594 1.17188c-1.41602 0.292969-2.05078 0.195312-3.17383-0.878906l-8.93555-8.88672c-1.07422-1.02539-1.17188-1.70898-0.488281-3.36914l4.58984-11.4746c-6.10352-6.34766-17.041-7.51953-25.5859-4.58984-0.683594 0.244141-0.927734-0.390625-0.390625-0.78125Z"/>
  </g>
  <text style="stroke:none;fill:black;font-family:sans-serif;font-size:13;font-weight:bold;" transform="matrix(1 0 0 1 1289 1953)">Exporting</text>
  <text style="stroke:none;fill:black;font-family:sans-serif;font-size:13;" transform="matrix(1 0 0 1 1289 1971)">Symbols should be outlined when exporting to ensure the</text>
  <text style="stroke:none;fill:black;font-family:sans-serif;font-size:13;" transform="matrix(1 0 0 1 1289 1989)">design is preserved when submitting to Xcode.</text>
  <text id="template-version" style="stroke:none;fill:black;font-family:sans-serif;font-size:13;text-anchor:end;" transform="matrix(1 0 0 1 3036 1933)">Template v.2.0</text>
  <text style="stroke:none;fill:black;font-family:sans-serif;font-size:13;text-anchor:end;" transform="matrix(1 0 0 1 3036 1951)">Requires Xcode 12 or greater</text>
  <text id="descriptive-name" style="stroke:none;fill:black;font-family:sans-serif;font-size:13;text-anchor:end;" transform="matrix(1 0 0 1 3036 1969)">Generated from xmark</text>
  <text style="stroke:none;fill:black;font-family:sans-serif;font-size:13;text-anchor:end;" transform="matrix(1 0 0 1 3036 1987)">Typeset at 100.0 points</text>
  <text style="stroke:none;fill:black;font-family:sans-serif;font-size:13;" transform="matrix(1 0 0 1 263 726)">Small</text>
  <text style="stroke:none;fill:black;font-family:sans-serif;font-size:13;" transform="matrix(1 0 0 1 263 1156)">Medium</text>
  <text style="stroke:none;fill:black;font-family:sans-serif;font-size:13;" transform="matrix(1 0 0 1 263 1586)">Large</text>
 </g>
 <g id="Guides">
  <g id="H-reference" style="fill:#27AAE1;stroke:none;" transform="matrix(1 0 0 1 339 696)">
   <path d="M0.993654 0L3.63775 0L29.3281-67.1323L30.0303-67.1323L30.0303-70.459L28.1226-70.459ZM11.6885-24.4799L46.9815-24.4799L46.2315-26.7285L12.4385-26.7285ZM55.1196 0L57.7637 0L30.6382-70.459L29.4326-70.459L29.4326-67.1323Z"/>
  </g>
  <line id="Baseline-S" style="fill:none;stroke:#27AAE1;opacity:1;stroke-width:0.5;" x1="263" x2="3036" y1="696" y2="696"/>
  <line id="Capline-S" style="fill:none;stroke:#27AAE1;opacity:1;stroke-width:0.5;" x1="263" x2="3036" y1="625.541" y2="625.541"/>
  <g id="H-reference" style="fill:#27AAE1;stroke:none;" transform="matrix(1 0 0 1 339 1126)">
   <path d="M0.993654 0L3.63775 0L29.3281-67.1323L30.0303-67.1323L30.0303-70.459L28.1226-70.459ZM11.6885-24.4799L46.9815-24.4799L46.2315-26.7285L12.4385-26.7285ZM55.1196 0L57.7637 0L30.6382-70.459L29.4326-70.459L29.4326-67.1323Z"/>
  </g>
  <line id="Baseline-M" style="fill:none;stroke:#27AAE1;opacity:1;stroke-width:0.5;" x1="263" x2="3036" y1="1126" y2="1126"/>
  <line id="Capline-M" style="fill:none;stroke:#27AAE1;opacity:1;stroke-width:0.5;" x1="263" x2="3036" y1="1055.54" y2="1055.54"/>
  <g id="H-reference" style="fill:#27AAE1;stroke:none;" transform="matrix(1 0 0 1 339 1556)">
   <path d="M0.993654 0L3.63775 0L29.3281-67.1323L30.0303-67.1323L30.0303-70.459L28.1226-70.459ZM11.6885-24.4799L46.9815-24.4799L46.2315-26.7285L12.4385-26.7285ZM55.1196 0L57.7637 0L30.6382-70.459L29.4326-70.459L29.4326-67.1323Z"/>
  </g>
  <line id="Baseline-L" style="fill:none;stroke:#27AAE1;opacity:1;stroke-width:0.5;" x1="263" x2="3036" y1="1556" y2="1556"/>
  <line id="Capline-L" style="fill:none;stroke:#27AAE1;opacity:1;stroke-width:0.5;" x1="263" x2="3036" y1="1485.54" y2="1485.54"/>
  <line id="right-margin" style="fill:none;stroke:#00AEEF;stroke-width:0.5;opacity:1.0;" x1="1501" x2="1501" y1="1030.79" y2="1150.12"/>
  <line id="left-margin" style="fill:none;stroke:#00AEEF;stroke-width:0.5;opacity:1.0;" x1="1398.69" x2="1398.69" y1="1030.79" y2="1150.12"/>
 </g>
 <g id="Symbols">
  <g id="Black-L" transform="matrix(1 0 0 1 2863.85 1556)">
   <path d="M102.832-85.332L19.3151-1.81643C15.0598 2.43885 14.9806 10.3889 19.4903 14.8986C24.0196 19.4071 32.0657 19.2319 36.225 15.0738L119.721-68.4221C124.171-72.8734 124.133-80.5898 119.546-85.1568C114.957-89.7041 107.282-89.7833 102.832-85.332ZM119.721-1.87484L36.225-85.3904C32.0073-89.5873 24.0572-89.7833 19.4903-85.2152C14.943-80.6274 15.1182-72.6982 19.3151-68.4805L102.832 15.0154C107.261 19.4656 114.978 19.4071 119.546 14.8402C124.113 10.2513 124.171 2.55567 119.721-1.87484Z" data-clipstroke-keyframes="0 8 0 0.69326496 0.19217545 0 1 0.85720587 0.028290346 0 1 0.354328 0.52816737 8 0 1.1882432 1.6871449 0 1 1.3551226 1.5254042 0 1 1.8523979 1.0231797"/>
  </g>
  <g id="Heavy-L" transform="matrix(1 0 0 1 2568.03 1556)">
   <path d="M103.71-84.8632L18.9092-0.0682571C15.1921 3.64878 15.1173 10.5311 19.043 14.4569C22.9933 18.3769 29.9347 18.2431 33.5927 14.5907L118.363-70.1797C122.239-74.0607 122.224-80.7646 118.229-84.7293C114.229-88.6695 107.585-88.7443 103.71-84.8632ZM118.363-0.11288L33.5927-84.9078C29.8901-88.5802 23.0078-88.7443 19.043-84.774C15.1029-80.779 15.2368-73.9269 18.9092-70.2243L103.71 14.5461C107.555 18.4216 114.259 18.3769 118.229 14.4122C122.194 10.4117 122.239 3.73802 118.363-0.11288Z" data-clipstroke-keyframes="0 8 0 0.69973284 0.19860366 0 1 0.86988574 0.019106537 0 1 0.36710238 0.51920545 8 0 1.1952055 1.694066 0 1 1.3771968 1.5258062 0 1 1.8750896 1.0238833"/>
  </g>
  <g id="Bold-L" transform="matrix(1 0 0 1 2272.43 1556)">
   <path d="M104.756-84.2719L18.4096 2.06131C15.3536 5.11735 15.2864 10.693 18.4972 13.9038C21.7328 17.1014 27.3288 17.0138 30.3645 13.9914L116.673-72.317C119.841-75.4987 119.85-80.9574 116.585-84.1843C113.307-87.3863 107.924-87.4535 104.756-84.2719ZM116.673 2.03211L30.3645-84.3011C27.2996-87.3279 21.724-87.4535 18.4972-84.2135C15.2952-80.9487 15.3828-75.411 18.4096-72.3462L104.756 13.9622C107.886 17.1306 113.345 17.1014 116.585 13.8746C119.812 10.5966 119.841 5.17576 116.673 2.03211Z" data-clipstroke-keyframes="0 8 0 0.70851994 0.20732741 0 1 0.8870235 0.0059970235 0 1 0.38435492 0.5061971 8 0 1.2046119 1.7034453 0 1 1.407845 1.5263902 0 1 1.9064473 1.0248878"/>
  </g>
  <g id="Semibold-L" transform="matrix(1 0 0 1 1976.48 1556)">
   <path d="M105.477-83.8642L18.0652 3.52942C15.4649 6.12977 15.4029 10.8045 18.1209 13.5225C20.8638 16.222 25.5323 16.1663 28.1389 13.5782L115.508-73.7905C118.189-76.4899 118.213-81.0904 115.452-83.8085C112.672-86.5017 108.158-86.5636 105.477-83.8642ZM115.508 3.51085L28.1389-83.8828C25.5138-86.4646 20.839-86.5636 18.1209-83.8271C15.4277-81.0656 15.4834-76.4342 18.0652-73.8091L105.477 13.5597C108.115 16.2406 112.715 16.222 115.452 13.5039C118.17 10.724 118.189 6.16692 115.508 3.51085Z" data-clipstroke-keyframes="0 8 0 0.71438444 0.21316126 0 1 0.8985344 0.9986806 0 1 0.39597183 0.4989242 8 0 1.2109617 1.7097635 0 1 1.4269154 1.5267271 0 1 1.9260179 1.0255564"/>
  </g>
  <g id="Medium-L" transform="matrix(1 0 0 1 1680.35 1556)">
   <path d="M106.024-83.5551L17.8041 4.6426C15.5493 6.89744 15.4913 10.8891 17.8356 13.2334C20.2049 15.5553 24.1702 15.5237 26.4514 13.265L114.624-74.9078C116.935-77.2416 116.972-81.1912 114.593-83.5236C112.19-85.831 108.336-85.8889 106.024-83.5551ZM114.624 4.63209L26.4514-83.5656C24.1597-85.8099 20.168-85.8889 17.8356-83.5341C15.5282-81.1543 15.5598-77.21 17.8041-74.9183L106.024 13.2544C108.288 15.5658 112.238 15.5553 114.593 13.2229C116.925 10.8206 116.935 6.91846 114.624 4.63209Z" data-clipstroke-keyframes="0 8 0 0.7189602 0.21771403 0 1 0.90752757 0.99418795 0 1 0.40505156 0.4944547 8 0 1.2159276 1.7147038 0 1 1.4405922 1.5269821 0 1 1.9400839 1.0260777"/>
  </g>
  <g id="Regular-L" transform="matrix(1 0 0 1 1384.39 1556)">
   <path d="M106.738-83.1519L17.4635 6.09458C15.6593 7.89873 15.6066 10.9994 17.4635 12.8563C19.3455 14.6856 22.3934 14.6856 24.2503 12.8563L113.472-76.3651C115.301-78.222 115.354-81.3227 113.472-83.1519C111.562-84.9561 108.567-85.0088 106.738-83.1519ZM113.472 6.09458L24.2503-83.1519C22.3934-84.9561 19.2927-85.0088 17.4635-83.1519C15.6593-81.2699 15.6593-78.222 17.4635-76.3651L106.738 12.8563C108.514 14.6856 111.615 14.6856 113.472 12.8563C115.301 10.9466 115.301 7.89873 113.472 6.09458Z" data-clipstroke-keyframes="0 8 0 0.72510403 0.22382794 0 1 0.9196177 0.9897615 0 1 0.41726306 0.49004486 8 0 1.2226102 1.7213511 0 1 1.457367 1.5273144 0 1 1.95738 1.026777"/>
  </g>
  <g id="Light-L" transform="matrix(1 0 0 1 1088.46 1556)">
   <path d="M107.196-82.6748L17.139 7.33513C15.7548 8.7194 15.7211 11.0185 17.139 12.4364C18.5439 13.8077 20.8093 13.8077 22.2273 12.4364L112.25-77.5865C113.621-79.0045 113.655-81.3036 112.25-82.6748C110.799-84.0591 108.567-84.0927 107.196-82.6748ZM112.25 7.33513L22.2273-82.6748C20.8093-84.0591 18.5102-84.0927 17.139-82.6748C15.7548-81.2699 15.7548-79.0045 17.139-77.5865L107.196 12.4364C108.533 13.8077 110.832 13.8077 112.25 12.4364C113.621 10.9848 113.621 8.7194 112.25 7.33513Z" data-clipstroke-keyframes="0 8 0 0.7309339 0.22961459 0 1 0.9306572 0.96924216 0 1 0.4284233 0.46819884 8 0 1.2287797 1.7276065 0 1 1.4897858 1.5277174 0 1 1.9896203 1.0277807"/>
  </g>
  <g id="Thin-L" transform="matrix(1 0 0 1 792.786 1556)">
   <path d="M107.801-82.0437L16.7099 8.97584C15.881 9.8048 15.8725 11.0437 16.7099 11.8811C17.4838 12.6465 18.7143 12.6465 19.5517 11.8811L110.635-79.202C111.4-80.0394 111.409-81.2783 110.635-82.0437C109.789-82.8727 108.567-82.8811 107.801-82.0437ZM110.635 8.97584L19.5517-82.0437C18.7143-82.8727 17.4753-82.8811 16.7099-82.0437C15.881-81.2699 15.881-80.0394 16.7099-79.202L107.801 11.8811C108.558 12.6465 109.797 12.6465 110.635 11.8811C111.4 11.0353 111.4 9.8048 110.635 8.97584Z" data-clipstroke-keyframes="0 8 0 0.73984444 0.23844688 0 1 0.94749755 0.95264196 0 1 0.44541606 0.449642 8 0 1.2381445 1.7369454 0 1 1.5244049 1.5282211 0 1 1.0241672 1.0292773"/>
  </g>
  <g id="Ultralight-L" transform="matrix(1 0 0 1 496.605 1556)">
   <path d="M108.112-81.7205L16.4901 9.81621C15.9456 10.3607 15.9501 11.0567 16.4901 11.5967C16.9408 12.0518 17.6412 12.0518 18.1812 11.5967L109.807-80.0294C110.262-80.5695 110.258-81.2654 109.807-81.7205C109.272-82.265 108.567-82.2606 108.112-81.7205ZM109.807 9.81621L18.1812-81.7205C17.6412-82.265 16.9452-82.2606 16.4901-81.7205C15.9456-81.2699 15.9456-80.5695 16.4901-80.0294L108.112 11.5967C108.571 12.0518 109.267 12.0518 109.807 11.5967C110.262 11.0612 110.262 10.3607 109.807 9.81621Z" data-clipstroke-keyframes="0 8 0 0.74381536 0.24239367 0 1 0.9550338 0.9471556 0 1 0.45305642 0.44308537 8 0 1.2423893 1.7412038 0 1 1.537964 1.5284195 0 1 1.0377557 1.0299864"/>
  </g>
  <g id="Black-M" transform="matrix(1 0 0 1 2878.86 1126)">
   <path d="M78.9757-74.3843L15.2691-10.6774C11.5666-6.9749 11.504-0.00669582 15.4404 3.92963C19.3825 7.86624 26.4594 7.69495 30.0531 4.10092L93.7542-59.6002C97.6338-63.4794 97.5822-70.2193 93.583-74.213C89.584-78.2009 82.8552-78.2635 78.9757-74.3843ZM93.7542-10.7344L30.0531-74.4414C26.4023-78.0867 19.4341-78.2635 15.4404-74.2701C11.4524-70.2709 11.6237-63.3082 15.2691-59.6573L78.9757 4.04382C82.8497 7.92334 89.5895 7.86624 93.583 3.87254C97.5767-0.12638 97.6338-6.86071 93.7542-10.7344Z" data-clipstroke-keyframes="0 8 0 0.6871658 0.18611366 0 1 0.8452068 0.032119386 0 1 0.34224743 0.53159827 8 0 1.1816742 1.6806313 0 1 1.3391666 1.5250242 0 1 1.8357749 1.0225664"/>
  </g>
  <g id="Heavy-M" transform="matrix(1 0 0 1 2582.95 1126)">
   <path d="M79.7916-73.97L14.9022-9.08283C11.6872-5.86782 11.6272 0.130608 15.0331 3.53651C18.4531 6.94014 24.5224 6.80928 27.6666 3.66738L92.5396-61.2056C95.8996-64.5679 95.8724-70.3919 92.4087-73.8391C88.9428-77.2722 83.1517-77.3323 79.7916-73.97ZM92.5396-9.12645L27.6666-74.0136C24.4788-77.185 18.4803-77.3323 15.0331-73.8827C11.6-70.4191 11.7308-64.4371 14.9022-61.2493L79.7916 3.62376C83.1352 6.98377 88.9592 6.94014 92.4087 3.49289C95.856 0.0269559 95.8996-5.78058 92.5396-9.12645Z" data-clipstroke-keyframes="0 8 0 0.6945056 0.19340764 0 1 0.859614 0.024504261 0 1 0.35675377 0.5243639 8 0 1.1895679 1.6884682 0 1 1.3613836 1.5254874 0 1 1.858746 1.0233321"/>
  </g>
  <g id="Bold-M" transform="matrix(1 0 0 1 2287.13 1126)">
   <path d="M80.7044-73.5066L14.4918-7.29914C11.8221-4.6294 11.7649 0.284203 14.5775 3.09675C17.4135 5.90417 22.3556 5.81852 24.9968 3.1824L91.1808-63.0016C93.9597-65.7856 93.9597-70.585 91.0952-73.4209C88.2254-76.2334 83.4833-76.2906 80.7044-73.5066ZM91.1808-7.32768L24.9968-73.5351C22.327-76.1763 17.4134-76.2906 14.5775-73.4495C11.765-70.5849 11.8506-65.6999 14.4918-63.0301L80.7044 3.15385C83.4546 5.93272 88.2541 5.90417 91.0952 3.0682C93.9311 0.198484 93.9597-4.5723 91.1808-7.32768Z" data-clipstroke-keyframes="0 8 0 0.70309293 0.20194486 0 1 0.876515 0.01735947 0 1 0.3737836 0.5176603 8 0 1.1988446 1.6976736 0 1 1.3856407 1.5260016 0 1 1.8839033 1.024223"/>
  </g>
  <g id="Semibold-M" transform="matrix(1 0 0 1 1991.03 1126)">
   <path d="M81.3337-73.1871L14.2089-6.06947C11.9151-3.77564 11.8599 0.39009 14.2634 2.79358C16.6968 5.18997 20.8618 5.1355 23.1564 2.84805L90.2441-64.2396C92.6223-66.625 92.6412-70.7181 90.1896-73.1326C87.7309-75.5172 83.7119-75.5724 81.3337-73.1871ZM90.2441-6.08762L23.1564-73.2053C20.8437-75.4809 16.6779-75.5724 14.2634-73.1508C11.8788-70.6992 11.9332-66.5705 14.2089-64.2578L81.3337 2.8299C83.6748 5.20813 87.7679 5.18997 90.1896 2.77543C92.6041 0.316735 92.6223-3.73933 90.2441-6.08762Z" data-clipstroke-keyframes="0 8 0 0.70977205 0.20857817 0 1 0.889624 0.0135158915 0 1 0.38697776 0.51413935 8 0 1.206025 1.704814 0 1 1.4027905 1.5264338 0 1 1.901721 1.0249192"/>
  </g>
  <g id="Medium-M" transform="matrix(1 0 0 1 1694.79 1126)">
   <path d="M81.8108-72.9449L13.9944-5.13708C11.9856-3.12828 11.9319 0.470378 14.0252 2.56371C16.1534 4.64844 19.7292 4.61761 21.7608 2.59454L89.5338-65.1784C91.6082-67.2615 91.6414-70.819 89.503-72.914C87.3559-74.9742 83.8852-75.0279 81.8108-72.9449ZM89.5338-5.14736L21.7608-72.9551C19.7189-74.9537 16.1202-75.0279 14.0252-72.9243C11.965-70.7859 11.9959-67.2306 13.9944-65.1887L81.8108 2.58426C83.8418 4.65872 87.3994 4.64844 89.503 2.55343C91.598 0.406397 91.6082-3.10773 89.5338-5.14736Z" data-clipstroke-keyframes="0 8 0 0.71453875 0.21332262 0 1 0.8990523 0.010984357 0 1 0.39649278 0.5118499 8 0 1.211217 1.7099612 0 1 1.4148499 1.5266914 0 1 1.9143001 1.0254087"/>
  </g>
  <g id="Regular-M" transform="matrix(1 0 0 1 1398.69 1126)">
   <path d="M82.4331-72.6289L13.7146-3.92092C12.0776-2.2839 12.0258 0.575102 13.7146 2.26387C15.4446 3.94209 18.2518 3.94209 19.9406 2.26387L88.6074-66.4029C90.2856-68.0917 90.3373-70.9507 88.6074-72.6289C86.8668-74.2659 84.1113-74.3177 82.4331-72.6289ZM88.6074-3.92092L19.9406-72.6289C18.2518-74.2659 15.3928-74.3177 13.7146-72.6289C12.0776-70.8989 12.0776-68.0917 13.7146-66.4029L82.4331 2.26387C84.0596 3.94209 86.9186 3.94209 88.6074 2.26387C90.2856 0.523348 90.2856-2.2839 88.6074-3.92092Z" data-clipstroke-keyframes="0 8 0 0.72094357 0.21969885 0 1 0.91174114 0.008380252 0 1 0.40930375 0.50956964 8 0 1.2182121 1.7168938 0 1 1.4302685 1.5270245 0 1 1.9304253 1.0260643"/>
  </g>
  <g id="Light-M" transform="matrix(1 0 0 1 1102.68 1126)">
   <path d="M82.8438-72.2011L13.4237-2.80871C12.1631-1.54813 12.1285 0.592213 13.4237 1.88743C14.7259 3.15499 16.8316 3.15499 18.1268 1.88743L87.5123-67.498C88.7798-68.7932 88.8145-70.9336 87.5123-72.2011C86.1824-73.4617 84.1113-73.4963 82.8438-72.2011ZM87.5123-2.80871L18.1268-72.2011C16.8316-73.4617 14.6912-73.4963 13.4237-72.2011C12.1631-70.8989 12.1631-68.7932 13.4237-67.498L82.8438 1.88743C84.0767 3.15499 86.217 3.15499 87.5123 1.88743C88.7798 0.55757 88.7798-1.54813 87.5123-2.80871Z" data-clipstroke-keyframes="0 8 0 0.7275376 0.22624333 0 1 0.92422557 0.98042107 0 1 0.42192063 0.4801586 8 0 1.2251847 1.7239609 0 1 1.471672 1.527483 0 1 1.9716074 1.0271953"/>
  </g>
  <g id="Thin-M" transform="matrix(1 0 0 1 806.896 1126)">
   <path d="M83.3869-71.6354L13.039-1.33772C12.2763-0.575017 12.2643 0.614843 13.039 1.38956C13.7754 2.11398 14.9533 2.11398 15.728 1.38956L86.0639-68.9464C86.7883-69.7211 86.8003-70.9109 86.0639-71.6354C85.2772-72.3981 84.1113-72.4101 83.3869-71.6354ZM86.0639-1.33772L15.728-71.6354C14.9533-72.3981 13.7634-72.4101 13.039-71.6354C12.2763-70.8989 12.2763-69.7211 13.039-68.9464L83.3869 1.38956C84.0993 2.11398 85.2892 2.11398 86.0639 1.38956C86.7883 0.602831 86.7883-0.575017 86.0639-1.33772Z" data-clipstroke-keyframes="0 8 0 0.7364151 0.23555502 0 1 0.94148153 0.9550467 0 1 0.43987203 0.45300084 8 0 1.2350999 1.7345108 0 1 1.5161963 1.5286354 0 1 1.0155128 1.0288037"/>
  </g>
  <g id="Ultralight-M" transform="matrix(1 0 0 1 510.66 1126)">
   <path d="M83.6651-71.3456L12.8419-0.584288C12.3342-0.076592 12.3338 0.626435 12.8419 1.13455C13.2886 1.58078 13.9912 1.58078 14.4993 1.13455L85.3221-69.6882C85.7683-70.1963 85.7687-70.8993 85.3221-71.3456C84.8135-71.8533 84.1113-71.8537 83.6651-71.3456ZM85.3221-0.584288L14.4993-71.3456C13.9912-71.8533 13.2882-71.8537 12.8419-71.3456C12.3342-70.8989 12.3342-70.1963 12.8419-69.6882L83.6651 1.13455C84.1109 1.58078 84.8139 1.58078 85.3221 1.13455C85.7683 0.626014 85.7683-0.076592 85.3221-0.584288Z" data-clipstroke-keyframes="0 8 0 0.7422582 0.2408459 0 1 0.9520783 0.94897026 0 1 0.4500598 0.4453231 8 0 1.2407242 1.7395332 0 1 1.5329852 1.528342 0 1 1.0327595 1.029708"/>
  </g>
  <g id="Black-S" transform="matrix(1 0 0 1 2890.46 696)">
   <path d="M61.6699-66.0156L12.0605-16.4062C9.0332-13.3789 8.98438-7.66602 12.207-4.44336C15.4297-1.2207 21.2402-1.36719 24.1699-4.29688L73.7793-53.9062C76.9531-57.0801 76.9043-62.5977 73.6328-65.8691C70.3613-69.1406 64.8438-69.1895 61.6699-66.0156ZM73.7793-16.4551L24.1699-66.0645C21.1914-69.043 15.4785-69.1895 12.207-65.918C8.93555-62.6465 9.08203-56.9336 12.0605-53.9551L61.6699-4.3457C64.8438-1.17188 70.3613-1.2207 73.6328-4.49219C76.9043-7.76367 76.9531-13.2812 73.7793-16.4551Z" data-clipstroke-keyframes="0 8 0 0.6848002 0.18376245 0 1 0.84053713 0.031395707 0 1 0.33754823 0.5306597 8 0 1.1791239 1.6781081 0 1 1.3351922 1.5248773 0 1 1.8315161 1.0223461"/>
  </g>
  <g id="Heavy-S" transform="matrix(1 0 0 1 2594.34 696)">
   <path d="M62.3153-65.716L11.784-15.1847C9.1254-12.5261 9.07657-7.55077 11.8959-4.73147C14.7267-1.91217 19.7651-2.02408 22.3606-4.61956L72.8804-55.1394C75.6624-57.9214 75.6366-62.7475 72.7685-65.6041C69.9003-68.4492 65.0973-68.498 62.3153-65.716ZM72.8804-15.222L22.3606-65.7533C19.7278-68.3745 14.7525-68.498 11.8959-65.6414C9.05079-62.7733 9.1627-57.8095 11.784-55.1767L62.3153-4.65686C65.0858-1.87487 69.9119-1.91217 72.7685-4.76877C75.6251-7.6369 75.6624-12.4515 72.8804-15.222Z" data-clipstroke-keyframes="0 8 0 0.6918175 0.19073729 0 1 0.8543763 0.030993138 0 1 0.35147834 0.5308314 8 0 1.1866901 1.6855994 0 1 1.3495374 1.5253111 0 1 1.8466814 1.0230182"/>
  </g>
  <g id="Bold-S" transform="matrix(1 0 0 1 2298.29 696)">
   <path d="M63.0371-65.3809L11.4746-13.8184C9.22852-11.5723 9.17969-7.42188 11.5479-5.05371C13.9404-2.68555 18.1152-2.75879 20.3369-4.98047L71.875-56.5186C74.2188-58.8623 74.2188-62.915 71.8018-65.3076C69.3848-67.6758 65.3809-67.7246 63.0371-65.3809ZM71.875-13.8428L20.3369-65.4053C18.0908-67.627 13.9404-67.7246 11.5479-65.332C9.17969-62.915 9.25293-58.7891 11.4746-56.543L63.0371-5.00488C65.3564-2.66113 69.4092-2.68555 71.8018-5.07812C74.1943-7.49512 74.2188-11.5234 71.875-13.8428Z" data-clipstroke-keyframes="0 8 0 0.7000033 0.19887699 0 1 0.870567 0.030449 0 1 0.367787 0.53098065 8 0 1.1955575 1.6943729 0 1 1.3663571 1.525789 0 1 1.8644977 1.0237945"/>
  </g>
  <g id="Semibold-S" transform="matrix(1 0 0 1 2002.04 696)">
   <path d="M63.5348-65.1498L11.2613-12.8764C9.29961-10.9146 9.25078-7.33301 11.3079-5.27588C13.3983-3.21875 16.9777-3.26533 18.9417-5.2293L71.1818-57.4694C73.2234-59.511 73.2412-63.0306 71.1353-65.1032C69.0293-67.1426 65.5764-67.1914 63.5348-65.1498ZM71.1818-12.8919L18.9417-65.1653C16.9622-67.1115 13.3806-67.1914 11.3079-65.1188C9.26855-63.0128 9.31514-59.4645 11.2613-57.485L63.5348-5.24482C65.5431-3.20322 69.0626-3.21875 71.1353-5.29141C73.2079-7.39736 73.2234-10.8836 71.1818-12.8919Z" data-clipstroke-keyframes="0 8 0 0.7064127 0.2052428 0 1 0.88319916 0.030090539 0 1 0.38049448 0.53114605 8 0 1.2023292 1.7014154 0 1 1.3791976 1.5265095 0 1 1.87842 1.0243933"/>
  </g>
  <g id="Medium-S" transform="matrix(1 0 0 1 1705.67 696)">
   <path d="M63.9121-64.9746L11.0996-12.1621C9.35352-10.416 9.30469-7.26562 11.126-5.44434C12.9873-3.62305 16.1152-3.64941 17.8838-5.41797L70.6562-58.1904C72.4688-60.0029 72.5-63.1182 70.6299-64.9482C68.7598-66.7383 65.7246-66.7871 63.9121-64.9746ZM70.6562-12.1709L17.8838-64.9834C16.1064-66.7207 12.9561-66.7871 11.126-64.957C9.33594-63.0869 9.3623-59.9766 11.0996-58.1992L63.9121-5.42676C65.6846-3.61426 68.7998-3.62305 70.6299-5.45312C72.46-7.32324 72.4688-10.3984 70.6562-12.1709Z" data-clipstroke-keyframes="0 8 0 0.71093786 0.20974833 0 1 0.8921986 0.029715378 0 1 0.3895736 0.5311756 8 0 1.2074039 1.706111 0 1 1.3888284 1.5264425 0 1 1.8883214 1.0248307"/>
  </g>
  <g id="Regular-S" transform="matrix(1 0 0 1 1409.41 696)">
   <path d="M64.4043-64.7461L10.8887-11.2305C9.42383-9.76562 9.375-7.17773 10.8887-5.66406C12.4512-4.15039 14.9902-4.15039 16.5039-5.66406L69.9707-59.1309C71.4844-60.6445 71.5332-63.2324 69.9707-64.7461C68.4082-66.2109 65.918-66.2598 64.4043-64.7461ZM69.9707-11.2305L16.5039-64.7461C14.9902-66.2109 12.4023-66.2598 10.8887-64.7461C9.42383-63.1836 9.42383-60.6445 10.8887-59.1309L64.4043-5.66406C65.8691-4.15039 68.457-4.15039 69.9707-5.66406C71.4844-7.22656 71.4844-9.76562 69.9707-11.2305Z" data-clipstroke-keyframes="0 8 0 0.7170063 0.21579172 0 1 0.9042886 0.029178062 0 1 0.40177563 0.5311921 8 0 1.2140536 1.712681 0 1 1.4014555 1.5267482 0 1 1.9017618 1.0253927"/>
  </g>
  <g id="Light-S" transform="matrix(1 0 0 1 1113.32 696)">
   <path d="M64.7676-64.3677L10.6313-10.2466C9.49951-9.11475 9.46582-7.1626 10.6313-5.99707C11.8154-4.84667 13.7339-4.84667 14.8994-5.99707L69.002-60.0996C70.1524-61.2651 70.186-63.2173 69.002-64.3677C67.8027-65.4995 65.918-65.5332 64.7676-64.3677ZM69.002-10.2466L14.8994-64.3677C13.7339-65.4995 11.7817-65.5332 10.6313-64.3677C9.49951-63.1836 9.49951-61.2651 10.6313-60.0996L64.7676-5.99707C65.8843-4.84667 67.8364-4.84667 69.002-5.99707C70.1524-7.19629 70.1524-9.11475 69.002-10.2466Z" data-clipstroke-keyframes="0 8 0 0.7242876 0.22301765 0 1 0.918072 0.9931488 0 1 0.41570085 0.4936127 8 0 1.2217469 1.720476 0 1 1.4523149 1.5272577 0 1 1.9523549 1.026637"/>
  </g>
  <g id="Thin-S" transform="matrix(1 0 0 1 817.434 696)">
   <path d="M65.248-63.8672L10.291-8.94533C9.59961-8.25392 9.58594-7.14258 10.291-6.43749C10.9746-5.76757 12.0723-5.76757 12.7774-6.43749L67.7207-61.3808C68.3906-62.0859 68.4043-63.1973 67.7207-63.8672C67.002-64.5586 65.918-64.5723 65.248-63.8672ZM67.7207-8.94533L12.7774-63.8672C12.0723-64.5586 10.9609-64.5723 10.291-63.8672C9.59961-63.1836 9.59961-62.0859 10.291-61.3808L65.248-6.43749C65.9043-5.76757 67.0156-5.76757 67.7207-6.43749C68.3906-7.15625 68.3906-8.25392 67.7207-8.94533Z" data-clipstroke-keyframes="0 8 0 0.73443913 0.23309438 0 1 0.93729633 0.9599119 0 1 0.43513763 0.45804006 8 0 1.2324927 1.7313735 0 1 1.5062811 1.5279582 0 1 1.00602 1.0283868"/>
  </g>
  <g id="Ultralight-S" transform="matrix(1 0 0 1 521.143 696)">
   <path d="M65.4941-63.6108L10.1167-8.27883C9.65088-7.813 9.64746-7.13232 10.1167-6.66308C10.544-6.23924 11.2212-6.23924 11.6905-6.66308L67.0645-62.0371C67.4883-62.5063 67.4917-63.187 67.0645-63.6108C66.5918-64.0767 65.918-64.0801 65.4941-63.6108ZM67.0645-8.27883L11.6905-63.6108C11.2212-64.0767 10.5405-64.0801 10.1167-63.6108C9.65088-63.1836 9.65088-62.5063 10.1167-62.0371L65.4941-6.66308C65.9146-6.23924 66.5952-6.23924 67.0645-6.66308C67.4883-7.13574 67.4883-7.813 67.0645-8.27883Z" data-clipstroke-keyframes="0 8 0 0.7406989 0.23929606 0 1 0.949119 0.9512219 0 1 0.4470597 0.447994 8 0 1.2390575 1.7378612 0 1 1.5275631 1.528264 0 1 1.0273275 1.0294297"/>
  </g>
 </g>
</svg>
