<?xml version="1.0" encoding="UTF-8"?>
<!--Generator: Apple Native CoreSVG 341-->
<!DOCTYPE svg
PUBLIC "-//W3C//DTD SVG 1.1//EN"
       "http://www.w3.org/Graphics/SVG/1.1/DTD/svg11.dtd">
<svg version="1.1" xmlns="http://www.w3.org/2000/svg" xmlns:xlink="http://www.w3.org/1999/xlink" viewBox="0 0 3300 2200">
 <g id="Notes">
  <rect height="2200" id="artboard" style="fill:white;opacity:1" width="3300" x="0" y="0"/>
  <line style="fill:none;stroke:black;opacity:1;stroke-width:0.5;" x1="263" x2="3036" y1="292" y2="292"/>
  <text style="stroke:none;fill:black;font-family:sans-serif;font-size:13;font-weight:bold;" transform="matrix(1 0 0 1 263 322)">Weight/Scale Variations</text>
  <text style="stroke:none;fill:black;font-family:sans-serif;font-size:13;text-anchor:middle;" transform="matrix(1 0 0 1 559.711 322)">Ultralight</text>
  <text style="stroke:none;fill:black;font-family:sans-serif;font-size:13;text-anchor:middle;" transform="matrix(1 0 0 1 856.422 322)">Thin</text>
  <text style="stroke:none;fill:black;font-family:sans-serif;font-size:13;text-anchor:middle;" transform="matrix(1 0 0 1 1153.13 322)">Light</text>
  <text style="stroke:none;fill:black;font-family:sans-serif;font-size:13;text-anchor:middle;" transform="matrix(1 0 0 1 1449.84 322)">Regular</text>
  <text style="stroke:none;fill:black;font-family:sans-serif;font-size:13;text-anchor:middle;" transform="matrix(1 0 0 1 1746.56 322)">Medium</text>
  <text style="stroke:none;fill:black;font-family:sans-serif;font-size:13;text-anchor:middle;" transform="matrix(1 0 0 1 2043.27 322)">Semibold</text>
  <text style="stroke:none;fill:black;font-family:sans-serif;font-size:13;text-anchor:middle;" transform="matrix(1 0 0 1 2339.98 322)">Bold</text>
  <text style="stroke:none;fill:black;font-family:sans-serif;font-size:13;text-anchor:middle;" transform="matrix(1 0 0 1 2636.69 322)">Heavy</text>
  <text style="stroke:none;fill:black;font-family:sans-serif;font-size:13;text-anchor:middle;" transform="matrix(1 0 0 1 2933.4 322)">Black</text>
  <line style="fill:none;stroke:black;opacity:1;stroke-width:0.5;" x1="263" x2="3036" y1="1903" y2="1903"/>
  <g transform="matrix(0.2 0 0 0.2 263 1933)">
   <path d="m46.2402 4.15039c21.7773 0 39.4531-17.627 39.4531-39.4043s-17.6758-39.4043-39.4531-39.4043c-21.7285 0-39.4043 17.627-39.4043 39.4043s17.6758 39.4043 39.4043 39.4043Zm0-7.42188c-17.6758 0-31.9336-14.3066-31.9336-31.9824s14.2578-31.9824 31.9336-31.9824 31.9824 14.3066 31.9824 31.9824-14.3066 31.9824-31.9824 31.9824Zm3.61328-17.7734v-28.4668c0-2.24609-1.46484-3.75977-3.71094-3.75977-2.14844 0-3.61328 1.51367-3.61328 3.75977v28.4668c0 2.19727 1.46484 3.71094 3.61328 3.71094 2.24609 0 3.71094-1.51367 3.71094-3.71094Zm-17.8223-10.5957h28.418c2.19727 0 3.71094-1.46484 3.71094-3.61328 0-2.19727-1.51367-3.71094-3.71094-3.71094h-28.418c-2.24609 0-3.75977 1.51367-3.75977 3.71094 0 2.14844 1.51367 3.61328 3.75977 3.61328Z"/>
  </g>
  <g transform="matrix(0.2 0 0 0.2 281.506 1933)">
   <path d="m58.5449 14.5508c27.4902 0 49.8047-22.3145 49.8047-49.8047s-22.3145-49.8047-49.8047-49.8047-49.8047 22.3145-49.8047 49.8047 22.3145 49.8047 49.8047 49.8047Zm0-8.30078c-22.9492 0-41.5039-18.5547-41.5039-41.5039s18.5547-41.5039 41.5039-41.5039 41.5039 18.5547 41.5039 41.5039-18.5547 41.5039-41.5039 41.5039Zm4.05273-23.0957v-36.9141c0-2.49023-1.70898-4.19922-4.15039-4.19922-2.39258 0-4.05273 1.70898-4.05273 4.19922v36.9141c0 2.44141 1.66016 4.15039 4.05273 4.15039 2.44141 0 4.15039-1.66016 4.15039-4.15039Zm-22.5586-14.4043h36.9629c2.44141 0 4.15039-1.61133 4.15039-4.00391 0-2.44141-1.70898-4.15039-4.15039-4.15039h-36.9629c-2.49023 0-4.15039 1.70898-4.15039 4.15039 0 2.39258 1.66016 4.00391 4.15039 4.00391Z"/>
  </g>
  <g transform="matrix(0.2 0 0 0.2 304.924 1933)">
   <path d="m74.8535 28.3203c35.1074 0 63.623-28.4668 63.623-63.5742s-28.5156-63.623-63.623-63.623-63.5742 28.5156-63.5742 63.623 28.4668 63.5742 63.5742 63.5742Zm0-9.08203c-30.127 0-54.4922-24.3652-54.4922-54.4922s24.3652-54.4922 54.4922-54.4922 54.4922 24.3652 54.4922 54.4922-24.3652 54.4922-54.4922 54.4922Zm4.44336-30.3223v-48.4863c0-2.73438-1.85547-4.63867-4.54102-4.63867-2.58789 0-4.44336 1.9043-4.44336 4.63867v48.4863c0 2.68555 1.85547 4.58984 4.44336 4.58984 2.68555 0 4.54102-1.85547 4.54102-4.58984Zm-28.7109-19.7754h48.4863c2.68555 0 4.58984-1.80664 4.58984-4.39453 0-2.73438-1.85547-4.58984-4.58984-4.58984h-48.4863c-2.73438 0-4.58984 1.85547-4.58984 4.58984 0 2.58789 1.85547 4.39453 4.58984 4.39453Z"/>
  </g>
  <text style="stroke:none;fill:black;font-family:sans-serif;font-size:13;font-weight:bold;" transform="matrix(1 0 0 1 263 1953)">Design Variations</text>
  <text style="stroke:none;fill:black;font-family:sans-serif;font-size:13;" transform="matrix(1 0 0 1 263 1971)">Symbols are supported in up to nine weights and three scales.</text>
  <text style="stroke:none;fill:black;font-family:sans-serif;font-size:13;" transform="matrix(1 0 0 1 263 1989)">For optimal layout with text and other symbols, vertically align</text>
  <text style="stroke:none;fill:black;font-family:sans-serif;font-size:13;" transform="matrix(1 0 0 1 263 2007)">symbols with the adjacent text.</text>
  <line style="fill:none;stroke:#00AEEF;stroke-width:0.5;opacity:1.0;" x1="776" x2="776" y1="1919" y2="1933"/>
  <g transform="matrix(0.2 0 0 0.2 776 1933)">
   <path d="m16.5527 0.78125c2.58789 0 3.85742-0.976562 4.78516-3.71094l20.5566-57.5195h0.244141l20.6055 57.5195c0.927734 2.73438 2.19727 3.71094 4.73633 3.71094 2.58789 0 4.24805-1.5625 4.24805-4.00391 0-0.830078-0.146484-1.61133-0.537109-2.63672l-22.9004-60.9863c-1.12305-2.97852-3.125-4.49219-6.25-4.49219-3.02734 0-5.07812 1.46484-6.15234 4.44336l-22.9004 61.084c-0.390625 1.02539-0.537109 1.80664-0.537109 2.63672 0 2.44141 1.5625 3.95508 4.10156 3.95508Zm10.2051-20.9473h30.6641c2.00195 0 3.66211-1.66016 3.66211-3.66211 0-2.05078-1.66016-3.66211-3.66211-3.66211h-30.6641c-2.00195 0-3.66211 1.61133-3.66211 3.66211 0 2.00195 1.66016 3.66211 3.66211 3.66211Z"/>
  </g>
  <line style="fill:none;stroke:#00AEEF;stroke-width:0.5;opacity:1.0;" x1="792.836" x2="792.836" y1="1919" y2="1933"/>
  <text style="stroke:none;fill:black;font-family:sans-serif;font-size:13;font-weight:bold;" transform="matrix(1 0 0 1 776 1953)">Margins</text>
  <text style="stroke:none;fill:black;font-family:sans-serif;font-size:13;" transform="matrix(1 0 0 1 776 1971)">Leading and trailing margins on the left and right side of each symbol</text>
  <text style="stroke:none;fill:black;font-family:sans-serif;font-size:13;" transform="matrix(1 0 0 1 776 1989)">can be adjusted by modifying the x-location of the margin guidelines.</text>
  <text style="stroke:none;fill:black;font-family:sans-serif;font-size:13;" transform="matrix(1 0 0 1 776 2007)">Modifications are automatically applied proportionally to all</text>
  <text style="stroke:none;fill:black;font-family:sans-serif;font-size:13;" transform="matrix(1 0 0 1 776 2025)">scales and weights.</text>
  <g transform="matrix(0.2 0 0 0.2 1289 1933)">
   <path d="m14.209 13.1348 7.86133 7.86133c4.29688 4.39453 9.32617 4.10156 13.8672-1.02539l60.6934-68.2129-4.88281-4.88281-60.2539 67.6758c-1.80664 1.95312-3.4668 2.44141-5.81055 0.0976562l-5.17578-5.12695c-2.29492-2.29492-1.80664-3.95508 0.195312-5.81055l67.4805-62.1582-4.88281-4.83398-68.0664 62.5977c-4.98047 4.58984-5.32227 9.47266-1.02539 13.8184Zm44.873-97.4609c-2.05078 2.00195-2.24609 4.88281-1.07422 6.78711 1.12305 1.80664 3.4668 3.02734 6.5918 2.24609 5.85938-1.66016 12.5977-2.39258 18.8965 0.927734l-2.68555 7.12891c-1.61133 4.00391-0.732422 6.88477 1.70898 9.42383l10.2539 10.3027c2.34375 2.39258 4.54102 2.44141 7.08008 1.95312l4.44336-0.732422 2.58789 2.53906-0.195312 2.24609c-0.0976562 2.29492 0.537109 4.29688 2.7832 6.49414l3.36914 3.32031c2.29492 2.29492 5.51758 2.49023 7.8125 0.195312l12.9883-13.0371c2.29492-2.34375 2.14844-5.37109-0.195312-7.66602l-3.41797-3.41797c-2.19727-2.19727-4.05273-3.02734-6.34766-2.88086l-2.34375 0.244141-2.44141-2.44141 1.02539-4.6875c0.634766-2.73438-0.244141-4.98047-2.88086-7.61719l-11.2793-11.1816c-12.9395-12.8418-35.5957-11.0352-46.6797-0.146484Zm7.08008 2.05078c8.78906-6.39648 25.9766-5.66406 33.6914 1.95312l12.3047 12.207c1.02539 1.02539 1.2207 1.80664 0.927734 3.32031l-1.46484 6.64062 6.73828 6.68945 4.39453-0.244141c1.12305-0.0488281 1.51367 0.0488281 2.34375 0.878906l2.53906 2.49023-10.8398 10.8398-2.49023-2.49023c-0.830078-0.878906-0.976562-1.2207-0.927734-2.39258l0.292969-4.3457-6.68945-6.73828-6.83594 1.17188c-1.41602 0.292969-2.05078 0.195312-3.17383-0.878906l-8.93555-8.88672c-1.07422-1.02539-1.17188-1.70898-0.488281-3.36914l4.58984-11.4746c-6.10352-6.34766-17.041-7.51953-25.5859-4.58984-0.683594 0.244141-0.927734-0.390625-0.390625-0.78125Z"/>
  </g>
  <text style="stroke:none;fill:black;font-family:sans-serif;font-size:13;font-weight:bold;" transform="matrix(1 0 0 1 1289 1953)">Exporting</text>
  <text style="stroke:none;fill:black;font-family:sans-serif;font-size:13;" transform="matrix(1 0 0 1 1289 1971)">Symbols should be outlined when exporting to ensure the</text>
  <text style="stroke:none;fill:black;font-family:sans-serif;font-size:13;" transform="matrix(1 0 0 1 1289 1989)">design is preserved when submitting to Xcode.</text>
  <text id="template-version" style="stroke:none;fill:black;font-family:sans-serif;font-size:13;text-anchor:end;" transform="matrix(1 0 0 1 3036 1933)">Template v.2.0</text>
  <text style="stroke:none;fill:black;font-family:sans-serif;font-size:13;text-anchor:end;" transform="matrix(1 0 0 1 3036 1951)">Requires Xcode 12 or greater</text>
  <text id="descriptive-name" style="stroke:none;fill:black;font-family:sans-serif;font-size:13;text-anchor:end;" transform="matrix(1 0 0 1 3036 1969)">Generated from globe</text>
  <text style="stroke:none;fill:black;font-family:sans-serif;font-size:13;text-anchor:end;" transform="matrix(1 0 0 1 3036 1987)">Typeset at 100.0 points</text>
  <text style="stroke:none;fill:black;font-family:sans-serif;font-size:13;" transform="matrix(1 0 0 1 263 726)">Small</text>
  <text style="stroke:none;fill:black;font-family:sans-serif;font-size:13;" transform="matrix(1 0 0 1 263 1156)">Medium</text>
  <text style="stroke:none;fill:black;font-family:sans-serif;font-size:13;" transform="matrix(1 0 0 1 263 1586)">Large</text>
 </g>
 <g id="Guides">
  <g id="H-reference" style="fill:#27AAE1;stroke:none;" transform="matrix(1 0 0 1 339 696)">
   <path d="M0.993654 0L3.63775 0L29.3281-67.1323L30.0303-67.1323L30.0303-70.459L28.1226-70.459ZM11.6885-24.4799L46.9815-24.4799L46.2315-26.7285L12.4385-26.7285ZM55.1196 0L57.7637 0L30.6382-70.459L29.4326-70.459L29.4326-67.1323Z"/>
  </g>
  <line id="Baseline-S" style="fill:none;stroke:#27AAE1;opacity:1;stroke-width:0.5;" x1="263" x2="3036" y1="696" y2="696"/>
  <line id="Capline-S" style="fill:none;stroke:#27AAE1;opacity:1;stroke-width:0.5;" x1="263" x2="3036" y1="625.541" y2="625.541"/>
  <g id="H-reference" style="fill:#27AAE1;stroke:none;" transform="matrix(1 0 0 1 339 1126)">
   <path d="M0.993654 0L3.63775 0L29.3281-67.1323L30.0303-67.1323L30.0303-70.459L28.1226-70.459ZM11.6885-24.4799L46.9815-24.4799L46.2315-26.7285L12.4385-26.7285ZM55.1196 0L57.7637 0L30.6382-70.459L29.4326-70.459L29.4326-67.1323Z"/>
  </g>
  <line id="Baseline-M" style="fill:none;stroke:#27AAE1;opacity:1;stroke-width:0.5;" x1="263" x2="3036" y1="1126" y2="1126"/>
  <line id="Capline-M" style="fill:none;stroke:#27AAE1;opacity:1;stroke-width:0.5;" x1="263" x2="3036" y1="1055.54" y2="1055.54"/>
  <g id="H-reference" style="fill:#27AAE1;stroke:none;" transform="matrix(1 0 0 1 339 1556)">
   <path d="M0.993654 0L3.63775 0L29.3281-67.1323L30.0303-67.1323L30.0303-70.459L28.1226-70.459ZM11.6885-24.4799L46.9815-24.4799L46.2315-26.7285L12.4385-26.7285ZM55.1196 0L57.7637 0L30.6382-70.459L29.4326-70.459L29.4326-67.1323Z"/>
  </g>
  <line id="Baseline-L" style="fill:none;stroke:#27AAE1;opacity:1;stroke-width:0.5;" x1="263" x2="3036" y1="1556" y2="1556"/>
  <line id="Capline-L" style="fill:none;stroke:#27AAE1;opacity:1;stroke-width:0.5;" x1="263" x2="3036" y1="1485.54" y2="1485.54"/>
  <line id="right-margin" style="fill:none;stroke:#00AEEF;stroke-width:0.5;opacity:1.0;" x1="1508.37" x2="1508.37" y1="1030.79" y2="1150.12"/>
  <line id="left-margin" style="fill:none;stroke:#00AEEF;stroke-width:0.5;opacity:1.0;" x1="1391.32" x2="1391.32" y1="1030.79" y2="1150.12"/>
 </g>
 <g id="Symbols">
  <g id="Black-L" transform="matrix(1 0 0 1 2854.19 1556)">
   <path d="M79.1958 22.0794C97.8677 22.0794 112.752-3.22 112.752-35.1089C112.752-67.1186 97.8885-92.4972 79.1958-92.4972C60.5031-92.4972 45.6608-67.1186 45.6608-35.1089C45.6608-3.22 60.5239 22.0794 79.1958 22.0794ZM79.1958 11.8311C67.6678 11.8311 56.5756-10.9598 56.5756-35.1089C56.5756-59.3651 67.6678-82.2489 79.1958-82.2489C90.7446-82.2489 101.837-59.3651 101.837-35.1089C101.837-11.0766 90.7446 11.8311 79.1958 11.8311ZM79.1958 25.9414C82.1518 25.9414 84.5728 23.5216 84.5728 20.5644L84.5728-91.0541C84.5728-94.0113 82.1518-96.4311 79.1958-96.4311C76.2594-96.4311 73.8188-94.0113 73.8188-91.0541L73.8188 20.5644C73.8188 23.5216 76.2594 25.9414 79.1958 25.9414ZM39.7734 1.31858C47.2933-4.36217 62.4453-7.80704 79.1958-7.80704C95.9671-7.80704 111.098-4.36217 118.639 1.31858C120.865 3.14625 124.156 3.02989 126.102 0.868554C127.99-1.29278 127.737-4.68485 125.591-6.63098C116.987-13.8881 99.0947-18.5622 79.1958-18.5622C59.3177-18.5622 41.4256-13.8881 32.8211-6.63098C30.6754-4.68485 30.4226-1.29278 32.3091 0.868554C34.2564 3.02989 37.5265 3.14625 39.7734 1.31858ZM23.8017-29.8927L135.005-29.8927C137.962-29.8927 140.382-32.3125 140.382-35.2697C140.382-38.2269 137.962-40.6467 135.005-40.6467L23.8017-40.6467C20.8457-40.6467 18.4247-38.2269 18.4247-35.2697C18.4247-32.3125 20.8457-29.8927 23.8017-29.8927ZM79.1958-51.6555C99.0947-51.6555 116.987-56.3296 125.591-63.5867C127.737-65.5329 127.99-68.9249 126.102-71.0863C124.156-73.2476 120.865-73.364 118.639-71.5363C111.098-65.8556 95.9671-62.4107 79.1958-62.4107C62.4453-62.4107 47.2933-65.8556 39.7734-71.5363C37.5265-73.364 34.2564-73.2476 32.3091-71.0863C30.4226-68.9249 30.6754-65.5329 32.8211-63.5867C41.4256-56.3296 59.3177-51.6555 79.1958-51.6555ZM79.1958 32.6673C116.725 32.6673 147.154 2.25907 147.154-35.2697C147.154-72.7985 116.725-103.207 79.1958-103.207C41.6878-103.207 11.2588-72.7985 11.2588-35.2697C11.2588 2.25907 41.6878 32.6673 79.1958 32.6673ZM79.1958 17.2744C50.2125 17.2744 26.6726-6.28639 26.6726-35.2697C26.6726-64.253 50.2125-87.8138 79.1958-87.8138C108.179-87.8138 131.74-64.253 131.74-35.2697C131.74-6.28639 108.179 17.2744 79.1958 17.2744Z" data-clipstroke-keyframes="0 4 0 0.50183284 1.499055 0 0.25148016 0.25034943 1.7497869 0 0.50055116 0.0012784997 1.9991565 0 0.7511795 0.7506534 1.249262 0 1 0.50183284 1.4988219 8 0 2.251274 2.7487295 0 1 2.4650354 2.5349681 0 1 2.9646113 2.0353923 8 0 3.6952214 3.1911976 0 1 3.3856225 3.4684749 0 1 3.9226239 3.0012808 8 0 4.717439 4.2166557 0 1 4.939904 4.9931607 0 1 4.4299207 4.504192 8 0 5.9981136 5.502014 0 1 5.226513 5.3074517 0 1 5.69435 5.7739034 4 0 6.501329 7.4986734 0 0.25053608 6.2507935 7.749208 0 0.4995304 6.0018 7.998202 0 0.75259465 6.748735 7.2512636 0 1 6.501329 7.4986734"/>
  </g>
  <g id="Heavy-L" transform="matrix(1 0 0 1 2558.42 1556)">
   <path d="M78.2532 22.8838C96.6007 22.8838 111.36-2.4964 111.36-35.1089C111.36-67.8565 96.6309-93.3115 78.2532-93.3115C59.8756-93.3115 45.1771-67.8565 45.1771-35.1089C45.1771-2.4964 59.9058 22.8838 78.2532 22.8838ZM78.2532 13.3566C66.5007 13.3566 55.389-9.97096 55.389-35.1089C55.389-60.4798 66.5007-83.7843 78.2532-83.7843C90.036-83.7843 101.148-60.4798 101.148-35.1089C101.148-10.0602 90.036 13.3566 78.2532 13.3566ZM78.2532 26.1728C81.0156 26.1728 83.2788 23.9152 83.2788 21.1472L83.2788-91.5344C83.2788-94.3023 81.0156-96.56 78.2532-96.56C75.5155-96.56 73.2277-94.3023 73.2277-91.5344L73.2277 21.1472C73.2277 23.9152 75.5155 26.1728 78.2532 26.1728ZM38.8506 2.64344C46.6021-3.26722 61.3902-6.75786 78.2532-6.75786C95.1465-6.75786 109.904-3.26722 117.686 2.64344C119.791 4.36297 122.842 4.30282 124.686 2.2998C126.485 0.29679 126.311-2.86522 124.286-4.7087C115.71-12.0236 98.0258-16.8146 78.2532-16.8146C58.5108-16.8146 40.8262-12.0236 32.2504-4.7087C30.226-2.86522 30.052 0.29679 31.8453 2.2998C33.6944 4.30282 36.7156 4.36297 38.8506 2.64344ZM22.5105-30.2442L134.594-30.2442C137.362-30.2442 139.62-32.5018 139.62-35.2697C139.62-38.0376 137.362-40.2952 134.594-40.2952L22.5105-40.2952C19.7482-40.2952 17.4849-38.0376 17.4849-35.2697C17.4849-32.5018 19.7482-30.2442 22.5105-30.2442ZM78.2532-53.4032C98.0258-53.4032 115.71-58.1941 124.286-65.509C126.311-67.3525 126.485-70.5145 124.686-72.5175C122.842-74.5205 119.791-74.5807 117.686-72.8612C109.904-66.9505 95.1465-63.4599 78.2532-63.4599C61.3902-63.4599 46.6021-66.9505 38.8506-72.8612C36.7156-74.5807 33.6944-74.5205 31.8453-72.5175C30.052-70.5145 30.226-67.3525 32.2504-65.509C40.8262-58.1941 58.5108-53.4032 78.2532-53.4032ZM78.2532 31.7248C115.263 31.7248 145.278 1.74009 145.278-35.2697C145.278-72.2795 115.263-102.264 78.2532-102.264C41.2736-102.264 11.2588-72.2795 11.2588-35.2697C11.2588 1.74009 41.2736 31.7248 78.2532 31.7248ZM78.2532 18.0724C48.8276 18.0724 24.9414-5.84409 24.9414-35.2697C24.9414-64.6953 48.8276-88.6118 78.2532-88.6118C107.679-88.6118 131.595-64.6953 131.595-35.2697C131.595-5.84409 107.679 18.0724 78.2532 18.0724Z" data-clipstroke-keyframes="0 4 0 0.50178474 1.499027 0 0.25143346 0.25034744 1.7498109 0 0.5005256 0.001255589 1.9991604 0 0.75109774 0.7506873 1.2492005 0 1 0.50178474 1.4988109 8 0 2.2512643 2.748695 0 1 2.467107 2.5328522 0 1 2.9666786 2.0332804 8 0 3.6975307 3.1941247 0 1 3.3909466 3.4699206 0 1 3.9265373 3.0006013 8 0 4.720353 4.2179413 0 1 4.9437566 4.993576 0 1 4.434322 4.504057 8 0 5.998309 5.501849 0 1 5.227938 5.3046355 0 1 5.696953 5.773155 4 0 6.501349 7.4986553 0 0.25054592 6.250804 7.749199 0 0.4995504 6.0018005 7.9982014 0 0.7526045 6.748745 7.251255 0 1 6.501349 7.4986553"/>
  </g>
  <g id="Bold-L" transform="matrix(1 0 0 1 2262.89 1556)">
   <path d="M77.0704 23.7783C94.9586 23.7783 109.594-1.58255 109.594-35.1089C109.594-68.7783 94.9966-94.2064 77.0704-94.2064C59.1442-94.2064 44.5852-68.7783 44.5852-35.1089C44.5852-1.58255 59.1822 23.7783 77.0704 23.7783ZM77.0704 15.2692C64.989 15.2692 53.8021-8.74167 53.8021-35.1089C53.8021-61.8926 64.989-85.6973 77.0704-85.6973C89.1898-85.6973 100.377-61.8926 100.377-35.1089C100.377-8.80008 89.1898 15.2692 77.0704 15.2692ZM77.0704 26.3379C79.5572 26.3379 81.5984 24.3099 81.5984 21.8099L81.5984-92.1038C81.5984-94.6039 79.5572-96.6318 77.0704-96.6318C74.6084-96.6318 72.5424-94.6039 72.5424-92.1038L72.5424 21.8099C72.5424 24.3099 74.6084 26.3379 77.0704 26.3379ZM37.6014 4.1014C45.6522-2.06377 60.0466-5.60828 77.0704-5.60828C94.1322-5.60828 108.489-2.06377 116.577 4.1014C118.506 5.66785 121.228 5.65451 122.911 3.86607C124.565 2.07763 124.469-0.762793 122.62-2.44595C114.061-9.7854 96.6669-14.6776 77.0704-14.6776C57.5119-14.6776 40.1182-9.7854 31.5583-2.44595C29.7099-0.762793 29.6134 2.07763 31.2541 3.86607C32.9505 5.65451 35.6345 5.66785 37.6014 4.1014ZM20.86-30.7417L134.027-30.7417C136.527-30.7417 138.555-32.7697 138.555-35.2697C138.555-37.7697 136.527-39.7977 134.027-39.7977L20.86-39.7977C18.3732-39.7977 16.332-37.7697 16.332-35.2697C16.332-32.7697 18.3732-30.7417 20.86-30.7417ZM77.0704-55.5402C96.6669-55.5402 114.061-60.4323 122.62-67.7718C124.469-69.4549 124.565-72.2954 122.911-74.0838C121.228-75.8722 118.506-75.8856 116.577-74.3191C108.489-68.154 94.1322-64.6094 77.0704-64.6094C60.0466-64.6094 45.6522-68.154 37.6014-74.3191C35.6345-75.8856 32.9505-75.8722 31.2541-74.0838C29.6134-72.2954 29.7099-69.4549 31.5583-67.7718C40.1182-60.4323 57.5119-55.5402 77.0704-55.5402ZM77.0704 30.5419C113.427 30.5419 142.92 1.08726 142.92-35.2697C142.92-71.6267 113.427-101.081 77.0704-101.081C40.7514-101.081 11.2588-71.6267 11.2588-35.2697C11.2588 1.08726 40.7514 30.5419 77.0704 30.5419ZM77.0704 19.0561C47.0992 19.0561 22.7826-5.29846 22.7826-35.2697C22.7826-65.2409 47.0992-89.5955 77.0704-89.5955C107.042-89.5955 131.396-65.2409 131.396-35.2697C131.396-5.29846 107.042 19.0561 77.0704 19.0561Z" data-clipstroke-keyframes="0 4 0 0.501741 1.4990054 0 0.2513742 0.25036278 1.7498422 0 0.5004908 0.0012470112 1.9991314 0 0.75103563 0.7507062 1.2491513 0 1 0.501741 1.4987867 8 0 2.2512388 2.7486353 0 1 2.4699633 2.5299108 0 1 2.9695294 2.0303447 8 0 3.7011945 3.1984994 0 1 3.3990726 3.472218 0 1 3.932287 3.9999056 8 0 4.724061 4.2201357 0 1 4.94917 4.99416 0 1 4.4405932 4.5038047 8 0 5.998538 5.501654 0 1 5.229777 5.3005085 0 1 5.70092 5.7718134 4 0 6.501366 7.498641 0 0.25055408 6.2508125 7.7491913 0 0.4995671 6.0018005 7.9982014 0 0.75261265 6.748754 7.2512484 0 1 6.501366 7.498641"/>
  </g>
  <g id="Semibold-L" transform="matrix(1 0 0 1 1966.99 1556)">
   <path d="M76.2549 24.395C93.8266 24.395 108.376-0.952552 108.376-35.1089C108.376-69.4138 93.8699-94.8233 76.2549-94.8233C58.64-94.8233 44.1772-69.4138 44.1772-35.1089C44.1772-0.952552 58.6833 24.395 76.2549 24.395ZM76.2549 16.5878C63.9468 16.5878 52.7081-7.8942 52.7081-35.1089C52.7081-62.8666 63.9468-87.0161 76.2549-87.0161C88.6064-87.0161 99.8452-62.8666 99.8452-35.1089C99.8452-7.93135 88.6064 16.5878 76.2549 16.5878ZM76.2549 26.4518C78.5518 26.4518 80.44 24.5821 80.44 22.2667L80.44-92.4964C80.44-94.8117 78.5518-96.6814 76.2549-96.6814C73.983-96.6814 72.0699-94.8117 72.0699-92.4964L72.0699 22.2667C72.0699 24.5821 73.983 26.4518 76.2549 26.4518ZM36.7402 5.10651C44.9974-1.23412 59.1204-4.81578 76.2549-4.81578C93.4329-4.81578 107.513-1.23412 115.813 5.10651C117.621 6.56742 120.116 6.58635 121.688 4.94584C123.242 3.30533 123.199 0.686608 121.472-0.886013C112.923-8.24236 95.73-13.2043 76.2549-13.2043C56.8232-13.2043 39.6301-8.24236 31.0813-0.886013C29.3541 0.686608 29.311 3.30533 30.8466 4.94584C32.4377 6.58635 34.8893 6.56742 36.7402 5.10651ZM19.7222-31.0847L133.636-31.0847C135.952-31.0847 137.822-32.9544 137.822-35.2697C137.822-37.585 135.952-39.4547 133.636-39.4547L19.7222-39.4547C17.4254-39.4547 15.5372-37.585 15.5372-35.2697C15.5372-32.9544 17.4254-31.0847 19.7222-31.0847ZM76.2549-57.0134C95.73-57.0134 112.923-61.9754 121.472-69.3317C123.199-70.9043 123.242-73.5231 121.688-75.1636C120.116-76.8041 117.621-76.7851 115.813-75.3242C107.513-68.9836 93.4329-65.4019 76.2549-65.4019C59.1204-65.4019 44.9974-68.9836 36.7402-75.3242C34.8893-76.7851 32.4377-76.8041 30.8466-75.1636C29.311-73.5231 29.3541-70.9043 31.0813-69.3317C39.6301-61.9754 56.8232-57.0134 76.2549-57.0134ZM76.2549 29.7265C112.162 29.7265 141.294 0.637211 141.294-35.2697C141.294-71.1766 112.162-100.266 76.2549-100.266C40.3914-100.266 11.2588-71.1766 11.2588-35.2697C11.2588 0.637211 40.3914 29.7265 76.2549 29.7265ZM76.2549 19.7342C45.9076 19.7342 21.2944-4.92231 21.2944-35.2697C21.2944-65.6171 45.9076-90.2736 76.2549-90.2736C106.602-90.2736 131.259-65.6171 131.259-35.2697C131.259-4.92231 106.602 19.7342 76.2549 19.7342Z" data-clipstroke-keyframes="0 4 0 0.50171053 1.4989918 0 0.25133336 0.2503733 1.749863 0 0.5004668 0.0012410973 1.9991115 0 0.7509928 0.75071895 1.2491199 0 1 0.50171053 1.4987714 8 0 2.2512207 2.7485933 0 1 2.4719398 2.5278745 0 1 2.9715018 2.0283124 8 0 3.7037978 3.2016027 0 1 3.4048338 3.4738512 0 1 3.9363623 3.999446 8 0 4.7266407 4.2216496 0 1 4.9529204 4.994569 0 1 4.4449477 4.5036263 8 0 5.9986978 5.501515 0 1 5.2310767 5.297589 0 1 5.7037396 5.7708607 4 0 6.5013785 7.498631 0 0.25055975 6.2508187 7.7491865 0 0.49957857 6.0018005 7.9982014 0 0.75261825 6.74876 7.2512436 0 1 6.5013785 7.498631"/>
  </g>
  <g id="Medium-L" transform="matrix(1 0 0 1 1670.9 1556)">
   <path d="M75.6366 24.8626C92.9682 24.8626 107.453-0.474861 107.453-35.1089C107.453-69.8957 93.0156-95.2911 75.6366-95.2911C58.2576-95.2911 43.8678-69.8957 43.8678-35.1089C43.8678-0.474861 58.3051 24.8626 75.6366 24.8626ZM75.6366 17.5875C63.1566 17.5875 51.8786-7.25162 51.8786-35.1089C51.8786-63.6051 63.1566-88.016 75.6366-88.016C88.1641-88.016 99.4422-63.6051 99.4422-35.1089C99.4422-7.27264 88.1641 17.5875 75.6366 17.5875ZM75.6366 26.5381C77.7895 26.5381 79.5616 24.7884 79.5616 22.6131L79.5616-92.794C79.5616-94.9693 77.7895-96.719 75.6366-96.719C73.5088-96.719 71.7117-94.9693 71.7117-92.794L71.7117 22.6131C71.7117 24.7884 73.5088 26.5381 75.6366 26.5381ZM36.0872 5.86862C44.5008-0.605043 58.4181-4.21486 75.6366-4.21486C92.9026-4.21486 106.772-0.605043 115.234 5.86862C116.949 7.24952 119.272 7.29292 120.761 5.76457C122.239 4.23623 122.236 1.7856 120.601 0.296793C112.061-7.07237 95.0196-12.0873 75.6366-12.0873C56.3011-12.0873 39.26-7.07237 30.7195 0.296793C29.0843 1.7856 29.0817 4.23623 30.5376 5.76457C32.0488 7.29292 34.3242 7.24952 36.0872 5.86862ZM18.8595-31.3447L133.34-31.3447C135.516-31.3447 137.265-33.0944 137.265-35.2697C137.265-37.445 135.516-39.1947 133.34-39.1947L18.8595-39.1947C16.7066-39.1947 14.9345-37.445 14.9345-35.2697C14.9345-33.0944 16.7066-31.3447 18.8595-31.3447ZM75.6366-58.1305C95.0196-58.1305 112.061-63.1454 120.601-70.5145C122.236-72.0033 122.239-74.4539 120.761-75.9823C119.272-77.5106 116.949-77.4672 115.234-76.0863C106.772-69.6127 92.9026-66.0029 75.6366-66.0029C58.4181-66.0029 44.5008-69.6127 36.0872-76.0863C34.3242-77.4672 32.0488-77.5106 30.5376-75.9823C29.0817-74.4539 29.0843-72.0033 30.7195-70.5145C39.26-63.1454 56.3011-58.1305 75.6366-58.1305ZM75.6366 29.1081C111.202 29.1081 140.062 0.295961 140.062-35.2697C140.062-70.8354 111.202-99.6475 75.6366-99.6475C40.1184-99.6475 11.2588-70.8354 11.2588-35.2697C11.2588 0.295961 40.1184 29.1081 75.6366 29.1081ZM75.6366 20.2484C45.004 20.2484 20.166-4.6371 20.166-35.2697C20.166-65.9023 45.004-90.7878 75.6366-90.7878C106.269-90.7878 131.155-65.9023 131.155-35.2697C131.155-4.6371 106.269 20.2484 75.6366 20.2484Z" data-clipstroke-keyframes="0 4 0 0.5016872 1.4989822 0 0.2513024 0.25038126 1.7498785 0 0.50044864 0.001236613 1.9990964 0 0.7509603 0.75072855 1.2490971 0 1 0.5016872 1.4987605 8 0 2.2512069 2.7485611 0 1 2.4734423 2.5263257 0 1 2.9730015 2.0267665 8 0 3.70591 3.2040994 0 1 3.4094808 3.475333 0 1 3.9394877 3.9991086 8 0 4.72861 4.2227983 0 1 4.9557743 4.9948826 0 1 4.448267 4.5034885 8 0 5.998821 5.501407 0 1 5.231959 5.295239 0 1 5.7060194 5.7702436 4 0 6.5013885 7.498624 0 0.25056404 6.250824 7.749183 0 0.4995873 6.0018005 7.9982014 0 0.75262254 6.7487655 7.2512403 0 1 6.5013885 7.498624"/>
  </g>
  <g id="Regular-L" transform="matrix(1 0 0 1 1374.99 1556)">
   <path d="M74.8301 25.4724C91.8486 25.4724 106.249 0.148215 106.249-35.1089C106.249-70.5242 91.9013-95.9012 74.8301-95.9012C57.759-95.9012 43.4642-70.5242 43.4642-35.1089C43.4642 0.148215 57.8117 25.4724 74.8301 25.4724ZM74.8301 18.8916C62.126 18.8916 50.7966-6.41346 50.7966-35.1089C50.7966-64.5684 62.126-89.3203 74.8301-89.3203C87.5871-89.3203 98.9165-64.5684 98.9165-35.1089C98.9165-6.41346 87.5871 18.8916 74.8301 18.8916ZM74.8301 26.6507C76.7951 26.6507 78.4159 25.0576 78.4159 23.0649L78.4159-93.1822C78.4159-95.1749 76.7951-96.768 74.8301-96.768C72.8903-96.768 71.2444-95.1749 71.2444-93.1822L71.2444 23.0649C71.2444 25.0576 72.8903 26.6507 74.8301 26.6507ZM35.2355 6.86269C43.8532 0.21549 57.502-3.43106 74.8301-3.43106C92.211-3.43106 105.807 0.21549 114.478 6.86269C116.073 8.13921 118.171 8.21452 119.551 6.83248C120.93 5.45043 120.981 3.21908 119.465 1.83958C110.936-5.5463 94.0931-10.6302 74.8301-10.6302C55.62-10.6302 38.7773-5.5463 30.2477 1.83958C28.7325 3.21908 28.7827 5.45043 30.1345 6.83248C31.5417 8.21452 33.5871 8.13921 35.2355 6.86269ZM17.7342-31.684L132.954-31.684C134.946-31.684 136.539-33.2771 136.539-35.2697C136.539-37.2623 134.946-38.8554 132.954-38.8554L17.7342-38.8554C15.7692-38.8554 14.1484-37.2623 14.1484-35.2697C14.1484-33.2771 15.7692-31.684 17.7342-31.684ZM74.8301-59.5875C94.0931-59.5875 110.936-64.6714 119.465-72.0573C120.981-73.4368 120.93-75.6682 119.551-77.0502C118.171-78.4322 116.073-78.3569 114.478-77.0804C105.807-70.4332 92.211-66.7867 74.8301-66.7867C57.502-66.7867 43.8532-70.4332 35.2355-77.0804C33.5871-78.3569 31.5417-78.4322 30.1345-77.0502C28.7827-75.6682 28.7325-73.4368 30.2477-72.0573C38.7773-64.6714 55.62-59.5875 74.8301-59.5875ZM74.8301 28.3017C109.951 28.3017 138.454-0.149147 138.454-35.2697C138.454-70.3903 109.951-98.8411 74.8301-98.8411C39.7624-98.8411 11.2588-70.3903 11.2588-35.2697C11.2588-0.149147 39.7624 28.3017 74.8301 28.3017ZM74.8301 20.9191C43.8255 20.9191 18.6941-4.26508 18.6941-35.2697C18.6941-66.2743 43.8255-91.4585 74.8301-91.4585C105.835-91.4585 131.019-66.2743 131.019-35.2697C131.019-4.26508 105.835 20.9191 74.8301 20.9191Z" data-clipstroke-keyframes="0 4 0 0.50165665 1.498971 0 0.251262 0.25039154 1.7497385 0 0.5004249 0.0012307636 1.9990761 0 0.7509179 0.7507409 1.2492288 0 1 0.50165665 1.4987476 8 0 2.251188 2.748519 0 1 2.4754076 2.5242991 0 1 2.9749627 2.024744 8 0 3.7086005 3.2072997 0 1 3.4154165 3.4770248 0 1 3.9436824 3.998684 8 0 4.731196 4.224298 0 1 4.95951 4.995296 0 1 4.452619 4.5033054 8 0 5.9989815 5.5012627 0 1 5.23329 5.2922406 0 1 5.7089334 5.7692633 4 0 6.5014014 7.4986153 0 0.25056964 6.25083 7.7491784 0 0.49959865 6.0018005 7.998201 0 0.75262815 6.7487717 7.251236 0 1 6.5014014 7.4986153"/>
  </g>
  <g id="Light-L" transform="matrix(1 0 0 1 1079.2 1556)">
   <path d="M73.9141 25.4343C90.2454 25.4343 104.76 0.89254 104.76-35.1089C104.76-71.2113 90.2791-95.7867 73.9141-95.7867C57.549-95.7867 43.1016-71.2113 43.1016-35.1089C43.1016 0.89254 57.5827 25.4343 73.9141 25.4343ZM73.9141 20.3611C60.6564 20.3611 48.9453-5.53554 48.9453-35.1089C48.9453-65.7517 60.6564-90.7136 73.9141-90.7136C87.2054-90.7136 98.9165-65.7517 98.9165-35.1089C98.9165-5.53554 87.2054 20.3611 73.9141 20.3611ZM73.9141 25.9827C75.4592 25.9827 76.7555 24.7331 76.7555 23.1413L76.7555-93.4113C76.7555-95.0031 75.4592-96.2527 73.9141-96.2527C72.3559-96.2527 71.0726-95.0031 71.0726-93.4113L71.0726 23.1413C71.0726 24.7331 72.3559 25.9827 73.9141 25.9827ZM33.6896 6.69092C42.5935 0.0628076 56.3378-3.60283 73.9141-3.60283C91.524-3.60283 105.235 0.0628076 114.172 6.69092C115.482 7.73841 117.141 7.69922 118.196 6.58437C119.251 5.46952 119.225 3.69621 117.996 2.64116C109.352-4.45844 92.9289-9.33241 73.9141-9.33241C54.9329-9.33241 38.5101-4.45844 29.866 2.64116C28.637 3.69621 28.6109 5.46952 29.6192 6.58437C30.721 7.69922 32.3465 7.73841 33.6896 6.69092ZM16.2646-32.4283L132.19-32.4283C133.782-32.4283 135.032-33.6778 135.032-35.2697C135.032-36.8616 133.782-38.1111 132.19-38.1111L16.2646-38.1111C14.7195-38.1111 13.4232-36.8616 13.4232-35.2697C13.4232-33.6778 14.7195-32.4283 16.2646-32.4283ZM73.9141-60.8853C92.9289-60.8853 109.352-65.7593 117.996-72.8589C119.225-73.9139 119.251-75.6872 118.196-76.8021C117.141-77.9169 115.482-77.9561 114.172-76.9086C105.235-70.2805 91.524-66.6149 73.9141-66.6149C56.3378-66.6149 42.5935-70.2805 33.6896-76.9086C32.3465-77.9561 30.721-77.9169 29.6192-76.8021C28.6109-75.6872 28.637-73.9139 29.866-72.8589C38.5101-65.7593 54.9329-60.8853 73.9141-60.8853ZM73.9141 27.3856C108.519 27.3856 136.603-0.66445 136.603-35.2697C136.603-69.875 108.519-97.925 73.9141-97.925C39.3425-97.925 11.2588-69.875 11.2588-35.2697C11.2588-0.66445 39.3425 27.3856 73.9141 27.3856ZM73.9141 21.568C42.5468 21.568 17.11-3.90245 17.11-35.2697C17.11-66.6369 42.5468-92.1074 73.9141-92.1074C105.281-92.1074 130.752-66.6369 130.752-35.2697C130.752-3.90245 105.281 21.568 73.9141 21.568Z" data-clipstroke-keyframes="0 4 0 0.5017343 1.4990157 0 0.25121233 0.25051886 1.7499378 0 0.50038093 0.0013523871 1.9988384 0 0.751127 0.75060946 1.2491682 0 1 0.5017343 1.498638 8 0 2.251083 2.7483647 0 1 2.4794145 2.5200331 0 1 2.9789615 2.020486 8 0 3.7164388 3.2152092 0 1 3.4310868 3.4819593 0 1 3.953569 3.998984 8 0 4.7343316 4.2299542 0 1 4.967558 4.99618 0 1 4.4624615 4.5025663 8 0 5.999042 5.501205 0 1 5.2350006 5.2851396 0 1 5.716603 5.765581 4 0 6.5013604 7.4986515 0 0.25054964 6.2508097 7.749197 0 0.49955833 6.0018 7.998201 0 0.75260776 6.7487516 7.2512546 0 1 6.5013604 7.4986515"/>
  </g>
  <g id="Thin-L" transform="matrix(1 0 0 1 783.716 1556)">
   <path d="M72.7024 25.3838C88.1251 25.3838 102.791 1.87697 102.791-35.1089C102.791-72.12 88.1335-95.6353 72.7024-95.6353C57.2714-95.6353 42.622-72.12 42.622-35.1089C42.622 1.87697 57.2798 25.3838 72.7024 25.3838ZM72.7024 22.3047C58.7128 22.3047 46.4968-4.37442 46.4968-35.1089C46.4968-67.3167 58.7128-92.5562 72.7024-92.5562C86.7006-92.5562 98.9165-67.3167 98.9165-35.1089C98.9165-4.37442 86.7006 22.3047 72.7024 22.3047ZM72.7024 25.0992C73.6922 25.0992 74.5594 24.304 74.5594 23.2423L74.5594-93.7142C74.5594-94.7759 73.6922-95.5712 72.7024-95.5712C71.6491-95.5712 70.8455-94.7759 70.8455-93.7142L70.8455 23.2423C70.8455 24.304 71.6491 25.0992 72.7024 25.0992ZM31.645 6.46374C40.9276-0.139127 54.7981-3.83001 72.7024-3.83001C90.6153-3.83001 104.477-0.139127 113.768 6.46374C114.699 7.20834 115.778 7.01769 116.404 6.25623C117.03 5.49476 116.902 4.32726 116.052 3.70132C107.257-3.01965 91.3891-7.61597 72.7024-7.61597C54.0242-7.61597 38.1567-3.01965 29.3612 3.70132C28.5108 4.32726 28.3837 5.49476 28.9377 6.25623C29.6356 7.01769 30.7058 7.20834 31.645 6.46374ZM14.321-33.4127L131.181-33.4127C132.242-33.4127 133.038-34.2079 133.038-35.2697C133.038-36.3315 132.242-37.1267 131.181-37.1267L14.321-37.1267C13.3312-37.1267 12.464-36.3315 12.464-35.2697C12.464-34.2079 13.3312-33.4127 14.321-33.4127ZM72.7024-62.6018C91.3891-62.6018 107.257-67.1981 116.052-73.919C116.902-74.545 117.03-75.7125 116.404-76.474C115.778-77.2354 114.699-77.4261 113.768-76.6815C104.477-70.0786 90.6153-66.3877 72.7024-66.3877C54.7981-66.3877 40.9276-70.0786 31.645-76.6815C30.7058-77.4261 29.6356-77.2354 28.9377-76.474C28.3837-75.7125 28.5108-74.545 29.3612-73.919C38.1567-67.1981 54.0242-62.6018 72.7024-62.6018ZM72.7024 26.174C106.626 26.174 134.155-1.34598 134.155-35.2697C134.155-69.1934 106.626-96.7134 72.7024-96.7134C38.7872-96.7134 11.2588-69.1934 11.2588-35.2697C11.2588-1.34598 38.7872 26.174 72.7024 26.174ZM72.7024 22.4262C40.8556 22.4262 15.0149-3.42286 15.0149-35.2697C15.0149-67.1165 40.8556-92.9656 72.7024-92.9656C104.549-92.9656 130.398-67.1165 130.398-35.2697C130.398-3.42286 104.549 22.4262 72.7024 22.4262Z" data-clipstroke-keyframes="0 4 0 0.50183636 1.4990717 0 0.25114658 0.25068924 1.7500002 0 0.50032276 0.0015134198 1.9985232 0 0.7514035 0.7504331 1.2492852 0 1 0.50183636 1.4984902 8 0 2.2509372 2.7481518 0 1 2.484909 2.51418 0 1 2.9844449 2.0146441 8 0 3.7283657 3.2273023 0 1 3.4550629 3.488759 0 1 3.9694803 3.9994009 8 0 4.7385793 4.2376847 0 1 4.9784784 4.997421 0 1 4.4758906 4.5015445 8 0 5.9991193 5.5010414 0 1 5.2385116 5.274047 0 1 5.728361 5.759392 4 0 6.5013046 7.4986987 0 0.25052324 6.2507815 7.749221 0 0.49950495 6.0017996 7.9982004 0 0.7525808 6.748724 7.2512784 0 1 6.5013046 7.4986987"/>
  </g>
  <g id="Ultralight-L" transform="matrix(1 0 0 1 487.631 1556)">
   <path d="M72.0819 25.3579C87.0391 25.3579 101.783 2.38119 101.783-35.1089C101.783-72.5854 87.0346-95.5577 72.0819-95.5577C57.1291-95.5577 42.3764-72.5854 42.3764-35.1089C42.3764 2.38119 57.1247 25.3579 72.0819 25.3579ZM72.0819 23.3002C57.7173 23.3002 45.2427-3.77969 45.2427-35.1089C45.2427-68.1183 57.7173-93.5 72.0819-93.5C86.442-93.5 98.9165-68.1183 98.9165-35.1089C98.9165-3.77969 86.442 23.3002 72.0819 23.3002ZM72.0819 24.6467C72.7872 24.6467 73.4346 24.0842 73.4346 23.294L73.4346-93.8693C73.4346-94.6596 72.7872-95.2221 72.0819-95.2221C71.2871-95.2221 70.7291-94.6596 70.7291-93.8693L70.7291 23.294C70.7291 24.0842 71.2871 24.6467 72.0819 24.6467ZM30.5978 6.34738C40.0743-0.242557 54.0094-3.94637 72.0819-3.94637C90.1498-3.94637 104.089-0.242557 113.561 6.34738C114.298 6.93683 115.08 6.66862 115.486 6.08815C115.892 5.50769 115.713 4.65047 115.057 4.24433C106.184-2.28272 90.6005-6.73681 72.0819-6.73681C53.5588-6.73681 37.9757-2.28272 29.1026 4.24433C28.4462 4.65047 28.2674 5.50769 28.5886 6.08815C29.0797 6.66862 29.8655 6.93683 30.5978 6.34738ZM13.3255-33.9169L130.664-33.9169C131.454-33.9169 132.016-34.4794 132.016-35.2697C132.016-36.06 131.454-36.6225 130.664-36.6225L13.3255-36.6225C12.6201-36.6225 11.9727-36.06 11.9727-35.2697C11.9727-34.4794 12.6201-33.9169 13.3255-33.9169ZM72.0819-63.4809C90.6005-63.4809 106.184-67.935 115.057-74.4621C115.713-74.8682 115.892-75.7254 115.486-76.3059C115.08-76.8863 114.298-77.1546 113.561-76.5651C104.089-69.9752 90.1498-66.2714 72.0819-66.2714C54.0094-66.2714 40.0743-69.9752 30.5978-76.5651C29.8655-77.1546 29.0797-76.8863 28.5886-76.3059C28.2674-75.7254 28.4462-74.8682 29.1026-74.4621C37.9757-67.935 53.5588-63.4809 72.0819-63.4809ZM72.0819 25.5534C105.657 25.5534 132.9-1.69505 132.9-35.2697C132.9-68.8443 105.657-96.0928 72.0819-96.0928C38.5027-96.0928 11.2588-68.8443 11.2588-35.2697C11.2588-1.69505 38.5027 25.5534 72.0819 25.5534ZM72.0819 22.8658C39.9894 22.8658 13.9419-3.17721 13.9419-35.2697C13.9419-67.3622 39.9894-93.4052 72.0819-93.4052C104.174-93.4052 130.217-67.3622 130.217-35.2697C130.217-3.17721 104.174 22.8658 72.0819 22.8658Z" data-clipstroke-keyframes="0 4 0 0.5018883 1.4990988 0 0.25111294 0.25077745 1.7500353 0 0.5002929 0.0015959789 1.9983618 0 0.75154513 0.7503416 1.2493402 0 1 0.5018883 1.4984128 8 0 2.2509 2.7480714 0 1 2.4885092 2.5104623 0 1 2.9880378 2.0109336 8 0 3.7339134 3.2329278 0 1 3.4661963 3.4924974 0 1 3.9762359 3.999567 8 0 4.741391 4.242424 0 1 4.985364 4.99823 0 1 4.4842873 4.5009313 8 0 5.999163 5.500959 0 1 5.239479 5.2689395 0 1 5.7338524 5.7570267 4 0 6.5012755 7.4987226 0 0.25050968 6.2507663 7.7492323 0 0.49947762 6.0017996 7.9982004 0 0.75256705 6.748709 7.2512903 0 1 6.5012755 7.4987226"/>
  </g>
  <g id="Black-M" transform="matrix(1 0 0 1 2871.36 1126)">
   <path d="M62.0422 8.47358C76.6938 8.47358 88.3481-10.9514 88.3481-35.136C88.3481-59.3942 76.6993-78.8818 62.0422-78.8818C47.3851-78.8818 35.7418-59.3942 35.7418-35.136C35.7418-10.9514 47.3906 8.47358 62.0422 8.47358ZM62.0422 0.118406C53.229 0.118406 44.6004-17.1576 44.6004-35.136C44.6004-53.1307 53.229-70.5266 62.0422-70.5266C70.8609-70.5266 79.4896-53.1307 79.4896-35.136C79.4896-17.2718 70.8609 0.118406 62.0422 0.118406ZM62.0422 11.8728C64.4419 11.8728 66.4092 9.90524 66.4092 7.50587L66.4092-78.0974C66.4092-80.4968 64.4419-82.4644 62.0422-82.4644C59.6484-82.4644 57.6753-80.4968 57.6753-78.0974L57.6753 7.50587C57.6753 9.90524 59.6484 11.8728 62.0422 11.8728ZM31.3979-8.07607C37.0635-12.277 49.128-14.9091 62.0422-14.9091C74.9619-14.9091 87.0209-12.277 92.6921-8.07607C94.4823-6.59819 97.1782-6.75216 98.7302-8.5265C100.225-10.3008 99.9512-13.0645 98.2232-14.6165C91.5169-20.1504 77.5337-23.6428 62.0422-23.6428C46.5562-23.6428 32.5731-20.1504 25.8667-14.6165C24.1388-13.0645 23.8649-10.3008 25.3601-8.5265C26.9118-6.75216 29.6021-6.59819 31.3979-8.07607ZM19.3507-30.8937L104.844-30.8937C107.243-30.8937 109.211-32.8613 109.211-35.2606C109.211-37.66 107.243-39.6276 104.844-39.6276L19.3507-39.6276C16.9511-39.6276 14.9837-37.66 14.9837-35.2606C14.9837-32.8613 16.9511-30.8937 19.3507-30.8937ZM62.0422-46.6293C77.5337-46.6293 91.5169-50.1217 98.2232-55.6556C99.9512-57.2076 100.225-59.9712 98.7302-61.7456C97.1782-63.5199 94.4823-63.6739 92.6921-62.196C87.0209-57.9951 74.9619-55.3629 62.0422-55.3629C49.128-55.3629 37.0635-57.9951 31.3979-62.196C29.6021-63.6739 26.9118-63.5199 25.3601-61.7456C23.8649-59.9712 24.1388-57.2076 25.8667-55.6556C32.5731-50.1217 46.5562-46.6293 62.0422-46.6293ZM62.0422 18.0589C91.4936 18.0589 115.367-5.80932 115.367-35.2606C115.367-64.712 91.4936-88.5802 62.0422-88.5802C32.5964-88.5802 8.72266-64.712 8.72266-35.2606C8.72266-5.80932 32.5964 18.0589 62.0422 18.0589ZM62.0422 4.84952C39.9186 4.84952 21.9376-13.1371 21.9376-35.2606C21.9376-57.3842 39.9186-75.3708 62.0422-75.3708C84.1658-75.3708 102.152-57.3842 102.152-35.2606C102.152-13.1371 84.1658 4.84952 62.0422 4.84952Z" data-clipstroke-keyframes="0 4 0 0.5018984 1.4990985 0 0.25152332 0.25037378 1.7497654 0 0.50057185 0.0013251862 1.9991102 0 0.7513068 0.75059164 1.2493541 0 1 0.5018984 1.4988195 8 0 2.2512677 2.7487426 0 1 2.4633918 2.5366182 0 1 2.962971 2.0370393 8 0 3.6939049 3.1892102 0 1 3.3822138 3.467655 0 1 3.9198487 3.0020974 8 0 4.714737 4.2161593 0 1 4.9369764 4.992839 0 1 4.426669 4.504222 8 0 5.997908 5.502189 0 1 5.2251964 5.309457 0 1 5.6926684 5.774143 4 0 6.501301 7.4987006 0 0.2505217 6.250779 7.749222 0 0.49950123 6.0018 7.998202 0 0.7525801 6.7487206 7.2512774 0 1 6.501301 7.4987006"/>
  </g>
  <g id="Heavy-M" transform="matrix(1 0 0 1 2575.48 1126)">
   <path d="M61.2053 9.26348C75.6032 9.26348 87.1246-10.3127 87.1246-35.136C87.1246-60.0522 75.6196-79.6884 61.2053-79.6884C46.7911-79.6884 35.3025-60.0522 35.3025-35.136C35.3025-10.3127 46.8075 9.26348 61.2053 9.26348ZM61.2053 1.47411C52.2237 1.47411 43.6112-16.272 43.6112-35.136C43.6112-54.1112 52.2237-71.8991 61.2053-71.8991C70.2034-71.8991 78.8158-54.1112 78.8158-35.136C78.8158-16.3592 70.2034 1.47411 61.2053 1.47411ZM61.2053 12.1606C63.4544 12.1606 65.2974 10.3199 65.2974 8.06856L65.2974-78.5458C65.2974-80.7972 63.4544-82.6379 61.2053-82.6379C58.9704-82.6379 57.1133-80.7972 57.1133-78.5458L57.1133 8.06856C57.1133 10.3199 58.9704 12.1606 61.2053 12.1606ZM30.6383-6.76508C36.504-11.1925 48.204-13.8676 61.2053-13.8676C74.2231-13.8676 85.9067-11.1925 91.7888-6.76508C93.4868-5.37178 95.9891-5.46024 97.4707-7.10446C98.9086-8.74868 98.7188-11.3297 97.0831-12.8113C90.4153-18.4281 76.5962-22.0541 61.2053-22.0541C45.8309-22.0541 32.0118-18.4281 25.344-12.8113C23.7083-11.3297 23.5184-8.74868 24.9541-7.10446C26.438-5.46024 28.9239-5.37178 30.6383-6.76508ZM18.2241-31.1686L104.513-31.1686C106.764-31.1686 108.605-33.0093 108.605-35.2606C108.605-37.512 106.764-39.3527 104.513-39.3527L18.2241-39.3527C15.975-39.3527 14.132-37.512 14.132-35.2606C14.132-33.0093 15.975-31.1686 18.2241-31.1686ZM61.2053-48.218C76.5962-48.218 90.4153-51.8439 97.0831-57.4608C98.7188-58.9424 98.9086-61.5234 97.4707-63.1676C95.9891-64.8118 93.4868-64.9003 91.7888-63.507C85.9067-59.0795 74.2231-56.4044 61.2053-56.4044C48.204-56.4044 36.504-59.0795 30.6383-63.507C28.9239-64.9003 26.438-64.8118 24.9541-63.1676C23.5184-61.5234 23.7083-58.9424 25.344-57.4608C32.0118-51.8439 45.8309-48.218 61.2053-48.218ZM61.2053 17.222C90.1969 17.222 113.704-6.26912 113.704-35.2606C113.704-64.2522 90.1969-87.7433 61.2053-87.7433C32.2302-87.7433 8.72266-64.2522 8.72266-35.2606C8.72266-6.26912 32.2302 17.222 61.2053 17.222ZM61.2053 5.56977C38.6828 5.56977 20.3913-12.7381 20.3913-35.2606C20.3913-57.7832 38.6828-76.0911 61.2053-76.0911C83.7279-76.0911 102.036-57.7832 102.036-35.2606C102.036-12.7381 83.7279 5.56977 61.2053 5.56977Z" data-clipstroke-keyframes="0 4 0 0.50182974 1.4990535 0 0.25147027 0.25035623 1.7497926 0 0.5005448 0.0012817916 1.9991437 0 0.7511787 0.7506511 1.2492584 0 1 0.50182974 1.4988143 8 0 2.2512672 2.748716 0 1 2.4655619 2.5344217 0 1 2.9651365 2.0348468 8 0 3.695954 3.1920252 0 1 3.387195 3.4689345 0 1 3.9236944 3.001189 8 0 4.7180457 4.2171535 0 1 4.94092 4.9932675 0 1 4.431109 4.504134 8 0 5.998146 5.501988 0 1 5.2268057 5.306681 0 1 5.695113 5.773606 4 0 6.50133 7.4986725 0 0.25053647 6.250794 7.7492075 0 0.4995312 6.0018 7.998202 0 0.75259495 6.7487354 7.2512636 0 1 6.50133 7.4986725"/>
  </g>
  <g id="Bold-M" transform="matrix(1 0 0 1 2279.69 1126)">
   <path d="M60.2692 10.1471C74.3832 10.1471 85.7559-9.59824 85.7559-35.136C85.7559-60.7882 74.4118-80.5907 60.2692-80.5907C46.1265-80.5907 34.811-60.7882 34.811-35.136C34.811-9.59824 46.1552 10.1471 60.2692 10.1471ZM60.2692 2.99066C51.099 2.99066 42.5048-15.2812 42.5048-35.136C42.5048-55.208 51.099-73.4343 60.2692-73.4343C69.4679-73.4343 78.0622-55.208 78.0622-35.136C78.0622-15.3383 69.4679 2.99066 60.2692 2.99066ZM60.2692 12.4826C62.3498 12.4826 64.0537 10.7838 64.0537 8.69801L64.0537-79.0474C64.0537-81.1332 62.3498-82.832 60.2692-82.832C58.212-82.832 56.4846-81.1332 56.4846-79.0474L56.4846 8.69801C56.4846 10.7838 58.212 12.4826 60.2692 12.4826ZM29.7886-5.29855C35.8781-9.97939 47.1703-12.7026 60.2692-12.7026C73.3966-12.7026 84.6602-9.97939 90.7783-5.29855C92.3731-3.99987 94.6589-4.01505 96.0617-5.51371C97.436-7.01238 97.3402-9.38907 95.8077-10.7919C89.1831-16.5015 75.5475-20.2769 60.2692-20.2769C45.0194-20.2769 31.3839-16.5015 24.7592-10.7919C23.2267-9.38907 23.1309-7.01238 24.5001-5.51371C25.908-4.01505 28.1652-3.99987 29.7886-5.29855ZM16.9638-31.4761L104.142-31.4761C106.228-31.4761 107.926-33.1749 107.926-35.2606C107.926-37.3464 106.228-39.0452 104.142-39.0452L16.9638-39.0452C14.8831-39.0452 13.1792-37.3464 13.1792-35.2606C13.1792-33.1749 14.8831-31.4761 16.9638-31.4761ZM60.2692-49.9952C75.5475-49.9952 89.1831-53.7706 95.8077-59.4802C97.3402-60.883 97.436-63.2597 96.0617-64.7584C94.6589-66.257 92.3731-66.2722 90.7783-64.9735C84.6602-60.2927 73.3966-57.5695 60.2692-57.5695C47.1703-57.5695 35.8781-60.2927 29.7886-64.9735C28.1652-66.2722 25.908-66.257 24.5001-64.7584C23.1309-63.2597 23.2267-60.883 24.7592-59.4802C31.3839-53.7706 45.0194-49.9952 60.2692-49.9952ZM60.2692 16.2859C88.7463 16.2859 111.844-6.78347 111.844-35.2606C111.844-63.7378 88.7463-86.8071 60.2692-86.8071C31.8206-86.8071 8.72266-63.7378 8.72266-35.2606C8.72266-6.78347 31.8206 16.2859 60.2692 16.2859ZM60.2692 6.37547C37.3004 6.37547 18.6617-12.2919 18.6617-35.2606C18.6617-58.2294 37.3004-76.8968 60.2692-76.8968C83.2379-76.8968 101.905-58.2294 101.905-35.2606C101.905-12.2919 83.2379 6.37547 60.2692 6.37547Z" data-clipstroke-keyframes="0 4 0 0.5017515 1.4990083 0 0.25141093 0.25033644 1.7498214 0 0.5005146 0.0012332598 1.999181 0 0.75103545 0.75071645 1.2491593 0 1 0.5017515 1.4988136 8 0 2.2512662 2.7486863 0 1 2.4679809 2.531972 0 1 2.9675508 2.0324018 8 0 3.6983116 3.1952555 0 1 3.3929088 3.4704087 0 1 3.9280982 3.0002074 8 0 4.7217765 4.2182426 0 1 4.945334 4.9937506 0 1 4.436086 4.5040326 8 0 5.998416 5.5017567 0 1 5.2286415 5.3035145 0 1 5.6979194 5.7729864 4 0 6.5013633 7.498642 0 0.25055298 6.250811 7.749192 0 0.49956477 6.0018005 7.9982014 0 0.7526116 6.7487526 7.251249 0 1 6.5013633 7.498642"/>
  </g>
  <g id="Semibold-M" transform="matrix(1 0 0 1 1983.62 1126)">
   <path d="M59.6238 10.7562C73.5421 10.7562 84.8124-9.10568 84.8124-35.136C84.8124-61.2957 73.5791-81.2128 59.6238-81.2128C45.6684-81.2128 34.4722-61.2957 34.4722-35.136C34.4722-9.10568 45.7054 10.7562 59.6238 10.7562ZM59.6238 4.03616C50.3237 4.03616 41.742-14.5982 41.742-35.136C41.742-55.9642 50.3237-74.4927 59.6238-74.4927C68.9609-74.4927 77.5426-55.9642 77.5426-35.136C77.5426-14.6345 68.9609 4.03616 59.6238 4.03616ZM59.6238 12.7045C61.5883 12.7045 63.1963 11.1036 63.1963 9.13195L63.1963-79.3932C63.1963-81.3648 61.5883-82.9658 59.6238-82.9658C57.6892-82.9658 56.0512-81.3648 56.0512-79.3932L56.0512 9.13195C56.0512 11.1036 57.6892 12.7045 59.6238 12.7045ZM29.2028-4.28753C35.4466-9.14305 46.4577-11.8994 59.6238-11.8994C72.8268-11.8994 83.8009-9.14305 90.0817-4.28753C91.6054-3.05408 93.7419-3.01874 95.0904-4.41706C96.4208-5.81538 96.3899-8.05122 94.9285-9.39974C88.3336-15.1733 74.8245-19.0517 59.6238-19.0517C44.4601-19.0517 30.951-15.1733 24.3561-9.39974C22.8947-8.05122 22.8638-5.81538 24.1871-4.41706C25.5427-3.01874 27.6421-3.05408 29.2028-4.28753ZM16.0949-31.6881L103.886-31.6881C105.858-31.6881 107.459-33.289 107.459-35.2606C107.459-37.2323 105.858-38.8332 103.886-38.8332L16.0949-38.8332C14.1304-38.8332 12.5223-37.2323 12.5223-35.2606C12.5223-33.289 14.1304-31.6881 16.0949-31.6881ZM59.6238-51.2204C74.8245-51.2204 88.3336-55.0988 94.9285-60.8723C96.3899-62.2209 96.4208-64.4567 95.0904-65.855C93.7419-67.2533 91.6054-67.218 90.0817-65.9845C83.8009-61.129 72.8268-58.3727 59.6238-58.3727C46.4577-58.3727 35.4466-61.129 29.2028-65.9845C27.6421-67.218 25.5427-67.2533 24.1871-65.855C22.8638-64.4567 22.8947-62.2209 24.3561-60.8723C30.951-55.0988 44.4601-51.2204 59.6238-51.2204ZM59.6238 15.6405C87.7463 15.6405 110.562-7.13807 110.562-35.2606C110.562-63.3832 87.7463-86.1618 59.6238-86.1618C31.5382-86.1618 8.72266-63.3832 8.72266-35.2606C8.72266-7.13807 31.5382 15.6405 59.6238 15.6405ZM59.6238 6.93091C36.3473 6.93091 17.4692-11.9842 17.4692-35.2606C17.4692-58.5371 36.3473-77.4522 59.6238-77.4522C82.9002-77.4522 101.815-58.5371 101.815-35.2606C101.815-11.9842 82.9002 6.93091 59.6238 6.93091Z" data-clipstroke-keyframes="0 4 0 0.5016967 1.4989799 0 0.25137004 0.25032276 1.7498403 0 0.5004937 0.0011998093 1.9992069 0 0.7509367 0.7507607 1.2490954 0 1 0.5016967 1.4988161 8 0 2.2512653 2.7486656 0 1 2.469643 2.5302875 0 1 2.96921 2.030721 8 0 3.6999762 3.1975322 0 1 3.396934 3.471452 0 1 3.9311957 3.9995527 8 0 4.7243667 4.218979 0 1 4.9483786 4.9940853 0 1 4.439524 4.5039606 8 0 5.998604 5.5015936 0 1 5.2299275 5.301294 0 1 5.699898 5.7725496 4 0 6.501387 7.498622 0 0.2505644 6.250823 7.7491817 0 0.4995879 6.0018005 7.9982014 0 0.7526231 6.7487645 7.251239 0 1 6.501387 7.498622"/>
  </g>
  <g id="Medium-M" transform="matrix(1 0 0 1 1687.4 1126)">
   <path d="M59.1344 11.2181C72.9043 11.2181 84.0969-8.7322 84.0969-35.136C84.0969-61.6804 72.9478-81.6845 59.1344-81.6845C45.321-81.6845 34.2153-61.6804 34.2153-35.136C34.2153-8.7322 45.3644 11.2181 59.1344 11.2181ZM59.1344 4.82891C49.7358 4.82891 41.1636-14.0803 41.1636-35.136C41.1636-56.5375 49.7358-75.2952 59.1344-75.2952C68.5764-75.2952 77.1486-56.5375 77.1486-35.136C77.1486-14.1009 68.5764 4.82891 59.1344 4.82891ZM59.1344 12.8728C61.0109 12.8728 62.5462 11.3461 62.5462 9.46098L62.5462-79.6554C62.5462-81.5405 61.0109-83.0673 59.1344-83.0673C57.2927-83.0673 55.7226-81.5405 55.7226-79.6554L55.7226 9.46098C55.7226 11.3461 57.2927 12.8728 59.1344 12.8728ZM28.7587-3.52094C35.1194-8.50891 45.9174-11.2904 59.1344-11.2904C72.3948-11.2904 83.1493-8.50891 89.5535-3.52094C91.0232-2.33695 93.0466-2.2633 94.3539-3.58553C95.651-4.90777 95.6692-7.03681 94.2618-8.34416C87.6894-14.1662 74.2763-18.1227 59.1344-18.1227C44.0359-18.1227 30.6228-14.1662 24.0504-8.34416C22.643-7.03681 22.6612-4.90777 23.9497-3.58553C25.2657-2.2633 27.2455-2.33695 28.7587-3.52094ZM15.4361-31.8488L103.693-31.8488C105.578-31.8488 107.104-33.3756 107.104-35.2606C107.104-37.1457 105.578-38.6725 103.693-38.6725L15.4361-38.6725C13.5597-38.6725 12.0243-37.1457 12.0243-35.2606C12.0243-33.3756 13.5597-31.8488 15.4361-31.8488ZM59.1344-52.1494C74.2763-52.1494 87.6894-56.1059 94.2618-61.9279C95.6692-63.2353 95.651-65.3643 94.3539-66.6865C93.0466-68.0088 91.0232-67.9351 89.5535-66.7511C83.1493-61.7632 72.3948-58.9817 59.1344-58.9817C45.9174-58.9817 35.1194-61.7632 28.7587-66.7511C27.2455-67.9351 25.2657-68.0088 23.9497-66.6865C22.6612-65.3643 22.643-63.2353 24.0504-61.9279C30.6228-56.1059 44.0359-52.1494 59.1344-52.1494ZM59.1344 15.1511C86.9881 15.1511 109.59-7.40694 109.59-35.2606C109.59-63.1144 86.9881-85.6724 59.1344-85.6724C31.3241-85.6724 8.72266-63.1144 8.72266-35.2606C8.72266-7.40694 31.3241 15.1511 59.1344 15.1511ZM59.1344 7.35207C35.6247 7.35207 16.5651-11.751 16.5651-35.2606C16.5651-58.7703 35.6247-77.8734 59.1344-77.8734C82.6441-77.8734 101.747-58.7703 101.747-35.2606C101.747-11.751 82.6441 7.35207 59.1344 7.35207Z" data-clipstroke-keyframes="0 4 0 0.5016547 1.4989599 0 0.25133902 0.25031236 1.7498541 0 0.50047797 0.0011744496 1.9992263 0 0.75086176 0.7507938 1.2490493 0 1 0.5016547 1.4988194 8 0 2.2512643 2.7486496 0 1 2.470901 2.529013 0 1 2.9704652 2.0294487 8 0 3.7012596 3.199285 0 1 3.400032 3.4722579 0 1 3.9335768 3.9990687 8 0 4.7263412 4.219529 0 1 4.950688 4.9943404 0 1 4.442135 4.5039053 8 0 5.998748 5.501468 0 1 5.2309136 5.2995906 0 1 5.7014217 5.7722135 4 0 6.5014057 7.4986067 0 0.25057304 6.2508326 7.7491746 0 0.49960548 6.0018005 7.9982014 0 0.7526318 6.748774 7.251231 0 1 6.5014057 7.4986067"/>
  </g>
  <g id="Regular-M" transform="matrix(1 0 0 1 1391.32 1126)">
   <path d="M58.4961 11.8206C72.0725 11.8206 83.1637-8.24505 83.1637-35.136C83.1637-62.1823 72.1243-82.2997 58.4961-82.2997C44.8679-82.2997 33.8802-62.1823 33.8802-35.136C33.8802-8.24505 44.9197 11.8206 58.4961 11.8206ZM58.4961 5.86292C48.969 5.86292 40.4092-13.4048 40.4092-35.136C40.4092-57.2853 48.969-76.342 58.4961-76.342C68.0749-76.342 76.6348-57.2853 76.6348-35.136C76.6348-13.4048 68.0749 5.86292 58.4961 5.86292ZM58.4961 13.0923C60.2577 13.0923 61.6983 11.6623 61.6983 9.89015L61.6983-79.9974C61.6983-81.7696 60.2577-83.1996 58.4961-83.1996C56.7757-83.1996 55.2939-81.7696 55.2939-79.9974L55.2939 9.89015C55.2939 11.6623 56.7757 13.0923 58.4961 13.0923ZM28.1794-2.52103C34.6927-7.68177 45.2126-10.496 58.4961-10.496C71.8313-10.496 82.2995-7.68177 88.8646-2.52103C90.2639-1.40155 92.1396-1.27794 93.3933-2.50093C94.6469-3.72392 94.7293-5.71367 93.3923-6.96731C86.8493-12.8526 73.5613-16.9109 58.4961-16.9109C43.4827-16.9109 30.1947-12.8526 23.6517-6.96731C22.3146-5.71367 22.397-3.72392 23.6401-2.50093C24.9043-1.27794 26.7282-1.40155 28.1794-2.52103ZM14.5768-32.0585L103.44-32.0585C105.212-32.0585 106.642-33.4885 106.642-35.2606C106.642-37.0328 105.212-38.4628 103.44-38.4628L14.5768-38.4628C12.8152-38.4628 11.3746-37.0328 11.3746-35.2606C11.3746-33.4885 12.8152-32.0585 14.5768-32.0585ZM58.4961-53.3611C73.5613-53.3611 86.8493-57.4195 93.3923-63.3048C94.7293-64.5584 94.6469-66.5481 93.3933-67.7711C92.1396-68.9941 90.2639-68.8705 88.8646-67.751C82.2995-62.5903 71.8313-59.776 58.4961-59.776C45.2126-59.776 34.6927-62.5903 28.1794-67.751C26.7282-68.8705 24.9043-68.9941 23.6401-67.7711C22.397-66.5481 22.3146-64.5584 23.6517-63.3048C30.1947-57.4195 43.4827-53.3611 58.4961-53.3611ZM58.4961 14.5128C85.9991 14.5128 108.321-7.75763 108.321-35.2606C108.321-62.7637 85.9991-85.0341 58.4961-85.0341C31.0448-85.0341 8.72266-62.7637 8.72266-35.2606C8.72266-7.75763 31.0448 14.5128 58.4961 14.5128ZM58.4961 7.90141C34.6821 7.90141 15.3858-11.4467 15.3858-35.2606C15.3858-59.0746 34.6821-78.4227 58.4961-78.4227C82.31-78.4227 101.658-59.0746 101.658-35.2606C101.658-11.4467 82.31 7.90141 58.4961 7.90141Z" data-clipstroke-keyframes="0 4 0 0.5015993 1.4989355 0 0.25129858 0.25029874 1.7498715 0 0.5004573 0.0011413769 1.9992518 0 0.75076413 0.7508365 1.248992 0 1 0.5015993 1.4988254 8 0 2.251263 2.7486289 0 1 2.472538 2.5273538 0 1 2.972099 2.0277927 8 0 3.7029605 3.2016056 0 1 3.4041314 3.4733286 0 1 3.9367232 3.9984531 8 0 4.728929 4.2202373 0 1 4.953701 4.9946747 0 1 4.4455442 4.5038314 8 0 5.998937 5.5013013 0 1 5.2322125 5.297344 0 1 5.7034388 5.7717695 4 0 6.5014305 7.4985876 0 0.25058433 6.250845 7.7491646 0 0.49962834 6.0018005 7.9982014 0 0.7526431 6.7487864 7.251222 0 1 6.5014305 7.4985876"/>
  </g>
  <g id="Light-M" transform="matrix(1 0 0 1 1095.44 1126)">
   <path d="M57.6748 11.7864C70.6352 11.7864 81.8291-7.57773 81.8291-35.136C81.8291-62.7983 70.6698-82.197 57.6748-82.197C44.6797-82.197 33.5551-62.7983 33.5551-35.136C33.5551-7.57773 44.7143 11.7864 57.6748 11.7864ZM57.6748 7.18046C47.6515 7.18046 38.7494-12.6177 38.7494-35.136C38.7494-58.3462 47.6515-77.5911 57.6748-77.5911C67.7327-77.5911 76.6348-58.3462 76.6348-35.136C76.6348-12.6177 67.7327 7.18046 57.6748 7.18046ZM57.6748 12.4935C59.06 12.4935 60.2096 11.3714 60.2096 9.9586L60.2096-80.2027C60.2096-81.6156 59.06-82.7376 57.6748-82.7376C56.2966-82.7376 55.1399-81.6156 55.1399-80.2027L55.1399 9.9586C55.1399 11.3714 56.2966 12.4935 57.6748 12.4935ZM26.7934-2.67503C33.5634-7.81866 44.1689-10.65 57.6748-10.65C71.2153-10.65 81.7862-7.81866 88.5908-2.67503C89.7335-1.76088 91.2156-1.73994 92.1784-2.72338C93.1411-3.70681 93.1551-5.28589 92.0747-6.24865C85.4291-11.8773 72.5175-15.7474 57.6748-15.7474C42.8667-15.7474 29.9551-11.8773 23.3095-6.24865C22.2291-5.28589 22.243-3.70681 23.1781-2.72338C24.1685-1.73994 25.616-1.76088 26.7934-2.67503ZM13.2593-32.7258L102.755-32.7258C104.168-32.7258 105.29-33.8478 105.29-35.2606C105.29-36.6735 104.168-37.7955 102.755-37.7955L13.2593-37.7955C11.8741-37.7955 10.7244-36.6735 10.7244-35.2606C10.7244-33.8478 11.8741-32.7258 13.2593-32.7258ZM57.6748-54.5247C72.5175-54.5247 85.4291-58.3948 92.0747-64.0234C93.1551-64.9862 93.1411-66.5653 92.1784-67.5487C91.2156-68.5321 89.7335-68.5112 88.5908-67.597C81.7862-62.4534 71.2153-59.622 57.6748-59.622C44.1689-59.622 33.5634-62.4534 26.7934-67.597C25.616-68.5112 24.1685-68.5321 23.1781-67.5487C22.243-66.5653 22.2291-64.9862 23.3095-64.0234C29.9551-58.3948 42.8667-54.5247 57.6748-54.5247ZM57.6748 13.6915C84.7158 13.6915 106.662-8.21963 106.662-35.2606C106.662-62.3017 84.7158-84.2128 57.6748-84.2128C30.6684-84.2128 8.72266-62.3017 8.72266-35.2606C8.72266-8.21963 30.6684 13.6915 57.6748 13.6915ZM57.6748 8.48318C33.5357 8.48318 13.9656-11.1216 13.9656-35.2606C13.9656-59.3997 33.5357-79.0045 57.6748-79.0045C81.8138-79.0045 101.419-59.3997 101.419-35.2606C101.419-11.1216 81.8138 8.48318 57.6748 8.48318Z" data-clipstroke-keyframes="0 4 0 0.5016895 1.4989904 0 0.25124106 0.25044507 1.7497554 0 0.5004064 0.0012820374 1.9989755 0 0.75100607 0.75068563 1.2492708 0 1 0.5016895 1.498702 8 0 2.2511442 2.7484546 0 1 2.477082 2.5225165 0 1 2.9766338 2.0229647 8 0 3.7118623 3.2105918 0 1 3.4219396 3.4790745 0 1 3.9477973 3.9988127 8 0 4.7325106 4.2266636 0 1 4.962882 4.995663 0 1 4.4567375 4.5029974 8 0 5.999007 5.501239 0 1 5.2340016 5.289289 0 1 5.71212 5.767725 4 0 6.5013843 7.4986305 0 0.2505612 6.2508216 7.7491865 0 0.49958163 6.0018005 7.998201 0 0.75261956 6.7487636 7.2512436 0 1 6.5013843 7.4986305"/>
  </g>
  <g id="Thin-M" transform="matrix(1 0 0 1 799.828 1126)">
   <path d="M56.5885 11.7411C68.7342 11.7411 80.0639-6.69513 80.0639-35.136C80.0639-63.613 68.7462-82.0612 56.5885-82.0612C44.4308-82.0612 33.1251-63.613 33.1251-35.136C33.1251-6.69513 44.4428 11.7411 56.5885 11.7411ZM56.5885 8.92302C45.9089 8.92302 36.5542-11.5767 36.5542-35.136C36.5542-59.7493 45.9089-79.2431 56.5885-79.2431C67.2801-79.2431 76.6348-59.7493 76.6348-35.136C76.6348-11.5767 67.2801 8.92302 56.5885 8.92302ZM56.5885 11.7014C57.4758 11.7014 58.2408 10.9867 58.2408 10.0491L58.2408-80.4743C58.2408-81.4119 57.4758-82.1266 56.5885-82.1266C55.6629-82.1266 54.9362-81.4119 54.9362-80.4743L54.9362 10.0491C54.9362 10.9867 55.6629 11.7014 56.5885 11.7014ZM24.9603-2.87871C32.0698-7.9997 42.7884-10.8537 56.5885-10.8537C70.4006-10.8537 81.1072-7.9997 88.2287-2.87871C89.0319-2.23612 89.9936-2.35097 90.5716-3.01757C91.1496-3.68418 91.0731-4.72013 90.3322-5.29816C83.5507-10.5873 71.137-14.2085 56.5885-14.2085C42.052-14.2085 29.6383-10.5873 22.8568-5.29816C22.1159-4.72013 22.0394-3.68418 22.5671-3.01757C23.1954-2.35097 24.145-2.23612 24.9603-2.87871ZM11.5167-33.6084L101.85-33.6084C102.788-33.6084 103.502-34.323 103.502-35.2606C103.502-36.1983 102.788-36.9129 101.85-36.9129L11.5167-36.9129C10.6294-36.9129 9.86447-36.1983 9.86447-35.2606C9.86447-34.323 10.6294-33.6084 11.5167-33.6084ZM56.5885-56.0635C71.137-56.0635 83.5507-59.6847 90.3322-64.9739C91.0731-65.5519 91.1496-66.5879 90.5716-67.2545C89.9936-67.9211 89.0319-68.0359 88.2287-67.3934C81.1072-62.2724 70.4006-59.4184 56.5885-59.4184C42.7884-59.4184 32.0698-62.2724 24.9603-67.3934C24.145-68.0359 23.1954-67.9211 22.5671-67.2545C22.0394-66.5879 22.1159-65.5519 22.8568-64.9739C29.6383-59.6847 42.052-56.0635 56.5885-56.0635ZM56.5885 12.6052C83.0185 12.6052 104.466-8.83065 104.466-35.2606C104.466-61.6906 83.0185-83.1265 56.5885-83.1265C30.1705-83.1265 8.72266-61.6906 8.72266-35.2606C8.72266-8.83065 30.1705 12.6052 56.5885 12.6052ZM56.5885 9.25262C32.0195 9.25262 12.0872-10.6916 12.0872-35.2606C12.0872-59.8297 32.0195-79.7739 56.5885-79.7739C81.1575-79.7739 101.102-59.8297 101.102-35.2606C101.102-10.6916 81.1575 9.25262 56.5885 9.25262Z" data-clipstroke-keyframes="0 4 0 0.50180787 1.4990565 0 0.251165 0.2506413 1.7499819 0 0.50033903 0.0014683051 1.9986115 0 0.7513261 0.75048274 1.2492537 0 1 0.50180787 1.498532 8 0 2.2509787 2.7482126 0 1 2.4833474 2.5158439 0 1 2.9828863 2.016305 8 0 3.725377 3.224276 0 1 3.4490724 3.486763 0 1 3.965826 3.9993062 8 0 4.737378 4.2354903 0 1 4.9753876 4.9970646 0 1 4.4720817 4.501836 8 0 5.999096 5.50108 0 1 5.2379756 5.276785 0 1 5.7254105 5.760685 4 0 6.501321 7.498686 0 0.25053063 6.2507896 7.749214 0 0.49951988 6.0017996 7.9982004 0 0.7525884 6.7487316 7.2512717 0 1 6.501321 7.498686"/>
  </g>
  <g id="Ultralight-M" transform="matrix(1 0 0 1 503.679 1126)">
   <path d="M56.0321 11.7179C67.7605 11.7179 79.1598-6.24307 79.1598-35.136C79.1598-64.0303 67.761-81.9917 56.0321-81.9917C44.3033-81.9917 32.9049-64.0303 32.9049-35.136C32.9049-6.24307 44.3037 11.7179 56.0321 11.7179ZM56.0321 9.81554C45.0164 9.81554 35.4299-11.0435 35.4299-35.136C35.4299-60.468 45.0164-80.0893 56.0321-80.0893C67.0483-80.0893 76.6348-60.468 76.6348-35.136C76.6348-11.0435 67.0483 9.81554 56.0321 9.81554ZM56.0321 11.2957C56.6644 11.2957 57.2323 10.7897 57.2323 10.0955L57.2323-80.6134C57.2323-81.3076 56.6644-81.8136 56.0321-81.8136C55.3383-81.8136 54.8319-81.3076 54.8319-80.6134L54.8319 10.0955C54.8319 10.7897 55.3383 11.2957 56.0321 11.2957ZM24.0214-2.98303C31.3047-8.09243 42.0813-10.958 56.0321-10.958C69.9833-10.958 80.7595-8.09243 88.0433-2.98303C88.6726-2.47954 89.3676-2.66393 89.7486-3.16826C90.1296-3.67259 90.0067-4.43035 89.4396-4.81133C82.5886-9.92662 70.43-13.4203 56.0321-13.4203C41.6347-13.4203 29.476-9.92662 22.625-4.81133C22.058-4.43035 21.935-3.67259 22.2541-3.16826C22.697-2.66393 23.3916-2.47954 24.0214-2.98303ZM10.6242-34.0604L101.387-34.0604C102.081-34.0604 102.587-34.5665 102.587-35.2606C102.587-35.9548 102.081-36.4608 101.387-36.4608L10.6242-36.4608C9.9919-36.4608 9.424-35.9548 9.424-35.2606C9.424-34.5665 9.9919-34.0604 10.6242-34.0604ZM56.0321-56.8518C70.43-56.8518 82.5886-60.3454 89.4396-65.4607C90.0067-65.8417 90.1296-66.5995 89.7486-67.1038C89.3676-67.6081 88.6726-67.7925 88.0433-67.289C80.7595-62.1796 69.9833-59.314 56.0321-59.314C42.0813-59.314 31.3047-62.1796 24.0214-67.289C23.3916-67.7925 22.697-67.6081 22.2541-67.1038C21.935-66.5995 22.058-65.8417 22.625-65.4607C29.476-60.3454 41.6347-56.8518 56.0321-56.8518ZM56.0321 12.0488C82.1491 12.0488 103.342-9.14362 103.342-35.2606C103.342-61.3777 82.1491-82.5701 56.0321-82.5701C29.9155-82.5701 8.72266-61.3777 8.72266-35.2606C8.72266-9.14362 29.9155 12.0488 56.0321 12.0488ZM56.0321 9.64673C31.2428 9.64673 11.1252-10.4714 11.1252-35.2606C11.1252-60.0499 31.2428-80.168 56.0321-80.168C80.8214-80.168 100.939-60.0499 100.939-35.2606C100.939-10.4714 80.8214 9.64673 56.0321 9.64673Z" data-clipstroke-keyframes="0 4 0 0.50186807 1.4990883 0 0.25112605 0.25074303 1.7500213 0 0.5003045 0.0015638155 1.9984246 0 0.75149 0.75037736 1.2493191 0 1 0.50186807 1.4984431 8 0 2.2509265 2.7481108 0 1 2.4874449 2.5115924 0 1 2.9869757 2.0120616 8 0 3.7317429 3.230725 0 1 3.4618373 3.4910283 0 1 3.9735987 3.9995036 8 0 4.74061 4.240909 0 1 4.9832835 4.997986 0 1 4.4816833 4.50115 8 0 5.999146 5.5009937 0 1 5.239106 5.270942 0 1 5.731702 5.757945 4 0 6.501287 7.4987135 0 0.25051495 6.2507725 7.749228 0 0.49948826 6.0017996 7.9982004 0 0.7525724 6.748715 7.2512856 0 1 6.501287 7.4987135"/>
  </g>
  <g id="Black-S" transform="matrix(1 0 0 1 2884.57 696)">
   <path d="M48.8281-1.2207C60.3516-1.2207 69.5312-16.3574 69.5312-35.1562C69.5312-54.0039 60.3516-69.1895 48.8281-69.1895C37.3047-69.1895 28.125-54.0039 28.125-35.1562C28.125-16.3574 37.3047-1.2207 48.8281-1.2207ZM48.8281-7.86133C41.9434-7.86133 35.1562-21.2891 35.1562-35.1562C35.1562-49.0234 41.9434-62.5488 48.8281-62.5488C55.7129-62.5488 62.5-49.0234 62.5-35.1562C62.5-21.3867 55.7129-7.86133 48.8281-7.86133ZM48.8281 1.5625C50.7324 1.5625 52.2949 0 52.2949-1.9043L52.2949-68.7012C52.2949-70.6055 50.7324-72.168 48.8281-72.168C46.9238-72.168 45.3613-70.6055 45.3613-68.7012L45.3613-1.9043C45.3613 0 46.9238 1.5625 48.8281 1.5625ZM24.7559-14.3555C29.1504-17.5781 38.7207-19.6289 48.8281-19.6289C58.9355-19.6289 68.5059-17.5781 72.9004-14.3555C74.3164-13.1836 76.4648-13.3301 77.6855-14.7461C78.8574-16.1621 78.6133-18.3594 77.2461-19.5801C71.9727-23.877 60.9863-26.5625 48.8281-26.5625C36.6699-26.5625 25.6836-23.877 20.4102-19.5801C19.043-18.3594 18.7988-16.1621 19.9707-14.7461C21.1914-13.3301 23.3398-13.1836 24.7559-14.3555ZM15.4297-31.7871L82.2266-31.7871C84.1309-31.7871 85.6934-33.3496 85.6934-35.2539C85.6934-37.1582 84.1309-38.7207 82.2266-38.7207L15.4297-38.7207C13.5254-38.7207 11.9629-37.1582 11.9629-35.2539C11.9629-33.3496 13.5254-31.7871 15.4297-31.7871ZM48.8281-43.75C60.9863-43.75 71.9727-46.4355 77.2461-50.7324C78.6133-51.9531 78.8574-54.1504 77.6855-55.5664C76.4648-56.9824 74.3164-57.1289 72.9004-55.957C68.5059-52.7344 58.9355-50.6836 48.8281-50.6836C38.7207-50.6836 29.1504-52.7344 24.7559-55.957C23.3398-57.1289 21.1914-56.9824 19.9707-55.5664C18.7988-54.1504 19.043-51.9531 20.4102-50.7324C25.6836-46.4355 36.6699-43.75 48.8281-43.75ZM48.8281 6.73828C72.0215 6.73828 90.8203-12.0605 90.8203-35.2539C90.8203-58.4473 72.0215-77.2461 48.8281-77.2461C25.6348-77.2461 6.83594-58.4473 6.83594-35.2539C6.83594-12.0605 25.6348 6.73828 48.8281 6.73828ZM48.8281-4.00391C31.5918-4.00391 17.5781-18.0176 17.5781-35.2539C17.5781-52.4902 31.5918-66.5039 48.8281-66.5039C66.0645-66.5039 80.0781-52.4902 80.0781-35.2539C80.0781-18.0176 66.0645-4.00391 48.8281-4.00391Z" data-clipstroke-keyframes="0 4 0 0.50193095 1.4991218 0 0.25153953 0.25039145 1.7497579 0 0.5005785 0.0013524216 1.9990768 0 0.75137424 0.7505567 1.2494023 0 1 0.50193095 1.4988141 8 0 2.2512596 2.7487404 0 1 2.4628732 2.5371268 0 1 2.9624534 2.0375466 8 0 3.6937041 3.1887171 0 1 3.381473 3.467533 0 1 3.9191015 3.0024736 8 0 4.7137127 4.2162323 0 1 4.9361095 4.9927397 0 1 4.4257464 4.5041986 8 0 5.9978213 5.5022645 0 1 5.2246947 5.3100004 0 1 5.692294 5.774069 4 0 6.5012865 7.4987154 0 0.25051424 6.250772 7.749229 0 0.49948615 6.0018 7.998202 0 0.7525726 6.7487135 7.2512846 0 1 6.5012865 7.4987154"/>
  </g>
  <g id="Heavy-S" transform="matrix(1 0 0 1 2588.47 696)">
   <path d="M48.2173-0.54076C59.6025-0.54076 68.6554-15.8964 68.6554-35.1562C68.6554-54.4879 59.614-69.8924 48.2173-69.8924C36.8207-69.8924 27.7908-54.4879 27.7908-35.1562C27.7908-15.8964 36.8322-0.54076 48.2173-0.54076ZM48.2173-6.87022C41.2519-6.87022 34.5224-20.6322 34.5224-35.1562C34.5224-49.7264 41.2519-63.563 48.2173-63.563C55.1943-63.563 61.9238-49.7264 61.9238-35.1562C61.9238-20.7068 55.1943-6.87022 48.2173-6.87022ZM48.2173 1.88519C50.041 1.88519 51.5343 0.391832 51.5343-1.43179L51.5343-69.0584C51.5343-70.8821 50.041-72.3754 48.2173-72.3754C46.4052-72.3754 44.9003-70.8821 44.9003-69.0584L44.9003-1.43179C44.9003 0.391832 46.4052 1.88519 48.2173 1.88519ZM24.2834-13.2145C28.8162-16.6331 38.0638-18.7185 48.2173-18.7185C58.3824-18.7185 67.6185-16.6331 72.1628-13.2145C73.5327-12.0888 75.5659-12.1661 76.7636-13.5015C77.9239-14.8368 77.7605-16.9303 76.4394-18.128C71.212-22.5286 60.3179-25.3524 48.2173-25.3524C36.1283-25.3524 25.2341-22.5286 20.0068-18.128C18.6857-16.9303 18.5222-14.8368 19.6826-13.5015C20.8802-12.1661 22.9019-12.0888 24.2834-13.2145ZM14.6345-31.9369L82.0306-31.9369C83.8543-31.9369 85.3476-33.4303 85.3476-35.2539C85.3476-37.0775 83.8543-38.5709 82.0306-38.5709L14.6345-38.5709C12.8109-38.5709 11.3175-37.0775 11.3175-35.2539C11.3175-33.4303 12.8109-31.9369 14.6345-31.9369ZM48.2173-44.9601C60.3179-44.9601 71.212-47.7839 76.4394-52.1845C77.7605-53.3822 77.9239-55.4757 76.7636-56.811C75.5659-58.1464 73.5327-58.2237 72.1628-57.098C67.6185-53.6794 58.3824-51.594 48.2173-51.594C38.0638-51.594 28.8162-53.6794 24.2834-57.098C22.9019-58.2237 20.8802-58.1464 19.6826-56.811C18.5222-55.4757 18.6857-53.3822 20.0068-52.1845C25.2341-47.7839 36.1283-44.9601 48.2173-44.9601ZM48.2173 6.12748C71.0765 6.12748 89.6102-12.3948 89.6102-35.2539C89.6102-58.1131 71.0765-76.6353 48.2173-76.6353C25.3697-76.6353 6.83594-58.1131 6.83594-35.2539C6.83594-12.3948 25.3697 6.12748 48.2173 6.12748ZM48.2173-3.46226C30.6814-3.46226 16.4372-17.7179 16.4372-35.2539C16.4372-52.7899 30.6814-67.0456 48.2173-67.0456C65.7533-67.0456 80.009-52.7899 80.009-35.2539C80.009-17.7179 65.7533-3.46226 48.2173-3.46226Z" data-clipstroke-keyframes="0 4 0 0.50184244 1.4990609 0 0.25149104 0.2503484 1.7497809 0 0.5005573 0.0012821088 1.9991584 0 0.751195 0.7506474 1.2492748 0 1 0.50184244 1.4988258 8 0 2.2512774 2.7487388 0 1 2.4645355 2.5354805 0 1 2.9641123 2.0359037 8 0 3.694641 3.1904826 0 1 3.3843071 3.4681113 0 1 3.9216747 3.0014305 8 0 4.716767 4.2163086 0 1 4.9389677 4.9930606 0 1 4.4288464 4.504229 8 0 5.9980702 5.50205 0 1 5.2261868 5.3081355 0 1 5.6937084 5.774104 4 0 6.501325 7.498677 0 0.25053415 6.2507915 7.7492094 0 0.4995265 6.0018 7.998202 0 0.7525927 6.748733 7.2512655 0 1 6.501325 7.498677"/>
  </g>
  <g id="Bold-S" transform="matrix(1 0 0 1 2292.43 696)">
   <path d="M47.5342 0.219727C58.7646 0.219727 67.6758-15.3809 67.6758-35.1562C67.6758-55.0293 58.7891-70.6787 47.5342-70.6787C36.2793-70.6787 27.417-55.0293 27.417-35.1562C27.417-15.3809 36.3037 0.219727 47.5342 0.219727ZM47.5342-5.76172C40.4785-5.76172 33.8135-19.8975 33.8135-35.1562C33.8135-50.5127 40.4785-64.6973 47.5342-64.6973C54.6143-64.6973 61.2793-50.5127 61.2793-35.1562C61.2793-19.9463 54.6143-5.76172 47.5342-5.76172ZM47.5342 2.24609C49.2676 2.24609 50.6836 0.830078 50.6836-0.90332L50.6836-69.458C50.6836-71.1914 49.2676-72.6074 47.5342-72.6074C45.8252-72.6074 44.3848-71.1914 44.3848-69.458L44.3848-0.90332C44.3848 0.830078 45.8252 2.24609 47.5342 2.24609ZM23.7549-11.9385C28.4424-15.5762 37.3291-17.7002 47.5342-17.7002C57.7637-17.7002 66.626-15.5762 71.3379-11.9385C72.6562-10.8643 74.5605-10.8643 75.7324-12.1094C76.8799-13.3545 76.8066-15.332 75.5371-16.5039C70.3613-21.0205 59.5703-23.999 47.5342-23.999C35.5225-23.999 24.7314-21.0205 19.5557-16.5039C18.2861-15.332 18.2129-13.3545 19.3604-12.1094C20.5322-10.8643 22.4121-10.8643 23.7549-11.9385ZM13.7451-32.1045L81.8115-32.1045C83.5449-32.1045 84.9609-33.5205 84.9609-35.2539C84.9609-36.9873 83.5449-38.4033 81.8115-38.4033L13.7451-38.4033C12.0117-38.4033 10.5957-36.9873 10.5957-35.2539C10.5957-33.5205 12.0117-32.1045 13.7451-32.1045ZM47.5342-46.3135C59.5703-46.3135 70.3613-49.292 75.5371-53.8086C76.8066-54.9805 76.8799-56.958 75.7324-58.2031C74.5605-59.4482 72.6562-59.4482 71.3379-58.374C66.626-54.7363 57.7637-52.6123 47.5342-52.6123C37.3291-52.6123 28.4424-54.7363 23.7549-58.374C22.4121-59.4482 20.5322-59.4482 19.3604-58.2031C18.2129-56.958 18.2861-54.9805 19.5557-53.8086C24.7314-49.292 35.5225-46.3135 47.5342-46.3135ZM47.5342 5.44434C70.0195 5.44434 88.2568-12.7686 88.2568-35.2539C88.2568-57.7393 70.0195-75.9521 47.5342-75.9521C25.0732-75.9521 6.83594-57.7393 6.83594-35.2539C6.83594-12.7686 25.0732 5.44434 47.5342 5.44434ZM47.5342-2.85645C29.6631-2.85645 15.1611-17.3828 15.1611-35.2539C15.1611-53.125 29.6631-67.6514 47.5342-67.6514C65.4053-67.6514 79.9316-53.125 79.9316-35.2539C79.9316-17.3828 65.4053-2.85645 47.5342-2.85645Z" data-clipstroke-keyframes="0 4 0 0.50174123 1.4989995 0 0.25143677 0.25030023 1.7498055 0 0.5005336 0.0012035022 1.9992495 0 0.75099456 0.75074667 1.2491415 0 1 0.50174123 1.4988456 8 0 2.251297 2.7487366 0 1 2.4663768 2.5336566 0 1 2.9659503 2.0340834 8 0 3.6957064 3.1924856 0 1 3.3875217 3.4687746 0 1 3.9245858 3.0002925 8 0 4.7202015 4.216363 0 1 4.9421535 4.993419 0 1 4.432301 4.5042634 8 0 5.998352 5.501807 0 1 5.227871 5.3060355 0 1 5.6953115 5.7741475 4 0 6.5013695 7.4986353 0 0.2505564 6.2508144 7.749189 0 0.49957162 6.0018005 7.9982014 0 0.7526151 6.7487555 7.251245 0 1 6.5013695 7.4986353"/>
  </g>
  <g id="Semibold-S" transform="matrix(1 0 0 1 1996.19 696)">
   <path d="M47.0632 0.744043C58.187 0.744043 67.0004-15.0254 67.0004-35.1562C67.0004-55.4025 58.2203-71.2208 47.0632-71.2208C35.9061-71.2208 27.1593-55.4025 27.1593-35.1562C27.1593-15.0254 35.9394 0.744043 47.0632 0.744043ZM47.0632-4.99746C39.9453-4.99746 33.3247-19.3909 33.3247-35.1562C33.3247-51.0548 39.9453-65.4793 47.0632-65.4793C54.2144-65.4793 60.835-51.0548 60.835-35.1562C60.835-19.422 54.2144-4.99746 47.0632-4.99746ZM47.0632 2.49492C48.7344 2.49492 50.0971 1.13223 50.0971-0.538965L50.0971-69.7335C50.0971-71.4047 48.7344-72.7674 47.0632-72.7674C45.4253-72.7674 44.0293-71.4047 44.0293-69.7335L44.0293-0.538965C44.0293 1.13223 45.4253 2.49492 47.0632 2.49492ZM23.3905-11.0587C28.1847-14.8475 36.8226-16.9981 47.0632-16.9981C57.3371-16.9981 65.9417-14.8475 70.7691-11.0587C72.052-10.02 73.8674-9.9667 75.0215-11.1496C76.1601-12.3325 76.149-14.2301 74.915-15.3842C69.7748-19.9808 59.0549-23.0659 47.0632-23.0659C35.1048-23.0659 24.3849-19.9808 19.2446-15.3842C18.0106-14.2301 17.9996-12.3325 19.1382-11.1496C20.2923-9.9667 22.0744-10.02 23.3905-11.0587ZM13.1319-32.22L81.6604-32.22C83.3316-32.22 84.6943-33.5827 84.6943-35.2539C84.6943-36.9251 83.3316-38.2878 81.6604-38.2878L13.1319-38.2878C11.4607-38.2878 10.098-36.9251 10.098-35.2539C10.098-33.5827 11.4607-32.22 13.1319-32.22ZM47.0632-47.2466C59.0549-47.2466 69.7748-50.3317 74.915-54.9283C76.149-56.0824 76.1601-57.98 75.0215-59.1629C73.8674-60.3458 72.052-60.2925 70.7691-59.2538C65.9417-55.465 57.3371-53.3144 47.0632-53.3144C36.8226-53.3144 28.1847-55.465 23.3905-59.2538C22.0744-60.2925 20.2923-60.3458 19.1382-59.1629C17.9996-57.98 18.0106-56.0824 19.2446-54.9283C24.3849-50.3317 35.1048-47.2466 47.0632-47.2466ZM47.0632 4.97334C69.2908 4.97334 87.3237-13.0263 87.3237-35.2539C87.3237-57.4815 69.2908-75.4812 47.0632-75.4812C24.8688-75.4812 6.83594-57.4815 6.83594-35.2539C6.83594-13.0263 24.8688 4.97334 47.0632 4.97334ZM47.0632-2.43877C28.961-2.43877 14.2813-17.1518 14.2813-35.2539C14.2813-53.3561 28.961-68.069 47.0632-68.069C65.1653-68.069 79.8783-53.3561 79.8783-35.2539C79.8783-17.1518 65.1653-2.43877 47.0632-2.43877Z" data-clipstroke-keyframes="0 4 0 0.5016701 1.4989609 0 0.2513994 0.25026712 1.7498217 0 0.50051725 0.0011493285 1.9993122 0 0.7508564 0.7508138 1.2490546 0 1 0.5016701 1.498863 8 0 2.2513103 2.7487352 0 1 2.4676359 2.53241 0 1 2.9672065 2.032839 8 0 3.6964493 3.1938822 0 1 3.3897622 3.469242 0 1 3.92661 3.9995255 8 0 4.7225814 4.216381 0 1 4.944342 4.993665 0 1 4.4346757 4.504287 8 0 5.998548 5.5016375 0 1 5.2290397 5.3045807 0 1 5.696428 5.7741823 4 0 6.501401 7.498607 0 0.25057176 6.25083 7.7491746 0 0.49960276 6.0018005 7.9982014 0 0.7526306 6.7487717 7.251231 0 1 6.501401 7.498607"/>
  </g>
  <g id="Medium-S" transform="matrix(1 0 0 1 1699.83 696)">
   <path d="M46.7061 1.1416C57.749 1.1416 66.4883-14.7559 66.4883-35.1562C66.4883-55.6855 57.7891-71.6318 46.7061-71.6318C35.623-71.6318 26.9639-55.6855 26.9639-35.1562C26.9639-14.7559 35.6631 1.1416 46.7061 1.1416ZM46.7061-4.41797C39.541-4.41797 32.9541-19.0068 32.9541-35.1562C32.9541-51.4658 39.541-66.0723 46.7061-66.0723C53.9111-66.0723 60.498-51.4658 60.498-35.1562C60.498-19.0244 53.9111-4.41797 46.7061-4.41797ZM46.7061 2.68359C48.3301 2.68359 49.6523 1.36133 49.6523-0.262695L49.6523-69.9424C49.6523-71.5664 48.3301-72.8887 46.7061-72.8887C45.1221-72.8887 43.7598-71.5664 43.7598-69.9424L43.7598-0.262695C43.7598 1.36133 45.1221 2.68359 46.7061 2.68359ZM23.1143-10.3916C27.9893-14.2949 36.4385-16.4658 46.7061-16.4658C57.0137-16.4658 65.4229-14.2949 70.3379-10.3916C71.5938-9.37988 73.3418-9.28613 74.4824-10.4219C75.6143-11.5576 75.6504-13.3945 74.4434-14.5352C69.3301-19.1924 58.6641-22.3584 46.7061-22.3584C34.7881-22.3584 24.1221-19.1924 19.0088-14.5352C17.8018-13.3945 17.8379-11.5576 18.9697-10.4219C20.1104-9.28613 21.8184-9.37988 23.1143-10.3916ZM12.667-32.3076L81.5459-32.3076C83.1699-32.3076 84.4922-33.6299 84.4922-35.2539C84.4922-36.8779 83.1699-38.2002 81.5459-38.2002L12.667-38.2002C11.043-38.2002 9.7207-36.8779 9.7207-35.2539C9.7207-33.6299 11.043-32.3076 12.667-32.3076ZM46.7061-47.9541C58.6641-47.9541 69.3301-51.1201 74.4434-55.7773C75.6504-56.918 75.6143-58.7549 74.4824-59.8906C73.3418-61.0264 71.5938-60.9326 70.3379-59.9209C65.4229-56.0176 57.0137-53.8467 46.7061-53.8467C36.4385-53.8467 27.9893-56.0176 23.1143-59.9209C21.8184-60.9326 20.1104-61.0264 18.9697-59.8906C17.8379-58.7549 17.8018-56.918 19.0088-55.7773C24.1221-51.1201 34.7881-47.9541 46.7061-47.9541ZM46.7061 4.61621C68.7383 4.61621 86.6162-13.2217 86.6162-35.2539C86.6162-57.2861 68.7383-75.124 46.7061-75.124C24.7139-75.124 6.83594-57.2861 6.83594-35.2539C6.83594-13.2217 24.7139 4.61621 46.7061 4.61621ZM46.7061-2.12207C28.4287-2.12207 13.6143-16.9766 13.6143-35.2539C13.6143-53.5312 28.4287-68.3857 46.7061-68.3857C64.9834-68.3857 79.8379-53.5312 79.8379-35.2539C79.8379-16.9766 64.9834-2.12207 46.7061-2.12207Z" data-clipstroke-keyframes="0 4 0 0.5016155 1.4989334 0 0.25137103 0.25024202 1.7498337 0 0.50050485 0.0011082636 1.9993598 0 0.7507516 0.75086397 1.2489914 0 1 0.5016155 1.498878 8 0 2.2513206 2.7487342 0 1 2.4685845 2.5314703 0 1 2.9681535 2.0319011 8 0 3.6970167 3.1949492 0 1 3.3914723 3.469602 0 1 3.9281523 3.9989538 8 0 4.724392 4.216385 0 1 4.945998 4.993852 0 1 4.436472 4.504305 8 0 5.9986978 5.5015078 0 1 5.229929 5.3034744 0 1 5.69728 5.7742124 4 0 6.5014257 7.4985867 0 0.2505834 6.2508426 7.7491646 0 0.49962634 6.001801 7.9982014 0 0.75264233 6.748784 7.251221 0 1 6.5014257 7.4985867"/>
  </g>
  <g id="Regular-S" transform="matrix(1 0 0 1 1403.58 696)">
   <path d="M46.2402 1.66016C57.1777 1.66016 65.8203-14.4043 65.8203-35.1562C65.8203-56.0547 57.2266-72.168 46.2402-72.168C35.2539-72.168 26.709-56.0547 26.709-35.1562C26.709-14.4043 35.3027 1.66016 46.2402 1.66016ZM46.2402-3.66211C39.0137-3.66211 32.4707-18.5059 32.4707-35.1562C32.4707-52.002 39.0137-66.8457 46.2402-66.8457C53.5156-66.8457 60.0586-52.002 60.0586-35.1562C60.0586-18.5059 53.5156-3.66211 46.2402-3.66211ZM46.2402 2.92969C47.8027 2.92969 49.0723 1.66016 49.0723 0.0976562L49.0723-70.2148C49.0723-71.7773 47.8027-73.0469 46.2402-73.0469C44.7266-73.0469 43.4082-71.7773 43.4082-70.2148L43.4082 0.0976562C43.4082 1.66016 44.7266 2.92969 46.2402 2.92969ZM22.7539-9.52148C27.7344-13.5742 35.9375-15.7715 46.2402-15.7715C56.5918-15.7715 64.7461-13.5742 69.7754-9.52148C70.9961-8.54492 72.6562-8.39844 73.7793-9.47266C74.9023-10.5469 75-12.3047 73.8281-13.4277C68.75-18.1641 58.1543-21.4355 46.2402-21.4355C34.375-21.4355 23.7793-18.1641 18.7012-13.4277C17.5293-12.3047 17.627-10.5469 18.75-9.47266C19.873-8.39844 21.4844-8.54492 22.7539-9.52148ZM12.0605-32.4219L81.3965-32.4219C82.959-32.4219 84.2285-33.6914 84.2285-35.2539C84.2285-36.8164 82.959-38.0859 81.3965-38.0859L12.0605-38.0859C10.498-38.0859 9.22852-36.8164 9.22852-35.2539C9.22852-33.6914 10.498-32.4219 12.0605-32.4219ZM46.2402-48.877C58.1543-48.877 68.75-52.1484 73.8281-56.8848C75-58.0078 74.9023-59.7656 73.7793-60.8398C72.6562-61.9141 70.9961-61.7676 69.7754-60.791C64.7461-56.7383 56.5918-54.541 46.2402-54.541C35.9375-54.541 27.7344-56.7383 22.7539-60.791C21.4844-61.7676 19.873-61.9141 18.75-60.8398C17.627-59.7656 17.5293-58.0078 18.7012-56.8848C23.7793-52.1484 34.375-48.877 46.2402-48.877ZM46.2402 4.15039C68.0176 4.15039 85.6934-13.4766 85.6934-35.2539C85.6934-57.0312 68.0176-74.6582 46.2402-74.6582C24.5117-74.6582 6.83594-57.0312 6.83594-35.2539C6.83594-13.4766 24.5117 4.15039 46.2402 4.15039ZM46.2402-1.70898C27.7344-1.70898 12.7441-16.748 12.7441-35.2539C12.7441-53.7598 27.7344-68.7988 46.2402-68.7988C64.7461-68.7988 79.7852-53.7598 79.7852-35.2539C79.7852-16.748 64.7461-1.70898 46.2402-1.70898Z" data-clipstroke-keyframes="0 4 0 0.5015434 1.4988999 0 0.25133404 0.2502094 1.7498488 0 0.5004887 0.0010547161 1.9994218 0 0.75061494 0.75092846 1.2489121 0 1 0.5015434 1.4988999 8 0 2.2513337 2.7487328 0 1 2.4698148 2.5302517 0 1 2.9693813 2.0306852 8 0 3.6977603 3.1963496 0 1 3.3937154 3.470079 0 1 3.9301713 3.998221 8 0 4.726762 4.2163763 0 1 4.948153 4.994095 0 1 4.4388103 4.504328 8 0 5.9988947 5.5013375 0 1 5.231092 5.3020296 0 1 5.698396 5.7742567 4 0 6.501458 7.4985604 0 0.25059858 6.2508593 7.749151 0 0.49965712 6.001801 7.9982014 0 0.75265765 6.7488003 7.2512083 0 1 6.501458 7.4985604"/>
  </g>
  <g id="Light-S" transform="matrix(1 0 0 1 1107.6 696)">
   <path d="M45.5137 1.62988C55.9063 1.62988 64.6397-13.814 64.6397-35.1562C64.6397-56.5996 55.94-72.0771 45.5137-72.0771C35.0874-72.0771 26.4214-56.5996 26.4214-35.1562C26.4214-13.814 35.1211 1.62988 45.5137 1.62988ZM45.5137-2.49659C37.8482-2.49659 31.0025-17.8096 31.0025-35.1562C31.0025-52.9404 37.8482-67.9507 45.5137-67.9507C53.2129-67.9507 60.0586-52.9404 60.0586-35.1562C60.0586-17.8096 53.2129-2.49659 45.5137-2.49659ZM45.5137 2.39991C46.7432 2.39991 47.7554 1.40283 47.7554 0.158203L47.7554-70.3965C47.7554-71.6411 46.7432-72.6382 45.5137-72.6382C44.3027-72.6382 43.272-71.6411 43.272-70.3965L43.272 0.158203C43.272 1.40283 44.3027 2.39991 45.5137 2.39991ZM21.5278-9.65771C26.7354-13.6953 35.0142-15.9077 45.5137-15.9077C56.0469-15.9077 64.292-13.6953 69.5332-9.65771C70.5269-8.86279 71.8389-8.80713 72.7046-9.66943C73.5703-10.5317 73.6074-11.9263 72.6626-12.792C67.4937-17.3013 57.231-20.4063 45.5137-20.4063C33.8301-20.4063 23.5674-17.3013 18.3984-12.792C17.4536-11.9263 17.4907-10.5317 18.3413-9.66943C19.2222-8.80713 20.5005-8.86279 21.5278-9.65771ZM10.895-33.0122L80.791-33.0122C82.0357-33.0122 83.0327-34.0093 83.0327-35.2539C83.0327-36.4985 82.0357-37.4956 80.791-37.4956L10.895-37.4956C9.66553-37.4956 8.65332-36.4985 8.65332-35.2539C8.65332-34.0093 9.66553-33.0122 10.895-33.0122ZM45.5137-49.9062C57.231-49.9062 67.4937-53.0112 72.6626-57.5205C73.6074-58.3862 73.5703-59.7808 72.7046-60.6431C71.8389-61.5054 70.5269-61.4497 69.5332-60.6548C64.292-56.6172 56.0469-54.4048 45.5137-54.4048C35.0142-54.4048 26.7354-56.6172 21.5278-60.6548C20.5005-61.4497 19.2222-61.5054 18.3413-60.6431C17.4907-59.7808 17.4536-58.3862 18.3984-57.5205C23.5674-53.0112 33.8301-49.9062 45.5137-49.9062ZM45.5137 3.42383C66.8823 3.42383 84.2251-13.8853 84.2251-35.2539C84.2251-56.6226 66.8823-73.9316 45.5137-73.9316C24.1787-73.9316 6.83594-56.6226 6.83594-35.2539C6.83594-13.8853 24.1787 3.42383 45.5137 3.42383ZM45.5137-1.19434C26.7202-1.19434 11.4878-16.4605 11.4878-35.2539C11.4878-54.0474 26.7202-69.3135 45.5137-69.3135C64.3071-69.3135 79.5732-54.0474 79.5732-35.2539C79.5732-16.4605 64.3071-1.19434 45.5137-1.19434Z" data-clipstroke-keyframes="0 4 0 0.50164557 1.4989643 0 0.25126913 0.25037348 1.749733 0 0.50043124 0.0012133966 1.9991102 0 0.75088805 0.75075954 1.2492143 0 1 0.50164557 1.498763 8 0 2.2512028 2.7485404 0 1 2.4748452 2.524898 0 1 2.9744015 2.0253417 8 0 3.7075095 3.2061982 0 1 3.4132342 3.4763403 0 1 3.9423063 3.9986396 8 0 4.730753 4.2235026 0 1 4.9583745 4.9951735 0 1 4.451234 4.503409 8 0 5.998973 5.5012703 0 1 5.2330523 5.293227 0 1 5.7078695 5.7697797 4 0 6.501407 7.4986095 0 0.25057247 6.250833 7.749176 0 0.49960443 6.0018005 7.998201 0 0.75263107 6.7487745 7.251233 0 1 6.501407 7.4986095"/>
  </g>
  <g id="Thin-S" transform="matrix(1 0 0 1 811.863 696)">
   <path d="M44.5527 1.58984C54.2246 1.58984 63.0781-13.0332 63.0781-35.1562C63.0781-57.3203 54.2383-71.957 44.5527-71.957C34.8672-71.957 26.041-57.3203 26.041-35.1562C26.041-13.0332 34.8809 1.58984 44.5527 1.58984ZM44.5527-0.955099C36.3067-0.955099 29.0606-16.8887 29.0606-35.1562C29.0606-54.1816 36.3067-69.4121 44.5527-69.4121C52.8125-69.4121 60.0586-54.1816 60.0586-35.1562C60.0586-16.8887 52.8125-0.955099 44.5527-0.955099ZM44.5527 1.69923C45.3418 1.69923 46.0137 1.0625 46.0137 0.23828L46.0137-70.6367C46.0137-71.4609 45.3418-72.0977 44.5527-72.0977C43.7422-72.0977 43.0918-71.4609 43.0918-70.6367L43.0918 0.23828C43.0918 1.0625 43.7422 1.69923 44.5527 1.69923ZM19.9063-9.83789C25.4141-13.8555 33.793-16.0879 44.5527-16.0879C55.3262-16.0879 63.6914-13.8555 69.2129-9.83789C69.9063-9.2832 70.7578-9.34765 71.2832-9.92968C71.8086-10.5117 71.7657-11.4258 71.1211-11.9512C65.8321-16.1602 56.0098-19.0449 44.5527-19.0449C33.1094-19.0449 23.2871-16.1602 17.9981-11.9512C17.3535-11.4258 17.3105-10.5117 17.8008-9.92968C18.3613-9.34765 19.1992-9.2832 19.9063-9.83789ZM9.35354-33.793L79.9902-33.793C80.8145-33.793 81.4512-34.4297 81.4512-35.2539C81.4512-36.0781 80.8145-36.7149 79.9902-36.7149L9.35354-36.7149C8.56447-36.7149 7.89259-36.0781 7.89259-35.2539C7.89259-34.4297 8.56447-33.793 9.35354-33.793ZM44.5527-51.2676C56.0098-51.2676 65.8321-54.1523 71.1211-58.3613C71.7657-58.8867 71.8086-59.8008 71.2832-60.3828C70.7578-60.9649 69.9063-61.0293 69.2129-60.4746C63.6914-56.457 55.3262-54.2246 44.5527-54.2246C33.793-54.2246 25.4141-56.457 19.9063-60.4746C19.1992-61.0293 18.3613-60.9649 17.8008-60.3828C17.3105-59.8008 17.3535-58.8867 17.9981-58.3613C23.2871-54.1523 33.1094-51.2676 44.5527-51.2676ZM44.5527 2.4629C65.3809 2.4629 82.2832-14.4258 82.2832-35.2539C82.2832-56.082 65.3809-72.9707 44.5527-72.9707C23.7383-72.9707 6.83594-56.082 6.83594-35.2539C6.83594-14.4258 23.7383 2.4629 44.5527 2.4629ZM44.5527-0.513681C25.3789-0.513681 9.82619-16.0801 9.82619-35.2539C9.82619-54.4277 25.3789-69.9941 44.5527-69.9941C63.7266-69.9941 79.293-54.4277 79.293-35.2539C79.293-16.0801 63.7266-0.513681 44.5527-0.513681Z" data-clipstroke-keyframes="0 4 0 0.5017795 1.4990411 0 0.25118327 0.2505939 1.7499644 0 0.5003552 0.0014235581 1.9986991 0 0.75124925 0.75053185 1.2492216 0 1 0.5017795 1.4985733 8 0 2.2510192 2.748272 0 1 2.4818156 2.5174756 0 1 2.9813576 2.0179336 8 0 3.7211876 3.2199986 0 1 3.4405737 3.484966 0 1 3.9595542 3.9991515 8 0 4.736195 4.2333364 0 1 4.9723463 4.9967184 0 1 4.46834 4.502121 8 0 5.999078 5.501168 0 1 5.2360353 5.280824 0 1 5.7212696 5.7633753 4 0 6.501336 7.4986725 0 0.25053796 6.2507973 7.7492075 0 0.49953473 6.0018 7.9982004 0 0.75259584 6.7487392 7.251265 0 1 6.501336 7.4986725"/>
  </g>
  <g id="Ultralight-S" transform="matrix(1 0 0 1 515.649 696)">
   <path d="M44.0606 1.56934C53.3633 1.56934 62.2783-12.6333 62.2783-35.1562C62.2783-57.6894 53.3667-71.8955 44.0606-71.8955C34.7544-71.8955 25.8462-57.6894 25.8462-35.1562C25.8462-12.6333 34.7578 1.56934 44.0606 1.56934ZM44.0606-0.165555C35.5171-0.165555 28.066-16.417 28.066-35.1562C28.066-54.8174 35.5171-70.1606 44.0606-70.1606C52.6074-70.1606 60.0586-54.8174 60.0586-35.1562C60.0586-16.417 52.6074-0.165555 44.0606-0.165555ZM44.0606 1.34034C44.624 1.34034 45.1216 0.88819 45.1216 0.279295L45.1216-70.7598C45.1216-71.3687 44.624-71.8208 44.0606-71.8208C43.4551-71.8208 42.9995-71.3687 42.9995-70.7598L42.9995 0.279295C42.9995 0.88819 43.4551 1.34034 44.0606 1.34034ZM19.0757-9.93017C24.7373-13.9375 33.1675-16.1802 44.0606-16.1802C54.957-16.1802 63.3838-13.9375 69.0488-9.93017C69.5884-9.49853 70.2041-9.6245 70.5552-10.063C70.9063-10.5015 70.8223-11.1694 70.3316-11.5205C64.981-15.5757 55.3843-18.3477 44.0606-18.3477C32.7402-18.3477 23.1436-15.5757 17.793-11.5205C17.3022-11.1694 17.2183-10.5015 17.5239-10.063C17.9204-9.6245 18.5327-9.49853 19.0757-9.93017ZM8.56399-34.1929L79.5801-34.1929C80.189-34.1929 80.6411-34.645 80.6411-35.2539C80.6411-35.8628 80.189-36.315 79.5801-36.315L8.56399-36.315C8.00051-36.315 7.50294-35.8628 7.50294-35.2539C7.50294-34.645 8.00051-34.1929 8.56399-34.1929ZM44.0606-51.9648C55.3843-51.9648 64.981-54.7368 70.3316-58.792C70.8223-59.1431 70.9063-59.811 70.5552-60.2495C70.2041-60.688 69.5884-60.814 69.0488-60.3823C63.3838-56.375 54.957-54.1323 44.0606-54.1323C33.1675-54.1323 24.7373-56.375 19.0757-60.3823C18.5327-60.814 17.9204-60.688 17.5239-60.2495C17.2183-59.811 17.3022-59.1431 17.793-58.792C23.1436-54.7368 32.7402-51.9648 44.0606-51.9648ZM44.0606 1.97072C64.6118 1.97072 81.2886-14.7026 81.2886-35.2539C81.2886-55.8052 64.6118-72.4785 44.0606-72.4785C23.5127-72.4785 6.83594-55.8052 6.83594-35.2539C6.83594-14.7026 23.5127 1.97072 44.0606 1.97072ZM44.0606-0.165051C24.6919-0.165051 8.97513-15.8853 8.97513-35.2539C8.97513-54.6226 24.6919-70.3428 44.0606-70.3428C63.4292-70.3428 79.1494-54.6226 79.1494-35.2539C79.1494-15.8853 63.4292-0.165051 44.0606-0.165051Z" data-clipstroke-keyframes="0 4 0 0.5018476 1.4990777 0 0.25113928 0.25070834 1.7500076 0 0.50031626 0.0015313346 1.9984882 0 0.75143427 0.7504133 1.2492974 0 1 0.5018476 1.4984735 8 0 2.2513683 2.7485704 0 1 2.4864008 2.513538 0 1 2.9859345 2.0140042 8 0 3.729562 3.2285144 0 1 3.4574618 3.489561 0 1 3.9709408 3.9994378 8 0 4.7385902 4.2389903 0 1 4.9796762 4.9975595 0 1 4.4782705 4.5005326 8 0 5.999129 5.501025 0 1 5.2387238 5.2729483 0 1 5.7295437 5.7588773 4 0 6.5012984 7.498704 0 0.2505203 6.250778 7.749223 0 0.49949902 6.0017996 7.9982004 0 0.75257784 6.7487206 7.251281 0 1 6.5012984 7.498704"/>
  </g>
 </g>
</svg>
