<?xml version="1.0" encoding="UTF-8"?>
<!--Generator: Apple Native CoreSVG 341-->
<!DOCTYPE svg
PUBLIC "-//W3C//DTD SVG 1.1//EN"
       "http://www.w3.org/Graphics/SVG/1.1/DTD/svg11.dtd">
<svg version="1.1" xmlns="http://www.w3.org/2000/svg" xmlns:xlink="http://www.w3.org/1999/xlink" viewBox="0 0 3300 2200">
 <g id="Notes">
  <rect height="2200" id="artboard" style="fill:white;opacity:1" width="3300" x="0" y="0"/>
  <line style="fill:none;stroke:black;opacity:1;stroke-width:0.5;" x1="263" x2="3036" y1="292" y2="292"/>
  <text style="stroke:none;fill:black;font-family:sans-serif;font-size:13;font-weight:bold;" transform="matrix(1 0 0 1 263 322)">Weight/Scale Variations</text>
  <text style="stroke:none;fill:black;font-family:sans-serif;font-size:13;text-anchor:middle;" transform="matrix(1 0 0 1 559.711 322)">Ultralight</text>
  <text style="stroke:none;fill:black;font-family:sans-serif;font-size:13;text-anchor:middle;" transform="matrix(1 0 0 1 856.422 322)">Thin</text>
  <text style="stroke:none;fill:black;font-family:sans-serif;font-size:13;text-anchor:middle;" transform="matrix(1 0 0 1 1153.13 322)">Light</text>
  <text style="stroke:none;fill:black;font-family:sans-serif;font-size:13;text-anchor:middle;" transform="matrix(1 0 0 1 1449.84 322)">Regular</text>
  <text style="stroke:none;fill:black;font-family:sans-serif;font-size:13;text-anchor:middle;" transform="matrix(1 0 0 1 1746.56 322)">Medium</text>
  <text style="stroke:none;fill:black;font-family:sans-serif;font-size:13;text-anchor:middle;" transform="matrix(1 0 0 1 2043.27 322)">Semibold</text>
  <text style="stroke:none;fill:black;font-family:sans-serif;font-size:13;text-anchor:middle;" transform="matrix(1 0 0 1 2339.98 322)">Bold</text>
  <text style="stroke:none;fill:black;font-family:sans-serif;font-size:13;text-anchor:middle;" transform="matrix(1 0 0 1 2636.69 322)">Heavy</text>
  <text style="stroke:none;fill:black;font-family:sans-serif;font-size:13;text-anchor:middle;" transform="matrix(1 0 0 1 2933.4 322)">Black</text>
  <line style="fill:none;stroke:black;opacity:1;stroke-width:0.5;" x1="263" x2="3036" y1="1903" y2="1903"/>
  <g transform="matrix(0.2 0 0 0.2 263 1933)">
   <path d="m46.2402 4.15039c21.7773 0 39.4531-17.627 39.4531-39.4043s-17.6758-39.4043-39.4531-39.4043c-21.7285 0-39.4043 17.627-39.4043 39.4043s17.6758 39.4043 39.4043 39.4043Zm0-7.42188c-17.6758 0-31.9336-14.3066-31.9336-31.9824s14.2578-31.9824 31.9336-31.9824 31.9824 14.3066 31.9824 31.9824-14.3066 31.9824-31.9824 31.9824Zm3.61328-17.7734v-28.4668c0-2.24609-1.46484-3.75977-3.71094-3.75977-2.14844 0-3.61328 1.51367-3.61328 3.75977v28.4668c0 2.19727 1.46484 3.71094 3.61328 3.71094 2.24609 0 3.71094-1.51367 3.71094-3.71094Zm-17.8223-10.5957h28.418c2.19727 0 3.71094-1.46484 3.71094-3.61328 0-2.19727-1.51367-3.71094-3.71094-3.71094h-28.418c-2.24609 0-3.75977 1.51367-3.75977 3.71094 0 2.14844 1.51367 3.61328 3.75977 3.61328Z"/>
  </g>
  <g transform="matrix(0.2 0 0 0.2 281.506 1933)">
   <path d="m58.5449 14.5508c27.4902 0 49.8047-22.3145 49.8047-49.8047s-22.3145-49.8047-49.8047-49.8047-49.8047 22.3145-49.8047 49.8047 22.3145 49.8047 49.8047 49.8047Zm0-8.30078c-22.9492 0-41.5039-18.5547-41.5039-41.5039s18.5547-41.5039 41.5039-41.5039 41.5039 18.5547 41.5039 41.5039-18.5547 41.5039-41.5039 41.5039Zm4.05273-23.0957v-36.9141c0-2.49023-1.70898-4.19922-4.15039-4.19922-2.39258 0-4.05273 1.70898-4.05273 4.19922v36.9141c0 2.44141 1.66016 4.15039 4.05273 4.15039 2.44141 0 4.15039-1.66016 4.15039-4.15039Zm-22.5586-14.4043h36.9629c2.44141 0 4.15039-1.61133 4.15039-4.00391 0-2.44141-1.70898-4.15039-4.15039-4.15039h-36.9629c-2.49023 0-4.15039 1.70898-4.15039 4.15039 0 2.39258 1.66016 4.00391 4.15039 4.00391Z"/>
  </g>
  <g transform="matrix(0.2 0 0 0.2 304.924 1933)">
   <path d="m74.8535 28.3203c35.1074 0 63.623-28.4668 63.623-63.5742s-28.5156-63.623-63.623-63.623-63.5742 28.5156-63.5742 63.623 28.4668 63.5742 63.5742 63.5742Zm0-9.08203c-30.127 0-54.4922-24.3652-54.4922-54.4922s24.3652-54.4922 54.4922-54.4922 54.4922 24.3652 54.4922 54.4922-24.3652 54.4922-54.4922 54.4922Zm4.44336-30.3223v-48.4863c0-2.73438-1.85547-4.63867-4.54102-4.63867-2.58789 0-4.44336 1.9043-4.44336 4.63867v48.4863c0 2.68555 1.85547 4.58984 4.44336 4.58984 2.68555 0 4.54102-1.85547 4.54102-4.58984Zm-28.7109-19.7754h48.4863c2.68555 0 4.58984-1.80664 4.58984-4.39453 0-2.73438-1.85547-4.58984-4.58984-4.58984h-48.4863c-2.73438 0-4.58984 1.85547-4.58984 4.58984 0 2.58789 1.85547 4.39453 4.58984 4.39453Z"/>
  </g>
  <text style="stroke:none;fill:black;font-family:sans-serif;font-size:13;font-weight:bold;" transform="matrix(1 0 0 1 263 1953)">Design Variations</text>
  <text style="stroke:none;fill:black;font-family:sans-serif;font-size:13;" transform="matrix(1 0 0 1 263 1971)">Symbols are supported in up to nine weights and three scales.</text>
  <text style="stroke:none;fill:black;font-family:sans-serif;font-size:13;" transform="matrix(1 0 0 1 263 1989)">For optimal layout with text and other symbols, vertically align</text>
  <text style="stroke:none;fill:black;font-family:sans-serif;font-size:13;" transform="matrix(1 0 0 1 263 2007)">symbols with the adjacent text.</text>
  <line style="fill:none;stroke:#00AEEF;stroke-width:0.5;opacity:1.0;" x1="776" x2="776" y1="1919" y2="1933"/>
  <g transform="matrix(0.2 0 0 0.2 776 1933)">
   <path d="m16.5527 0.78125c2.58789 0 3.85742-0.976562 4.78516-3.71094l20.5566-57.5195h0.244141l20.6055 57.5195c0.927734 2.73438 2.19727 3.71094 4.73633 3.71094 2.58789 0 4.24805-1.5625 4.24805-4.00391 0-0.830078-0.146484-1.61133-0.537109-2.63672l-22.9004-60.9863c-1.12305-2.97852-3.125-4.49219-6.25-4.49219-3.02734 0-5.07812 1.46484-6.15234 4.44336l-22.9004 61.084c-0.390625 1.02539-0.537109 1.80664-0.537109 2.63672 0 2.44141 1.5625 3.95508 4.10156 3.95508Zm10.2051-20.9473h30.6641c2.00195 0 3.66211-1.66016 3.66211-3.66211 0-2.05078-1.66016-3.66211-3.66211-3.66211h-30.6641c-2.00195 0-3.66211 1.61133-3.66211 3.66211 0 2.00195 1.66016 3.66211 3.66211 3.66211Z"/>
  </g>
  <line style="fill:none;stroke:#00AEEF;stroke-width:0.5;opacity:1.0;" x1="792.836" x2="792.836" y1="1919" y2="1933"/>
  <text style="stroke:none;fill:black;font-family:sans-serif;font-size:13;font-weight:bold;" transform="matrix(1 0 0 1 776 1953)">Margins</text>
  <text style="stroke:none;fill:black;font-family:sans-serif;font-size:13;" transform="matrix(1 0 0 1 776 1971)">Leading and trailing margins on the left and right side of each symbol</text>
  <text style="stroke:none;fill:black;font-family:sans-serif;font-size:13;" transform="matrix(1 0 0 1 776 1989)">can be adjusted by modifying the x-location of the margin guidelines.</text>
  <text style="stroke:none;fill:black;font-family:sans-serif;font-size:13;" transform="matrix(1 0 0 1 776 2007)">Modifications are automatically applied proportionally to all</text>
  <text style="stroke:none;fill:black;font-family:sans-serif;font-size:13;" transform="matrix(1 0 0 1 776 2025)">scales and weights.</text>
  <g transform="matrix(0.2 0 0 0.2 1289 1933)">
   <path d="m14.209 13.1348 7.86133 7.86133c4.29688 4.39453 9.32617 4.10156 13.8672-1.02539l60.6934-68.2129-4.88281-4.88281-60.2539 67.6758c-1.80664 1.95312-3.4668 2.44141-5.81055 0.0976562l-5.17578-5.12695c-2.29492-2.29492-1.80664-3.95508 0.195312-5.81055l67.4805-62.1582-4.88281-4.83398-68.0664 62.5977c-4.98047 4.58984-5.32227 9.47266-1.02539 13.8184Zm44.873-97.4609c-2.05078 2.00195-2.24609 4.88281-1.07422 6.78711 1.12305 1.80664 3.4668 3.02734 6.5918 2.24609 5.85938-1.66016 12.5977-2.39258 18.8965 0.927734l-2.68555 7.12891c-1.61133 4.00391-0.732422 6.88477 1.70898 9.42383l10.2539 10.3027c2.34375 2.39258 4.54102 2.44141 7.08008 1.95312l4.44336-0.732422 2.58789 2.53906-0.195312 2.24609c-0.0976562 2.29492 0.537109 4.29688 2.7832 6.49414l3.36914 3.32031c2.29492 2.29492 5.51758 2.49023 7.8125 0.195312l12.9883-13.0371c2.29492-2.34375 2.14844-5.37109-0.195312-7.66602l-3.41797-3.41797c-2.19727-2.19727-4.05273-3.02734-6.34766-2.88086l-2.34375 0.244141-2.44141-2.44141 1.02539-4.6875c0.634766-2.73438-0.244141-4.98047-2.88086-7.61719l-11.2793-11.1816c-12.9395-12.8418-35.5957-11.0352-46.6797-0.146484Zm7.08008 2.05078c8.78906-6.39648 25.9766-5.66406 33.6914 1.95312l12.3047 12.207c1.02539 1.02539 1.2207 1.80664 0.927734 3.32031l-1.46484 6.64062 6.73828 6.68945 4.39453-0.244141c1.12305-0.0488281 1.51367 0.0488281 2.34375 0.878906l2.53906 2.49023-10.8398 10.8398-2.49023-2.49023c-0.830078-0.878906-0.976562-1.2207-0.927734-2.39258l0.292969-4.3457-6.68945-6.73828-6.83594 1.17188c-1.41602 0.292969-2.05078 0.195312-3.17383-0.878906l-8.93555-8.88672c-1.07422-1.02539-1.17188-1.70898-0.488281-3.36914l4.58984-11.4746c-6.10352-6.34766-17.041-7.51953-25.5859-4.58984-0.683594 0.244141-0.927734-0.390625-0.390625-0.78125Z"/>
  </g>
  <text style="stroke:none;fill:black;font-family:sans-serif;font-size:13;font-weight:bold;" transform="matrix(1 0 0 1 1289 1953)">Exporting</text>
  <text style="stroke:none;fill:black;font-family:sans-serif;font-size:13;" transform="matrix(1 0 0 1 1289 1971)">Symbols should be outlined when exporting to ensure the</text>
  <text style="stroke:none;fill:black;font-family:sans-serif;font-size:13;" transform="matrix(1 0 0 1 1289 1989)">design is preserved when submitting to Xcode.</text>
  <text id="template-version" style="stroke:none;fill:black;font-family:sans-serif;font-size:13;text-anchor:end;" transform="matrix(1 0 0 1 3036 1933)">Template v.2.0</text>
  <text style="stroke:none;fill:black;font-family:sans-serif;font-size:13;text-anchor:end;" transform="matrix(1 0 0 1 3036 1951)">Requires Xcode 12 or greater</text>
  <text id="descriptive-name" style="stroke:none;fill:black;font-family:sans-serif;font-size:13;text-anchor:end;" transform="matrix(1 0 0 1 3036 1969)">Generated from book</text>
  <text style="stroke:none;fill:black;font-family:sans-serif;font-size:13;text-anchor:end;" transform="matrix(1 0 0 1 3036 1987)">Typeset at 100.0 points</text>
  <text style="stroke:none;fill:black;font-family:sans-serif;font-size:13;" transform="matrix(1 0 0 1 263 726)">Small</text>
  <text style="stroke:none;fill:black;font-family:sans-serif;font-size:13;" transform="matrix(1 0 0 1 263 1156)">Medium</text>
  <text style="stroke:none;fill:black;font-family:sans-serif;font-size:13;" transform="matrix(1 0 0 1 263 1586)">Large</text>
 </g>
 <g id="Guides">
  <g id="H-reference" style="fill:#27AAE1;stroke:none;" transform="matrix(1 0 0 1 339 696)">
   <path d="M0.993654 0L3.63775 0L29.3281-67.1323L30.0303-67.1323L30.0303-70.459L28.1226-70.459ZM11.6885-24.4799L46.9815-24.4799L46.2315-26.7285L12.4385-26.7285ZM55.1196 0L57.7637 0L30.6382-70.459L29.4326-70.459L29.4326-67.1323Z"/>
  </g>
  <line id="Baseline-S" style="fill:none;stroke:#27AAE1;opacity:1;stroke-width:0.5;" x1="263" x2="3036" y1="696" y2="696"/>
  <line id="Capline-S" style="fill:none;stroke:#27AAE1;opacity:1;stroke-width:0.5;" x1="263" x2="3036" y1="625.541" y2="625.541"/>
  <g id="H-reference" style="fill:#27AAE1;stroke:none;" transform="matrix(1 0 0 1 339 1126)">
   <path d="M0.993654 0L3.63775 0L29.3281-67.1323L30.0303-67.1323L30.0303-70.459L28.1226-70.459ZM11.6885-24.4799L46.9815-24.4799L46.2315-26.7285L12.4385-26.7285ZM55.1196 0L57.7637 0L30.6382-70.459L29.4326-70.459L29.4326-67.1323Z"/>
  </g>
  <line id="Baseline-M" style="fill:none;stroke:#27AAE1;opacity:1;stroke-width:0.5;" x1="263" x2="3036" y1="1126" y2="1126"/>
  <line id="Capline-M" style="fill:none;stroke:#27AAE1;opacity:1;stroke-width:0.5;" x1="263" x2="3036" y1="1055.54" y2="1055.54"/>
  <g id="H-reference" style="fill:#27AAE1;stroke:none;" transform="matrix(1 0 0 1 339 1556)">
   <path d="M0.993654 0L3.63775 0L29.3281-67.1323L30.0303-67.1323L30.0303-70.459L28.1226-70.459ZM11.6885-24.4799L46.9815-24.4799L46.2315-26.7285L12.4385-26.7285ZM55.1196 0L57.7637 0L30.6382-70.459L29.4326-70.459L29.4326-67.1323Z"/>
  </g>
  <line id="Baseline-L" style="fill:none;stroke:#27AAE1;opacity:1;stroke-width:0.5;" x1="263" x2="3036" y1="1556" y2="1556"/>
  <line id="Capline-L" style="fill:none;stroke:#27AAE1;opacity:1;stroke-width:0.5;" x1="263" x2="3036" y1="1485.54" y2="1485.54"/>
  <line id="right-margin" style="fill:none;stroke:#00AEEF;stroke-width:0.5;opacity:1.0;" x1="1516.51" x2="1516.51" y1="1030.79" y2="1150.12"/>
  <line id="left-margin" style="fill:none;stroke:#00AEEF;stroke-width:0.5;opacity:1.0;" x1="1383.18" x2="1383.18" y1="1030.79" y2="1150.12"/>
 </g>
 <g id="Symbols">
  <g id="Black-L" transform="matrix(1 0 0 1 2842.43 1556)">
   <path d="M16.084 12.336C16.084 20.0819 21.2617 24.8224 28.5132 24.8224C31.66 24.8224 33.9034 23.5876 38.0875 21.2123C44.8617 17.1054 51.8037 14.9545 58.6493 15.0337C66.5565 15.0921 73.8379 17.9032 79.9643 23.4298C83.6673 26.9351 87.1217 28.4722 90.9734 28.4722C94.8251 28.4722 98.3014 26.9339 101.982 23.4298C108.11 17.9056 115.39 15.0921 123.297 15.0337C130.143 14.9545 137.106 17.1054 143.859 21.2123C148.042 23.5876 150.287 24.8224 153.453 24.8224C160.685 24.8224 165.863 20.0819 165.863 12.336L165.863-73.226C165.863-75.0916 165.431-76.8671 164.612-78.341C157.755-90.4974 141.291-99.0884 122.98-99.0884C110.559-99.0884 98.6287-94.8361 90.9734-88.034C83.318-94.8361 71.3862-99.0884 58.9662-99.0884C40.6764-99.0884 24.1917-90.4974 17.3346-78.341C16.516-76.8671 16.084-75.0916 16.084-73.226ZM36.065-0.152331L36.065-70.0461C40.6702-75.514 49.605-79.1086 58.9662-79.1086C68.5544-79.1086 77.1847-75.4932 80.9829-69.9485L80.9829 0.357419C74.656-2.96402 66.7495-4.96693 58.9662-4.96693C50.7165-4.96693 42.5967-3.23564 36.065-0.152331ZM100.964 0.357419L100.964-69.9485C104.762-75.4932 113.412-79.1086 122.98-79.1086C132.341-79.1086 141.297-75.514 145.882-70.0461L145.882-0.152331C139.371-3.23564 131.23-4.96693 122.98-4.96693C115.197-4.96693 107.31-2.96402 100.964 0.357419Z"/>
  </g>
  <g id="Heavy-L" transform="matrix(1 0 0 1 2546.96 1556)">
   <path d="M16.084 12.4872C16.084 19.5182 20.7817 23.5821 27.1399 23.5821C30.0147 23.5821 32.1328 22.3772 35.8669 20.2202C42.6702 15.9312 50.0454 13.5723 57.4267 13.6471C65.6726 13.6917 73.4118 16.6782 79.7671 22.527C83.2003 25.7614 86.2768 27.1165 89.7331 27.1165C93.1893 27.1165 96.3017 25.7558 99.699 22.527C106.06 16.6895 113.794 13.6917 122.039 13.6471C129.421 13.5723 136.826 15.9312 143.599 20.2202C147.328 22.3772 149.451 23.5821 152.351 23.5821C158.684 23.5821 163.382 19.5182 163.382 12.4872L163.382-73.0571C163.382-74.7385 163.028-76.2946 162.251-77.677C155.679-89.2472 139.769-97.7195 121.74-97.7195C108.982-97.7195 97.0813-93.1666 89.7331-86.1108C82.3848-93.1666 70.4785-97.7195 57.7259-97.7195C39.7269-97.7195 23.7871-89.2472 17.215-77.677C16.4378-76.2946 16.084-74.7385 16.084-73.0571ZM33.5844 1.72044L33.5844-70.3372C38.3219-76.2882 47.7994-80.2247 57.7259-80.2247C67.9207-80.2247 76.9955-76.258 80.9829-70.1491L80.9829 2.38462C74.6588-1.37683 66.2135-3.87786 57.7259-3.87786C48.7636-3.87786 40.1408-1.78751 33.5844 1.72044ZM98.4833 2.38462L98.4833-70.1491C102.471-76.258 111.57-80.2247 121.74-80.2247C131.661-80.2247 141.174-76.2882 145.882-70.3372L145.882 1.72044C139.355-1.78751 130.703-3.87786 121.74-3.87786C113.253-3.87786 104.832-1.37683 98.4833 2.38462Z"/>
  </g>
  <g id="Bold-L" transform="matrix(1 0 0 1 2251.77 1556)">
   <path d="M16.084 12.7313C16.084 18.7967 20.1378 22.0528 25.3894 22.0528C27.9039 22.0528 29.831 20.916 32.9894 19.0355C39.8012 14.4491 47.7813 11.8067 55.9278 11.8739C64.641 11.9031 72.986 15.142 79.6107 21.4127C82.6537 24.2718 85.2541 25.3966 88.2037 25.3966C91.1533 25.3966 93.805 24.2586 96.7968 21.4127C103.435 15.1685 111.767 11.9031 120.48 11.8739C128.626 11.8067 136.644 14.4491 143.418 19.0355C146.563 20.916 148.504 22.0528 151.043 22.0528C156.27 22.0528 160.323 18.7967 160.323 12.7313L160.323-72.7825C160.323-74.2633 160.055-75.5578 159.324-76.8324C153.068-87.7175 137.805-95.9767 120.211-95.9767C107.03-95.9767 95.1977-91.0474 88.2037-83.6542C81.2098-91.0474 69.364-95.9767 56.1966-95.9767C38.6407-95.9767 23.3397-87.7175 17.0838-76.8324C16.3529-75.5578 16.084-74.2633 16.084-72.7825ZM30.5257 3.98135L30.5257-70.6387C35.4247-77.189 45.5708-81.5482 56.1966-81.5482C67.1369-81.5482 76.7276-77.1511 80.9829-70.328L80.9829 4.84506C74.6888 0.575322 65.5899-2.59266 56.1966-2.59266C46.3059-2.59266 37.0831-0.0417572 30.5257 3.98135ZM95.4246 4.84506L95.4246-70.328C99.6799-77.1511 109.295-81.5482 120.211-81.5482C130.823-81.5482 141.021-77.189 145.882-70.6387L145.882 3.98135C139.362-0.0417572 130.102-2.59266 120.211-2.59266C110.818-2.59266 101.743 0.575322 95.4246 4.84506Z"/>
  </g>
  <g id="Semibold-L" transform="matrix(1 0 0 1 1956.12 1556)">
   <path d="M16.084 12.8996C16.084 18.2992 19.6939 20.9985 24.1827 20.9985C26.4487 20.9985 28.2442 19.9087 31.0056 18.2188C37.8234 13.4273 46.2204 10.5894 54.8945 10.6514C63.9298 10.67 72.6925 14.083 79.5028 20.6445C82.2769 23.2449 84.5491 24.2109 87.1494 24.2109C89.7498 24.2109 92.0838 23.2264 94.796 20.6445C101.625 14.12 110.369 10.67 119.404 10.6514C128.078 10.5894 136.519 13.4273 143.293 18.2188C146.036 19.9087 147.85 20.9985 150.141 20.9985C154.605 20.9985 158.215 18.2992 158.215 12.8996L158.215-72.5932C158.215-73.9357 158.005-75.0499 157.305-76.2502C151.268-86.6629 136.45-94.7753 119.157-94.7753C105.685-94.7753 93.8991-89.5865 87.1494-81.9607C80.3997-89.5865 68.5957-94.7753 55.1423-94.7753C37.8918-94.7753 23.0313-86.6629 16.9934-76.2502C16.2943-75.0499 16.084-73.9357 16.084-72.5932ZM28.4171 5.54L28.4171-70.8466C33.4274-77.8101 44.0344-82.4606 55.1423-82.4606C66.5966-82.4606 76.5429-77.7667 80.9829-70.4513L80.9829 6.54127C74.7094 1.92112 65.1599-1.70664 55.1423-1.70664C44.6116-1.70664 34.9751 1.16175 28.4171 5.54ZM93.316 6.54127L93.316-70.4513C97.7559-77.7667 107.727-82.4606 119.157-82.4606C130.246-82.4606 140.915-77.8101 145.882-70.8466L145.882 5.54C139.367 1.16175 129.687-1.70664 119.157-1.70664C109.139-1.70664 99.6144 1.92112 93.316 6.54127Z"/>
  </g>
  <g id="Medium-L" transform="matrix(1 0 0 1 1660.21 1556)">
   <path d="M16.084 13.0273C16.084 17.922 19.3573 20.1991 23.2677 20.1991C25.3453 20.1991 27.0409 19.145 29.5015 17.5995C36.3237 12.6525 45.0369 9.66649 54.1111 9.72445C63.3905 9.73496 72.4699 13.28 79.4211 20.062C81.9912 22.4663 84.0145 23.3118 86.35 23.3118C88.6855 23.3118 90.7787 22.4438 93.2789 20.062C100.253 13.3249 109.31 9.73496 118.589 9.72445C127.663 9.66649 136.424 12.6525 143.199 17.5995C145.637 19.145 147.355 20.1991 149.457 20.1991C153.343 20.1991 156.616 17.922 156.616 13.0273L156.616-72.4497C156.616-73.6873 156.45-74.6647 155.775-75.8087C149.903-85.8633 135.423-93.8643 118.357-93.8643C104.664-93.8643 92.9145-88.4787 86.35-80.6766C79.7855-88.4787 68.0131-93.8643 54.3429-93.8643C37.324-93.8643 22.7975-85.8633 16.9248-75.8087C16.2499-74.6647 16.084-73.6873 16.084-72.4497ZM26.8183 6.72184L26.8183-71.0042C31.913-78.281 42.8695-83.1524 54.3429-83.1524C66.1869-83.1524 76.4029-78.2335 80.9829-70.5449L80.9829 7.82741C74.725 2.94157 64.8339-1.03483 54.3429-1.03483C43.3269-1.03483 33.3768 2.0743 26.8183 6.72184ZM91.7172 7.82741L91.7172-70.5449C96.2971-78.2335 106.538-83.1524 118.357-83.1524C129.808-83.1524 140.835-78.281 145.882-71.0042L145.882 6.72184C139.371 2.0743 129.373-1.03483 118.357-1.03483C107.866-1.03483 98 2.94157 91.7172 7.82741Z"/>
  </g>
  <g id="Regular-L" transform="matrix(1 0 0 1 1364.54 1556)">
   <path d="M16.084 13.1937C16.084 17.4301 18.9183 19.1563 22.0743 19.1563C23.9061 19.1563 25.4715 18.1487 27.5395 16.7918C34.3675 11.642 43.4932 8.46265 53.0891 8.51541C62.6871 8.51541 72.1796 12.2326 79.3144 19.3023C81.6186 21.4507 83.3172 22.1391 85.3073 22.1391C87.2974 22.1391 89.0764 21.423 91.3001 19.3023C98.4626 12.2879 107.927 8.51541 117.525 8.51541C127.121 8.46265 136.3 11.642 143.075 16.7918C145.115 18.1487 146.708 19.1563 148.565 19.1563C151.696 19.1563 154.531 17.4301 154.531 13.1937L154.531-72.2625C154.531-73.3632 154.423-74.1623 153.779-75.2329C148.122-84.8203 134.084-92.676 117.314-92.676C103.334-92.676 91.6303-87.0338 85.3073-79.0017C78.9843-87.0338 67.2532-92.676 53.3002-92.676C36.5834-92.676 22.4925-84.8203 16.8354-75.2329C16.1921-74.1623 16.084-73.3632 16.084-72.2625ZM24.7328 8.26337L24.7328-71.2098C29.9376-78.8952 41.35-84.0548 53.3002-84.0548C65.6525-84.0548 76.2202-78.8424 80.9829-70.6668L80.9829 9.50498C74.7454 4.27258 64.4087-0.158559 53.3002-0.158559C41.6512-0.158559 31.292 3.26459 24.7328 8.26337ZM89.6317 9.50498L89.6317-70.6668C94.3943-78.8424 104.987-84.0548 117.314-84.0548C129.237-84.0548 140.73-78.8952 145.882-71.2098L145.882 8.26337C139.375 3.26459 128.963-0.158559 117.314-0.158559C106.206-0.158559 95.8943 4.27258 89.6317 9.50498Z"/>
  </g>
  <g id="Light-L" transform="matrix(1 0 0 1 1068.84 1556)">
   <path d="M16.084 13.7281C16.084 16.7812 18.1549 18.1448 20.5475 18.1448C21.9785 18.1448 23.1813 17.3853 24.734 16.2574C31.3902 10.4396 41.3748 6.89765 52.1539 6.93133C62.3818 6.93133 72.5422 11.0493 79.7725 18.5579C81.4468 20.191 82.7637 20.6887 84.2958 20.6887C85.8278 20.6887 87.2252 20.1443 88.8191 18.5579C96.096 11.1428 106.21 6.93133 116.438 6.93133C127.217 6.89765 137.235 10.4396 143.858 16.2574C145.364 17.3853 146.613 18.1448 148.031 18.1448C150.437 18.1448 152.508 16.7812 152.508 13.7281L152.508-71.6517C152.508-72.7907 152.38-73.4753 151.737-74.5077C146.061-83.8852 132.214-91.1683 116.303-91.1683C101.998-91.1683 90.5424-85.2398 84.2958-76.8259C78.0491-85.2398 66.5471-91.1683 52.2886-91.1683C36.4116-91.1683 22.5306-83.8852 16.8545-74.5077C16.2111-73.4753 16.084-72.7907 16.084-71.6517ZM22.7098 9.44666L22.7098-71.038C28.01-79.1433 39.8613-84.5892 52.2886-84.5892C65.1181-84.5892 75.8194-79.1096 80.9829-70.3424L80.9829 10.8791C74.9363 5.53221 64.2369 0.318573 52.2886 0.318573C39.7045 0.318573 29.0781 4.16159 22.7098 9.44666ZM87.6087 10.8791L87.6087-70.3424C92.7721-79.1096 103.46-84.5892 116.303-84.5892C128.683-84.5892 140.615-79.1433 145.882-71.038L145.882 9.44666C139.547 4.16159 128.887 0.318573 116.303 0.318573C104.355 0.318573 93.6422 5.53221 87.6087 10.8791Z"/>
  </g>
  <g id="Thin-L" transform="matrix(1 0 0 1 773.464 1556)">
   <path d="M16.084 14.4349C16.084 15.9229 17.1452 16.807 18.5281 16.807C19.4291 16.807 20.1523 16.3757 21.0234 15.5506C27.4525 8.84937 38.5729 4.82782 50.9171 4.83626C61.9779 4.83626 73.0218 9.4843 80.3783 17.5735C81.2196 18.5251 82.0317 18.7703 82.958 18.7703C83.8842 18.7703 84.7767 18.4531 85.5376 17.5735C92.9661 9.62826 103.938 4.83626 114.999 4.83626C127.343 4.82782 138.472 8.84937 144.892 15.5506C145.692 16.3757 146.487 16.807 147.324 16.807C148.771 16.807 149.832 15.9229 149.832 14.4349L149.832-70.844C149.832-72.0334 149.68-72.5666 149.036-73.5485C143.335-82.6483 129.74-89.1741 114.965-89.1741C100.231-89.1741 89.1036-82.8671 82.958-73.9484C76.8123-82.8671 65.6131-89.1741 50.9508-89.1741C36.1845-89.1741 22.5811-82.6483 16.8797-73.5485C16.2364-72.5666 16.084-72.0334 16.084-70.844ZM20.0342 11.0117L20.0342-70.8108C25.4605-79.4714 37.8924-85.2959 50.9508-85.2959C64.4113-85.2959 75.2894-79.463 80.9829-69.9133L80.9829 12.6965C75.1887 7.19817 64.0098 0.949619 50.9508 0.949619C37.1299 0.949619 26.15 5.34796 20.0342 11.0117ZM84.9331 12.6965L84.9331-69.9133C90.6265-79.463 101.441-85.2959 114.965-85.2959C127.951-85.2959 140.464-79.4714 145.882-70.8108L145.882 11.0117C139.774 5.34796 128.786 0.949619 114.965 0.949619C101.906 0.949619 90.6637 7.19817 84.9331 12.6965Z"/>
  </g>
  <g id="Ultralight-L" transform="matrix(1 0 0 1 477.438 1556)">
   <path d="M16.084 14.7969C16.084 15.4834 16.6281 16.1218 17.4938 16.1218C18.1233 16.1218 18.6008 15.8585 19.1229 15.1886C25.4356 8.03486 37.1378 3.76767 50.2836 3.76318C61.771 3.76318 73.2675 8.68271 80.6886 17.0693C81.1033 17.6718 81.6568 17.7877 82.2727 17.7877C82.8887 17.7877 83.5226 17.5869 83.8569 17.0693C91.3629 8.85254 102.774 3.76318 114.262 3.76318C127.408 3.76767 139.105 8.03486 145.423 15.1886C145.86 15.8585 146.422 16.1218 146.962 16.1218C147.917 16.1218 148.461 15.4834 148.461 14.7969L148.461-70.4303C148.461-71.6456 148.296-72.1011 147.653-73.0572C141.938-82.0148 128.473-88.1528 114.28-88.1528C99.3258-88.1528 88.3667-81.6518 82.2727-72.4745C76.1788-81.6518 65.1348-88.1528 50.2656-88.1528C36.0681-88.1528 22.607-82.0148 16.8927-73.0572C16.2493-72.1011 16.084-71.6456 16.084-70.4303ZM18.6637 11.8132L18.6637-70.6945C24.1547-79.6395 36.884-85.6579 50.2656-85.6579C64.0493-85.6579 75.0179-79.644 80.9829-69.6935L80.9829 13.6274C75.318 8.05147 63.8934 1.27284 50.2656 1.27284C35.8111 1.27284 24.6503 5.95561 18.6637 11.8132ZM83.5626 13.6274L83.5626-69.6935C89.5276-79.644 100.407-85.6579 114.28-85.6579C127.577-85.6579 140.386-79.6395 145.882-70.6945L145.882 11.8132C139.891 5.95561 128.734 1.27284 114.28 1.27284C100.652 1.27284 89.1381 8.05147 83.5626 13.6274Z"/>
  </g>
  <g id="Black-M" transform="matrix(1 0 0 1 2861.99 1126)">
   <path d="M12.4609 1.56392C12.4609 8.0191 16.7813 12.2241 23.0638 12.2241C25.6811 12.2241 27.4777 11.2755 31.0363 9.27853C36.2362 6.16279 41.3587 4.62598 46.3622 4.68857C52.2824 4.74566 57.6207 6.82702 62.1833 10.8913C65.1987 13.77 68.1479 15.0915 71.4098 15.0915C74.6717 15.0915 77.6261 13.7703 80.6363 10.8913C85.1986 6.82646 90.5372 4.74566 96.4574 4.68857C101.461 4.62598 106.589 6.16279 111.783 9.27853C115.342 11.2755 117.138 12.2241 119.762 12.2241C126.038 12.2241 130.359 8.0191 130.359 1.56392L130.359-64.7294C130.359-66.3381 129.954-67.8869 129.284-69.1023C123.724-78.9956 110.519-85.6759 96.2071-85.6759C86.8295-85.6759 77.5943-82.601 71.4098-77.4975C65.2253-82.601 55.9904-85.6759 46.6125-85.6759C32.3065-85.6759 19.0953-78.9956 13.5353-69.1023C12.8655-67.8869 12.4609-66.3381 12.4609-64.7294ZM29.7989-9.50293L29.7989-61.93C33.2659-65.8079 39.7811-68.3377 46.6125-68.3377C53.5842-68.3377 59.9066-65.8024 62.7408-61.9114L62.7408-9.21488C57.8626-11.4255 52.151-12.6552 46.6125-12.6552C40.7069-12.6552 34.8121-11.5655 29.7989-9.50293ZM80.0788-9.21488L80.0788-61.9114C82.913-65.8024 89.2412-68.3377 96.2071-68.3377C103.039-68.3377 109.559-65.8079 113.021-61.93L113.021-9.50293C108.013-11.5655 102.113-12.6552 96.2071-12.6552C90.6686-12.6552 84.9628-11.4255 80.0788-9.21488Z"/>
  </g>
  <g id="Heavy-M" transform="matrix(1 0 0 1 2566.4 1126)">
   <path d="M12.4609 1.66246C12.4609 7.52792 16.3826 11.105 21.8621 11.105C24.2506 11.105 25.9582 10.1626 29.1244 8.35803C34.3686 5.12585 39.8352 3.41919 45.2532 3.47922C51.4465 3.52284 57.1707 5.73874 61.9482 10.0775C64.758 12.7389 67.3731 13.9 70.2906 13.9C73.2082 13.9 75.842 12.7366 78.633 10.0775C83.4128 5.74329 89.1348 3.52284 95.328 3.47922C100.746 3.41919 106.229 5.12585 111.457 8.35803C114.621 10.1626 116.331 11.105 118.733 11.105C124.199 11.105 128.12 7.52792 128.12 1.66246L128.12-64.6206C128.12-66.0458 127.794-67.3906 127.165-68.52C121.885-77.8597 109.204-84.4768 95.0879-84.4768C85.4109-84.4768 76.182-81.1344 70.2906-75.8181C64.3993-81.1344 55.1681-84.4768 45.4934-84.4768C31.3941-84.4768 18.6962-77.8597 13.4165-68.52C12.7872-67.3906 12.4609-66.0458 12.4609-64.6206ZM27.5605-7.78134L27.5605-62.2304C31.1481-66.5418 38.1534-69.3795 45.4934-69.3795C53.014-69.3795 59.7586-66.5254 62.7408-62.1374L62.7408-7.35992C57.8477-9.99011 51.6429-11.6345 45.4934-11.6345C38.9773-11.6345 32.6156-10.2327 27.5605-7.78134ZM77.8404-7.35992L77.8404-62.1374C80.8227-66.5254 87.5814-69.3795 95.0879-69.3795C102.426-69.3795 109.45-66.5418 113.021-62.2304L113.021-7.78134C107.982-10.2327 101.604-11.6345 95.0879-11.6345C88.9384-11.6345 82.7476-9.99011 77.8404-7.35992Z"/>
  </g>
  <g id="Bold-M" transform="matrix(1 0 0 1 2270.94 1126)">
   <path d="M12.4609 1.77269C12.4609 6.97847 15.9366 9.85303 20.5179 9.85303C22.6503 9.85303 24.2583 8.91769 26.9855 7.32832C32.2794 3.96588 38.131 2.06921 44.0127 2.12639C50.5114 2.15493 56.6673 4.52134 61.6853 9.16703C64.265 11.5854 66.5063 12.5672 69.0387 12.5672C71.571 12.5672 73.8461 11.5803 76.3921 9.16703C81.4152 4.53161 87.566 2.15493 94.0646 2.12639C99.9464 2.06921 105.827 3.96588 111.092 7.32832C113.814 8.91769 115.427 9.85303 117.583 9.85303C122.141 9.85303 125.616 6.97847 125.616 1.77269L125.616-64.499C125.616-65.7189 125.378-66.8354 124.794-67.8687C119.828-76.5891 107.732-83.1354 93.8359-83.1354C83.8239-83.1354 74.602-79.4939 69.0387-73.9395C63.4753-79.4939 54.2483-83.1354 44.2414-83.1354C30.3735-83.1354 18.2497-76.5891 13.2837-67.8687C12.6997-66.8354 12.4609-65.7189 12.4609-64.499ZM25.0566-5.85549L25.0566-62.5664C28.7791-67.3628 36.3325-70.5448 44.2414-70.5448C52.3762-70.5448 59.593-67.3342 62.7408-62.3903L62.7408-5.28488C57.8311-8.38443 51.0745-10.4928 44.2414-10.4928C37.0426-10.4928 30.1585-8.74161 25.0566-5.85549ZM75.3365-5.28488L75.3365-62.3903C78.4843-67.3342 85.7246-70.5448 93.8359-70.5448C101.74-70.5448 109.327-67.3628 113.021-62.5664L113.021-5.85549C107.948-8.74161 101.035-10.4928 93.8359-10.4928C87.0028-10.4928 80.2697-8.38443 75.3365-5.28488Z"/>
  </g>
  <g id="Semibold-M" transform="matrix(1 0 0 1 1975.09 1126)">
   <path d="M12.4609 1.84868C12.4609 6.59968 15.6291 8.98994 19.5911 8.98994C21.5471 8.98994 23.0865 8.05945 25.511 6.61844C30.8391 3.16621 36.9561 1.13855 43.1575 1.19375C49.8667 1.21191 56.3203 3.68207 61.504 8.53938C63.9251 10.7902 65.9088 11.6484 68.1756 11.6484C70.4424 11.6484 72.4702 10.7831 74.8472 8.53938C80.038 3.69628 86.4844 1.21191 93.1936 1.19375C99.3951 1.13855 105.549 3.16621 110.84 6.61844C113.258 8.05945 114.804 8.98994 116.79 8.98994C120.722 8.98994 123.89 6.59968 123.89 1.84868L123.89-64.4151C123.89-65.4934 123.712-66.4527 123.159-67.4197C118.409-75.7131 106.718-82.2107 92.9729-82.2107C82.7298-82.2107 73.5128-78.3629 68.1756-72.6444C62.8383-78.3629 53.6142-82.2107 43.3783-82.2107C29.6699-82.2107 17.9419-75.7131 13.1922-67.4197C12.6393-66.4527 12.4609-65.4934 12.4609-64.4151ZM23.3305-4.52782L23.3305-62.798C27.1459-67.9288 35.0772-71.3482 43.3783-71.3482C51.9365-71.3482 59.4789-67.8918 62.7408-62.5646L62.7408-3.85436C57.8197-7.27749 50.6827-9.70571 43.3783-9.70571C35.7088-9.70571 28.4645-7.7137 23.3305-4.52782ZM73.6104-3.85436L73.6104-62.5646C76.8723-67.8918 84.4446-71.3482 92.9729-71.3482C101.267-71.3482 109.242-67.9288 113.021-62.798L113.021-4.52782C107.924-7.7137 100.642-9.70571 92.9729-9.70571C85.6685-9.70571 78.5614-7.27749 73.6104-3.85436Z"/>
  </g>
  <g id="Medium-M" transform="matrix(1 0 0 1 1679.03 1126)">
   <path d="M12.4609 1.90631C12.4609 6.31247 15.3959 8.33551 18.8885 8.33551C20.7106 8.33551 22.1979 7.4087 24.393 6.08018C29.747 2.55986 36.0652 0.432886 42.5091 0.48659C49.3779 0.496867 56.0572 3.04571 61.3665 8.06346C63.6674 10.1873 65.4557 10.9517 67.5212 10.9517C69.5866 10.9517 71.427 10.1787 73.6758 8.06346C78.9938 3.06291 85.6644 0.496867 92.5332 0.48659C98.9771 0.432886 105.339 2.55986 110.649 6.08018C112.836 7.4087 114.332 8.33551 116.189 8.33551C119.646 8.33551 122.581 6.31247 122.581 1.90631L122.581-64.3515C122.581-65.3225 122.449-66.1625 121.92-67.0792C117.334-75.0489 105.949-81.5095 92.3184-81.5095C81.9003-81.5095 72.687-77.5054 67.5212-71.6623C62.3554-77.5054 53.1334-81.5095 42.7239-81.5095C29.1364-81.5095 17.7085-75.0489 13.1228-67.0792C12.5935-66.1625 12.4609-65.3225 12.4609-64.3515ZM22.0216-3.52112L22.0216-62.9737C25.9076-68.358 34.1254-71.9574 42.7239-71.9574C51.6031-71.9574 59.3923-68.3145 62.7408-62.6968L62.7408-2.76968C57.811-6.43816 50.3855-9.10891 42.7239-9.10891C34.6974-9.10891 27.1801-6.93429 22.0216-3.52112ZM72.3015-2.76968L72.3015-62.6968C75.65-68.3145 83.474-71.9574 92.3184-71.9574C100.908-71.9574 109.178-68.358 113.021-62.9737L113.021-3.52112C107.906-6.93429 100.345-9.10891 92.3184-9.10891C84.6568-9.10891 77.2662-6.43816 72.3015-2.76968Z"/>
  </g>
  <g id="Regular-M" transform="matrix(1 0 0 1 1383.18 1126)">
   <path d="M12.4609 1.98146C12.4609 5.93785 15.0918 7.48191 17.9719 7.48191C19.6195 7.48191 21.039 6.55989 22.9347 5.37811C28.3226 1.76898 34.9032-0.487548 41.6633-0.435795C48.7404-0.435795 55.7139 2.21566 61.1872 7.44271C63.3312 9.4008 64.8647 10.0429 66.6676 10.0429C68.4704 10.0429 70.0662 9.39025 72.1479 7.44271C77.6317 2.23676 84.5947-0.435795 91.6718-0.435795C98.4319-0.487548 105.064 1.76898 110.4 5.37811C112.286 6.55989 113.716 7.48191 115.404 7.48191C118.243 7.48191 120.874 5.93785 120.874 1.98146L120.874-64.2685C120.874-65.0996 120.801-65.7839 120.303-66.6351C115.931-74.1825 104.946-80.5949 91.4648-80.5949C80.8183-80.5949 71.6097-76.3868 66.6676-70.3815C61.7254-76.3868 52.5063-80.5949 41.8703-80.5949C28.4406-80.5949 17.4041-74.1825 13.0322-66.6351C12.5338-65.7839 12.4609-65.0996 12.4609-64.2685ZM20.3144-2.20804L20.3144-63.2028C24.2924-68.9177 32.8839-72.752 41.8703-72.752C51.1682-72.752 59.2794-68.866 62.7408-62.8692L62.7408-1.35488C57.7997-5.34338 49.998-8.33046 41.8703-8.33046C33.3783-8.33046 25.5048-5.91768 20.3144-2.20804ZM70.5943-1.35488L70.5943-62.8692C74.0557-68.866 82.2081-72.752 91.4648-72.752C100.441-72.752 109.095-68.9177 113.021-63.2028L113.021-2.20804C107.882-5.91768 99.9568-8.33046 91.4648-8.33046C83.3371-8.33046 75.5767-5.34338 70.5943-1.35488Z"/>
  </g>
  <g id="Light-M" transform="matrix(1 0 0 1 1087.37 1126)">
   <path d="M12.4609 2.46057C12.4609 5.35607 14.4074 6.57503 16.6031 6.57503C17.8913 6.57503 18.9856 5.87545 20.4194 4.899C25.6533 0.690987 33.0039-1.89065 40.8248-1.856C48.4666-1.856 56.0391 1.15478 61.5979 6.77538C63.1772 8.27148 64.3685 8.74251 65.7607 8.74251C67.1528 8.74251 68.4064 8.24382 69.9235 6.77538C75.51 1.21011 83.0548-1.856 90.6965-1.856C98.5174-1.89065 105.903 0.690987 111.102 4.899C112.508 5.87545 113.63 6.57503 114.925 6.57503C117.114 6.57503 119.06 5.35607 119.06 2.46057L119.06-63.721C119.06-64.5863 118.97-65.1679 118.472-65.9849C114.083-73.3441 103.269-79.2431 90.5579-79.2431C79.6205-79.2431 70.6344-74.7784 65.7607-68.4308C60.8869-74.7784 51.8732-79.2431 40.9634-79.2431C28.2866-79.2431 17.4383-73.3441 13.0493-65.9849C12.5509-65.1679 12.4609-64.5863 12.4609-63.721ZM18.5006-1.14716L18.5006-63.0488C22.5641-69.1402 31.5492-73.2311 40.9634-73.2311C50.6891-73.2311 58.9201-69.1055 62.7408-62.5783L62.7408-0.122888C57.9708-4.21406 49.844-7.90269 40.9634-7.90269C31.633-7.90269 23.5199-5.11346 18.5006-1.14716ZM68.7805-0.122888L68.7805-62.5783C72.6013-69.1055 80.8392-73.2311 90.5579-73.2311C99.9445-73.2311 108.992-69.1402 113.021-63.0488L113.021-1.14716C108.036-5.11346 99.8884-7.90269 90.5579-7.90269C81.6773-7.90269 73.5576-4.21406 68.7805-0.122888Z"/>
  </g>
  <g id="Thin-M" transform="matrix(1 0 0 1 791.861 1126)">
   <path d="M12.4609 3.09423C12.4609 4.58663 13.5022 5.37561 14.7926 5.37561C15.6056 5.37561 16.27 4.97023 17.0927 4.26534C22.1229-0.734741 30.4919-3.74635 39.7159-3.73434C48.1045-3.73434 56.469-0.248315 62.141 5.89279C62.9735 6.77786 63.7122 7.02259 64.5613 7.02259C65.4103 7.02259 66.2113 6.72757 66.9815 5.89279C72.7038-0.14773 81.018-3.73434 89.4066-3.73434C98.6306-3.74635 107.012-0.734741 112.03 4.26534C112.802 4.97023 113.517 5.37561 114.292 5.37561C115.62 5.37561 116.662 4.58663 116.662 3.09423L116.662-62.9968C116.662-63.9073 116.549-64.3532 116.051-65.1249C111.639-72.2352 101.052-77.4553 89.3585-77.4553C78.0364-77.4553 69.3445-72.6511 64.5613-65.8509C59.778-72.6511 51.0359-77.4553 39.764-77.4553C28.0829-77.4553 17.4836-72.2352 13.072-65.1249C12.5735-64.3532 12.4609-63.9073 12.4609-62.9968ZM16.1018 0.255932L16.1018-62.8451C20.2785-69.4344 29.784-73.8647 39.764-73.8647C50.0555-73.8647 58.4448-69.4224 62.7408-62.1936L62.7408 1.50651C58.1971-2.72044 49.6403-7.33692 39.764-7.33692C29.3246-7.33692 20.8948-4.04982 16.1018 0.255932ZM66.3817 1.50651L66.3817-62.1936C70.6777-69.4224 79.0287-73.8647 89.3585-73.8647C99.2882-73.8647 108.856-69.4344 113.021-62.8451L113.021 0.255932C108.24-4.04982 99.7979-7.33692 89.3585-7.33692C79.4822-7.33692 70.8872-2.72044 66.3817 1.50651Z"/>
  </g>
  <g id="Ultralight-M" transform="matrix(1 0 0 1 495.764 1126)">
   <path d="M12.4609 3.41878C12.4609 4.19253 13.0385 4.76127 13.8653 4.76127C14.4349 4.76127 14.879 4.50658 15.3888 3.94079C20.3147-1.46499 29.2053-4.69684 39.148-4.69642C47.919-4.69642 56.6893-0.966975 62.4192 5.44073C62.8692 6.01283 63.3761 6.14165 63.9469 6.14165C64.5178 6.14165 65.0869 5.95095 65.4746 5.44073C71.2664-0.843207 79.9748-4.69642 88.7459-4.69642C98.6885-4.69684 107.58-1.46499 112.505 3.94079C112.953 4.50658 113.459 4.76127 113.967 4.76127C114.855 4.76127 115.433 4.19253 115.433 3.41878L115.433-62.6259C115.433-63.5596 115.309-63.936 114.81-64.6844C110.387-71.6672 99.9157-76.5396 88.7442-76.5396C77.225-76.5396 68.6838-71.5615 63.9469-64.5295C59.2101-71.5615 50.607-76.5396 39.1496-76.5396C27.9786-76.5396 17.5068-71.6672 13.0836-64.6844C12.5851-63.936 12.4609-63.5596 12.4609-62.6259ZM14.8731 0.974592L14.8731-62.7408C19.1077-69.5851 28.8799-74.1893 39.1496-74.1893C49.7309-74.1893 58.2014-69.5846 62.7408-61.9965L62.7408 2.34109C58.313-1.95541 49.536-7.04714 39.1496-7.04714C28.1423-7.04714 19.5502-3.50503 14.8731 0.974592ZM65.153 2.34109L65.153-61.9965C69.6924-69.5846 78.1014-74.1893 88.7442-74.1893C98.952-74.1893 108.787-69.5851 113.021-62.7408L113.021 0.974592C108.344-3.50503 99.7515-7.04714 88.7442-7.04714C78.3578-7.04714 69.5194-1.95541 65.153 2.34109Z"/>
  </g>
  <g id="Black-S" transform="matrix(1 0 0 1 2877.15 696)">
   <path d="M9.76562-6.39648C9.76562-1.2207 13.2324 2.24609 18.3594 2.24609C20.459 2.24609 21.875 1.51367 24.7559-0.0976562C28.8086-2.53906 32.7637-3.71094 36.6211-3.66211C41.2109-3.61328 45.3125-2.00195 48.8281 1.12305C51.2207 3.41797 53.6133 4.49219 56.25 4.49219C58.8867 4.49219 61.2793 3.41797 63.6719 1.12305C67.1875-2.00195 71.2891-3.61328 75.8789-3.66211C79.7363-3.71094 83.6914-2.53906 87.7441-0.0976562C90.625 1.51367 92.041 2.24609 94.1406 2.24609C99.2676 2.24609 102.734-1.2207 102.734-6.39648L102.734-58.3496C102.734-59.668 102.393-60.9375 101.855-61.9141C97.4121-69.8242 86.9141-75.0488 75.6836-75.0488C68.4082-75.0488 61.1816-72.7051 56.25-68.75C51.3184-72.7051 44.0918-75.0488 36.8164-75.0488C25.5859-75.0488 15.0879-69.8242 10.6445-61.9141C10.1074-60.9375 9.76562-59.668 9.76562-58.3496ZM23.9258-15.5273L23.9258-56.0547C26.6113-58.9844 31.5918-60.8887 36.8164-60.8887C42.1387-60.8887 46.9727-58.9844 49.1699-56.0547L49.1699-15.332C45.3613-16.9434 41.0156-17.8223 36.8164-17.8223C32.3242-17.8223 27.832-17.041 23.9258-15.5273ZM63.3301-15.332L63.3301-56.0547C65.5273-58.9844 70.3613-60.8887 75.6836-60.8887C80.9082-60.8887 85.8887-58.9844 88.5742-56.0547L88.5742-15.5273C84.668-17.041 80.1758-17.8223 75.6836-17.8223C71.4844-17.8223 67.1387-16.9434 63.3301-15.332Z"/>
  </g>
  <g id="Heavy-S" transform="matrix(1 0 0 1 2581.28 696)">
   <path d="M9.76562-6.37344C9.76562-1.56644 12.9789 1.40481 17.5066 1.40481C19.4564 1.40481 20.8378 0.649337 23.4421-0.823698C27.5524-3.28815 31.7034-4.56375 35.7798-4.51492C40.531-4.47762 44.8861-2.79714 48.5746 0.51225C50.8634 2.6804 53.014 3.63938 55.4087 3.63938C57.8034 3.63938 59.9655 2.6804 62.2428 0.51225C65.9313-2.79714 70.2864-4.47762 75.0376-4.51492C79.114-4.56375 83.2765-3.28815 87.3754-0.823698C89.9796 0.649337 91.3611 1.40481 93.3224 1.40481C97.8385 1.40481 101.052-1.56644 101.052-6.37344L101.052-58.3266C101.052-59.4836 100.779-60.5918 100.277-61.4992C96.0753-68.9599 86.0036-74.196 74.8423-74.196C67.348-74.196 60.0983-71.6564 55.4087-67.563C50.7191-71.6564 43.4695-74.196 35.9751-74.196C24.8253-74.196 14.7422-68.9599 10.5408-61.4992C10.0383-60.5918 9.76562-59.4836 9.76562-58.3266ZM22.2432-14.1905L22.2432-56.3313C25.021-59.5836 30.3702-61.7184 35.9751-61.7184C41.7123-61.7184 46.892-59.5721 49.1699-56.2852L49.1699-13.903C45.3268-15.8601 40.6007-17.004 35.9751-17.004C31.0681-17.004 26.2071-16.0038 22.2432-14.1905ZM61.6475-13.903L61.6475-56.2852C63.9254-59.5721 69.1167-61.7184 74.8423-61.7184C80.4472-61.7184 85.808-59.5836 88.5742-56.3313L88.5742-14.1905C84.6219-16.0038 79.7494-17.004 74.8423-17.004C70.2167-17.004 65.5022-15.8601 61.6475-13.903Z"/>
  </g>
  <g id="Bold-S" transform="matrix(1 0 0 1 2285.51 696)">
   <path d="M9.76562-6.34766C9.76562-1.95312 12.6953 0.463867 16.5527 0.463867C18.335 0.463867 19.6777-0.317383 21.9727-1.63574C26.1475-4.12598 30.5176-5.51758 34.8389-5.46875C39.7705-5.44434 44.4092-3.68652 48.291-0.170898C50.4639 1.85547 52.3438 2.68555 54.4678 2.68555C56.5918 2.68555 58.4961 1.85547 60.6445-0.170898C64.5264-3.68652 69.165-5.44434 74.0967-5.46875C78.418-5.51758 82.8125-4.12598 86.9629-1.63574C89.2578-0.317383 90.6006 0.463867 92.4072 0.463867C96.2402 0.463867 99.1699-1.95312 99.1699-6.34766L99.1699-58.3008C99.1699-59.2773 98.9746-60.2051 98.5107-61.0352C94.5801-67.9932 84.9854-73.2422 73.9014-73.2422C66.1621-73.2422 58.8867-70.4834 54.4678-66.2354C50.0488-70.4834 42.7734-73.2422 35.0342-73.2422C23.9746-73.2422 14.3555-67.9932 10.4248-61.0352C9.96094-60.2051 9.76562-59.2773 9.76562-58.3008ZM20.3613-12.6953L20.3613-56.6406C23.2422-60.2539 29.0039-62.6465 35.0342-62.6465C41.2354-62.6465 46.8018-60.2295 49.1699-56.543L49.1699-12.3047C45.2881-14.6484 40.1367-16.0889 35.0342-16.0889C29.6631-16.0889 24.3896-14.8438 20.3613-12.6953ZM59.7656-12.3047L59.7656-56.543C62.1338-60.2295 67.7246-62.6465 73.9014-62.6465C79.9316-62.6465 85.7178-60.2539 88.5742-56.6406L88.5742-12.6953C84.5703-14.8438 79.2725-16.0889 73.9014-16.0889C68.7988-16.0889 63.6719-14.6484 59.7656-12.3047Z"/>
  </g>
  <g id="Semibold-S" transform="matrix(1 0 0 1 1989.45 696)">
   <path d="M9.76562-6.32988C9.76562-2.21973 12.4998-0.184863 15.8951-0.184863C17.5618-0.184863 18.8779-0.983887 20.9596-2.19561C25.1788-4.70361 29.7-6.1752 34.1901-6.12637C39.2462-6.11084 44.0804-4.29971 48.0955-0.641895C50.1884 1.28672 51.8816 2.02793 53.819 2.02793C55.7564 2.02793 57.483 1.28672 59.5426-0.641895C63.5577-4.29971 68.3919-6.11084 73.4479-6.12637C77.9381-6.1752 82.4926-4.70361 86.6785-2.19561C88.7602-0.983887 90.0763-0.184863 91.7763-0.184863C95.1383-0.184863 97.8725-2.21973 97.8725-6.32988L97.8725-58.283C97.8725-59.1352 97.7305-59.9385 97.2933-60.7152C93.5492-67.3267 84.2833-72.5846 73.2526-72.5846C65.3445-72.5846 58.0514-69.6747 53.819-65.32C49.5867-69.6747 42.2936-72.5846 34.3854-72.5846C23.3881-72.5846 14.0889-67.3267 10.3448-60.7152C9.90762-59.9385 9.76562-59.1352 9.76562-58.283ZM19.0639-11.6645L19.0639-56.8539C22.0158-60.716 28.0619-63.2863 34.3854-63.2863C40.9065-63.2863 46.7396-60.6827 49.1699-56.7207L49.1699-11.2027C45.2614-13.8131 39.8168-15.4579 34.3854-15.4579C28.6944-15.4579 23.1366-14.0439 19.0639-11.6645ZM58.4682-11.2027L58.4682-56.7207C60.8985-60.6827 66.7648-63.2863 73.2526-63.2863C79.5762-63.2863 85.6556-60.716 88.5742-56.8539L88.5742-11.6645C84.5348-14.0439 78.9437-15.4579 73.2526-15.4579C67.8213-15.4579 62.41-13.8131 58.4682-11.2027Z"/>
  </g>
  <g id="Medium-S" transform="matrix(1 0 0 1 1693.23 696)">
   <path d="M9.76562-6.31641C9.76562-2.42188 12.3516-0.676758 15.3965-0.676758C16.9756-0.676758 18.2715-1.48926 20.1914-2.62012C24.4443-5.1416 29.0801-6.67383 33.6982-6.625C38.8486-6.61621 43.8311-4.76465 47.9473-0.999023C49.9795 0.855469 51.5312 1.5293 53.3271 1.5293C55.123 1.5293 56.7148 0.855469 58.707-0.999023C62.8232-4.76465 67.8057-6.61621 72.9561-6.625C77.5742-6.67383 82.25-5.1416 86.4629-2.62012C88.3828-1.48926 89.6787-0.676758 91.2979-0.676758C94.3027-0.676758 96.8887-2.42188 96.8887-6.31641L96.8887-58.2695C96.8887-59.0273 96.7871-59.7363 96.3701-60.4727C92.7676-66.8213 83.751-72.0859 72.7607-72.0859C64.7246-72.0859 57.418-69.0615 53.3271-64.626C49.2363-69.0615 41.9297-72.0859 33.8936-72.0859C22.9434-72.0859 13.8867-66.8213 10.2842-60.4727C9.86719-59.7363 9.76562-59.0273 9.76562-58.2695ZM18.0801-10.8828L18.0801-57.0156C21.0859-61.0664 27.3477-63.7715 33.8936-63.7715C40.6572-63.7715 46.6924-61.0264 49.1699-56.8555L49.1699-10.3672C45.2412-13.1797 39.5742-14.9795 33.8936-14.9795C27.96-14.9795 22.1865-13.4375 18.0801-10.8828ZM57.4844-10.3672L57.4844-56.8555C59.9619-61.0264 66.0371-63.7715 72.7607-63.7715C79.3066-63.7715 85.6084-61.0664 88.5742-57.0156L88.5742-10.8828C84.5078-13.4375 78.6943-14.9795 72.7607-14.9795C67.0801-14.9795 61.4531-13.1797 57.4844-10.3672Z"/>
  </g>
  <g id="Regular-S" transform="matrix(1 0 0 1 1397.16 696)">
   <path d="M9.76562-6.29883C9.76562-2.68555 12.1582-1.31836 14.7461-1.31836C16.2109-1.31836 17.4805-2.14844 19.1895-3.17383C23.4863-5.71289 28.2715-7.32422 33.0566-7.27539C38.3301-7.27539 43.5059-5.37109 47.7539-1.46484C49.707 0.292969 51.0742 0.878906 52.6855 0.878906C54.2969 0.878906 55.7129 0.292969 57.6172-1.46484C61.8652-5.37109 67.041-7.27539 72.3145-7.27539C77.0996-7.32422 81.9336-5.71289 86.1816-3.17383C87.8906-2.14844 89.1602-1.31836 90.6738-1.31836C93.2129-1.31836 95.6055-2.68555 95.6055-6.29883L95.6055-58.252C95.6055-58.8867 95.5566-59.4727 95.166-60.1562C91.748-66.1621 83.0566-71.4355 72.1191-71.4355C63.916-71.4355 56.5918-68.2617 52.6855-63.7207C48.7793-68.2617 41.4551-71.4355 33.252-71.4355C22.3633-71.4355 13.623-66.1621 10.2051-60.1562C9.81445-59.4727 9.76562-58.8867 9.76562-58.252ZM16.7969-9.86328L16.7969-57.2266C19.873-61.5234 26.416-64.4043 33.252-64.4043C40.332-64.4043 46.6309-61.4746 49.1699-57.0312L49.1699-9.27734C45.2148-12.3535 39.2578-14.3555 33.252-14.3555C27.002-14.3555 20.9473-12.6465 16.7969-9.86328ZM56.2012-9.27734L56.2012-57.0312C58.7402-61.4746 65.0879-64.4043 72.1191-64.4043C78.9551-64.4043 85.5469-61.5234 88.5742-57.2266L88.5742-9.86328C84.4727-12.6465 78.3691-14.3555 72.1191-14.3555C66.1133-14.3555 60.2051-12.3535 56.2012-9.27734Z"/>
  </g>
  <g id="Light-S" transform="matrix(1 0 0 1 1101.25 696)">
   <path d="M9.76562-5.875C9.76562-3.20019 11.5527-2.1206 13.5352-2.1206C14.6821-2.1206 15.6641-2.7539 16.9644-3.59765C21.125-6.6665 26.5913-8.56542 32.3149-8.53173C38.0879-8.53173 43.7935-6.30956 48.1172-2.05517C49.5708-0.706047 50.6353-0.271475 51.8833-0.271475C53.1314-0.271475 54.2446-0.721183 55.6494-2.05517C59.9883-6.27929 65.6787-8.53173 71.4517-8.53173C77.1753-8.56542 82.6753-6.6665 86.8022-3.59765C88.0874-2.7539 89.0845-2.1206 90.25-2.1206C92.2139-2.1206 94.001-3.20019 94.001-5.875L94.001-57.7676C94.001-58.4326 93.937-58.9277 93.5464-59.5811C90.1133-65.4204 81.5733-70.2398 71.3169-70.2398C62.8565-70.2398 55.729-66.8389 51.8833-61.9951C48.0376-66.8389 40.895-70.2398 32.4497-70.2398C22.2271-70.2398 13.6533-65.4204 10.2202-59.5811C9.82959-58.9277 9.76562-58.4326 9.76562-57.7676ZM15.1924-8.92481L15.1924-57.0903C18.3443-61.7202 25.2354-64.8281 32.4497-64.8281C39.9082-64.8281 46.313-61.6865 49.1699-56.7739L49.1699-8.18751C45.3662-11.3545 39.1216-13.9771 32.4497-13.9771C25.458-13.9771 19.1914-11.9351 15.1924-8.92481ZM54.5967-8.18751L54.5967-56.7739C57.4536-61.6865 63.877-64.8281 71.3169-64.8281C78.5161-64.8281 85.4561-61.7202 88.5742-57.0903L88.5742-8.92481C84.6089-11.9351 78.3086-13.9771 71.3169-13.9771C64.645-13.9771 58.419-11.3545 54.5967-8.18751Z"/>
  </g>
  <g id="Thin-S" transform="matrix(1 0 0 1 805.6 696)">
   <path d="M9.76562-5.31446C9.76562-3.88085 10.752-3.18163 11.9336-3.18163C12.6602-3.18163 13.2618-3.55468 14.0215-4.1582C18.002-7.92772 24.3692-10.207 31.334-10.1933C37.7676-10.1933 44.1738-7.55076 48.5976-2.83593C49.3906-2.02733 50.0547-1.79295 50.8223-1.79295C51.5899-1.79295 52.3028-2.06248 53.0469-2.83593C57.5059-7.48045 63.877-10.1933 70.3106-10.1933C77.2754-10.207 83.6562-7.92772 87.623-4.1582C88.3477-3.55468 88.9844-3.18163 89.6895-3.18163C90.8926-3.18163 91.8789-3.88085 91.8789-5.31446L91.8789-57.127C91.8789-57.832 91.795-58.207 91.4043-58.8203C87.9512-64.4395 79.6114-68.6582 70.2559-68.6582C61.4551-68.6582 54.5879-64.9571 50.8223-59.7129C47.0567-64.9571 40.1543-68.6582 31.3887-68.6582C22.0469-68.6582 13.6934-64.4395 10.2402-58.8203C9.84961-58.207 9.76562-57.832 9.76562-57.127ZM13.0703-7.68361L13.0703-56.9102C16.3223-61.9805 23.6738-65.3887 31.3887-65.3887C39.3477-65.3887 45.8926-61.9668 49.1699-56.4336L49.1699-6.74611C45.5664-10.0332 38.9414-13.4766 31.3887-13.4766C23.416-13.4766 16.8692-10.9942 13.0703-7.68361ZM52.4746-6.74611L52.4746-56.4336C55.752-61.9668 62.2754-65.3887 70.2559-65.3887C77.9356-65.3887 85.3359-61.9805 88.5742-56.9102L88.5742-7.68361C84.7891-10.9942 78.2285-13.4766 70.2559-13.4766C62.7032-13.4766 56.0567-10.0332 52.4746-6.74611Z"/>
  </g>
  <g id="Ultralight-S" transform="matrix(1 0 0 1 509.432 696)">
   <path d="M9.76562-5.02735C9.76562-4.22948 10.3418-3.72508 11.1133-3.72508C11.6245-3.72508 12.0313-3.96483 12.5142-4.4453C16.4024-8.57371 23.231-11.0478 30.8316-11.0444C37.6035-11.0444 44.3686-8.1865 48.8437-3.23583C49.2983-2.70408 49.7573-2.57224 50.2788-2.57224C50.8003-2.57224 51.3081-2.74949 51.7139-3.23583C56.2344-8.09568 62.9541-11.0444 69.7261-11.0444C77.3267-11.0478 84.1587-8.57371 88.0434-4.4453C88.481-3.96483 88.9331-3.72508 89.4024-3.72508C90.2158-3.72508 90.792-4.22948 90.792-5.02735L90.792-56.7988C90.792-57.5244 90.6978-57.8379 90.3072-58.4307C86.8438-63.937 78.6065-67.8482 69.7124-67.8482C60.7373-67.8482 54.0034-63.9932 50.2788-58.544C46.5542-63.9932 39.7749-67.8482 30.8452-67.8482C21.9546-67.8482 13.7139-63.937 10.2505-58.4307C9.85986-57.8379 9.76562-57.5244 9.76562-56.7988ZM11.9834-7.04787L11.9834-56.8179C15.2867-62.1138 22.8741-65.6758 30.8452-65.6758C39.0606-65.6758 45.6773-62.1103 49.1699-56.2593L49.1699-6.00784C45.6689-9.35647 38.8491-13.2202 30.8452-13.2202C22.3702-13.2202 15.6797-10.5122 11.9834-7.04787ZM51.3877-6.00784L51.3877-56.2593C54.8804-62.1103 61.4551-65.6758 69.7124-65.6758C77.6382-65.6758 85.2744-62.1138 88.5742-56.8179L88.5742-7.04787C84.8813-10.5122 78.1875-13.2202 69.7124-13.2202C61.7085-13.2202 54.8467-9.35647 51.3877-6.00784Z"/>
  </g>
 </g>
</svg>
