<?xml version="1.0" encoding="UTF-8"?>
<!--Generator: Apple Native CoreSVG 341-->
<!DOCTYPE svg
PUBLIC "-//W3C//DTD SVG 1.1//EN"
       "http://www.w3.org/Graphics/SVG/1.1/DTD/svg11.dtd">
<svg version="1.1" xmlns="http://www.w3.org/2000/svg" xmlns:xlink="http://www.w3.org/1999/xlink" viewBox="0 0 3300 2200">
 <g id="Notes">
  <rect height="2200" id="artboard" style="fill:white;opacity:1" width="3300" x="0" y="0"/>
  <line style="fill:none;stroke:black;opacity:1;stroke-width:0.5;" x1="263" x2="3036" y1="292" y2="292"/>
  <text style="stroke:none;fill:black;font-family:sans-serif;font-size:13;font-weight:bold;" transform="matrix(1 0 0 1 263 322)">Weight/Scale Variations</text>
  <text style="stroke:none;fill:black;font-family:sans-serif;font-size:13;text-anchor:middle;" transform="matrix(1 0 0 1 559.711 322)">Ultralight</text>
  <text style="stroke:none;fill:black;font-family:sans-serif;font-size:13;text-anchor:middle;" transform="matrix(1 0 0 1 856.422 322)">Thin</text>
  <text style="stroke:none;fill:black;font-family:sans-serif;font-size:13;text-anchor:middle;" transform="matrix(1 0 0 1 1153.13 322)">Light</text>
  <text style="stroke:none;fill:black;font-family:sans-serif;font-size:13;text-anchor:middle;" transform="matrix(1 0 0 1 1449.84 322)">Regular</text>
  <text style="stroke:none;fill:black;font-family:sans-serif;font-size:13;text-anchor:middle;" transform="matrix(1 0 0 1 1746.56 322)">Medium</text>
  <text style="stroke:none;fill:black;font-family:sans-serif;font-size:13;text-anchor:middle;" transform="matrix(1 0 0 1 2043.27 322)">Semibold</text>
  <text style="stroke:none;fill:black;font-family:sans-serif;font-size:13;text-anchor:middle;" transform="matrix(1 0 0 1 2339.98 322)">Bold</text>
  <text style="stroke:none;fill:black;font-family:sans-serif;font-size:13;text-anchor:middle;" transform="matrix(1 0 0 1 2636.69 322)">Heavy</text>
  <text style="stroke:none;fill:black;font-family:sans-serif;font-size:13;text-anchor:middle;" transform="matrix(1 0 0 1 2933.4 322)">Black</text>
  <line style="fill:none;stroke:black;opacity:1;stroke-width:0.5;" x1="263" x2="3036" y1="1903" y2="1903"/>
  <g transform="matrix(0.2 0 0 0.2 263 1933)">
   <path d="m46.2402 4.15039c21.7773 0 39.4531-17.627 39.4531-39.4043s-17.6758-39.4043-39.4531-39.4043c-21.7285 0-39.4043 17.627-39.4043 39.4043s17.6758 39.4043 39.4043 39.4043Zm0-7.42188c-17.6758 0-31.9336-14.3066-31.9336-31.9824s14.2578-31.9824 31.9336-31.9824 31.9824 14.3066 31.9824 31.9824-14.3066 31.9824-31.9824 31.9824Zm3.61328-17.7734v-28.4668c0-2.24609-1.46484-3.75977-3.71094-3.75977-2.14844 0-3.61328 1.51367-3.61328 3.75977v28.4668c0 2.19727 1.46484 3.71094 3.61328 3.71094 2.24609 0 3.71094-1.51367 3.71094-3.71094Zm-17.8223-10.5957h28.418c2.19727 0 3.71094-1.46484 3.71094-3.61328 0-2.19727-1.51367-3.71094-3.71094-3.71094h-28.418c-2.24609 0-3.75977 1.51367-3.75977 3.71094 0 2.14844 1.51367 3.61328 3.75977 3.61328Z"/>
  </g>
  <g transform="matrix(0.2 0 0 0.2 281.506 1933)">
   <path d="m58.5449 14.5508c27.4902 0 49.8047-22.3145 49.8047-49.8047s-22.3145-49.8047-49.8047-49.8047-49.8047 22.3145-49.8047 49.8047 22.3145 49.8047 49.8047 49.8047Zm0-8.30078c-22.9492 0-41.5039-18.5547-41.5039-41.5039s18.5547-41.5039 41.5039-41.5039 41.5039 18.5547 41.5039 41.5039-18.5547 41.5039-41.5039 41.5039Zm4.05273-23.0957v-36.9141c0-2.49023-1.70898-4.19922-4.15039-4.19922-2.39258 0-4.05273 1.70898-4.05273 4.19922v36.9141c0 2.44141 1.66016 4.15039 4.05273 4.15039 2.44141 0 4.15039-1.66016 4.15039-4.15039Zm-22.5586-14.4043h36.9629c2.44141 0 4.15039-1.61133 4.15039-4.00391 0-2.44141-1.70898-4.15039-4.15039-4.15039h-36.9629c-2.49023 0-4.15039 1.70898-4.15039 4.15039 0 2.39258 1.66016 4.00391 4.15039 4.00391Z"/>
  </g>
  <g transform="matrix(0.2 0 0 0.2 304.924 1933)">
   <path d="m74.8535 28.3203c35.1074 0 63.623-28.4668 63.623-63.5742s-28.5156-63.623-63.623-63.623-63.5742 28.5156-63.5742 63.623 28.4668 63.5742 63.5742 63.5742Zm0-9.08203c-30.127 0-54.4922-24.3652-54.4922-54.4922s24.3652-54.4922 54.4922-54.4922 54.4922 24.3652 54.4922 54.4922-24.3652 54.4922-54.4922 54.4922Zm4.44336-30.3223v-48.4863c0-2.73438-1.85547-4.63867-4.54102-4.63867-2.58789 0-4.44336 1.9043-4.44336 4.63867v48.4863c0 2.68555 1.85547 4.58984 4.44336 4.58984 2.68555 0 4.54102-1.85547 4.54102-4.58984Zm-28.7109-19.7754h48.4863c2.68555 0 4.58984-1.80664 4.58984-4.39453 0-2.73438-1.85547-4.58984-4.58984-4.58984h-48.4863c-2.73438 0-4.58984 1.85547-4.58984 4.58984 0 2.58789 1.85547 4.39453 4.58984 4.39453Z"/>
  </g>
  <text style="stroke:none;fill:black;font-family:sans-serif;font-size:13;font-weight:bold;" transform="matrix(1 0 0 1 263 1953)">Design Variations</text>
  <text style="stroke:none;fill:black;font-family:sans-serif;font-size:13;" transform="matrix(1 0 0 1 263 1971)">Symbols are supported in up to nine weights and three scales.</text>
  <text style="stroke:none;fill:black;font-family:sans-serif;font-size:13;" transform="matrix(1 0 0 1 263 1989)">For optimal layout with text and other symbols, vertically align</text>
  <text style="stroke:none;fill:black;font-family:sans-serif;font-size:13;" transform="matrix(1 0 0 1 263 2007)">symbols with the adjacent text.</text>
  <line style="fill:none;stroke:#00AEEF;stroke-width:0.5;opacity:1.0;" x1="776" x2="776" y1="1919" y2="1933"/>
  <g transform="matrix(0.2 0 0 0.2 776 1933)">
   <path d="m16.5527 0.78125c2.58789 0 3.85742-0.976562 4.78516-3.71094l20.5566-57.5195h0.244141l20.6055 57.5195c0.927734 2.73438 2.19727 3.71094 4.73633 3.71094 2.58789 0 4.24805-1.5625 4.24805-4.00391 0-0.830078-0.146484-1.61133-0.537109-2.63672l-22.9004-60.9863c-1.12305-2.97852-3.125-4.49219-6.25-4.49219-3.02734 0-5.07812 1.46484-6.15234 4.44336l-22.9004 61.084c-0.390625 1.02539-0.537109 1.80664-0.537109 2.63672 0 2.44141 1.5625 3.95508 4.10156 3.95508Zm10.2051-20.9473h30.6641c2.00195 0 3.66211-1.66016 3.66211-3.66211 0-2.05078-1.66016-3.66211-3.66211-3.66211h-30.6641c-2.00195 0-3.66211 1.61133-3.66211 3.66211 0 2.00195 1.66016 3.66211 3.66211 3.66211Z"/>
  </g>
  <line style="fill:none;stroke:#00AEEF;stroke-width:0.5;opacity:1.0;" x1="792.836" x2="792.836" y1="1919" y2="1933"/>
  <text style="stroke:none;fill:black;font-family:sans-serif;font-size:13;font-weight:bold;" transform="matrix(1 0 0 1 776 1953)">Margins</text>
  <text style="stroke:none;fill:black;font-family:sans-serif;font-size:13;" transform="matrix(1 0 0 1 776 1971)">Leading and trailing margins on the left and right side of each symbol</text>
  <text style="stroke:none;fill:black;font-family:sans-serif;font-size:13;" transform="matrix(1 0 0 1 776 1989)">can be adjusted by modifying the x-location of the margin guidelines.</text>
  <text style="stroke:none;fill:black;font-family:sans-serif;font-size:13;" transform="matrix(1 0 0 1 776 2007)">Modifications are automatically applied proportionally to all</text>
  <text style="stroke:none;fill:black;font-family:sans-serif;font-size:13;" transform="matrix(1 0 0 1 776 2025)">scales and weights.</text>
  <g transform="matrix(0.2 0 0 0.2 1289 1933)">
   <path d="m14.209 13.1348 7.86133 7.86133c4.29688 4.39453 9.32617 4.10156 13.8672-1.02539l60.6934-68.2129-4.88281-4.88281-60.2539 67.6758c-1.80664 1.95312-3.4668 2.44141-5.81055 0.0976562l-5.17578-5.12695c-2.29492-2.29492-1.80664-3.95508 0.195312-5.81055l67.4805-62.1582-4.88281-4.83398-68.0664 62.5977c-4.98047 4.58984-5.32227 9.47266-1.02539 13.8184Zm44.873-97.4609c-2.05078 2.00195-2.24609 4.88281-1.07422 6.78711 1.12305 1.80664 3.4668 3.02734 6.5918 2.24609 5.85938-1.66016 12.5977-2.39258 18.8965 0.927734l-2.68555 7.12891c-1.61133 4.00391-0.732422 6.88477 1.70898 9.42383l10.2539 10.3027c2.34375 2.39258 4.54102 2.44141 7.08008 1.95312l4.44336-0.732422 2.58789 2.53906-0.195312 2.24609c-0.0976562 2.29492 0.537109 4.29688 2.7832 6.49414l3.36914 3.32031c2.29492 2.29492 5.51758 2.49023 7.8125 0.195312l12.9883-13.0371c2.29492-2.34375 2.14844-5.37109-0.195312-7.66602l-3.41797-3.41797c-2.19727-2.19727-4.05273-3.02734-6.34766-2.88086l-2.34375 0.244141-2.44141-2.44141 1.02539-4.6875c0.634766-2.73438-0.244141-4.98047-2.88086-7.61719l-11.2793-11.1816c-12.9395-12.8418-35.5957-11.0352-46.6797-0.146484Zm7.08008 2.05078c8.78906-6.39648 25.9766-5.66406 33.6914 1.95312l12.3047 12.207c1.02539 1.02539 1.2207 1.80664 0.927734 3.32031l-1.46484 6.64062 6.73828 6.68945 4.39453-0.244141c1.12305-0.0488281 1.51367 0.0488281 2.34375 0.878906l2.53906 2.49023-10.8398 10.8398-2.49023-2.49023c-0.830078-0.878906-0.976562-1.2207-0.927734-2.39258l0.292969-4.3457-6.68945-6.73828-6.83594 1.17188c-1.41602 0.292969-2.05078 0.195312-3.17383-0.878906l-8.93555-8.88672c-1.07422-1.02539-1.17188-1.70898-0.488281-3.36914l4.58984-11.4746c-6.10352-6.34766-17.041-7.51953-25.5859-4.58984-0.683594 0.244141-0.927734-0.390625-0.390625-0.78125Z"/>
  </g>
  <text style="stroke:none;fill:black;font-family:sans-serif;font-size:13;font-weight:bold;" transform="matrix(1 0 0 1 1289 1953)">Exporting</text>
  <text style="stroke:none;fill:black;font-family:sans-serif;font-size:13;" transform="matrix(1 0 0 1 1289 1971)">Symbols should be outlined when exporting to ensure the</text>
  <text style="stroke:none;fill:black;font-family:sans-serif;font-size:13;" transform="matrix(1 0 0 1 1289 1989)">design is preserved when submitting to Xcode.</text>
  <text id="template-version" style="stroke:none;fill:black;font-family:sans-serif;font-size:13;text-anchor:end;" transform="matrix(1 0 0 1 3036 1933)">Template v.2.0</text>
  <text style="stroke:none;fill:black;font-family:sans-serif;font-size:13;text-anchor:end;" transform="matrix(1 0 0 1 3036 1951)">Requires Xcode 12 or greater</text>
  <text id="descriptive-name" style="stroke:none;fill:black;font-family:sans-serif;font-size:13;text-anchor:end;" transform="matrix(1 0 0 1 3036 1969)">Generated from arrow.clockwise</text>
  <text style="stroke:none;fill:black;font-family:sans-serif;font-size:13;text-anchor:end;" transform="matrix(1 0 0 1 3036 1987)">Typeset at 100.0 points</text>
  <text style="stroke:none;fill:black;font-family:sans-serif;font-size:13;" transform="matrix(1 0 0 1 263 726)">Small</text>
  <text style="stroke:none;fill:black;font-family:sans-serif;font-size:13;" transform="matrix(1 0 0 1 263 1156)">Medium</text>
  <text style="stroke:none;fill:black;font-family:sans-serif;font-size:13;" transform="matrix(1 0 0 1 263 1586)">Large</text>
 </g>
 <g id="Guides">
  <g id="H-reference" style="fill:#27AAE1;stroke:none;" transform="matrix(1 0 0 1 339 696)">
   <path d="M0.993654 0L3.63775 0L29.3281-67.1323L30.0303-67.1323L30.0303-70.459L28.1226-70.459ZM11.6885-24.4799L46.9815-24.4799L46.2315-26.7285L12.4385-26.7285ZM55.1196 0L57.7637 0L30.6382-70.459L29.4326-70.459L29.4326-67.1323Z"/>
  </g>
  <line id="Baseline-S" style="fill:none;stroke:#27AAE1;opacity:1;stroke-width:0.5;" x1="263" x2="3036" y1="696" y2="696"/>
  <line id="Capline-S" style="fill:none;stroke:#27AAE1;opacity:1;stroke-width:0.5;" x1="263" x2="3036" y1="625.541" y2="625.541"/>
  <g id="H-reference" style="fill:#27AAE1;stroke:none;" transform="matrix(1 0 0 1 339 1126)">
   <path d="M0.993654 0L3.63775 0L29.3281-67.1323L30.0303-67.1323L30.0303-70.459L28.1226-70.459ZM11.6885-24.4799L46.9815-24.4799L46.2315-26.7285L12.4385-26.7285ZM55.1196 0L57.7637 0L30.6382-70.459L29.4326-70.459L29.4326-67.1323Z"/>
  </g>
  <line id="Baseline-M" style="fill:none;stroke:#27AAE1;opacity:1;stroke-width:0.5;" x1="263" x2="3036" y1="1126" y2="1126"/>
  <line id="Capline-M" style="fill:none;stroke:#27AAE1;opacity:1;stroke-width:0.5;" x1="263" x2="3036" y1="1055.54" y2="1055.54"/>
  <g id="H-reference" style="fill:#27AAE1;stroke:none;" transform="matrix(1 0 0 1 339 1556)">
   <path d="M0.993654 0L3.63775 0L29.3281-67.1323L30.0303-67.1323L30.0303-70.459L28.1226-70.459ZM11.6885-24.4799L46.9815-24.4799L46.2315-26.7285L12.4385-26.7285ZM55.1196 0L57.7637 0L30.6382-70.459L29.4326-70.459L29.4326-67.1323Z"/>
  </g>
  <line id="Baseline-L" style="fill:none;stroke:#27AAE1;opacity:1;stroke-width:0.5;" x1="263" x2="3036" y1="1556" y2="1556"/>
  <line id="Capline-L" style="fill:none;stroke:#27AAE1;opacity:1;stroke-width:0.5;" x1="263" x2="3036" y1="1485.54" y2="1485.54"/>
  <line id="right-margin" style="fill:none;stroke:#00AEEF;stroke-width:0.5;opacity:1.0;" x1="1501.68" x2="1501.68" y1="1030.79" y2="1150.12"/>
  <line id="left-margin" style="fill:none;stroke:#00AEEF;stroke-width:0.5;opacity:1.0;" x1="1398.01" x2="1398.01" y1="1030.79" y2="1150.12"/>
 </g>
 <g id="Symbols">
  <g id="Black-L" transform="matrix(1 0 0 1 2863.77 1556)">
   <path d="M69.6267 27.3882C101.871 27.3882 127.995 1.24295 127.995-31.0006C127.995-36.4605 123.502-40.9327 118.064-40.9327C112.566-40.9327 108.073-36.4605 108.073-31.0006C108.073-9.79139 90.8358 7.42391 69.6267 7.42391C48.4175 7.42391 31.1814-9.79139 31.1814-31.0006C31.1814-52.2097 48.4175-69.447 69.6267-69.447C73.4857-69.447 77.1583-68.9217 80.6224-67.799C86.3241-65.8401 93.8485-69.6033 93.8533-77.2254C93.8569-82.0086 90.4976-85.6632 86.5561-86.8298C81.2479-88.4654 75.5597-89.3476 69.6267-89.3476C37.3832-89.3476 11.2588-63.2244 11.2588-30.9797C11.2588 1.24295 37.3832 27.3882 69.6267 27.3882ZM83.3461-79.0569L62.5019-58.6017C60.8612-56.9818 59.7994-55.0617 59.7994-52.3423C59.7994-46.9808 64.0755-42.7035 69.399-42.7035C72.046-42.7035 74.2529-43.6317 75.9873-45.3464L101.506-71.2862C103.565-73.3466 104.591-75.6935 104.591-78.4741C104.591-81.0974 103.485-83.5444 101.506-85.5815L75.9885-111.605C74.1957-113.457 72.0276-114.407 69.3978-114.407C64.0743-114.407 59.7994-110.029 59.7994-104.609C59.7994-101.869 60.8028-99.8912 62.4811-98.3297Z" data-clipstroke-keyframes="0 0 0 0.22489612 0.16717188 0 0.36239728 0.3347965 0 0 0.65451103 0.44491497 0.83281755 0 0.94756824 0.5555863 0.66459626 0 1 0.57559866 0.6330486"/>
  </g>
  <g id="Heavy-L" transform="matrix(1 0 0 1 2567.76 1556)">
   <path d="M68.9301 26.7803C100.797 26.7803 126.601 0.940095 126.601-30.9212C126.601-35.7155 122.66-39.6268 117.901-39.6268C113.093-39.6268 109.151-35.7155 109.151-30.9212C109.151-8.72653 91.1248 9.26416 68.9301 9.26416C46.7354 9.26416 28.7146-8.72653 28.7146-30.9212C28.7146-53.1159 46.7354-71.1424 68.9301-71.1424C73.2436-71.1424 77.3437-70.4995 81.1944-69.1727C86.2591-67.3909 92.8448-70.6749 92.8673-77.3544C92.8841-81.7128 89.8084-84.7708 86.4029-85.8045C80.9717-87.5946 75.08-88.5623 68.9301-88.5623C37.0688-88.5623 11.2588-62.7579 11.2588-30.891C11.2588 0.940095 37.0688 26.7803 68.9301 26.7803ZM83.5553-78.9439L62.0876-57.8165C60.6106-56.3697 59.7044-54.608 59.7044-52.2405C59.7044-47.5165 63.4516-43.7636 68.1321-43.7636C70.511-43.7636 72.4443-44.5964 73.9691-46.0967L99.651-72.147C101.485-73.9868 102.383-76.0508 102.383-78.5033C102.383-80.8117 101.405-82.9807 99.651-84.7791L73.9748-110.95C72.4053-112.57 70.4921-113.438 68.1264-113.438C63.446-113.438 59.7044-109.575 59.7044-104.806C59.7044-102.409 60.566-100.608 62.0574-99.2057Z" data-clipstroke-keyframes="0 0 0 0.21619186 0.16539383 0 0.35477197 0.3312841 0 0 0.6488047 0.44657147 0.8345938 0 0.94389445 0.5624878 0.6682218 0 1 0.5848563 0.6356778"/>
  </g>
  <g id="Bold-L" transform="matrix(1 0 0 1 2271.92 1556)">
   <path d="M68.0545 25.9826C99.4453 25.9826 124.85 0.526362 124.85-30.8512C124.85-34.8232 121.593-38.0428 117.672-38.0428C113.709-38.0428 110.451-34.8232 110.451-30.8512C110.451-7.44969 91.456 11.494 68.0545 11.494C44.6531 11.494 25.6713-7.44969 25.6713-30.8512C25.6713-54.2526 44.6531-73.2476 68.0545-73.2476C72.9514-73.2476 77.5965-72.4439 81.9387-70.8486C86.197-69.297 91.615-71.9967 91.6679-77.4933C91.7076-81.2695 89.0375-83.6495 86.2556-84.5292C80.6708-86.5188 74.5031-87.6089 68.0545-87.6089C36.677-87.6089 11.2588-62.2039 11.2588-30.8132C11.2588 0.526362 36.677 25.9826 68.0545 25.9826ZM83.891-78.7906L61.4983-56.6545C60.2287-55.4228 59.507-53.8756 59.507-51.9311C59.507-48.006 62.6011-44.8987 66.49-44.8987C68.5235-44.8987 70.1188-45.6087 71.3824-46.8475L97.3535-73.1554C98.9334-74.7485 99.677-76.4666 99.677-78.5118C99.677-80.4359 98.8529-82.2591 97.3535-83.7878L71.3956-110.248C70.1028-111.583 68.512-112.344 66.4767-112.344C62.5878-112.344 59.507-109.118 59.507-105.164C59.507-103.181 60.1995-101.618 61.4603-100.416Z" data-clipstroke-keyframes="0 0 0 0.20535496 0.16314383 0 0.34540913 0.32684115 0 0 0.6416922 0.44847327 0.83684516 0 0.9391665 0.57082933 0.67279136 0 1 0.59623456 0.63875246"/>
  </g>
  <g id="Semibold-L" transform="matrix(1 0 0 1 1975.82 1556)">
   <path d="M67.4509 25.4326C98.5134 25.4326 123.643 0.241137 123.643-30.8029C123.643-34.2081 120.857-36.9509 117.514-36.9509C114.133-36.9509 111.347-34.2081 111.347-30.8029C111.347-6.56944 91.6844 13.0313 67.4509 13.0313C43.2175 13.0313 23.5734-6.56944 23.5734-30.8029C23.5734-55.0363 43.2175-74.6989 67.4509-74.6989C72.7499-74.6989 77.7708-73.7843 82.4517-72.004C86.1543-70.6111 90.7671-72.9079 90.8411-77.5891C90.8965-80.9639 88.506-82.8764 86.154-83.65C80.4633-85.7771 74.1055-86.9517 67.4509-86.9517C36.4069-86.9517 11.2588-61.822 11.2588-30.7595C11.2588 0.241137 36.4069 25.4326 67.4509 25.4326ZM84.1225-78.6849L61.0921-55.8533C59.9653-54.77 59.371-53.3707 59.371-51.7179C59.371-48.3434 62.0147-45.6812 65.3579-45.6812C67.1534-45.6812 68.5155-46.3066 69.599-47.3652L95.7696-73.8506C97.1741-75.2736 97.8117-76.7532 97.8117-78.5177C97.8117-80.1768 97.0937-81.7617 95.7696-83.1044L69.6175-109.763C68.5154-110.902 67.147-111.59 65.3394-111.59C61.9963-111.59 59.371-108.804 59.371-105.411C59.371-103.714 59.9468-102.315 61.0487-101.25Z" data-clipstroke-keyframes="0 0 0 0.19737932 0.16160324 0 0.33895442 0.32345486 0 0 0.63678896 0.4496395 0.838387 0 0.935907 0.5766094 0.67591983 0 1 0.6041209 0.6409053"/>
  </g>
  <g id="Medium-L" transform="matrix(1 0 0 1 1679.56 1556)">
   <path d="M66.9932 25.0156C97.8068 25.0156 122.728 0.0248671 122.728-30.7663C122.728-33.7417 120.299-36.1229 117.394-36.1229C114.455-36.1229 112.026-33.7417 112.026-30.7663C112.026-5.90199 91.8575 14.1969 66.9932 14.1969C42.129 14.1969 21.9826-5.90199 21.9826-30.7663C21.9826-55.6306 42.129-75.7994 66.9932-75.7994C72.5972-75.7994 77.903-74.8007 82.8408-72.88C86.1218-71.6074 90.1243-73.5989 90.2141-77.6618C90.2815-80.7322 88.103-82.2902 86.077-82.9833C80.306-85.2147 73.8039-86.4533 66.9932-86.4533C36.2021-86.4533 11.2588-61.5324 11.2588-30.7188C11.2588 0.0248671 36.2021 25.0156 66.9932 25.0156ZM84.2979-78.6048L60.784-55.2459C59.7657-54.275 59.2679-52.9879 59.2679-51.5562C59.2679-48.5993 61.5702-46.2746 64.4995-46.2746C66.1145-46.2746 67.2999-46.8357 68.2469-47.7577L94.5686-74.3777C95.8402-75.6718 96.3974-76.9705 96.3974-78.5221C96.3974-79.9803 95.7598-81.3845 94.5686-82.5862L68.2693-109.396C67.3118-110.386 66.112-111.017 64.4771-111.017C61.5477-111.017 59.2679-108.565 59.2679-105.597C59.2679-104.118 59.7552-102.843 60.7366-101.883Z" data-clipstroke-keyframes="0 0 0 0.19174808 0.16041644 0 0.3340602 0.32118064 0 0 0.63307106 0.45069245 0.83957493 0 0.9334356 0.58103293 0.67832893 0 1 0.61014426 0.6425715"/>
  </g>
  <g id="Regular-L" transform="matrix(1 0 0 1 1383.45 1556)">
   <path d="M66.3963 24.4717C96.8852 24.4717 121.534-0.257224 121.534-30.7185C121.534-33.1333 119.571-35.043 117.237-35.043C114.875-35.043 112.913-33.1333 112.913-30.7185C112.913-5.03142 92.0834 15.7173 66.3963 15.7173C40.7091 15.7173 19.9077-5.03142 19.9077-30.7185C19.9077-56.4056 40.7091-77.2348 66.3963-77.2348C72.3979-77.2348 78.0754-76.1264 83.3482-74.0227C86.0795-72.907 89.2857-74.5001 89.3964-77.7565C89.4793-80.43 87.5773-81.5257 85.9765-82.1137C80.1008-84.4812 73.4106-85.8032 66.3963-85.8032C35.935-85.8032 11.2588-61.1547 11.2588-30.6658C11.2588-0.257224 35.935 24.4717 66.3963 24.4717ZM84.5268-78.5003L60.3822-54.4536C59.5052-53.6294 59.1334-52.4886 59.1334-51.3452C59.1334-48.933 60.9903-47.0485 63.3799-47.0485C64.7594-47.0485 65.7142-47.5259 66.4831-48.2697L93.0021-75.0652C94.1003-76.1911 94.5526-77.254 94.5526-78.528C94.5526-79.7241 94.0199-80.8925 93.0021-81.9103L66.5108-108.917C65.7419-109.713 64.762-110.271 63.3523-110.271C60.9626-110.271 59.1334-108.254 59.1334-105.841C59.1334-104.645 59.5052-103.532 60.3295-102.708Z" data-clipstroke-keyframes="0 0 0 0.18442443 0.15889496 0 0.32767645 0.31826785 0 0 0.62822163 0.45214942 0.841098 0 0.930212 0.5869138 0.68141764 0 1 0.61826706 0.64467585"/>
  </g>
  <g id="Light-L" transform="matrix(1 0 0 1 1087.42 1556)">
   <path d="M65.7092 23.632C95.8164 23.632 120.16-0.791611 120.16-30.8521C120.16-32.7134 118.674-34.165 116.893-34.165C115.066-34.165 113.58-32.7134 113.58-30.8521C113.58-4.42069 92.1406 16.9388 65.7092 16.9388C39.2778 16.9388 17.8846-4.42069 17.8846-30.8521C17.8846-57.2836 39.2778-78.7234 65.7092-78.7234C72.2453-78.7234 78.3998-77.4051 84.0925-75.0151C86.1559-74.1285 88.5223-75.378 88.7093-77.7184C88.8495-79.6284 87.5773-80.6477 86.1483-81.1976C80.158-83.756 73.1244-85.2688 65.7092-85.2688C35.6487-85.2688 11.2588-60.9257 11.2588-30.8184C11.2588-0.791611 35.6487 23.632 65.7092 23.632ZM85.2521-78.3095L59.4852-52.4305C58.78-51.759 58.4845-50.8854 58.4845-49.952C58.4845-48.1505 59.9024-46.6859 61.7768-46.6859C62.8318-46.6859 63.5576-47.0488 64.1357-47.6399L91.418-75.3897C92.4972-76.5155 92.8731-77.3685 92.8731-78.3562C92.8731-79.3233 92.4167-80.2436 91.418-81.2423L64.1824-109.127C63.6044-109.752 62.8916-110.195 61.73-110.195C59.8557-110.195 58.4845-108.616 58.4845-106.815C58.4845-105.848 58.78-105.021 59.4515-104.349Z" data-clipstroke-keyframes="0 0 0 0.1768858 0.15716384 0 0.32173774 0.3149468 0 0 0.62302274 0.45287928 0.84284854 0 0.9258039 0.5918068 0.68482304 0 1 0.6260358 0.6462738"/>
  </g>
  <g id="Thin-L" transform="matrix(1 0 0 1 791.622 1556)">
   <path d="M64.8005 22.5213C94.4029 22.5213 118.342-1.49838 118.342-31.0288C118.342-32.1581 117.488-33.0039 116.439-33.0039C115.318-33.0039 114.464-32.1581 114.464-31.0288C114.464-3.61295 92.2163 18.5543 64.8005 18.5543C37.3846 18.5543 15.209-3.61295 15.209-31.0288C15.209-58.4447 37.3846-80.6923 64.8005-80.6923C72.0433-80.6923 78.8289-79.0963 85.0769-76.3277C86.2568-75.7439 87.5126-76.5392 87.8006-77.6679C88.0165-78.5683 87.5773-79.4866 86.3755-79.986C80.2338-82.7968 72.7457-84.5621 64.8005-84.5621C35.27-84.5621 11.2588-60.6228 11.2588-31.0204C11.2588-1.49838 35.27 22.5213 64.8005 22.5213ZM86.2113-78.057L58.2988-49.7549C57.8208-49.2853 57.6262-48.7651 57.6262-48.1094C57.6262-47.1156 58.4636-46.2063 59.6564-46.2063C60.2824-46.2063 60.7053-46.4177 61.0309-46.8069L89.323-75.8188C90.3769-76.9446 90.6519-77.52 90.6519-78.129C90.6519-78.7932 90.2964-79.3854 89.323-80.3589L61.1029-109.404C60.7773-109.802 60.4179-110.094 59.5845-110.094C58.3916-110.094 57.6262-109.096 57.6262-108.102C57.6262-107.438 57.8208-106.99 58.2904-106.52Z" data-clipstroke-keyframes="0 0 0 0.16691336 0.15490687 0 0.31388333 0.31062105 0 0 0.6161468 0.4539662 0.8451296 0 0.91997385 0.5984543 0.689258 0 1 0.6365381 0.648279"/>
  </g>
  <g id="Ultralight-L" transform="matrix(1 0 0 1 495.376 1556)">
   <path d="M64.335 21.9524C93.6789 21.9524 117.411-1.86039 117.411-31.1193C117.411-31.8736 116.88-32.4092 116.206-32.4092C115.448-32.4092 114.916-31.8736 114.916-31.1193C114.916-3.19923 92.2551 19.3817 64.335 19.3817C36.415 19.3817 13.8385-3.19923 13.8385-31.1193C13.8385-59.0394 36.415-81.7007 64.335-81.7007C71.9399-81.7007 79.0487-79.9625 85.5812-77C86.3085-76.5714 86.9955-77.1339 87.3351-77.642C87.5899-78.0253 87.5773-78.8919 86.4918-79.3654C80.2726-82.3055 72.5518-84.2001 64.335-84.2001C35.0761-84.2001 11.2588-60.4676 11.2588-31.1238C11.2588-1.86039 35.0761 21.9524 64.335 21.9524ZM86.7026-77.9278L57.6912-48.3845C57.3295-48.0183 57.1867-47.6791 57.1867-47.1656C57.1867-46.5856 57.7267-45.9606 58.5704-45.9606C58.9766-45.9606 59.2443-46.0945 59.4407-46.3802L88.2499-76.0386C89.2908-77.1644 89.5141-77.5975 89.5141-78.0127C89.5141-78.5217 89.2104-78.9458 88.2499-79.9064L59.5256-109.547C59.3293-109.828 59.1509-110.042 58.4855-110.042C57.6418-110.042 57.1867-109.341 57.1867-108.761C57.1867-108.252 57.3295-107.998 57.6957-107.632Z" data-clipstroke-keyframes="0 0 0 0.16120951 0.1537719 0 0.30986035 0.30784827 0 0 0.61262494 0.45399845 0.8462763 0 0.9169877 0.6013673 0.6914856 0 1 0.6414506 0.649242"/>
  </g>
  <g id="Black-M" transform="matrix(1 0 0 1 2878.95 1126)">
   <path d="M54.4483 13.6917C79.7026 13.6917 100.174-6.78488 100.174-32.0395C100.174-36.7666 96.2837-40.6513 91.5617-40.6513C86.783-40.6513 82.8928-36.7666 82.8928-32.0395C82.8928-16.3539 70.1338-3.60018 54.4483-3.60018C38.7628-3.60018 26.0035-16.3539 26.0035-32.0395C26.0035-47.725 38.7628-60.4839 54.4483-60.4839C57.1198-60.4839 59.6624-60.1495 62.0709-59.4163C66.9452-57.7776 73.4676-61.0584 73.4664-67.6494C73.4656-71.6168 70.7046-74.9506 67.2136-75.9634C63.1913-77.1237 58.9128-77.7596 54.4483-77.7596C29.1937-77.7596 8.72266-57.2883 8.72266-32.034C8.72266-6.78488 29.1937 13.6917 54.4483 13.6917ZM64.4902-69.2558L48.6574-53.7377C47.2688-52.3545 46.3228-50.767 46.3228-48.3863C46.3228-43.7673 50.0308-40.0596 54.638-40.0596C56.8751-40.0596 58.789-40.8453 60.2869-42.3374L80.021-62.4683C81.807-64.2541 82.7011-66.2871 82.7011-68.6845C82.7011-70.9566 81.7447-73.0576 80.021-74.8385L60.2866-94.9913C58.7316-96.6032 56.8691-97.394 54.6383-97.394C50.0311-97.394 46.3228-93.6185 46.3228-88.9424C46.3228-86.5562 47.2117-84.9114 48.652-83.5853Z" data-clipstroke-keyframes="0 0 0 0.2331108 0.16875915 0 0.36981753 0.3379322 0 0 0.65993196 0.4429724 0.83123666 0 0.95087284 0.5484965 0.6613359 0 1 0.5663773 0.63059235"/>
  </g>
  <g id="Heavy-M" transform="matrix(1 0 0 1 2582.86 1126)">
   <path d="M53.8307 13.1749C78.7509 13.1749 98.9388-7.03164 98.9388-31.9496C98.9388-36.077 95.5437-39.4557 91.4349-39.4557C87.2802-39.4557 83.8851-36.077 83.8851-31.9496C83.8851-15.3693 70.411-1.9139 53.8307-1.9139C37.2505-1.9139 23.7786-15.3693 23.7786-31.9496C23.7786-48.5298 37.2505-62.0039 53.8307-62.0039C56.8973-62.0039 59.8137-61.574 62.5613-60.6677C66.8745-59.1809 72.5568-62.0249 72.5659-67.7791C72.5727-71.4016 70.0309-74.1592 67.048-75.0457C62.916-76.3394 58.4702-77.0412 53.8307-77.0412C28.9128-77.0412 8.72266-56.8533 8.72266-31.9331C8.72266-7.03164 28.9128 13.1749 53.8307 13.1749ZM64.6278-69.1629L48.3352-53.1567C47.0908-51.9287 46.2898-50.4714 46.2898-48.4153C46.2898-44.3632 49.5212-41.1295 53.5473-41.1295C55.5524-41.1295 57.2199-41.8324 58.5306-43.1289L78.3535-63.2799C79.9214-64.8501 80.6974-66.6258 80.6974-68.7289C80.6974-70.7142 79.8591-72.5664 78.3535-74.1157L58.5329-94.3322C57.1786-95.7324 55.5405-96.454 53.5451-96.454C49.519-96.454 46.2898-93.1416 46.2898-89.0459C46.2898-86.9733 47.0471-85.4747 48.3187-84.2903Z" data-clipstroke-keyframes="0 0 0 0.22315615 0.16680866 0 0.3609031 0.33407962 0 0 0.6533508 0.44521052 0.8331816 0 0.946762 0.55691314 0.66533047 0 1 0.5774381 0.63353544"/>
  </g>
  <g id="Bold-M" transform="matrix(1 0 0 1 2286.84 1126)">
   <path d="M53.1399 12.5969C77.6863 12.5969 97.5571-7.30768 97.5571-31.849C97.5571-35.3057 94.7159-38.1183 91.2929-38.1183C87.8363-38.1183 84.9951-35.3057 84.9951-31.849C84.9951-14.2679 70.721-0.0275445 53.1399-0.0275445C35.5588-0.0275445 21.2898-14.2679 21.2898-31.849C21.2898-49.4301 35.5588-63.7042 53.1399-63.7042C56.6483-63.7042 59.9829-63.1674 63.11-62.0675C66.7955-60.7507 71.538-63.1061 71.5585-67.9241C71.5739-71.1609 69.2772-73.274 66.8627-74.0191C62.6081-75.4619 57.9751-76.2376 53.1399-76.2376C28.5986-76.2376 8.72266-56.3668 8.72266-31.8204C8.72266-7.30768 28.5986 12.5969 53.1399 12.5969ZM64.7817-69.0589L47.9746-52.5068C46.8916-51.4525 46.2529-50.1407 46.2529-48.4476C46.2529-45.0297 48.9512-42.3262 52.3273-42.3262C54.0727-42.3262 55.4647-42.9366 56.5659-44.0143L76.4881-64.1877C77.812-65.5167 78.456-67.0047 78.456-68.7785C78.456-70.4431 77.7497-72.0169 76.4881-73.3071L56.5711-93.595C55.4413-94.7584 54.0544-95.4025 52.3222-95.4025C48.9461-95.4025 46.2529-92.6081 46.2529-89.1616C46.2529-87.4399 46.8631-86.1047 47.946-85.0789Z" data-clipstroke-keyframes="0 0 0 0.21182738 0.16449933 0 0.35093105 0.32951587 0 0 0.6459888 0.44739622 0.8354858 0 0.9421635 0.5659365 0.6700538 0 1 0.5894203 0.6369708"/>
  </g>
  <g id="Semibold-M" transform="matrix(1 0 0 1 1990.6 1126)">
   <path d="M52.6636 12.1984C76.9524 12.1984 96.6046-7.49798 96.6046-31.7797C96.6046-34.7739 94.1452-37.1963 91.1951-37.1963C88.2198-37.1963 85.7603-34.7739 85.7603-31.7797C85.7603-13.5085 70.9347 1.27289 52.6636 1.27289C34.3925 1.27289 19.574-13.5085 19.574-31.7797C19.574-50.0508 34.3925-64.8764 52.6636-64.8764C56.4766-64.8764 60.0996-64.2659 63.4883-63.0325C66.7411-61.8329 70.8356-63.8515 70.8641-68.024C70.8854-70.995 68.7576-72.6637 66.7349-73.3113C62.3958-74.857 57.6338-75.6836 52.6636-75.6836C28.382-75.6836 8.72266-56.0314 8.72266-31.7426C8.72266-7.49798 28.382 12.1984 52.6636 12.1984ZM64.8878-68.9872L47.7261-52.0588C46.7543-51.1241 46.2274-49.9127 46.2274-48.47C46.2274-45.4892 48.5582-43.1513 51.4862-43.1513C53.0526-43.1513 54.2547-43.6978 55.2115-44.6247L75.2022-64.8135C76.3579-65.9763 76.9108-67.266 76.9108-68.8127C76.9108-70.2562 76.2956-71.6382 75.2022-72.7497L55.2186-93.0867C54.2437-94.0869 53.0298-94.6776 51.4791-94.6776C48.5511-94.6776 46.2274-92.2403 46.2274-89.2414C46.2274-87.7616 46.7362-86.5391 47.689-85.6226Z" data-clipstroke-keyframes="0 0 0 0.20401302 0.16291255 0 0.34405637 0.32638088 0 0 0.6409135 0.4489283 0.83706963 0 0.9389934 0.57219034 0.6732989 0 1 0.597723 0.6393756"/>
  </g>
  <g id="Medium-M" transform="matrix(1 0 0 1 1694.25 1126)">
   <path d="M52.3025 11.8962C76.3959 11.8962 95.8824-7.64228 95.8824-31.7271C95.8824-34.3707 93.7125-36.4972 91.1209-36.4972C88.5105-36.4972 86.3406-34.3707 86.3406-31.7271C86.3406-12.9328 71.0968 2.25894 52.3025 2.25894C33.5082 2.25894 18.2731-12.9328 18.2731-31.7271C18.2731-50.5214 33.5082-65.7652 52.3025-65.7652C56.3465-65.7652 60.188-65.0989 63.7751-63.7642C66.6998-62.6535 70.3031-64.4166 70.3375-68.0998C70.3633-70.8691 68.3637-72.2009 66.6381-72.7747C62.2348-74.3984 57.375-75.2635 52.3025-75.2635C28.2177-75.2635 8.72266-55.7771 8.72266-31.6837C8.72266-7.64228 28.2177 11.8962 52.3025 11.8962ZM64.9683-68.9329L47.5376-51.7191C46.6503-50.8752 46.2081-49.7399 46.2081-48.4869C46.2081-45.8376 48.2603-43.7768 50.8485-43.7768C52.2792-43.7768 53.3373-44.275 54.1845-45.0875L74.2271-65.288C75.2552-66.3247 75.7392-67.464 75.7392-68.8387C75.7392-70.1145 75.1929-71.3509 74.2271-72.327L54.1931-92.7013C53.3356-93.5777 52.2529-94.128 50.8399-94.128C48.2517-94.128 46.2081-91.9614 46.2081-89.3019C46.2081-88.0055 46.64-86.8685 47.4942-86.0348Z" data-clipstroke-keyframes="0 0 0 0.19757879 0.16171059 0 0.3388437 0.32366148 0 0 0.6370652 0.44991377 0.8382696 0 0.93658966 0.5769195 0.67575675 0 1 0.60401046 0.6411884"/>
  </g>
  <g id="Regular-M" transform="matrix(1 0 0 1 1398.01 1126)">
   <path d="M51.8315 11.5021C75.6701 11.5021 94.9403-7.83049 94.9403-31.6585C94.9403-33.8447 93.148-35.5853 91.0241-35.5853C88.8897-35.5853 87.0974-33.8447 87.0974-31.6585C87.0974-12.1818 71.3082 3.54509 51.8315 3.54509C32.3548 3.54509 16.5761-12.1818 16.5761-31.6585C16.5761-51.1353 32.3548-66.9244 51.8315-66.9244C56.1767-66.9244 60.3034-66.1853 64.1492-64.7187C66.6459-63.7238 69.6084-65.1538 69.6506-68.1987C69.6823-70.705 67.8498-71.5974 66.5118-72.0747C62.0248-73.8001 57.0374-74.7156 51.8315-74.7156C28.0035-74.7156 8.72266-55.4454 8.72266-31.6068C8.72266-7.83049 28.0035 11.5021 51.8315 11.5021ZM65.0732-68.862L47.2918-51.276C46.5145-50.5505 46.1829-49.5144 46.1829-48.509C46.1829-46.2921 47.8716-44.5928 50.0166-44.5928C51.2703-44.5928 52.1405-45.0279 52.845-45.6912L72.9553-65.907C73.817-66.7793 74.211-67.7224 74.211-68.8725C74.211-69.9297 73.7547-70.9763 72.9553-71.7757L52.8555-92.1986C52.1511-92.9136 51.2396-93.411 50.0061-93.411C47.8611-93.411 46.1829-91.5976 46.1829-89.3808C46.1829-88.3236 46.5145-87.2981 47.24-86.5725Z" data-clipstroke-keyframes="0 0 0 0.1898922 0.16011587 0 0.33204454 0.32060608 0 0 0.6320456 0.4514751 0.8398622 0 0.93345433 0.583143 0.6790163 0 1 0.6122675 0.6436026"/>
  </g>
  <g id="Light-M" transform="matrix(1 0 0 1 1101.92 1126)">
   <path d="M51.2155 10.7492C74.7119 10.7492 93.7083-8.30959 93.7083-31.7783C93.7083-33.4683 92.3438-34.7982 90.7161-34.7982C89.0608-34.7982 87.6963-33.4683 87.6963-31.7783C87.6963-11.6343 71.3595 4.64019 51.2155 4.64019C31.0714 4.64019 14.7624-11.6343 14.7624-31.7783C14.7624-51.9224 31.0714-68.2591 51.2155-68.2591C56.0398-68.2591 60.5943-67.3318 64.8165-65.6084C66.7144-64.8189 68.924-65.9409 69.0346-68.1645C69.1176-69.9863 67.8498-70.8103 66.6658-71.2534C62.0761-73.1499 56.7808-74.2365 51.2155-74.2365C27.7468-74.2365 8.72266-55.24 8.72266-31.7437C8.72266-8.30959 27.7468 10.7492 51.2155 10.7492ZM65.7234-68.6909L46.4876-49.4623C45.8643-48.8736 45.6011-48.0771 45.6011-47.2599C45.6011-45.5906 46.8963-44.2677 48.5793-44.2677C49.5421-44.2677 50.207-44.6001 50.7404-45.1265L71.5351-66.1979C72.3797-67.0702 72.7052-67.8251 72.7052-68.7185C72.7052-69.5704 72.3174-70.3946 71.5351-71.1769L50.768-92.3868C50.2347-92.9478 49.5628-93.3426 48.5517-93.3426C46.8687-93.3426 45.6011-91.9227 45.6011-90.2534C45.6011-89.4016 45.8643-88.6327 46.4529-88.0441Z" data-clipstroke-keyframes="0 0 0 0.18125011 0.15816648 0 0.32517213 0.31687036 0 0 0.6260293 0.45245957 0.8418348 0 0.9283532 0.588979 0.6828509 0 1 0.62154174 0.645349"/>
  </g>
  <g id="Thin-M" transform="matrix(1 0 0 1 806.021 1126)">
   <path d="M50.4008 9.75344C73.4446 9.75344 92.0789-8.94325 92.0789-31.9367C92.0789-32.9704 91.2802-33.7571 90.3088-33.7571C89.2871-33.7571 88.4884-32.9704 88.4884-31.9367C88.4884-10.9101 71.4274 6.08855 50.4008 6.08855C29.3742 6.08855 12.3635-10.9101 12.3635-31.9367C12.3635-52.9634 29.3742-70.0243 50.4008-70.0243C55.8588-70.0243 60.979-68.848 65.6991-66.7852C66.8049-66.2673 68.0188-66.9819 68.2199-68.1192C68.3708-69.0359 67.8498-69.7693 66.8694-70.1671C62.144-72.29 56.4413-73.6028 50.4008-73.6028C27.4073-73.6028 8.72266-54.9685 8.72266-31.9247C8.72266-8.94325 27.4073 9.75344 50.4008 9.75344ZM66.5834-68.4646L45.4239-47.0634C45.0043-46.6558 44.8317-46.1761 44.8317-45.6078C44.8317-44.6627 45.6064-43.8377 46.6784-43.8377C47.2564-43.8377 47.6498-44.0344 47.9568-44.3797L69.6568-66.5826C70.4787-67.4549 70.7137-67.9608 70.7137-68.5148C70.7137-69.0951 70.4164-69.6251 69.6568-70.3848L48.0071-92.6357C47.7-92.9931 47.345-93.2521 46.6281-93.2521C45.5561-93.2521 44.8317-92.3527 44.8317-91.4076C44.8317-90.8273 45.0043-90.3979 45.4119-89.9903Z" data-clipstroke-keyframes="0 0 0 0.16973773 0.15556379 0 0.31608284 0.3118821 0 0 0.6180723 0.45373097 0.84446615 0 0.9216065 0.59668165 0.6879665 0 1 0.6336868 0.64766526"/>
  </g>
  <g id="Ultralight-M" transform="matrix(1 0 0 1 509.728 1126)">
   <path d="M49.9835 9.24342C72.7954 9.24342 91.2444-9.26781 91.2444-32.0179C91.2444-32.7154 90.7354-33.2239 90.1002-33.2239C89.403-33.2239 88.8941-32.7154 88.8941-32.0179C88.8941-10.5392 71.4622 6.83039 49.9835 6.83039C28.5048 6.83039 11.1348-10.5392 11.1348-32.0179C11.1348-53.4966 28.5048-70.9284 49.9835-70.9284C55.7661-70.9284 61.176-69.6246 66.1512-67.388C66.8512-67.0091 67.5551-67.5151 67.8027-68.0961C67.9883-68.549 67.8498-69.2361 66.9738-69.6107C62.1788-71.8495 56.2674-73.2783 49.9835-73.2783C27.2335-73.2783 8.72266-54.8294 8.72266-32.0174C8.72266-9.26781 27.2335 9.24342 49.9835 9.24342ZM67.0239-68.3486L44.8792-45.8347C44.5638-45.5199 44.4376-45.2024 44.4376-44.7617C44.4376-44.1875 44.9457-43.6175 45.7047-43.6175C46.0857-43.6175 46.3399-43.7446 46.5311-43.9972L68.6947-66.7797C69.5051-67.6519 69.6937-68.0304 69.6937-68.4105C69.6937-68.8517 69.4428-69.231 68.6947-69.9791L46.5929-92.7632C46.4018-93.0162 46.209-93.2057 45.6428-93.2057C44.8838-93.2057 44.4376-92.573 44.4376-91.9988C44.4376-91.5576 44.5638-91.302 44.8787-90.9871Z" data-clipstroke-keyframes="0 0 0 0.16315669 0.15427865 0 0.31142733 0.30871314 0 0 0.6139967 0.4538304 0.84576505 0 0.91815084 0.60013735 0.69048834 0 1 0.6394567 0.64872116"/>
  </g>
  <g id="Black-S" transform="matrix(1 0 0 1 2890.58 696)">
   <path d="M42.8223 3.22266C62.6953 3.22266 78.8086-12.8906 78.8086-32.7637C78.8086-36.6211 75.6348-39.7949 71.7773-39.7949C67.8711-39.7949 64.6973-36.6211 64.6973-32.7637C64.6973-20.7031 54.8828-10.8887 42.8223-10.8887C30.7617-10.8887 20.9473-20.7031 20.9473-32.7637C20.9473-44.8242 30.7617-54.6387 42.8223-54.6387C44.8242-54.6387 46.7285-54.3945 48.5352-53.8574C52.4902-52.5391 57.8125-55.2246 57.8125-60.5957C57.8125-63.7695 55.6152-66.5527 52.7344-67.3828C49.6094-68.2617 46.2891-68.75 42.8223-68.75C22.9492-68.75 6.83594-52.6367 6.83594-32.7637C6.83594-12.8906 22.9492 3.22266 42.8223 3.22266ZM50.5371-61.9141L38.1836-49.8047C37.0605-48.6816 36.2793-47.4121 36.2793-45.459C36.2793-41.6992 39.3066-38.6719 43.0664-38.6719C44.873-38.6719 46.4355-39.3066 47.6562-40.5273L63.1348-56.3477C64.5996-57.8125 65.332-59.4727 65.332-61.4258C65.332-63.2812 64.5508-64.9902 63.1348-66.4551L47.6562-82.2754C46.3867-83.5938 44.873-84.2285 43.0664-84.2285C39.3066-84.2285 36.2793-81.1523 36.2793-77.3438C36.2793-75.3906 37.0117-74.0723 38.1836-72.998Z" data-clipstroke-keyframes="0 0 0 0.23635937 0.16940081 0 0.37275255 0.33920163 0 0 0.66202873 0.44225603 0.8305992 0 0.9520827 0.5457694 0.66001177 0 1 0.56286997 0.62951785"/>
  </g>
  <g id="Heavy-S" transform="matrix(1 0 0 1 2594.32 696)">
   <path d="M42.3728 2.87692C62.0038 2.87692 77.9097-13.0404 77.9097-32.6715C77.9097-36.0794 75.1046-38.873 71.7082-38.873C68.2745-38.873 65.4694-36.0794 65.4694-32.6715C65.4694-19.931 55.1133-9.58641 42.3728-9.58641C29.6323-9.58641 19.2762-19.931 19.2762-32.6715C19.2762-45.412 29.6323-55.7681 42.3728-55.7681C44.6514-55.7681 46.8207-55.4663 48.8694-54.814C52.4211-53.5993 57.121-55.9507 57.121-60.7109C57.121-63.6773 55.039-65.9765 52.573-66.7029C49.3674-67.674 45.9433-68.1968 42.3728-68.1968C22.7418-68.1968 6.83594-52.291 6.83594-32.66C6.83594-13.0404 22.7418 2.87692 42.3728 2.87692ZM50.5717-61.8564L38.0107-49.5396C36.9914-48.5318 36.3254-47.343 36.3254-45.6434C36.3254-42.2985 38.9955-39.6284 42.3173-39.6284C43.9626-39.6284 45.3407-40.2055 46.4231-41.2764L61.8901-57.0046C63.1706-58.285 63.8108-59.7492 63.8108-61.4834C63.8108-63.1199 63.1217-64.6445 61.8901-65.9134L46.4231-81.6876C45.3034-82.8447 43.9511-83.4333 42.3173-83.4333C38.9955-83.4333 36.3254-80.7029 36.3254-77.3207C36.3254-75.6096 36.9541-74.3834 37.9992-73.4129Z" data-clipstroke-keyframes="0 0 0 0.22689544 0.1675818 0 0.3641448 0.33560613 0 0 0.6558277 0.4445412 0.83240783 0 0.9484284 0.55401003 0.6637617 0 1 0.57347316 0.6324517"/>
  </g>
  <g id="Bold-S" transform="matrix(1 0 0 1 2298.11 696)">
   <path d="M41.8701 2.49023C61.2305 2.49023 76.9043-13.208 76.9043-32.5684C76.9043-35.4736 74.5117-37.8418 71.6309-37.8418C68.7256-37.8418 66.333-35.4736 66.333-32.5684C66.333-19.0674 55.3711-8.12988 41.8701-8.12988C28.3691-8.12988 17.4072-19.0674 17.4072-32.5684C17.4072-46.0693 28.3691-57.0312 41.8701-57.0312C44.458-57.0312 46.9238-56.665 49.2432-55.8838C52.3438-54.7852 56.3477-56.7627 56.3477-60.8398C56.3477-63.5742 54.3945-65.332 52.3926-65.9424C49.0967-67.0166 45.5566-67.5781 41.8701-67.5781C22.5098-67.5781 6.83594-51.9043 6.83594-32.5439C6.83594-13.208 22.5098 2.49023 41.8701 2.49023ZM50.6104-61.792L37.8174-49.2432C36.9141-48.3643 36.377-47.2656 36.377-45.8496C36.377-42.9688 38.6475-40.6982 41.4795-40.6982C42.9443-40.6982 44.1162-41.2109 45.0439-42.1143L60.498-57.7393C61.5723-58.8135 62.1094-60.0586 62.1094-61.5479C62.1094-62.9395 61.5234-64.2578 60.498-65.3076L45.0439-81.0303C44.0918-82.0068 42.9199-82.5439 41.4795-82.5439C38.6475-82.5439 36.377-80.2002 36.377-77.2949C36.377-75.8545 36.8896-74.7314 37.793-73.877Z" data-clipstroke-keyframes="0 0 0 0.21614262 0.16543533 0 0.3545174 0.33136174 0 0 0.64889205 0.4468188 0.83454394 0 0.9443413 0.5628832 0.6681798 0 1 0.5849866 0.63595337"/>
  </g>
  <g id="Semibold-S" transform="matrix(1 0 0 1 2001.74 696)">
   <path d="M41.5235 2.22363C60.6973 2.22363 76.2111-13.3235 76.2111-32.4973C76.2111-35.056 74.1029-37.1309 71.5775-37.1309C69.0366-37.1309 66.9284-35.056 66.9284-32.4973C66.9284-18.472 55.5488-7.12568 41.5235-7.12568C27.4982-7.12568 16.1187-18.472 16.1187-32.4973C16.1187-46.5226 27.4982-57.9021 41.5235-57.9021C44.3247-57.9021 46.9949-57.4915 49.5009-56.6214C52.2904-55.6027 55.8145-57.3226 55.8145-60.9287C55.8145-63.5031 53.9502-64.8877 52.2682-65.4181C48.9101-66.5634 45.29-67.1516 41.5235-67.1516C22.3498-67.1516 6.83594-51.6377 6.83594-32.464C6.83594-13.3235 22.3498 2.22363 41.5235 2.22363ZM50.637-61.7476L37.6841-49.0388C36.8607-48.2487 36.4125-47.2123 36.4125-45.9918C36.4125-43.4309 38.4075-41.4358 40.9019-41.4358C42.2423-41.4358 43.272-41.9041 44.0931-42.6919L59.5383-58.2458C60.4703-59.1778 60.9363-60.2719 60.9363-61.5923C60.9363-62.815 60.4215-63.9912 59.5383-64.8899L44.0931-80.5771C43.2564-81.4292 42.209-81.9308 40.9019-81.9308C38.4075-81.9308 36.4125-79.8536 36.4125-77.2771C36.4125-76.0233 36.8452-74.9714 37.6508-74.1969Z" data-clipstroke-keyframes="0 0 0 0.20871596 0.16395104 0 0.3478798 0.3284273 0 0 0.6441103 0.44838604 0.83602184 0 0.9415234 0.5689966 0.67123437 0 1 0.59292495 0.63836455"/>
  </g>
  <g id="Medium-S" transform="matrix(1 0 0 1 1705.29 696)">
   <path d="M41.2607 2.02148C60.293 2.02148 75.6855-13.4111 75.6855-32.4434C75.6855-34.7393 73.793-36.5918 71.5371-36.5918C69.2725-36.5918 67.3799-34.7393 67.3799-32.4434C67.3799-18.0205 55.6836-6.36426 41.2607-6.36426C26.8379-6.36426 15.1416-18.0205 15.1416-32.4434C15.1416-46.8662 26.8379-58.5625 41.2607-58.5625C44.2236-58.5625 47.0488-58.1182 49.6963-57.1807C52.25-56.2227 55.4102-57.7471 55.4102-60.9961C55.4102-63.4492 53.6133-64.5508 52.1738-65.0205C48.7686-66.2197 45.0879-66.8281 41.2607-66.8281C22.2285-66.8281 6.83594-51.4355 6.83594-32.4033C6.83594-13.4111 22.2285 2.02148 41.2607 2.02148ZM50.6572-61.7139L37.583-48.8838C36.8203-48.1611 36.4395-47.1719 36.4395-46.0996C36.4395-43.7812 38.2256-41.9951 40.4639-41.9951C41.71-41.9951 42.6318-42.4297 43.3721-43.1299L58.8105-58.6299C59.6348-59.4541 60.0469-60.4336 60.0469-61.626C60.0469-62.7207 59.5859-63.7891 58.8105-64.5732L43.3721-80.2334C42.623-80.9912 41.6699-81.4658 40.4639-81.4658C38.2256-81.4658 36.4395-79.5908 36.4395-77.2637C36.4395-76.1514 36.8115-75.1533 37.543-74.4395Z" data-clipstroke-keyframes="0 0 0 0.20260681 0.16289441 0 0.3428469 0.3257809 0 0 0.64048463 0.4492096 0.837074 0 0.9393868 0.5733209 0.6734122 0 1 0.59864634 0.6399143"/>
  </g>
  <g id="Regular-S" transform="matrix(1 0 0 1 1408.93 696)">
   <path d="M40.918 1.75781C59.7656 1.75781 75-13.5254 75-32.373C75-34.3262 73.3887-35.8887 71.4844-35.8887C69.5801-35.8887 67.9688-34.3262 67.9688-32.373C67.9688-17.4316 55.8594-5.37109 40.918-5.37109C25.9766-5.37109 13.8672-17.4316 13.8672-32.373C13.8672-47.3145 25.9766-59.4238 40.918-59.4238C44.0918-59.4238 47.1191-58.9355 49.9512-57.9102C52.1973-57.0312 54.8828-58.3008 54.8828-61.084C54.8828-63.3789 53.1738-64.1113 52.0508-64.502C48.584-65.7715 44.8242-66.4062 40.918-66.4062C22.0703-66.4062 6.83594-51.1719 6.83594-32.3242C6.83594-13.5254 22.0703 1.75781 40.918 1.75781ZM50.6836-61.6699L37.4512-48.6816C36.7676-48.0469 36.4746-47.1191 36.4746-46.2402C36.4746-44.2383 37.9883-42.7246 39.8926-42.7246C41.0156-42.7246 41.7969-43.1152 42.4316-43.7012L57.8613-59.1309C58.5449-59.8145 58.8867-60.6445 58.8867-61.6699C58.8867-62.5977 58.4961-63.5254 57.8613-64.1602L42.4316-79.7852C41.7969-80.4199 40.9668-80.8594 39.8926-80.8594C37.9883-80.8594 36.4746-79.248 36.4746-77.2461C36.4746-76.3184 36.7676-75.3906 37.4023-74.7559Z" data-clipstroke-keyframes="0 0 0 0.19521129 0.16132425 0 0.33628225 0.32292274 0 0 0.6357554 0.45089826 0.8386389 0 0.93659985 0.57959205 0.6766375 0 1 0.60671306 0.6424956"/>
  </g>
  <g id="Light-S" transform="matrix(1 0 0 1 1112.76 696)">
   <path d="M40.3731 1.0918C58.918 1.0918 73.9102-13.9492 73.9102-32.479C73.9102-33.9932 72.6773-35.1924 71.2119-35.1924C69.7314-35.1924 68.4985-33.9932 68.4985-32.479C68.4985-16.9473 55.9048-4.40235 40.3731-4.40235C24.8413-4.40235 12.2627-16.9473 12.2627-32.479C12.2627-48.0107 24.8413-60.6045 40.3731-60.6045C43.9707-60.6045 47.3765-59.9497 50.5415-58.6973C52.2578-58 54.2773-58.9971 54.3379-61.0537C54.3833-62.7432 53.1738-63.415 52.187-63.7754C48.6294-65.1963 44.5972-65.9824 40.3731-65.9824C21.8433-65.9824 6.83594-50.9902 6.83594-32.4453C6.83594-13.9492 21.8433 1.0918 40.3731 1.0918ZM51.2588-61.5186L36.7398-47.0772C36.1924-46.5635 35.96-45.8477 35.96-45.1353C35.96-43.6177 37.1255-42.437 38.6211-42.437C39.4868-42.437 40.0864-42.7368 40.5698-43.2017L56.605-59.3882C57.2734-60.0718 57.5547-60.7354 57.5547-61.5337C57.5547-62.2798 57.2246-63.0107 56.605-63.6304L40.585-79.9517C40.1016-80.4502 39.4834-80.7988 38.606-80.7988C37.1104-80.7988 35.96-79.5356 35.96-78.0181C35.96-77.272 36.1924-76.5713 36.7061-76.0576Z" data-clipstroke-keyframes="0 0 0 0.18549839 0.1591413 0 0.3285249 0.3187404 0 0 0.6289644 0.45204368 0.84084886 0 0.9308418 0.5862137 0.6809329 0 1 0.61715823 0.64444786"/>
  </g>
  <g id="Thin-S" transform="matrix(1 0 0 1 816.77 696)">
   <path d="M39.6524 0.21095C57.7969 0.21095 72.4688-14.5098 72.4688-32.6191C72.4688-33.5527 71.7363-34.2715 70.8516-34.2715C69.9316-34.2715 69.1992-33.5527 69.1992-32.6191C69.1992-16.3066 55.9648-3.12111 39.6524-3.12111C23.3399-3.12111 10.1407-16.3066 10.1407-32.6191C10.1407-48.9316 23.3399-62.166 39.6524-62.166C43.8105-62.166 47.7168-61.291 51.3223-59.7383C52.3379-59.2812 53.4766-59.918 53.6172-61.0137C53.7227-61.9024 53.1738-62.4942 52.3672-62.8145C48.6895-64.4356 44.2969-65.4219 39.6524-65.4219C21.543-65.4219 6.83594-50.75 6.83594-32.6055C6.83594-14.5098 21.543 0.21095 39.6524 0.21095ZM52.0195-61.3184L35.7988-44.9551C35.4317-44.6016 35.2793-44.166 35.2793-43.6738C35.2793-42.7969 35.9844-42.0566 36.9395-42.0566C37.4649-42.0566 37.8243-42.2363 38.1075-42.541L54.9434-59.7285C55.5918-60.4121 55.793-60.8555 55.793-61.3535C55.793-61.8594 55.543-62.3301 54.9434-62.9297L38.1426-80.1719C37.8594-80.4902 37.5215-80.7188 36.9043-80.7188C35.9492-80.7188 35.2793-79.916 35.2793-79.039C35.2793-78.5332 35.4317-78.1328 35.7852-77.7793Z" data-clipstroke-keyframes="0 0 0 0.17245921 0.15614498 0 0.31826514 0.31299195 0 0 0.6199827 0.45329463 0.84387827 0 0.9232263 0.5946577 0.68682647 0 1 0.6305799 0.6472127"/>
  </g>
  <g id="Ultralight-S" transform="matrix(1 0 0 1 520.428 696)">
   <path d="M39.2832-0.240219C57.2227-0.240219 71.7305-14.7969 71.7305-32.6909C71.7305-33.3272 71.2544-33.7998 70.667-33.7998C70.0342-33.7998 69.5581-33.3272 69.5581-32.6909C69.5581-15.9785 55.9956-2.46487 39.2832-2.46487C22.5708-2.46487 9.05375-15.9785 9.05375-32.6909C9.05375-49.4033 22.5708-62.9658 39.2832-62.9658C43.7285-62.9658 47.8911-61.978 51.7222-60.2715C52.3789-59.9375 53.0664-60.3896 53.2481-60.9932C53.3843-61.4717 53.1738-62.0225 52.4595-62.3223C48.7202-64.0459 44.1431-65.1348 39.2832-65.1348C21.3892-65.1348 6.83594-50.627 6.83594-32.6875C6.83594-14.7969 21.3892-0.240219 39.2832-0.240219ZM52.4092-61.2158L35.3169-43.8682C35.042-43.5967 34.9307-43.3047 34.9307-42.9253C34.9307-42.3765 35.3999-41.8618 36.0782-41.8618C36.4292-41.8618 36.6656-41.98 36.8462-42.2026L54.0923-59.9028C54.7305-60.5864 54.8907-60.917 54.8907-61.2612C54.8907-61.6441 54.6817-61.9815 54.0923-62.5708L36.8916-80.2847C36.711-80.5107 36.5166-80.6777 36.0327-80.6777C35.3545-80.6777 34.9307-80.1108 34.9307-79.562C34.9307-79.1792 35.042-78.9326 35.3135-78.6611Z" data-clipstroke-keyframes="0 0 0 0.16579032 0.15464517 0 0.31301016 0.31011868 0 0 0.6153824 0.4540575 0.8453939 0 0.9193257 0.59915566 0.68977237 0 1 0.63766843 0.6485239"/>
  </g>
 </g>
 <g id="Anchors">
  <circle cx="2933.69" cy="1525" id="Black-L-rotate-anchor" r="1" style="fill:#FFCC00; opacity:1.0;"/>
  <circle cx="2636.91" cy="1525.08" id="Heavy-L-rotate-anchor" r="1" style="fill:#FFCC00; opacity:1.0;"/>
  <circle cx="2340.12" cy="1525.15" id="Bold-L-rotate-anchor" r="1" style="fill:#FFCC00; opacity:1.0;"/>
  <circle cx="2043.36" cy="1525.2" id="Semibold-L-rotate-anchor" r="1" style="fill:#FFCC00; opacity:1.0;"/>
  <circle cx="1746.61" cy="1525.23" id="Medium-L-rotate-anchor" r="1" style="fill:#FFCC00; opacity:1.0;"/>
  <circle cx="1449.84" cy="1525.28" id="Regular-L-rotate-anchor" r="1" style="fill:#FFCC00; opacity:1.0;"/>
  <circle cx="1153.13" cy="1525.15" id="Light-L-rotate-anchor" r="1" style="fill:#FFCC00; opacity:1.0;"/>
  <circle cx="856.422" cy="1524.97" id="Thin-L-rotate-anchor" r="1" style="fill:#FFCC00; opacity:1.0;"/>
  <circle cx="559.711" cy="1524.88" id="Ultralight-L-rotate-anchor" r="1" style="fill:#FFCC00; opacity:1.0;"/>
  <circle cx="2933.69" cy="1093.96" id="Black-M-rotate-anchor" r="1" style="fill:#FFCC00; opacity:1.0;"/>
  <circle cx="2636.91" cy="1094.05" id="Heavy-M-rotate-anchor" r="1" style="fill:#FFCC00; opacity:1.0;"/>
  <circle cx="2340.12" cy="1094.15" id="Bold-M-rotate-anchor" r="1" style="fill:#FFCC00; opacity:1.0;"/>
  <circle cx="2043.36" cy="1094.22" id="Semibold-M-rotate-anchor" r="1" style="fill:#FFCC00; opacity:1.0;"/>
  <circle cx="1746.61" cy="1094.27" id="Medium-M-rotate-anchor" r="1" style="fill:#FFCC00; opacity:1.0;"/>
  <circle cx="1449.84" cy="1094.34" id="Regular-M-rotate-anchor" r="1" style="fill:#FFCC00; opacity:1.0;"/>
  <circle cx="1153.13" cy="1094.22" id="Light-M-rotate-anchor" r="1" style="fill:#FFCC00; opacity:1.0;"/>
  <circle cx="856.422" cy="1094.06" id="Thin-M-rotate-anchor" r="1" style="fill:#FFCC00; opacity:1.0;"/>
  <circle cx="559.711" cy="1093.98" id="Ultralight-M-rotate-anchor" r="1" style="fill:#FFCC00; opacity:1.0;"/>
  <circle cx="2933.64" cy="663.236" id="Black-S-rotate-anchor" r="1" style="fill:#FFCC00; opacity:1.0;"/>
  <circle cx="2636.88" cy="663.329" id="Heavy-S-rotate-anchor" r="1" style="fill:#FFCC00; opacity:1.0;"/>
  <circle cx="2340.1" cy="663.432" id="Bold-S-rotate-anchor" r="1" style="fill:#FFCC00; opacity:1.0;"/>
  <circle cx="2043.34" cy="663.503" id="Semibold-S-rotate-anchor" r="1" style="fill:#FFCC00; opacity:1.0;"/>
  <circle cx="1746.6" cy="663.557" id="Medium-S-rotate-anchor" r="1" style="fill:#FFCC00; opacity:1.0;"/>
  <circle cx="1449.84" cy="663.627" id="Regular-S-rotate-anchor" r="1" style="fill:#FFCC00; opacity:1.0;"/>
  <circle cx="1153.13" cy="663.521" id="Light-S-rotate-anchor" r="1" style="fill:#FFCC00; opacity:1.0;"/>
  <circle cx="856.422" cy="663.381" id="Thin-S-rotate-anchor" r="1" style="fill:#FFCC00; opacity:1.0;"/>
  <circle cx="559.711" cy="663.309" id="Ultralight-S-rotate-anchor" r="1" style="fill:#FFCC00; opacity:1.0;"/>
 </g>
 <g id="Data">
  <g id="Black-L-draw-attachment-data" data-d="0 1 0 2947.49 1478.72"/>
  <g id="Heavy-L-draw-attachment-data" data-d="0 1 0 2651.64 1478.54"/>
  <g id="Bold-L-draw-attachment-data" data-d="0 1 0 2356.07 1478.32"/>
  <g id="Semibold-L-draw-attachment-data" data-d="0 1 0 2060.14 1478.18"/>
  <g id="Medium-L-draw-attachment-data" data-d="0 1 0 1764.02 1478.07"/>
  <g id="Regular-L-draw-attachment-data" data-d="0 1 0 1468.08 1477.92"/>
  <g id="Light-L-draw-attachment-data" data-d="0 1 0 1172.54 1477.9"/>
  <g id="Thin-L-draw-attachment-data" data-d="0 1 0 877.388 1477.86"/>
  <g id="Ultralight-L-draw-attachment-data" data-d="0 1 0 581.473 1477.84"/>
  <g id="Black-M-draw-attachment-data" data-d="0 1 0 2943.73 1058.35"/>
  <g id="Heavy-M-draw-attachment-data" data-d="0 1 0 2647.76 1058.17"/>
  <g id="Bold-M-draw-attachment-data" data-d="0 1 0 2351.87 1057.97"/>
  <g id="Semibold-M-draw-attachment-data" data-d="0 1 0 2055.73 1057.83"/>
  <g id="Medium-M-draw-attachment-data" data-d="0 1 0 1759.45 1057.73"/>
  <g id="Regular-M-draw-attachment-data" data-d="0 1 0 1463.3 1057.59"/>
  <g id="Light-M-draw-attachment-data" data-d="0 1 0 1167.65 1057.57"/>
  <g id="Thin-M-draw-attachment-data" data-d="0 1 0 872.328 1057.53"/>
  <g id="Ultralight-M-draw-attachment-data" data-d="0 1 0 576.331 1057.52"/>
  <g id="Black-S-draw-attachment-data" data-d="0 1 0 2941.33 635.417"/>
  <g id="Heavy-S-draw-attachment-data" data-d="0 1 0 2645.12 635.266"/>
  <g id="Bold-S-draw-attachment-data" data-d="0 1 0 2348.96 635.097"/>
  <g id="Semibold-S-draw-attachment-data" data-d="0 1 0 2052.63 634.981"/>
  <g id="Medium-S-draw-attachment-data" data-d="0 1 0 1756.21 634.893"/>
  <g id="Regular-S-draw-attachment-data" data-d="0 1 0 1459.88 634.778"/>
  <g id="Light-S-draw-attachment-data" data-d="0 1 0 1164.1 634.757"/>
  <g id="Thin-S-draw-attachment-data" data-d="0 1 0 868.625 634.729"/>
  <g id="Ultralight-S-draw-attachment-data" data-d="0 1 0 572.546 634.715"/>
 </g>
</svg>
