<?xml version="1.0" encoding="UTF-8"?>
<!--Generator: Apple Native CoreSVG 341-->
<!DOCTYPE svg
PUBLIC "-//W3C//DTD SVG 1.1//EN"
       "http://www.w3.org/Graphics/SVG/1.1/DTD/svg11.dtd">
<svg version="1.1" xmlns="http://www.w3.org/2000/svg" xmlns:xlink="http://www.w3.org/1999/xlink" viewBox="0 0 3300 2200">
 <g id="Notes">
  <rect height="2200" id="artboard" style="fill:white;opacity:1" width="3300" x="0" y="0"/>
  <line style="fill:none;stroke:black;opacity:1;stroke-width:0.5;" x1="263" x2="3036" y1="292" y2="292"/>
  <text style="stroke:none;fill:black;font-family:sans-serif;font-size:13;font-weight:bold;" transform="matrix(1 0 0 1 263 322)">Weight/Scale Variations</text>
  <text style="stroke:none;fill:black;font-family:sans-serif;font-size:13;text-anchor:middle;" transform="matrix(1 0 0 1 559.711 322)">Ultralight</text>
  <text style="stroke:none;fill:black;font-family:sans-serif;font-size:13;text-anchor:middle;" transform="matrix(1 0 0 1 856.422 322)">Thin</text>
  <text style="stroke:none;fill:black;font-family:sans-serif;font-size:13;text-anchor:middle;" transform="matrix(1 0 0 1 1153.13 322)">Light</text>
  <text style="stroke:none;fill:black;font-family:sans-serif;font-size:13;text-anchor:middle;" transform="matrix(1 0 0 1 1449.84 322)">Regular</text>
  <text style="stroke:none;fill:black;font-family:sans-serif;font-size:13;text-anchor:middle;" transform="matrix(1 0 0 1 1746.56 322)">Medium</text>
  <text style="stroke:none;fill:black;font-family:sans-serif;font-size:13;text-anchor:middle;" transform="matrix(1 0 0 1 2043.27 322)">Semibold</text>
  <text style="stroke:none;fill:black;font-family:sans-serif;font-size:13;text-anchor:middle;" transform="matrix(1 0 0 1 2339.98 322)">Bold</text>
  <text style="stroke:none;fill:black;font-family:sans-serif;font-size:13;text-anchor:middle;" transform="matrix(1 0 0 1 2636.69 322)">Heavy</text>
  <text style="stroke:none;fill:black;font-family:sans-serif;font-size:13;text-anchor:middle;" transform="matrix(1 0 0 1 2933.4 322)">Black</text>
  <line style="fill:none;stroke:black;opacity:1;stroke-width:0.5;" x1="263" x2="3036" y1="1903" y2="1903"/>
  <g transform="matrix(0.2 0 0 0.2 263 1933)">
   <path d="m46.2402 4.15039c21.7773 0 39.4531-17.627 39.4531-39.4043s-17.6758-39.4043-39.4531-39.4043c-21.7285 0-39.4043 17.627-39.4043 39.4043s17.6758 39.4043 39.4043 39.4043Zm0-7.42188c-17.6758 0-31.9336-14.3066-31.9336-31.9824s14.2578-31.9824 31.9336-31.9824 31.9824 14.3066 31.9824 31.9824-14.3066 31.9824-31.9824 31.9824Zm3.61328-17.7734v-28.4668c0-2.24609-1.46484-3.75977-3.71094-3.75977-2.14844 0-3.61328 1.51367-3.61328 3.75977v28.4668c0 2.19727 1.46484 3.71094 3.61328 3.71094 2.24609 0 3.71094-1.51367 3.71094-3.71094Zm-17.8223-10.5957h28.418c2.19727 0 3.71094-1.46484 3.71094-3.61328 0-2.19727-1.51367-3.71094-3.71094-3.71094h-28.418c-2.24609 0-3.75977 1.51367-3.75977 3.71094 0 2.14844 1.51367 3.61328 3.75977 3.61328Z"/>
  </g>
  <g transform="matrix(0.2 0 0 0.2 281.506 1933)">
   <path d="m58.5449 14.5508c27.4902 0 49.8047-22.3145 49.8047-49.8047s-22.3145-49.8047-49.8047-49.8047-49.8047 22.3145-49.8047 49.8047 22.3145 49.8047 49.8047 49.8047Zm0-8.30078c-22.9492 0-41.5039-18.5547-41.5039-41.5039s18.5547-41.5039 41.5039-41.5039 41.5039 18.5547 41.5039 41.5039-18.5547 41.5039-41.5039 41.5039Zm4.05273-23.0957v-36.9141c0-2.49023-1.70898-4.19922-4.15039-4.19922-2.39258 0-4.05273 1.70898-4.05273 4.19922v36.9141c0 2.44141 1.66016 4.15039 4.05273 4.15039 2.44141 0 4.15039-1.66016 4.15039-4.15039Zm-22.5586-14.4043h36.9629c2.44141 0 4.15039-1.61133 4.15039-4.00391 0-2.44141-1.70898-4.15039-4.15039-4.15039h-36.9629c-2.49023 0-4.15039 1.70898-4.15039 4.15039 0 2.39258 1.66016 4.00391 4.15039 4.00391Z"/>
  </g>
  <g transform="matrix(0.2 0 0 0.2 304.924 1933)">
   <path d="m74.8535 28.3203c35.1074 0 63.623-28.4668 63.623-63.5742s-28.5156-63.623-63.623-63.623-63.5742 28.5156-63.5742 63.623 28.4668 63.5742 63.5742 63.5742Zm0-9.08203c-30.127 0-54.4922-24.3652-54.4922-54.4922s24.3652-54.4922 54.4922-54.4922 54.4922 24.3652 54.4922 54.4922-24.3652 54.4922-54.4922 54.4922Zm4.44336-30.3223v-48.4863c0-2.73438-1.85547-4.63867-4.54102-4.63867-2.58789 0-4.44336 1.9043-4.44336 4.63867v48.4863c0 2.68555 1.85547 4.58984 4.44336 4.58984 2.68555 0 4.54102-1.85547 4.54102-4.58984Zm-28.7109-19.7754h48.4863c2.68555 0 4.58984-1.80664 4.58984-4.39453 0-2.73438-1.85547-4.58984-4.58984-4.58984h-48.4863c-2.73438 0-4.58984 1.85547-4.58984 4.58984 0 2.58789 1.85547 4.39453 4.58984 4.39453Z"/>
  </g>
  <text style="stroke:none;fill:black;font-family:sans-serif;font-size:13;font-weight:bold;" transform="matrix(1 0 0 1 263 1953)">Design Variations</text>
  <text style="stroke:none;fill:black;font-family:sans-serif;font-size:13;" transform="matrix(1 0 0 1 263 1971)">Symbols are supported in up to nine weights and three scales.</text>
  <text style="stroke:none;fill:black;font-family:sans-serif;font-size:13;" transform="matrix(1 0 0 1 263 1989)">For optimal layout with text and other symbols, vertically align</text>
  <text style="stroke:none;fill:black;font-family:sans-serif;font-size:13;" transform="matrix(1 0 0 1 263 2007)">symbols with the adjacent text.</text>
  <line style="fill:none;stroke:#00AEEF;stroke-width:0.5;opacity:1.0;" x1="776" x2="776" y1="1919" y2="1933"/>
  <g transform="matrix(0.2 0 0 0.2 776 1933)">
   <path d="m16.5527 0.78125c2.58789 0 3.85742-0.976562 4.78516-3.71094l20.5566-57.5195h0.244141l20.6055 57.5195c0.927734 2.73438 2.19727 3.71094 4.73633 3.71094 2.58789 0 4.24805-1.5625 4.24805-4.00391 0-0.830078-0.146484-1.61133-0.537109-2.63672l-22.9004-60.9863c-1.12305-2.97852-3.125-4.49219-6.25-4.49219-3.02734 0-5.07812 1.46484-6.15234 4.44336l-22.9004 61.084c-0.390625 1.02539-0.537109 1.80664-0.537109 2.63672 0 2.44141 1.5625 3.95508 4.10156 3.95508Zm10.2051-20.9473h30.6641c2.00195 0 3.66211-1.66016 3.66211-3.66211 0-2.05078-1.66016-3.66211-3.66211-3.66211h-30.6641c-2.00195 0-3.66211 1.61133-3.66211 3.66211 0 2.00195 1.66016 3.66211 3.66211 3.66211Z"/>
  </g>
  <line style="fill:none;stroke:#00AEEF;stroke-width:0.5;opacity:1.0;" x1="792.836" x2="792.836" y1="1919" y2="1933"/>
  <text style="stroke:none;fill:black;font-family:sans-serif;font-size:13;font-weight:bold;" transform="matrix(1 0 0 1 776 1953)">Margins</text>
  <text style="stroke:none;fill:black;font-family:sans-serif;font-size:13;" transform="matrix(1 0 0 1 776 1971)">Leading and trailing margins on the left and right side of each symbol</text>
  <text style="stroke:none;fill:black;font-family:sans-serif;font-size:13;" transform="matrix(1 0 0 1 776 1989)">can be adjusted by modifying the x-location of the margin guidelines.</text>
  <text style="stroke:none;fill:black;font-family:sans-serif;font-size:13;" transform="matrix(1 0 0 1 776 2007)">Modifications are automatically applied proportionally to all</text>
  <text style="stroke:none;fill:black;font-family:sans-serif;font-size:13;" transform="matrix(1 0 0 1 776 2025)">scales and weights.</text>
  <g transform="matrix(0.2 0 0 0.2 1289 1933)">
   <path d="m14.209 13.1348 7.86133 7.86133c4.29688 4.39453 9.32617 4.10156 13.8672-1.02539l60.6934-68.2129-4.88281-4.88281-60.2539 67.6758c-1.80664 1.95312-3.4668 2.44141-5.81055 0.0976562l-5.17578-5.12695c-2.29492-2.29492-1.80664-3.95508 0.195312-5.81055l67.4805-62.1582-4.88281-4.83398-68.0664 62.5977c-4.98047 4.58984-5.32227 9.47266-1.02539 13.8184Zm44.873-97.4609c-2.05078 2.00195-2.24609 4.88281-1.07422 6.78711 1.12305 1.80664 3.4668 3.02734 6.5918 2.24609 5.85938-1.66016 12.5977-2.39258 18.8965 0.927734l-2.68555 7.12891c-1.61133 4.00391-0.732422 6.88477 1.70898 9.42383l10.2539 10.3027c2.34375 2.39258 4.54102 2.44141 7.08008 1.95312l4.44336-0.732422 2.58789 2.53906-0.195312 2.24609c-0.0976562 2.29492 0.537109 4.29688 2.7832 6.49414l3.36914 3.32031c2.29492 2.29492 5.51758 2.49023 7.8125 0.195312l12.9883-13.0371c2.29492-2.34375 2.14844-5.37109-0.195312-7.66602l-3.41797-3.41797c-2.19727-2.19727-4.05273-3.02734-6.34766-2.88086l-2.34375 0.244141-2.44141-2.44141 1.02539-4.6875c0.634766-2.73438-0.244141-4.98047-2.88086-7.61719l-11.2793-11.1816c-12.9395-12.8418-35.5957-11.0352-46.6797-0.146484Zm7.08008 2.05078c8.78906-6.39648 25.9766-5.66406 33.6914 1.95312l12.3047 12.207c1.02539 1.02539 1.2207 1.80664 0.927734 3.32031l-1.46484 6.64062 6.73828 6.68945 4.39453-0.244141c1.12305-0.0488281 1.51367 0.0488281 2.34375 0.878906l2.53906 2.49023-10.8398 10.8398-2.49023-2.49023c-0.830078-0.878906-0.976562-1.2207-0.927734-2.39258l0.292969-4.3457-6.68945-6.73828-6.83594 1.17188c-1.41602 0.292969-2.05078 0.195312-3.17383-0.878906l-8.93555-8.88672c-1.07422-1.02539-1.17188-1.70898-0.488281-3.36914l4.58984-11.4746c-6.10352-6.34766-17.041-7.51953-25.5859-4.58984-0.683594 0.244141-0.927734-0.390625-0.390625-0.78125Z"/>
  </g>
  <text style="stroke:none;fill:black;font-family:sans-serif;font-size:13;font-weight:bold;" transform="matrix(1 0 0 1 1289 1953)">Exporting</text>
  <text style="stroke:none;fill:black;font-family:sans-serif;font-size:13;" transform="matrix(1 0 0 1 1289 1971)">Symbols should be outlined when exporting to ensure the</text>
  <text style="stroke:none;fill:black;font-family:sans-serif;font-size:13;" transform="matrix(1 0 0 1 1289 1989)">design is preserved when submitting to Xcode.</text>
  <text id="template-version" style="stroke:none;fill:black;font-family:sans-serif;font-size:13;text-anchor:end;" transform="matrix(1 0 0 1 3036 1933)">Template v.2.0</text>
  <text style="stroke:none;fill:black;font-family:sans-serif;font-size:13;text-anchor:end;" transform="matrix(1 0 0 1 3036 1951)">Requires Xcode 12 or greater</text>
  <text id="descriptive-name" style="stroke:none;fill:black;font-family:sans-serif;font-size:13;text-anchor:end;" transform="matrix(1 0 0 1 3036 1969)">Generated from arrow.down.left.circle</text>
  <text style="stroke:none;fill:black;font-family:sans-serif;font-size:13;text-anchor:end;" transform="matrix(1 0 0 1 3036 1987)">Typeset at 100.0 points</text>
  <text style="stroke:none;fill:black;font-family:sans-serif;font-size:13;" transform="matrix(1 0 0 1 263 726)">Small</text>
  <text style="stroke:none;fill:black;font-family:sans-serif;font-size:13;" transform="matrix(1 0 0 1 263 1156)">Medium</text>
  <text style="stroke:none;fill:black;font-family:sans-serif;font-size:13;" transform="matrix(1 0 0 1 263 1586)">Large</text>
 </g>
 <g id="Guides">
  <g id="H-reference" style="fill:#27AAE1;stroke:none;" transform="matrix(1 0 0 1 339 696)">
   <path d="M0.993654 0L3.63775 0L29.3281-67.1323L30.0303-67.1323L30.0303-70.459L28.1226-70.459ZM11.6885-24.4799L46.9815-24.4799L46.2315-26.7285L12.4385-26.7285ZM55.1196 0L57.7637 0L30.6382-70.459L29.4326-70.459L29.4326-67.1323Z"/>
  </g>
  <line id="Baseline-S" style="fill:none;stroke:#27AAE1;opacity:1;stroke-width:0.5;" x1="263" x2="3036" y1="696" y2="696"/>
  <line id="Capline-S" style="fill:none;stroke:#27AAE1;opacity:1;stroke-width:0.5;" x1="263" x2="3036" y1="625.541" y2="625.541"/>
  <g id="H-reference" style="fill:#27AAE1;stroke:none;" transform="matrix(1 0 0 1 339 1126)">
   <path d="M0.993654 0L3.63775 0L29.3281-67.1323L30.0303-67.1323L30.0303-70.459L28.1226-70.459ZM11.6885-24.4799L46.9815-24.4799L46.2315-26.7285L12.4385-26.7285ZM55.1196 0L57.7637 0L30.6382-70.459L29.4326-70.459L29.4326-67.1323Z"/>
  </g>
  <line id="Baseline-M" style="fill:none;stroke:#27AAE1;opacity:1;stroke-width:0.5;" x1="263" x2="3036" y1="1126" y2="1126"/>
  <line id="Capline-M" style="fill:none;stroke:#27AAE1;opacity:1;stroke-width:0.5;" x1="263" x2="3036" y1="1055.54" y2="1055.54"/>
  <g id="H-reference" style="fill:#27AAE1;stroke:none;" transform="matrix(1 0 0 1 339 1556)">
   <path d="M0.993654 0L3.63775 0L29.3281-67.1323L30.0303-67.1323L30.0303-70.459L28.1226-70.459ZM11.6885-24.4799L46.9815-24.4799L46.2315-26.7285L12.4385-26.7285ZM55.1196 0L57.7637 0L30.6382-70.459L29.4326-70.459L29.4326-67.1323Z"/>
  </g>
  <line id="Baseline-L" style="fill:none;stroke:#27AAE1;opacity:1;stroke-width:0.5;" x1="263" x2="3036" y1="1556" y2="1556"/>
  <line id="Capline-L" style="fill:none;stroke:#27AAE1;opacity:1;stroke-width:0.5;" x1="263" x2="3036" y1="1485.54" y2="1485.54"/>
  <line id="right-margin" style="fill:none;stroke:#00AEEF;stroke-width:0.5;opacity:1.0;" x1="1508.37" x2="1508.37" y1="1030.79" y2="1150.12"/>
  <line id="left-margin" style="fill:none;stroke:#00AEEF;stroke-width:0.5;opacity:1.0;" x1="1391.32" x2="1391.32" y1="1030.79" y2="1150.12"/>
 </g>
 <g id="Symbols">
  <g id="Black-L" transform="matrix(1 0 0 1 2854.19 1556)">
   <path d="M79.1958 32.6673C116.725 32.6673 147.154 2.25907 147.154-35.2697C147.154-72.7985 116.725-103.207 79.1958-103.207C41.6878-103.207 11.2588-72.7985 11.2588-35.2697C11.2588 2.25907 41.6878 32.6673 79.1958 32.6673ZM79.1958 12.5197C52.7846 12.5197 31.426-8.85853 31.426-35.2697C31.426-61.6809 52.7846-83.0592 79.1958-83.0592C105.607-83.0592 126.985-61.6809 126.985-35.2697C126.985-8.85853 105.607 12.5197 79.1958 12.5197ZM72.9532-18.4101L84.8654-28.4555L102.89-46.5012C104.567-48.1575 105.576-50.4448 105.576-52.6969C105.576-57.6896 101.696-61.044 97.0539-61.044C94.6797-61.044 92.5885-60.2314 90.5609-58.283L72.7499-40.5305L62.7266-28.5807C57.0662-21.8442 65.033-11.9009 72.9532-18.4101ZM66.9916-39.3131L66.9916-46.3402C66.9916-51.2589 64.2809-54.4589 59.8919-54.4589C55.4845-54.4589 52.7726-51.2549 52.7726-46.4154L52.7726-18.5687C52.7726-12.1748 56.5398-8.59494 62.8828-8.59494L90.7931-8.59494C95.7703-8.59494 98.9702-11.3056 98.9702-15.6922C98.9702-20.1021 95.8079-22.8127 90.9267-22.8127L83.3089-22.8127L64.2321-19.4651Z" data-clipstroke-keyframes="0 4 0 0.49910918 1.5009863 0 0.24850748 0.25060266 1.7493968 0 0.49586442 0.003246713 1.9966586 0 0.75063205 0.7484781 1.2515224 0 1 0.49910918 1.5009863 0 0 2.5216153 2.3109155 0 0.61207026 2.7108865 2.1189508 0 1 2.830473 2.9994721"/>
  </g>
  <g id="Heavy-L" transform="matrix(1 0 0 1 2558.42 1556)">
   <path d="M78.2532 31.7248C115.263 31.7248 145.278 1.74009 145.278-35.2697C145.278-72.2795 115.263-102.264 78.2532-102.264C41.2736-102.264 11.2588-72.2795 11.2588-35.2697C11.2588 1.74009 41.2736 31.7248 78.2532 31.7248ZM78.2532 13.9829C51.0308 13.9829 29.0252-8.04727 29.0252-35.2697C29.0252-62.4921 51.0308-84.5223 78.2532-84.5223C105.476-84.5223 127.506-62.4921 127.506-35.2697C127.506-8.04727 105.476 13.9829 78.2532 13.9829ZM70.49-18.0972L82.2231-28.2375L101.732-47.7763C103.217-49.2319 104.131-51.2457 104.131-53.2562C104.131-57.6935 100.757-60.6651 96.5879-60.6651C94.4366-60.6651 92.5869-59.9159 90.8333-58.2372L71.4787-38.9272L61.3741-27.1797C56.0178-20.9441 63.3833-12.1589 70.49-18.0972ZM65.2177-38.1547L65.2177-46.293C65.2177-50.707 62.7426-53.5749 58.7761-53.5749C54.7906-53.5749 52.3098-50.6611 52.3098-46.3219L52.3098-17.9239C52.3098-12.2162 55.6397-9.15794 61.1896-9.15794L89.6837-9.15794C94.1424-9.15794 97.0103-11.6331 97.0103-15.5884C97.0103-19.5851 94.1569-22.0602 89.7572-22.0602L80.9795-22.0602L62.7429-19.0932Z" data-clipstroke-keyframes="0 4 0 0.49911496 1.500977 0 0.24847426 0.2506417 1.7493632 0 0.49584827 0.0032687387 1.9966583 0 0.75062776 0.7484882 1.2515179 0 1 0.49911496 1.500977 0 0 2.516867 2.3293924 0 0.6283999 2.7246618 2.1195724 0 1 2.8445635 2.9997787"/>
  </g>
  <g id="Bold-L" transform="matrix(1 0 0 1 2262.89 1556)">
   <path d="M77.0704 30.5419C113.427 30.5419 142.92 1.08726 142.92-35.2697C142.92-71.6267 113.427-101.081 77.0704-101.081C40.7514-101.081 11.2588-71.6267 11.2588-35.2697C11.2588 1.08726 40.7514 30.5419 77.0704 30.5419ZM77.0704 15.7963C48.8414 15.7963 26.0292-7.04073 26.0292-35.2697C26.0292-63.4987 48.8414-86.3357 77.0704-86.3357C105.299-86.3357 128.136-63.4987 128.136-35.2697C128.136-7.04073 105.299 15.7963 77.0704 15.7963ZM67.3277-17.616L78.6516-27.6779L100.31-49.374C101.557-50.5836 102.348-52.2593 102.348-53.9701C102.348-57.7086 99.5897-60.2038 96.0265-60.2038C94.1592-60.2038 92.6092-59.539 91.1863-58.1833L69.6203-36.6465L59.6096-25.3314C54.7193-19.7926 61.2649-12.4368 67.3277-17.616ZM62.8934-36.5911L62.8934-46.3285C62.8934-50.0977 60.7326-52.5433 57.311-52.5433C53.8778-52.5433 51.7038-50.0129 51.7038-46.3109L51.7038-17.0875C51.7038-12.2624 54.4883-9.81987 59.0546-9.81987L88.4052-9.81987C92.2036-9.81987 94.6493-11.9806 94.6493-15.3758C94.6493-18.8354 92.1949-20.9962 88.4169-20.9962L77.8892-20.9962L60.8093-18.5353Z" data-clipstroke-keyframes="0 4 0 0.4991212 1.5009787 0 0.24844806 0.25067374 1.7493408 0 0.4958291 0.0032933003 1.9966578 0 0.75062466 0.7484971 1.2515188 0 1 0.4991212 1.5009787 0 0 2.512681 2.3534636 0 0.6540391 2.746776 2.1180866 0 1 2.8648982 2.0001101"/>
  </g>
  <g id="Semibold-L" transform="matrix(1 0 0 1 1966.99 1556)">
   <path d="M76.2549 29.7265C112.162 29.7265 141.294 0.637211 141.294-35.2697C141.294-71.1766 112.162-100.266 76.2549-100.266C40.3914-100.266 11.2588-71.1766 11.2588-35.2697C11.2588 0.637211 40.3914 29.7265 76.2549 29.7265ZM76.2549 17.0464C47.3321 17.0464 23.9637-6.34682 23.9637-35.2697C23.9637-64.1926 47.3321-87.5858 76.2549-87.5858C105.178-87.5858 128.571-64.1926 128.571-35.2697C128.571-6.34682 105.178 17.0464 76.2549 17.0464ZM65.1476-17.2843L76.1895-27.2921L99.3294-50.4754C100.413-51.5155 101.119-52.958 101.119-54.4623C101.119-57.7189 98.7846-59.8858 95.6394-59.8858C93.968-59.8858 92.6245-59.2791 91.4297-58.1462L68.3392-35.0743L58.3931-24.0571C53.824-18.9988 59.8045-12.6284 65.1476-17.2843ZM61.2911-35.5133L61.2911-46.3529C61.2911-49.6776 59.347-51.8321 56.301-51.8321C53.2486-51.8321 51.286-49.5661 51.286-46.3034L51.286-16.5109C51.286-12.2943 53.6944-10.2762 57.5828-10.2762L87.5238-10.2762C90.8671-10.2762 93.0216-12.2203 93.0216-15.2293C93.0216-18.3187 90.8423-20.2627 87.4928-20.2627L75.7588-20.2627L59.4763-18.1507Z" data-clipstroke-keyframes="0 4 0 0.49912587 1.5009798 0 0.24842998 0.250696 1.7493253 0 0.49581593 0.0033102364 1.9966576 0 0.7506225 0.74850345 1.2515194 0 1 0.49912587 1.5009798 0 0 2.509735 2.3696666 0 0.6717146 2.7618093 2.1168394 0 1 2.8784595 2.0003104"/>
  </g>
  <g id="Medium-L" transform="matrix(1 0 0 1 1670.9 1556)">
   <path d="M75.6366 29.1081C111.202 29.1081 140.062 0.295961 140.062-35.2697C140.062-70.8354 111.202-99.6475 75.6366-99.6475C40.1184-99.6475 11.2588-70.8354 11.2588-35.2697C11.2588 0.295961 40.1184 29.1081 75.6366 29.1081ZM75.6366 17.9943C46.1876 17.9943 22.3976-5.82067 22.3976-35.2697C22.3976-64.7187 46.1876-88.5337 75.6366-88.5337C105.086-88.5337 128.901-64.7187 128.901-35.2697C128.901-5.82067 105.086 17.9943 75.6366 17.9943ZM63.4946-17.0327L74.3226-26.9996L98.5861-51.3106C99.5451-52.2221 100.187-53.4879 100.187-54.8355C100.187-57.7268 98.1742-59.6447 95.346-59.6447C93.823-59.6447 92.6362-59.0821 91.6142-58.118L67.3677-33.8821L57.4707-23.091C53.1452-18.3969 58.6971-12.7737 63.4946-17.0327ZM60.0761-34.696L60.0761-46.3715C60.0761-49.3591 58.2963-51.2929 55.5352-51.2929C52.7715-51.2929 50.9693-49.2273 50.9693-46.2976L50.9693-16.0737C50.9693-12.3185 53.0926-10.6222 56.4668-10.6222L86.8555-10.6222C89.8536-10.6222 91.7874-12.402 91.7874-15.1182C91.7874-17.9268 89.8167-19.7066 86.7922-19.7066L74.1434-19.7066L58.4655-17.859Z" data-clipstroke-keyframes="0 4 0 0.49912962 1.5009806 0 0.24841629 0.250713 1.7493135 0 0.4958059 0.00332308 1.9966574 0 0.75062096 0.74850833 1.2515199 0 1 0.49912962 1.5009806 0 0 2.5074813 2.3820622 0 0.6851168 2.7733088 2.11589 0 1 2.8888273 2.0004478"/>
  </g>
  <g id="Regular-L" transform="matrix(1 0 0 1 1374.99 1556)">
   <path d="M74.8301 28.3017C109.951 28.3017 138.454-0.149147 138.454-35.2697C138.454-70.3903 109.951-98.8411 74.8301-98.8411C39.7624-98.8411 11.2588-70.3903 11.2588-35.2697C11.2588-0.149147 39.7624 28.3017 74.8301 28.3017ZM74.8301 19.2307C44.6948 19.2307 20.3549-5.13439 20.3549-35.2697C20.3549-65.405 44.6948-89.7701 74.8301-89.7701C104.965-89.7701 129.331-65.405 129.331-35.2697C129.331-5.13439 104.965 19.2307 74.8301 19.2307ZM61.3384-16.7047L71.8876-26.6181L97.6166-52.3999C98.4132-53.1437 98.971-54.179 98.971-55.3223C98.971-57.7371 97.3779-59.3302 94.9632-59.3302C93.6339-59.3302 92.6514-58.8251 91.8549-58.0813L66.1007-32.3271L56.2677-21.8307C52.2598-17.6118 57.2527-12.9632 61.3384-16.7047ZM58.4914-33.6299L58.4914-46.3957C58.4914-48.9436 56.9259-50.5895 54.5363-50.5895C52.1492-50.5895 50.5561-48.7853 50.5561-46.2902L50.5561-15.5035C50.5561-12.35 52.3075-11.0735 55.0111-11.0735L85.9838-11.0735C88.5317-11.0735 90.1776-12.6389 90.1776-14.9733C90.1776-17.4157 88.479-18.9811 85.8783-18.9811L72.0364-18.9811L57.1472-17.4787Z" data-clipstroke-keyframes="0 4 0 0.4991348 1.5009816 0 0.24839842 0.2507353 1.7492981 0 0.49579284 0.0033398352 1.9966571 0 0.7506188 0.7485149 1.2515205 0 1 0.4991348 1.5009816 0 0 2.504511 2.3983684 0 0.7025981 2.7884302 2.114646 0 1 2.9024518 2.0006082"/>
  </g>
  <g id="Light-L" transform="matrix(1 0 0 1 1079.2 1556)">
   <path d="M73.9141 27.3856C108.519 27.3856 136.603-0.66445 136.603-35.2697C136.603-69.875 108.519-97.925 73.9141-97.925C39.3425-97.925 11.2588-69.875 11.2588-35.2697C11.2588-0.66445 39.3425 27.3856 73.9141 27.3856ZM73.9141 20.4903C43.0726 20.4903 18.141-4.42824 18.141-35.2697C18.141-66.1112 43.0726-91.0297 73.9141-91.0297C104.756-91.0297 129.674-66.1112 129.674-35.2697C129.674-4.42824 104.756 20.4903 73.9141 20.4903ZM58.4375-15.7695L67.4979-24.366L96.7196-53.6214C97.3444-54.2125 97.7877-55.0187 97.7877-55.9521C97.7877-57.8134 96.5382-59.063 94.6769-59.063C93.5957-59.063 92.8232-58.6533 92.1984-58.0622L62.9898-28.8536L54.4736-19.8268C51.3628-16.5812 55.306-12.8868 58.4375-15.7695ZM56.0675-31.7214L56.0675-47.0255C56.0675-49.0009 54.8647-50.2841 52.9904-50.2841C51.1758-50.2841 49.9263-48.8999 49.9263-46.9582L49.9263-14.6828C49.9263-12.35 51.2769-11.3025 53.2935-11.3025L85.7166-11.3025C87.692-11.3025 88.9752-12.5054 88.9752-14.2862C88.9752-16.1942 87.6583-17.3971 85.6493-17.3971L68.582-17.3971L55.2386-16.4671Z" data-clipstroke-keyframes="0 4 0 0.4991267 1.5010552 0 0.24847661 0.250649 1.7494005 0 0.49578533 0.0033392205 1.9966568 0 0.750631 0.7484946 1.2515575 0 1 0.4991267 1.5010552 0 0 2.5054104 2.4206388 0 0.7551642 2.827073 2.0990467 0 1 2.9257858 2.0006216"/>
  </g>
  <g id="Thin-L" transform="matrix(1 0 0 1 783.716 1556)">
   <path d="M72.7024 26.174C106.626 26.174 134.155-1.34598 134.155-35.2697C134.155-69.1934 106.626-96.7134 72.7024-96.7134C38.7872-96.7134 11.2588-69.1934 11.2588-35.2697C11.2588-1.34598 38.7872 26.174 72.7024 26.174ZM72.7024 22.1563C40.927 22.1563 15.2129-3.49429 15.2129-35.2697C15.2129-67.0451 40.927-92.6957 72.7024-92.6957C104.478-92.6957 130.128-67.0451 130.128-35.2697C130.128-3.49429 104.478 22.1563 72.7024 22.1563ZM54.6007-14.5326L61.6923-21.3875L95.5333-55.2369C95.9309-55.626 96.2227-56.1294 96.2227-56.7851C96.2227-57.9144 95.4275-58.7096 94.2983-58.7096C93.5452-58.7096 93.0503-58.4261 92.6527-58.037L58.8753-24.2596L52.1009-17.1764C50.1764-15.2182 52.7313-12.7859 54.6007-14.5326ZM52.8618-29.1972L52.8618-47.8585C52.8618-49.0766 52.1386-49.8803 50.9458-49.8803C49.8885-49.8803 49.0933-49.0513 49.0933-47.8416L49.0933-13.5974C49.0933-12.35 49.9138-11.6054 51.0217-11.6054L85.3632-11.6054C86.5813-11.6054 87.385-12.3287 87.385-13.3775C87.385-14.5788 86.5729-15.302 85.3464-15.302L64.0132-15.302L52.7145-15.1293Z" data-clipstroke-keyframes="0 4 0 0.49911413 1.5011477 0 0.24858002 0.25053394 1.7495334 0 0.49577537 0.003338395 1.9966562 0 0.75064707 0.7484669 1.2516038 0 1 0.49911413 1.5011477 0 0 2.5053618 2.4489818 0 0.8246871 2.8758988 2.078404 0 1 2.9540284 2.00059"/>
  </g>
  <g id="Ultralight-L" transform="matrix(1 0 0 1 487.631 1556)">
   <path d="M72.0819 25.5534C105.657 25.5534 132.9-1.69505 132.9-35.2697C132.9-68.8443 105.657-96.0928 72.0819-96.0928C38.5027-96.0928 11.2588-68.8443 11.2588-35.2697C11.2588-1.69505 38.5027 25.5534 72.0819 25.5534ZM72.0819 23.0096C39.8281 23.0096 13.7132-3.01593 13.7132-35.2697C13.7132-67.5235 39.8281-93.549 72.0819-93.549C104.336-93.549 130.361-67.5235 130.361-35.2697C130.361-3.01593 104.336 23.0096 72.0819 23.0096ZM52.6355-13.8991L58.7187-19.8619L94.9256-56.0643C95.2069-56.35 95.4212-56.6982 95.4212-57.2118C95.4212-57.9661 94.8587-58.5286 94.1043-58.5286C93.5194-58.5286 93.1667-58.3098 92.8855-58.024L56.768-21.9065L50.8856-15.8189C49.5688-14.52 51.4126-12.7342 52.6355-13.8991ZM51.2199-27.9043L51.2199-48.2851C51.2199-49.1154 50.7423-49.6734 49.8986-49.6734C49.2291-49.6734 48.6666-49.1289 48.6666-48.2941L48.6666-13.0415C48.6666-12.35 49.2157-11.7606 49.8581-11.7606L85.1822-11.7606C86.0125-11.7606 86.5705-12.2382 86.5705-12.9121C86.5705-13.7513 86.017-14.2289 85.1912-14.2289L61.6731-14.2289L51.4216-14.4441Z" data-clipstroke-keyframes="0 4 0 0.4991068 1.5011932 0 0.248633 0.25047454 1.7496005 0 0.49577028 0.0033379663 1.996656 0 0.7506553 0.74845225 1.2516266 0 1 0.4991068 1.5011932 0 0 2.5056925 2.4649487 0 0.8602965 2.9023952 2.0681722 0 1 2.9701796 2.000555"/>
  </g>
  <g id="Black-M" transform="matrix(1 0 0 1 2871.36 1126)">
   <path d="M62.0422 18.0589C91.4936 18.0589 115.367-5.80932 115.367-35.2606C115.367-64.712 91.4936-88.5802 62.0422-88.5802C32.5964-88.5802 8.72266-64.712 8.72266-35.2606C8.72266-5.80932 32.5964 18.0589 62.0422 18.0589ZM62.0422 0.677054C42.1819 0.677054 26.1103-15.4003 26.1103-35.2606C26.1103-55.1209 42.1819-71.1983 62.0422-71.1983C81.9025-71.1983 97.9799-55.1209 97.9799-35.2606C97.9799-15.4003 81.9025 0.677054 62.0422 0.677054ZM58.2439-22.341L67.4249-29.8635L80.5877-43.0318C82.0283-44.4669 82.8762-46.443 82.8762-48.3669C82.8762-52.6373 79.4812-55.5184 75.5534-55.5184C73.5562-55.5184 71.7568-54.8473 69.9737-53.1267L57.0335-40.2437L49.5162-31.011C44.9911-25.4933 51.5379-16.9238 58.2439-22.341ZM53.0973-39.1302L53.0973-43.9633C53.0973-48.1302 50.844-50.8456 47.1503-50.8456C43.4506-50.8456 41.1976-48.1709 41.1976-44.0666L41.1976-22.7646C41.1976-17.3325 44.4377-14.1418 49.9404-14.1418L71.2585-14.1418C75.4825-14.1418 78.1978-16.3951 78.1978-20.0893C78.1978-23.7885 75.5341-26.0418 71.4188-26.0418L66.0768-26.0418L50.7846-23.1988Z" data-clipstroke-keyframes="0 4 0 0.4991024 1.5010128 0 0.24855801 0.25054482 1.7494538 0 0.49588108 0.0032221824 1.9966589 0 0.7506389 0.74846387 1.2515355 0 1 0.4991024 1.5010128 0 0 2.525772 2.295124 0 0.6031484 2.701562 2.1158762 0 1 2.8184965 2.9991398"/>
  </g>
  <g id="Heavy-M" transform="matrix(1 0 0 1 2575.48 1126)">
   <path d="M61.2053 17.222C90.1969 17.222 113.704-6.26912 113.704-35.2606C113.704-64.2522 90.1969-87.7433 61.2053-87.7433C32.2302-87.7433 8.72266-64.2522 8.72266-35.2606C8.72266-6.26912 32.2302 17.222 61.2053 17.222ZM61.2053 1.99116C40.6171 1.99116 23.9677-14.6724 23.9677-35.2606C23.9677-55.8489 40.6171-72.5124 61.2053-72.5124C81.7936-72.5124 98.4571-55.8489 98.4571-35.2606C98.4571-14.6724 81.7936 1.99116 61.2053 1.99116ZM56.1035-22.1214L65.2468-29.8582L79.5378-44.1656C80.8071-45.4185 81.5723-47.1484 81.5723-48.8555C81.5723-52.6341 78.6411-55.1727 75.1243-55.1727C73.322-55.1727 71.7394-54.5548 70.2084-53.0838L56.0778-38.9968L48.3596-29.8263C44.049-24.7085 50.1048-17.183 56.1035-22.1214ZM51.5868-38.1739L51.5868-43.8591C51.5868-47.5854 49.5303-50.0097 46.2021-50.0097C42.8621-50.0097 40.8033-47.5798 40.8033-43.9135L40.8033-22.21C40.8033-17.3729 43.6529-14.671 48.4436-14.671L70.1986-14.671C73.9686-14.671 76.3928-16.7276 76.3928-20.0512C76.3928-23.3958 73.9958-25.4523 70.2967-25.4523L64.1183-25.4523L49.5049-22.9285Z" data-clipstroke-keyframes="0 4 0 0.4991097 1.5009897 0 0.24850677 0.25060385 1.7493978 0 0.49586156 0.003250038 1.9966586 0 0.75063205 0.74847853 1.2515241 0 1 0.4991097 1.5009897 0 0 2.521026 2.3148084 0 0.6174938 2.7150772 2.1181543 0 1 2.8338537 2.9995306"/>
  </g>
  <g id="Bold-M" transform="matrix(1 0 0 1 2279.69 1126)">
   <path d="M60.2692 16.2859C88.7463 16.2859 111.844-6.78347 111.844-35.2606C111.844-63.7378 88.7463-86.8071 60.2692-86.8071C31.8206-86.8071 8.72266-63.7378 8.72266-35.2606C8.72266-6.78347 31.8206 16.2859 60.2692 16.2859ZM60.2692 3.46117C38.8667 3.46117 21.5708-13.8582 21.5708-35.2606C21.5708-56.6631 38.8667-73.9825 60.2692-73.9825C81.6717-73.9825 98.991-56.6631 98.991-35.2606C98.991-13.8582 81.6717 3.46117 60.2692 3.46117ZM53.7092-21.8757L62.8103-29.8524L78.3633-45.4339C79.4411-46.4831 80.1138-47.9375 80.1138-49.4021C80.1138-52.6304 77.7013-54.786 74.6442-54.786C73.06-54.786 71.7199-54.2276 70.4709-53.0357L55.0086-37.602L47.0657-28.5009C42.9951-23.8305 48.5016-17.4731 53.7092-21.8757ZM49.8971-37.104L49.8971-43.7424C49.8971-46.976 48.0607-49.0746 45.1414-49.0746C42.2037-49.0746 40.3622-46.9187 40.3622-43.7423L40.3622-21.5896C40.3622-17.4182 42.7749-15.263 46.7693-15.263L69.013-15.263C72.2751-15.263 74.3737-17.0994 74.3737-20.0085C74.3737-22.9565 72.2751-24.7929 69.0414-24.7929L61.9275-24.7929L48.0733-22.6262Z" data-clipstroke-keyframes="0 4 0 0.49911895 1.5009658 0 0.24844946 0.25067046 1.749336 0 0.49583972 0.0032812099 1.9966581 0 0.7506244 0.7484955 1.2515123 0 1 0.49911895 1.5009658 0 0 2.5141327 2.3383186 0 0.63354117 2.729683 2.1211421 0 1 2.850929 2.9999304"/>
  </g>
  <g id="Semibold-M" transform="matrix(1 0 0 1 1983.62 1126)">
   <path d="M59.6238 15.6405C87.7463 15.6405 110.562-7.13807 110.562-35.2606C110.562-63.3832 87.7463-86.1618 59.6238-86.1618C31.5382-86.1618 8.72266-63.3832 8.72266-35.2606C8.72266-7.13807 31.5382 15.6405 59.6238 15.6405ZM59.6238 4.47459C37.6599 4.47459 19.9185-13.2968 19.9185-35.2606C19.9185-57.2245 37.6599-74.9959 59.6238-74.9959C81.5876-74.9959 99.359-57.2245 99.359-35.2606C99.359-13.2968 81.5876 4.47459 59.6238 4.47459ZM52.0586-21.7064L61.1306-29.8483L77.5536-46.3083C78.4993-47.217 79.1082-48.4814 79.1082-49.779C79.1082-52.6279 77.0534-54.5194 74.3133-54.5194C72.8794-54.5194 71.7065-54.002 70.6518-53.0025L54.2715-36.6404L46.1737-27.5873C42.2685-23.2252 47.3964-17.673 52.0586-21.7064ZM48.7323-36.3665L48.7323-43.662C48.7323-46.5559 47.0476-48.4299 44.4102-48.4299C41.7499-48.4299 40.0581-46.4629 40.0581-43.6243L40.0581-21.1619C40.0581-17.4493 42.1696-15.6712 45.6151-15.6712L68.1957-15.6712C71.1077-15.6712 72.9817-17.3558 72.9817-19.9791C72.9817-22.6536 71.0888-24.3382 68.176-24.3382L60.4171-24.3382L47.0863-22.4178Z" data-clipstroke-keyframes="0 4 0 0.49912608 1.5009503 0 0.24840996 0.25071678 1.749294 0 0.4958247 0.0033027069 1.9966578 0 0.7506191 0.74850756 1.2515047 0 1 0.49912608 1.5009503 0 0 2.5110648 2.3544512 0 0.6446041 2.7414815 2.1231017 0 1 2.8643088 2.0001857"/>
  </g>
  <g id="Medium-M" transform="matrix(1 0 0 1 1687.4 1126)">
   <path d="M59.1344 15.1511C86.9881 15.1511 109.59-7.40694 109.59-35.2606C109.59-63.1144 86.9881-85.6724 59.1344-85.6724C31.3241-85.6724 8.72266-63.1144 8.72266-35.2606C8.72266-7.40694 31.3241 15.1511 59.1344 15.1511ZM59.1344 5.24301C36.7449 5.24301 18.6656-12.8711 18.6656-35.2606C18.6656-57.6501 36.7449-75.7643 59.1344-75.7643C81.5239-75.7643 99.6381-57.6501 99.6381-35.2606C99.6381-12.8711 81.5239 5.24301 59.1344 5.24301ZM50.807-21.5779L59.857-29.8452L76.9397-46.9713C77.7853-47.7735 78.3458-48.8939 78.3458-50.0647C78.3458-52.626 76.5621-54.3172 74.0624-54.3172C72.7425-54.3172 71.6963-53.831 70.7891-52.9774L53.7127-35.9113L45.4974-26.8945C41.7176-22.7663 46.5584-17.8246 50.807-21.5779ZM47.849-35.8072L47.849-43.6011C47.849-46.2373 46.2795-47.9411 43.8557-47.9411C41.4057-47.9411 39.8275-46.1173 39.8275-43.5348L39.8275-20.8376C39.8275-17.473 41.7107-15.9807 44.7398-15.9807L67.5759-15.9807C70.2224-15.9807 71.9262-17.5502 71.9262-19.9568C71.9262-22.424 70.1893-23.9935 67.5199-23.9935L59.2719-23.9935L46.338-22.2597Z" data-clipstroke-keyframes="0 4 0 0.4991319 1.5009391 0 0.24837999 0.25075206 1.7492626 0 0.49581325 0.0033190108 1.9966576 0 0.7506151 0.7485169 1.251499 0 1 0.4991319 1.5009391 0 0 2.5082018 2.3665035 0 0.6529925 2.7498157 2.124493 0 1 2.8737364 2.0003638"/>
  </g>
  <g id="Regular-M" transform="matrix(1 0 0 1 1391.32 1126)">
   <path d="M58.4961 14.5128C85.9991 14.5128 108.321-7.75763 108.321-35.2606C108.321-62.7637 85.9991-85.0341 58.4961-85.0341C31.0448-85.0341 8.72266-62.7637 8.72266-35.2606C8.72266-7.75763 31.0448 14.5128 58.4961 14.5128ZM58.4961 6.24529C35.5514 6.24529 17.0314-12.316 17.0314-35.2606C17.0314-58.2053 35.5514-76.7666 58.4961-76.7666C81.4408-76.7666 100.002-58.2053 100.002-35.2606C100.002-12.316 81.4408 6.24529 58.4961 6.24529ZM49.1746-21.4104L58.1957-29.8412L76.1389-47.8361C76.8539-48.4994 77.3513-49.4319 77.3513-50.4373C77.3513-52.6236 75.9213-54.0536 73.7351-54.0536C72.5639-54.0536 71.683-53.6079 70.968-52.9446L52.9837-34.9603L44.6152-25.9909C40.999-22.1676 45.4654-18.0223 49.1746-21.4104ZM46.6969-35.0778L46.6969-43.5215C46.6969-45.8218 45.2775-47.3035 43.1325-47.3035C40.9568-47.3035 39.5268-45.6665 39.5268-43.418L39.5268-20.4146C39.5268-17.5038 41.1121-16.3843 43.5983-16.3843L66.7675-16.3843C69.0678-16.3843 70.5495-17.8038 70.5495-19.9277C70.5495-22.1244 69.016-23.5439 66.664-23.5439L57.7782-23.5439L45.3619-22.0536Z" data-clipstroke-keyframes="0 4 0 0.49914 1.5009251 0 0.2483409 0.2507984 1.7492216 0 0.49579838 0.0033402822 1.9966574 0 0.7506099 0.74852943 1.2514921 0 1 0.49914 1.5009251 0 0 2.504404 2.3824046 0 0.6639339 2.7607884 2.126333 0 1 2.8861468 2.000579"/>
  </g>
  <g id="Light-M" transform="matrix(1 0 0 1 1095.44 1126)">
   <path d="M57.6748 13.6915C84.7158 13.6915 106.662-8.21963 106.662-35.2606C106.662-62.3017 84.7158-84.2128 57.6748-84.2128C30.6684-84.2128 8.72266-62.3017 8.72266-35.2606C8.72266-8.21963 30.6684 13.6915 57.6748 13.6915ZM57.6748 7.37462C34.097 7.37462 15.0465-11.6829 15.0465-35.2606C15.0465-58.8384 34.097-77.8959 57.6748-77.8959C81.2526-77.8959 100.31-58.8384 100.31-35.2606C100.31-11.6829 81.2526 7.37462 57.6748 7.37462ZM46.5737-20.572L54.2602-27.8221L75.3347-48.9312C75.8957-49.4576 76.2904-50.1848 76.2904-51.002C76.2904-52.692 75.1684-53.814 73.4784-53.814C72.5296-53.814 71.837-53.4539 71.276-52.9275L50.1946-31.8461L43.0068-24.1942C40.1948-21.2437 43.7201-17.9539 46.5737-20.572ZM44.5238-33.3667L44.5238-44.0862C44.5238-45.8731 43.4295-47.0298 41.7465-47.0298C40.0842-47.0298 38.9622-45.7692 38.9622-44.0169L38.9622-19.6788C38.9622-17.5038 40.1881-16.5897 42.0583-16.5897L66.528-16.5897C68.3149-16.5897 69.4716-17.684 69.4716-19.3117C69.4716-21.0293 68.2803-22.1237 66.4587-22.1237L54.6811-22.1237L43.6508-21.1467Z" data-clipstroke-keyframes="0 4 0 0.49913153 1.501013 0 0.2484314 0.25069898 1.7493415 0 0.49578968 0.003339577 1.9966569 0 0.75062394 0.7485064 1.2515363 0 1 0.49913153 1.501013 0 0 2.5045753 2.407506 0 0.72476476 2.804234 2.1079862 0 1 2.9117444 2.0006173"/>
  </g>
  <g id="Thin-M" transform="matrix(1 0 0 1 799.828 1126)">
   <path d="M56.5885 12.6052C83.0185 12.6052 104.466-8.83065 104.466-35.2606C104.466-61.6906 83.0185-83.1265 56.5885-83.1265C30.1705-83.1265 8.72266-61.6906 8.72266-35.2606C8.72266-8.83065 30.1705 12.6052 56.5885 12.6052ZM56.5885 8.86824C32.1734 8.86824 12.4213-10.8455 12.4213-35.2606C12.4213-59.6758 32.1734-79.3895 56.5885-79.3895C81.0036-79.3895 100.717-59.6758 100.717-35.2606C100.717-10.8455 81.0036 8.86824 56.5885 8.86824ZM43.1338-19.4631L49.0552-25.1517L74.271-50.3796C74.6283-50.7249 74.8873-51.1805 74.8873-51.7488C74.8873-52.7825 74.1727-53.4972 73.139-53.4972C72.4844-53.4972 72.0407-53.2502 71.6834-52.9049L46.5058-27.7273L40.8795-21.818C39.1312-20.0216 41.4118-17.8634 43.1338-19.4631ZM41.6498-31.1037L41.6498-44.833C41.6498-45.941 40.9854-46.6677 39.9134-46.6677C38.93-46.6677 38.2153-45.905 38.2153-44.809L38.2153-18.7057C38.2153-17.5038 38.966-16.8612 40.0215-16.8612L66.2111-16.8612C67.3192-16.8612 68.0458-17.5256 68.0458-18.497C68.0458-19.581 67.3071-20.2453 66.1871-20.2453L50.5849-20.2453L41.3877-19.9473Z" data-clipstroke-keyframes="0 4 0 0.49911785 1.5011225 0 0.24855107 0.25056624 1.7494965 0 0.49577817 0.0033386275 1.9966564 0 0.7506426 0.7484748 1.2515912 0 1 0.49911785 1.5011225 0 0 2.505374 2.441059 0 0.8052185 2.8622637 2.0841532 0 1 2.9461632 2.0006044"/>
  </g>
  <g id="Ultralight-M" transform="matrix(1 0 0 1 503.679 1126)">
   <path d="M56.0321 12.0488C82.1491 12.0488 103.342-9.14362 103.342-35.2606C103.342-61.3777 82.1491-82.5701 56.0321-82.5701C29.9155-82.5701 8.72266-61.3777 8.72266-35.2606C8.72266-9.14362 29.9155 12.0488 56.0321 12.0488ZM56.0321 9.63326C31.1881 9.63326 11.0767-10.4166 11.0767-35.2606C11.0767-60.1046 31.1881-80.1545 56.0321-80.1545C80.8761-80.1545 100.926-60.1046 100.926-35.2606C100.926-10.4166 80.8761 9.63326 56.0321 9.63326ZM41.372-18.8951L46.3892-23.7839L73.7262-51.1214C73.9792-51.374 74.1687-51.6906 74.1687-52.1313C74.1687-52.8289 73.6627-53.3349 72.9651-53.3349C72.4612-53.3349 72.145-53.1459 71.892-52.8933L44.6164-25.6177L39.7899-20.6009C38.5864-19.3957 40.2294-17.817 41.372-18.8951ZM40.1777-29.9445L40.1777-45.2155C40.1777-45.9758 39.7335-46.4822 38.9745-46.4822C38.3388-46.4822 37.8328-45.9745 37.8328-45.2147L37.8328-18.2073C37.8328-17.5038 38.3401-17.0003 38.9783-17.0003L66.0489-17.0003C66.8091-17.0003 67.3156-17.4444 67.3156-18.0797C67.3156-18.8391 66.8087-19.2833 66.048-19.2833L48.4869-19.2833L40.2286-19.3329Z" data-clipstroke-keyframes="0 4 0 0.49910972 1.5011756 0 0.24861237 0.25049773 1.7495744 0 0.49577227 0.0033381337 1.9966561 0 0.7506521 0.748458 1.2516178 0 1 0.49910972 1.5011756 0 0 2.5045784 2.4585273 0 0.84642655 2.890918 2.072125 0 1 2.962711 2.00057"/>
  </g>
  <g id="Black-S" transform="matrix(1 0 0 1 2884.57 696)">
   <path d="M48.8281 6.73828C72.0215 6.73828 90.8203-12.0605 90.8203-35.2539C90.8203-58.4473 72.0215-77.2461 48.8281-77.2461C25.6348-77.2461 6.83594-58.4473 6.83594-35.2539C6.83594-12.0605 25.6348 6.73828 48.8281 6.73828ZM48.8281-7.42188C33.4473-7.42188 20.9961-19.873 20.9961-35.2539C20.9961-50.6348 33.4473-63.0859 48.8281-63.0859C64.209-63.0859 76.6602-50.6348 76.6602-35.2539C76.6602-19.873 64.209-7.42188 48.8281-7.42188ZM46.1426-25.1465L53.2715-30.9082L63.4277-41.0645C64.5996-42.2363 65.2832-43.8477 65.2832-45.4102C65.2832-48.877 62.5-51.2207 59.3262-51.2207C57.7148-51.2207 56.25-50.6836 54.7852-49.2676L44.8242-39.3555L39.0625-32.1777C35.498-27.7832 40.7227-20.8008 46.1426-25.1465ZM41.9434-38.4766L41.9434-42.1387C41.9434-45.5078 40.1367-47.7051 37.1582-47.7051C34.1797-47.7051 32.373-45.5566 32.373-42.2363L32.373-25.5859C32.373-21.1914 35.0098-18.5547 39.502-18.5547L56.1523-18.5547C59.5703-18.5547 61.7676-20.3613 61.7676-23.3398C61.7676-26.3184 59.6191-28.125 56.2988-28.125L52.1973-28.125L40.0879-25.8301Z" data-clipstroke-keyframes="0 4 0 0.49909934 1.5010297 0 0.24858454 0.2505148 1.749485 0 0.49588796 0.0032113674 1.996659 0 0.7506426 0.7484567 1.251544 0 1 0.49909934 1.5010297 0 0 2.5275621 2.289431 0 0.6021233 2.6994786 2.1137135 0 1 2.8144617 2.9990003"/>
  </g>
  <g id="Heavy-S" transform="matrix(1 0 0 1 2588.47 696)">
   <path d="M48.2173 6.12748C71.0765 6.12748 89.6102-12.3948 89.6102-35.2539C89.6102-58.1131 71.0765-76.6353 48.2173-76.6353C25.3697-76.6353 6.83594-58.1131 6.83594-35.2539C6.83594-12.3948 25.3697 6.12748 48.2173 6.12748ZM48.2173-6.4423C32.2948-6.4423 19.4172-19.3314 19.4172-35.2539C19.4172-51.1764 32.2948-64.0655 48.2173-64.0655C64.1398-64.0655 77.0289-51.1764 77.0289-35.2539C77.0289-19.3314 64.1398-6.4423 48.2173-6.4423ZM44.6444-25.0658L51.9116-31.1617L62.6325-41.8942C63.6777-42.9278 64.3036-44.3547 64.3036-45.7559C64.3036-48.8654 61.8777-50.9556 58.992-50.9556C57.5189-50.9556 56.2154-50.4531 54.9465-49.233L44.3632-38.687L38.2788-31.3941C34.7951-27.23 39.72-21.0313 44.6444-25.0658ZM40.9292-37.8773L40.9292-41.9773C40.9292-45.0353 39.2493-47.0251 36.5244-47.0251C33.7879-47.0251 32.108-45.038 32.108-42.0289L32.108-25.2056C32.108-21.226 34.4566-18.9811 38.4187-18.9811L55.2765-18.9811C58.3718-18.9811 60.3616-20.661 60.3616-23.3859C60.3616-26.1224 58.3975-27.8023 55.3653-27.8023L50.918-27.8023L39.212-25.7148Z" data-clipstroke-keyframes="0 4 0 0.49910805 1.5009875 0 0.24851386 0.25059512 1.749403 0 0.4958681 0.0032418747 1.9966587 0 0.7506328 0.74847615 1.251523 0 1 0.49910805 1.5009875 0 0 2.5224538 2.3067741 0 0.6078588 2.7073448 2.1190462 0 1 2.8270845 2.999399"/>
  </g>
  <g id="Bold-S" transform="matrix(1 0 0 1 2292.43 696)">
   <path d="M47.5342 5.44434C70.0195 5.44434 88.2568-12.7686 88.2568-35.2539C88.2568-57.7393 70.0195-75.9521 47.5342-75.9521C25.0732-75.9521 6.83594-57.7393 6.83594-35.2539C6.83594-12.7686 25.0732 5.44434 47.5342 5.44434ZM47.5342-5.34668C31.0059-5.34668 17.6514-18.7256 17.6514-35.2539C17.6514-51.7822 31.0059-65.1611 47.5342-65.1611C64.0625-65.1611 77.4414-51.7822 77.4414-35.2539C77.4414-18.7256 64.0625-5.34668 47.5342-5.34668ZM42.9688-24.9756L50.3906-31.4453L61.7432-42.8223C62.6465-43.7012 63.208-44.9219 63.208-46.1426C63.208-48.8525 61.1816-50.6592 58.6182-50.6592C57.2998-50.6592 56.1768-50.1953 55.127-49.1943L43.8477-37.9395L37.4023-30.5176C34.0088-26.6113 38.5986-21.2891 42.9688-24.9756ZM39.7949-37.207L39.7949-41.7969C39.7949-44.5068 38.2568-46.2646 35.8154-46.2646C33.3496-46.2646 31.8115-44.458 31.8115-41.7969L31.8115-24.7803C31.8115-21.2646 33.8379-19.458 37.207-19.458L54.2969-19.458C57.0312-19.458 58.7891-20.9961 58.7891-23.4375C58.7891-25.9033 57.0312-27.4414 54.3213-27.4414L49.4873-27.4414L38.2324-25.5859Z" data-clipstroke-keyframes="0 4 0 0.49911916 1.5009434 0 0.24843483 0.25068566 1.7493129 0 0.49584585 0.0032760105 1.9966583 0 0.7506219 0.74849856 1.2515011 0 1 0.49911916 1.5009434 0 0 2.5156565 2.3272617 0 0.61427367 2.7157645 2.125419 0 1 2.8411908 2.9998178"/>
  </g>
  <g id="Semibold-S" transform="matrix(1 0 0 1 1996.19 696)">
   <path d="M47.0632 4.97334C69.2908 4.97334 87.3237-13.0263 87.3237-35.2539C87.3237-57.4815 69.2908-75.4812 47.0632-75.4812C24.8688-75.4812 6.83594-57.4815 6.83594-35.2539C6.83594-13.0263 24.8688 4.97334 47.0632 4.97334ZM47.0632-4.59131C30.1172-4.59131 16.4339-18.3079 16.4339-35.2539C16.4339-52.1999 30.1172-65.9165 47.0632-65.9165C64.0092-65.9165 77.7258-52.1999 77.7258-35.2539C77.7258-18.3079 64.0092-4.59131 47.0632-4.59131ZM41.8135-24.9134L49.342-31.6408L61.13-43.4621C61.9355-44.2344 62.4526-45.3129 62.4526-46.4092C62.4526-48.8437 60.7018-50.4548 58.3604-50.4548C57.1487-50.4548 56.1501-50.0176 55.2514-49.1677L43.4922-37.424L36.798-29.9133C33.4667-26.1848 37.8255-21.4668 41.8135-24.9134ZM39.0129-36.7449L39.0129-41.6725C39.0129-44.1425 37.5726-45.7403 35.3267-45.7403C33.0475-45.7403 31.6071-44.0581 31.6071-41.6369L31.6071-24.487C31.6071-21.2913 33.4113-19.7868 36.3717-19.7868L53.6215-19.7868C56.107-19.7868 57.7049-21.2271 57.7049-23.473C57.7049-25.7522 56.0893-27.1926 53.6015-27.1926L48.5009-27.1926L37.557-25.4971Z" data-clipstroke-keyframes="0 4 0 0.49912772 1.500915 0 0.24838033 0.25074854 1.7492518 0 0.49583054 0.003299555 1.9966581 0 0.7506144 0.7485145 1.2514869 0 1 0.49912772 1.500915 0 0 2.5109901 2.3416188 0 0.6186964 2.721763 2.1298914 0 1 2.85116 2.0000908"/>
  </g>
  <g id="Medium-S" transform="matrix(1 0 0 1 1699.83 696)">
   <path d="M46.7061 4.61621C68.7383 4.61621 86.6162-13.2217 86.6162-35.2539C86.6162-57.2861 68.7383-75.124 46.7061-75.124C24.7139-75.124 6.83594-57.2861 6.83594-35.2539C6.83594-13.2217 24.7139 4.61621 46.7061 4.61621ZM46.7061-4.01855C29.4434-4.01855 15.5107-17.9912 15.5107-35.2539C15.5107-52.5166 29.4434-66.4893 46.7061-66.4893C63.9688-66.4893 77.9414-52.5166 77.9414-35.2539C77.9414-17.9912 63.9688-4.01855 46.7061-4.01855ZM40.9375-24.8662L48.5469-31.7891L60.665-43.9473C61.3965-44.6387 61.8799-45.6094 61.8799-46.6113C61.8799-48.8369 60.3379-50.2998 58.165-50.2998C57.0342-50.2998 56.1299-49.8828 55.3457-49.1475L43.2227-37.0332L36.3398-29.4551C33.0557-25.8613 37.2393-21.6016 40.9375-24.8662ZM38.4199-36.3945L38.4199-41.5781C38.4199-43.8662 37.0537-45.3428 34.9561-45.3428C32.8184-45.3428 31.4521-43.7549 31.4521-41.5156L31.4521-24.2646C31.4521-21.3115 33.0879-20.0361 35.7383-20.0361L53.1094-20.0361C55.4062-20.0361 56.8828-21.4023 56.8828-23.5C56.8828-25.6377 55.375-27.0039 53.0557-27.0039L47.7529-27.0039L37.0449-25.4297Z" data-clipstroke-keyframes="0 4 0 0.4991347 1.5008943 0 0.24833901 0.2507965 1.7492058 0 0.4958189 0.0033174127 1.9966578 0 0.7506087 0.7485268 1.2514766 0 1 0.4991347 1.5008943 0 0 2.5084944 2.3527498 0 0.62204987 2.727521 2.13337 0 1 2.8600006 2.0002902"/>
  </g>
  <g id="Regular-S" transform="matrix(1 0 0 1 1403.58 696)">
   <path d="M46.2402 4.15039C68.0176 4.15039 85.6934-13.4766 85.6934-35.2539C85.6934-57.0312 68.0176-74.6582 46.2402-74.6582C24.5117-74.6582 6.83594-57.0312 6.83594-35.2539C6.83594-13.4766 24.5117 4.15039 46.2402 4.15039ZM46.2402-3.27148C28.5645-3.27148 14.3066-17.5781 14.3066-35.2539C14.3066-52.9297 28.5645-67.2363 46.2402-67.2363C63.916-67.2363 78.2227-52.9297 78.2227-35.2539C78.2227-17.5781 63.916-3.27148 46.2402-3.27148ZM39.7949-24.8047L47.5098-31.9824L60.0586-44.5801C60.6934-45.166 61.1328-45.9961 61.1328-46.875C61.1328-48.8281 59.8633-50.0977 57.9102-50.0977C56.8848-50.0977 56.1035-49.707 55.4688-49.1211L42.8711-36.5234L35.7422-28.8574C32.5195-25.4395 36.4746-21.7773 39.7949-24.8047ZM37.6465-35.9375L37.6465-41.4551C37.6465-43.5059 36.377-44.8242 34.4727-44.8242C32.5195-44.8242 31.25-43.3594 31.25-41.3574L31.25-23.9746C31.25-21.3379 32.666-20.3613 34.9121-20.3613L52.4414-20.3613C54.4922-20.3613 55.8105-21.6309 55.8105-23.5352C55.8105-25.4883 54.4434-26.7578 52.3438-26.7578L46.7773-26.7578L36.377-25.3418Z" data-clipstroke-keyframes="0 4 0 0.49914446 1.5008684 0 0.24828511 0.25085935 1.7491465 0 0.49580374 0.0033407123 1.9966576 0 0.75060123 0.7485432 1.2514638 0 1 0.49914446 1.5008684 0 0 2.5043063 2.3668861 0 0.626424 2.73388 2.137757 0 1 2.8702114 2.0005345"/>
  </g>
  <g id="Light-S" transform="matrix(1 0 0 1 1107.6 696)">
   <path d="M45.5137 3.42383C66.8823 3.42383 84.2251-13.8853 84.2251-35.2539C84.2251-56.6226 66.8823-73.9316 45.5137-73.9316C24.1787-73.9316 6.83594-56.6226 6.83594-35.2539C6.83594-13.8853 24.1787 3.42383 45.5137 3.42383ZM45.5137-2.27247C27.2778-2.27247 12.5508-17.0181 12.5508-35.2539C12.5508-53.4897 27.2778-68.2353 45.5137-68.2353C63.7495-68.2353 78.4951-53.4897 78.4951-35.2539C78.4951-17.0181 63.7495-2.27247 45.5137-2.27247ZM37.4942-24.063L44.0283-30.1963L59.3472-45.5488C59.8457-46.0137 60.1943-46.6621 60.1943-47.3745C60.1943-48.8887 59.1973-49.8857 57.6831-49.8857C56.8545-49.8857 56.2397-49.5708 55.7412-49.106L40.4038-33.7686L34.3193-27.2681C31.8081-24.6221 34.9307-21.7168 37.4942-24.063ZM35.7241-34.4238L35.7241-41.9546C35.7241-43.5513 34.7422-44.582 33.2466-44.582C31.7476-44.582 30.7505-43.4502 30.7505-41.8872L30.7505-23.3237C30.7505-21.3379 31.8486-20.543 33.5498-20.543L52.2295-20.543C53.8262-20.543 54.8569-21.5249 54.8569-22.9902C54.8569-24.5195 53.7925-25.5015 52.1621-25.5015L44.0376-25.5015L34.8633-24.5396Z" data-clipstroke-keyframes="0 4 0 0.49913585 1.5009707 0 0.24838725 0.2507476 1.7492833 0 0.4957939 0.0033399223 1.9966571 0 0.7506171 0.74851775 1.251515 0 1 0.49913585 1.5009707 0 0 2.50449 2.39527 0 0.695088 2.7830687 2.116909 0 1 2.8992944 2.000604"/>
  </g>
  <g id="Thin-S" transform="matrix(1 0 0 1 811.863 696)">
   <path d="M44.5527 2.4629C65.3809 2.4629 82.2832-14.4258 82.2832-35.2539C82.2832-56.082 65.3809-72.9707 44.5527-72.9707C23.7383-72.9707 6.83594-56.082 6.83594-35.2539C6.83594-14.4258 23.7383 2.4629 44.5527 2.4629ZM44.5527-0.95119C25.5762-0.95119 10.2285-16.2774 10.2285-35.2539C10.2285-54.2305 25.5762-69.5566 44.5527-69.5566C63.5293-69.5566 78.8555-54.2305 78.8555-35.2539C78.8555-16.2774 63.5293-0.95119 44.5527-0.95119ZM34.4512-23.082L39.4239-27.834L58.4063-46.8301C58.7246-47.1348 58.9531-47.543 58.9531-48.0351C58.9531-48.9687 58.3164-49.6055 57.3828-49.6055C56.8145-49.6055 56.4199-49.3906 56.1016-49.0859L37.1407-30.1251L32.4375-25.166C30.8672-23.541 32.8887-21.6367 34.4512-23.082ZM33.1817-32.4219L33.1817-42.6152C33.1817-43.6113 32.5801-44.2617 31.625-44.2617C30.7266-44.2617 30.0899-43.5703 30.0899-42.5879L30.0899-22.4629C30.0899-21.3379 30.7676-20.7832 31.7481-20.7832L51.9492-20.7832C52.9453-20.7832 53.5957-21.3848 53.5957-22.2695C53.5957-23.2383 52.9317-23.8399 51.9219-23.8399L40.4141-23.8399L32.8614-23.4785Z" data-clipstroke-keyframes="0 4 0 0.49912143 1.5010968 0 0.24852234 0.25059825 1.7494596 0 0.49578092 0.0033388573 1.9966565 0 0.7506381 0.7484825 1.2515783 0 1 0.49912143 1.5010968 0 0 2.5053868 2.4331872 0 0.7859018 2.8487058 2.0898817 0 1 2.9383254 2.0006144"/>
  </g>
  <g id="Ultralight-S" transform="matrix(1 0 0 1 515.649 696)">
   <path d="M44.0606 1.97072C64.6118 1.97072 81.2886-14.7026 81.2886-35.2539C81.2886-55.8052 64.6118-72.4785 44.0606-72.4785C23.5127-72.4785 6.83594-55.8052 6.83594-35.2539C6.83594-14.7026 23.5127 1.97072 44.0606 1.97072ZM44.0606-0.274438C24.7046-0.274438 9.0391-15.898 9.0391-35.2539C9.0391-54.6099 24.7046-70.2334 44.0606-70.2334C63.4165-70.2334 79.04-54.6099 79.04-35.2539C79.04-15.898 63.4165-0.274438 44.0606-0.274438ZM32.8926-22.5796L37.0655-26.6241L57.9243-47.4863C58.1504-47.709 58.3174-47.9941 58.3174-48.3735C58.3174-49.0098 57.8653-49.4619 57.229-49.4619C56.7939-49.4619 56.5122-49.2983 56.2861-49.0757L35.4693-28.2589L31.4737-24.0894C30.3853-22.9873 31.8428-21.5957 32.8926-22.5796ZM31.8794-31.3965L31.8794-42.9536C31.8794-43.6421 31.4727-44.0977 30.7945-44.0977C30.2036-44.0977 29.7515-43.6318 29.7515-42.9468L29.7515-22.022C29.7515-21.3379 30.2139-20.9062 30.8252-20.9062L51.8057-20.9062C52.4942-20.9062 52.9497-21.313 52.9497-21.9004C52.9497-22.5821 52.4907-22.9888 51.7988-22.9888L38.5582-22.9888L31.836-22.9351Z" data-clipstroke-keyframes="0 4 0 0.49911258 1.5011578 0 0.24859153 0.25052106 1.7495481 0 0.49577427 0.0033383023 1.9966562 0 0.75064886 0.74846375 1.2516088 0 1 0.49911258 1.5011578 0 0 2.5044522 2.452951 0 0.8324161 2.8810863 2.0762675 0 1 2.9570627 2.0005844"/>
  </g>
 </g>
 <g id="Data">
  <g id="Black-L-draw-attachment-data" data-d="0 1 0 2933.07 1521.44"/>
  <g id="Heavy-L-draw-attachment-data" data-d="0 1 0 2635.35 1522.34"/>
  <g id="Bold-L-draw-attachment-data" data-d="0 1 0 2337.11 1523.76"/>
  <g id="Semibold-L-draw-attachment-data" data-d="0 1 0 2039.34 1524.73"/>
  <g id="Medium-L-draw-attachment-data" data-d="0 1 0 1741.83 1525.47"/>
  <g id="Regular-L-draw-attachment-data" data-d="0 1 0 1444.08 1526.43"/>
  <g id="Light-L-draw-attachment-data" data-d="0 1 0 1144.55 1529.29"/>
  <g id="Thin-L-draw-attachment-data" data-d="0 1 0 844.116 1533.06"/>
  <g id="Ultralight-L-draw-attachment-data" data-d="0 1 0 545.498 1534.99"/>
  <g id="Black-M-draw-attachment-data" data-d="0 1 0 2933.64 1090.89"/>
  <g id="Heavy-M-draw-attachment-data" data-d="0 1 0 2636.19 1091.52"/>
  <g id="Bold-M-draw-attachment-data" data-d="0 1 0 2338.66 1092.21"/>
  <g id="Semibold-M-draw-attachment-data" data-d="0 1 0 2041.39 1092.69"/>
  <g id="Medium-M-draw-attachment-data" data-d="0 1 0 1744.25 1093.06"/>
  <g id="Regular-M-draw-attachment-data" data-d="0 1 0 1446.98 1093.53"/>
  <g id="Light-M-draw-attachment-data" data-d="0 1 0 1147.75 1096.09"/>
  <g id="Thin-M-draw-attachment-data" data-d="0 1 0 847.696 1099.47"/>
  <g id="Ultralight-M-draw-attachment-data" data-d="0 1 0 549.275 1101.21"/>
  <g id="Black-S-draw-attachment-data" data-d="0 1 0 2933.66 660.829"/>
  <g id="Heavy-S-draw-attachment-data" data-d="0 1 0 2636.65 661.034"/>
  <g id="Bold-S-draw-attachment-data" data-d="0 1 0 2339.59 661.263"/>
  <g id="Semibold-S-draw-attachment-data" data-d="0 1 0 2042.65 661.422"/>
  <g id="Medium-S-draw-attachment-data" data-d="0 1 0 1745.76 661.542"/>
  <g id="Regular-S-draw-attachment-data" data-d="0 1 0 1448.82 661.698"/>
  <g id="Light-S-draw-attachment-data" data-d="0 1 0 1149.88 663.961"/>
  <g id="Thin-S-draw-attachment-data" data-d="0 1 0 850.212 666.954"/>
  <g id="Ultralight-S-draw-attachment-data" data-d="0 1 0 551.988 668.487"/>
 </g>
</svg>
