<?xml version="1.0" encoding="UTF-8"?>
<!--Generator: Apple Native CoreSVG 341-->
<!DOCTYPE svg
PUBLIC "-//W3C//DTD SVG 1.1//EN"
       "http://www.w3.org/Graphics/SVG/1.1/DTD/svg11.dtd">
<svg version="1.1" xmlns="http://www.w3.org/2000/svg" xmlns:xlink="http://www.w3.org/1999/xlink" viewBox="0 0 3300 2200">
 <g id="Notes">
  <rect height="2200" id="artboard" style="fill:white;opacity:1" width="3300" x="0" y="0"/>
  <line style="fill:none;stroke:black;opacity:1;stroke-width:0.5;" x1="263" x2="3036" y1="292" y2="292"/>
  <text style="stroke:none;fill:black;font-family:sans-serif;font-size:13;font-weight:bold;" transform="matrix(1 0 0 1 263 322)">Weight/Scale Variations</text>
  <text style="stroke:none;fill:black;font-family:sans-serif;font-size:13;text-anchor:middle;" transform="matrix(1 0 0 1 559.711 322)">Ultralight</text>
  <text style="stroke:none;fill:black;font-family:sans-serif;font-size:13;text-anchor:middle;" transform="matrix(1 0 0 1 856.422 322)">Thin</text>
  <text style="stroke:none;fill:black;font-family:sans-serif;font-size:13;text-anchor:middle;" transform="matrix(1 0 0 1 1153.13 322)">Light</text>
  <text style="stroke:none;fill:black;font-family:sans-serif;font-size:13;text-anchor:middle;" transform="matrix(1 0 0 1 1449.84 322)">Regular</text>
  <text style="stroke:none;fill:black;font-family:sans-serif;font-size:13;text-anchor:middle;" transform="matrix(1 0 0 1 1746.56 322)">Medium</text>
  <text style="stroke:none;fill:black;font-family:sans-serif;font-size:13;text-anchor:middle;" transform="matrix(1 0 0 1 2043.27 322)">Semibold</text>
  <text style="stroke:none;fill:black;font-family:sans-serif;font-size:13;text-anchor:middle;" transform="matrix(1 0 0 1 2339.98 322)">Bold</text>
  <text style="stroke:none;fill:black;font-family:sans-serif;font-size:13;text-anchor:middle;" transform="matrix(1 0 0 1 2636.69 322)">Heavy</text>
  <text style="stroke:none;fill:black;font-family:sans-serif;font-size:13;text-anchor:middle;" transform="matrix(1 0 0 1 2933.4 322)">Black</text>
  <line style="fill:none;stroke:black;opacity:1;stroke-width:0.5;" x1="263" x2="3036" y1="1903" y2="1903"/>
  <g transform="matrix(0.2 0 0 0.2 263 1933)">
   <path d="m46.2402 4.15039c21.7773 0 39.4531-17.627 39.4531-39.4043s-17.6758-39.4043-39.4531-39.4043c-21.7285 0-39.4043 17.627-39.4043 39.4043s17.6758 39.4043 39.4043 39.4043Zm0-7.42188c-17.6758 0-31.9336-14.3066-31.9336-31.9824s14.2578-31.9824 31.9336-31.9824 31.9824 14.3066 31.9824 31.9824-14.3066 31.9824-31.9824 31.9824Zm3.61328-17.7734v-28.4668c0-2.24609-1.46484-3.75977-3.71094-3.75977-2.14844 0-3.61328 1.51367-3.61328 3.75977v28.4668c0 2.19727 1.46484 3.71094 3.61328 3.71094 2.24609 0 3.71094-1.51367 3.71094-3.71094Zm-17.8223-10.5957h28.418c2.19727 0 3.71094-1.46484 3.71094-3.61328 0-2.19727-1.51367-3.71094-3.71094-3.71094h-28.418c-2.24609 0-3.75977 1.51367-3.75977 3.71094 0 2.14844 1.51367 3.61328 3.75977 3.61328Z"/>
  </g>
  <g transform="matrix(0.2 0 0 0.2 281.506 1933)">
   <path d="m58.5449 14.5508c27.4902 0 49.8047-22.3145 49.8047-49.8047s-22.3145-49.8047-49.8047-49.8047-49.8047 22.3145-49.8047 49.8047 22.3145 49.8047 49.8047 49.8047Zm0-8.30078c-22.9492 0-41.5039-18.5547-41.5039-41.5039s18.5547-41.5039 41.5039-41.5039 41.5039 18.5547 41.5039 41.5039-18.5547 41.5039-41.5039 41.5039Zm4.05273-23.0957v-36.9141c0-2.49023-1.70898-4.19922-4.15039-4.19922-2.39258 0-4.05273 1.70898-4.05273 4.19922v36.9141c0 2.44141 1.66016 4.15039 4.05273 4.15039 2.44141 0 4.15039-1.66016 4.15039-4.15039Zm-22.5586-14.4043h36.9629c2.44141 0 4.15039-1.61133 4.15039-4.00391 0-2.44141-1.70898-4.15039-4.15039-4.15039h-36.9629c-2.49023 0-4.15039 1.70898-4.15039 4.15039 0 2.39258 1.66016 4.00391 4.15039 4.00391Z"/>
  </g>
  <g transform="matrix(0.2 0 0 0.2 304.924 1933)">
   <path d="m74.8535 28.3203c35.1074 0 63.623-28.4668 63.623-63.5742s-28.5156-63.623-63.623-63.623-63.5742 28.5156-63.5742 63.623 28.4668 63.5742 63.5742 63.5742Zm0-9.08203c-30.127 0-54.4922-24.3652-54.4922-54.4922s24.3652-54.4922 54.4922-54.4922 54.4922 24.3652 54.4922 54.4922-24.3652 54.4922-54.4922 54.4922Zm4.44336-30.3223v-48.4863c0-2.73438-1.85547-4.63867-4.54102-4.63867-2.58789 0-4.44336 1.9043-4.44336 4.63867v48.4863c0 2.68555 1.85547 4.58984 4.44336 4.58984 2.68555 0 4.54102-1.85547 4.54102-4.58984Zm-28.7109-19.7754h48.4863c2.68555 0 4.58984-1.80664 4.58984-4.39453 0-2.73438-1.85547-4.58984-4.58984-4.58984h-48.4863c-2.73438 0-4.58984 1.85547-4.58984 4.58984 0 2.58789 1.85547 4.39453 4.58984 4.39453Z"/>
  </g>
  <text style="stroke:none;fill:black;font-family:sans-serif;font-size:13;font-weight:bold;" transform="matrix(1 0 0 1 263 1953)">Design Variations</text>
  <text style="stroke:none;fill:black;font-family:sans-serif;font-size:13;" transform="matrix(1 0 0 1 263 1971)">Symbols are supported in up to nine weights and three scales.</text>
  <text style="stroke:none;fill:black;font-family:sans-serif;font-size:13;" transform="matrix(1 0 0 1 263 1989)">For optimal layout with text and other symbols, vertically align</text>
  <text style="stroke:none;fill:black;font-family:sans-serif;font-size:13;" transform="matrix(1 0 0 1 263 2007)">symbols with the adjacent text.</text>
  <line style="fill:none;stroke:#00AEEF;stroke-width:0.5;opacity:1.0;" x1="776" x2="776" y1="1919" y2="1933"/>
  <g transform="matrix(0.2 0 0 0.2 776 1933)">
   <path d="m16.5527 0.78125c2.58789 0 3.85742-0.976562 4.78516-3.71094l20.5566-57.5195h0.244141l20.6055 57.5195c0.927734 2.73438 2.19727 3.71094 4.73633 3.71094 2.58789 0 4.24805-1.5625 4.24805-4.00391 0-0.830078-0.146484-1.61133-0.537109-2.63672l-22.9004-60.9863c-1.12305-2.97852-3.125-4.49219-6.25-4.49219-3.02734 0-5.07812 1.46484-6.15234 4.44336l-22.9004 61.084c-0.390625 1.02539-0.537109 1.80664-0.537109 2.63672 0 2.44141 1.5625 3.95508 4.10156 3.95508Zm10.2051-20.9473h30.6641c2.00195 0 3.66211-1.66016 3.66211-3.66211 0-2.05078-1.66016-3.66211-3.66211-3.66211h-30.6641c-2.00195 0-3.66211 1.61133-3.66211 3.66211 0 2.00195 1.66016 3.66211 3.66211 3.66211Z"/>
  </g>
  <line style="fill:none;stroke:#00AEEF;stroke-width:0.5;opacity:1.0;" x1="792.836" x2="792.836" y1="1919" y2="1933"/>
  <text style="stroke:none;fill:black;font-family:sans-serif;font-size:13;font-weight:bold;" transform="matrix(1 0 0 1 776 1953)">Margins</text>
  <text style="stroke:none;fill:black;font-family:sans-serif;font-size:13;" transform="matrix(1 0 0 1 776 1971)">Leading and trailing margins on the left and right side of each symbol</text>
  <text style="stroke:none;fill:black;font-family:sans-serif;font-size:13;" transform="matrix(1 0 0 1 776 1989)">can be adjusted by modifying the x-location of the margin guidelines.</text>
  <text style="stroke:none;fill:black;font-family:sans-serif;font-size:13;" transform="matrix(1 0 0 1 776 2007)">Modifications are automatically applied proportionally to all</text>
  <text style="stroke:none;fill:black;font-family:sans-serif;font-size:13;" transform="matrix(1 0 0 1 776 2025)">scales and weights.</text>
  <g transform="matrix(0.2 0 0 0.2 1289 1933)">
   <path d="m14.209 13.1348 7.86133 7.86133c4.29688 4.39453 9.32617 4.10156 13.8672-1.02539l60.6934-68.2129-4.88281-4.88281-60.2539 67.6758c-1.80664 1.95312-3.4668 2.44141-5.81055 0.0976562l-5.17578-5.12695c-2.29492-2.29492-1.80664-3.95508 0.195312-5.81055l67.4805-62.1582-4.88281-4.83398-68.0664 62.5977c-4.98047 4.58984-5.32227 9.47266-1.02539 13.8184Zm44.873-97.4609c-2.05078 2.00195-2.24609 4.88281-1.07422 6.78711 1.12305 1.80664 3.4668 3.02734 6.5918 2.24609 5.85938-1.66016 12.5977-2.39258 18.8965 0.927734l-2.68555 7.12891c-1.61133 4.00391-0.732422 6.88477 1.70898 9.42383l10.2539 10.3027c2.34375 2.39258 4.54102 2.44141 7.08008 1.95312l4.44336-0.732422 2.58789 2.53906-0.195312 2.24609c-0.0976562 2.29492 0.537109 4.29688 2.7832 6.49414l3.36914 3.32031c2.29492 2.29492 5.51758 2.49023 7.8125 0.195312l12.9883-13.0371c2.29492-2.34375 2.14844-5.37109-0.195312-7.66602l-3.41797-3.41797c-2.19727-2.19727-4.05273-3.02734-6.34766-2.88086l-2.34375 0.244141-2.44141-2.44141 1.02539-4.6875c0.634766-2.73438-0.244141-4.98047-2.88086-7.61719l-11.2793-11.1816c-12.9395-12.8418-35.5957-11.0352-46.6797-0.146484Zm7.08008 2.05078c8.78906-6.39648 25.9766-5.66406 33.6914 1.95312l12.3047 12.207c1.02539 1.02539 1.2207 1.80664 0.927734 3.32031l-1.46484 6.64062 6.73828 6.68945 4.39453-0.244141c1.12305-0.0488281 1.51367 0.0488281 2.34375 0.878906l2.53906 2.49023-10.8398 10.8398-2.49023-2.49023c-0.830078-0.878906-0.976562-1.2207-0.927734-2.39258l0.292969-4.3457-6.68945-6.73828-6.83594 1.17188c-1.41602 0.292969-2.05078 0.195312-3.17383-0.878906l-8.93555-8.88672c-1.07422-1.02539-1.17188-1.70898-0.488281-3.36914l4.58984-11.4746c-6.10352-6.34766-17.041-7.51953-25.5859-4.58984-0.683594 0.244141-0.927734-0.390625-0.390625-0.78125Z"/>
  </g>
  <text style="stroke:none;fill:black;font-family:sans-serif;font-size:13;font-weight:bold;" transform="matrix(1 0 0 1 1289 1953)">Exporting</text>
  <text style="stroke:none;fill:black;font-family:sans-serif;font-size:13;" transform="matrix(1 0 0 1 1289 1971)">Symbols should be outlined when exporting to ensure the</text>
  <text style="stroke:none;fill:black;font-family:sans-serif;font-size:13;" transform="matrix(1 0 0 1 1289 1989)">design is preserved when submitting to Xcode.</text>
  <text id="template-version" style="stroke:none;fill:black;font-family:sans-serif;font-size:13;text-anchor:end;" transform="matrix(1 0 0 1 3036 1933)">Template v.2.0</text>
  <text style="stroke:none;fill:black;font-family:sans-serif;font-size:13;text-anchor:end;" transform="matrix(1 0 0 1 3036 1951)">Requires Xcode 12 or greater</text>
  <text id="descriptive-name" style="stroke:none;fill:black;font-family:sans-serif;font-size:13;text-anchor:end;" transform="matrix(1 0 0 1 3036 1969)">Generated from plus.square.on.square</text>
  <text style="stroke:none;fill:black;font-family:sans-serif;font-size:13;text-anchor:end;" transform="matrix(1 0 0 1 3036 1987)">Typeset at 100.0 points</text>
  <text style="stroke:none;fill:black;font-family:sans-serif;font-size:13;" transform="matrix(1 0 0 1 263 726)">Small</text>
  <text style="stroke:none;fill:black;font-family:sans-serif;font-size:13;" transform="matrix(1 0 0 1 263 1156)">Medium</text>
  <text style="stroke:none;fill:black;font-family:sans-serif;font-size:13;" transform="matrix(1 0 0 1 263 1586)">Large</text>
 </g>
 <g id="Guides">
  <g id="H-reference" style="fill:#27AAE1;stroke:none;" transform="matrix(1 0 0 1 339 696)">
   <path d="M0.993654 0L3.63775 0L29.3281-67.1323L30.0303-67.1323L30.0303-70.459L28.1226-70.459ZM11.6885-24.4799L46.9815-24.4799L46.2315-26.7285L12.4385-26.7285ZM55.1196 0L57.7637 0L30.6382-70.459L29.4326-70.459L29.4326-67.1323Z"/>
  </g>
  <line id="Baseline-S" style="fill:none;stroke:#27AAE1;opacity:1;stroke-width:0.5;" x1="263" x2="3036" y1="696" y2="696"/>
  <line id="Capline-S" style="fill:none;stroke:#27AAE1;opacity:1;stroke-width:0.5;" x1="263" x2="3036" y1="625.541" y2="625.541"/>
  <g id="H-reference" style="fill:#27AAE1;stroke:none;" transform="matrix(1 0 0 1 339 1126)">
   <path d="M0.993654 0L3.63775 0L29.3281-67.1323L30.0303-67.1323L30.0303-70.459L28.1226-70.459ZM11.6885-24.4799L46.9815-24.4799L46.2315-26.7285L12.4385-26.7285ZM55.1196 0L57.7637 0L30.6382-70.459L29.4326-70.459L29.4326-67.1323Z"/>
  </g>
  <line id="Baseline-M" style="fill:none;stroke:#27AAE1;opacity:1;stroke-width:0.5;" x1="263" x2="3036" y1="1126" y2="1126"/>
  <line id="Capline-M" style="fill:none;stroke:#27AAE1;opacity:1;stroke-width:0.5;" x1="263" x2="3036" y1="1055.54" y2="1055.54"/>
  <g id="H-reference" style="fill:#27AAE1;stroke:none;" transform="matrix(1 0 0 1 339 1556)">
   <path d="M0.993654 0L3.63775 0L29.3281-67.1323L30.0303-67.1323L30.0303-70.459L28.1226-70.459ZM11.6885-24.4799L46.9815-24.4799L46.2315-26.7285L12.4385-26.7285ZM55.1196 0L57.7637 0L30.6382-70.459L29.4326-70.459L29.4326-67.1323Z"/>
  </g>
  <line id="Baseline-L" style="fill:none;stroke:#27AAE1;opacity:1;stroke-width:0.5;" x1="263" x2="3036" y1="1556" y2="1556"/>
  <line id="Capline-L" style="fill:none;stroke:#27AAE1;opacity:1;stroke-width:0.5;" x1="263" x2="3036" y1="1485.54" y2="1485.54"/>
  <line id="right-margin" style="fill:none;stroke:#00AEEF;stroke-width:0.5;opacity:1.0;" x1="1513.96" x2="1513.96" y1="1030.79" y2="1150.12"/>
  <line id="left-margin" style="fill:none;stroke:#00AEEF;stroke-width:0.5;opacity:1.0;" x1="1385.73" x2="1385.73" y1="1030.79" y2="1150.12"/>
 </g>
 <g id="Symbols">
  <g id="Black-L" transform="matrix(1 0 0 1 2843.68 1556)">
   <path d="M39.8556 5.0591L59.6245 5.0591L59.6245-14.9219L42.5864-14.9219C38.2704-14.9219 36.065-16.8521 36.065-21.4849L36.065-81.6057C36.065-86.2385 38.2704-88.1687 42.5864-88.1687L102.79-88.1687C107.102-88.1687 109.312-86.2385 109.312-81.6057L109.312-68.1807L129.293-68.1807L129.293-84.4613C129.293-99.5606 120.664-108.15 105.521-108.15L39.8556-108.15C24.6915-108.15 16.084-99.563 16.084-84.4613L16.084-18.6293C16.084-3.52762 24.6915 5.0591 39.8556 5.0591ZM73.9196 37.7736L139.585 37.7736C154.728 37.7736 163.357 29.1845 163.357 14.0852L163.357-51.7469C163.357-66.8462 154.728-75.4353 139.585-75.4353L73.9196-75.4353C58.7555-75.4353 50.1479-66.8486 50.1479-51.7469L50.1479 14.0852C50.1479 29.1868 58.7555 37.7736 73.9196 37.7736ZM76.6503 17.7925C72.3344 17.7925 70.129 15.8624 70.129 11.2295L70.129-48.8913C70.129-53.5241 72.3344-55.4543 76.6503-55.4543L136.854-55.4543C141.166-55.4543 143.376-53.5241 143.376-48.8913L143.376 11.2295C143.376 15.8624 141.166 17.7925 136.854 17.7925ZM114.821 2.15416L114.821-39.8379C114.821-44.3726 111.36-47.7142 106.73-47.7142C102.124-47.7142 98.684-44.3714 98.684-39.8379L98.684 2.15416C98.684 6.66569 102.124 10.0097 106.73 10.0097C111.36 10.0097 114.821 6.66688 114.821 2.15416ZM85.7662-10.7845L127.758-10.7845C132.271-10.7845 135.614-14.2245 135.614-18.8309C135.614-23.4604 132.272-26.9212 127.758-26.9212L85.7662-26.9212C81.2326-26.9212 77.9106-23.4604 77.9106-18.8309C77.9106-14.2245 81.2338-10.7845 85.7662-10.7845Z"/>
  </g>
  <g id="Heavy-L" transform="matrix(1 0 0 1 2548.69 1556)">
   <path d="M38.8315 4.22978L57.6839 4.22978L57.6839-13.2706L40.9557-13.2706C36.118-13.2706 33.5844-15.5653 33.5844-20.7023L33.5844-81.4285C33.5844-86.5655 36.118-88.8602 40.9557-88.8602L101.803-88.8602C106.618-88.8602 109.174-86.5655 109.174-81.4285L109.174-68.0227L126.674-68.0227L126.674-83.7339C126.674-98.2749 118.54-106.361 103.927-106.361L38.8315-106.361C24.1886-106.361 16.084-98.2862 16.084-83.7339L16.084-18.397C16.084-3.84465 24.1886 4.22978 38.8315 4.22978ZM72.0684 35.9933L137.164 35.9933C151.776 35.9933 159.911 27.9076 159.911 13.3665L159.911-51.9704C159.911-66.5115 151.776-74.5971 137.164-74.5971L72.0684-74.5971C57.4255-74.5971 49.3209-66.5227 49.3209-51.9704L49.3209 13.3665C49.3209 27.9188 57.4255 35.9933 72.0684 35.9933ZM74.1926 18.4929C69.3549 18.4929 66.8213 16.1981 66.8213 11.0612L66.8213-49.665C66.8213-54.802 69.3549-57.0967 74.1926-57.0967L135.04-57.0967C139.855-57.0967 142.411-54.802 142.411-49.665L142.411 11.0612C142.411 16.1981 139.855 18.4929 135.04 18.4929ZM111.945 2.3945L111.945-41.0342C111.945-45.212 108.812-48.2452 104.58-48.2452C100.39-48.2452 97.2869-45.2064 97.2869-41.0342L97.2869 2.3945C97.2869 6.53091 100.39 9.57539 104.58 9.57539C108.812 9.57539 111.945 6.53652 111.945 2.3945ZM82.9141-12.0085L126.343-12.0085C130.485-12.0085 133.524-15.1121 133.524-19.3019C133.524-23.5332 130.49-26.6669 126.343-26.6669L82.9141-26.6669C78.7418-26.6669 75.7332-23.5332 75.7332-19.3019C75.7332-15.1121 78.7475-12.0085 82.9141-12.0085Z"/>
  </g>
  <g id="Bold-L" transform="matrix(1 0 0 1 2254.05 1556)">
   <path d="M37.5412 3.26727L55.331 3.26727L55.331-11.1745L38.987-11.1745C33.4665-11.1745 30.5257-13.9225 30.5257-19.7117L30.5257-81.1313C30.5257-86.9205 33.4665-89.6685 38.987-89.6685L100.558-89.6685C106.026-89.6685 109.02-86.9205 109.02-81.1313L109.02-67.9423L123.462-67.9423L123.462-82.805C123.462-96.6172 115.919-104.11 102.004-104.11L37.5412-104.11C23.5885-104.11 16.084-96.6437 16.084-82.805L16.084-18.038C16.084-4.1993 23.5885 3.26727 37.5412 3.26727ZM69.853 33.7582L134.316 33.7582C148.231 33.7582 155.773 26.2651 155.773 12.4529L155.773-52.3141C155.773-66.1263 148.231-73.6194 134.316-73.6194L69.853-73.6194C55.9003-73.6194 48.3958-66.1528 48.3958-52.3141L48.3958 12.4529C48.3958 26.2916 55.9003 33.7582 69.853 33.7582ZM71.2988 19.3164C65.7783 19.3164 62.8375 16.5684 62.8375 10.7792L62.8375-50.6404C62.8375-56.4296 65.7783-59.1776 71.2988-59.1776L132.87-59.1776C138.338-59.1776 141.332-56.4296 141.332-50.6404L141.332 10.7792C141.332 16.5684 138.338 19.3164 132.87 19.3164ZM108.44 2.64195L108.44-42.5544C108.44-46.2419 105.728-48.8687 102.033-48.8687C98.403-48.8687 95.7294-46.2287 95.7294-42.5544L95.7294 2.64195C95.7294 6.26505 98.403 8.91828 102.033 8.91828C105.728 8.91828 108.44 6.27828 108.44 2.64195ZM79.4987-13.6267L124.695-13.6267C128.331-13.6267 130.971-16.3003 130.971-19.9306C130.971-23.6253 128.345-26.337 124.695-26.337L79.4987-26.337C75.8244-26.337 73.2224-23.6253 73.2224-19.9306C73.2224-16.3003 75.8376-13.6267 79.4987-13.6267Z"/>
  </g>
  <g id="Semibold-L" transform="matrix(1 0 0 1 1958.76 1556)">
   <path d="M36.6517 2.60373L53.709 2.60373L53.709-9.72941L37.6298-9.72941C31.6387-9.72941 28.4171-12.7899 28.4171-19.0288L28.4171-80.9263C28.4171-87.1652 31.6387-90.2258 37.6298-90.2258L99.7008-90.2258C105.618-90.2258 108.913-87.1652 108.913-80.9263L108.913-67.8868L121.247-67.8868L121.247-82.1646C121.247-95.4744 114.112-102.559 100.679-102.559L36.6517-102.559C23.1749-102.559 16.084-95.5114 16.084-82.1646L16.084-17.7906C16.084-4.44379 23.1749 2.60373 36.6517 2.60373ZM68.3257 32.2173L132.353 32.2173C145.786 32.2173 152.921 25.1328 152.921 11.823L152.921-52.551C152.921-65.8609 145.786-72.9453 132.353-72.9453L68.3257-72.9453C54.8488-72.9453 47.758-65.8978 47.758-52.551L47.758 11.823C47.758 25.1698 54.8488 32.2173 68.3257 32.2173ZM69.3038 19.8842C63.3126 19.8842 60.0911 16.8236 60.0911 10.5847L60.0911-51.3128C60.0911-57.5517 63.3126-60.6122 69.3038-60.6122L131.375-60.6122C137.292-60.6122 140.587-57.5517 140.587-51.3128L140.587 10.5847C140.587 16.8236 137.292 19.8842 131.375 19.8842ZM106.023 2.81254L106.023-43.6024C106.023-46.952 103.602-49.2985 100.277-49.2985C97.0329-49.2985 94.6556-46.9335 94.6556-43.6024L94.6556 2.81254C94.6556 6.08176 97.0329 8.46527 100.277 8.46527C103.602 8.46527 106.023 6.10024 106.023 2.81254ZM77.1442-14.7422L123.559-14.7422C126.847-14.7422 129.212-17.1195 129.212-20.364C129.212-23.6889 126.865-26.1095 123.559-26.1095L77.1442-26.1095C73.8132-26.1095 71.4915-23.6889 71.4915-20.364C71.4915-17.1195 73.8316-14.7422 77.1442-14.7422Z"/>
  </g>
  <g id="Medium-L" transform="matrix(1 0 0 1 1663.13 1556)">
   <path d="M35.9773 2.1006L52.479 2.1006L52.479-8.6337L36.6007-8.6337C30.2527-8.6337 26.8183-11.9312 26.8183-18.511L26.8183-80.771C26.8183-87.3508 30.2527-90.6483 36.6007-90.6483L99.0504-90.6483C105.309-90.6483 108.833-87.3508 108.833-80.771L108.833-67.8448L119.567-67.8448L119.567-81.679C119.567-94.6079 112.743-101.383 99.6738-101.383L35.9773-101.383C22.8612-101.383 16.084-94.6528 16.084-81.679L16.084-17.6029C16.084-4.62917 22.8612 2.1006 35.9773 2.1006ZM67.1677 31.0489L130.864 31.0489C143.933 31.0489 150.758 24.2743 150.758 11.3454L150.758-52.7307C150.758-65.6595 143.933-72.4342 130.864-72.4342L67.1677-72.4342C54.0516-72.4342 47.2743-65.7045 47.2743-52.7307L47.2743 11.3454C47.2743 24.3192 54.0516 31.0489 67.1677 31.0489ZM67.7911 20.3146C61.4431 20.3146 58.0086 17.0172 58.0086 10.4373L58.0086-51.8226C58.0086-58.4025 61.4431-61.6999 67.7911-61.6999L130.241-61.6999C136.499-61.6999 140.023-58.4025 140.023-51.8226L140.023 10.4373C140.023 17.0172 136.499 20.3146 130.241 20.3146ZM104.19 2.94189L104.19-44.3971C104.19-47.4904 101.99-49.6244 98.946-49.6244C95.994-49.6244 93.8414-47.4679 93.8414-44.3971L93.8414 2.94189C93.8414 5.94279 95.994 8.12178 98.946 8.12178C101.99 8.12178 104.19 5.96525 104.19 2.94189ZM75.3589-15.5881L122.698-15.5881C125.721-15.5881 127.878-17.7406 127.878-20.6926C127.878-23.737 125.744-25.937 122.698-25.937L75.3589-25.937C72.2881-25.937 70.179-23.737 70.179-20.6926C70.179-17.7406 72.3106-15.5881 75.3589-15.5881Z"/>
  </g>
  <g id="Regular-L" transform="matrix(1 0 0 1 1367.83 1556)">
   <path d="M35.0976 1.44435L50.8748 1.44435L50.8748-7.20452L35.2584-7.20452C28.4449-7.20452 24.7328-10.8111 24.7328-17.8356L24.7328-80.5683C24.7328-87.5929 28.4449-91.1994 35.2584-91.1994L98.2021-91.1994C104.905-91.1994 108.728-87.5929 108.728-80.5683L108.728-67.79L117.377-67.79L117.377-81.0457C117.377-93.4776 110.956-99.8483 98.363-99.8483L35.0976-99.8483C22.4521-99.8483 16.084-93.5329 16.084-81.0457L16.084-17.3582C16.084-4.87097 22.4521 1.44435 35.0976 1.44435ZM65.6572 29.525L128.923 29.525C141.515 29.525 147.936 23.1544 147.936 10.7224L147.936-52.965C147.936-65.397 141.515-71.7676 128.923-71.7676L65.6572-71.7676C53.0116-71.7676 46.6436-65.4523 46.6436-52.965L46.6436 10.7224C46.6436 23.2097 53.0116 29.525 65.6572 29.525ZM65.818 20.8762C59.0045 20.8762 55.2924 17.2696 55.2924 10.245L55.2924-52.4876C55.2924-59.5122 59.0045-63.1187 65.818-63.1187L128.762-63.1187C135.465-63.1187 139.287-59.5122 139.287-52.4876L139.287 10.245C139.287 17.2696 135.465 20.8762 128.762 20.8762ZM101.8 3.11061L101.8-45.4336C101.8-48.1926 99.888-50.0495 97.2094-50.0495C94.6389-50.0495 92.7795-48.1649 92.7795-45.4336L92.7795 3.11061C92.7795 5.76152 94.6389 7.67375 97.2094 7.67375C99.888 7.67375 101.8 5.78918 101.8 3.11061ZM73.0303-16.6913L121.575-16.6913C124.253-16.6913 126.138-18.5508 126.138-21.1213C126.138-23.7999 124.281-25.7121 121.575-25.7121L73.0303-25.7121C70.299-25.7121 68.4672-23.7999 68.4672-21.1213C68.4672-18.5508 70.3266-16.6913 73.0303-16.6913Z"/>
  </g>
  <g id="Light-L" transform="matrix(1 0 0 1 1072.13 1556)">
   <path d="M34.067 1.19624L49.577 1.19624L49.577-5.42959L34.2278-5.42959C26.7082-5.42959 22.7098-9.36058 22.7098-17.015L22.7098-79.8621C22.7098-87.5165 26.7082-91.4475 34.2278-91.4475L97.2097-91.4475C104.542-91.4475 108.728-87.5165 108.728-79.8621L108.728-68.477L115.354-68.477L115.354-80.225C115.354-91.9126 109.219-98.0733 97.3705-98.0733L34.067-98.0733C22.1849-98.0733 16.084-92.0061 16.084-80.225L16.084-16.6521C16.084-4.87097 22.1849 1.19624 34.067 1.19624ZM64.6266 27.7883L127.93 27.7883C139.779 27.7883 145.913 21.6276 145.913 9.93995L145.913-53.633C145.913-65.3206 139.779-71.4813 127.93-71.4813L64.6266-71.4813C52.7444-71.4813 46.6436-65.4141 46.6436-53.633L46.6436 9.93995C46.6436 21.721 52.7444 27.7883 64.6266 27.7883ZM64.7874 21.1624C57.2677 21.1624 53.2694 17.2314 53.2694 9.57704L53.2694-53.2701C53.2694-60.9245 57.2677-64.8555 64.7874-64.8555L127.769-64.8555C135.102-64.8555 139.287-60.9245 139.287-53.2701L139.287 9.57704C139.287 17.2314 135.102 21.1624 127.769 21.1624ZM99.739 2.95792L99.739-46.7314C99.739-48.8415 98.2276-50.2594 96.1979-50.2594C94.2954-50.2594 92.8177-48.7948 92.8177-46.7314L92.8177 2.95792C92.8177 4.94085 94.2954 6.45229 96.1979 6.45229C98.2276 6.45229 99.739 4.9876 99.739 2.95792ZM71.4271-18.4663L121.116-18.4663C123.146-18.4663 124.611-19.944 124.611-21.8465C124.611-23.8762 123.193-25.3876 121.116-25.3876L71.4271-25.3876C69.3638-25.3876 67.9328-23.8762 67.9328-21.8465C67.9328-19.944 69.4105-18.4663 71.4271-18.4663Z"/>
  </g>
  <g id="Thin-L" transform="matrix(1 0 0 1 776.761 1556)">
   <path d="M32.7039 0.868093L47.8606 0.868093L47.8606-3.0821L32.8648-3.0821C24.4111-3.0821 20.0342-7.4422 20.0342-15.9296L20.0342-78.9282C20.0342-87.4156 24.4111-91.7757 32.8648-91.7757L95.8971-91.7757C104.063-91.7757 108.728-87.4156 108.728-78.9282L108.728-69.3857L112.678-69.3857L112.678-79.1396C112.678-89.8428 106.922-95.7258 96.058-95.7258L32.7039-95.7258C21.8315-95.7258 16.084-89.9868 16.084-79.1396L16.084-15.7181C16.084-4.87097 21.8315 0.868093 32.7039 0.868093ZM63.2635 25.4912L126.618 25.4912C137.482 25.4912 143.237 19.6082 143.237 8.90504L143.237-54.5165C143.237-65.2197 137.482-71.1027 126.618-71.1027L63.2635-71.1027C52.3911-71.1027 46.6436-65.3636 46.6436-54.5165L46.6436 8.90504C46.6436 19.7522 52.3911 25.4912 63.2635 25.4912ZM63.4244 21.5411C54.9707 21.5411 50.5937 17.181 50.5937 8.69358L50.5937-54.305C50.5937-62.7924 54.9707-67.1525 63.4244-67.1525L126.457-67.1525C134.622-67.1525 139.287-62.7924 139.287-54.305L139.287 8.69358C139.287 17.181 134.622 21.5411 126.457 21.5411ZM97.0129 2.75599L97.0129-48.4479C97.0129-49.6997 96.0316-50.5371 94.8601-50.5371C93.8411-50.5371 92.8681-49.6277 92.8681-48.4479L92.8681 2.75599C92.8681 3.85545 93.8411 4.83681 94.8601 4.83681C96.0316 4.83681 97.0129 3.92744 97.0129 2.75599ZM69.3068-20.8138L120.511-20.8138C121.682-20.8138 122.591-21.7867 122.591-22.8057C122.591-23.9772 121.754-24.9585 120.511-24.9585L69.3068-24.9585C68.1269-24.9585 67.226-23.9772 67.226-22.8057C67.226-21.7867 68.1989-20.8138 69.3068-20.8138Z"/>
  </g>
  <g id="Ultralight-L" transform="matrix(1 0 0 1 480.736 1556)">
   <path d="M32.0058 0.700019L46.9814 0.700019L46.9814-1.87972L32.1666-1.87972C23.2346-1.87972 18.6637-6.45961 18.6637-15.3736L18.6637-78.4498C18.6637-87.3638 23.2346-91.9437 32.1666-91.9437L95.2248-91.9437C103.817-91.9437 108.728-87.3638 108.728-78.4498L108.728-69.8512L111.307-69.8512L111.307-78.5837C111.307-88.7827 105.745-94.5235 95.3857-94.5235L32.0058-94.5235C21.6505-94.5235 16.084-88.9525 16.084-78.5837L16.084-15.2398C16.084-4.87097 21.6505 0.700019 32.0058 0.700019ZM62.5654 24.3147L125.945 24.3147C136.305 24.3147 141.867 18.5739 141.867 8.37496L141.867-54.969C141.867-65.1679 136.305-70.9088 125.945-70.9088L62.5654-70.9088C52.2101-70.9088 46.6436-65.3378 46.6436-54.969L46.6436 8.37496C46.6436 18.7437 52.2101 24.3147 62.5654 24.3147ZM62.7262 21.735C53.7942 21.735 49.2233 17.1551 49.2233 8.24108L49.2233-54.8351C49.2233-63.7491 53.7942-68.329 62.7262-68.329L125.784-68.329C134.377-68.329 139.287-63.7491 139.287-54.8351L139.287 8.24108C139.287 17.1551 134.377 21.735 125.784 21.735ZM95.6166 2.65256L95.6166-49.327C95.6166-50.1393 94.9068-50.6793 94.1749-50.6793C93.6083-50.6793 92.894-50.0544 92.894-49.327L92.894 2.65256C92.894 3.29952 93.6083 4.00937 94.1749 4.00937C94.9068 4.00937 95.6166 3.38443 95.6166 2.65256ZM68.2208-22.0161L120.2-22.0161C120.932-22.0161 121.557-22.7305 121.557-23.297C121.557-24.0289 121.017-24.7387 120.2-24.7387L68.2208-24.7387C67.4934-24.7387 66.864-24.0289 66.864-23.297C66.864-22.7305 67.5784-22.0161 68.2208-22.0161Z"/>
  </g>
  <g id="Black-M" transform="matrix(1 0 0 1 2862.55 1126)">
   <path d="M31.6184-3.33711L47.6856-3.33711L47.6856-20.6751L34.2553-20.6751C31.2643-20.6751 29.7989-21.9011 29.7989-25.1424L29.7989-71.2157C29.7989-74.457 31.2643-75.6831 34.2553-75.6831L80.3505-75.6831C83.3426-75.6831 84.8069-74.457 84.8069-71.2157L84.8069-60.9871L102.145-60.9871L102.145-73.8855C102.145-85.9624 95.0747-93.021 82.9874-93.021L31.6184-93.021C19.5256-93.021 12.4609-85.9619 12.4609-73.8855L12.4609-22.4726C12.4609-10.3963 19.5256-3.33711 31.6184-3.33711ZM58.72 22.6238L110.089 22.6238C122.176 22.6238 129.246 15.5652 129.246 3.48827L129.246-47.9246C129.246-60.0016 122.176-67.0601 110.089-67.0601L58.72-67.0601C46.6271-67.0601 39.5625-60.001 39.5625-47.9246L39.5625 3.48827C39.5625 15.5646 46.6271 22.6238 58.72 22.6238ZM61.3568 5.28583C58.3659 5.28583 56.9004 4.05978 56.9004 0.818468L56.9004-45.2548C56.9004-48.4961 58.3659-49.7222 61.3568-49.7222L107.452-49.7222C110.444-49.7222 111.908-48.4961 111.908-45.2548L111.908 0.818468C111.908 4.05978 110.444 5.28583 107.452 5.28583ZM91.1483-6.49406L91.1483-37.9475C91.1483-41.6796 88.2403-44.474 84.3992-44.474C80.5631-44.474 77.6606-41.6799 77.6606-37.9475L77.6606-6.49406C77.6606-2.7669 80.5631 0.0269374 84.3992 0.0269374C88.2403 0.0269374 91.1483-2.76718 91.1483-6.49406ZM68.6806-15.4795L100.134-15.4795C103.861-15.4795 106.655-18.382 106.655-22.2182C106.655-26.0593 103.861-28.9673 100.134-28.9673L68.6806-28.9673C64.9482-28.9673 62.1596-26.0593 62.1596-22.2182C62.1596-18.382 64.948-15.4795 68.6806-15.4795Z"/>
  </g>
  <g id="Heavy-M" transform="matrix(1 0 0 1 2567.43 1126)">
   <path d="M30.7123-4.12493L45.9082-4.12493L45.9082-19.2245L32.7562-19.2245C29.3203-19.2245 27.5605-20.777 27.5605-24.4531L27.5605-71.1076C27.5605-74.7837 29.3203-76.3361 32.7562-76.3361L79.4765-76.3361C82.9033-76.3361 84.6722-74.7837 84.6722-71.1076L84.6722-60.7692L99.7718-60.7692L99.7718-73.2501C99.7718-84.85 93.1577-91.4358 81.5204-91.4358L30.7123-91.4358C19.0586-91.4358 12.4609-84.8545 12.4609-73.2501L12.4609-22.3106C12.4609-10.7062 19.0586-4.12493 30.7123-4.12493ZM57.0054 21.0436L107.813 21.0436C119.451 21.0436 126.065 14.4578 126.065 2.85792L126.065-48.0815C126.065-59.6814 119.451-66.2672 107.813-66.2672L57.0054-66.2672C45.3517-66.2672 38.754-59.686 38.754-48.0815L38.754 2.85792C38.754 14.4624 45.3517 21.0436 57.0054 21.0436ZM59.0493 5.94402C55.6134 5.94402 53.8536 4.39153 53.8536 0.715504L53.8536-45.9391C53.8536-49.6151 55.6134-51.1676 59.0493-51.1676L105.77-51.1676C109.196-51.1676 110.965-49.6151 110.965-45.9391L110.965 0.715504C110.965 4.39153 109.196 5.94402 105.77 5.94402ZM88.5276-6.24502L88.5276-38.9972C88.5276-42.4403 85.9023-44.9737 82.3907-44.9737C78.9001-44.9737 76.2913-42.438 76.2913-38.9972L76.2913-6.24502C76.2913-2.82294 78.9001-0.284923 82.3907-0.284923C85.9023-0.284923 88.5276-2.82067 88.5276-6.24502ZM66.0404-16.5123L98.7926-16.5123C102.217-16.5123 104.753-19.1212 104.753-22.6118C104.753-26.1234 102.219-28.7486 98.7926-28.7486L66.0404-28.7486C62.5996-28.7486 60.0803-26.1234 60.0803-22.6118C60.0803-19.1212 62.6019-16.5123 66.0404-16.5123Z"/>
  </g>
  <g id="Bold-M" transform="matrix(1 0 0 1 2272.49 1126)">
   <path d="M29.6986-5.00623L43.92-5.00623L43.92-17.6019L31.0794-17.6019C27.1457-17.6019 25.0566-19.5196 25.0566-23.6819L25.0566-70.9867C25.0566-75.1491 27.1457-77.0667 31.0794-77.0667L78.4987-77.0667C82.4118-77.0667 84.5214-75.1491 84.5214-70.9867L84.5214-60.5255L97.1171-60.5255L97.1171-72.5392C97.1171-83.6055 91.0132-89.6624 79.8794-89.6624L29.6986-89.6624C18.5362-89.6624 12.4609-83.6158 12.4609-72.5392L12.4609-22.1294C12.4609-11.0529 18.5362-5.00623 29.6986-5.00623ZM55.0873 19.276L105.268 19.276C116.402 19.276 122.506 13.2191 122.506 2.15279L122.506-48.257C122.506-59.3233 116.402-65.3802 105.268-65.3802L55.0873-65.3802C43.9249-65.3802 37.8496-59.3335 37.8496-48.257L37.8496 2.15279C37.8496 13.2294 43.9249 19.276 55.0873 19.276ZM56.468 6.6803C52.5344 6.6803 50.4453 4.76265 50.4453 0.600323L50.4453-46.7045C50.4453-50.8668 52.5344-52.7845 56.468-52.7845L103.887-52.7845C107.8-52.7845 109.91-50.8668 109.91-46.7045L109.91 0.600323C109.91 4.76265 107.8 6.6803 103.887 6.6803ZM85.5959-5.96643L85.5959-40.1715C85.5959-43.2912 83.287-45.5328 80.1439-45.5328C77.0398-45.5328 74.7595-43.2861 74.7595-40.1715L74.7595-5.96643C74.7595-2.88564 77.0398-0.633784 80.1439-0.633784C83.287-0.633784 85.5959-2.8805 85.5959-5.96643ZM63.0869-17.6676L97.292-17.6676C100.378-17.6676 102.625-19.948 102.625-23.0521C102.625-26.1951 100.383-28.5041 97.292-28.5041L63.0869-28.5041C59.9724-28.5041 57.7543-26.1951 57.7543-23.0521C57.7543-19.948 59.9775-17.6676 63.0869-17.6676Z"/>
  </g>
  <g id="Semibold-M" transform="matrix(1 0 0 1 1977.01 1126)">
   <path d="M28.9998-5.61379L42.5493-5.61379L42.5493-16.4833L29.9233-16.4833C25.6466-16.4833 23.3305-18.6527 23.3305-23.1503L23.3305-70.9034C23.3305-75.401 25.6466-77.5704 29.9233-77.5704L77.8246-77.5704C82.073-77.5704 84.4175-75.401 84.4175-70.9034L84.4175-60.3575L95.287-60.3575L95.287-72.0491C95.287-82.7476 89.5349-88.4399 78.7481-88.4399L28.9998-88.4399C18.1761-88.4399 12.4609-82.7618 12.4609-72.0491L12.4609-22.0045C12.4609-11.2919 18.1761-5.61379 28.9998-5.61379ZM53.765 18.0574L103.513 18.0574C114.3 18.0574 120.052 12.3651 120.052 1.66667L120.052-48.3779C120.052-59.0764 114.3-64.7687 103.513-64.7687L53.765-64.7687C42.9412-64.7687 37.2261-59.0906 37.2261-48.3779L37.2261 1.66667C37.2261 12.3793 42.9412 18.0574 53.765 18.0574ZM54.6885 7.18789C50.4118 7.18789 48.0956 5.01849 48.0956 0.520919L48.0956-47.2322C48.0956-51.7298 50.4118-53.8992 54.6885-53.8992L102.59-53.8992C106.838-53.8992 109.183-51.7298 109.183-47.2322L109.183 0.520919C109.183 5.01849 106.838 7.18789 102.59 7.18789ZM83.5748-5.77437L83.5748-40.981C83.5748-43.8778 81.484-45.9182 78.595-45.9182C75.7573-45.9182 73.7035-43.8707 73.7035-40.981L73.7035-5.77437C73.7035-2.92886 75.7573-0.874286 78.595-0.874286C81.484-0.874286 83.5748-2.92175 83.5748-5.77437ZM61.0508-18.4641L96.2575-18.4641C99.1101-18.4641 101.158-20.518 101.158-23.3556C101.158-26.2446 99.1172-28.3355 96.2575-28.3355L61.0508-28.3355C58.1611-28.3355 56.1507-26.2446 56.1507-23.3556C56.1507-20.518 58.1682-18.4641 61.0508-18.4641Z"/>
  </g>
  <g id="Medium-M" transform="matrix(1 0 0 1 1681.23 1126)">
   <path d="M28.47-6.07446L41.51-6.07446L41.51-15.6351L29.0468-15.6351C24.5098-15.6351 22.0216-17.9954 22.0216-22.7472L22.0216-70.8402C22.0216-75.592 24.5098-77.9522 29.0468-77.9522L77.3135-77.9522C81.8161-77.9522 84.3387-75.592 84.3387-70.8402L84.3387-60.2301L93.8994-60.2301L93.8994-71.6776C93.8994-82.0971 88.4139-87.5129 77.8903-87.5129L28.47-87.5129C17.903-87.5129 12.4609-82.1143 12.4609-71.6776L12.4609-21.9098C12.4609-11.4731 17.903-6.07446 28.47-6.07446ZM52.7624 17.1334L102.183 17.1334C112.706 17.1334 118.192 11.7176 118.192 1.29808L118.192-48.4697C118.192-58.8892 112.706-64.305 102.183-64.305L52.7624-64.305C42.1954-64.305 36.7534-58.9064 36.7534-48.4697L36.7534 1.29808C36.7534 11.7348 42.1954 17.1334 52.7624 17.1334ZM53.3392 7.57276C48.8023 7.57276 46.314 5.21249 46.314 0.460711L46.314-47.6323C46.314-52.3841 48.8023-54.7443 53.3392-54.7443L101.606-54.7443C106.108-54.7443 108.631-52.3841 108.631-47.6323L108.631 0.460711C108.631 5.21249 106.108 7.57276 101.606 7.57276ZM82.0424-5.62875L82.0424-41.5949C82.0424-44.3226 80.1168-46.2104 77.4206-46.2104C74.7849-46.2104 72.9028-44.314 72.9028-41.5949L72.9028-5.62875C72.9028-2.96163 74.7849-1.05665 77.4206-1.05665C80.1168-1.05665 82.0424-2.95303 82.0424-5.62875ZM59.5069-19.068L95.4731-19.068C98.1488-19.068 100.045-20.9501 100.045-23.5858C100.045-26.2821 98.1574-28.2076 95.4731-28.2076L59.5069-28.2076C56.7878-28.2076 54.9348-26.2821 54.9348-23.5858C54.9348-20.9501 56.7964-19.068 59.5069-19.068Z"/>
  </g>
  <g id="Regular-M" transform="matrix(1 0 0 1 1385.73 1126)">
   <path d="M27.7789-6.67535L40.1544-6.67535L40.1544-14.5288L27.9035-14.5288C23.0272-14.5288 20.3144-17.1381 20.3144-22.2214L20.3144-70.7578C20.3144-75.8411 23.0272-78.4503 27.9035-78.4503L76.6469-78.4503C81.481-78.4503 84.2359-75.8411 84.2359-70.7578L84.2359-60.0639L92.0894-60.0639L92.0894-71.1929C92.0894-81.2486 86.9518-86.3038 76.7715-86.3038L27.7789-86.3038C17.5468-86.3038 12.4609-81.2697 12.4609-71.1929L12.4609-21.7863C12.4609-11.7095 17.5468-6.67535 27.7789-6.67535ZM51.4547 15.9282L100.447 15.9282C110.628 15.9282 115.765 10.873 115.765 0.81731L115.765-48.5893C115.765-58.645 110.628-63.7002 100.447-63.7002L51.4547-63.7002C41.2226-63.7002 36.1367-58.6661 36.1367-48.5893L36.1367 0.81731C36.1367 10.8941 41.2226 15.9282 51.4547 15.9282ZM51.5793 8.07477C46.7029 8.07477 43.9902 5.46552 43.9902 0.382179L43.9902-48.1542C43.9902-53.2375 46.7029-55.8468 51.5793-55.8468L100.323-55.8468C105.157-55.8468 107.912-53.2375 107.912-48.1542L107.912 0.382179C107.912 5.46552 105.157 8.07477 100.323 8.07477ZM80.0435-5.4388L80.0435-42.3955C80.0435-44.9028 78.3336-46.5915 75.8886-46.5915C73.5165-46.5915 71.8584-44.8922 71.8584-42.3955L71.8584-5.4388C71.8584-3.00438 73.5165-1.2945 75.8886-1.2945C78.3336-1.2945 80.0435-2.99383 80.0435-5.4388ZM57.4932-19.8558L94.4499-19.8558C96.8949-19.8558 98.5942-21.5139 98.5942-23.886C98.5942-26.331 96.9054-28.0408 94.4499-28.0408L57.4932-28.0408C54.9965-28.0408 53.3489-26.331 53.3489-23.886C53.3489-21.5139 55.007-19.8558 57.4932-19.8558Z"/>
  </g>
  <g id="Light-M" transform="matrix(1 0 0 1 1089.93 1126)">
   <path d="M26.8549-6.89779L38.9909-6.89779L38.9909-12.9375L26.9795-12.9375C21.4701-12.9375 18.5006-15.8376 18.5006-21.4856L18.5006-70.1247C18.5006-75.7727 21.4701-78.6728 26.9795-78.6728L75.7571-78.6728C81.1559-78.6728 84.2359-75.7727 84.2359-70.1247L84.2359-60.6799L90.2756-60.6799L90.2756-70.4571C90.2756-79.8455 85.3947-84.7125 75.8817-84.7125L26.8549-84.7125C17.3073-84.7125 12.4609-79.9008 12.4609-70.4571L12.4609-21.1532C12.4609-11.7095 17.3073-6.89779 26.8549-6.89779ZM50.5307 14.3711L99.5575 14.3711C109.07 14.3711 113.951 9.50413 113.951 0.115761L113.951-49.1882C113.951-58.5766 109.07-63.4436 99.5575-63.4436L50.5307-63.4436C40.983-63.4436 36.1367-58.6319 36.1367-49.1882L36.1367 0.115761C36.1367 9.55946 40.983 14.3711 50.5307 14.3711ZM50.6553 8.33143C45.1458 8.33143 42.1764 5.4313 42.1764-0.216704L42.1764-48.8557C42.1764-54.5037 45.1458-57.4039 50.6553-57.4039L99.4329-57.4039C104.832-57.4039 107.912-54.5037 107.912-48.8557L107.912-0.216704C107.912 5.4313 104.832 8.33143 99.4329 8.33143ZM78.1955-5.57569L78.1955-43.559C78.1955-45.4846 76.845-46.7798 74.9818-46.7798C73.2085-46.7798 71.8926-45.4569 71.8926-43.559L71.8926-5.57569C71.8926-3.74015 73.2085-2.3896 74.9818-2.3896C76.845-2.3896 78.1955-3.71249 78.1955-5.57569ZM56.0559-21.4471L94.0392-21.4471C95.9024-21.4471 97.2253-22.763 97.2253-24.5362C97.2253-26.3994 95.9301-27.75 94.0392-27.75L56.0559-27.75C54.158-27.75 52.8698-26.3994 52.8698-24.5362C52.8698-22.763 54.1857-21.4471 56.0559-21.4471Z"/>
  </g>
  <g id="Thin-M" transform="matrix(1 0 0 1 794.415 1126)">
   <path d="M25.6328-7.19199L37.452-7.19199L37.452-10.8328L25.7574-10.8328C19.4107-10.8328 16.1018-14.1177 16.1018-20.5125L16.1018-69.2873C16.1018-75.6821 19.4107-78.967 25.7574-78.967L74.5803-78.967C80.7259-78.967 84.2359-75.6821 84.2359-69.2873L84.2359-61.4946L87.8768-61.4946L87.8768-69.484C87.8768-77.9898 83.3353-82.6078 74.7049-82.6078L25.6328-82.6078C16.9904-82.6078 12.4609-78.0904 12.4609-69.484L12.4609-20.3158C12.4609-11.7095 16.9904-7.19199 25.6328-7.19199ZM49.3086 12.3118L98.3807 12.3118C107.011 12.3118 111.553 7.69368 111.553-0.812093L111.553-49.9803C111.553-58.486 107.011-63.1041 98.3807-63.1041L49.3086-63.1041C40.6662-63.1041 36.1367-58.5866 36.1367-49.9803L36.1367-0.812093C36.1367 7.79427 40.6662 12.3118 49.3086 12.3118ZM49.4332 8.67089C43.0865 8.67089 39.7776 5.38604 39.7776-1.00878L39.7776-49.7836C39.7776-56.1784 43.0865-59.4632 49.4332-59.4632L98.2561-59.4632C104.402-59.4632 107.912-56.1784 107.912-49.7836L107.912-1.00878C107.912 5.38604 104.402 8.67089 98.2561 8.67089ZM75.7514-5.75674L75.7514-45.0979C75.7514-46.254 74.8761-47.0287 73.7823-47.0287C72.8012-47.0287 71.9379-46.2037 71.9379-45.0979L71.9379-5.75674C71.9379-4.71326 72.8012-3.83796 73.7823-3.83796C74.8761-3.83796 75.7514-4.66297 75.7514-5.75674ZM54.1549-23.5517L93.4961-23.5517C94.5899-23.5517 95.4149-24.415 95.4149-25.3962C95.4149-26.4899 94.6402-27.3652 93.4961-27.3652L54.1549-27.3652C53.0491-27.3652 52.2361-26.4899 52.2361-25.3962C52.2361-24.415 53.0994-23.5517 54.1549-23.5517Z"/>
  </g>
  <g id="Ultralight-M" transform="matrix(1 0 0 1 498.319 1126)">
   <path d="M25.0069-7.34267L36.6638-7.34267L36.6638-9.75486L25.1315-9.75486C18.3559-9.75486 14.8731-13.2368 14.8731-20.0141L14.8731-68.8584C14.8731-75.6358 18.3559-79.1177 25.1315-79.1177L73.9775-79.1177C80.5057-79.1177 84.2359-75.6358 84.2359-68.8584L84.2359-61.9119L86.6481-61.9119L86.6481-68.9856C86.6481-77.0393 82.2805-81.5299 74.1022-81.5299L25.0069-81.5299C16.8282-81.5299 12.4609-77.1631 12.4609-68.9856L12.4609-19.887C12.4609-11.7095 16.8282-7.34267 25.0069-7.34267ZM48.6827 11.2569L97.7779 11.2569C105.956 11.2569 110.324 6.76638 110.324-1.28734L110.324-50.386C110.324-58.4397 105.956-62.9302 97.7779-62.9302L48.6827-62.9302C40.5039-62.9302 36.1367-58.5634 36.1367-50.386L36.1367-1.28734C36.1367 6.89015 40.5039 11.2569 48.6827 11.2569ZM48.8073 8.84476C42.0317 8.84476 38.5489 5.36285 38.5489-1.41447L38.5489-50.2588C38.5489-57.0361 42.0317-60.5181 48.8073-60.5181L97.6533-60.5181C104.181-60.5181 107.912-57.0361 107.912-50.2588L107.912-1.41447C107.912 5.36285 104.181 8.84476 97.6533 8.84476ZM74.4996-5.84947L74.4996-45.8861C74.4996-46.6481 73.8677-47.1562 73.168-47.1562C72.5925-47.1562 71.9611-46.5862 71.9611-45.8861L71.9611-5.84947C71.9611-5.21169 72.5925-4.5798 73.168-4.5798C73.8677-4.5798 74.4996-5.14981 74.4996-5.84947ZM53.1812-24.6297L93.2179-24.6297C93.9176-24.6297 94.4876-25.2612 94.4876-25.8366C94.4876-26.5363 93.9795-27.1682 93.2179-27.1682L53.1812-27.1682C52.4812-27.1682 51.9116-26.5363 51.9116-25.8366C51.9116-25.2612 52.5431-24.6297 53.1812-24.6297Z"/>
  </g>
  <g id="Black-S" transform="matrix(1 0 0 1 2877.44 696)">
   <path d="M25-10.0098L37.8418-10.0098L37.8418-24.1699L27.2461-24.1699C25-24.1699 23.9258-25.0488 23.9258-27.4902L23.9258-63.4277C23.9258-65.8691 25-66.748 27.2461-66.748L63.1836-66.748C65.4297-66.748 66.5039-65.8691 66.5039-63.4277L66.5039-55.5176L80.6641-55.5176L80.6641-65.6738C80.6641-75.2441 75-80.9082 65.4297-80.9082L25-80.9082C15.4297-80.9082 9.76562-75.2441 9.76562-65.6738L9.76562-25.2441C9.76562-15.6738 15.4297-10.0098 25-10.0098ZM46.4844 10.498L86.9141 10.498C96.4844 10.498 102.148 4.83398 102.148-4.73633L102.148-45.166C102.148-54.7363 96.4844-60.4004 86.9141-60.4004L46.4844-60.4004C36.9141-60.4004 31.25-54.7363 31.25-45.166L31.25-4.73633C31.25 4.83398 36.9141 10.498 46.4844 10.498ZM48.7305-3.66211C46.4844-3.66211 45.4102-4.54102 45.4102-6.98242L45.4102-42.9199C45.4102-45.3613 46.4844-46.2402 48.7305-46.2402L84.668-46.2402C86.9141-46.2402 87.9883-45.3613 87.9883-42.9199L87.9883-6.98242C87.9883-4.54102 86.9141-3.66211 84.668-3.66211ZM72.1191-12.793L72.1191-37.1094C72.1191-40.0879 69.7754-42.334 66.6992-42.334C63.623-42.334 61.2793-40.0879 61.2793-37.1094L61.2793-12.793C61.2793-9.81445 63.623-7.56836 66.6992-7.56836C69.7754-7.56836 72.1191-9.81445 72.1191-12.793ZM54.541-19.5312L78.8574-19.5312C81.8359-19.5312 84.082-21.875 84.082-24.9512C84.082-28.0273 81.8359-30.3711 78.8574-30.3711L54.541-30.3711C51.5625-30.3711 49.3164-28.0273 49.3164-24.9512C49.3164-21.875 51.5625-19.5312 54.541-19.5312Z"/>
  </g>
  <g id="Heavy-S" transform="matrix(1 0 0 1 2581.98 696)">
   <path d="M24.3431-10.6551L36.4704-10.6551L36.4704-23.1327L26.0821-23.1327C23.5364-23.1327 22.2432-24.2536 22.2432-26.9947L22.2432-63.4162C22.2432-66.1573 23.5364-67.2782 26.0821-67.2782L62.5497-67.2782C65.0955-67.2782 66.3887-66.1573 66.3887-63.4162L66.3887-55.2525L78.8662-55.2525L78.8662-65.2244C78.8662-74.472 73.5594-79.7558 64.2888-79.7558L24.3431-79.7558C15.0609-79.7558 9.76562-74.472 9.76562-65.2244L9.76562-25.1865C9.76562-15.9389 15.0609-10.6551 24.3431-10.6551ZM45.136 9.3456L85.0817 9.3456C94.3523 9.3456 99.6592 4.06185 99.6592-5.18578L99.6592-45.2236C99.6592-54.4713 94.3523-59.755 85.0817-59.755L45.136-59.755C35.8538-59.755 30.5585-54.4713 30.5585-45.2236L30.5585-5.18578C30.5585 4.06185 35.8538 9.3456 45.136 9.3456ZM46.875-3.13198C44.3293-3.13198 43.0361-4.2529 43.0361-6.99395L43.0361-43.4155C43.0361-46.1565 44.3293-47.2774 46.875-47.2774L83.3427-47.2774C85.8884-47.2774 87.1816-46.1565 87.1816-43.4155L87.1816-6.99395C87.1816-4.2529 85.8884-3.13198 83.3427-3.13198ZM70.1139-12.5625L70.1139-37.8585C70.1139-40.6641 67.966-42.7373 65.0973-42.7373C62.2401-42.7373 60.1038-40.6641 60.1038-37.8585L60.1038-12.5625C60.1038-9.76836 62.2401-7.69513 65.0973-7.69513C67.966-7.69513 70.1139-9.76836 70.1139-12.5625ZM52.4666-20.2112L77.7626-20.2112C80.5567-20.2112 82.6299-22.3475 82.6299-25.2047C82.6299-28.0734 80.5567-30.2213 77.7626-30.2213L52.4666-30.2213C49.661-30.2213 47.5993-28.0734 47.5993-25.2047C47.5993-22.3475 49.661-20.2112 52.4666-20.2112Z"/>
  </g>
  <g id="Bold-S" transform="matrix(1 0 0 1 2286.66 696)">
   <path d="M23.6084-11.377L34.9365-11.377L34.9365-21.9727L24.7803-21.9727C21.8994-21.9727 20.3613-23.3643 20.3613-26.4404L20.3613-63.4033C20.3613-66.4795 21.8994-67.8711 24.7803-67.8711L61.8408-67.8711C64.7217-67.8711 66.2598-66.4795 66.2598-63.4033L66.2598-54.9561L76.8555-54.9561L76.8555-64.7217C76.8555-73.6084 71.9482-78.4668 63.0127-78.4668L23.6084-78.4668C14.6484-78.4668 9.76562-73.6084 9.76562-64.7217L9.76562-25.1221C9.76562-16.2354 14.6484-11.377 23.6084-11.377ZM43.6279 8.05664L83.0322 8.05664C91.9678 8.05664 96.875 3.19824 96.875-5.68848L96.875-45.2881C96.875-54.1748 91.9678-59.0332 83.0322-59.0332L43.6279-59.0332C34.668-59.0332 29.7852-54.1748 29.7852-45.2881L29.7852-5.68848C29.7852 3.19824 34.668 8.05664 43.6279 8.05664ZM44.7998-2.53906C41.9189-2.53906 40.3809-3.93066 40.3809-7.00684L40.3809-43.9697C40.3809-47.0459 41.9189-48.4375 44.7998-48.4375L81.8604-48.4375C84.7412-48.4375 86.2793-47.0459 86.2793-43.9697L86.2793-7.00684C86.2793-3.93066 84.7412-2.53906 81.8604-2.53906ZM67.8711-12.3047L67.8711-38.6963C67.8711-41.3086 65.9424-43.1885 63.3057-43.1885C60.6934-43.1885 58.7891-41.3086 58.7891-38.6963L58.7891-12.3047C58.7891-9.7168 60.6934-7.83691 63.3057-7.83691C65.9424-7.83691 67.8711-9.7168 67.8711-12.3047ZM50.1465-20.9717L76.5381-20.9717C79.126-20.9717 81.0059-22.876 81.0059-25.4883C81.0059-28.125 79.126-30.0537 76.5381-30.0537L50.1465-30.0537C47.5342-30.0537 45.6787-28.125 45.6787-25.4883C45.6787-22.876 47.5342-20.9717 50.1465-20.9717Z"/>
  </g>
  <g id="Semibold-S" transform="matrix(1 0 0 1 1990.91 696)">
   <path d="M23.1019-11.8746L33.879-11.8746L33.879-21.1729L23.8827-21.1729C20.7708-21.1729 19.0639-22.7511 19.0639-26.0583L19.0639-63.3944C19.0639-66.7017 20.7708-68.2799 23.8827-68.2799L61.3521-68.2799C64.464-68.2799 66.1709-66.7017 66.1709-63.3944L66.1709-54.7517L75.4691-54.7517L75.4691-64.3751C75.4691-73.013 70.8374-77.5781 62.1329-77.5781L23.1019-77.5781C14.3641-77.5781 9.76562-73.013 9.76562-64.3751L9.76562-25.0776C9.76562-16.4397 14.3641-11.8746 23.1019-11.8746ZM42.5882 7.16797L81.6192 7.16797C90.3237 7.16797 94.9555 2.60283 94.9555-6.03506L94.9555-45.3325C94.9555-53.9704 90.3237-58.5355 81.6192-58.5355L42.5882-58.5355C33.8504-58.5355 29.252-53.9704 29.252-45.3325L29.252-6.03506C29.252 2.60283 33.8504 7.16797 42.5882 7.16797ZM43.369-2.13027C40.2571-2.13027 38.5502-3.7085 38.5502-7.01572L38.5502-44.3519C38.5502-47.6591 40.2571-49.2373 43.369-49.2373L80.8384-49.2373C83.9503-49.2373 85.6572-47.6591 85.6572-44.3519L85.6572-7.01572C85.6572-3.7085 83.9503-2.13027 80.8384-2.13027ZM66.3248-12.127L66.3248-39.2739C66.3248-41.7529 64.5472-43.4995 62.0704-43.4995C59.627-43.4995 57.8826-41.7529 57.8826-39.2739L57.8826-12.127C57.8826-9.68125 59.627-7.93467 62.0704-7.93467C64.5472-7.93467 66.3248-9.68125 66.3248-12.127ZM48.5469-21.496L75.6938-21.496C78.1396-21.496 79.8861-23.2403 79.8861-25.6838C79.8861-28.1605 78.1396-29.9382 75.6938-29.9382L48.5469-29.9382C46.0679-29.9382 44.3546-28.1605 44.3546-25.6838C44.3546-23.2403 46.0679-21.496 48.5469-21.496Z"/>
  </g>
  <g id="Medium-S" transform="matrix(1 0 0 1 1694.92 696)">
   <path d="M22.7178-12.252L33.0771-12.252L33.0771-20.5664L23.2021-20.5664C19.915-20.5664 18.0801-22.2861 18.0801-25.7686L18.0801-63.3877C18.0801-66.8701 19.915-68.5898 23.2021-68.5898L60.9814-68.5898C64.2686-68.5898 66.1035-66.8701 66.1035-63.3877L66.1035-54.5967L74.418-54.5967L74.418-64.1123C74.418-72.5615 69.9951-76.9043 61.4658-76.9043L22.7178-76.9043C14.1484-76.9043 9.76562-72.5615 9.76562-64.1123L9.76562-25.0439C9.76562-16.5947 14.1484-12.252 22.7178-12.252ZM41.7998 6.49414L80.5479 6.49414C89.0771 6.49414 93.5 2.15137 93.5-6.29785L93.5-45.3662C93.5-53.8154 89.0771-58.1582 80.5479-58.1582L41.7998-58.1582C33.2305-58.1582 28.8477-53.8154 28.8477-45.3662L28.8477-6.29785C28.8477 2.15137 33.2305 6.49414 41.7998 6.49414ZM42.2842-1.82031C38.9971-1.82031 37.1621-3.54004 37.1621-7.02246L37.1621-44.6416C37.1621-48.124 38.9971-49.8438 42.2842-49.8438L80.0635-49.8438C83.3506-49.8438 85.1855-48.124 85.1855-44.6416L85.1855-7.02246C85.1855-3.54004 83.3506-1.82031 80.0635-1.82031ZM65.1523-11.9922L65.1523-39.7119C65.1523-42.0898 63.4893-43.7354 61.1338-43.7354C58.8184-43.7354 57.1953-42.0898 57.1953-39.7119L57.1953-11.9922C57.1953-9.6543 58.8184-8.00879 61.1338-8.00879C63.4893-8.00879 65.1523-9.6543 65.1523-11.9922ZM47.334-21.8936L75.0537-21.8936C77.3916-21.8936 79.0371-23.5166 79.0371-25.832C79.0371-28.1875 77.3916-29.8506 75.0537-29.8506L47.334-29.8506C44.9561-29.8506 43.3506-28.1875 43.3506-25.832C43.3506-23.5166 44.9561-21.8936 47.334-21.8936Z"/>
  </g>
  <g id="Regular-S" transform="matrix(1 0 0 1 1399.16 696)">
   <path d="M22.2168-12.7441L32.0312-12.7441L32.0312-19.7754L22.3145-19.7754C18.7988-19.7754 16.7969-21.6797 16.7969-25.3906L16.7969-63.3789C16.7969-67.0898 18.7988-68.9941 22.3145-68.9941L60.498-68.9941C64.0137-68.9941 66.0156-67.0898 66.0156-63.3789L66.0156-54.3945L73.0469-54.3945L73.0469-63.7695C73.0469-71.9727 68.8965-76.0254 60.5957-76.0254L22.2168-76.0254C13.8672-76.0254 9.76562-71.9727 9.76562-63.7695L9.76562-25C9.76562-16.7969 13.8672-12.7441 22.2168-12.7441ZM40.7715 5.61523L79.1504 5.61523C87.4512 5.61523 91.6016 1.5625 91.6016-6.64062L91.6016-45.4102C91.6016-53.6133 87.4512-57.666 79.1504-57.666L40.7715-57.666C32.4219-57.666 28.3203-53.6133 28.3203-45.4102L28.3203-6.64062C28.3203 1.5625 32.4219 5.61523 40.7715 5.61523ZM40.8691-1.41602C37.3535-1.41602 35.3516-3.32031 35.3516-7.03125L35.3516-45.0195C35.3516-48.7305 37.3535-50.6348 40.8691-50.6348L79.0527-50.6348C82.5684-50.6348 84.5703-48.7305 84.5703-45.0195L84.5703-7.03125C84.5703-3.32031 82.5684-1.41602 79.0527-1.41602ZM63.623-11.8164L63.623-40.2832C63.623-42.5293 62.1094-44.043 59.9121-44.043C57.7637-44.043 56.2988-42.5293 56.2988-40.2832L56.2988-11.8164C56.2988-9.61914 57.7637-8.10547 59.9121-8.10547C62.1094-8.10547 63.623-9.61914 63.623-11.8164ZM45.752-22.4121L74.2188-22.4121C76.416-22.4121 77.9297-23.877 77.9297-26.0254C77.9297-28.2227 76.416-29.7363 74.2188-29.7363L45.752-29.7363C43.5059-29.7363 42.041-28.2227 42.041-26.0254C42.041-23.877 43.5059-22.4121 45.752-22.4121Z"/>
  </g>
  <g id="Light-S" transform="matrix(1 0 0 1 1103.25 696)">
   <path d="M21.3994-12.9409L31.002-12.9409L31.002-18.3677L21.4971-18.3677C17.4214-18.3677 15.1924-20.5293 15.1924-24.7398L15.1924-62.8189C15.1924-67.0293 17.4214-69.1909 21.4971-69.1909L59.7109-69.1909C63.7261-69.1909 66.0156-67.0293 66.0156-62.8189L66.0156-54.9394L71.4424-54.9394L71.4424-63.1187C71.4424-70.7315 67.5191-74.6177 59.8086-74.6177L21.3994-74.6177C13.6553-74.6177 9.76562-70.7617 9.76562-63.1187L9.76562-24.4399C9.76562-16.7969 13.6553-12.9409 21.3994-12.9409ZM39.9541 4.2378L78.3633 4.2378C86.0737 4.2378 89.9971 0.351572 89.9971-7.26123L89.9971-45.9399C89.9971-53.5527 86.0737-57.439 78.3633-57.439L39.9541-57.439C32.21-57.439 28.3203-53.583 28.3203-45.9399L28.3203-7.26123C28.3203 0.381845 32.21 4.2378 39.9541 4.2378ZM40.0518-1.18897C35.9761-1.18897 33.7471-3.35059 33.7471-7.56103L33.7471-45.6401C33.7471-49.8506 35.9761-52.0122 40.0518-52.0122L78.2656-52.0122C82.2808-52.0122 84.5703-49.8506 84.5703-45.6401L84.5703-7.56103C84.5703-3.35059 82.2808-1.18897 78.2656-1.18897ZM61.9883-11.9375L61.9883-41.3125C61.9883-43.0439 60.7925-44.2095 59.1099-44.2095C57.4912-44.2095 56.3291-43.0288 56.3291-41.3125L56.3291-11.9375C56.3291-10.27 57.4912-9.07421 59.1099-9.07421C60.7925-9.07421 61.9883-10.2549 61.9883-11.9375ZM44.4805-23.8198L73.8555-23.8198C75.5381-23.8198 76.7188-24.9819 76.7188-26.6006C76.7188-28.2832 75.5532-29.479 73.8555-29.479L44.4805-29.479C42.7642-29.479 41.6172-28.2832 41.6172-26.6006C41.6172-24.9819 42.7793-23.8198 44.4805-23.8198Z"/>
  </g>
  <g id="Thin-S" transform="matrix(1 0 0 1 807.602 696)">
   <path d="M20.3184-13.2012L29.6406-13.2012L29.6406-16.5059L20.416-16.5059C15.5996-16.5059 13.0703-19.0078 13.0703-23.8789L13.0703-62.0781C13.0703-66.9492 15.5996-69.4512 20.416-69.4512L58.6699-69.4512C63.3457-69.4512 66.0156-66.9492 66.0156-62.0781L66.0156-55.6601L69.3203-55.6601L69.3203-62.2578C69.3203-69.0899 65.6973-72.7559 58.7676-72.7559L20.3184-72.7559C13.375-72.7559 9.76562-69.1602 9.76562-62.2578L9.76562-23.6992C9.76562-16.7969 13.375-13.2012 20.3184-13.2012ZM38.8731 2.41604L77.3223 2.41604C84.252 2.41604 87.875-1.24998 87.875-8.08202L87.875-46.6406C87.875-53.4727 84.252-57.1387 77.3223-57.1387L38.8731-57.1387C31.9297-57.1387 28.3203-53.543 28.3203-46.6406L28.3203-8.08202C28.3203-1.17967 31.9297 2.41604 38.8731 2.41604ZM38.9707-0.888676C34.1543-0.888676 31.625-3.39062 31.625-8.26171L31.625-46.4609C31.625-51.332 34.1543-53.834 38.9707-53.834L77.2246-53.834C81.9004-53.834 84.5703-51.332 84.5703-46.4609L84.5703-8.26171C84.5703-3.39062 81.9004-0.888676 77.2246-0.888676ZM59.8262-12.0977L59.8262-42.6738C59.8262-43.7246 59.0508-44.4297 58.0488-44.4297C57.1309-44.4297 56.3691-43.6894 56.3691-42.6738L56.3691-12.0977C56.3691-11.1308 57.1309-10.3555 58.0488-10.3555C59.0508-10.3555 59.8262-11.0957 59.8262-12.0977ZM42.7989-25.6816L73.375-25.6816C74.377-25.6816 75.1172-26.4433 75.1172-27.3613C75.1172-28.3633 74.4121-29.1387 73.375-29.1387L42.7989-29.1387C41.7832-29.1387 41.0566-28.3633 41.0566-27.3613C41.0566-26.4433 41.8184-25.6816 42.7989-25.6816Z"/>
  </g>
  <g id="Ultralight-S" transform="matrix(1 0 0 1 511.434 696)">
   <path d="M19.7647-13.3345L28.9434-13.3345L28.9434-15.5523L19.8623-15.5523C14.6665-15.5523 11.9834-18.2285 11.9834-23.438L11.9834-61.6987C11.9834-66.9082 14.6665-69.5845 19.8623-69.5845L58.1367-69.5845C63.1509-69.5845 66.0156-66.9082 66.0156-61.6987L66.0156-56.0293L68.2334-56.0293L68.2334-61.8169C68.2334-68.2491 64.7642-71.8023 58.2344-71.8023L19.7647-71.8023C13.2315-71.8023 9.76562-68.3399 9.76562-61.8169L9.76562-23.3198C9.76562-16.7969 13.2315-13.3345 19.7647-13.3345ZM38.3194 1.48294L76.7891 1.48294C83.3189 1.48294 86.7881-2.07028 86.7881-8.50243L86.7881-46.9995C86.7881-53.4316 83.3189-56.9849 76.7891-56.9849L38.3194-56.9849C31.7861-56.9849 28.3203-53.5225 28.3203-46.9995L28.3203-8.50243C28.3203-1.97946 31.7861 1.48294 38.3194 1.48294ZM38.417-0.734869C33.2212-0.734869 30.5381-3.41113 30.5381-8.62059L30.5381-46.8813C30.5381-52.0908 33.2212-54.7671 38.417-54.7671L76.6914-54.7671C81.7056-54.7671 84.5703-52.0908 84.5703-46.8813L84.5703-8.62059C84.5703-3.41113 81.7056-0.734869 76.6914-0.734869ZM58.7188-12.1797L58.7188-43.3711C58.7188-44.0732 58.1587-44.5425 57.5054-44.5425C56.9463-44.5425 56.3896-44.0278 56.3896-43.3711L56.3896-12.1797C56.3896-11.5718 56.9463-11.0117 57.5054-11.0117C58.1587-11.0117 58.7188-11.5264 58.7188-12.1797ZM41.9375-26.6352L73.1289-26.6352C73.7822-26.6352 74.2969-27.1919 74.2969-27.751C74.2969-28.4043 73.8277-28.9644 73.1289-28.9644L41.9375-28.9644C41.2808-28.9644 40.7695-28.4043 40.7695-27.751C40.7695-27.1919 41.3262-26.6352 41.9375-26.6352Z"/>
  </g>
 </g>
</svg>
