<?xml version="1.0" encoding="UTF-8"?>
<!--Generator: Apple Native CoreSVG 341-->
<!DOCTYPE svg
PUBLIC "-//W3C//DTD SVG 1.1//EN"
       "http://www.w3.org/Graphics/SVG/1.1/DTD/svg11.dtd">
<svg version="1.1" xmlns="http://www.w3.org/2000/svg" xmlns:xlink="http://www.w3.org/1999/xlink" viewBox="0 0 3300 2200">
 <g id="Notes">
  <rect height="2200" id="artboard" style="fill:white;opacity:1" width="3300" x="0" y="0"/>
  <line style="fill:none;stroke:black;opacity:1;stroke-width:0.5;" x1="263" x2="3036" y1="292" y2="292"/>
  <text style="stroke:none;fill:black;font-family:sans-serif;font-size:13;font-weight:bold;" transform="matrix(1 0 0 1 263 322)">Weight/Scale Variations</text>
  <text style="stroke:none;fill:black;font-family:sans-serif;font-size:13;text-anchor:middle;" transform="matrix(1 0 0 1 559.711 322)">Ultralight</text>
  <text style="stroke:none;fill:black;font-family:sans-serif;font-size:13;text-anchor:middle;" transform="matrix(1 0 0 1 856.422 322)">Thin</text>
  <text style="stroke:none;fill:black;font-family:sans-serif;font-size:13;text-anchor:middle;" transform="matrix(1 0 0 1 1153.13 322)">Light</text>
  <text style="stroke:none;fill:black;font-family:sans-serif;font-size:13;text-anchor:middle;" transform="matrix(1 0 0 1 1449.84 322)">Regular</text>
  <text style="stroke:none;fill:black;font-family:sans-serif;font-size:13;text-anchor:middle;" transform="matrix(1 0 0 1 1746.56 322)">Medium</text>
  <text style="stroke:none;fill:black;font-family:sans-serif;font-size:13;text-anchor:middle;" transform="matrix(1 0 0 1 2043.27 322)">Semibold</text>
  <text style="stroke:none;fill:black;font-family:sans-serif;font-size:13;text-anchor:middle;" transform="matrix(1 0 0 1 2339.98 322)">Bold</text>
  <text style="stroke:none;fill:black;font-family:sans-serif;font-size:13;text-anchor:middle;" transform="matrix(1 0 0 1 2636.69 322)">Heavy</text>
  <text style="stroke:none;fill:black;font-family:sans-serif;font-size:13;text-anchor:middle;" transform="matrix(1 0 0 1 2933.4 322)">Black</text>
  <line style="fill:none;stroke:black;opacity:1;stroke-width:0.5;" x1="263" x2="3036" y1="1903" y2="1903"/>
  <g transform="matrix(0.2 0 0 0.2 263 1933)">
   <path d="m46.2402 4.15039c21.7773 0 39.4531-17.627 39.4531-39.4043s-17.6758-39.4043-39.4531-39.4043c-21.7285 0-39.4043 17.627-39.4043 39.4043s17.6758 39.4043 39.4043 39.4043Zm0-7.42188c-17.6758 0-31.9336-14.3066-31.9336-31.9824s14.2578-31.9824 31.9336-31.9824 31.9824 14.3066 31.9824 31.9824-14.3066 31.9824-31.9824 31.9824Zm3.61328-17.7734v-28.4668c0-2.24609-1.46484-3.75977-3.71094-3.75977-2.14844 0-3.61328 1.51367-3.61328 3.75977v28.4668c0 2.19727 1.46484 3.71094 3.61328 3.71094 2.24609 0 3.71094-1.51367 3.71094-3.71094Zm-17.8223-10.5957h28.418c2.19727 0 3.71094-1.46484 3.71094-3.61328 0-2.19727-1.51367-3.71094-3.71094-3.71094h-28.418c-2.24609 0-3.75977 1.51367-3.75977 3.71094 0 2.14844 1.51367 3.61328 3.75977 3.61328Z"/>
  </g>
  <g transform="matrix(0.2 0 0 0.2 281.506 1933)">
   <path d="m58.5449 14.5508c27.4902 0 49.8047-22.3145 49.8047-49.8047s-22.3145-49.8047-49.8047-49.8047-49.8047 22.3145-49.8047 49.8047 22.3145 49.8047 49.8047 49.8047Zm0-8.30078c-22.9492 0-41.5039-18.5547-41.5039-41.5039s18.5547-41.5039 41.5039-41.5039 41.5039 18.5547 41.5039 41.5039-18.5547 41.5039-41.5039 41.5039Zm4.05273-23.0957v-36.9141c0-2.49023-1.70898-4.19922-4.15039-4.19922-2.39258 0-4.05273 1.70898-4.05273 4.19922v36.9141c0 2.44141 1.66016 4.15039 4.05273 4.15039 2.44141 0 4.15039-1.66016 4.15039-4.15039Zm-22.5586-14.4043h36.9629c2.44141 0 4.15039-1.61133 4.15039-4.00391 0-2.44141-1.70898-4.15039-4.15039-4.15039h-36.9629c-2.49023 0-4.15039 1.70898-4.15039 4.15039 0 2.39258 1.66016 4.00391 4.15039 4.00391Z"/>
  </g>
  <g transform="matrix(0.2 0 0 0.2 304.924 1933)">
   <path d="m74.8535 28.3203c35.1074 0 63.623-28.4668 63.623-63.5742s-28.5156-63.623-63.623-63.623-63.5742 28.5156-63.5742 63.623 28.4668 63.5742 63.5742 63.5742Zm0-9.08203c-30.127 0-54.4922-24.3652-54.4922-54.4922s24.3652-54.4922 54.4922-54.4922 54.4922 24.3652 54.4922 54.4922-24.3652 54.4922-54.4922 54.4922Zm4.44336-30.3223v-48.4863c0-2.73438-1.85547-4.63867-4.54102-4.63867-2.58789 0-4.44336 1.9043-4.44336 4.63867v48.4863c0 2.68555 1.85547 4.58984 4.44336 4.58984 2.68555 0 4.54102-1.85547 4.54102-4.58984Zm-28.7109-19.7754h48.4863c2.68555 0 4.58984-1.80664 4.58984-4.39453 0-2.73438-1.85547-4.58984-4.58984-4.58984h-48.4863c-2.73438 0-4.58984 1.85547-4.58984 4.58984 0 2.58789 1.85547 4.39453 4.58984 4.39453Z"/>
  </g>
  <text style="stroke:none;fill:black;font-family:sans-serif;font-size:13;font-weight:bold;" transform="matrix(1 0 0 1 263 1953)">Design Variations</text>
  <text style="stroke:none;fill:black;font-family:sans-serif;font-size:13;" transform="matrix(1 0 0 1 263 1971)">Symbols are supported in up to nine weights and three scales.</text>
  <text style="stroke:none;fill:black;font-family:sans-serif;font-size:13;" transform="matrix(1 0 0 1 263 1989)">For optimal layout with text and other symbols, vertically align</text>
  <text style="stroke:none;fill:black;font-family:sans-serif;font-size:13;" transform="matrix(1 0 0 1 263 2007)">symbols with the adjacent text.</text>
  <line style="fill:none;stroke:#00AEEF;stroke-width:0.5;opacity:1.0;" x1="776" x2="776" y1="1919" y2="1933"/>
  <g transform="matrix(0.2 0 0 0.2 776 1933)">
   <path d="m16.5527 0.78125c2.58789 0 3.85742-0.976562 4.78516-3.71094l20.5566-57.5195h0.244141l20.6055 57.5195c0.927734 2.73438 2.19727 3.71094 4.73633 3.71094 2.58789 0 4.24805-1.5625 4.24805-4.00391 0-0.830078-0.146484-1.61133-0.537109-2.63672l-22.9004-60.9863c-1.12305-2.97852-3.125-4.49219-6.25-4.49219-3.02734 0-5.07812 1.46484-6.15234 4.44336l-22.9004 61.084c-0.390625 1.02539-0.537109 1.80664-0.537109 2.63672 0 2.44141 1.5625 3.95508 4.10156 3.95508Zm10.2051-20.9473h30.6641c2.00195 0 3.66211-1.66016 3.66211-3.66211 0-2.05078-1.66016-3.66211-3.66211-3.66211h-30.6641c-2.00195 0-3.66211 1.61133-3.66211 3.66211 0 2.00195 1.66016 3.66211 3.66211 3.66211Z"/>
  </g>
  <line style="fill:none;stroke:#00AEEF;stroke-width:0.5;opacity:1.0;" x1="792.836" x2="792.836" y1="1919" y2="1933"/>
  <text style="stroke:none;fill:black;font-family:sans-serif;font-size:13;font-weight:bold;" transform="matrix(1 0 0 1 776 1953)">Margins</text>
  <text style="stroke:none;fill:black;font-family:sans-serif;font-size:13;" transform="matrix(1 0 0 1 776 1971)">Leading and trailing margins on the left and right side of each symbol</text>
  <text style="stroke:none;fill:black;font-family:sans-serif;font-size:13;" transform="matrix(1 0 0 1 776 1989)">can be adjusted by modifying the x-location of the margin guidelines.</text>
  <text style="stroke:none;fill:black;font-family:sans-serif;font-size:13;" transform="matrix(1 0 0 1 776 2007)">Modifications are automatically applied proportionally to all</text>
  <text style="stroke:none;fill:black;font-family:sans-serif;font-size:13;" transform="matrix(1 0 0 1 776 2025)">scales and weights.</text>
  <g transform="matrix(0.2 0 0 0.2 1289 1933)">
   <path d="m14.209 13.1348 7.86133 7.86133c4.29688 4.39453 9.32617 4.10156 13.8672-1.02539l60.6934-68.2129-4.88281-4.88281-60.2539 67.6758c-1.80664 1.95312-3.4668 2.44141-5.81055 0.0976562l-5.17578-5.12695c-2.29492-2.29492-1.80664-3.95508 0.195312-5.81055l67.4805-62.1582-4.88281-4.83398-68.0664 62.5977c-4.98047 4.58984-5.32227 9.47266-1.02539 13.8184Zm44.873-97.4609c-2.05078 2.00195-2.24609 4.88281-1.07422 6.78711 1.12305 1.80664 3.4668 3.02734 6.5918 2.24609 5.85938-1.66016 12.5977-2.39258 18.8965 0.927734l-2.68555 7.12891c-1.61133 4.00391-0.732422 6.88477 1.70898 9.42383l10.2539 10.3027c2.34375 2.39258 4.54102 2.44141 7.08008 1.95312l4.44336-0.732422 2.58789 2.53906-0.195312 2.24609c-0.0976562 2.29492 0.537109 4.29688 2.7832 6.49414l3.36914 3.32031c2.29492 2.29492 5.51758 2.49023 7.8125 0.195312l12.9883-13.0371c2.29492-2.34375 2.14844-5.37109-0.195312-7.66602l-3.41797-3.41797c-2.19727-2.19727-4.05273-3.02734-6.34766-2.88086l-2.34375 0.244141-2.44141-2.44141 1.02539-4.6875c0.634766-2.73438-0.244141-4.98047-2.88086-7.61719l-11.2793-11.1816c-12.9395-12.8418-35.5957-11.0352-46.6797-0.146484Zm7.08008 2.05078c8.78906-6.39648 25.9766-5.66406 33.6914 1.95312l12.3047 12.207c1.02539 1.02539 1.2207 1.80664 0.927734 3.32031l-1.46484 6.64062 6.73828 6.68945 4.39453-0.244141c1.12305-0.0488281 1.51367 0.0488281 2.34375 0.878906l2.53906 2.49023-10.8398 10.8398-2.49023-2.49023c-0.830078-0.878906-0.976562-1.2207-0.927734-2.39258l0.292969-4.3457-6.68945-6.73828-6.83594 1.17188c-1.41602 0.292969-2.05078 0.195312-3.17383-0.878906l-8.93555-8.88672c-1.07422-1.02539-1.17188-1.70898-0.488281-3.36914l4.58984-11.4746c-6.10352-6.34766-17.041-7.51953-25.5859-4.58984-0.683594 0.244141-0.927734-0.390625-0.390625-0.78125Z"/>
  </g>
  <text style="stroke:none;fill:black;font-family:sans-serif;font-size:13;font-weight:bold;" transform="matrix(1 0 0 1 1289 1953)">Exporting</text>
  <text style="stroke:none;fill:black;font-family:sans-serif;font-size:13;" transform="matrix(1 0 0 1 1289 1971)">Symbols should be outlined when exporting to ensure the</text>
  <text style="stroke:none;fill:black;font-family:sans-serif;font-size:13;" transform="matrix(1 0 0 1 1289 1989)">design is preserved when submitting to Xcode.</text>
  <text id="template-version" style="stroke:none;fill:black;font-family:sans-serif;font-size:13;text-anchor:end;" transform="matrix(1 0 0 1 3036 1933)">Template v.2.0</text>
  <text style="stroke:none;fill:black;font-family:sans-serif;font-size:13;text-anchor:end;" transform="matrix(1 0 0 1 3036 1951)">Requires Xcode 12 or greater</text>
  <text id="descriptive-name" style="stroke:none;fill:black;font-family:sans-serif;font-size:13;text-anchor:end;" transform="matrix(1 0 0 1 3036 1969)">Generated from checkmark.circle.fill</text>
  <text style="stroke:none;fill:black;font-family:sans-serif;font-size:13;text-anchor:end;" transform="matrix(1 0 0 1 3036 1987)">Typeset at 100.0 points</text>
  <text style="stroke:none;fill:black;font-family:sans-serif;font-size:13;" transform="matrix(1 0 0 1 263 726)">Small</text>
  <text style="stroke:none;fill:black;font-family:sans-serif;font-size:13;" transform="matrix(1 0 0 1 263 1156)">Medium</text>
  <text style="stroke:none;fill:black;font-family:sans-serif;font-size:13;" transform="matrix(1 0 0 1 263 1586)">Large</text>
 </g>
 <g id="Guides">
  <g id="H-reference" style="fill:#27AAE1;stroke:none;" transform="matrix(1 0 0 1 339 696)">
   <path d="M0.993654 0L3.63775 0L29.3281-67.1323L30.0303-67.1323L30.0303-70.459L28.1226-70.459ZM11.6885-24.4799L46.9815-24.4799L46.2315-26.7285L12.4385-26.7285ZM55.1196 0L57.7637 0L30.6382-70.459L29.4326-70.459L29.4326-67.1323Z"/>
  </g>
  <line id="Baseline-S" style="fill:none;stroke:#27AAE1;opacity:1;stroke-width:0.5;" x1="263" x2="3036" y1="696" y2="696"/>
  <line id="Capline-S" style="fill:none;stroke:#27AAE1;opacity:1;stroke-width:0.5;" x1="263" x2="3036" y1="625.541" y2="625.541"/>
  <g id="H-reference" style="fill:#27AAE1;stroke:none;" transform="matrix(1 0 0 1 339 1126)">
   <path d="M0.993654 0L3.63775 0L29.3281-67.1323L30.0303-67.1323L30.0303-70.459L28.1226-70.459ZM11.6885-24.4799L46.9815-24.4799L46.2315-26.7285L12.4385-26.7285ZM55.1196 0L57.7637 0L30.6382-70.459L29.4326-70.459L29.4326-67.1323Z"/>
  </g>
  <line id="Baseline-M" style="fill:none;stroke:#27AAE1;opacity:1;stroke-width:0.5;" x1="263" x2="3036" y1="1126" y2="1126"/>
  <line id="Capline-M" style="fill:none;stroke:#27AAE1;opacity:1;stroke-width:0.5;" x1="263" x2="3036" y1="1055.54" y2="1055.54"/>
  <g id="H-reference" style="fill:#27AAE1;stroke:none;" transform="matrix(1 0 0 1 339 1556)">
   <path d="M0.993654 0L3.63775 0L29.3281-67.1323L30.0303-67.1323L30.0303-70.459L28.1226-70.459ZM11.6885-24.4799L46.9815-24.4799L46.2315-26.7285L12.4385-26.7285ZM55.1196 0L57.7637 0L30.6382-70.459L29.4326-70.459L29.4326-67.1323Z"/>
  </g>
  <line id="Baseline-L" style="fill:none;stroke:#27AAE1;opacity:1;stroke-width:0.5;" x1="263" x2="3036" y1="1556" y2="1556"/>
  <line id="Capline-L" style="fill:none;stroke:#27AAE1;opacity:1;stroke-width:0.5;" x1="263" x2="3036" y1="1485.54" y2="1485.54"/>
  <line id="right-margin" style="fill:none;stroke:#00AEEF;stroke-width:0.5;opacity:1.0;" x1="1508.37" x2="1508.37" y1="1030.79" y2="1150.12"/>
  <line id="left-margin" style="fill:none;stroke:#00AEEF;stroke-width:0.5;opacity:1.0;" x1="1391.32" x2="1391.32" y1="1030.79" y2="1150.12"/>
 </g>
 <g id="Symbols">
  <g id="Black-L" transform="matrix(1 0 0 1 2854.19 1556)">
   <path d="M79.1958 32.6673C116.722 32.6673 147.154 2.23586 147.154-35.2697C147.154-72.7753 116.722-103.207 79.1958-103.207C41.6902-103.207 11.2588-72.7753 11.2588-35.2697C11.2588 2.23586 41.6902 32.6673 79.1958 32.6673ZM72.3-3.09705C69.0753-3.09705 66.5046-4.63538 64.304-7.23732L50.2087-23.8155C48.4523-25.8692 47.8357-27.5777 47.8357-29.695C47.8357-34.2412 51.5677-37.7997 56.074-37.7997C58.6482-37.7997 60.5903-36.7535 62.3964-34.6616L72.2156-23.0433L95.2357-59.4282C97.2101-62.5297 99.5079-64.1109 102.468-64.1109C106.934-64.1109 110.906-60.8137 110.906-56.2866C110.906-54.5806 110.324-52.6761 109.021-50.8376L80.0751-7.41254C78.2123-4.73662 75.3872-3.09705 72.3-3.09705Z" data-clipstroke-keyframes="0 0 0 1.2803586 1.1545446 0 0.20512165 1.3493353 1.0854279 0 0.3955564 1.3618586 1.9046917 0 1 1.5647115 1.7019985"/>
  </g>
  <g id="Heavy-L" transform="matrix(1 0 0 1 2558.42 1556)">
   <path d="M78.2532 31.7248C115.252 31.7248 145.278 1.69868 145.278-35.2697C145.278-72.2381 115.252-102.264 78.2532-102.264C41.2849-102.264 11.2588-72.2381 11.2588-35.2697C11.2588 1.69868 41.2849 31.7248 78.2532 31.7248ZM71.3382-3.44393C68.3942-3.44393 66.0497-4.80467 63.9976-7.28241L49.4167-24.6052C47.8561-26.4405 47.271-28.0596 47.271-29.991C47.271-34.1015 50.5976-37.329 54.6825-37.329C57.0438-37.329 58.8413-36.4013 60.5542-34.3466L71.2119-21.4691L95.2906-59.6289C97.051-62.4265 99.1678-63.8532 101.8-63.8532C105.83-63.8532 109.422-60.9207 109.422-56.8056C109.422-55.1978 108.811-53.4147 107.634-51.7389L78.4387-7.41628C76.7159-4.91528 74.1628-3.44393 71.3382-3.44393Z" data-clipstroke-keyframes="0 0 0 1.2710258 1.1557264 0 0.21466888 1.3470465 1.0803392 0 0.39183336 1.3605615 1.9121437 0 1 1.5742447 1.6989876"/>
  </g>
  <g id="Bold-L" transform="matrix(1 0 0 1 2262.89 1556)">
   <path d="M77.0704 30.5419C113.401 30.5419 142.92 1.02282 142.92-35.2697C142.92-71.5622 113.401-101.081 77.0704-101.081C40.7779-101.081 11.2588-71.5622 11.2588-35.2697C11.2588 1.02282 40.7779 30.5419 77.0704 30.5419ZM70.1472-3.86676C67.5788-3.86676 65.5409-5.00476 63.703-7.27664L48.4183-25.5663C47.1035-27.1251 46.5643-28.6067 46.5643-30.2927C46.5643-33.8355 49.3839-36.6258 52.909-36.6258C54.9867-36.6258 56.585-35.8442 58.1453-33.8951L69.982-19.4056L95.4938-59.8749C96.9855-62.2736 98.8571-63.5008 101.075-63.5008C104.537-63.5008 107.63-61.0215 107.63-57.4584C107.63-56.0033 107.01-54.3961 106.002-52.9426L76.3431-7.36425C74.8119-5.12316 72.6192-3.86676 70.1472-3.86676Z" data-clipstroke-keyframes="0 0 0 1.2584463 1.1573719 0 0.22710398 1.3439522 1.0731543 0 0.3867695 1.3587984 1.9219837 0 1 1.5870209 1.6947148"/>
  </g>
  <g id="Semibold-L" transform="matrix(1 0 0 1 1966.99 1556)">
   <path d="M76.2549 29.7265C112.125 29.7265 141.294 0.556883 141.294-35.2697C141.294-71.0963 112.125-100.266 76.2549-100.266C40.4284-100.266 11.2588-71.0963 11.2588-35.2697C11.2588 0.556883 40.4284 29.7265 76.2549 29.7265ZM69.3261-4.15825C67.0167-4.15825 65.1901-5.14269 63.4998-7.27267L47.73-26.2288C46.5846-27.597 46.0771-28.9838 46.0771-30.5007C46.0771-33.652 48.5472-36.141 51.6864-36.141C53.5685-36.141 55.0296-35.4601 56.4847-33.5839L69.1342-17.9831L95.634-60.0444C96.9403-62.1682 98.6428-63.2578 100.575-63.2578C103.645-63.2578 106.395-61.0911 106.395-57.9085C106.395-56.5586 105.769-55.0728 104.877-53.7724L74.8984-7.32839C73.4993-5.26648 71.555-4.15825 69.3261-4.15825Z" data-clipstroke-keyframes="0 0 0 1.2499442 1.1583533 0 0.23567665 1.3419772 1.0677816 0 0.3832785 1.3577342 1.9291128 0 1 1.5958316 1.692097"/>
  </g>
  <g id="Medium-L" transform="matrix(1 0 0 1 1670.9 1556)">
   <path d="M75.6366 29.1081C111.157 29.1081 140.062 0.203591 140.062-35.2697C140.062-70.743 111.157-99.6475 75.6366-99.6475C40.1633-99.6475 11.2588-70.743 11.2588-35.2697C11.2588 0.203591 40.1633 29.1081 75.6366 29.1081ZM68.7035-4.37928C66.5905-4.37928 64.9241-5.24728 63.3458-7.26965L47.2081-26.7311C46.1912-27.9549 45.7076-29.2698 45.7076-30.6584C45.7076-33.513 47.9128-35.7735 50.7594-35.7735C52.4932-35.7735 53.8502-35.1688 55.2256-33.3479L68.4913-16.9045L95.7402-60.173C96.906-62.0883 98.4803-63.0736 100.195-63.0736C102.97-63.0736 105.458-61.1438 105.458-58.2497C105.458-56.9797 104.828-55.5858 104.025-54.4016L73.803-7.30119C72.504-5.37514 70.7481-4.37928 68.7035-4.37928Z" data-clipstroke-keyframes="0 0 0 1.2439206 1.1594169 0 0.2421768 1.3411303 1.0636492 0 0.38063148 1.357614 1.9355102 0 1 1.6037233 1.6904902"/>
  </g>
  <g id="Regular-L" transform="matrix(1 0 0 1 1374.99 1556)">
   <path d="M74.8301 28.3017C109.895 28.3017 138.454-0.257224 138.454-35.2697C138.454-70.2822 109.895-98.8411 74.8301-98.8411C39.8177-98.8411 11.2588-70.2822 11.2588-35.2697C11.2588-0.257224 39.8177 28.3017 74.8301 28.3017ZM67.8915-4.66757C66.0346-4.66757 64.5772-5.3837 63.1449-7.26572L46.5274-27.3864C45.6781-28.4217 45.2258-29.6429 45.2258-30.8641C45.2258-33.3316 47.0853-35.294 49.5502-35.294C51.0906-35.294 52.3118-34.7889 53.5832-33.0401L67.6528-15.4976L95.8788-60.3407C96.8613-61.984 98.2684-62.8333 99.7007-62.8333C102.088-62.8333 104.236-61.2126 104.236-58.6949C104.236-57.529 103.6-56.255 102.912-55.2223L72.3742-7.26572C71.2058-5.51688 69.6956-4.66757 67.8915-4.66757Z" data-clipstroke-keyframes="0 0 0 1.2353207 1.1603854 0 0.25065526 1.3390797 1.057838 0 0.37717885 1.3564736 1.942861 0 1 1.6124411 1.6878706"/>
  </g>
  <g id="Light-L" transform="matrix(1 0 0 1 1079.2 1556)">
   <path d="M73.9141 27.3856C108.426 27.3856 136.603-0.791611 136.603-35.2697C136.603-69.7478 108.426-97.925 73.9141-97.925C39.436-97.925 11.2588-69.7478 11.2588-35.2697C11.2588-0.791611 39.436 27.3856 73.9141 27.3856ZM67.0708-4.91568C65.6529-4.91568 64.5772-5.46004 63.4885-6.86493L45.7259-27.9399C45.0674-28.7461 44.6914-29.7001 44.6914-30.6541C44.6914-32.5491 46.1692-34.0344 48.0043-34.0344C49.2202-34.0344 50.1742-33.6247 51.1021-32.334L66.8894-13.3409L96.8903-60.4934C97.6629-61.7168 98.7647-62.3753 99.8534-62.3753C101.668-62.3753 103.301-61.079 103.301-59.2102C103.301-58.3496 102.837-57.3619 102.339-56.6155L70.4848-6.86493C69.5644-5.57414 68.4551-4.91568 67.0708-4.91568Z" data-clipstroke-keyframes="0 0 0 1.2183199 1.1607621 0 0.26316988 1.3326633 1.0474815 0 0.37076777 1.3515553 1.9528913 0 1 1.6233301 1.6822131"/>
  </g>
  <g id="Thin-L" transform="matrix(1 0 0 1 783.716 1556)">
   <path d="M72.7024 26.174C106.482 26.174 134.155-1.49838 134.155-35.2697C134.155-69.041 106.482-96.7134 72.7024-96.7134C38.9311-96.7134 11.2588-69.041 11.2588-35.2697C11.2588-1.49838 38.9311 26.174 72.7024 26.174ZM65.9854-5.24382C65.148-5.24382 64.5772-5.56101 63.9428-6.33485L44.6657-28.6719C44.2597-29.1752 43.9846-29.7758 43.9846-30.3765C43.9846-31.5142 44.9576-32.3684 45.9597-32.3684C46.7465-32.3684 47.3471-32.085 47.8207-31.4L65.8797-10.4886L98.2281-60.6953C98.723-61.3634 99.4209-61.7695 100.055-61.7695C101.113-61.7695 102.064-60.9023 102.064-59.8917C102.064-59.435 101.827-58.826 101.582-58.4582L67.9858-6.33485C67.3936-5.64986 66.8144-5.24382 65.9854-5.24382Z" data-clipstroke-keyframes="0 0 0 1.1973673 1.1621431 0 0.2797215 1.3256171 1.0339123 0 0.3622886 1.346492 1.9670403 0 1 1.6387987 1.6749825"/>
  </g>
  <g id="Ultralight-L" transform="matrix(1 0 0 1 487.631 1556)">
   <path d="M72.0819 25.5534C105.487 25.5534 132.9-1.86039 132.9-35.2697C132.9-68.679 105.487-96.0928 72.0819-96.0928C38.6726-96.0928 11.2588-68.679 11.2588-35.2697C11.2588-1.86039 38.6726 25.5534 72.0819 25.5534ZM65.4295-5.41189C64.8894-5.41189 64.5772-5.61272 64.1755-6.06335L44.1227-29.0468C43.8459-29.395 43.6226-29.8146 43.6226-30.2342C43.6226-30.9841 44.337-31.5151 44.9125-31.5151C45.4795-31.5151 45.8991-31.2963 46.1399-30.9216L65.3625-9.02767L98.9134-60.7988C99.266-61.1824 99.7571-61.4592 100.159-61.4592C100.828-61.4592 101.431-60.8118 101.431-60.2408C101.431-59.991 101.31-59.5758 101.194-59.402L66.7059-6.06335C66.2818-5.68865 65.974-5.41189 65.4295-5.41189Z" data-clipstroke-keyframes="0 0 0 1.1861165 1.1630859 0 0.28819913 1.3217144 1.0265874 0 0.3579456 1.3436499 1.9745872 0 1 1.6469419 1.670661"/>
  </g>
  <g id="Black-M" transform="matrix(1 0 0 1 2871.36 1126)">
   <path d="M62.0422 18.0589C91.4941 18.0589 115.367-5.81424 115.367-35.2606C115.367-64.707 91.4941-88.5802 62.0422-88.5802C32.5958-88.5802 8.72266-64.707 8.72266-35.2606C8.72266-5.81424 32.5958 18.0589 62.0422 18.0589ZM56.7293-10.0706C54.0491-10.0706 51.9148-11.3918 50.129-13.4497L39.4708-25.7829C37.9677-27.5306 37.4733-28.8949 37.4733-30.6588C37.4733-34.4779 40.6613-37.4546 44.4294-37.4546C46.5628-37.4546 48.1554-36.5551 49.5883-34.9646L56.7076-26.8491L73.873-53.8254C75.5581-56.4326 77.4524-57.7644 79.9805-57.7644C83.7373-57.7644 87.0728-54.9407 87.0728-51.1671C87.0728-49.8023 86.6704-48.2613 85.5773-46.7359L63.188-13.621C61.6579-11.4596 59.2898-10.0706 56.7293-10.0706Z" data-clipstroke-keyframes="0 0 0 1.2875404 1.1534295 0 0.19671935 1.3505912 1.0895543 0 0.39856523 1.3622739 1.8980265 0 1 1.5559205 1.7043579"/>
  </g>
  <g id="Heavy-M" transform="matrix(1 0 0 1 2575.48 1126)">
   <path d="M61.2053 17.222C90.1923 17.222 113.704-6.29008 113.704-35.2606C113.704-64.2312 90.1923-87.7433 61.2053-87.7433C32.2348-87.7433 8.72266-64.2312 8.72266-35.2606C8.72266-6.29008 32.2348 17.222 61.2053 17.222ZM55.8648-10.3868C53.4185-10.3868 51.4702-11.5503 49.7977-13.5308L38.7705-26.5038C37.4412-28.0592 36.9705-29.3607 36.9705-30.9676C36.9705-34.4135 39.7975-37.1107 43.2117-37.1107C45.1668-37.1107 46.6428-36.3182 48.0162-34.7218L55.7969-25.5091L73.8333-54.0075C75.3286-56.3564 77.0742-57.5549 79.3138-57.5549C82.6974-57.5549 85.7078-55.0575 85.7078-51.6269C85.7078-50.33 85.261-48.8812 84.2744-47.4885L61.7626-13.6616C60.3466-11.629 58.2073-10.3868 55.8648-10.3868Z" data-clipstroke-keyframes="0 0 0 1.2781483 1.1547614 0 0.20727585 1.3487487 1.0842588 0 0.3946309 1.3614997 1.9062831 0 1 1.5668116 1.7013011"/>
  </g>
  <g id="Bold-M" transform="matrix(1 0 0 1 2279.69 1126)">
   <path d="M60.2692 16.2859C88.7361 16.2859 111.844-6.82236 111.844-35.2606C111.844-63.6989 88.7361-86.8071 60.2692-86.8071C31.8309-86.8071 8.72266-63.6989 8.72266-35.2606C8.72266-6.82236 31.8309 16.2859 60.2692 16.2859ZM54.8977-10.7406C52.7132-10.7406 50.9728-11.7275 49.4271-13.6215L37.9872-27.3103C36.8522-28.6505 36.4081-29.8818 36.4081-31.3129C36.4081-34.3415 38.8311-36.7259 41.8495-36.7259C43.6053-36.7259 44.9508-36.0533 46.2576-34.4501L54.778-24.0102L73.7889-54.2113C75.0719-56.2711 76.6512-57.3204 78.5679-57.3204C81.5342-57.3204 84.1809-55.1882 84.1809-52.1413C84.1809-50.9202 83.6845-49.5747 82.8169-48.3303L60.168-13.7071C58.8797-11.8184 56.9964-10.7406 54.8977-10.7406Z" data-clipstroke-keyframes="0 0 0 1.2667929 1.1565613 0 0.21908483 1.3461374 1.0780299 0 0.39022982 1.3601229 1.9156709 0 1 1.5790619 1.6972882"/>
  </g>
  <g id="Semibold-M" transform="matrix(1 0 0 1 1983.62 1126)">
   <path d="M59.6238 15.6405C87.7321 15.6405 110.562-7.18932 110.562-35.2606C110.562-63.332 87.7321-86.1618 59.6238-86.1618C31.5524-86.1618 8.72266-63.332 8.72266-35.2606C8.72266-7.18932 31.5524 15.6405 59.6238 15.6405ZM54.2309-10.9844C52.2269-10.9844 50.6298-11.8497 49.1716-13.684L37.4471-27.8663C36.4462-29.0581 36.0203-30.241 36.0203-31.551C36.0203-34.2918 38.165-36.4607 40.9104-36.4607C42.5288-36.4607 43.7843-35.8707 45.0453-34.2629L54.0757-22.9768L73.7583-54.3518C74.8949-56.2123 76.3595-57.1588 78.0537-57.1588C80.7322-57.1588 83.1283-55.2784 83.1283-52.4959C83.1283-51.3272 82.5977-50.0527 81.8121-48.9107L59.0687-13.7384C57.8684-11.949 56.1616-10.9844 54.2309-10.9844Z" data-clipstroke-keyframes="0 0 0 1.2594472 1.1576082 0 0.22722587 1.3447841 1.0733123 0 0.38719577 1.3596063 1.922492 0 1 1.5876849 1.695019"/>
  </g>
  <g id="Medium-M" transform="matrix(1 0 0 1 1687.4 1126)">
   <path d="M59.1344 15.1511C86.9709 15.1511 109.59-7.46756 109.59-35.2606C109.59-63.0537 86.9709-85.6724 59.1344-85.6724C31.3413-85.6724 8.72266-63.0537 8.72266-35.2606C8.72266-7.46756 31.3413 15.1511 59.1344 15.1511ZM53.7254-11.1693C51.8582-11.1693 50.3698-11.9423 48.9779-13.7314L37.0376-28.2879C36.1383-29.3671 35.7263-30.5134 35.7263-31.7316C35.7263-34.2541 37.6598-36.2596 40.1983-36.2596C41.7125-36.2596 42.8999-35.7322 44.126-34.1209L53.5431-22.1933L73.7352-54.4583C74.7607-56.1677 76.1384-57.0362 77.6639-57.0362C80.1241-57.0362 82.3301-55.3467 82.3301-52.7647C82.3301-51.6357 81.7736-50.4152 81.0503-49.3508L58.2352-13.7622C57.1016-12.0481 55.5287-11.1693 53.7254-11.1693Z" data-clipstroke-keyframes="0 0 0 1.2538382 1.1584127 0 0.23339875 1.3437603 1.069577 0 0.38489518 1.3592198 1.9277732 0 1 1.5942699 1.6933074"/>
  </g>
  <g id="Regular-M" transform="matrix(1 0 0 1 1391.32 1126)">
   <path d="M58.4961 14.5128C85.978 14.5128 108.321-7.83049 108.321-35.2606C108.321-62.6908 85.978-85.0341 58.4961-85.0341C31.0659-85.0341 8.72266-62.6908 8.72266-35.2606C8.72266-7.83049 31.0659 14.5128 58.4961 14.5128ZM53.066-11.4105C51.3773-11.4105 50.0307-12.0632 48.7253-13.7932L36.5035-28.8377C35.7368-29.7703 35.3429-30.8687 35.3429-31.967C35.3429-34.205 37.001-35.9973 39.2696-35.9973C40.6478-35.9973 41.7462-35.5516 42.927-33.9357L52.8485-21.1713L73.7049-54.5972C74.5857-56.1096 75.8499-56.8764 77.1553-56.8764C79.331-56.8764 81.2891-55.4358 81.2891-53.1154C81.2891-52.0382 80.6987-50.888 80.0565-49.9248L57.148-13.7932C56.1014-12.1773 54.703-11.4105 53.066-11.4105Z" data-clipstroke-keyframes="0 0 0 1.2464724 1.1594762 0 0.24145032 1.3424277 1.064498 0 0.38189444 1.3587224 1.9348038 0 1 1.6029189 1.6910868"/>
  </g>
  <g id="Light-M" transform="matrix(1 0 0 1 1095.44 1126)">
   <path d="M57.6748 13.6915C84.6605 13.6915 106.662-8.30959 106.662-35.2606C106.662-62.2117 84.6605-84.2128 57.6748-84.2128C30.7237-84.2128 8.72266-62.2117 8.72266-35.2606C8.72266-8.30959 30.7237 13.6915 57.6748 13.6915ZM52.3303-11.6329C51.035-11.6329 50.0307-12.1316 49.0333-13.4338L35.7849-29.3339C35.1892-30.0612 34.8637-30.92 34.8637-31.7788C34.8637-33.5035 36.1796-34.868 37.8836-34.868C38.971-34.868 39.8298-34.5078 40.7026-33.3026L52.164-19.2378L74.6118-54.7341C75.3044-55.8701 76.2948-56.4657 77.2922-56.4657C78.9545-56.4657 80.4506-55.316 80.4506-53.5774C80.4506-52.7739 80.0142-51.8805 79.5432-51.1739L55.454-13.4338C54.6299-12.2286 53.5908-11.6329 52.3303-11.6329Z" data-clipstroke-keyframes="0 0 0 1.2285995 1.1607305 0 0.25593257 1.3367467 1.0537984 0 0.37447536 1.3547585 1.947056 0 1 1.6172237 1.6856966"/>
  </g>
  <g id="Thin-M" transform="matrix(1 0 0 1 799.828 1126)">
   <path d="M56.5885 12.6052C82.9179 12.6052 104.466-8.94325 104.466-35.2606C104.466-61.578 82.9179-83.1265 56.5885-83.1265C30.2711-83.1265 8.72266-61.578 8.72266-35.2606C8.72266-8.94325 30.2711 12.6052 56.5885 12.6052ZM51.3571-11.9271C50.5824-11.9271 50.0307-12.2222 49.4406-12.9586L34.8344-29.9902C34.4651-30.4459 34.2301-30.9879 34.2301-31.5299C34.2301-32.5756 35.0934-33.3743 36.0505-33.3743C36.7532-33.3743 37.2952-33.1274 37.7606-32.4652L51.2588-16.6805L75.8112-54.9151C76.2549-55.5532 76.8832-55.9226 77.4732-55.9226C78.4566-55.9226 79.3417-55.1576 79.3417-54.1885C79.3417-53.7471 79.109-53.193 78.8643-52.8259L53.2136-12.9586C52.6836-12.2965 52.1198-11.9271 51.3571-11.9271Z" data-clipstroke-keyframes="0 0 0 1.2032577 1.1617484 0 0.27508652 1.3275985 1.0378181 0 0.36466303 1.3479135 1.9629914 0 1 1.6344473 1.6770601"/>
  </g>
  <g id="Ultralight-M" transform="matrix(1 0 0 1 503.679 1126)">
   <path d="M56.0321 12.0488C82.0254 12.0488 103.342-9.26781 103.342-35.2606C103.342-61.2535 82.0254-82.5701 56.0321-82.5701C30.0393-82.5701 8.72266-61.2535 8.72266-35.2606C8.72266-9.26781 30.0393 12.0488 56.0321 12.0488ZM50.8587-12.0778C50.3506-12.0778 50.0307-12.2685 49.6493-12.7152L34.3476-30.3264C34.0941-30.6429 33.9055-31.0227 33.9055-31.4024C33.9055-32.1004 34.537-32.6093 35.1116-32.6093C35.6172-32.6093 35.9969-32.4203 36.2537-32.0364L50.7952-15.3707L76.4255-55.0079C76.7417-55.391 77.1846-55.6444 77.566-55.6444C78.2016-55.6444 78.7737-55.0765 78.7737-54.5014C78.7737-54.2455 78.6453-53.8653 78.5165-53.6721L52.0661-12.7152C51.6868-12.3313 51.3664-12.0778 50.8587-12.0778Z" data-clipstroke-keyframes="0 0 0 1.1902341 1.1628555 0 0.28489706 1.3230773 1.029501 0 0.3596372 1.3446165 1.9715946 0 1 1.643876 1.6720815"/>
  </g>
  <g id="Black-S" transform="matrix(1 0 0 1 2884.57 696)">
   <path d="M48.8281 6.73828C72.0215 6.73828 90.8203-12.0605 90.8203-35.2539C90.8203-58.4473 72.0215-77.2461 48.8281-77.2461C25.6348-77.2461 6.83594-58.4473 6.83594-35.2539C6.83594-12.0605 25.6348 6.73828 48.8281 6.73828ZM44.6777-15.4297C42.5293-15.4297 40.8203-16.5039 39.4043-18.1152L31.1035-27.6367C29.8828-29.0527 29.4922-30.127 29.4922-31.543C29.4922-34.6191 32.0801-37.0117 35.1074-37.0117C36.8164-37.0117 38.0859-36.2793 39.209-35.0586L44.6777-28.9551L57.959-49.7559C59.3262-51.8555 60.8398-52.9297 62.8906-52.9297C65.918-52.9297 68.6035-50.6348 68.6035-47.6074C68.6035-46.5332 68.3105-45.3125 67.4316-44.0918L49.8535-18.2617C48.6328-16.5527 46.7285-15.4297 44.6777-15.4297Z" data-clipstroke-keyframes="0 0 0 1.2898452 1.1529855 0 0.19371502 1.3508663 1.0909232 0 0.3995347 1.3622577 1.8955774 0 1 1.5526872 1.7051454"/>
  </g>
  <g id="Heavy-S" transform="matrix(1 0 0 1 2588.47 696)">
   <path d="M48.2173 6.12748C71.0765 6.12748 89.6102-12.4063 89.6102-35.2539C89.6102-58.1015 71.0765-76.6353 48.2173-76.6353C25.3697-76.6353 6.83594-58.1015 6.83594-35.2539C6.83594-12.4063 25.3697 6.12748 48.2173 6.12748ZM44.0324-15.6717C42.0337-15.6717 40.44-16.6307 39.0816-18.2305L30.5964-28.1899C29.5025-29.4676 29.1234-30.5188 29.1234-31.8311C29.1234-34.6537 31.4462-36.8619 34.2431-36.8619C35.8368-36.8619 37.0372-36.2102 38.1487-34.9318L43.9863-28.0562L57.8092-49.8942C59.0381-51.8209 60.4595-52.8029 62.3029-52.8029C65.0767-52.8029 67.5433-50.75 67.5433-47.9416C67.5433-46.8905 67.1927-45.7159 66.3829-44.5758L48.8509-18.3424C47.6993-16.691 45.9449-15.6717 44.0324-15.6717Z" data-clipstroke-keyframes="0 0 0 1.2824945 1.1542865 0 0.20287386 1.3498238 1.086597 0 0.39645097 1.3621151 1.9029776 0 1 1.5624479 1.7026817"/>
  </g>
  <g id="Bold-S" transform="matrix(1 0 0 1 2292.43 696)">
   <path d="M47.5342 5.44434C70.0195 5.44434 88.2568-12.793 88.2568-35.2539C88.2568-57.7148 70.0195-75.9521 47.5342-75.9521C25.0732-75.9521 6.83594-57.7148 6.83594-35.2539C6.83594-12.793 25.0732 5.44434 47.5342 5.44434ZM43.3105-15.9424C41.4795-15.9424 40.0146-16.7725 38.7207-18.3594L30.0293-28.8086C29.0771-29.9316 28.7109-30.957 28.7109-32.1533C28.7109-34.6924 30.7373-36.6943 33.2764-36.6943C34.7412-36.6943 35.8643-36.1328 36.9629-34.79L43.2129-27.0508L57.6416-50.0488C58.7158-51.7822 60.0342-52.6611 61.6455-52.6611C64.1357-52.6611 66.3574-50.8789 66.3574-48.3154C66.3574-47.29 65.9424-46.167 65.21-45.1172L47.7295-18.4326C46.6553-16.8457 45.0684-15.9424 43.3105-15.9424Z" data-clipstroke-keyframes="0 0 0 1.2737995 1.1558021 0 0.21311761 1.3483552 1.0814637 0 0.39300197 1.3616682 1.9114175 0 1 1.5732751 1.6998086"/>
  </g>
  <g id="Semibold-S" transform="matrix(1 0 0 1 1996.19 696)">
   <path d="M47.0632 4.97334C69.2908 4.97334 87.3237-13.0596 87.3237-35.2539C87.3237-57.4482 69.2908-75.4812 47.0632-75.4812C24.8688-75.4812 6.83594-57.4482 6.83594-35.2539C6.83594-13.0596 24.8688 4.97334 47.0632 4.97334ZM42.8129-16.129C41.0974-16.129 39.7214-16.8702 38.4719-18.4482L29.6383-29.2352C28.7839-30.2516 28.4266-31.2592 28.4266-32.3755C28.4266-34.719 30.2485-36.5788 32.6099-36.5788C33.9858-36.5788 35.0556-36.0795 36.1453-34.6923L42.6797-26.3576L57.5261-50.1555C58.4937-51.7556 59.7409-52.5634 61.1923-52.5634C63.487-52.5634 65.5398-50.9678 65.5398-48.5731C65.5398-47.5655 65.0804-46.478 64.4013-45.4904L46.9563-18.4948C45.9354-16.9523 44.4641-16.129 42.8129-16.129Z" data-clipstroke-keyframes="0 0 0 1.2676966 1.1570778 0 0.22018015 1.3474035 1.0777988 0 0.39062405 1.3614416 1.9172778 0 1 1.5811281 1.6975095"/>
  </g>
  <g id="Medium-S" transform="matrix(1 0 0 1 1699.83 696)">
   <path d="M46.7061 4.61621C68.7383 4.61621 86.6162-13.2617 86.6162-35.2539C86.6162-57.2461 68.7383-75.124 46.7061-75.124C24.7139-75.124 6.83594-57.2461 6.83594-35.2539C6.83594-13.2617 24.7139 4.61621 46.7061 4.61621ZM42.4355-16.2705C40.8076-16.2705 39.499-16.9443 38.2832-18.5156L29.3418-29.5586C28.5615-30.4941 28.2109-31.4883 28.2109-32.5439C28.2109-34.7393 29.8779-36.4912 32.1045-36.4912C33.4131-36.4912 34.4424-36.0391 35.5254-34.6182L42.2754-25.832L57.4385-50.2363C58.3252-51.7354 59.5186-52.4893 60.8486-52.4893C62.9951-52.4893 64.9199-51.0352 64.9199-48.7686C64.9199-47.7744 64.4268-46.7139 63.7881-45.7734L46.3701-18.542C45.3896-17.0332 44.0059-16.2705 42.4355-16.2705Z" data-clipstroke-keyframes="0 0 0 1.2633259 1.1578571 0 0.22553527 1.3468821 1.0748028 0 0.388821 1.3614552 1.9219022 0 1 1.5870283 1.6961573"/>
  </g>
  <g id="Regular-S" transform="matrix(1 0 0 1 1403.58 696)">
   <path d="M46.2402 4.15039C68.0176 4.15039 85.6934-13.5254 85.6934-35.2539C85.6934-56.9824 68.0176-74.6582 46.2402-74.6582C24.5117-74.6582 6.83594-56.9824 6.83594-35.2539C6.83594-13.5254 24.5117 4.15039 46.2402 4.15039ZM41.9434-16.4551C40.4297-16.4551 39.209-17.041 38.0371-18.6035L28.9551-29.9805C28.2715-30.8105 27.9297-31.7871 27.9297-32.7637C27.9297-34.7656 29.3945-36.377 31.4453-36.377C32.666-36.377 33.6426-35.9863 34.7168-34.5215L41.748-25.1465L57.3242-50.3418C58.1055-51.709 59.2285-52.3926 60.4004-52.3926C62.3535-52.3926 64.1113-51.123 64.1113-49.0234C64.1113-48.0469 63.5742-47.0215 62.9883-46.1426L45.6055-18.6035C44.6777-17.1387 43.4082-16.4551 41.9434-16.4551Z" data-clipstroke-keyframes="0 0 0 1.257592 1.1588843 0 0.23252021 1.3462154 1.0707455 0 0.38646922 1.3614883 1.9280236 0 1 1.5947735 1.6944101"/>
  </g>
  <g id="Light-S" transform="matrix(1 0 0 1 1107.6 696)">
   <path d="M45.5137 3.42383C66.8521 3.42383 84.2251-13.9492 84.2251-35.2539C84.2251-56.5586 66.8521-73.9316 45.5137-73.9316C24.209-73.9316 6.83594-56.5586 6.83594-35.2539C6.83594-13.9492 24.209 3.42383 45.5137 3.42383ZM41.2925-16.6519C40.127-16.6519 39.209-17.1016 38.3096-18.2856L28.3193-30.4194C27.7871-31.0679 27.5059-31.8325 27.5059-32.5972C27.5059-34.145 28.668-35.3779 30.2192-35.3779C31.1826-35.3779 31.9473-35.063 32.749-33.9614L41.1426-23.436L58.1265-50.4629C58.7412-51.4971 59.6221-52.0293 60.5215-52.0293C62.0205-52.0293 63.3696-51.0171 63.3696-49.4321C63.3696-48.6977 62.9688-47.8994 62.5342-47.2475L44.1069-18.2856C43.376-17.1841 42.4243-16.6519 41.2925-16.6519Z" data-clipstroke-keyframes="0 0 0 1.2375917 1.1602705 0 0.24886732 1.3398684 1.0591825 0 0.3780948 1.357054 1.9414597 0 1 1.6108263 1.688595"/>
  </g>
  <g id="Thin-S" transform="matrix(1 0 0 1 811.863 696)">
   <path d="M44.5527 2.4629C65.3106 2.4629 82.2832-14.5098 82.2832-35.2539C82.2832-55.9981 65.3106-72.9707 44.5527-72.9707C23.8086-72.9707 6.83594-55.9981 6.83594-35.2539C6.83594-14.5098 23.8086 2.4629 44.5527 2.4629ZM40.4317-16.9121C39.7266-16.9121 39.209-17.1816 38.6699-17.8652L27.4785-31C27.1465-31.4082 26.9453-31.8926 26.9453-32.377C26.9453-33.3242 27.707-34.0567 28.5977-34.0567C29.2207-34.0567 29.7051-33.8418 30.1465-33.2207L40.3418-21.1739L59.1875-50.623C59.582-51.2168 60.1426-51.5488 60.6816-51.5488C61.5801-51.5488 62.3887-50.877 62.3887-49.9726C62.3887-49.5586 62.168-49.0605 61.9336-48.709L42.125-17.8652C41.6543-17.2441 41.1231-16.9121 40.4317-16.9121Z" data-clipstroke-keyframes="0 0 0 1.2090846 1.1613628 0 0.2704877 1.3295579 1.0416117 0 0.36701894 1.349321 1.9590408 0 1 1.6301446 1.679081"/>
  </g>
  <g id="Ultralight-S" transform="matrix(1 0 0 1 515.649 696)">
   <path d="M44.0606 1.97072C64.521 1.97072 81.2886-14.7969 81.2886-35.2539C81.2886-55.7109 64.521-72.4785 44.0606-72.4785C23.6035-72.4785 6.83594-55.7109 6.83594-35.2539C6.83594-14.7969 23.6035 1.97072 44.0606 1.97072ZM39.9907-17.0454C39.5215-17.0454 39.209-17.2227 38.8545-17.6499L27.0479-31.2974C26.8184-31.5825 26.6582-31.9233 26.6582-32.2642C26.6582-32.9038 27.2149-33.3799 27.7671-33.3799C28.2159-33.3799 28.5567-33.2163 28.8135-32.8413L39.9317-20.0152L59.7309-50.7051C60.0127-51.0732 60.4092-51.3027 60.7637-51.3027C61.3545-51.3027 61.8862-50.8052 61.8862-50.2495C61.8862-49.9995 61.7578-49.6553 61.626-49.4575L41.1099-17.6499C40.7725-17.2749 40.4566-17.0454 39.9907-17.0454Z" data-clipstroke-keyframes="0 0 0 1.195024 1.1623014 0 0.28156155 1.3248286 1.0323387 0 0.36134595 1.3459268 1.9686663 0 1 1.6405299 1.6741467"/>
  </g>
 </g>
</svg>
