<?xml version="1.0" encoding="UTF-8"?>
<!--Generator: Apple Native CoreSVG 341-->
<!DOCTYPE svg
PUBLIC "-//W3C//DTD SVG 1.1//EN"
       "http://www.w3.org/Graphics/SVG/1.1/DTD/svg11.dtd">
<svg version="1.1" xmlns="http://www.w3.org/2000/svg" xmlns:xlink="http://www.w3.org/1999/xlink" viewBox="0 0 3300 2200">
 <g id="Notes">
  <rect height="2200" id="artboard" style="fill:white;opacity:1" width="3300" x="0" y="0"/>
  <line style="fill:none;stroke:black;opacity:1;stroke-width:0.5;" x1="263" x2="3036" y1="292" y2="292"/>
  <text style="stroke:none;fill:black;font-family:sans-serif;font-size:13;font-weight:bold;" transform="matrix(1 0 0 1 263 322)">Weight/Scale Variations</text>
  <text style="stroke:none;fill:black;font-family:sans-serif;font-size:13;text-anchor:middle;" transform="matrix(1 0 0 1 559.711 322)">Ultralight</text>
  <text style="stroke:none;fill:black;font-family:sans-serif;font-size:13;text-anchor:middle;" transform="matrix(1 0 0 1 856.422 322)">Thin</text>
  <text style="stroke:none;fill:black;font-family:sans-serif;font-size:13;text-anchor:middle;" transform="matrix(1 0 0 1 1153.13 322)">Light</text>
  <text style="stroke:none;fill:black;font-family:sans-serif;font-size:13;text-anchor:middle;" transform="matrix(1 0 0 1 1449.84 322)">Regular</text>
  <text style="stroke:none;fill:black;font-family:sans-serif;font-size:13;text-anchor:middle;" transform="matrix(1 0 0 1 1746.56 322)">Medium</text>
  <text style="stroke:none;fill:black;font-family:sans-serif;font-size:13;text-anchor:middle;" transform="matrix(1 0 0 1 2043.27 322)">Semibold</text>
  <text style="stroke:none;fill:black;font-family:sans-serif;font-size:13;text-anchor:middle;" transform="matrix(1 0 0 1 2339.98 322)">Bold</text>
  <text style="stroke:none;fill:black;font-family:sans-serif;font-size:13;text-anchor:middle;" transform="matrix(1 0 0 1 2636.69 322)">Heavy</text>
  <text style="stroke:none;fill:black;font-family:sans-serif;font-size:13;text-anchor:middle;" transform="matrix(1 0 0 1 2933.4 322)">Black</text>
  <line style="fill:none;stroke:black;opacity:1;stroke-width:0.5;" x1="263" x2="3036" y1="1903" y2="1903"/>
  <g transform="matrix(0.2 0 0 0.2 263 1933)">
   <path d="m46.2402 4.15039c21.7773 0 39.4531-17.627 39.4531-39.4043s-17.6758-39.4043-39.4531-39.4043c-21.7285 0-39.4043 17.627-39.4043 39.4043s17.6758 39.4043 39.4043 39.4043Zm0-7.42188c-17.6758 0-31.9336-14.3066-31.9336-31.9824s14.2578-31.9824 31.9336-31.9824 31.9824 14.3066 31.9824 31.9824-14.3066 31.9824-31.9824 31.9824Zm3.61328-17.7734v-28.4668c0-2.24609-1.46484-3.75977-3.71094-3.75977-2.14844 0-3.61328 1.51367-3.61328 3.75977v28.4668c0 2.19727 1.46484 3.71094 3.61328 3.71094 2.24609 0 3.71094-1.51367 3.71094-3.71094Zm-17.8223-10.5957h28.418c2.19727 0 3.71094-1.46484 3.71094-3.61328 0-2.19727-1.51367-3.71094-3.71094-3.71094h-28.418c-2.24609 0-3.75977 1.51367-3.75977 3.71094 0 2.14844 1.51367 3.61328 3.75977 3.61328Z"/>
  </g>
  <g transform="matrix(0.2 0 0 0.2 281.506 1933)">
   <path d="m58.5449 14.5508c27.4902 0 49.8047-22.3145 49.8047-49.8047s-22.3145-49.8047-49.8047-49.8047-49.8047 22.3145-49.8047 49.8047 22.3145 49.8047 49.8047 49.8047Zm0-8.30078c-22.9492 0-41.5039-18.5547-41.5039-41.5039s18.5547-41.5039 41.5039-41.5039 41.5039 18.5547 41.5039 41.5039-18.5547 41.5039-41.5039 41.5039Zm4.05273-23.0957v-36.9141c0-2.49023-1.70898-4.19922-4.15039-4.19922-2.39258 0-4.05273 1.70898-4.05273 4.19922v36.9141c0 2.44141 1.66016 4.15039 4.05273 4.15039 2.44141 0 4.15039-1.66016 4.15039-4.15039Zm-22.5586-14.4043h36.9629c2.44141 0 4.15039-1.61133 4.15039-4.00391 0-2.44141-1.70898-4.15039-4.15039-4.15039h-36.9629c-2.49023 0-4.15039 1.70898-4.15039 4.15039 0 2.39258 1.66016 4.00391 4.15039 4.00391Z"/>
  </g>
  <g transform="matrix(0.2 0 0 0.2 304.924 1933)">
   <path d="m74.8535 28.3203c35.1074 0 63.623-28.4668 63.623-63.5742s-28.5156-63.623-63.623-63.623-63.5742 28.5156-63.5742 63.623 28.4668 63.5742 63.5742 63.5742Zm0-9.08203c-30.127 0-54.4922-24.3652-54.4922-54.4922s24.3652-54.4922 54.4922-54.4922 54.4922 24.3652 54.4922 54.4922-24.3652 54.4922-54.4922 54.4922Zm4.44336-30.3223v-48.4863c0-2.73438-1.85547-4.63867-4.54102-4.63867-2.58789 0-4.44336 1.9043-4.44336 4.63867v48.4863c0 2.68555 1.85547 4.58984 4.44336 4.58984 2.68555 0 4.54102-1.85547 4.54102-4.58984Zm-28.7109-19.7754h48.4863c2.68555 0 4.58984-1.80664 4.58984-4.39453 0-2.73438-1.85547-4.58984-4.58984-4.58984h-48.4863c-2.73438 0-4.58984 1.85547-4.58984 4.58984 0 2.58789 1.85547 4.39453 4.58984 4.39453Z"/>
  </g>
  <text style="stroke:none;fill:black;font-family:sans-serif;font-size:13;font-weight:bold;" transform="matrix(1 0 0 1 263 1953)">Design Variations</text>
  <text style="stroke:none;fill:black;font-family:sans-serif;font-size:13;" transform="matrix(1 0 0 1 263 1971)">Symbols are supported in up to nine weights and three scales.</text>
  <text style="stroke:none;fill:black;font-family:sans-serif;font-size:13;" transform="matrix(1 0 0 1 263 1989)">For optimal layout with text and other symbols, vertically align</text>
  <text style="stroke:none;fill:black;font-family:sans-serif;font-size:13;" transform="matrix(1 0 0 1 263 2007)">symbols with the adjacent text.</text>
  <line style="fill:none;stroke:#00AEEF;stroke-width:0.5;opacity:1.0;" x1="776" x2="776" y1="1919" y2="1933"/>
  <g transform="matrix(0.2 0 0 0.2 776 1933)">
   <path d="m16.5527 0.78125c2.58789 0 3.85742-0.976562 4.78516-3.71094l20.5566-57.5195h0.244141l20.6055 57.5195c0.927734 2.73438 2.19727 3.71094 4.73633 3.71094 2.58789 0 4.24805-1.5625 4.24805-4.00391 0-0.830078-0.146484-1.61133-0.537109-2.63672l-22.9004-60.9863c-1.12305-2.97852-3.125-4.49219-6.25-4.49219-3.02734 0-5.07812 1.46484-6.15234 4.44336l-22.9004 61.084c-0.390625 1.02539-0.537109 1.80664-0.537109 2.63672 0 2.44141 1.5625 3.95508 4.10156 3.95508Zm10.2051-20.9473h30.6641c2.00195 0 3.66211-1.66016 3.66211-3.66211 0-2.05078-1.66016-3.66211-3.66211-3.66211h-30.6641c-2.00195 0-3.66211 1.61133-3.66211 3.66211 0 2.00195 1.66016 3.66211 3.66211 3.66211Z"/>
  </g>
  <line style="fill:none;stroke:#00AEEF;stroke-width:0.5;opacity:1.0;" x1="792.836" x2="792.836" y1="1919" y2="1933"/>
  <text style="stroke:none;fill:black;font-family:sans-serif;font-size:13;font-weight:bold;" transform="matrix(1 0 0 1 776 1953)">Margins</text>
  <text style="stroke:none;fill:black;font-family:sans-serif;font-size:13;" transform="matrix(1 0 0 1 776 1971)">Leading and trailing margins on the left and right side of each symbol</text>
  <text style="stroke:none;fill:black;font-family:sans-serif;font-size:13;" transform="matrix(1 0 0 1 776 1989)">can be adjusted by modifying the x-location of the margin guidelines.</text>
  <text style="stroke:none;fill:black;font-family:sans-serif;font-size:13;" transform="matrix(1 0 0 1 776 2007)">Modifications are automatically applied proportionally to all</text>
  <text style="stroke:none;fill:black;font-family:sans-serif;font-size:13;" transform="matrix(1 0 0 1 776 2025)">scales and weights.</text>
  <g transform="matrix(0.2 0 0 0.2 1289 1933)">
   <path d="m14.209 13.1348 7.86133 7.86133c4.29688 4.39453 9.32617 4.10156 13.8672-1.02539l60.6934-68.2129-4.88281-4.88281-60.2539 67.6758c-1.80664 1.95312-3.4668 2.44141-5.81055 0.0976562l-5.17578-5.12695c-2.29492-2.29492-1.80664-3.95508 0.195312-5.81055l67.4805-62.1582-4.88281-4.83398-68.0664 62.5977c-4.98047 4.58984-5.32227 9.47266-1.02539 13.8184Zm44.873-97.4609c-2.05078 2.00195-2.24609 4.88281-1.07422 6.78711 1.12305 1.80664 3.4668 3.02734 6.5918 2.24609 5.85938-1.66016 12.5977-2.39258 18.8965 0.927734l-2.68555 7.12891c-1.61133 4.00391-0.732422 6.88477 1.70898 9.42383l10.2539 10.3027c2.34375 2.39258 4.54102 2.44141 7.08008 1.95312l4.44336-0.732422 2.58789 2.53906-0.195312 2.24609c-0.0976562 2.29492 0.537109 4.29688 2.7832 6.49414l3.36914 3.32031c2.29492 2.29492 5.51758 2.49023 7.8125 0.195312l12.9883-13.0371c2.29492-2.34375 2.14844-5.37109-0.195312-7.66602l-3.41797-3.41797c-2.19727-2.19727-4.05273-3.02734-6.34766-2.88086l-2.34375 0.244141-2.44141-2.44141 1.02539-4.6875c0.634766-2.73438-0.244141-4.98047-2.88086-7.61719l-11.2793-11.1816c-12.9395-12.8418-35.5957-11.0352-46.6797-0.146484Zm7.08008 2.05078c8.78906-6.39648 25.9766-5.66406 33.6914 1.95312l12.3047 12.207c1.02539 1.02539 1.2207 1.80664 0.927734 3.32031l-1.46484 6.64062 6.73828 6.68945 4.39453-0.244141c1.12305-0.0488281 1.51367 0.0488281 2.34375 0.878906l2.53906 2.49023-10.8398 10.8398-2.49023-2.49023c-0.830078-0.878906-0.976562-1.2207-0.927734-2.39258l0.292969-4.3457-6.68945-6.73828-6.83594 1.17188c-1.41602 0.292969-2.05078 0.195312-3.17383-0.878906l-8.93555-8.88672c-1.07422-1.02539-1.17188-1.70898-0.488281-3.36914l4.58984-11.4746c-6.10352-6.34766-17.041-7.51953-25.5859-4.58984-0.683594 0.244141-0.927734-0.390625-0.390625-0.78125Z"/>
  </g>
  <text style="stroke:none;fill:black;font-family:sans-serif;font-size:13;font-weight:bold;" transform="matrix(1 0 0 1 1289 1953)">Exporting</text>
  <text style="stroke:none;fill:black;font-family:sans-serif;font-size:13;" transform="matrix(1 0 0 1 1289 1971)">Symbols should be outlined when exporting to ensure the</text>
  <text style="stroke:none;fill:black;font-family:sans-serif;font-size:13;" transform="matrix(1 0 0 1 1289 1989)">design is preserved when submitting to Xcode.</text>
  <text id="template-version" style="stroke:none;fill:black;font-family:sans-serif;font-size:13;text-anchor:end;" transform="matrix(1 0 0 1 3036 1933)">Template v.2.0</text>
  <text style="stroke:none;fill:black;font-family:sans-serif;font-size:13;text-anchor:end;" transform="matrix(1 0 0 1 3036 1951)">Requires Xcode 12 or greater</text>
  <text id="descriptive-name" style="stroke:none;fill:black;font-family:sans-serif;font-size:13;text-anchor:end;" transform="matrix(1 0 0 1 3036 1969)">Generated from list.bullet.below.rectangle</text>
  <text style="stroke:none;fill:black;font-family:sans-serif;font-size:13;text-anchor:end;" transform="matrix(1 0 0 1 3036 1987)">Typeset at 100.0 points</text>
  <text style="stroke:none;fill:black;font-family:sans-serif;font-size:13;" transform="matrix(1 0 0 1 263 726)">Small</text>
  <text style="stroke:none;fill:black;font-family:sans-serif;font-size:13;" transform="matrix(1 0 0 1 263 1156)">Medium</text>
  <text style="stroke:none;fill:black;font-family:sans-serif;font-size:13;" transform="matrix(1 0 0 1 263 1586)">Large</text>
 </g>
 <g id="Guides">
  <g id="H-reference" style="fill:#27AAE1;stroke:none;" transform="matrix(1 0 0 1 339 696)">
   <path d="M0.993654 0L3.63775 0L29.3281-67.1323L30.0303-67.1323L30.0303-70.459L28.1226-70.459ZM11.6885-24.4799L46.9815-24.4799L46.2315-26.7285L12.4385-26.7285ZM55.1196 0L57.7637 0L30.6382-70.459L29.4326-70.459L29.4326-67.1323Z"/>
  </g>
  <line id="Baseline-S" style="fill:none;stroke:#27AAE1;opacity:1;stroke-width:0.5;" x1="263" x2="3036" y1="696" y2="696"/>
  <line id="Capline-S" style="fill:none;stroke:#27AAE1;opacity:1;stroke-width:0.5;" x1="263" x2="3036" y1="625.541" y2="625.541"/>
  <g id="H-reference" style="fill:#27AAE1;stroke:none;" transform="matrix(1 0 0 1 339 1126)">
   <path d="M0.993654 0L3.63775 0L29.3281-67.1323L30.0303-67.1323L30.0303-70.459L28.1226-70.459ZM11.6885-24.4799L46.9815-24.4799L46.2315-26.7285L12.4385-26.7285ZM55.1196 0L57.7637 0L30.6382-70.459L29.4326-70.459L29.4326-67.1323Z"/>
  </g>
  <line id="Baseline-M" style="fill:none;stroke:#27AAE1;opacity:1;stroke-width:0.5;" x1="263" x2="3036" y1="1126" y2="1126"/>
  <line id="Capline-M" style="fill:none;stroke:#27AAE1;opacity:1;stroke-width:0.5;" x1="263" x2="3036" y1="1055.54" y2="1055.54"/>
  <g id="H-reference" style="fill:#27AAE1;stroke:none;" transform="matrix(1 0 0 1 339 1556)">
   <path d="M0.993654 0L3.63775 0L29.3281-67.1323L30.0303-67.1323L30.0303-70.459L28.1226-70.459ZM11.6885-24.4799L46.9815-24.4799L46.2315-26.7285L12.4385-26.7285ZM55.1196 0L57.7637 0L30.6382-70.459L29.4326-70.459L29.4326-67.1323Z"/>
  </g>
  <line id="Baseline-L" style="fill:none;stroke:#27AAE1;opacity:1;stroke-width:0.5;" x1="263" x2="3036" y1="1556" y2="1556"/>
  <line id="Capline-L" style="fill:none;stroke:#27AAE1;opacity:1;stroke-width:0.5;" x1="263" x2="3036" y1="1485.54" y2="1485.54"/>
  <line id="right-margin" style="fill:none;stroke:#00AEEF;stroke-width:0.5;opacity:1.0;" x1="1509.02" x2="1509.02" y1="1030.79" y2="1150.12"/>
  <line id="left-margin" style="fill:none;stroke:#00AEEF;stroke-width:0.5;opacity:1.0;" x1="1390.66" x2="1390.66" y1="1030.79" y2="1150.12"/>
 </g>
 <g id="Symbols">
  <g id="Black-L" transform="matrix(1 0 0 1 2853.6 1556)">
   <path d="M36.47-8.16582C36.47-13.7858 32.3503-17.9663 26.7071-17.9663C21.3988-17.9663 16.9846-13.6106 16.9846-8.16582C16.9846-3.03149 21.3988 1.59427 26.7071 1.59427C31.9415 1.59427 36.47-3.03149 36.47-8.16582ZM36.47 17.3429C36.47 11.7217 32.3503 7.52038 26.7071 7.52038C21.3988 7.52038 16.9846 11.8969 16.9846 17.3429C16.9846 22.4773 21.3988 27.1226 26.7071 27.1226C31.9415 27.1226 36.47 22.4773 36.47 17.3429ZM139.928-8.16582C139.928-12.6317 136.311-15.9328 131.759-15.9328L50.5876-15.9328C46.0361-15.9328 42.5569-12.6317 42.5569-8.16582C42.5569-3.71959 46.0361-0.398807 50.5876-0.398807L131.759-0.398807C136.311-0.398807 139.928-3.71959 139.928-8.16582ZM139.928 17.3429C139.928 12.8759 136.311 9.55509 131.759 9.55509L50.5876 9.55509C46.0361 9.55509 42.5569 12.8759 42.5569 17.3429C42.5569 21.788 46.0361 25.1099 50.5876 25.1099L131.759 25.1099C136.311 25.1099 139.928 21.788 139.928 17.3429ZM37.4093-95.56C22.3768-95.56 16.084-88.3721 16.084-73.5478L16.084-48.5039C16.084-33.6784 22.3768-26.4904 37.4093-26.4904L122.217-26.4904C137.228-26.4904 143.522-33.6784 143.522-48.5039L143.522-73.5478C143.522-88.3721 137.228-95.56 122.217-95.56ZM36.065-48.0494L36.065-73.9439C36.065-76.9932 37.3984-78.5723 40.4673-78.5723L119.159-78.5723C122.208-78.5723 123.541-76.9932 123.541-73.9439L123.541-48.0494C123.541-45.0001 122.208-43.4573 119.159-43.4573L40.4673-43.4573C37.3984-43.4573 36.065-45.0001 36.065-48.0494Z" data-clipstroke-keyframes="0 0 0 2.4404051 2.5595999 0 1 2.9399662 2.0600388 0 0 3.4404309 3.5596747 0 1 3.9399922 3.0601134"/>
  </g>
  <g id="Heavy-L" transform="matrix(1 0 0 1 2557.77 1556)">
   <path d="M35.1334-8.06264C35.1334-13.2299 31.2833-17.1358 26.0747-17.1358C21.1551-17.1358 17.0707-13.096 17.0707-8.06264C17.0707-3.2713 21.1551 0.955792 26.0747 0.955792C30.971 0.955792 35.1334-3.2713 35.1334-8.06264ZM35.1334 17.2205C35.1334 12.0476 31.2833 8.11149 26.0747 8.11149C21.1551 8.11149 17.0707 12.1814 17.0707 17.2205C17.0707 22.0118 21.1551 26.2635 26.0747 26.2635C30.971 26.2635 35.1334 22.0118 35.1334 17.2205ZM138.513-8.06264C138.513-12.0927 135.241-15.0712 131.079-15.0712L48.9955-15.0712C44.8334-15.0712 41.6807-12.0927 41.6807-8.06264C41.6807-4.0571 44.8334-1.05403 48.9955-1.05403L131.079-1.05403C135.241-1.05403 138.513-4.0571 138.513-8.06264ZM138.513 17.2205C138.513 13.1847 135.241 10.1817 131.079 10.1817L48.9955 10.1817C44.8334 10.1817 41.6807 13.1847 41.6807 17.2205C41.6807 21.2204 44.8334 24.2291 48.9955 24.2291L131.079 24.2291C135.241 24.2291 138.513 21.2204 138.513 17.2205ZM36.463-94.8083C22.0059-94.8083 16.084-87.9931 16.084-73.8378L16.084-47.7539C16.084-33.593 22.0059-26.7777 36.463-26.7777L121.395-26.7777C135.822-26.7777 141.75-33.593 141.75-47.7539L141.75-73.8378C141.75-87.9931 135.822-94.8083 121.395-94.8083ZM33.5844-47.3353L33.5844-74.2118C33.5844-77.9108 35.09-79.7327 38.8136-79.7327L119.045-79.7327C122.744-79.7327 124.249-77.9108 124.249-74.2118L124.249-47.3353C124.249-43.6363 122.744-41.8232 119.045-41.8232L38.8136-41.8232C35.09-41.8232 33.5844-43.6363 33.5844-47.3353Z" data-clipstroke-keyframes="0 0 0 2.4456944 2.5542517 0 1 2.9445271 2.0554192 0 0 3.4457932 3.5544238 0 1 3.9446259 3.055591"/>
  </g>
  <g id="Bold-L" transform="matrix(1 0 0 1 2262.2 1556)">
   <path d="M33.5632-7.90974C33.5632-12.5384 30.0362-16.1211 25.3431-16.1211C20.8851-16.1211 17.1857-12.4508 17.1857-7.90974C17.1857-3.52618 20.8851 0.238886 25.3431 0.238886C29.8318 0.238886 33.5632-3.52618 33.5632-7.90974ZM33.5632 17.0594C33.5632 12.4175 30.0362 8.79681 25.3431 8.79681C20.8851 8.79681 17.1857 12.5051 17.1857 17.0594C17.1857 21.443 20.8851 25.2328 25.3431 25.2328C29.8318 25.2328 33.5632 21.443 33.5632 17.0594ZM136.709-7.90974C136.709-11.3721 133.89-13.9361 130.249-13.9361L47.0432-13.9361C43.4024-13.9361 40.6792-11.3721 40.6792-7.90974C40.6792-4.47213 43.4024-1.88334 47.0432-1.88334L130.249-1.88334C133.89-1.88334 136.709-4.47213 136.709-7.90974ZM136.709 17.0594C136.709 13.5838 133.89 10.995 130.249 10.995L47.0432 10.995C43.4024 10.995 40.6792 13.5838 40.6792 17.0594C40.6792 20.4838 43.4024 23.0858 47.0432 23.0858L130.249 23.0858C133.89 23.0858 136.709 20.4838 136.709 17.0594ZM35.3322-93.8711C21.6417-93.8711 16.084-87.4647 16.084-74.1541L16.084-46.8614C16.084-33.5376 21.6417-27.1313 35.3322-27.1313L120.254-27.1313C133.907-27.1313 139.478-33.5376 139.478-46.8614L139.478-74.1541C139.478-87.4647 133.907-93.8711 120.254-93.8711ZM30.5257-46.4963L30.5257-74.4901C30.5257-79.0256 32.3284-81.1994 36.8887-81.1994L118.698-81.1994C123.233-81.1994 125.036-79.0256 125.036-74.4901L125.036-46.4963C125.036-41.9607 123.233-39.7649 118.698-39.7649L36.8887-39.7649C32.3284-39.7649 30.5257-41.9607 30.5257-46.4963Z" data-clipstroke-keyframes="0 0 0 2.4517312 2.5480967 0 1 2.951414 2.0484138 0 0 3.4519567 3.54842 0 1 3.9516401 3.0487366"/>
  </g>
  <g id="Semibold-L" transform="matrix(1 0 0 1 1966.27 1556)">
   <path d="M32.4807-7.80433C32.4807-12.0618 29.1765-15.4216 24.8387-15.4216C20.699-15.4216 17.2649-12.006 17.2649-7.80433C17.2649-3.70189 20.699-0.255345 24.8387-0.255345C29.0465-0.255345 32.4807-3.70189 32.4807-7.80433ZM32.4807 16.9484C32.4807 12.6724 29.1765 9.26928 24.8387 9.26928C20.699 9.26928 17.2649 12.7282 17.2649 16.9484C17.2649 21.0508 20.699 24.5222 24.8387 24.5222C29.0465 24.5222 32.4807 21.0508 32.4807 16.9484ZM135.466-7.80433C135.466-10.8753 132.958-13.1536 129.677-13.1536L45.6972-13.1536C42.4158-13.1536 39.9888-10.8753 39.9888-7.80433C39.9888-4.75825 42.4158-2.45507 45.6972-2.45507L129.677-2.45507C132.958-2.45507 135.466-4.75825 135.466-7.80433ZM135.466 16.9484C135.466 13.8589 132.958 11.5557 129.677 11.5557L45.6972 11.5557C42.4158 11.5557 39.9888 13.8589 39.9888 16.9484C39.9888 19.976 42.4158 22.2976 45.6972 22.2976L129.677 22.2976C132.958 22.2976 135.466 19.976 135.466 16.9484ZM34.5526-93.2249C21.3907-93.2249 16.084-87.1005 16.084-74.3722L16.084-46.2462C16.084-33.4995 21.3907-27.375 34.5526-27.375L119.468-27.375C132.586-27.375 137.911-33.4995 137.911-46.2462L137.911-74.3722C137.911-87.1005 132.586-93.2249 119.468-93.2249ZM28.4171-45.9179L28.4171-74.6819C28.4171-79.7942 30.4246-82.2106 35.5618-82.2106L118.458-82.2106C123.571-82.2106 125.578-79.7942 125.578-74.6819L125.578-45.9179C125.578-40.8056 123.571-38.346 118.458-38.346L35.5618-38.346C30.4246-38.346 28.4171-40.8056 28.4171-45.9179Z" data-clipstroke-keyframes="0 0 0 2.456081 2.543662 0 1 2.955812 2.0439312 0 0 3.456399 3.544095 0 1 3.9561303 3.0443635"/>
  </g>
  <g id="Medium-L" transform="matrix(1 0 0 1 1670.15 1556)">
   <path d="M31.66-7.7244C31.66-11.7003 28.5246-14.8911 24.4563-14.8911C20.5579-14.8911 17.3251-11.6688 17.3251-7.7244C17.3251-3.83513 20.5579-0.630092 24.4563-0.630092C28.451-0.630092 31.66-3.83513 31.66-7.7244ZM31.66 16.8642C31.66 12.8658 28.5246 9.62751 24.4563 9.62751C20.5579 9.62751 17.3251 12.8973 17.3251 16.8642C17.3251 20.7534 20.5579 23.9835 24.4563 23.9835C28.451 23.9835 31.66 20.7534 31.66 16.8642ZM134.523-7.7244C134.523-10.4986 132.252-12.5602 129.243-12.5602L44.6767-12.5602C41.6678-12.5602 39.4653-10.4986 39.4653-7.7244C39.4653-4.97519 41.6678-2.88857 44.6767-2.88857L129.243-2.88857C132.252-2.88857 134.523-4.97519 134.523-7.7244ZM134.523 16.8642C134.523 14.0675 132.252 11.9809 129.243 11.9809L44.6767 11.9809C41.6678 11.9809 39.4653 14.0675 39.4653 16.8642C39.4653 19.5909 41.6678 21.7 44.6767 21.7L129.243 21.7C132.252 21.7 134.523 19.5909 134.523 16.8642ZM33.9615-92.735C21.2004-92.735 16.084-86.8243 16.084-74.5376L16.084-45.7797C16.084-33.4705 21.2004-27.5598 33.9615-27.5598L118.871-27.5598C131.585-27.5598 136.724-33.4705 136.724-45.7797L136.724-74.5376C136.724-86.8243 131.585-92.735 118.871-92.735ZM26.8183-45.4794L26.8183-74.8274C26.8183-80.377 28.9811-82.9773 34.5556-82.9773L118.277-82.9773C123.827-82.9773 125.989-80.377 125.989-74.8274L125.989-45.4794C125.989-39.9298 123.827-37.2701 118.277-37.2701L34.5556-37.2701C28.9811-37.2701 26.8183-39.9298 26.8183-45.4794Z" data-clipstroke-keyframes="0 0 0 2.4594522 2.540224 0 1 2.9592204 2.040456 0 0 3.4598424 3.540743 0 1 3.959611 3.0409746"/>
  </g>
  <g id="Regular-L" transform="matrix(1 0 0 1 1374.22 1556)">
   <path d="M30.5894-7.62016C30.5894-11.2289 27.6743-14.1993 23.9575-14.1993C20.3739-14.1993 17.4035-11.2289 17.4035-7.62016C17.4035-4.00891 20.3739-1.11889 23.9575-1.11889C27.6743-1.11889 30.5894-4.00891 30.5894-7.62016ZM30.5894 16.7543C30.5894 13.118 27.6743 10.0948 23.9575 10.0948C20.3739 10.0948 17.4035 13.118 17.4035 16.7543C17.4035 20.3656 20.3739 23.2807 23.9575 23.2807C27.6743 23.2807 30.5894 20.3656 30.5894 16.7543ZM133.292-7.62016C133.292-10.0073 131.33-11.7863 128.677-11.7863L43.3455-11.7863C40.6921-11.7863 38.7824-10.0073 38.7824-7.62016C38.7824-5.25817 40.6921-3.45401 43.3455-3.45401L128.677-3.45401C131.33-3.45401 133.292-5.25817 133.292-7.62016ZM133.292 16.7543C133.292 14.3396 131.33 12.5354 128.677 12.5354L43.3455 12.5354C40.6921 12.5354 38.7824 14.3396 38.7824 16.7543C38.7824 19.0887 40.6921 20.9205 43.3455 20.9205L128.677 20.9205C131.33 20.9205 133.292 19.0887 133.292 16.7543ZM33.1905-92.096C20.9521-92.096 16.084-86.464 16.084-74.7533L16.084-45.1712C16.084-33.4328 20.9521-27.8008 33.1905-27.8008L118.093-27.8008C130.279-27.8008 135.175-33.4328 135.175-45.1712L135.175-74.7533C135.175-86.464 130.279-92.096 118.093-92.096ZM24.7328-44.9073L24.7328-75.0171C24.7328-81.1371 27.0982-83.9773 33.2432-83.9773L118.04-83.9773C124.16-83.9773 126.526-81.1371 126.526-75.0171L126.526-44.9073C126.526-38.7874 124.16-35.8668 118.04-35.8668L33.2432-35.8668C27.0982-35.8668 24.7328-38.7874 24.7328-44.9073Z" data-clipstroke-keyframes="0 0 0 2.4639473 2.5356386 0 1 2.9637651 2.035821 0 0 3.464435 3.5362742 0 1 3.9642534 3.0364556"/>
  </g>
  <g id="Light-L" transform="matrix(1 0 0 1 1078.53 1556)">
   <path d="M30.055-7.35296C30.055-10.7326 27.2926-13.5886 23.7857-13.5886C20.393-13.5886 17.5371-10.7326 17.5371-7.35296C17.5371-3.91348 20.393-1.13798 23.7857-1.13798C27.2926-1.13798 30.055-3.91348 30.055-7.35296ZM30.055 16.5826C30.055 13.1562 27.2926 10.2666 23.7857 10.2666C20.393 10.2666 17.5371 13.1562 17.5371 16.5826C17.5371 20.022 20.393 22.7845 23.7857 22.7845C27.2926 22.7845 30.055 20.022 30.055 16.5826ZM131.708-7.35296C131.708-9.1675 130.223-10.5648 128.18-10.5648L42.1241-10.5648C40.0814-10.5648 38.6297-9.1675 38.6297-7.35296C38.6297-5.52536 40.0814-4.14108 42.1241-4.14108L128.18-4.14108C130.223-4.14108 131.708-5.52536 131.708-7.35296ZM131.708 16.5826C131.708 14.7213 130.223 13.337 128.18 13.337L42.1241 13.337C40.0814 13.337 38.6297 14.7213 38.6297 16.5826C38.6297 18.3634 40.0814 19.7944 42.1241 19.7944L128.18 19.7944C130.223 19.7944 131.708 18.3634 131.708 16.5826ZM32.6752-91.4089C21.3148-91.4089 16.084-85.7197 16.084-74.6961L16.084-44.7895C16.084-33.7191 21.3148-28.0299 32.6752-28.0299L116.509-28.0299C127.836-28.0299 133.113-33.7191 133.113-44.7895L133.113-74.6961C133.113-85.7197 127.836-91.4089 116.509-91.4089ZM22.7098-44.6211L22.7098-74.8645C22.7098-81.7669 25.8195-85.1797 32.7089-85.1797L116.475-85.1797C123.378-85.1797 126.487-81.7669 126.487-74.8645L126.487-44.6211C126.487-37.7186 123.378-34.2254 116.475-34.2254L32.7089-34.2254C25.8195-34.2254 22.7098-37.7186 22.7098-44.6211Z" data-clipstroke-keyframes="0 0 0 2.4709566 2.5282526 0 1 2.9708383 2.0283709 0 0 3.471794 3.529192 0 1 3.9716759 3.02931"/>
  </g>
  <g id="Thin-L" transform="matrix(1 0 0 1 783.187 1556)">
   <path d="M29.3482-6.99958C29.3482-10.0763 26.7877-12.7808 23.5585-12.7808C20.4182-12.7808 17.7137-10.0763 17.7137-6.99958C17.7137-3.78727 20.4182-1.16322 23.5585-1.16322C26.7877-1.16322 29.3482-3.78727 29.3482-6.99958ZM29.3482 16.3554C29.3482 13.2066 26.7877 10.4937 23.5585 10.4937C20.4182 10.4937 17.7137 13.2066 17.7137 16.3554C17.7137 19.5677 20.4182 22.1282 23.5585 22.1282C26.7877 22.1282 29.3482 19.5677 29.3482 16.3554ZM129.613-6.99958C129.613-8.05686 128.759-8.94936 127.524-8.94936L40.5086-8.94936C39.2736-8.94936 38.4278-8.05686 38.4278-6.99958C38.4278-5.87874 39.2736-5.04979 40.5086-5.04979L127.524-5.04979C128.759-5.04979 129.613-5.87874 129.613-6.99958ZM129.613 16.3554C129.613 15.2261 128.759 14.3972 127.524 14.3972L40.5086 14.3972C39.2736 14.3972 38.4278 15.2261 38.4278 16.3554C38.4278 17.4042 39.2736 18.3052 40.5086 18.3052L127.524 18.3052C128.759 18.3052 129.613 17.4042 129.613 16.3554ZM31.9936-90.5002C21.7944-90.5002 16.084-84.7353 16.084-74.6204L16.084-44.2846C16.084-34.0977 21.7944-28.3328 31.9936-28.3328L114.414-28.3328C124.605-28.3328 130.387-34.0977 130.387-44.2846L130.387-74.6204C130.387-84.7353 124.605-90.5002 114.414-90.5002ZM20.0342-44.2424L20.0342-74.6625C20.0342-82.5999 24.1283-86.7699 32.0021-86.7699L114.406-86.7699C122.343-86.7699 126.437-82.5999 126.437-74.6625L126.437-44.2424C126.437-36.3051 122.343-32.0546 114.406-32.0546L32.0021-32.0546C24.1283-32.0546 20.0342-36.3051 20.0342-44.2424Z" data-clipstroke-keyframes="0 0 0 2.4807782 2.5178947 0 1 2.980749 2.0179243 0 0 3.4821167 3.519265 0 1 3.9820871 3.0192943"/>
  </g>
  <g id="Ultralight-L" transform="matrix(1 0 0 1 487.174 1556)">
   <path d="M28.9862-6.81857C28.9862-9.7402 26.5291-12.3671 23.4422-12.3671C20.4312-12.3671 17.8043-9.7402 17.8043-6.81857C17.8043-3.72263 20.4312-1.17615 23.4422-1.17615C26.5291-1.17615 28.9862-3.72263 28.9862-6.81857ZM28.9862 16.239C28.9862 13.2325 26.5291 10.6101 23.4422 10.6101C20.4312 10.6101 17.8043 13.2325 17.8043 16.239C17.8043 19.335 20.4312 21.7921 23.4422 21.7921C26.5291 21.7921 28.9862 19.335 28.9862 16.239ZM128.54-6.81857C128.54-7.488 128.009-8.12192 127.188-8.12192L39.6812-8.12192C38.8599-8.12192 38.3244-7.488 38.3244-6.81857C38.3244-6.05975 38.8599-5.51522 39.6812-5.51522L127.188-5.51522C128.009-5.51522 128.54-6.05975 128.54-6.81857ZM128.54 16.239C128.54 15.4847 128.009 14.9402 127.188 14.9402L39.6812 14.9402C38.8599 14.9402 38.3244 15.4847 38.3244 16.239C38.3244 16.9129 38.8599 17.5424 39.6812 17.5424L127.188 17.5424C128.009 17.5424 128.54 16.9129 128.54 16.239ZM31.6446-90.0348C22.04-90.0348 16.084-84.2311 16.084-74.5816L16.084-44.026C16.084-34.2916 22.04-28.4879 31.6446-28.4879L113.341-28.4879C122.95-28.4879 128.991-34.2916 128.991-44.026L128.991-74.5816C128.991-84.2311 122.95-90.0348 113.341-90.0348ZM18.6637-44.0485L18.6637-74.5591C18.6637-83.0266 23.262-87.5844 31.6401-87.5844L113.345-87.5844C121.813-87.5844 126.411-83.0266 126.411-74.5591L126.411-44.0485C126.411-35.5811 121.813-30.9428 113.345-30.9428L31.6401-30.9428C23.262-30.9428 18.6637-35.5811 18.6637-44.0485Z" data-clipstroke-keyframes="0 0 0 2.4869936 2.511485 0 1 2.987013 2.0114658 0 0 3.488514 3.5129948 0 1 3.9885333 3.0129755"/>
  </g>
  <g id="Black-M" transform="matrix(1 0 0 1 2870.95 1126)">
   <path d="M29.3312-14.3146C29.3312-19.0267 25.9284-22.486 21.2114-22.486C16.7905-22.486 13.1028-18.8554 13.1028-14.3146C13.1028-10.0653 16.7905-6.15444 21.2114-6.15444C25.5288-6.15444 29.3312-10.0653 29.3312-14.3146ZM29.3312 5.58253C29.3312 0.87069 25.9284-2.59412 21.2114-2.59412C16.7905-2.59412 13.1028 1.04198 13.1028 5.58253C13.1028 9.83182 16.7905 13.7485 21.2114 13.7485C25.5288 13.7485 29.3312 9.83182 29.3312 5.58253ZM109.409-14.3146C109.409-18.0714 106.375-20.8545 102.597-20.8545L40.3952-20.8545C36.617-20.8545 33.7029-18.0714 33.7029-14.3146C33.7029-10.5636 36.617-7.77467 40.3952-7.77467L102.597-7.77467C106.375-7.77467 109.409-10.5636 109.409-14.3146ZM109.409 5.58253C109.409 1.82601 106.375-0.962898 102.597-0.962898L40.3952-0.962898C36.617-0.962898 33.7029 1.82601 33.7029 5.58253C33.7029 9.33384 36.617 12.1225 40.3952 12.1225L102.597 12.1225C106.375 12.1225 109.409 9.33384 109.409 5.58253ZM29.726-82.523C17.7042-82.523 12.4609-76.6262 12.4609-64.6593L12.4609-46.1065C12.4609-34.1399 17.7042-28.2431 29.726-28.2431L95.1778-28.2431C107.194-28.2431 112.437-34.1399 112.437-46.1065L112.437-64.6593C112.437-76.6262 107.194-82.523 95.1778-82.523ZM29.7989-45.7365L29.7989-64.9722C29.7989-66.8822 30.7847-67.9746 32.7005-67.9746L92.2033-67.9746C94.1133-67.9746 95.0991-66.8822 95.0991-64.9722L95.0991-45.7365C95.0991-43.8265 94.1133-42.786 92.2033-42.786L32.7005-42.786C30.7847-42.786 29.7989-43.8265 29.7989-45.7365Z" data-clipstroke-keyframes="0 0 0 2.436452 2.5635612 0 1 2.9359665 2.0640469 0 0 3.436449 3.5635746 0 1 3.9359636 3.0640602"/>
  </g>
  <g id="Heavy-M" transform="matrix(1 0 0 1 2575.01 1126)">
   <path d="M28.0739-14.2384C28.0739-18.5291 24.9206-21.7305 20.609-21.7305C16.5505-21.7305 13.1746-18.3982 13.1746-14.2384C13.1746-10.3086 16.5505-6.77683 20.609-6.77683C24.6153-6.77683 28.0739-10.3086 28.0739-14.2384ZM28.0739 5.47867C28.0739 1.18572 24.9206-2.03212 20.609-2.03212C16.5505-2.03212 13.1746 1.31659 13.1746 5.47867C13.1746 9.4085 16.5505 12.9544 20.609 12.9544C24.6153 12.9544 28.0739 9.4085 28.0739 5.47867ZM108.172-14.2384C108.172-17.622 105.431-20.125 101.978-20.125L38.9515-20.125C35.4976-20.125 32.8605-17.622 32.8605-14.2384C32.8605-10.8689 35.4976-8.35181 38.9515-8.35181L101.978-8.35181C105.431-8.35181 108.172-10.8689 108.172-14.2384ZM108.172 5.47867C108.172 2.09274 105.431-0.424318 101.978-0.424318L38.9515-0.424318C35.4976-0.424318 32.8605 2.09274 32.8605 5.47867C32.8605 8.84591 35.4976 11.3652 38.9515 11.3652L101.978 11.3652C105.431 11.3652 108.172 8.84591 108.172 5.47867ZM28.8485-81.8516C17.3081-81.8516 12.4609-76.3243 12.4609-64.9481L12.4609-45.4086C12.4609-34.0301 17.3081-28.5028 28.8485-28.5028L94.5209-28.5028C106.045-28.5028 110.894-34.0301 110.894-45.4086L110.894-64.9481C110.894-76.3243 106.045-81.8516 94.5209-81.8516ZM27.5605-45.0648L27.5605-65.2482C27.5605-67.7212 28.6461-68.998 31.1332-68.998L92.2362-68.998C94.7092-68.998 95.7947-67.7212 95.7947-65.2482L95.7947-45.0648C95.7947-42.5919 94.7092-41.3399 92.2362-41.3399L31.1332-41.3399C28.6461-41.3399 27.5605-42.5919 27.5605-45.0648Z" data-clipstroke-keyframes="0 0 0 2.4414315 2.558547 0 1 2.9410033 2.0589752 0 0 3.441484 3.5586503 0 1 3.9410563 3.0590782"/>
  </g>
  <g id="Bold-M" transform="matrix(1 0 0 1 2279.16 1126)">
   <path d="M26.6673-14.1531C26.6673-17.9723 23.7932-20.8853 19.9351-20.8853C16.2821-20.8853 13.2549-17.8867 13.2549-14.1531C13.2549-10.5806 16.2821-7.47307 19.9351-7.47307C23.5933-7.47307 26.6673-10.5806 26.6673-14.1531ZM26.6673 5.36249C26.6673 1.53813 23.7932-1.40344 19.9351-1.40344C16.2821-1.40344 13.2549 1.62378 13.2549 5.36249C13.2549 8.93496 16.2821 12.066 19.9351 12.066C23.5933 12.066 26.6673 8.93496 26.6673 5.36249ZM106.789-14.1531C106.789-17.1194 104.376-19.3088 101.285-19.3088L37.3364-19.3088C34.2454-19.3088 31.9181-17.1194 31.9181-14.1531C31.9181-11.2104 34.2454-8.99742 37.3364-8.99742L101.285-8.99742C104.376-8.99742 106.789-11.2104 106.789-14.1531ZM106.789 5.36249C106.789 2.39112 104.376 0.17816 101.285 0.17816L37.3364 0.17816C34.2454 0.17816 31.9181 2.39112 31.9181 5.36249C31.9181 8.30009 34.2454 10.5182 37.3364 10.5182L101.285 10.5182C104.376 10.5182 106.789 8.30009 106.789 5.36249ZM27.8669-81.1005C16.865-81.1005 12.4609-75.9867 12.4609-65.2711L12.4609-44.6279C12.4609-33.9072 16.865-28.7934 27.8669-28.7934L93.7861-28.7934C104.759-28.7934 109.169-33.9072 109.169-44.6279L109.169-65.2711C109.169-75.9867 104.759-81.1005 93.7861-81.1005ZM25.0566-44.3135L25.0566-65.5569C25.0566-68.6597 26.2537-70.1429 29.38-70.1429L92.273-70.1429C95.3757-70.1429 96.5728-68.6597 96.5728-65.5569L96.5728-44.3135C96.5728-41.2107 95.3757-39.7223 92.273-39.7223L29.38-39.7223C26.2537-39.7223 25.0566-41.2107 25.0566-44.3135Z" data-clipstroke-keyframes="0 0 0 2.447754 2.5521812 0 1 2.947395 2.0525403 0 0 3.4478707 3.55239 0 1 3.9475124 3.0527484"/>
  </g>
  <g id="Semibold-M" transform="matrix(1 0 0 1 1983.05 1126)">
   <path d="M25.6977-14.0943C25.6977-17.5885 23.016-20.3026 19.4705-20.3026C16.097-20.3026 13.3103-17.5341 13.3103-14.0943C13.3103-10.7682 16.097-7.95305 19.4705-7.95305C22.8889-7.95305 25.6977-10.7682 25.6977-14.0943ZM25.6977 5.28239C25.6977 1.78108 23.016-0.970028 19.4705-0.970028C16.097-0.970028 13.3103 1.83555 13.3103 5.28239C13.3103 8.60851 16.097 11.4536 19.4705 11.4536C22.8889 11.4536 25.6977 8.60851 25.6977 5.28239ZM105.836-14.0943C105.836-16.7728 103.649-18.7462 100.808-18.7462L36.223-18.7462C33.3822-18.7462 31.2685-16.7728 31.2685-14.0943C31.2685-11.4458 33.3822-9.4425 36.223-9.4425L100.808-9.4425C103.649-9.4425 105.836-11.4458 105.836-14.0943ZM105.836 5.28239C105.836 2.59682 103.649 0.593505 100.808 0.593505L36.223 0.593505C33.3822 0.593505 31.2685 2.59682 31.2685 5.28239C31.2685 7.92381 33.3822 9.93423 36.223 9.93423L100.808 9.93423C103.649 9.93423 105.836 7.92381 105.836 5.28239ZM27.1901-80.5826C16.5596-80.5826 12.4609-75.7539 12.4609-65.4938L12.4609-44.0897C12.4609-33.8224 16.5596-28.9937 27.1901-28.9937L93.2795-28.9937C103.873-28.9937 107.979-33.8224 107.979-44.0897L107.979-65.4938C107.979-75.7539 103.873-80.5826 93.2795-80.5826ZM23.3305-43.7955L23.3305-65.7698C23.3305-69.3067 24.6045-70.9322 28.1713-70.9322L92.2983-70.9322C95.8352-70.9322 97.1092-69.3067 97.1092-65.7698L97.1092-43.7955C97.1092-40.2586 95.8352-38.6071 92.2983-38.6071L28.1713-38.6071C24.6045-38.6071 23.3305-40.2586 23.3305-43.7955Z" data-clipstroke-keyframes="0 0 0 2.4517741 2.5481308 0 1 2.951462 2.0484428 0 0 3.4519367 3.5484152 0 1 3.9516253 3.0487266"/>
  </g>
  <g id="Medium-M" transform="matrix(1 0 0 1 1686.79 1126)">
   <path d="M24.9624-14.0498C24.9624-17.2975 22.4266-19.8608 19.1182-19.8608C15.9567-19.8608 13.3523-17.2667 13.3523-14.0498C13.3523-10.9105 15.9567-8.317 19.1182-8.317C22.3547-8.317 24.9624-10.9105 24.9624-14.0498ZM24.9624 5.22166C24.9624 1.9653 22.4266-0.6414 19.1182-0.6414C15.9567-0.6414 13.3523 1.99613 13.3523 5.22166C13.3523 8.36098 15.9567 10.9893 19.1182 10.9893C22.3547 10.9893 24.9624 8.36098 24.9624 5.22166ZM105.113-14.0498C105.113-16.51 103.097-18.3196 100.446-18.3196L35.3788-18.3196C32.7277-18.3196 30.7759-16.51 30.7759-14.0498C30.7759-11.6243 32.7277-9.77998 35.3788-9.77998L100.446-9.77998C103.097-9.77998 105.113-11.6243 105.113-14.0498ZM105.113 5.22166C105.113 2.7528 103.097 0.908437 100.446 0.908437L35.3788 0.908437C32.7277 0.908437 30.7759 2.7528 30.7759 5.22166C30.7759 7.63849 32.7277 9.49145 35.3788 9.49145L100.446 9.49145C103.097 9.49145 105.113 7.63849 105.113 5.22166ZM26.677-80.19C16.328-80.19 12.4609-75.5774 12.4609-65.6626L12.4609-43.6815C12.4609-33.7582 16.328-29.1456 26.677-29.1456L92.8954-29.1456C103.201-29.1456 107.077-33.7582 107.077-43.6815L107.077-65.6626C107.077-75.5774 103.201-80.19 92.8954-80.19ZM22.0216-43.4028L22.0216-65.9312C22.0216-69.7973 23.3539-71.5307 27.2548-71.5307L92.3175-71.5307C96.1836-71.5307 97.516-69.7973 97.516-65.9312L97.516-43.4028C97.516-39.5367 96.1836-37.7615 92.3175-37.7615L27.2548-37.7615C23.3539-37.7615 22.0216-39.5367 22.0216-43.4028Z" data-clipstroke-keyframes="0 0 0 2.4548788 2.5450017 0 1 2.9546032 2.0452776 0 0 3.4550772 3.5453458 0 1 3.954802 3.0456207"/>
  </g>
  <g id="Regular-M" transform="matrix(1 0 0 1 1390.66 1126)">
   <path d="M24.0034-13.9916C24.0034-16.918 21.6579-19.2845 18.6588-19.2845C15.7736-19.2845 13.4071-16.918 13.4071-13.9916C13.4071-11.096 15.7736-8.7917 18.6588-8.7917C21.6579-8.7917 24.0034-11.096 24.0034-13.9916ZM24.0034 5.14244C24.0034 2.20557 21.6579-0.212756 18.6588-0.212756C15.7736-0.212756 13.4071 2.20557 13.4071 5.14244C13.4071 8.03811 15.7736 10.3836 18.6588 10.3836C21.6579 10.3836 24.0034 8.03811 24.0034 5.14244ZM104.17-13.9916C104.17-16.1673 102.378-17.7631 99.9739-17.7631L34.2777-17.7631C31.8739-17.7631 30.1334-16.1673 30.1334-13.9916C30.1334-11.8572 31.8739-10.2202 34.2777-10.2202L99.9739-10.2202C102.378-10.2202 104.17-11.8572 104.17-13.9916ZM104.17 5.14244C104.17 2.95624 102.378 1.31922 99.9739 1.31922L34.2777 1.31922C31.8739 1.31922 30.1334 2.95624 30.1334 5.14244C30.1334 7.26635 31.8739 8.91391 34.2777 8.91391L99.9739 8.91391C102.378 8.91391 104.17 7.26635 104.17 5.14244ZM26.0077-79.6779C16.0259-79.6779 12.4609-75.3472 12.4609-65.8829L12.4609-43.1492C12.4609-33.6744 16.0259-29.3437 26.0077-29.3437L92.3944-29.3437C102.324-29.3437 105.9-33.6744 105.9-43.1492L105.9-65.8829C105.9-75.3472 102.324-79.6779 92.3944-79.6779ZM20.3144-42.8905L20.3144-66.1417C20.3144-70.4371 21.7228-72.3113 26.0595-72.3113L92.3426-72.3113C96.6381-72.3113 98.0465-70.4371 98.0465-66.1417L98.0465-42.8905C98.0465-38.595 96.6381-36.6585 92.3426-36.6585L26.0595-36.6585C21.7228-36.6585 20.3144-38.595 20.3144-42.8905Z" data-clipstroke-keyframes="0 0 0 2.4590042 2.540844 0 1 2.958777 2.0410714 0 0 3.4592497 3.5412676 0 1 3.959023 3.0414941"/>
  </g>
  <g id="Light-M" transform="matrix(1 0 0 1 1094.88 1126)">
   <path d="M23.5243-13.7521C23.5243-16.4731 21.3157-18.737 18.5048-18.737C15.7907-18.737 13.5268-16.4731 13.5268-13.7521C13.5268-11.0104 15.7907-8.80881 18.5048-8.80881C21.3157-8.80881 23.5243-11.0104 23.5243-13.7521ZM23.5243 4.98844C23.5243 2.2398 21.3157-0.0587571 18.5048-0.0587571C15.7907-0.0587571 13.5268 2.2398 13.5268 4.98844C13.5268 7.73011 15.7907 9.9387 18.5048 9.9387C21.3157 9.9387 23.5243 7.73011 23.5243 4.98844ZM102.75-13.7521C102.75-15.4144 101.385-16.668 99.529-16.668L33.1826-16.668C31.3263-16.668 29.9965-15.4144 29.9965-13.7521C29.9965-12.0967 31.3263-10.8362 33.1826-10.8362L99.529-10.8362C101.385-10.8362 102.75-12.0967 102.75-13.7521ZM102.75 4.98844C102.75 3.29845 101.385 2.03788 99.529 2.03788L33.1826 2.03788C31.3263 2.03788 29.9965 3.29845 29.9965 4.98844C29.9965 6.61613 31.3263 7.90437 33.1826 7.90437L99.529 7.90437C101.385 7.90437 102.75 6.61613 102.75 4.98844ZM25.5457-79.0619C16.351-79.0619 12.4609-74.6799 12.4609-65.8316L12.4609-42.807C12.4609-33.931 16.351-29.549 25.5457-29.549L90.9742-29.549C100.134-29.549 104.052-33.931 104.052-42.807L104.052-65.8316C104.052-74.6799 100.134-79.0619 90.9742-79.0619ZM18.5006-42.6338L18.5006-66.0048C18.5006-71.0018 20.5763-73.3893 25.5803-73.3893L90.9395-73.3893C95.9366-73.3893 98.0123-71.0018 98.0123-66.0048L98.0123-42.6338C98.0123-37.6368 95.9366-35.187 90.9395-35.187L25.5803-35.187C20.5763-35.187 18.5006-37.6368 18.5006-42.6338Z" data-clipstroke-keyframes="0 0 0 2.4668612 2.5325685 0 1 2.9667058 2.0327244 0 0 3.4674935 3.53333 0 1 3.9673383 3.0334852"/>
  </g>
  <g id="Thin-M" transform="matrix(1 0 0 1 799.388 1126)">
   <path d="M22.8906-13.4353C22.8906-15.8847 20.8631-18.0128 18.3011-18.0128C15.8134-18.0128 13.6853-15.8847 13.6853-13.4353C13.6853-10.8973 15.8134-8.83144 18.3011-8.83144C20.8631-8.83144 22.8906-10.8973 22.8906-13.4353ZM22.8906 4.78477C22.8906 2.28506 20.8631 0.144918 18.3011 0.144918C15.8134 0.144918 13.6853 2.28506 13.6853 4.78477C13.6853 7.32276 15.8134 9.3503 18.3011 9.3503C20.8631 9.3503 22.8906 7.32276 22.8906 4.78477ZM100.871-13.4353C100.871-14.4187 100.073-15.2197 98.9406-15.2197L31.7342-15.2197C30.6022-15.2197 29.8154-14.4187 29.8154-13.4353C29.8154-12.4136 30.6022-11.6509 31.7342-11.6509L98.9406-11.6509C100.073-11.6509 100.871-12.4136 100.871-13.4353ZM100.871 4.78477C100.871 3.75107 100.073 2.98836 98.9406 2.98836L31.7342 2.98836C30.6022 2.98836 29.8154 3.75107 29.8154 4.78477C29.8154 5.75617 30.6022 6.56916 31.7342 6.56916L98.9406 6.56916C100.073 6.56916 100.871 5.75617 100.871 4.78477ZM24.9347-78.2472C16.7809-78.2472 12.4609-73.7973 12.4609-65.7637L12.4609-42.3544C12.4609-34.2705 16.7809-29.8206 24.9347-29.8206L89.0958-29.8206C97.2376-29.8206 101.608-34.2705 101.608-42.3544L101.608-65.7637C101.608-73.7973 97.2376-78.2472 89.0958-78.2472ZM16.1018-42.2943L16.1018-65.8237C16.1018-71.7486 19.0601-74.815 24.9467-74.815L89.0838-74.815C95.0087-74.815 97.967-71.7486 97.967-65.8237L97.967-42.2943C97.967-36.3695 95.0087-33.2408 89.0838-33.2408L24.9467-33.2408C19.0601-33.2408 16.1018-36.3695 16.1018-42.2943Z" data-clipstroke-keyframes="0 0 0 2.4779615 2.5208662 0 1 2.9779067 2.020921 0 0 3.479155 3.5221124 0 1 3.9791 3.022167"/>
  </g>
  <g id="Ultralight-M" transform="matrix(1 0 0 1 503.303 1126)">
   <path d="M22.5661-13.273C22.5661-15.5833 20.6313-17.6419 18.1968-17.6419C15.825-17.6419 13.7664-15.5833 13.7664-13.273C13.7664-10.8393 15.825-8.84304 18.1968-8.84304C20.6313-8.84304 22.5661-10.8393 22.5661-13.273ZM22.5661 4.68045C22.5661 2.30824 20.6313 0.24924 18.1968 0.24924C15.825 0.24924 13.7664 2.30824 13.7664 4.68045C13.7664 7.11412 15.825 9.04893 18.1968 9.04893C20.6313 9.04893 22.5661 7.11412 22.5661 4.68045ZM99.9093-13.273C99.9093-13.9087 99.4004-14.4778 98.6393-14.4778L30.9924-14.4778C30.2312-14.4778 29.7227-13.9087 29.7227-13.273C29.7227-12.5758 30.2312-12.0682 30.9924-12.0682L98.6393-12.0682C99.4004-12.0682 99.9093-12.5758 99.9093-13.273ZM99.9093 4.68045C99.9093 3.98289 99.4004 3.4752 98.6393 3.4752L30.9924 3.4752C30.2312 3.4752 29.7227 3.98289 29.7227 4.68045C29.7227 5.3157 30.2312 5.88528 30.9924 5.88528L98.6393 5.88528C99.4004 5.88528 99.9093 5.3157 99.9093 4.68045ZM24.6217-77.8299C17.0012-77.8299 12.4609-73.3452 12.4609-65.7289L12.4609-42.1226C12.4609-34.4444 17.0012-29.9597 24.6217-29.9597L88.1338-29.9597C95.7539-29.9597 100.356-34.4444 100.356-42.1226L100.356-65.7289C100.356-73.3452 95.7539-77.8299 88.1338-77.8299ZM14.8731-42.1205L14.8731-65.731C14.8731-72.1311 18.2835-75.5453 24.6221-75.5453L88.1333-75.5453C94.5335-75.5453 97.9438-72.1311 97.9438-65.731L97.9438-42.1205C97.9438-35.7203 94.5335-32.2439 88.1333-32.2439L24.6221-32.2439C18.2835-32.2439 14.8731-35.7203 14.8731-42.1205Z" data-clipstroke-keyframes="0 0 0 2.4850614 2.51352 0 1 2.9850607 2.013521 0 0 3.4864802 3.514946 0 1 3.986479 3.0149467"/>
  </g>
  <g id="Black-S" transform="matrix(1 0 0 1 2884.28 696)">
   <path d="M23.3398-18.8477C23.3398-22.6562 20.6055-25.4395 16.7969-25.4395C13.2324-25.4395 10.2539-22.5098 10.2539-18.8477C10.2539-15.4297 13.2324-12.2559 16.7969-12.2559C20.2637-12.2559 23.3398-15.4297 23.3398-18.8477ZM23.3398-3.22266C23.3398-7.03125 20.6055-9.81445 16.7969-9.81445C13.2324-9.81445 10.2539-6.88477 10.2539-3.22266C10.2539 0.195312 13.2324 3.36914 16.7969 3.36914C20.2637 3.36914 23.3398 0.195312 23.3398-3.22266ZM86.0352-18.8477C86.0352-21.875 83.5938-24.1211 80.5664-24.1211L32.0312-24.1211C29.0039-24.1211 26.6602-21.875 26.6602-18.8477C26.6602-15.8203 29.0039-13.5742 32.0312-13.5742L80.5664-13.5742C83.5938-13.5742 86.0352-15.8203 86.0352-18.8477ZM86.0352-3.22266C86.0352-6.25 83.5938-8.49609 80.5664-8.49609L32.0312-8.49609C29.0039-8.49609 26.6602-6.25 26.6602-3.22266C26.6602-0.195312 29.0039 2.05078 32.0312 2.05078L80.5664 2.05078C83.5938 2.05078 86.0352-0.195312 86.0352-3.22266ZM23.5352-72.4609C14.0137-72.4609 9.76562-67.7246 9.76562-58.2031L9.76562-43.9453C9.76562-34.4238 14.0137-29.6875 23.5352-29.6875L74.707-29.6875C84.2285-29.6875 88.4766-34.4238 88.4766-43.9453L88.4766-58.2031C88.4766-67.7246 84.2285-72.4609 74.707-72.4609ZM23.9258-43.6523L23.9258-58.4473C23.9258-59.8145 24.707-60.6445 26.0742-60.6445L72.168-60.6445C73.5352-60.6445 74.3164-59.8145 74.3164-58.4473L74.3164-43.6523C74.3164-42.2852 73.5352-41.5039 72.168-41.5039L26.0742-41.5039C24.707-41.5039 23.9258-42.2852 23.9258-43.6523Z" data-clipstroke-keyframes="0 0 0 2.435055 2.5649447 0 1 2.9345522 2.0654478 0 0 3.435055 3.5649447 0 1 3.9345522 3.0654478"/>
  </g>
  <g id="Heavy-S" transform="matrix(1 0 0 1 2588.11 696)">
   <path d="M22.3257-18.8131C22.3257-22.2875 19.7872-24.8632 16.3013-24.8632C13.025-24.8632 10.3-22.1756 10.3-18.8131C10.3-15.6487 13.025-12.786 16.3013-12.786C19.5261-12.786 22.3257-15.6487 22.3257-18.8131ZM22.3257-3.2918C22.3257-6.76619 19.7872-9.35347 16.3013-9.35347C13.025-9.35347 10.3-6.65428 10.3-3.2918C10.3-0.127373 13.025 2.74682 16.3013 2.74682C19.5261 2.74682 22.3257-0.127373 22.3257-3.2918ZM85.1593-18.8131C85.1593-21.5869 82.9138-23.6371 80.0939-23.6371L30.9364-23.6371C28.1165-23.6371 25.9572-21.5869 25.9572-18.8131C25.9572-16.0508 28.1165-13.9891 30.9364-13.9891L80.0939-13.9891C82.9138-13.9891 85.1593-16.0508 85.1593-18.8131ZM85.1593-3.2918C85.1593-6.06561 82.9138-8.12731 80.0939-8.12731L30.9364-8.12731C28.1165-8.12731 25.9572-6.06561 25.9572-3.2918C25.9572-0.529522 28.1165 1.53218 30.9364 1.53218L80.0939 1.53218C82.9138 1.53218 85.1593-0.529522 85.1593-3.2918ZM22.8437-71.9654C13.6334-71.9654 9.76562-67.5517 9.76562-58.4567L9.76562-43.3921C9.76562-34.2971 13.6334-29.8834 22.8437-29.8834L74.3267-29.8834C83.5255-29.8834 87.3933-34.2971 87.3933-43.3921L87.3933-58.4567C87.3933-67.5517 83.5255-71.9654 74.3267-71.9654ZM22.2432-43.1107L22.2432-58.7008C22.2432-60.4598 23.0245-61.3821 24.795-61.3821L72.3754-61.3821C74.1344-61.3821 74.9157-60.4598 74.9157-58.7008L74.9157-43.1107C74.9157-41.3517 74.1344-40.4552 72.3754-40.4552L24.795-40.4552C23.0245-40.4552 22.2432-41.3517 22.2432-43.1107Z" data-clipstroke-keyframes="0 0 0 2.4393406 2.5606806 0 1 2.93889 2.0611315 0 0 3.4393473 3.560732 0 1 3.938897 3.0611823"/>
  </g>
  <g id="Bold-S" transform="matrix(1 0 0 1 2292 696)">
   <path d="M21.1914-18.7744C21.1914-21.875 18.8721-24.2188 15.7471-24.2188C12.793-24.2188 10.3516-21.8018 10.3516-18.7744C10.3516-15.8936 12.793-13.3789 15.7471-13.3789C18.7012-13.3789 21.1914-15.8936 21.1914-18.7744ZM21.1914-3.36914C21.1914-6.46973 18.8721-8.83789 15.7471-8.83789C12.793-8.83789 10.3516-6.39648 10.3516-3.36914C10.3516-0.488281 12.793 2.05078 15.7471 2.05078C18.7012 2.05078 21.1914-0.488281 21.1914-3.36914ZM84.1797-18.7744C84.1797-21.2646 82.1533-23.0957 79.5654-23.0957L29.7119-23.0957C27.124-23.0957 25.1709-21.2646 25.1709-18.7744C25.1709-16.3086 27.124-14.4531 29.7119-14.4531L79.5654-14.4531C82.1533-14.4531 84.1797-16.3086 84.1797-18.7744ZM84.1797-3.36914C84.1797-5.85938 82.1533-7.71484 79.5654-7.71484L29.7119-7.71484C27.124-7.71484 25.1709-5.85938 25.1709-3.36914C25.1709-0.90332 27.124 0.952148 29.7119 0.952148L79.5654 0.952148C82.1533 0.952148 84.1797-0.90332 84.1797-3.36914ZM22.0703-71.4111C13.208-71.4111 9.76562-67.3584 9.76562-58.7402L9.76562-42.7734C9.76562-34.1553 13.208-30.1025 22.0703-30.1025L73.9014-30.1025C82.7393-30.1025 86.1816-34.1553 86.1816-42.7734L86.1816-58.7402C86.1816-67.3584 82.7393-71.4111 73.9014-71.4111ZM20.3613-42.5049L20.3613-58.9844C20.3613-61.1816 21.1426-62.207 23.3643-62.207L72.6074-62.207C74.8047-62.207 75.5859-61.1816 75.5859-58.9844L75.5859-42.5049C75.5859-40.3076 74.8047-39.2822 72.6074-39.2822L23.3643-39.2822C21.1426-39.2822 20.3613-40.3076 20.3613-42.5049Z" data-clipstroke-keyframes="0 0 0 2.4442406 2.5558052 0 1 2.9438498 2.0561962 0 0 3.444254 3.5559158 0 1 3.9438639 3.056306"/>
  </g>
  <g id="Semibold-S" transform="matrix(1 0 0 1 1995.71 696)">
   <path d="M20.4094-18.7478C20.4094-21.5906 18.2411-23.7744 15.3649-23.7744C12.633-23.7744 10.3871-21.544 10.3871-18.7478C10.3871-16.0624 12.633-13.7877 15.3649-13.7877C18.1324-13.7877 20.4094-16.0624 20.4094-18.7478ZM20.4094-3.42246C20.4094-6.26533 18.2411-8.48242 15.3649-8.48242C12.633-8.48242 10.3871-6.21875 10.3871-3.42246C10.3871-0.737109 12.633 1.5709 15.3649 1.5709C18.1324 1.5709 20.4094-0.737109 20.4094-3.42246ZM83.5043-18.7478C83.5043-21.0425 81.629-22.7225 79.2011-22.7225L28.8677-22.7225C26.4397-22.7225 24.6288-21.0425 24.6288-18.7478C24.6288-16.4863 26.4397-14.773 28.8677-14.773L79.2011-14.773C81.629-14.773 83.5043-16.4863 83.5043-18.7478ZM83.5043-3.42246C83.5043-5.71719 81.629-7.43047 79.2011-7.43047L28.8677-7.43047C26.4397-7.43047 24.6288-5.71719 24.6288-3.42246C24.6288-1.16104 26.4397 0.552246 28.8677 0.552246L79.2011 0.552246C81.629 0.552246 83.5043-1.16104 83.5043-3.42246ZM21.5371-71.029C12.9147-71.029 9.76562-67.2251 9.76562-58.9357L9.76562-42.3469C9.76562-34.0575 12.9147-30.2536 21.5371-30.2536L73.6081-30.2536C82.1972-30.2536 85.3463-34.0575 85.3463-42.3469L85.3463-58.9357C85.3463-67.2251 82.1972-71.029 73.6081-71.029ZM19.0639-42.0872L19.0639-59.1799C19.0639-61.6793 19.8451-62.7758 22.3778-62.7758L72.7674-62.7758C75.2668-62.7758 76.048-61.6793 76.048-59.1799L76.048-42.0872C76.048-39.5878 75.2668-38.4735 72.7674-38.4735L22.3778-38.4735C19.8451-38.4735 19.0639-39.5878 19.0639-42.0872Z" data-clipstroke-keyframes="0 0 0 2.4482708 2.55179 0 1 2.9479253 2.0521355 0 0 3.4482877 3.5519419 0 1 3.947943 3.0522864"/>
  </g>
  <g id="Medium-S" transform="matrix(1 0 0 1 1699.32 696)">
   <path d="M19.8164-18.7275C19.8164-21.375 17.7627-23.4375 15.0752-23.4375C12.5117-23.4375 10.4141-21.3486 10.4141-18.7275C10.4141-16.1904 12.5117-14.0977 15.0752-14.0977C17.7012-14.0977 19.8164-16.1904 19.8164-18.7275ZM19.8164-3.46289C19.8164-6.11035 17.7627-8.21289 15.0752-8.21289C12.5117-8.21289 10.4141-6.08398 10.4141-3.46289C10.4141-0.925781 12.5117 1.20703 15.0752 1.20703C17.7012 1.20703 19.8164-0.925781 19.8164-3.46289ZM82.9922-18.7275C82.9922-20.874 81.2314-22.4395 78.9248-22.4395L28.2275-22.4395C25.9209-22.4395 24.2178-20.874 24.2178-18.7275C24.2178-16.6211 25.9209-15.0156 28.2275-15.0156L78.9248-15.0156C81.2314-15.0156 82.9922-16.6211 82.9922-18.7275ZM82.9922-3.46289C82.9922-5.60938 81.2314-7.21484 78.9248-7.21484L28.2275-7.21484C25.9209-7.21484 24.2178-5.60938 24.2178-3.46289C24.2178-1.35645 25.9209 0.249023 28.2275 0.249023L78.9248 0.249023C81.2314 0.249023 82.9922-1.35645 82.9922-3.46289ZM21.1328-70.7393C12.6924-70.7393 9.76562-67.124 9.76562-59.084L9.76562-42.0234C9.76562-33.9834 12.6924-30.3682 21.1328-30.3682L73.3857-30.3682C81.7861-30.3682 84.7129-33.9834 84.7129-42.0234L84.7129-59.084C84.7129-67.124 81.7861-70.7393 73.3857-70.7393ZM18.0801-41.7705L18.0801-59.3281C18.0801-62.0566 18.8613-63.207 21.6299-63.207L72.8887-63.207C75.6172-63.207 76.3984-62.0566 76.3984-59.3281L76.3984-41.7705C76.3984-39.042 75.6172-37.8604 72.8887-37.8604L21.6299-37.8604C18.8613-37.8604 18.0801-39.042 18.0801-41.7705Z" data-clipstroke-keyframes="0 0 0 2.4508972 2.5491767 0 1 2.9505844 2.0494895 0 0 3.4509165 3.5493608 0 1 3.9506044 3.0496726"/>
  </g>
  <g id="Regular-S" transform="matrix(1 0 0 1 1403.02 696)">
   <path d="M19.043-18.7012C19.043-21.0938 17.1387-22.998 14.6973-22.998C12.3535-22.998 10.4492-21.0938 10.4492-18.7012C10.4492-16.3574 12.3535-14.502 14.6973-14.502C17.1387-14.502 19.043-16.3574 19.043-18.7012ZM19.043-3.51562C19.043-5.9082 17.1387-7.86133 14.6973-7.86133C12.3535-7.86133 10.4492-5.9082 10.4492-3.51562C10.4492-1.17188 12.3535 0.732422 14.6973 0.732422C17.1387 0.732422 19.043-1.17188 19.043-3.51562ZM82.3242-18.7012C82.3242-20.6543 80.7129-22.0703 78.5645-22.0703L27.3926-22.0703C25.2441-22.0703 23.6816-20.6543 23.6816-18.7012C23.6816-16.7969 25.2441-15.332 27.3926-15.332L78.5645-15.332C80.7129-15.332 82.3242-16.7969 82.3242-18.7012ZM82.3242-3.51562C82.3242-5.46875 80.7129-6.93359 78.5645-6.93359L27.3926-6.93359C25.2441-6.93359 23.6816-5.46875 23.6816-3.51562C23.6816-1.61133 25.2441-0.146484 27.3926-0.146484L78.5645-0.146484C80.7129-0.146484 82.3242-1.61133 82.3242-3.51562ZM20.6055-70.3613C12.4023-70.3613 9.76562-66.9922 9.76562-59.2773L9.76562-41.6016C9.76562-33.8867 12.4023-30.5176 20.6055-30.5176L73.0957-30.5176C81.25-30.5176 83.8867-33.8867 83.8867-41.6016L83.8867-59.2773C83.8867-66.9922 81.25-70.3613 73.0957-70.3613ZM16.7969-41.3574L16.7969-59.5215C16.7969-62.5488 17.5781-63.7695 20.6543-63.7695L73.0469-63.7695C76.0742-63.7695 76.8555-62.5488 76.8555-59.5215L76.8555-41.3574C76.8555-38.3301 76.0742-37.0605 73.0469-37.0605L20.6543-37.0605C17.5781-37.0605 16.7969-38.3301 16.7969-41.3574Z" data-clipstroke-keyframes="0 0 0 2.454371 2.5457206 0 1 2.9541013 2.0459902 0 0 3.454393 3.5459473 0 1 3.9541242 3.0462158"/>
  </g>
  <g id="Light-S" transform="matrix(1 0 0 1 1107.12 696)">
   <path d="M18.6191-18.4893C18.6191-20.7002 16.8359-22.5137 14.561-22.5137C12.3687-22.5137 10.5552-20.7002 10.5552-18.4893C10.5552-16.2817 12.3687-14.5171 14.561-14.5171C16.8359-14.5171 18.6191-16.2817 18.6191-18.4893ZM18.6191-3.65185C18.6191-5.87793 16.8359-7.7251 14.561-7.7251C12.3687-7.7251 10.5552-5.87793 10.5552-3.65185C10.5552-1.44433 12.3687 0.33887 14.561 0.33887C16.8359 0.33887 18.6191-1.44433 18.6191-3.65185ZM81.0679-18.4893C81.0679-19.9883 79.835-21.1016 78.1709-21.1016L26.4238-21.1016C24.7598-21.1016 23.5605-19.9883 23.5605-18.4893C23.5605-17.0088 24.7598-15.8769 26.4238-15.8769L78.1709-15.8769C79.835-15.8769 81.0679-17.0088 81.0679-18.4893ZM81.0679-3.65185C81.0679-5.16602 79.835-6.29786 78.1709-6.29786L26.4238-6.29786C24.7598-6.29786 23.5605-5.16602 23.5605-3.65185C23.5605-2.18652 24.7598-1.03954 26.4238-1.03954L78.1709-1.03954C79.835-1.03954 81.0679-2.18652 81.0679-3.65185ZM20.1968-69.8164C12.6899-69.8164 9.76562-66.4019 9.76562-59.2319L9.76562-41.2988C9.76562-34.1138 12.6899-30.6992 20.1968-30.6992L71.8394-30.6992C79.3125-30.6992 82.252-34.1138 82.252-41.2988L82.252-59.2319C82.252-66.4019 79.3125-69.8164 71.8394-69.8164ZM15.1924-41.1304L15.1924-59.4004C15.1924-63.0483 16.564-64.7231 20.2305-64.7231L71.8057-64.7231C75.4536-64.7231 76.8252-63.0483 76.8252-59.4004L76.8252-41.1304C76.8252-37.4824 75.4536-35.7588 71.8057-35.7588L20.2305-35.7588C16.564-35.7588 15.1924-37.4824 15.1924-41.1304Z" data-clipstroke-keyframes="0 0 0 2.4629736 2.5366642 0 1 2.9627824 2.0368555 0 0 3.4634132 3.5372581 0 1 3.9632225 3.0374484"/>
  </g>
  <g id="Thin-S" transform="matrix(1 0 0 1 811.494 696)">
   <path d="M18.0586-18.209C18.0586-20.1797 16.4356-21.8731 14.3809-21.8731C12.3887-21.8731 10.6953-20.1797 10.6953-18.209C10.6953-16.1816 12.3887-14.5371 14.3809-14.5371C16.4356-14.5371 18.0586-16.1816 18.0586-18.209ZM18.0586-3.83203C18.0586-5.83789 16.4356-7.54492 14.3809-7.54492C12.3887-7.54492 10.6953-5.83789 10.6953-3.83203C10.6953-1.80468 12.3887-0.181633 14.3809-0.181633C16.4356-0.181633 18.0586-1.80468 18.0586-3.83203ZM79.4063-18.209C79.4063-19.1074 78.6738-19.8203 77.6504-19.8203L25.1426-19.8203C24.1191-19.8203 23.4004-19.1074 23.4004-18.209C23.4004-17.2891 24.1191-16.5976 25.1426-16.5976L77.6504-16.5976C78.6738-16.5976 79.4063-17.2891 79.4063-18.209ZM79.4063-3.83203C79.4063-4.76563 78.6738-5.45704 77.6504-5.45704L25.1426-5.45704C24.1191-5.45704 23.4004-4.76563 23.4004-3.83203C23.4004-2.94726 24.1191-2.22069 25.1426-2.22069L77.6504-2.22069C78.6738-2.22069 79.4063-2.94726 79.4063-3.83203ZM19.6563-69.0957C13.0703-69.0957 9.76562-65.6211 9.76562-59.1719L9.76562-40.8984C9.76562-34.4141 13.0703-30.9394 19.6563-30.9394L70.1778-30.9394C76.75-30.9394 80.0899-34.4141 80.0899-40.8984L80.0899-59.1719C80.0899-65.6211 76.75-69.0957 70.1778-69.0957ZM13.0703-40.8301L13.0703-59.2402C13.0703-63.709 15.2227-65.9844 19.6699-65.9844L70.1641-65.9844C74.6328-65.9844 76.7852-63.709 76.7852-59.2402L76.7852-40.8301C76.7852-36.3613 74.6328-34.0371 70.1641-34.0371L19.6699-34.0371C15.2227-34.0371 13.0703-36.3613 13.0703-40.8301Z" data-clipstroke-keyframes="0 0 0 2.4752185 2.523759 0 1 2.975139 2.0238388 0 0 3.4762716 3.5248847 0 1 3.976192 3.0249643"/>
  </g>
  <g id="Ultralight-S" transform="matrix(1 0 0 1 515.337 696)">
   <path d="M17.7715-18.0654C17.7715-19.9131 16.2305-21.5449 14.2886-21.5449C12.3989-21.5449 10.7671-19.9131 10.7671-18.0654C10.7671-16.1304 12.3989-14.5474 14.2886-14.5474C16.2305-14.5474 17.7715-16.1304 17.7715-18.0654ZM17.7715-3.92431C17.7715-5.81738 16.2305-7.45264 14.2886-7.45264C12.3989-7.45264 10.7671-5.81738 10.7671-3.92431C10.7671-1.98925 12.3989-0.448233 14.2886-0.448233C16.2305-0.448233 17.7715-1.98925 17.7715-3.92431ZM78.5552-18.0654C78.5552-18.6563 78.0791-19.1641 77.3838-19.1641L24.4864-19.1641C23.791-19.1641 23.3184-18.6563 23.3184-18.0654C23.3184-17.4326 23.791-16.9668 24.4864-16.9668L77.3838-16.9668C78.0791-16.9668 78.5552-17.4326 78.5552-18.0654ZM78.5552-3.92431C78.5552-4.56055 78.0791-5.02638 77.3838-5.02638L24.4864-5.02638C23.791-5.02638 23.3184-4.56055 23.3184-3.92431C23.3184-3.3369 23.791-2.82566 24.4864-2.82566L77.3838-2.82566C78.0791-2.82566 78.5552-3.3369 78.5552-3.92431ZM19.3794-68.7266C13.2651-68.7266 9.76562-65.2212 9.76562-59.1411L9.76562-40.6934C9.76562-34.5679 13.2651-31.0625 19.3794-31.0625L69.3267-31.0625C75.4375-31.0625 78.9825-34.5679 78.9825-40.6934L78.9825-59.1411C78.9825-65.2212 75.4375-68.7266 69.3267-68.7266ZM11.9834-40.6763L11.9834-59.1582C11.9834-64.0474 14.5357-66.6303 19.3828-66.6303L69.3233-66.6303C74.2124-66.6303 76.7646-64.0474 76.7646-59.1582L76.7646-40.6763C76.7646-35.7871 74.2124-33.1553 69.3233-33.1553L19.3828-33.1553C14.5357-33.1553 11.9834-35.7871 11.9834-40.6763Z" data-clipstroke-keyframes="0 0 0 2.4831738 2.516742 0 1 2.9831536 2.0167625 0 0 3.4832654 3.5168521 0 1 3.983245 3.0168724"/>
  </g>
 </g>
</svg>
