<?xml version="1.0" encoding="UTF-8"?>
<!--Generator: Apple Native CoreSVG 341-->
<!DOCTYPE svg
PUBLIC "-//W3C//DTD SVG 1.1//EN"
       "http://www.w3.org/Graphics/SVG/1.1/DTD/svg11.dtd">
<svg version="1.1" xmlns="http://www.w3.org/2000/svg" xmlns:xlink="http://www.w3.org/1999/xlink" viewBox="0 0 3300 2200">
 <g id="Notes">
  <rect height="2200" id="artboard" style="fill:white;opacity:1" width="3300" x="0" y="0"/>
  <line style="fill:none;stroke:black;opacity:1;stroke-width:0.5;" x1="263" x2="3036" y1="292" y2="292"/>
  <text style="stroke:none;fill:black;font-family:sans-serif;font-size:13;font-weight:bold;" transform="matrix(1 0 0 1 263 322)">Weight/Scale Variations</text>
  <text style="stroke:none;fill:black;font-family:sans-serif;font-size:13;text-anchor:middle;" transform="matrix(1 0 0 1 559.711 322)">Ultralight</text>
  <text style="stroke:none;fill:black;font-family:sans-serif;font-size:13;text-anchor:middle;" transform="matrix(1 0 0 1 856.422 322)">Thin</text>
  <text style="stroke:none;fill:black;font-family:sans-serif;font-size:13;text-anchor:middle;" transform="matrix(1 0 0 1 1153.13 322)">Light</text>
  <text style="stroke:none;fill:black;font-family:sans-serif;font-size:13;text-anchor:middle;" transform="matrix(1 0 0 1 1449.84 322)">Regular</text>
  <text style="stroke:none;fill:black;font-family:sans-serif;font-size:13;text-anchor:middle;" transform="matrix(1 0 0 1 1746.56 322)">Medium</text>
  <text style="stroke:none;fill:black;font-family:sans-serif;font-size:13;text-anchor:middle;" transform="matrix(1 0 0 1 2043.27 322)">Semibold</text>
  <text style="stroke:none;fill:black;font-family:sans-serif;font-size:13;text-anchor:middle;" transform="matrix(1 0 0 1 2339.98 322)">Bold</text>
  <text style="stroke:none;fill:black;font-family:sans-serif;font-size:13;text-anchor:middle;" transform="matrix(1 0 0 1 2636.69 322)">Heavy</text>
  <text style="stroke:none;fill:black;font-family:sans-serif;font-size:13;text-anchor:middle;" transform="matrix(1 0 0 1 2933.4 322)">Black</text>
  <line style="fill:none;stroke:black;opacity:1;stroke-width:0.5;" x1="263" x2="3036" y1="1903" y2="1903"/>
  <g transform="matrix(0.2 0 0 0.2 263 1933)">
   <path d="m46.2402 4.15039c21.7773 0 39.4531-17.627 39.4531-39.4043s-17.6758-39.4043-39.4531-39.4043c-21.7285 0-39.4043 17.627-39.4043 39.4043s17.6758 39.4043 39.4043 39.4043Zm0-7.42188c-17.6758 0-31.9336-14.3066-31.9336-31.9824s14.2578-31.9824 31.9336-31.9824 31.9824 14.3066 31.9824 31.9824-14.3066 31.9824-31.9824 31.9824Zm3.61328-17.7734v-28.4668c0-2.24609-1.46484-3.75977-3.71094-3.75977-2.14844 0-3.61328 1.51367-3.61328 3.75977v28.4668c0 2.19727 1.46484 3.71094 3.61328 3.71094 2.24609 0 3.71094-1.51367 3.71094-3.71094Zm-17.8223-10.5957h28.418c2.19727 0 3.71094-1.46484 3.71094-3.61328 0-2.19727-1.51367-3.71094-3.71094-3.71094h-28.418c-2.24609 0-3.75977 1.51367-3.75977 3.71094 0 2.14844 1.51367 3.61328 3.75977 3.61328Z"/>
  </g>
  <g transform="matrix(0.2 0 0 0.2 281.506 1933)">
   <path d="m58.5449 14.5508c27.4902 0 49.8047-22.3145 49.8047-49.8047s-22.3145-49.8047-49.8047-49.8047-49.8047 22.3145-49.8047 49.8047 22.3145 49.8047 49.8047 49.8047Zm0-8.30078c-22.9492 0-41.5039-18.5547-41.5039-41.5039s18.5547-41.5039 41.5039-41.5039 41.5039 18.5547 41.5039 41.5039-18.5547 41.5039-41.5039 41.5039Zm4.05273-23.0957v-36.9141c0-2.49023-1.70898-4.19922-4.15039-4.19922-2.39258 0-4.05273 1.70898-4.05273 4.19922v36.9141c0 2.44141 1.66016 4.15039 4.05273 4.15039 2.44141 0 4.15039-1.66016 4.15039-4.15039Zm-22.5586-14.4043h36.9629c2.44141 0 4.15039-1.61133 4.15039-4.00391 0-2.44141-1.70898-4.15039-4.15039-4.15039h-36.9629c-2.49023 0-4.15039 1.70898-4.15039 4.15039 0 2.39258 1.66016 4.00391 4.15039 4.00391Z"/>
  </g>
  <g transform="matrix(0.2 0 0 0.2 304.924 1933)">
   <path d="m74.8535 28.3203c35.1074 0 63.623-28.4668 63.623-63.5742s-28.5156-63.623-63.623-63.623-63.5742 28.5156-63.5742 63.623 28.4668 63.5742 63.5742 63.5742Zm0-9.08203c-30.127 0-54.4922-24.3652-54.4922-54.4922s24.3652-54.4922 54.4922-54.4922 54.4922 24.3652 54.4922 54.4922-24.3652 54.4922-54.4922 54.4922Zm4.44336-30.3223v-48.4863c0-2.73438-1.85547-4.63867-4.54102-4.63867-2.58789 0-4.44336 1.9043-4.44336 4.63867v48.4863c0 2.68555 1.85547 4.58984 4.44336 4.58984 2.68555 0 4.54102-1.85547 4.54102-4.58984Zm-28.7109-19.7754h48.4863c2.68555 0 4.58984-1.80664 4.58984-4.39453 0-2.73438-1.85547-4.58984-4.58984-4.58984h-48.4863c-2.73438 0-4.58984 1.85547-4.58984 4.58984 0 2.58789 1.85547 4.39453 4.58984 4.39453Z"/>
  </g>
  <text style="stroke:none;fill:black;font-family:sans-serif;font-size:13;font-weight:bold;" transform="matrix(1 0 0 1 263 1953)">Design Variations</text>
  <text style="stroke:none;fill:black;font-family:sans-serif;font-size:13;" transform="matrix(1 0 0 1 263 1971)">Symbols are supported in up to nine weights and three scales.</text>
  <text style="stroke:none;fill:black;font-family:sans-serif;font-size:13;" transform="matrix(1 0 0 1 263 1989)">For optimal layout with text and other symbols, vertically align</text>
  <text style="stroke:none;fill:black;font-family:sans-serif;font-size:13;" transform="matrix(1 0 0 1 263 2007)">symbols with the adjacent text.</text>
  <line style="fill:none;stroke:#00AEEF;stroke-width:0.5;opacity:1.0;" x1="776" x2="776" y1="1919" y2="1933"/>
  <g transform="matrix(0.2 0 0 0.2 776 1933)">
   <path d="m16.5527 0.78125c2.58789 0 3.85742-0.976562 4.78516-3.71094l20.5566-57.5195h0.244141l20.6055 57.5195c0.927734 2.73438 2.19727 3.71094 4.73633 3.71094 2.58789 0 4.24805-1.5625 4.24805-4.00391 0-0.830078-0.146484-1.61133-0.537109-2.63672l-22.9004-60.9863c-1.12305-2.97852-3.125-4.49219-6.25-4.49219-3.02734 0-5.07812 1.46484-6.15234 4.44336l-22.9004 61.084c-0.390625 1.02539-0.537109 1.80664-0.537109 2.63672 0 2.44141 1.5625 3.95508 4.10156 3.95508Zm10.2051-20.9473h30.6641c2.00195 0 3.66211-1.66016 3.66211-3.66211 0-2.05078-1.66016-3.66211-3.66211-3.66211h-30.6641c-2.00195 0-3.66211 1.61133-3.66211 3.66211 0 2.00195 1.66016 3.66211 3.66211 3.66211Z"/>
  </g>
  <line style="fill:none;stroke:#00AEEF;stroke-width:0.5;opacity:1.0;" x1="792.836" x2="792.836" y1="1919" y2="1933"/>
  <text style="stroke:none;fill:black;font-family:sans-serif;font-size:13;font-weight:bold;" transform="matrix(1 0 0 1 776 1953)">Margins</text>
  <text style="stroke:none;fill:black;font-family:sans-serif;font-size:13;" transform="matrix(1 0 0 1 776 1971)">Leading and trailing margins on the left and right side of each symbol</text>
  <text style="stroke:none;fill:black;font-family:sans-serif;font-size:13;" transform="matrix(1 0 0 1 776 1989)">can be adjusted by modifying the x-location of the margin guidelines.</text>
  <text style="stroke:none;fill:black;font-family:sans-serif;font-size:13;" transform="matrix(1 0 0 1 776 2007)">Modifications are automatically applied proportionally to all</text>
  <text style="stroke:none;fill:black;font-family:sans-serif;font-size:13;" transform="matrix(1 0 0 1 776 2025)">scales and weights.</text>
  <g transform="matrix(0.2 0 0 0.2 1289 1933)">
   <path d="m14.209 13.1348 7.86133 7.86133c4.29688 4.39453 9.32617 4.10156 13.8672-1.02539l60.6934-68.2129-4.88281-4.88281-60.2539 67.6758c-1.80664 1.95312-3.4668 2.44141-5.81055 0.0976562l-5.17578-5.12695c-2.29492-2.29492-1.80664-3.95508 0.195312-5.81055l67.4805-62.1582-4.88281-4.83398-68.0664 62.5977c-4.98047 4.58984-5.32227 9.47266-1.02539 13.8184Zm44.873-97.4609c-2.05078 2.00195-2.24609 4.88281-1.07422 6.78711 1.12305 1.80664 3.4668 3.02734 6.5918 2.24609 5.85938-1.66016 12.5977-2.39258 18.8965 0.927734l-2.68555 7.12891c-1.61133 4.00391-0.732422 6.88477 1.70898 9.42383l10.2539 10.3027c2.34375 2.39258 4.54102 2.44141 7.08008 1.95312l4.44336-0.732422 2.58789 2.53906-0.195312 2.24609c-0.0976562 2.29492 0.537109 4.29688 2.7832 6.49414l3.36914 3.32031c2.29492 2.29492 5.51758 2.49023 7.8125 0.195312l12.9883-13.0371c2.29492-2.34375 2.14844-5.37109-0.195312-7.66602l-3.41797-3.41797c-2.19727-2.19727-4.05273-3.02734-6.34766-2.88086l-2.34375 0.244141-2.44141-2.44141 1.02539-4.6875c0.634766-2.73438-0.244141-4.98047-2.88086-7.61719l-11.2793-11.1816c-12.9395-12.8418-35.5957-11.0352-46.6797-0.146484Zm7.08008 2.05078c8.78906-6.39648 25.9766-5.66406 33.6914 1.95312l12.3047 12.207c1.02539 1.02539 1.2207 1.80664 0.927734 3.32031l-1.46484 6.64062 6.73828 6.68945 4.39453-0.244141c1.12305-0.0488281 1.51367 0.0488281 2.34375 0.878906l2.53906 2.49023-10.8398 10.8398-2.49023-2.49023c-0.830078-0.878906-0.976562-1.2207-0.927734-2.39258l0.292969-4.3457-6.68945-6.73828-6.83594 1.17188c-1.41602 0.292969-2.05078 0.195312-3.17383-0.878906l-8.93555-8.88672c-1.07422-1.02539-1.17188-1.70898-0.488281-3.36914l4.58984-11.4746c-6.10352-6.34766-17.041-7.51953-25.5859-4.58984-0.683594 0.244141-0.927734-0.390625-0.390625-0.78125Z"/>
  </g>
  <text style="stroke:none;fill:black;font-family:sans-serif;font-size:13;font-weight:bold;" transform="matrix(1 0 0 1 1289 1953)">Exporting</text>
  <text style="stroke:none;fill:black;font-family:sans-serif;font-size:13;" transform="matrix(1 0 0 1 1289 1971)">Symbols should be outlined when exporting to ensure the</text>
  <text style="stroke:none;fill:black;font-family:sans-serif;font-size:13;" transform="matrix(1 0 0 1 1289 1989)">design is preserved when submitting to Xcode.</text>
  <text id="template-version" style="stroke:none;fill:black;font-family:sans-serif;font-size:13;text-anchor:end;" transform="matrix(1 0 0 1 3036 1933)">Template v.2.0</text>
  <text style="stroke:none;fill:black;font-family:sans-serif;font-size:13;text-anchor:end;" transform="matrix(1 0 0 1 3036 1951)">Requires Xcode 12 or greater</text>
  <text id="descriptive-name" style="stroke:none;fill:black;font-family:sans-serif;font-size:13;text-anchor:end;" transform="matrix(1 0 0 1 3036 1969)">Generated from x.square.fill</text>
  <text style="stroke:none;fill:black;font-family:sans-serif;font-size:13;text-anchor:end;" transform="matrix(1 0 0 1 3036 1987)">Typeset at 100.0 points</text>
  <text style="stroke:none;fill:black;font-family:sans-serif;font-size:13;" transform="matrix(1 0 0 1 263 726)">Small</text>
  <text style="stroke:none;fill:black;font-family:sans-serif;font-size:13;" transform="matrix(1 0 0 1 263 1156)">Medium</text>
  <text style="stroke:none;fill:black;font-family:sans-serif;font-size:13;" transform="matrix(1 0 0 1 263 1586)">Large</text>
 </g>
 <g id="Guides">
  <g id="H-reference" style="fill:#27AAE1;stroke:none;" transform="matrix(1 0 0 1 339 696)">
   <path d="M0.993654 0L3.63775 0L29.3281-67.1323L30.0303-67.1323L30.0303-70.459L28.1226-70.459ZM11.6885-24.4799L46.9815-24.4799L46.2315-26.7285L12.4385-26.7285ZM55.1196 0L57.7637 0L30.6382-70.459L29.4326-70.459L29.4326-67.1323Z"/>
  </g>
  <line id="Baseline-S" style="fill:none;stroke:#27AAE1;opacity:1;stroke-width:0.5;" x1="263" x2="3036" y1="696" y2="696"/>
  <line id="Capline-S" style="fill:none;stroke:#27AAE1;opacity:1;stroke-width:0.5;" x1="263" x2="3036" y1="625.541" y2="625.541"/>
  <g id="H-reference" style="fill:#27AAE1;stroke:none;" transform="matrix(1 0 0 1 339 1126)">
   <path d="M0.993654 0L3.63775 0L29.3281-67.1323L30.0303-67.1323L30.0303-70.459L28.1226-70.459ZM11.6885-24.4799L46.9815-24.4799L46.2315-26.7285L12.4385-26.7285ZM55.1196 0L57.7637 0L30.6382-70.459L29.4326-70.459L29.4326-67.1323Z"/>
  </g>
  <line id="Baseline-M" style="fill:none;stroke:#27AAE1;opacity:1;stroke-width:0.5;" x1="263" x2="3036" y1="1126" y2="1126"/>
  <line id="Capline-M" style="fill:none;stroke:#27AAE1;opacity:1;stroke-width:0.5;" x1="263" x2="3036" y1="1055.54" y2="1055.54"/>
  <g id="H-reference" style="fill:#27AAE1;stroke:none;" transform="matrix(1 0 0 1 339 1556)">
   <path d="M0.993654 0L3.63775 0L29.3281-67.1323L30.0303-67.1323L30.0303-70.459L28.1226-70.459ZM11.6885-24.4799L46.9815-24.4799L46.2315-26.7285L12.4385-26.7285ZM55.1196 0L57.7637 0L30.6382-70.459L29.4326-70.459L29.4326-67.1323Z"/>
  </g>
  <line id="Baseline-L" style="fill:none;stroke:#27AAE1;opacity:1;stroke-width:0.5;" x1="263" x2="3036" y1="1556" y2="1556"/>
  <line id="Capline-L" style="fill:none;stroke:#27AAE1;opacity:1;stroke-width:0.5;" x1="263" x2="3036" y1="1485.54" y2="1485.54"/>
  <line id="right-margin" style="fill:none;stroke:#00AEEF;stroke-width:0.5;opacity:1.0;" x1="1507.24" x2="1507.24" y1="1030.79" y2="1150.12"/>
  <line id="left-margin" style="fill:none;stroke:#00AEEF;stroke-width:0.5;opacity:1.0;" x1="1392.45" x2="1392.45" y1="1030.79" y2="1150.12"/>
 </g>
 <g id="Symbols">
  <g id="Black-L" transform="matrix(1 0 0 1 2855.72 1556)">
   <path d="M39.8556 26.3617L115.513 26.3617C130.677 26.3617 139.284 17.7518 139.284 2.65254L139.284-73.1503C139.284-88.2496 130.677-96.8595 115.513-96.8595L39.8556-96.8595C24.7123-96.8595 16.084-88.252 16.084-73.1503L16.084 2.65254C16.084 17.7542 24.7123 26.3617 39.8556 26.3617ZM60.1803-4.44126C54.9956-4.44126 51.4412-7.83603 51.4412-12.7055C51.4412-15.0344 52.2277-17.0412 54.1165-19.5037L66.1524-35.3847L54.4115-50.9638C52.4603-53.5096 51.6529-55.5152 51.6529-57.8858C51.6529-62.7796 55.2698-66.2368 60.4949-66.2368C64.4218-66.2368 66.5547-64.7765 69.5093-60.1136L78.304-46.6185L78.9177-46.6185L87.2615-60.0928C89.9616-64.6597 92.2113-66.2368 96.2122-66.2368C101.44-66.2368 104.993-62.8409 104.993-57.9506C104.993-55.6841 104.186-53.5953 102.276-51.1328L90.2817-35.2806L102.252-19.5894C104.14-17.1269 104.948-15.0992 104.948-12.7703C104.948-7.83603 101.394-4.44126 96.1057-4.44126C92.1037-4.44126 89.8956-6.01719 87.1121-10.627L78.6263-24.0792L78.0334-24.0792L69.1935-10.627C66.1764-5.90038 64.0863-4.44126 60.1803-4.44126Z"/>
  </g>
  <g id="Heavy-L" transform="matrix(1 0 0 1 2559.92 1556)">
   <path d="M38.8315 25.46L114.705 25.46C129.348 25.46 137.453 17.3442 137.453 2.80309L137.453-73.2821C137.453-87.8232 129.348-95.939 114.705-95.939L38.8315-95.939C24.2188-95.939 16.084-87.8344 16.084-73.2821L16.084 2.80309C16.084 17.3554 24.2188 25.46 38.8315 25.46ZM58.8608-4.71708C54.3053-4.71708 51.1238-7.74342 51.1238-12.0343C51.1238-14.1085 51.7912-15.8318 53.4197-17.9794L66.5292-35.5528L53.8591-52.6005C52.1401-54.8689 51.4424-56.5866 51.4424-58.7211C51.4424-63.059 54.7146-66.1759 59.3248-66.1759C62.8099-66.1759 64.7199-64.8844 67.3006-60.8606L77.3349-45.7232L77.8797-45.7232L87.5122-60.8304C89.8843-64.7951 91.8836-66.1759 95.3919-66.1759C100.013-66.1759 103.189-63.144 103.189-58.8229C103.189-56.8393 102.492-55.0008 100.833-52.8532L87.7839-35.4019L100.786-18.1114C102.414-15.9638 103.112-14.2102 103.112-12.1361C103.112-7.74342 99.9362-4.71708 95.2298-4.71708C91.7158-4.71708 89.7769-6.09227 87.2841-10.123L77.4572-25.1944L76.9426-25.1944L66.831-10.123C64.1598-6.00303 62.3157-4.71708 58.8608-4.71708Z"/>
  </g>
  <g id="Bold-L" transform="matrix(1 0 0 1 2264.35 1556)">
   <path d="M37.5412 24.3309L113.714 24.3309C127.667 24.3309 135.171 16.7998 135.171 2.98757L135.171-73.451C135.171-87.2633 127.667-94.7943 113.714-94.7943L37.5412-94.7943C23.6265-94.7943 16.084-87.2897 16.084-73.451L16.084 2.98757C16.084 16.8263 23.6265 24.3309 37.5412 24.3309ZM57.3285-5.09255C53.5492-5.09255 50.8436-7.65054 50.8436-11.2193C50.8436-12.9709 51.3725-14.3558 52.6857-16.119L67.0202-35.7007L53.2572-54.5545C51.83-56.4697 51.2632-57.8413 51.2632-59.6689C51.2632-63.3154 54.0827-65.9873 57.9247-65.9873C60.8568-65.9873 62.4828-64.9033 64.6024-61.6561L76.1064-44.5049L76.5741-44.5049L87.7526-61.6181C89.7174-64.8449 91.4018-65.9873 94.3031-65.9873C98.1716-65.9873 100.864-63.4161 100.864-59.8093C100.864-58.1717 100.297-56.6481 98.9459-54.8849L84.6874-35.5107L98.8682-16.2974C100.181-14.5342 100.748-13.1114 100.748-11.3598C100.748-7.65054 98.0559-5.09255 94.0867-5.09255C91.1722-5.09255 89.5638-6.22176 87.447-9.53778L76.0423-26.5998L75.6126-26.5998L63.9929-9.53778C61.7593-6.16336 60.2225-5.09255 57.3285-5.09255Z"/>
  </g>
  <g id="Semibold-L" transform="matrix(1 0 0 1 1968.43 1556)">
   <path d="M36.6517 23.5524L113.03 23.5524C126.507 23.5524 133.598 16.4246 133.598 3.11475L133.598-73.5674C133.598-86.8772 126.507-94.0051 113.03-94.0051L36.6517-94.0051C23.2182-94.0051 16.084-86.9142 16.084-73.5674L16.084 3.11475C16.084 16.4615 23.2182 23.5524 36.6517 23.5524ZM56.2721-5.35139C53.028-5.35139 50.6505-7.5865 50.6505-10.6575C50.6505-12.1867 51.0838-13.3382 52.1797-14.8365L67.3587-35.8026L52.8422-55.9016C51.6163-57.5733 51.1396-58.7063 51.1396-60.3223C51.1396-63.4921 53.6472-65.8573 56.9596-65.8573C59.5103-65.8573 60.9405-64.9164 62.7422-62.2045L75.2594-43.6649L75.674-43.6649L87.9183-62.1611C89.6024-64.8792 91.0697-65.8573 93.5524-65.8573C96.9018-65.8573 99.2608-63.6037 99.2608-60.4894C99.2608-59.0902 98.7841-57.7837 97.6449-56.2855L82.5526-35.5858L97.5461-15.0469C98.642-13.5487 99.1186-12.3538 99.1186-10.8245C99.1186-7.5865 96.7596-5.35139 93.2986-5.35139C90.7975-5.35139 89.4169-6.31103 87.5593-9.13435L75.0669-27.5687L74.6957-27.5687L62.0363-9.13435C60.1045-6.27389 58.7795-5.35139 56.2721-5.35139Z"/>
  </g>
  <g id="Medium-L" transform="matrix(1 0 0 1 1672.31 1556)">
   <path d="M35.9773 22.9622L112.512 22.9622C125.628 22.9622 132.405 16.14 132.405 3.21118L132.405-73.6557C132.405-86.5846 125.628-93.4067 112.512-93.4067L35.9773-93.4067C22.9086-93.4067 16.084-86.6295 16.084-73.6557L16.084 3.21118C16.084 16.185 22.9086 22.9622 35.9773 22.9622ZM55.4712-5.54765C52.6327-5.54765 50.5041-7.53795 50.5041-10.2315C50.5041-11.5921 50.8649-12.5667 51.796-13.864L67.6153-35.8799L52.5276-56.923C51.4542-58.4101 51.0459-59.3622 51.0459-60.8178C51.0459-63.6261 53.3169-65.7588 56.2278-65.7588C58.4894-65.7588 59.7711-64.9262 61.3318-62.6203L74.6172-43.0281L74.9915-43.0281L88.044-62.5728C89.5152-64.9052 90.8179-65.7588 92.9833-65.7588C95.9391-65.7588 98.0453-63.746 98.0453-61.0051C98.0453-59.7867 97.637-58.6448 96.6584-57.3475L80.934-35.6427L96.5436-14.0987C97.4747-12.8014 97.883-11.7794 97.883-10.4187C97.883-7.53795 95.7768-5.54765 92.7011-5.54765C90.5133-5.54765 89.3055-6.37872 87.6445-8.82845L74.3273-28.3033L74.0005-28.3033L60.5528-8.82845C58.8497-6.3577 57.6854-5.54765 55.4712-5.54765Z"/>
  </g>
  <g id="Regular-L" transform="matrix(1 0 0 1 1376.38 1556)">
   <path d="M35.0976 22.1923L111.836 22.1923C124.482 22.1923 130.85 15.7689 130.85 3.33696L130.85-73.7708C130.85-86.2028 124.482-92.6262 111.836-92.6262L35.0976-92.6262C22.5048-92.6262 16.084-86.2581 16.084-73.7708L16.084 3.33696C16.084 15.8242 22.5048 22.1923 35.0976 22.1923ZM54.4264-5.80365C52.1172-5.80365 50.3131-7.47462 50.3131-9.67577C50.3131-10.8166 50.5794-11.5603 51.2956-12.5956L67.9501-35.9807L52.1172-58.2553C51.2428-59.5016 50.9237-60.2177 50.9237-61.464C50.9237-63.8009 52.8861-65.6302 55.2732-65.6302C57.1578-65.6302 58.2458-64.9392 59.4921-63.1627L73.7796-42.1974L74.1013-42.1974L88.2079-63.1099C89.4015-64.9392 90.4895-65.6302 92.2409-65.6302C94.6833-65.6302 96.4598-63.9316 96.4598-61.6776C96.4598-60.6951 96.1406-59.768 95.3717-58.7327L78.8227-35.7169L95.236-12.862C95.9521-11.8267 96.2713-11.0302 96.2713-9.88937C96.2713-7.47462 94.4948-5.80365 91.9217-5.80365C90.1427-5.80365 89.1602-6.46701 87.7556-8.42945L73.3626-29.2616L73.0937-29.2616L58.6177-8.42945C57.2131-6.46701 56.2582-5.80365 54.4264-5.80365Z"/>
  </g>
  <g id="Light-L" transform="matrix(1 0 0 1 1080.5 1556)">
   <path d="M34.067 21.3335L111.206 21.3335C123.088 21.3335 129.189 15.1391 129.189 3.45147L129.189-73.9235C129.189-85.6111 123.088-91.8055 111.206-91.8055L34.067-91.8055C22.2185-91.8055 16.084-85.7046 16.084-73.9235L16.084 3.45147C16.084 15.2326 22.2185 21.3335 34.067 21.3335ZM54.0256-6.28078C52.2317-6.28078 50.8474-7.55096 50.8474-9.21772C50.8474-10.0913 51.0756-10.6824 51.62-11.4886L68.4463-35.6945L52.2317-59.1332C51.5863-60.0742 51.3245-60.6185 51.3245-61.5595C51.3245-63.4001 52.8098-64.7713 54.6243-64.7713C56.089-64.7713 56.9289-64.2139 57.8699-62.8764L72.749-40.6515L73.0707-40.6515L87.9216-62.8427C88.8289-64.2139 89.6688-64.7713 91.0194-64.7713C92.9274-64.7713 94.265-63.4544 94.265-61.754C94.265-60.9814 94.0031-60.3024 93.425-59.4961L76.6661-35.5261L93.2511-11.7168C93.7955-10.9106 94.0574-10.2858 94.0574-9.41224C94.0574-7.55096 92.7198-6.28078 90.7575-6.28078C89.3602-6.28078 88.5876-6.79146 87.5457-8.27677L72.5992-30.3876L72.3112-30.3876L57.2245-8.27677C56.1825-6.79146 55.4567-6.28078 54.0256-6.28078Z"/>
  </g>
  <g id="Thin-L" transform="matrix(1 0 0 1 784.884 1556)">
   <path d="M32.7039 20.1976L110.373 20.1976C121.246 20.1976 126.993 14.3061 126.993 3.60292L126.993-74.1255C126.993-84.8286 121.246-90.7201 110.373-90.7201L32.7039-90.7201C21.8399-90.7201 16.084-84.9726 16.084-74.1255L16.084 3.60292C16.084 14.4501 21.8399 20.1976 32.7039 20.1976ZM53.4956-6.91183C52.3832-6.91183 51.5542-7.65192 51.5542-8.61192C51.5542-9.13212 51.7319-9.52129 52.0491-10.0246L69.1026-35.3158L52.3832-60.2943C52.0407-60.8314 51.8545-61.1486 51.8545-61.6857C51.8545-62.8701 52.7088-63.6355 53.7661-63.6355C54.6755-63.6355 55.1872-63.2547 55.7243-62.4978L71.3859-38.6069L71.7076-38.6069L87.543-62.4893C88.0716-63.2547 88.5834-63.6355 89.4039-63.6355C90.6052-63.6355 91.3622-62.8234 91.3622-61.855C91.3622-61.3601 91.176-61.0091 90.8504-60.5058L73.8137-35.2736L90.626-10.2023C90.9432-9.699 91.1293-9.3014 91.1293-8.78119C91.1293-7.65192 90.3724-6.91183 89.2178-6.91183C88.3253-6.91183 87.8304-7.22057 87.268-8.07484L71.5895-31.8769L71.2763-31.8769L55.3818-8.07484C54.8194-7.22057 54.3965-6.91183 53.4956-6.91183Z"/>
  </g>
  <g id="Ultralight-L" transform="matrix(1 0 0 1 488.735 1556)">
   <path d="M32.0058 19.6158L109.947 19.6158C120.302 19.6158 125.868 13.8795 125.868 3.6805L125.868-74.2289C125.868-84.4278 120.302-90.1642 109.947-90.1642L32.0058-90.1642C21.646-90.1642 16.084-84.5977 16.084-74.2289L16.084 3.6805C16.084 14.0493 21.646 19.6158 32.0058 19.6158ZM53.2241-7.23504C52.4607-7.23504 51.9162-7.70364 51.9162-8.30163C51.9162-8.64083 52.0681-8.92657 52.2689-9.27476L69.4388-35.1219L52.4607-60.8891C52.2734-61.2193 52.126-61.4201 52.126-61.7503C52.126-62.5986 52.6571-63.0537 53.3265-63.0537C53.9514-63.0537 54.2951-62.7634 54.6254-62.3038L70.6878-37.5597L71.0095-37.5597L87.3491-62.3083C87.6838-62.7634 88.0275-63.0537 88.5765-63.0537C89.4157-63.0537 89.8753-62.5002 89.8753-61.9067C89.8753-61.554 89.728-61.3711 89.5316-61.0229L72.3528-35.1444L89.2814-9.42661C89.4822-9.07842 89.6296-8.79718 89.6296-8.45797C89.6296-7.70364 89.17-7.23504 88.4291-7.23504C87.7952-7.23504 87.4425-7.44036 87.1258-7.97141L71.0723-32.6396L70.7462-32.6396L54.438-7.97141C54.1213-7.44036 53.8535-7.23504 53.2241-7.23504Z"/>
  </g>
  <g id="Black-M" transform="matrix(1 0 0 1 2872.54 1126)">
   <path d="M31.6184 13.1464L90.1011 13.1464C102.194 13.1464 109.259 6.08236 109.259-5.99457L109.259-64.5157C109.259-76.5927 102.194-83.6567 90.1011-83.6567L31.6184-83.6567C19.5311-83.6567 12.4609-76.5921 12.4609-64.5157L12.4609-5.99457C12.4609 6.08179 19.5311 13.1464 31.6184 13.1464ZM47.7039-11.2042C43.2161-11.2042 40.1988-14.0966 40.1988-18.2939C40.1988-20.281 40.9054-22.0587 42.5691-24.2061L50.9945-35.1665L42.6452-46.1319C40.965-48.3012 40.2529-50.0792 40.2529-52.0773C40.2529-56.2793 43.2867-59.1882 47.7857-59.1882C51.1508-59.1882 52.9611-57.9299 55.5302-53.8275L61.3586-44.6131L61.8933-44.6131L67.3508-53.822C69.686-57.8157 71.6105-59.1882 75.0791-59.1882C79.5775-59.1882 82.5951-56.296 82.5951-52.0932C82.5951-50.1225 81.8831-48.3226 80.2138-46.1752L71.7994-35.1391L80.2092-24.2275C81.8729-22.0801 82.585-20.2969 82.585-18.3098C82.585-14.0966 79.5674-11.2042 75.0522-11.2042C71.5839-11.2042 69.6703-12.5769 67.3132-16.5813L61.8164-25.785L61.2872-25.785L55.4487-16.5813C52.8631-12.4627 51.0635-11.2042 47.7039-11.2042Z"/>
  </g>
  <g id="Heavy-M" transform="matrix(1 0 0 1 2576.65 1126)">
   <path d="M30.7123 12.3442L89.37 12.3442C101.024 12.3442 107.621 5.74196 107.621-5.85796L107.621-64.6305C107.621-76.2304 101.024-82.8326 89.37-82.8326L30.7123-82.8326C19.075-82.8326 12.4609-76.235 12.4609-64.6305L12.4609-5.85796C12.4609 5.74651 19.075 12.3442 30.7123 12.3442ZM46.451-11.4298C42.5308-11.4298 39.8392-13.999 39.8392-17.6801C39.8392-19.4428 40.4329-20.9574 41.858-22.8181L51.317-35.3572L42.0946-47.6509C40.6202-49.5772 40.0102-51.0896 40.0102-52.8851C40.0102-56.5894 42.7509-59.2079 46.7017-59.2079C49.6736-59.2079 51.289-58.1022 53.5207-54.5841L60.5063-43.8804L60.9737-43.8804L67.6224-54.5677C69.6632-58.015 71.3658-59.2079 74.3899-59.2079C78.3452-59.2079 81.0345-56.6364 81.0345-52.9388C81.0345-51.2254 80.4244-49.6474 78.9829-47.7867L69.5567-35.2752L78.9596-22.8883C80.3848-21.0276 80.9948-19.4965 80.9948-17.7339C80.9948-13.999 78.3055-11.4298 74.3033-11.4298C71.2769-11.4298 69.6071-12.6204 67.5007-16.1027L60.7439-26.7713L60.293-26.7713L53.2677-16.1027C50.9868-12.5331 49.4065-11.4298 46.451-11.4298Z"/>
  </g>
  <g id="Bold-M" transform="matrix(1 0 0 1 2280.85 1126)">
   <path d="M29.6986 11.4467L88.5521 11.4467C99.7145 11.4467 105.79 5.36118 105.79-5.70513L105.79-64.7589C105.79-75.8252 99.7145-81.9107 88.5521-81.9107L29.6986-81.9107C18.5648-81.9107 12.4609-75.8355 12.4609-64.7589L12.4609-5.70513C12.4609 5.37145 18.5648 11.4467 29.6986 11.4467ZM45.0494-11.6822C41.7641-11.6822 39.437-13.8898 39.437-16.9935C39.437-18.505 39.9043-19.7255 41.0625-21.2655L51.6778-35.5706L41.4787-49.3501C40.2346-51.0045 39.7386-52.2199 39.7386-53.7887C39.7386-56.9363 42.1516-59.2299 45.489-59.2299C48.0212-59.2299 49.4185-58.295 51.2728-55.4305L59.553-43.0609L59.945-43.0609L67.9261-55.4019C69.6376-58.2379 71.0921-59.2299 73.619-59.2299C76.9666-59.2299 79.2886-57.0171 79.2886-53.8848C79.2886-52.4591 78.7927-51.1293 77.6058-49.5893L67.0478-35.4275L77.5618-21.3902C78.72-19.8502 79.216-18.6012 79.216-17.0896C79.216-13.8898 76.894-11.6822 73.4656-11.6822C70.9335-11.6822 69.5364-12.669 67.7104-15.5674L59.5442-27.8746L59.1809-27.8746L50.8281-15.5674C48.8879-12.6119 47.553-11.6822 45.0494-11.6822Z"/>
  </g>
  <g id="Semibold-M" transform="matrix(1 0 0 1 1984.77 1126)">
   <path d="M28.9998 10.828L87.9882 10.828C98.812 10.828 104.527 5.09867 104.527-5.59978L104.527-64.8474C104.527-75.5459 98.812-81.2752 87.9882-81.2752L28.9998-81.2752C18.2131-81.2752 12.4609-75.5601 12.4609-64.8474L12.4609-5.59978C12.4609 5.11288 18.2131 10.828 28.9998 10.828ZM44.0831-11.8562C41.2356-11.8562 39.1597-13.8146 39.1597-16.5201C39.1597-17.8586 39.5399-18.8762 40.5141-20.1951L51.9265-35.7177L41.054-50.5215C39.9687-51.9885 39.5514-52.9991 39.5514-54.4117C39.5514-57.1755 41.7385-59.2451 44.653-59.2451C46.882-59.2451 48.129-58.4279 49.7231-56.0141L58.8958-42.4959L59.2358-42.4959L68.1356-55.977C69.6201-58.3916 70.9034-59.2451 73.0875-59.2451C76.0162-59.2451 78.0851-57.2795 78.0851-54.537C78.0851-53.3096 77.6678-52.1509 76.6565-50.832L65.3182-35.5324L76.5982-20.3575C77.5724-19.0386 77.9897-17.9839 77.9897-16.6454C77.9897-13.8146 75.9208-11.8562 72.8881-11.8562C70.6968-11.8562 69.4876-12.7025 67.855-15.1983L58.7172-28.6352L58.4142-28.6352L49.1462-15.1983C47.4409-12.6662 46.2751-11.8562 44.0831-11.8562Z"/>
  </g>
  <g id="Medium-M" transform="matrix(1 0 0 1 1688.54 1126)">
   <path d="M28.47 10.3589L87.5607 10.3589C98.1277 10.3589 103.57 4.89962 103.57-5.51989L103.57-64.9145C103.57-75.3341 98.1277-80.7933 87.5607-80.7933L28.47-80.7933C17.9464-80.7933 12.4609-75.3513 12.4609-64.9145L12.4609-5.51989C12.4609 4.91683 17.9464 10.3589 28.47 10.3589ZM43.3505-11.9881C40.8349-11.9881 38.9494-13.7575 38.9494-16.1611C38.9494-17.3684 39.2636-18.2322 40.0983-19.3835L52.1151-35.8292L40.7321-51.4097C39.7671-52.7347 39.4095-53.5899 39.4095-54.884C39.4095-57.3568 41.4252-59.2566 44.0191-59.2566C46.0182-59.2566 47.1512-58.5287 48.5481-56.4565L58.3974-42.0675L58.698-42.0675L68.2944-56.4131C69.6067-58.5081 70.7603-59.2566 72.6845-59.2566C75.2956-59.2566 77.1725-57.4785 77.1725-55.0315C77.1725-53.9545 76.8148-52.9256 75.9367-51.7743L64.0068-35.612L75.8675-19.5744C76.7022-18.4231 77.0598-17.5159 77.0598-16.3086C77.0598-13.7575 75.183-11.9881 72.4502-11.9881C70.5173-11.9881 69.4506-12.728 67.9646-14.9184L58.0901-29.212L57.8329-29.212L47.8709-14.9184C46.3438-12.7074 45.3062-11.9881 43.3505-11.9881Z"/>
  </g>
  <g id="Regular-M" transform="matrix(1 0 0 1 1392.45 1126)">
   <path d="M27.7789 9.74698L87.003 9.74698C97.235 9.74698 102.321 4.64 102.321-5.4157L102.321-65.0021C102.321-75.0578 97.235-80.1648 87.003-80.1648L27.7789-80.1648C17.5986-80.1648 12.4609-75.0789 12.4609-65.0021L12.4609-5.4157C12.4609 4.6611 17.5986 9.74698 27.7789 9.74698ZM42.3948-12.1602C40.3121-12.1602 38.6751-13.6831 38.6751-15.693C38.6751-16.729 38.9032-17.3923 39.5559-18.3249L52.361-35.9746L40.3121-52.5683C39.5042-53.7078 39.2243-54.3605 39.2243-55.5001C39.2243-57.5934 41.0166-59.2716 43.1922-59.2716C44.8916-59.2716 45.8759-58.6601 47.0155-57.0336L57.7474-41.5087L57.9967-41.5087L68.5015-56.9819C69.5893-58.6601 70.5736-59.2716 72.1589-59.2716C74.3557-59.2716 75.9821-57.7381 75.9821-55.6765C75.9821-54.7957 75.7023-53.936 74.9978-53.0034L62.2962-35.7159L74.9144-18.553C75.5671-17.6204 75.847-16.9054 75.847-15.8693C75.847-13.6831 74.2205-12.1602 71.879-12.1602C70.2832-12.1602 69.4024-12.7611 68.1076-14.5534L57.2721-29.9642L57.0746-29.9642L46.2075-14.5534C44.9127-12.7611 44.0424-12.1602 42.3948-12.1602Z"/>
  </g>
  <g id="Light-M" transform="matrix(1 0 0 1 1096.49 1126)">
   <path d="M26.8549 8.97699L86.4383 8.97699C95.9859 8.97699 100.832 4.07534 100.832-5.31303L100.832-65.139C100.832-74.5273 95.9859-79.429 86.4383-79.429L26.8549-79.429C17.3419-79.429 12.4609-74.5827 12.4609-65.139L12.4609-5.31303C12.4609 4.13066 17.3419 8.97699 26.8549 8.97699ZM42.0355-12.5879C40.4148-12.5879 39.1542-13.7516 39.1542-15.2823C39.1542-16.0788 39.3481-16.6052 39.8468-17.3324L52.8059-35.718L40.4148-53.3554C39.8122-54.2212 39.5836-54.7199 39.5836-55.5857C39.5836-57.234 40.9481-58.5016 42.6105-58.5016C43.9334-58.5016 44.6952-58.0099 45.561-56.777L56.8234-40.1228L57.0727-40.1228L68.2448-56.7423C69.076-58.0099 69.8379-58.5016 71.0638-58.5016C72.7815-58.5016 74.0144-57.3103 74.0144-55.7449C74.0144-55.0523 73.7858-54.4151 73.2525-53.6878L60.3627-35.5448L73.1349-17.5263C73.6336-16.7991 73.8621-16.2381 73.8621-15.4416C73.8621-13.7516 72.6292-12.5879 70.8353-12.5879C69.5817-12.5879 68.8891-13.052 67.9194-14.4165L56.5877-30.9738L56.3731-30.9738L44.9584-14.4165C43.9887-13.052 43.3237-12.5879 42.0355-12.5879Z"/>
  </g>
  <g id="Thin-M" transform="matrix(1 0 0 1 800.76 1126)">
   <path d="M25.6328 7.95861L85.6915 7.95861C94.3339 7.95861 98.8634 3.32853 98.8634-5.17725L98.8634-65.32C98.8634-73.8258 94.3339-78.4559 85.6915-78.4559L25.6328-78.4559C17.0024-78.4559 12.4609-73.9264 12.4609-65.32L12.4609-5.17725C12.4609 3.42911 17.0024 7.95861 25.6328 7.95861ZM41.5603-13.1537C40.5506-13.1537 39.7879-13.8421 39.7879-14.7392C39.7879-15.2189 39.9365-15.5642 40.2315-16.0198L53.3943-35.3785L40.5506-54.3964C40.2195-54.9001 40.0589-55.1951 40.0589-55.6988C40.0589-56.7588 40.8576-57.4832 41.841-57.4832C42.666-57.4832 43.1337-57.1499 43.6374-56.4375L55.6014-38.2897L55.8506-38.2897L67.9054-56.4255C68.3971-57.1499 68.8648-57.4832 69.6155-57.4832C70.6995-57.4832 71.4119-56.7445 71.4119-55.8354C71.4119-55.3918 71.2512-55.0487 70.9442-54.5931L57.8054-35.3185L70.7813-16.1685C71.0763-15.7128 71.237-15.3555 71.237-14.8758C71.237-13.8421 70.5245-13.1537 69.4548-13.1537C68.6538-13.1537 68.2102-13.4367 67.6704-14.2355L55.6824-32.309L55.4452-32.309L43.3064-14.2355C42.7666-13.4367 42.3733-13.1537 41.5603-13.1537Z"/>
  </g>
  <g id="Ultralight-M" transform="matrix(1 0 0 1 504.553 1126)">
   <path d="M25.0069 7.437L85.309 7.437C93.4878 7.437 97.855 2.94602 97.855-5.1077L97.855-65.4127C97.855-73.4665 93.4878-77.9575 85.309-77.9575L25.0069-77.9575C16.8286-77.9575 12.4609-73.5902 12.4609-65.4127L12.4609-5.1077C12.4609 3.06978 16.8286 7.437 25.0069 7.437ZM41.3168-13.4435C40.6201-13.4435 40.1124-13.8885 40.1124-14.461C40.1124-14.7784 40.2379-15.031 40.4286-15.3476L53.6957-35.2047L40.6201-54.9296C40.4282-55.2478 40.3023-55.4385 40.3023-55.7568C40.3023-56.5154 40.8113-56.9616 41.4469-56.9616C42.0169-56.9616 42.3339-56.7094 42.6522-56.2636L54.9755-37.3508L55.2247-37.3508L67.7315-56.2632C68.0493-56.7094 68.3663-56.9616 68.8736-56.9616C69.6331-56.9616 70.0789-56.4548 70.0789-55.8818C70.0789-55.5657 69.953-55.3733 69.7619-55.0567L56.4956-35.2025L69.5758-15.473C69.7665-15.1564 69.8924-14.9034 69.8924-14.586C69.8924-13.8885 69.4466-13.4435 68.7477-13.4435C68.1786-13.4435 67.8624-13.6338 67.5429-14.1427L55.2188-32.9928L54.97-32.9928L42.4602-14.1427C42.1407-13.6338 41.8864-13.4435 41.3168-13.4435Z"/>
  </g>
  <g id="Black-S" transform="matrix(1 0 0 1 2885.5 696)">
   <path d="M25 2.88086L70.8008 2.88086C80.3711 2.88086 86.0352-2.7832 86.0352-12.3535L86.0352-58.1543C86.0352-67.7246 80.3711-73.3887 70.8008-73.3887L25-73.3887C15.4297-73.3887 9.76562-67.7246 9.76562-58.1543L9.76562-12.3535C9.76562-2.7832 15.4297 2.88086 25 2.88086ZM37.7441-16.3574C34.082-16.3574 31.6406-18.7012 31.6406-22.1191C31.6406-23.7305 32.2266-25.1953 33.5938-26.9531L39.8926-35.1074L33.5938-43.3594C32.2266-45.1172 31.6406-46.582 31.6406-48.1934C31.6406-51.6113 34.082-53.9551 37.7441-53.9551C40.4785-53.9551 41.9434-52.9297 44.043-49.5605L48.291-42.7246L48.7305-42.7246L52.6855-49.5605C54.5898-52.832 56.1523-53.9551 58.9844-53.9551C62.6465-53.9551 65.0879-51.6113 65.0879-48.1934C65.0879-46.582 64.502-45.1172 63.1348-43.3594L56.8359-35.1074L63.1348-26.9531C64.502-25.1953 65.0879-23.7305 65.0879-22.1191C65.0879-18.7012 62.6465-16.3574 58.9844-16.3574C56.1523-16.3574 54.5898-17.4805 52.6855-20.752L48.7305-27.5879L48.291-27.5879L44.043-20.752C41.9434-17.3828 40.4785-16.3574 37.7441-16.3574Z"/>
  </g>
  <g id="Heavy-S" transform="matrix(1 0 0 1 2589.39 696)">
   <path d="M24.3431 2.29311L70.2476 2.29311C79.5298 2.29311 84.8251-3.00217 84.8251-12.2498L84.8251-58.235C84.8251-67.4826 79.5298-72.7779 70.2476-72.7779L24.3431-72.7779C15.0724-72.7779 9.76562-67.4826 9.76562-58.235L9.76562-12.2498C9.76562-3.00217 15.0724 2.29311 24.3431 2.29311ZM36.7185-16.4957C33.4828-16.4957 31.2718-18.609 31.2718-21.6466C31.2718-23.0966 31.7656-24.354 32.9484-25.8929L40.1115-35.3033L33.1097-44.5579C31.8924-46.1429 31.3871-47.4003 31.3871-48.8733C31.3871-51.9225 33.6326-54.0703 36.8913-54.0703C39.3376-54.0703 40.6641-53.1602 42.5102-50.2405L47.6802-42.2752L48.062-42.2752L52.9506-50.229C54.6359-53.0856 56.0371-54.0703 58.5349-54.0703C61.7937-54.0703 64.0046-51.9571 64.0046-48.9079C64.0046-47.4925 63.4993-46.189 62.305-44.6501L55.1649-35.2457L62.2935-25.939C63.4763-24.4001 63.9815-23.1312 63.9815-21.6812C63.9815-18.609 61.7706-16.4957 58.4773-16.4957C55.9795-16.4957 54.6014-17.4805 52.8699-20.3601L47.9007-28.3024L47.5304-28.3024L42.3373-20.3601C40.4567-17.4059 39.1532-16.4957 36.7185-16.4957Z"/>
  </g>
  <g id="Bold-S" transform="matrix(1 0 0 1 2293.36 696)">
   <path d="M23.6084 1.63574L69.6289 1.63574C78.5889 1.63574 83.4717-3.24707 83.4717-12.1338L83.4717-58.3252C83.4717-67.2119 78.5889-72.0947 69.6289-72.0947L23.6084-72.0947C14.6729-72.0947 9.76562-67.2119 9.76562-58.3252L9.76562-12.1338C9.76562-3.24707 14.6729 1.63574 23.6084 1.63574ZM35.5713-16.6504C32.8125-16.6504 30.8594-18.5059 30.8594-21.1182C30.8594-22.3877 31.25-23.4131 32.2266-24.707L40.3564-35.5225L32.5684-45.8984C31.5186-47.29 31.1035-48.3154 31.1035-49.6338C31.1035-52.2705 33.1299-54.1992 35.9375-54.1992C38.0615-54.1992 39.2334-53.418 40.7959-51.001L46.9971-41.7725L47.3145-41.7725L53.2471-50.9766C54.6875-53.3691 55.9082-54.1992 58.0322-54.1992C60.8398-54.1992 62.793-52.3438 62.793-49.707C62.793-48.5107 62.3779-47.3877 61.377-46.0938L53.2959-35.4004L61.3525-24.8047C62.3291-23.5107 62.7441-22.4609 62.7441-21.1914C62.7441-18.5059 60.791-16.6504 57.9102-16.6504C55.7861-16.6504 54.6143-17.4805 53.0762-19.9219L46.9727-29.1016L46.6797-29.1016L40.4297-19.9219C38.7939-17.4316 37.6709-16.6504 35.5713-16.6504Z"/>
  </g>
  <g id="Semibold-S" transform="matrix(1 0 0 1 1997.11 696)">
   <path d="M23.1019 1.18252L69.2023 1.18252C77.9401 1.18252 82.5386-3.41592 82.5386-12.0538L82.5386-58.3874C82.5386-67.0253 77.9401-71.6237 69.2023-71.6237L23.1019-71.6237C14.3974-71.6237 9.76562-67.0253 9.76562-58.3874L9.76562-12.0538C9.76562-3.41592 14.3974 1.18252 23.1019 1.18252ZM34.7804-16.757C32.3504-16.757 30.575-18.4348 30.575-20.7538C30.575-21.8989 30.8945-22.7644 31.7289-23.8895L40.5253-35.6735L32.1951-46.8227C31.2608-48.081 30.908-48.9464 30.908-50.1581C30.908-52.5104 32.7833-54.2881 35.2799-54.2881C37.1817-54.2881 38.247-53.5957 39.614-51.5253L46.5261-41.4259L46.799-41.4259L53.4515-51.492C54.723-53.5646 55.8193-54.2881 57.6856-54.2881C60.1822-54.2881 61.9576-52.6104 61.9576-50.258C61.9576-49.2128 61.6048-48.2142 60.7371-47.0891L52.0073-35.507L60.7038-24.0227C61.5382-22.8976 61.891-21.9988 61.891-20.8537C61.891-18.4348 60.1156-16.757 57.5191-16.757C55.6528-16.757 54.6231-17.4805 53.2184-19.6197L46.3328-29.6525L46.0932-29.6525L39.1145-19.6197C37.6476-17.4494 36.6489-16.757 34.7804-16.757Z"/>
  </g>
  <g id="Medium-S" transform="matrix(1 0 0 1 1700.76 696)">
   <path d="M22.7178 0.838867L68.8789 0.838867C77.4482 0.838867 81.8311-3.54395 81.8311-11.9932L81.8311-58.4346C81.8311-66.8838 77.4482-71.2666 68.8789-71.2666L22.7178-71.2666C14.1885-71.2666 9.76562-66.8838 9.76562-58.4346L9.76562-11.9932C9.76562-3.54395 14.1885 0.838867 22.7178 0.838867ZM34.1807-16.8379C32-16.8379 30.3594-18.3809 30.3594-20.4775C30.3594-21.5283 30.625-22.2725 31.3516-23.2695L40.6533-35.7881L31.9121-47.5234C31.0654-48.6807 30.7598-49.4248 30.7598-50.5557C30.7598-52.6924 32.5205-54.3555 34.7812-54.3555C36.5146-54.3555 37.499-53.7305 38.7178-51.9229L46.1689-41.1631L46.4082-41.1631L53.6064-51.8828C54.75-53.7129 55.752-54.3555 57.4229-54.3555C59.6836-54.3555 61.3242-52.8125 61.3242-50.6758C61.3242-49.7451 61.0186-48.8408 60.252-47.8438L51.0303-35.5879L60.2119-23.4297C60.9385-22.4326 61.2441-21.6484 61.2441-20.5977C61.2441-18.3809 59.6035-16.8379 57.2227-16.8379C55.5518-16.8379 54.6299-17.4805 53.3262-19.3906L45.8477-30.0703L45.6484-30.0703L38.1172-19.3906C36.7783-17.4629 35.874-16.8379 34.1807-16.8379Z"/>
  </g>
  <g id="Regular-S" transform="matrix(1 0 0 1 1404.51 696)">
   <path d="M22.2168 0.390625L68.457 0.390625C76.8066 0.390625 80.9082-3.71094 80.9082-11.9141L80.9082-58.4961C80.9082-66.6992 76.8066-70.8008 68.457-70.8008L22.2168-70.8008C13.916-70.8008 9.76562-66.6992 9.76562-58.4961L9.76562-11.9141C9.76562-3.71094 13.916 0.390625 22.2168 0.390625ZM33.3984-16.9434C31.543-16.9434 30.0781-18.3105 30.0781-20.1172C30.0781-21.0449 30.2734-21.6309 30.8594-22.4609L40.8203-35.9375L31.543-48.4375C30.8105-49.4629 30.5664-50.0488 30.5664-51.0742C30.5664-52.9297 32.1777-54.4434 34.1309-54.4434C35.6445-54.4434 36.5234-53.9062 37.5488-52.4414L45.7031-40.8203L45.8984-40.8203L53.8086-52.3926C54.7852-53.9062 55.6641-54.4434 57.0801-54.4434C59.0332-54.4434 60.498-53.0762 60.498-51.2207C60.498-50.4395 60.2539-49.6582 59.6191-48.8281L49.7559-35.6934L59.5703-22.6562C60.1562-21.8262 60.4004-21.1914 60.4004-20.2637C60.4004-18.3105 58.9355-16.9434 56.8359-16.9434C55.4199-16.9434 54.6387-17.4805 53.4668-19.0918L45.2148-30.6152L45.0684-30.6152L36.8164-19.0918C35.6445-17.4805 34.8633-16.9434 33.3984-16.9434Z"/>
  </g>
  <g id="Light-S" transform="matrix(1 0 0 1 1108.45 696)">
   <path d="M21.3994-0.290522L67.9575-0.290522C75.7017-0.290522 79.5913-4.21045 79.5913-11.8232L79.5913-58.6172C79.5913-66.23 75.7017-70.1499 67.9575-70.1499L21.3994-70.1499C13.689-70.1499 9.76562-66.2603 9.76562-58.6172L9.76562-11.8232C9.76562-4.18017 13.689-0.290522 21.3994-0.290522ZM33.0806-17.3218C31.6338-17.3218 30.5019-18.3711 30.5019-19.7539C30.5019-20.4697 30.667-20.9346 31.1167-21.583L41.2139-35.7105L31.6338-49.1338C31.083-49.917 30.8843-50.3667 30.8843-51.1499C30.8843-52.6118 32.1172-53.7622 33.6162-53.7622C34.7969-53.7622 35.479-53.3311 36.2622-52.2144L44.8857-39.5942L45.0811-39.5942L53.5815-52.1807C54.3311-53.3311 55.0132-53.7622 56.1113-53.7622C57.6406-53.7622 58.7573-52.6978 58.7573-51.2812C58.7573-50.6665 58.5586-50.082 58.0752-49.4336L48.0454-35.542L57.9961-21.7481C58.4458-21.0996 58.6445-20.6011 58.6445-19.8853C58.6445-18.3711 57.5278-17.3218 55.9126-17.3218C54.7993-17.3218 54.1846-17.7378 53.3003-18.9707L44.6094-31.5083L44.4478-31.5083L35.7114-18.9707C34.8272-17.7378 34.2275-17.3218 33.0806-17.3218Z"/>
  </g>
  <g id="Thin-S" transform="matrix(1 0 0 1 812.615 696)">
   <path d="M20.3184-1.19139L67.2969-1.19139C74.2403-1.19139 77.8496-4.87108 77.8496-11.7031L77.8496-58.7773C77.8496-65.6094 74.2403-69.2891 67.2969-69.2891L20.3184-69.2891C13.3887-69.2891 9.76562-65.6797 9.76562-58.7773L9.76562-11.7031C9.76562-4.80077 13.3887-1.19139 20.3184-1.19139ZM32.6602-17.8223C31.7539-17.8223 31.0625-18.4512 31.0625-19.2734C31.0625-19.709 31.1875-20.0137 31.457-20.4219L41.7344-35.4102L31.7539-50.0547C31.4434-50.5176 31.3047-50.7871 31.3047-51.25C31.3047-52.1914 32.0371-52.8613 32.9356-52.8613C33.6758-52.8613 34.0977-52.5703 34.5606-51.9141L43.8047-37.9727L44-37.9727L53.2813-51.9004C53.7305-52.5703 54.1524-52.8613 54.8301-52.8613C55.7989-52.8613 56.4551-52.1973 56.4551-51.3613C56.4551-50.9668 56.3164-50.6426 56.0332-50.2344L45.7832-35.3418L55.9141-20.5469C56.1836-20.1387 56.3223-19.8203 56.3223-19.3848C56.3223-18.4512 55.666-17.8223 54.6914-17.8223C53.9785-17.8223 53.584-18.0781 53.0801-18.8105L43.8086-32.6894L43.627-32.6894L34.25-18.8105C33.7461-18.0781 33.3867-17.8223 32.6602-17.8223Z"/>
  </g>
  <g id="Ultralight-S" transform="matrix(1 0 0 1 516.35 696)">
   <path d="M19.7647-1.65282L66.9585-1.65282C73.4917-1.65282 76.9576-5.20946 76.9576-11.6416L76.9576-58.8594C76.9576-65.2915 73.4917-68.8482 66.9585-68.8482L19.7647-68.8482C13.2349-68.8482 9.76562-65.3823 9.76562-58.8594L9.76562-11.6416C9.76562-5.11864 13.2349-1.65282 19.7647-1.65282ZM32.4448-18.0786C31.8154-18.0786 31.3496-18.4922 31.3496-19.0274C31.3496-19.3193 31.4541-19.542 31.6313-19.8272L42.001-35.2564L31.8154-50.5264C31.6279-50.8252 31.52-51.0024 31.52-51.3013C31.52-51.9761 31.9961-52.3999 32.5869-52.3999C33.1016-52.3999 33.3902-52.1807 33.689-51.7603L43.251-37.1421L43.4463-37.1421L53.1274-51.7568C53.4229-52.1807 53.7114-52.3999 54.1739-52.3999C54.8555-52.3999 55.2759-51.9409 55.2759-51.4023C55.2759-51.1206 55.168-50.9297 54.9873-50.6445L44.6246-35.2393L54.8477-19.9317C55.0249-19.6465 55.1329-19.4204 55.1329-19.1284C55.1329-18.4922 54.7124-18.0786 54.0659-18.0786C53.5581-18.0786 53.2764-18.2524 52.9673-18.7285L43.3985-33.2944L43.2066-33.2944L33.5015-18.7285C33.1924-18.2524 32.9561-18.0786 32.4448-18.0786Z"/>
  </g>
 </g>
</svg>
