<?xml version="1.0" encoding="UTF-8"?>
<!--Generator: Apple Native CoreSVG 341-->
<!DOCTYPE svg
PUBLIC "-//W3C//DTD SVG 1.1//EN"
       "http://www.w3.org/Graphics/SVG/1.1/DTD/svg11.dtd">
<svg version="1.1" xmlns="http://www.w3.org/2000/svg" xmlns:xlink="http://www.w3.org/1999/xlink" viewBox="0 0 3300 2200">
 <g id="Notes">
  <rect height="2200" id="artboard" style="fill:white;opacity:1" width="3300" x="0" y="0"/>
  <line style="fill:none;stroke:black;opacity:1;stroke-width:0.5;" x1="263" x2="3036" y1="292" y2="292"/>
  <text style="stroke:none;fill:black;font-family:sans-serif;font-size:13;font-weight:bold;" transform="matrix(1 0 0 1 263 322)">Weight/Scale Variations</text>
  <text style="stroke:none;fill:black;font-family:sans-serif;font-size:13;text-anchor:middle;" transform="matrix(1 0 0 1 559.711 322)">Ultralight</text>
  <text style="stroke:none;fill:black;font-family:sans-serif;font-size:13;text-anchor:middle;" transform="matrix(1 0 0 1 856.422 322)">Thin</text>
  <text style="stroke:none;fill:black;font-family:sans-serif;font-size:13;text-anchor:middle;" transform="matrix(1 0 0 1 1153.13 322)">Light</text>
  <text style="stroke:none;fill:black;font-family:sans-serif;font-size:13;text-anchor:middle;" transform="matrix(1 0 0 1 1449.84 322)">Regular</text>
  <text style="stroke:none;fill:black;font-family:sans-serif;font-size:13;text-anchor:middle;" transform="matrix(1 0 0 1 1746.56 322)">Medium</text>
  <text style="stroke:none;fill:black;font-family:sans-serif;font-size:13;text-anchor:middle;" transform="matrix(1 0 0 1 2043.27 322)">Semibold</text>
  <text style="stroke:none;fill:black;font-family:sans-serif;font-size:13;text-anchor:middle;" transform="matrix(1 0 0 1 2339.98 322)">Bold</text>
  <text style="stroke:none;fill:black;font-family:sans-serif;font-size:13;text-anchor:middle;" transform="matrix(1 0 0 1 2636.69 322)">Heavy</text>
  <text style="stroke:none;fill:black;font-family:sans-serif;font-size:13;text-anchor:middle;" transform="matrix(1 0 0 1 2933.4 322)">Black</text>
  <line style="fill:none;stroke:black;opacity:1;stroke-width:0.5;" x1="263" x2="3036" y1="1903" y2="1903"/>
  <g transform="matrix(0.2 0 0 0.2 263 1933)">
   <path d="m46.2402 4.15039c21.7773 0 39.4531-17.627 39.4531-39.4043s-17.6758-39.4043-39.4531-39.4043c-21.7285 0-39.4043 17.627-39.4043 39.4043s17.6758 39.4043 39.4043 39.4043Zm0-7.42188c-17.6758 0-31.9336-14.3066-31.9336-31.9824s14.2578-31.9824 31.9336-31.9824 31.9824 14.3066 31.9824 31.9824-14.3066 31.9824-31.9824 31.9824Zm3.61328-17.7734v-28.4668c0-2.24609-1.46484-3.75977-3.71094-3.75977-2.14844 0-3.61328 1.51367-3.61328 3.75977v28.4668c0 2.19727 1.46484 3.71094 3.61328 3.71094 2.24609 0 3.71094-1.51367 3.71094-3.71094Zm-17.8223-10.5957h28.418c2.19727 0 3.71094-1.46484 3.71094-3.61328 0-2.19727-1.51367-3.71094-3.71094-3.71094h-28.418c-2.24609 0-3.75977 1.51367-3.75977 3.71094 0 2.14844 1.51367 3.61328 3.75977 3.61328Z"/>
  </g>
  <g transform="matrix(0.2 0 0 0.2 281.506 1933)">
   <path d="m58.5449 14.5508c27.4902 0 49.8047-22.3145 49.8047-49.8047s-22.3145-49.8047-49.8047-49.8047-49.8047 22.3145-49.8047 49.8047 22.3145 49.8047 49.8047 49.8047Zm0-8.30078c-22.9492 0-41.5039-18.5547-41.5039-41.5039s18.5547-41.5039 41.5039-41.5039 41.5039 18.5547 41.5039 41.5039-18.5547 41.5039-41.5039 41.5039Zm4.05273-23.0957v-36.9141c0-2.49023-1.70898-4.19922-4.15039-4.19922-2.39258 0-4.05273 1.70898-4.05273 4.19922v36.9141c0 2.44141 1.66016 4.15039 4.05273 4.15039 2.44141 0 4.15039-1.66016 4.15039-4.15039Zm-22.5586-14.4043h36.9629c2.44141 0 4.15039-1.61133 4.15039-4.00391 0-2.44141-1.70898-4.15039-4.15039-4.15039h-36.9629c-2.49023 0-4.15039 1.70898-4.15039 4.15039 0 2.39258 1.66016 4.00391 4.15039 4.00391Z"/>
  </g>
  <g transform="matrix(0.2 0 0 0.2 304.924 1933)">
   <path d="m74.8535 28.3203c35.1074 0 63.623-28.4668 63.623-63.5742s-28.5156-63.623-63.623-63.623-63.5742 28.5156-63.5742 63.623 28.4668 63.5742 63.5742 63.5742Zm0-9.08203c-30.127 0-54.4922-24.3652-54.4922-54.4922s24.3652-54.4922 54.4922-54.4922 54.4922 24.3652 54.4922 54.4922-24.3652 54.4922-54.4922 54.4922Zm4.44336-30.3223v-48.4863c0-2.73438-1.85547-4.63867-4.54102-4.63867-2.58789 0-4.44336 1.9043-4.44336 4.63867v48.4863c0 2.68555 1.85547 4.58984 4.44336 4.58984 2.68555 0 4.54102-1.85547 4.54102-4.58984Zm-28.7109-19.7754h48.4863c2.68555 0 4.58984-1.80664 4.58984-4.39453 0-2.73438-1.85547-4.58984-4.58984-4.58984h-48.4863c-2.73438 0-4.58984 1.85547-4.58984 4.58984 0 2.58789 1.85547 4.39453 4.58984 4.39453Z"/>
  </g>
  <text style="stroke:none;fill:black;font-family:sans-serif;font-size:13;font-weight:bold;" transform="matrix(1 0 0 1 263 1953)">Design Variations</text>
  <text style="stroke:none;fill:black;font-family:sans-serif;font-size:13;" transform="matrix(1 0 0 1 263 1971)">Symbols are supported in up to nine weights and three scales.</text>
  <text style="stroke:none;fill:black;font-family:sans-serif;font-size:13;" transform="matrix(1 0 0 1 263 1989)">For optimal layout with text and other symbols, vertically align</text>
  <text style="stroke:none;fill:black;font-family:sans-serif;font-size:13;" transform="matrix(1 0 0 1 263 2007)">symbols with the adjacent text.</text>
  <line style="fill:none;stroke:#00AEEF;stroke-width:0.5;opacity:1.0;" x1="776" x2="776" y1="1919" y2="1933"/>
  <g transform="matrix(0.2 0 0 0.2 776 1933)">
   <path d="m16.5527 0.78125c2.58789 0 3.85742-0.976562 4.78516-3.71094l20.5566-57.5195h0.244141l20.6055 57.5195c0.927734 2.73438 2.19727 3.71094 4.73633 3.71094 2.58789 0 4.24805-1.5625 4.24805-4.00391 0-0.830078-0.146484-1.61133-0.537109-2.63672l-22.9004-60.9863c-1.12305-2.97852-3.125-4.49219-6.25-4.49219-3.02734 0-5.07812 1.46484-6.15234 4.44336l-22.9004 61.084c-0.390625 1.02539-0.537109 1.80664-0.537109 2.63672 0 2.44141 1.5625 3.95508 4.10156 3.95508Zm10.2051-20.9473h30.6641c2.00195 0 3.66211-1.66016 3.66211-3.66211 0-2.05078-1.66016-3.66211-3.66211-3.66211h-30.6641c-2.00195 0-3.66211 1.61133-3.66211 3.66211 0 2.00195 1.66016 3.66211 3.66211 3.66211Z"/>
  </g>
  <line style="fill:none;stroke:#00AEEF;stroke-width:0.5;opacity:1.0;" x1="792.836" x2="792.836" y1="1919" y2="1933"/>
  <text style="stroke:none;fill:black;font-family:sans-serif;font-size:13;font-weight:bold;" transform="matrix(1 0 0 1 776 1953)">Margins</text>
  <text style="stroke:none;fill:black;font-family:sans-serif;font-size:13;" transform="matrix(1 0 0 1 776 1971)">Leading and trailing margins on the left and right side of each symbol</text>
  <text style="stroke:none;fill:black;font-family:sans-serif;font-size:13;" transform="matrix(1 0 0 1 776 1989)">can be adjusted by modifying the x-location of the margin guidelines.</text>
  <text style="stroke:none;fill:black;font-family:sans-serif;font-size:13;" transform="matrix(1 0 0 1 776 2007)">Modifications are automatically applied proportionally to all</text>
  <text style="stroke:none;fill:black;font-family:sans-serif;font-size:13;" transform="matrix(1 0 0 1 776 2025)">scales and weights.</text>
  <g transform="matrix(0.2 0 0 0.2 1289 1933)">
   <path d="m14.209 13.1348 7.86133 7.86133c4.29688 4.39453 9.32617 4.10156 13.8672-1.02539l60.6934-68.2129-4.88281-4.88281-60.2539 67.6758c-1.80664 1.95312-3.4668 2.44141-5.81055 0.0976562l-5.17578-5.12695c-2.29492-2.29492-1.80664-3.95508 0.195312-5.81055l67.4805-62.1582-4.88281-4.83398-68.0664 62.5977c-4.98047 4.58984-5.32227 9.47266-1.02539 13.8184Zm44.873-97.4609c-2.05078 2.00195-2.24609 4.88281-1.07422 6.78711 1.12305 1.80664 3.4668 3.02734 6.5918 2.24609 5.85938-1.66016 12.5977-2.39258 18.8965 0.927734l-2.68555 7.12891c-1.61133 4.00391-0.732422 6.88477 1.70898 9.42383l10.2539 10.3027c2.34375 2.39258 4.54102 2.44141 7.08008 1.95312l4.44336-0.732422 2.58789 2.53906-0.195312 2.24609c-0.0976562 2.29492 0.537109 4.29688 2.7832 6.49414l3.36914 3.32031c2.29492 2.29492 5.51758 2.49023 7.8125 0.195312l12.9883-13.0371c2.29492-2.34375 2.14844-5.37109-0.195312-7.66602l-3.41797-3.41797c-2.19727-2.19727-4.05273-3.02734-6.34766-2.88086l-2.34375 0.244141-2.44141-2.44141 1.02539-4.6875c0.634766-2.73438-0.244141-4.98047-2.88086-7.61719l-11.2793-11.1816c-12.9395-12.8418-35.5957-11.0352-46.6797-0.146484Zm7.08008 2.05078c8.78906-6.39648 25.9766-5.66406 33.6914 1.95312l12.3047 12.207c1.02539 1.02539 1.2207 1.80664 0.927734 3.32031l-1.46484 6.64062 6.73828 6.68945 4.39453-0.244141c1.12305-0.0488281 1.51367 0.0488281 2.34375 0.878906l2.53906 2.49023-10.8398 10.8398-2.49023-2.49023c-0.830078-0.878906-0.976562-1.2207-0.927734-2.39258l0.292969-4.3457-6.68945-6.73828-6.83594 1.17188c-1.41602 0.292969-2.05078 0.195312-3.17383-0.878906l-8.93555-8.88672c-1.07422-1.02539-1.17188-1.70898-0.488281-3.36914l4.58984-11.4746c-6.10352-6.34766-17.041-7.51953-25.5859-4.58984-0.683594 0.244141-0.927734-0.390625-0.390625-0.78125Z"/>
  </g>
  <text style="stroke:none;fill:black;font-family:sans-serif;font-size:13;font-weight:bold;" transform="matrix(1 0 0 1 1289 1953)">Exporting</text>
  <text style="stroke:none;fill:black;font-family:sans-serif;font-size:13;" transform="matrix(1 0 0 1 1289 1971)">Symbols should be outlined when exporting to ensure the</text>
  <text style="stroke:none;fill:black;font-family:sans-serif;font-size:13;" transform="matrix(1 0 0 1 1289 1989)">design is preserved when submitting to Xcode.</text>
  <text id="template-version" style="stroke:none;fill:black;font-family:sans-serif;font-size:13;text-anchor:end;" transform="matrix(1 0 0 1 3036 1933)">Template v.2.0</text>
  <text style="stroke:none;fill:black;font-family:sans-serif;font-size:13;text-anchor:end;" transform="matrix(1 0 0 1 3036 1951)">Requires Xcode 12 or greater</text>
  <text id="descriptive-name" style="stroke:none;fill:black;font-family:sans-serif;font-size:13;text-anchor:end;" transform="matrix(1 0 0 1 3036 1969)">Generated from document.on.document</text>
  <text style="stroke:none;fill:black;font-family:sans-serif;font-size:13;text-anchor:end;" transform="matrix(1 0 0 1 3036 1987)">Typeset at 100.0 points</text>
  <text style="stroke:none;fill:black;font-family:sans-serif;font-size:13;" transform="matrix(1 0 0 1 263 726)">Small</text>
  <text style="stroke:none;fill:black;font-family:sans-serif;font-size:13;" transform="matrix(1 0 0 1 263 1156)">Medium</text>
  <text style="stroke:none;fill:black;font-family:sans-serif;font-size:13;" transform="matrix(1 0 0 1 263 1586)">Large</text>
 </g>
 <g id="Guides">
  <g id="H-reference" style="fill:#27AAE1;stroke:none;" transform="matrix(1 0 0 1 339 696)">
   <path d="M0.993654 0L3.63775 0L29.3281-67.1323L30.0303-67.1323L30.0303-70.459L28.1226-70.459ZM11.6885-24.4799L46.9815-24.4799L46.2315-26.7285L12.4385-26.7285ZM55.1196 0L57.7637 0L30.6382-70.459L29.4326-70.459L29.4326-67.1323Z"/>
  </g>
  <line id="Baseline-S" style="fill:none;stroke:#27AAE1;opacity:1;stroke-width:0.5;" x1="263" x2="3036" y1="696" y2="696"/>
  <line id="Capline-S" style="fill:none;stroke:#27AAE1;opacity:1;stroke-width:0.5;" x1="263" x2="3036" y1="625.541" y2="625.541"/>
  <g id="H-reference" style="fill:#27AAE1;stroke:none;" transform="matrix(1 0 0 1 339 1126)">
   <path d="M0.993654 0L3.63775 0L29.3281-67.1323L30.0303-67.1323L30.0303-70.459L28.1226-70.459ZM11.6885-24.4799L46.9815-24.4799L46.2315-26.7285L12.4385-26.7285ZM55.1196 0L57.7637 0L30.6382-70.459L29.4326-70.459L29.4326-67.1323Z"/>
  </g>
  <line id="Baseline-M" style="fill:none;stroke:#27AAE1;opacity:1;stroke-width:0.5;" x1="263" x2="3036" y1="1126" y2="1126"/>
  <line id="Capline-M" style="fill:none;stroke:#27AAE1;opacity:1;stroke-width:0.5;" x1="263" x2="3036" y1="1055.54" y2="1055.54"/>
  <g id="H-reference" style="fill:#27AAE1;stroke:none;" transform="matrix(1 0 0 1 339 1556)">
   <path d="M0.993654 0L3.63775 0L29.3281-67.1323L30.0303-67.1323L30.0303-70.459L28.1226-70.459ZM11.6885-24.4799L46.9815-24.4799L46.2315-26.7285L12.4385-26.7285ZM55.1196 0L57.7637 0L30.6382-70.459L29.4326-70.459L29.4326-67.1323Z"/>
  </g>
  <line id="Baseline-L" style="fill:none;stroke:#27AAE1;opacity:1;stroke-width:0.5;" x1="263" x2="3036" y1="1556" y2="1556"/>
  <line id="Capline-L" style="fill:none;stroke:#27AAE1;opacity:1;stroke-width:0.5;" x1="263" x2="3036" y1="1485.54" y2="1485.54"/>
  <line id="right-margin" style="fill:none;stroke:#00AEEF;stroke-width:0.5;opacity:1.0;" x1="1512.22" x2="1512.22" y1="1030.79" y2="1150.12"/>
  <line id="left-margin" style="fill:none;stroke:#00AEEF;stroke-width:0.5;opacity:1.0;" x1="1387.47" x2="1387.47" y1="1030.79" y2="1150.12"/>
 </g>
 <g id="Symbols">
  <g id="Black-L" transform="matrix(1 0 0 1 2847.97 1556)">
   <path d="M49.3291-78.3505L69.3101-78.3505L69.3101-91.9056C69.3101-96.2168 71.2403-98.427 75.8731-98.427L97.3003-98.427L97.3003-75.7438C97.3003-66.2636 103.397-60.1727 112.85-60.1727L134.777-60.1727L134.777-13.9043C134.777-9.58833 132.847-7.38289 128.235-7.38289L118.591-7.38289L118.591 12.5981L131.07 12.5981C146.171 12.5981 154.779 3.96977 154.779-11.1735L154.779-56.7934C154.779-66.9844 152.5-73.5905 146.633-79.6168L116.737-110.204C111.167-115.874 104.185-118.408 95.1021-118.408L73.0174-118.408C57.9182-118.408 49.3291-109.78 49.3291-94.6364ZM111.712-77.4855L111.712-92.6247L129.585-74.5849L114.612-74.5849C112.641-74.5849 111.712-75.5143 111.712-77.4855ZM16.084 24.1721C16.084 39.3362 24.6707 47.9438 39.7724 47.9438L97.8247 47.9438C112.926 47.9438 121.534 39.3166 121.534 24.1721L121.534-21.7804C121.534-31.5697 120.046-36.9585 113.9-43.1462L81.8039-75.4281C75.7411-81.5324 70.2078-83.0623 60.7295-83.0623L39.7724-83.0623C24.6731-83.0623 16.084-74.434 16.084-59.2907ZM36.065 21.4414L36.065-56.56C36.065-60.8711 37.9952-63.0813 42.628-63.0813L57.4183-63.0813L57.4183-35.654C57.4183-22.8701 63.354-16.9624 76.1099-16.9624L101.532-16.9624L101.532 21.4414C101.532 25.7573 99.6019 27.9628 94.9899 27.9628L42.6072 27.9628C37.9952 27.9628 36.065 25.7573 36.065 21.4414ZM77.4007-32.6468C74.5421-32.6468 73.1026-34.0863 73.1026-36.9448L73.1026-60.3587L100.606-32.6468Z"/>
  </g>
  <g id="Heavy-L" transform="matrix(1 0 0 1 2552.46 1556)">
   <path d="M48.6906-78.6924L66.191-78.6924L66.191-92.574C66.191-97.3892 68.4857-99.9453 73.6227-99.9453L96.6104-99.9453L96.6104-74.8571C96.6104-65.924 102.085-60.4772 110.96-60.4772L134.834-60.4772L134.834-12.3017C134.834-7.46396 132.539-4.93038 127.432-4.93038L117.044-4.93038L117.044 12.57L129.707 12.57C144.26 12.57 152.364 4.43522 152.364-10.1775L152.364-57.2535C152.364-66.7416 150.266-72.8915 144.725-78.5884L114.189-109.761C108.916-115.139 102.423-117.446 93.9762-117.446L71.3173-117.446C56.7762-117.446 48.6906-109.311 48.6906-94.6982ZM109.642-76.4972L109.642-94.3819L130.268-73.5088L112.625-73.5088C110.569-73.5088 109.642-74.4415 109.642-76.4972ZM16.084 24.1877C16.084 38.8305 24.1584 46.9351 38.7107 46.9351L97.1007 46.9351C111.653 46.9351 119.758 38.8059 119.758 24.1877L119.758-22.6547C119.758-31.9585 118.402-36.8642 112.576-42.7511L79.6942-75.8986C73.9884-81.6648 68.877-83.0805 60.0204-83.0805L38.7107-83.0805C24.1696-83.0805 16.084-74.9457 16.084-60.3331ZM33.5844 22.0634L33.5844-58.2088C33.5844-63.0241 35.8791-65.5801 41.0161-65.5801L57.3452-65.5801L57.3452-35.9123C57.3452-24.3124 62.8061-18.9154 74.3422-18.9154L102.227-18.9154L102.227 22.0634C102.227 26.9011 99.9323 29.4347 94.8255 29.4347L40.9859 29.4347C35.8791 29.4347 33.5844 26.9011 33.5844 22.0634ZM75.5805-32.9903C72.7759-32.9903 71.4202-34.346 71.4202-37.1507L71.4202-62.9546L101.083-32.9903Z"/>
  </g>
  <g id="Bold-L" transform="matrix(1 0 0 1 2257.19 1556)">
   <path d="M47.9737-79.115L62.4154-79.115L62.4154-93.359C62.4154-98.8266 65.1634-101.82 70.9527-101.82L95.7798-101.82L95.7798-73.7955C95.7798-65.5387 100.516-60.8686 108.669-60.8686L135.015-60.8686L135.015-10.3564C135.015-4.83595 132.267-1.89514 126.515-1.89514L115.153-1.89514L115.153 12.5466L128.151 12.5466C141.99 12.5466 149.494 5.00407 149.494-8.91063L149.494-57.8967C149.494-66.3898 147.634-71.9115 142.544-77.149L110.964-109.283C106.105-114.247 100.285-116.262 92.7195-116.262L69.279-116.262C55.4667-116.262 47.9737-108.72 47.9737-94.8048ZM107.023-75.2605L107.023-96.5938L131.188-72.1123L110.158-72.1123C107.965-72.1123 107.023-73.0675 107.023-75.2605ZM16.084 24.2479C16.084 38.2005 23.5506 45.7051 37.3893 45.7051L96.2614 45.7051C110.1 45.7051 117.605 38.1758 117.605 24.2479L117.605-23.8201C117.605-32.4202 116.403-36.7265 111.036-42.17L76.9997-76.5347C71.7842-81.8262 67.2251-83.1036 59.1816-83.1036L37.3893-83.1036C23.577-83.1036 16.084-75.561 16.084-61.6463ZM30.5257 22.8021L30.5257-60.2006C30.5257-65.6681 33.2738-68.6618 39.063-68.6618L57.3947-68.6618L57.3947-36.3244C57.3947-26.1399 62.2789-21.373 72.346-21.373L103.125-21.373L103.125 22.8021C103.125 28.3225 100.377 31.2633 94.6256 31.2633L39.025 31.2633C33.2738 31.2633 30.5257 28.3225 30.5257 22.8021ZM73.4855-33.3907C70.6904-33.3907 69.4123-34.6687 69.4123-37.4639L69.4123-66.1368L101.779-33.3907Z"/>
  </g>
  <g id="Semibold-L" transform="matrix(1 0 0 1 1961.47 1556)">
   <path d="M47.4794-79.4064L59.8126-79.4064L59.8126-93.9003C59.8126-99.8175 62.8731-103.113 69.112-103.113L95.2071-103.113L95.2071-73.0637C95.2071-65.273 99.4341-61.1385 107.089-61.1385L135.139-61.1385L135.139-9.01535C135.139-3.02421 132.079 0.197335 125.883 0.197335L113.85 0.197335L113.85 12.5305L127.078 12.5305C140.425 12.5305 147.516 5.39623 147.516-8.03729L147.516-58.3401C147.516-66.1472 145.82-71.2359 141.041-76.1567L108.741-108.953C104.167-113.632 98.8115-115.446 91.8531-115.446L67.8737-115.446C54.5639-115.446 47.4794-108.312 47.4794-94.8783ZM105.218-74.4079L105.218-98.1186L131.822-71.1495L108.458-71.1495C106.17-71.1495 105.218-72.1203 105.218-74.4079ZM16.084 24.2894C16.084 37.7662 23.1315 44.8571 36.4783 44.8571L95.6827 44.8571C109.03 44.8571 116.12 37.7414 116.12 24.2894L116.12-24.6235C116.12-32.7384 115.025-36.6316 109.974-41.7693L75.1421-76.9732C70.2645-81.9375 66.0863-83.1195 58.6034-83.1195L36.4783-83.1195C23.1685-83.1195 16.084-75.9852 16.084-62.5517ZM28.4171 23.3113L28.4171-61.5736C28.4171-67.4909 31.4776-70.7863 37.7165-70.7863L57.4287-70.7863L57.4287-36.6085C57.4287-27.3998 61.9154-23.0673 70.9699-23.0673L103.744-23.0673L103.744 23.3113C103.744 29.3024 100.683 32.524 94.4878 32.524L37.6732 32.524C31.4776 32.524 28.4171 29.3024 28.4171 23.3113ZM72.0412-33.6667C69.2526-33.6667 68.0281-34.8912 68.0281-37.6798L68.0281-68.3305L102.258-33.6667Z"/>
  </g>
  <g id="Medium-L" transform="matrix(1 0 0 1 1665.51 1556)">
   <path d="M47.1047-79.6273L57.839-79.6273L57.839-94.3107C57.839-100.569 61.1365-104.093 67.7163-104.093L94.773-104.093L94.773-72.5088C94.773-65.0716 98.6138-61.3431 105.891-61.3431L135.234-61.3431L135.234-7.9985C135.234-1.65048 131.936 1.78394 125.404 1.78394L112.861 1.78394L112.861 12.5182L126.265 12.5182C139.238 12.5182 146.016 5.69359 146.016-7.37508L146.016-58.6763C146.016-65.9633 144.444-70.7236 139.902-75.4043L107.055-108.703C102.697-113.166 97.6942-114.827 91.1961-114.827L66.8082-114.827C53.8794-114.827 47.1047-108.003 47.1047-94.9341ZM103.849-73.7614L103.849-99.2748L132.303-70.4195L107.169-70.4195C104.809-70.4195 103.849-71.402 103.849-73.7614ZM16.084 24.3208C16.084 37.4369 22.8138 44.2141 35.7875 44.2141L95.244 44.2141C108.218 44.2141 114.995 37.412 114.995 24.3208L114.995-25.2327C114.995-32.9797 113.98-36.5597 109.169-41.4656L73.7336-77.3058C69.1123-82.0219 65.2228-83.1315 58.1649-83.1315L35.7875-83.1315C22.8587-83.1315 16.084-76.3069 16.084-63.2382ZM26.8183 23.6974L26.8183-62.6148C26.8183-68.8729 30.1158-72.3972 36.6956-72.3972L57.4546-72.3972L57.4546-36.8239C57.4546-28.3551 61.6398-24.352 69.9265-24.352L104.213-24.352L104.213 23.6974C104.213 30.0454 100.916 33.4798 94.3833 33.4798L36.6482 33.4798C30.1158 33.4798 26.8183 30.0454 26.8183 23.6974ZM70.9461-33.876C68.1624-33.876 66.9785-35.0599 66.9785-37.8436L66.9785-69.994L102.622-33.876Z"/>
  </g>
  <g id="Regular-L" transform="matrix(1 0 0 1 1369.77 1556)">
   <path d="M46.6159-79.9155L55.2648-79.9155L55.2648-94.846C55.2648-101.549 58.8713-105.372 65.8959-105.372L94.2066-105.372L94.2066-71.7851C94.2066-64.8089 97.5439-61.61 104.329-61.61L135.357-61.61L135.357-6.67218C135.357 0.141353 131.751 3.85342 124.779 3.85342L111.572 3.85342L111.572 12.5023L125.204 12.5023C137.691 12.5023 144.059 6.08144 144.059-6.51134L144.059-59.1148C144.059-65.7234 142.649-70.0554 138.415-74.4228L104.856-108.377C100.78-112.558 96.2368-114.02 90.3392-114.02L65.4185-114.02C52.9865-114.02 46.6159-107.6 46.6159-95.0068ZM102.064-72.9182L102.064-100.783L132.93-69.4674L105.487-69.4674C103.034-69.4674 102.064-70.4652 102.064-72.9182ZM16.084 24.3619C16.084 37.0074 22.3993 43.3755 34.8866 43.3755L94.6717 43.3755C107.159 43.3755 113.527 36.9823 113.527 24.3619L113.527-26.0273C113.527-33.2945 112.617-36.4658 108.119-41.0693L71.8964-77.7395C67.6094-82.132 64.0964-83.1472 57.593-83.1472L34.8866-83.1472C22.4546-83.1472 16.084-76.7264 16.084-64.1336ZM24.7328 24.201L24.7328-63.9728C24.7328-70.6757 28.3394-74.4984 35.364-74.4984L57.4883-74.4984L57.4883-37.1048C57.4883-29.6011 61.2804-26.0277 68.5654-26.0277L104.825-26.0277L104.825 24.201C104.825 31.0146 101.219 34.7266 94.247 34.7266L35.3112 34.7266C28.3394 34.7266 24.7328 31.0146 24.7328 24.201ZM69.5177-34.1489C66.7405-34.1489 65.6095-35.2799 65.6095-38.0571L65.6095-72.1636L103.097-34.1489Z"/>
  </g>
  <g id="Light-L" transform="matrix(1 0 0 1 1073.66 1556)">
   <path d="M46.5968-80.2018L53.2226-80.2018L53.2226-95.1132C53.2226-102.446 57.1536-106.631 64.808-106.631L93.7868-106.631L93.7868-71.2888C93.7868-64.7707 96.8186-61.9726 103.069-61.9726L136.197-61.9726L136.197-5.58432C136.197 1.93537 132.266 5.93371 124.645 5.93371L110.427 5.93371L110.427 12.5595L124.975 12.5595C136.756 12.5595 142.857 6.42497 142.857-5.42348L142.857-60.0309C142.857-65.1508 141.695-68.6431 138.091-72.3616L102.184-108.491C98.6805-112.062 95.0535-113.257 90.3583-113.257L64.4451-113.257C52.7575-113.257 46.5968-107.122 46.5968-95.274ZM99.9074-71.983L99.9074-102.539L134.037-68.0932L103.75-68.0932C100.992-68.0932 99.9074-69.2246 99.9074-71.983ZM16.084 24.6672C16.084 36.5494 22.1512 42.6502 33.9323 42.6502L94.4618 42.6502C106.243 42.6502 112.344 36.5624 112.344 24.6672L112.344-27.3633C112.344-33.4854 111.472-36.2368 107.699-40.0769L69.5107-78.522C65.8727-82.2274 62.9322-83.1663 57.2686-83.1663L33.9323-83.1663C22.2447-83.1663 16.084-77.0317 16.084-65.1833ZM22.7098 24.5064L22.7098-65.0224C22.7098-72.3552 26.6408-76.5405 34.2952-76.5405L58.4235-76.5405L58.4235-37.9828C58.4235-31.1279 61.8911-27.9744 68.4318-27.9744L105.684-27.9744L105.684 24.5064C105.684 32.0261 101.753 36.0244 94.1325 36.0244L34.2615 36.0244C26.6408 36.0244 22.7098 32.0261 22.7098 24.5064ZM69.0978-34.2634C65.958-34.2634 64.7125-35.5089 64.7125-38.6488L64.7125-74.1485L104.261-34.2634Z"/>
  </g>
  <g id="Thin-L" transform="matrix(1 0 0 1 777.747 1556)">
   <path d="M46.5716-80.5804L50.5218-80.5804L50.5218-95.4665C50.5218-103.632 54.8819-108.297 63.3692-108.297L93.2314-108.297L93.2314-70.6325C93.2314-64.7203 95.8594-62.4522 101.403-62.4522L137.308-62.4522L137.308-4.14553C137.308 4.3081 132.948 8.68507 124.469 8.68507L108.912 8.68507L108.912 12.6353L124.672 12.6353C135.519 12.6353 141.266 6.87933 141.266-3.98469L141.266-61.2425C141.266-64.3935 140.433-66.7752 137.661-69.6355L98.65-108.642C95.9039-111.405 93.4885-112.247 90.3836-112.247L63.1578-112.247C52.4546-112.247 46.5716-106.491 46.5716-95.6274ZM97.0551-70.7462L97.0551-104.861L135.501-66.2758L101.453-66.2758C98.2912-66.2758 97.0551-67.5839 97.0551-70.7462ZM16.084 25.0711C16.084 35.9436 21.823 41.6911 32.6702 41.6911L94.1841 41.6911C105.031 41.6911 110.779 36.0071 110.779 25.0711L110.779-29.1302C110.779-33.7378 109.958-35.9339 107.144-38.7643L66.3555-79.5569C63.5756-82.3536 61.3925-83.1915 56.8395-83.1915L32.6702-83.1915C21.967-83.1915 16.084-77.4356 16.084-66.5716ZM20.0342 24.9103L20.0342-66.4107C20.0342-74.5764 24.3943-79.2413 32.8817-79.2413L59.6603-79.2413L59.6603-39.1439C59.6603-33.1473 62.6988-30.5491 68.2551-30.5491L106.82-30.5491L106.82 24.9103C106.82 33.3639 102.46 37.7409 93.9811 37.7409L32.8732 37.7409C24.3943 37.7409 20.0342 33.3639 20.0342 24.9103ZM68.5425-34.4149C64.9231-34.4149 63.5261-35.8118 63.5261-39.4313L63.5261-76.7736L105.801-34.4149Z"/>
  </g>
  <g id="Ultralight-L" transform="matrix(1 0 0 1 481.443 1556)">
   <path d="M46.5586-80.7743L49.1384-80.7743L49.1384-95.6475C49.1384-104.24 53.7183-109.15 62.6323-109.15L92.947-109.15L92.947-70.2964C92.947-64.6944 95.3681-62.6978 100.55-62.6978L137.877-62.6978L137.877-3.4086C137.877 5.5234 133.297 10.0943 124.378 10.0943L108.136 10.0943L108.136 12.674L124.517 12.674C134.885 12.674 140.452 7.11204 140.452-3.24776L140.452-61.8631C140.452-64.0057 139.786-65.8185 137.442-68.2392L96.84-108.72C94.4817-111.069 92.6869-111.73 90.3965-111.73L62.4984-111.73C52.2995-111.73 46.5586-106.168 46.5586-95.8084ZM95.5941-70.1127L95.5941-106.05L136.251-65.345L100.277-65.345C96.9078-65.345 95.5941-66.7436 95.5941-70.1127ZM16.084 25.278C16.084 35.6333 21.655 41.1998 32.0238 41.1998L94.0419 41.1998C104.411 41.1998 109.977 35.7227 109.977 25.278L109.977-30.0352C109.977-33.8671 109.182-35.7787 106.86-38.092L64.7394-80.087C62.3991-82.4182 60.6038-83.2045 56.6197-83.2045L32.0238-83.2045C21.8248-83.2045 16.084-77.6425 16.084-67.2827ZM18.6637 25.1171L18.6637-67.1218C18.6637-75.7142 23.2436-80.6247 32.1576-80.6247L60.2938-80.6247L60.2938-39.7386C60.2938-34.1815 63.1126-31.8678 68.1646-31.8678L107.402-31.8678L107.402 25.1171C107.402 34.0491 102.822 38.62 93.9035 38.62L32.1621 38.62C23.2436 38.62 18.6637 34.0491 18.6637 25.1171ZM68.2581-34.4925C64.393-34.4925 62.9185-35.967 62.9185-39.8321L62.9185-78.1182L106.589-34.4925Z"/>
  </g>
  <g id="Black-M" transform="matrix(1 0 0 1 2866.26 1126)">
   <path d="M38.7634-68.382L56.1014-68.382L56.1014-78.6007C56.1014-81.5928 57.3274-83.0571 60.5687-83.0571L75.9186-83.0571L75.9186-67.3125C75.9186-59.5596 81.1353-54.3415 88.884-54.3415L104.483-54.3415L104.483-19.9378C104.483-16.9469 103.257-15.4815 100.021-15.4815L93.0519-15.4815L93.0519 1.85648L102.685 1.85648C114.762 1.85648 121.826-5.21366 121.826-17.301L121.826-51.6646C121.826-59.9624 119.938-65.3587 115.199-70.2227L92.2691-93.7106C87.7748-98.2729 82.0711-100.395 74.6498-100.395L57.8989-100.395C45.822-100.395 38.7634-93.3249 38.7634-81.2375ZM88.0355-68.6897L88.0355-78.4237L99.9572-66.4584L90.267-66.4584C88.771-66.4584 88.0355-67.1937 88.0355-68.6897ZM12.4609 10.8195C12.4609 22.9123 19.5201 29.9769 31.5964 29.9769L76.3827 29.9769C88.459 29.9769 95.5237 22.9065 95.5237 10.8195L95.5237-24.2395C95.5237-32.0859 94.2616-36.6191 89.3237-41.5679L64.8668-66.0746C59.9509-71.0015 55.3789-72.2746 47.6152-72.2746L31.5964-72.2746C19.5195-72.2746 12.4609-65.2044 12.4609-53.1171ZM29.7989 8.18261L29.7989-50.4802C29.7989-53.4723 31.0249-54.9366 34.2662-54.9366L44.6738-54.9366L44.6738-35.4554C44.6738-24.6215 49.6366-19.6626 60.4666-19.6626L78.1802-19.6626L78.1802 8.18261C78.1802 11.1736 76.9542 12.639 73.7184 12.639L34.2608 12.639C31.0249 12.639 29.7989 11.1736 29.7989 8.18261ZM61.473-32.9489C59.1628-32.9489 57.9601-34.1516 57.9601-36.4617L57.9601-52.7362L77.6925-32.9489Z"/>
  </g>
  <g id="Heavy-M" transform="matrix(1 0 0 1 2570.67 1126)">
   <path d="M38.141-68.6899L53.2406-68.6899L53.2406-79.2294C53.2406-82.6562 54.7931-84.4251 58.4692-84.4251L75.2829-84.4251L75.2829-66.4914C75.2829-59.2311 79.9197-54.6057 87.1522-54.6057L104.46-54.6057L104.46-18.4716C104.46-15.0357 102.908-13.2759 99.2484-13.2759L91.6454-13.2759L91.6454 1.82372L101.374 1.82372C112.979 1.82372 119.577-4.79034 119.577-16.4276L119.577-52.0299C119.577-59.7779 117.843-64.8057 113.363-69.4076L90.0246-93.2678C85.7688-97.6 80.4573-99.5247 73.5474-99.5247L56.3267-99.5247C44.7268-99.5247 38.141-92.9106 38.141-81.2733ZM86.2105-67.8098L86.2105-79.9795L100.523-65.5332L88.4848-65.5332C86.9344-65.5332 86.2105-66.2594 86.2105-67.8098ZM12.4609 10.8065C12.4609 22.4602 19.0422 29.0578 30.6466 29.0578L75.6943 29.0578C87.2987 29.0578 93.8964 22.446 93.8964 10.8065L93.8964-24.971C93.8964-32.4483 92.7607-36.548 88.0682-41.2733L63.0245-66.4624C58.3977-71.1221 54.1854-72.2906 46.9519-72.2906L30.6466-72.2906C19.0467-72.2906 12.4609-65.6765 12.4609-54.0392ZM27.5605 8.76251L27.5605-51.9953C27.5605-55.4221 29.113-57.191 32.7891-57.191L44.5161-57.191L44.5161-35.6269C44.5161-25.8906 49.0447-21.3921 58.7509-21.3921L78.7804-21.3921L78.7804 8.76251C78.7804 12.1984 77.2279 13.9582 73.5683 13.9582L32.7727 13.9582C29.113 13.9582 27.5605 12.1984 27.5605 8.76251ZM59.7324-33.2741C57.5084-33.2741 56.3981-34.3844 56.3981-36.6083L56.3981-55.0907L78.0506-33.2741Z"/>
  </g>
  <g id="Bold-M" transform="matrix(1 0 0 1 2275.22 1126)">
   <path d="M37.4448-69.0343L50.0405-69.0343L50.0405-79.9327C50.0405-83.8458 51.9582-85.9554 56.1205-85.9554L74.5719-85.9554L74.5719-65.5729C74.5719-58.8637 78.56-54.9012 85.2149-54.9012L104.436-54.9012L104.436-16.8314C104.436-12.8977 102.518-10.8086 98.3842-10.8086L90.0719-10.8086L90.0719 1.78708L99.9081 1.78708C110.985 1.78708 117.06-4.3168 117.06-15.4506L117.06-52.4385C117.06-59.5715 115.499-64.1871 111.31-68.4958L87.5139-92.7724C83.5248-96.8474 78.652-98.5511 72.3142-98.5511L54.568-98.5511C43.5017-98.5511 37.4448-92.4472 37.4448-81.3134ZM84.1689-66.8256L84.1689-81.7198L101.156-64.4983L86.491-64.4983C84.8798-64.4983 84.1689-65.2143 84.1689-66.8256ZM12.4609 10.7919C12.4609 21.9544 18.5076 28.0296 29.5842 28.0296L74.9242 28.0296C86.0008 28.0296 92.0761 21.9309 92.0761 10.7919L92.0761-25.7892C92.0761-32.8537 91.0817-36.4685 86.6638-40.9437L60.9637-66.8962C56.6602-71.257 52.8503-72.3085 46.2099-72.3085L29.5842-72.3085C18.5178-72.3085 12.4609-66.2046 12.4609-55.0708ZM25.0566 9.41121L25.0566-53.6901C25.0566-57.6032 26.9743-59.7128 31.1366-59.7128L44.3397-59.7128L44.3397-35.8187C44.3397-27.3102 48.3825-23.3269 56.8316-23.3269L79.4517-23.3269L79.4517 9.41121C79.4517 13.3449 77.5341 15.4339 73.4004 15.4339L31.108 15.4339C26.9743 15.4339 25.0566 13.3449 25.0566 9.41121ZM57.7853-33.638C55.6577-33.638 54.6509-34.6448 54.6509-36.7724L54.6509-57.7245L78.4512-33.638Z"/>
  </g>
  <g id="Semibold-M" transform="matrix(1 0 0 1 1979.37 1126)">
   <path d="M36.9648-69.2717L47.8343-69.2717L47.8343-80.4175C47.8343-84.6658 50.0037-87.0104 54.5013-87.0104L74.0816-87.0104L74.0816-64.9397C74.0816-58.6103 77.6225-55.105 83.8794-55.105L104.418-55.105L104.418-15.7006C104.418-11.4238 102.249-9.10771 97.7885-9.10771L88.9872-9.10771L88.9872 1.76182L98.8972 1.76182C109.61 1.76182 115.325-3.99034 115.325-14.7771L115.325-52.7202C115.325-59.4292 113.883-63.7606 109.894-67.8671L85.7831-92.431C81.9778-96.3285 77.4075-97.8799 71.4641-97.8799L53.3556-97.8799C42.6571-97.8799 36.9648-92.1277 36.9648-81.341ZM82.7614-66.147L82.7614-82.9196L101.593-63.7848L85.1166-63.7848C83.4634-63.7848 82.7614-64.4939 82.7614-66.147ZM12.4609 10.7819C12.4609 21.6057 18.139 27.3208 28.8517 27.3208L74.3933 27.3208C85.106 27.3208 90.8211 21.5758 90.8211 10.7819L90.8211-26.3533C90.8211-33.1333 89.9243-36.4136 85.6956-40.7164L59.543-67.1953C55.4624-71.3499 51.9298-72.3209 45.6984-72.3209L28.8517-72.3209C18.1532-72.3209 12.4609-66.5687 12.4609-55.782ZM23.3305 9.85842L23.3305-54.8585C23.3305-59.1068 25.4999-61.4514 29.9974-61.4514L44.2181-61.4514L44.2181-35.951C44.2181-28.2889 47.926-24.6607 55.5085-24.6607L79.9146-24.6607L79.9146 9.85842C79.9146 14.1352 77.7452 16.4513 73.2846 16.4513L29.9604 16.4513C25.4999 16.4513 23.3305 14.1352 23.3305 9.85842ZM56.4429-33.8888C54.3818-33.8888 53.4463-34.8243 53.4463-36.8855L53.4463-59.5403L78.7273-33.8888Z"/>
  </g>
  <g id="Medium-M" transform="matrix(1 0 0 1 1683.32 1126)">
   <path d="M36.6009-69.4517L46.1615-69.4517L46.1615-80.7851C46.1615-85.2877 48.5218-87.8103 53.2736-87.8103L73.7099-87.8103L73.7099-64.4596C73.7099-58.4182 76.9117-55.2594 82.8667-55.2594L104.405-55.2594L104.405-14.8432C104.405-10.3062 102.045-7.818 97.3368-7.818L88.1647-7.818L88.1647 1.74267L98.1308 1.74267C108.567 1.74267 114.01-3.74281 114.01-14.2664L114.01-52.9338C114.01-59.3214 112.658-63.4372 108.821-67.3905L84.4706-92.172C80.8048-95.935 76.4638-97.371 70.8195-97.371L52.4362-97.371C42.0167-97.371 36.6009-91.8855 36.6009-81.3619ZM81.6942-65.6325L81.6942-83.8293L101.924-63.2437L84.0744-63.2437C82.3895-63.2437 81.6942-63.9476 81.6942-65.6325ZM12.4609 10.7743C12.4609 21.3413 17.8596 26.7834 28.2963 26.7834L73.9908 26.7834C84.4275 26.7834 89.8696 21.3065 89.8696 10.7743L89.8696-26.781C89.8696-33.3452 89.0466-36.3721 84.9614-40.5441L58.4657-67.4221C54.5542-71.4205 51.2319-72.3303 45.3105-72.3303L28.2963-72.3303C17.8768-72.3303 12.4609-66.8448 12.4609-56.3212ZM22.0216 10.1975L22.0216-55.7444C22.0216-60.2469 24.3819-62.7696 29.1337-62.7696L44.1259-62.7696L44.1259-36.0513C44.1259-29.0309 47.5799-25.672 54.5052-25.672L80.2655-25.672L80.2655 10.1975C80.2655 14.7345 77.9052 17.2227 73.1969 17.2227L29.0902 17.2227C24.3819 17.2227 22.0216 14.7345 22.0216 10.1975ZM55.4251-34.079C53.4144-34.079 52.5329-34.9605 52.5329-36.9712L52.5329-60.917L78.9367-34.079Z"/>
  </g>
  <g id="Regular-M" transform="matrix(1 0 0 1 1387.47 1126)">
   <path d="M36.1262-69.6865L43.9796-69.6865L43.9796-81.2646C43.9796-86.0987 46.5889-88.8537 51.6722-88.8537L73.2251-88.8537L73.2251-63.8334C73.2251-58.1677 75.9846-55.4609 81.5458-55.4609L104.388-55.4609L104.388-13.7249C104.388-8.84853 101.779-6.13578 96.7476-6.13578L87.0919-6.13578L87.0919 1.71769L97.131 1.71769C107.208 1.71769 112.294-3.41994 112.294-13.6003L112.294-53.2124C112.294-59.1806 111.06-63.0154 107.421-66.7688L82.7588-91.8343C79.2747-95.4219 75.2329-96.7072 69.9787-96.7072L51.2371-96.7072C41.1814-96.7072 36.1262-91.5695 36.1262-81.3892ZM80.3023-64.9614L80.3023-85.0159L102.356-62.5381L82.7151-62.5381C80.9886-62.5381 80.3023-63.235 80.3023-64.9614ZM12.4609 10.7644C12.4609 20.9965 17.4951 26.0824 27.5719 26.0824L73.4658 26.0824C83.5426 26.0824 88.6285 20.9553 88.6285 10.7644L88.6285-27.3389C88.6285-33.6216 87.9019-36.3178 84.0038-40.3194L57.0606-67.7178C53.3695-71.5124 50.3216-72.3425 44.8046-72.3425L27.5719-72.3425C17.5162-72.3425 12.4609-67.2049 12.4609-57.0245ZM20.3144 10.6398L20.3144-56.8999C20.3144-61.7341 22.9237-64.489 28.007-64.489L44.0057-64.489L44.0057-36.1821C44.0057-29.9989 47.1285-26.9911 53.1967-26.9911L80.7232-26.9911L80.7232 10.6398C80.7232 15.5161 78.114 18.2289 73.0824 18.2289L27.9552 18.2289C22.9237 18.2289 20.3144 15.5161 20.3144 10.6398ZM54.0976-34.3271C52.1526-34.3271 51.3416-35.138 51.3416-37.083L51.3416-62.7128L79.2098-34.3271Z"/>
  </g>
  <g id="Light-M" transform="matrix(1 0 0 1 1091.3 1126)">
   <path d="M36.1091-69.9432L42.1488-69.9432L42.1488-81.5042C42.1488-86.9029 45.0489-89.983 50.6969-89.983L72.8487-89.983L72.8487-63.3885C72.8487-58.1334 75.3344-55.786 80.4165-55.786L105.141-55.786L105.141-12.7495C105.141-7.24011 102.241-4.27068 96.6279-4.27068L86.0653-4.27068L86.0653 1.76902L96.9257 1.76902C106.369 1.76902 111.216-3.11195 111.216-12.6249L111.216-54.0337C111.216-58.6673 110.205-61.7492 107.13-64.9208L80.3633-91.937C77.3925-94.977 74.1721-96.0227 69.9958-96.0227L50.3644-96.0227C40.9761-96.0227 36.1091-91.1418 36.1091-81.6288ZM78.3687-64.123L78.3687-86.5901L103.348-61.3061L81.158-61.3061C79.1577-61.3061 78.3687-62.1228 78.3687-64.123ZM12.4609 11.0382C12.4609 20.5858 17.2726 25.4321 26.7163 25.4321L73.2776 25.4321C82.7212 25.4321 87.5676 20.5788 87.5676 11.0382L87.5676-28.5366C87.5676-33.7927 86.8752-36.1125 83.6274-39.4296L54.9217-68.4194C51.8124-71.598 49.2779-72.3596 44.5137-72.3596L26.7163-72.3596C17.3279-72.3596 12.4609-67.4786 12.4609-57.9656ZM18.5006 10.9136L18.5006-57.841C18.5006-63.2398 21.4008-66.3199 27.0488-66.3199L44.8441-66.3199L44.8441-36.9692C44.8441-31.3677 47.676-28.7365 53.0769-28.7365L81.4932-28.7365L81.4932 10.9136C81.4932 16.423 78.5931 19.3924 72.9797 19.3924L27.0141 19.3924C21.4008 19.3924 18.5006 16.423 18.5006 10.9136ZM53.7211-34.4297C51.451-34.4297 50.5374-35.3434 50.5374-37.6135L50.5374-64.4924L80.2536-34.4297Z"/>
  </g>
  <g id="Thin-M" transform="matrix(1 0 0 1 795.297 1126)">
   <path d="M36.0864-70.2826L39.7273-70.2826L39.7273-81.821C39.7273-87.9666 43.0121-91.4766 49.407-91.4766L72.3508-91.4766L72.3508-62.8001C72.3508-58.0882 74.4744-56.216 78.9229-56.216L106.137-56.216L106.137-11.4596C106.137-5.11283 102.852-1.80395 96.4694-1.80395L84.7074-1.80395L84.7074 1.83691L96.6541 1.83691C105.26 1.83691 109.79-2.7046 109.79-11.335L109.79-55.12C109.79-57.9884 109.073-60.0745 106.745-62.4767L77.195-92.0728C74.9032-94.3886 72.769-95.1175 70.0185-95.1175L49.2103-95.1175C40.7045-95.1175 36.0864-90.576 36.0864-81.9456ZM75.8115-63.0141L75.8115-88.6721L104.661-59.6767L79.0986-59.6767C76.7363-59.6767 75.8115-60.6518 75.8115-63.0141ZM12.4609 11.4003C12.4609 20.0427 16.9784 24.5722 25.5848 24.5722L73.0286 24.5722C81.635 24.5722 86.1645 20.081 86.1645 11.4003L86.1645-30.1208C86.1645-34.019 85.5174-35.8409 83.1295-38.2529L52.0929-69.3472C49.7531-71.7111 47.8974-72.3822 44.129-72.3822L25.5848-72.3822C17.079-72.3822 12.4609-67.8407 12.4609-59.2103ZM16.1018 11.2757L16.1018-59.0857C16.1018-65.2313 19.3867-68.7414 25.7815-68.7414L45.953-68.7414L45.953-38.0102C45.953-33.1782 48.4002-31.0448 52.9185-31.0448L82.5116-31.0448L82.5116 11.2757C82.5116 17.6224 79.2267 20.9313 72.8439 20.9313L25.7695 20.9313C19.3867 20.9313 16.1018 17.6224 16.1018 11.2757ZM53.2233-34.5655C50.5232-34.5655 49.4737-35.6149 49.4737-38.315L49.4737-66.846L81.6341-34.5655Z"/>
  </g>
  <g id="Ultralight-M" transform="matrix(1 0 0 1 498.951 1126)">
   <path d="M36.0748-70.4565L38.487-70.4565L38.487-81.9833C38.487-88.5114 41.9689-92.2417 48.7463-92.2417L72.0958-92.2417L72.0958-62.4987C72.0958-58.065 74.034-56.4362 78.1579-56.4362L106.647-56.4362L106.647-10.7989C106.647-4.02325 103.165-0.5405 96.3883-0.5405L84.012-0.5405L84.012 1.87169L96.515 1.87169C104.692 1.87169 109.06-2.49595 109.06-10.6743L109.06-55.6764C109.06-57.6407 108.494-59.2168 106.548-61.2248L75.5722-92.1423C73.6281-94.0872 72.0503-94.6538 70.03-94.6538L48.6191-94.6538C40.5654-94.6538 36.0748-90.2862 36.0748-82.1079ZM74.5017-62.4461L74.5017-89.7385L105.333-58.8421L78.0438-58.8421C75.496-58.8421 74.5017-59.8984 74.5017-62.4461ZM12.4609 11.5857C12.4609 19.7645 16.8277 24.1317 25.0052 24.1317L72.9011 24.1317C81.0786 24.1317 85.4458 19.826 85.4458 11.5857L85.4458-30.9322C85.4458-34.135 84.8219-35.7018 82.8745-37.6501L50.644-69.8225C48.6983-71.7691 47.1903-72.3938 43.932-72.3938L25.0052-72.3938C16.9515-72.3938 12.4609-68.0262 12.4609-59.8479ZM14.8731 11.4611L14.8731-59.7232C14.8731-66.2513 18.355-69.9816 25.1324-69.9816L46.521-69.9816L46.521-38.5434C46.521-34.1055 48.7711-32.2271 52.8373-32.2271L83.0332-32.2271L83.0332 11.4611C83.0332 18.2368 79.5513 21.7195 72.7744 21.7195L25.1319 21.7195C18.355 21.7195 14.8731 18.2368 14.8731 11.4611ZM52.9682-34.6351C50.0479-34.6351 48.929-35.754 48.929-38.6744L48.929-68.0514L82.3411-34.6351Z"/>
  </g>
  <g id="Black-S" transform="matrix(1 0 0 1 2880.47 696)">
   <path d="M30.5664-61.1328L44.7266-61.1328L44.7266-69.043C44.7266-71.2891 45.6055-72.3633 48.0469-72.3633L59.668-72.3633L59.668-60.5957C59.668-54.3945 63.916-50.1465 70.1172-50.1465L81.9336-50.1465L81.9336-23.6328C81.9336-21.3867 81.0547-20.3125 78.6133-20.3125L73.291-20.3125L73.291-6.15234L80.8594-6.15234C90.4297-6.15234 96.0938-11.8164 96.0938-21.3867L96.0938-48.0469C96.0938-54.6387 94.5801-58.9355 90.8203-62.793L72.8516-81.2012C69.2871-84.8145 64.7461-86.5234 58.8379-86.5234L45.8008-86.5234C36.2305-86.5234 30.5664-80.8594 30.5664-71.2891ZM69.4336-61.6699L69.4336-68.7012L78.2227-59.9121L71.1914-59.9121C70.0195-59.9121 69.4336-60.498 69.4336-61.6699ZM9.76562 0.878906C9.76562 10.4492 15.4297 16.1133 25 16.1133L60.0586 16.1133C69.6289 16.1133 75.293 10.4492 75.293 0.878906L75.293-26.4648C75.293-32.666 74.2676-36.3281 70.3613-40.2344L51.2695-59.3262C47.3633-63.2324 43.7012-64.2578 37.5-64.2578L25-64.2578C15.4297-64.2578 9.76562-58.5938 9.76562-49.0234ZM23.9258-1.36719L23.9258-46.7773C23.9258-49.0234 24.8047-50.0977 27.2461-50.0977L35.1074-50.0977L35.1074-35.4004C35.1074-26.6113 39.1113-22.6074 47.9004-22.6074L61.1328-22.6074L61.1328-1.36719C61.1328 0.878906 60.2539 1.95312 57.8125 1.95312L27.2461 1.95312C24.8047 1.95312 23.9258 0.878906 23.9258-1.36719ZM48.6816-33.3496C46.8262-33.3496 45.8496-34.3262 45.8496-36.1816L45.8496-48.3398L60.8398-33.3496Z"/>
  </g>
  <g id="Heavy-S" transform="matrix(1 0 0 1 2584.65 696)">
   <path d="M30.0363-61.3633L42.5139-61.3633L42.5139-69.55C42.5139-72.0958 43.6348-73.389 46.3758-73.389L59.1724-73.389L59.1724-59.9503C59.1724-54.1179 62.9595-50.3309 68.7803-50.3309L81.8183-50.3309L81.8183-22.5034C81.8183-19.9577 80.6974-18.6645 77.9679-18.6645L72.2192-18.6645L72.2192-6.18692L79.7646-6.18692C89.0122-6.18692 94.3075-11.4937 94.3075-20.7644L94.3075-48.2543C94.3075-54.5465 92.8975-58.6244 89.2876-62.332L71.2381-80.8093C67.812-84.2959 63.5015-85.8665 57.8929-85.8665L44.5677-85.8665C35.32-85.8665 30.0363-80.5597 30.0363-71.2891ZM68.1198-61.0246L68.1198-69.8306L78.5799-59.2783L69.8661-59.2783C68.6827-59.2783 68.1198-59.8412 68.1198-61.0246ZM9.76562 0.832808C9.76562 10.115 15.0494 15.4103 24.297 15.4103L59.4939 15.4103C68.7415 15.4103 74.0368 10.1035 74.0368 0.832808L74.0368-26.9373C74.0368-32.9541 73.1151-36.2936 69.3357-40.0961L49.9673-59.5682C46.2339-63.3246 42.8138-64.2693 36.9699-64.2693L24.297-64.2693C15.0494-64.2693 9.76562-58.9625 9.76562-49.6919ZM22.2432-0.906209L22.2432-47.9528C22.2432-50.4986 23.3641-51.7918 26.1052-51.7918L34.8654-51.7918L34.8654-35.4465C34.8654-27.5218 38.5351-23.8636 46.4483-23.8636L61.5477-23.8636L61.5477-0.906209C61.5477 1.63952 60.4268 2.9327 57.6973 2.9327L26.0936 2.9327C23.3641 2.9327 22.2432 1.63952 22.2432-0.906209ZM47.2411-33.6147C45.5009-33.6147 44.6165-34.499 44.6165-36.2393L44.6165-50.1261L61.0127-33.6147Z"/>
  </g>
  <g id="Bold-S" transform="matrix(1 0 0 1 2288.94 696)">
   <path d="M29.4434-61.6211L40.0391-61.6211L40.0391-70.1172C40.0391-72.998 41.4307-74.5361 44.5068-74.5361L58.6182-74.5361L58.6182-59.2285C58.6182-53.8086 61.8896-50.5371 67.2852-50.5371L81.6895-50.5371L81.6895-21.2402C81.6895-18.3594 80.2979-16.8213 77.2461-16.8213L71.0205-16.8213L71.0205-6.22559L78.54-6.22559C87.4268-6.22559 92.3096-11.1328 92.3096-20.0684L92.3096-48.4863C92.3096-54.4434 91.0156-58.2764 87.5732-61.8164L69.4336-80.3711C66.1621-83.7158 62.1094-85.1318 56.8359-85.1318L43.1885-85.1318C34.3018-85.1318 29.4434-80.2246 29.4434-71.2891ZM66.6504-60.3027L66.6504-71.0938L78.9795-58.5693L68.3838-58.5693C67.1875-58.5693 66.6504-59.1064 66.6504-60.3027ZM9.76562 0.78125C9.76562 9.74121 14.624 14.624 23.5107 14.624L58.8623 14.624C67.749 14.624 72.6318 9.7168 72.6318 0.78125L72.6318-27.4658C72.6318-33.2764 71.8262-36.2549 68.1885-39.9414L48.5107-59.8389C44.9707-63.4277 41.8213-64.2822 36.377-64.2822L23.5107-64.2822C14.624-64.2822 9.76562-59.375 9.76562-50.4395ZM20.3613-0.390625L20.3613-49.2676C20.3613-52.1484 21.7529-53.6865 24.8291-53.6865L34.5947-53.6865L34.5947-35.498C34.5947-28.54 37.8906-25.2686 44.8242-25.2686L62.0117-25.2686L62.0117-0.390625C62.0117 2.49023 60.6201 4.02832 57.5684 4.02832L24.8047 4.02832C21.7529 4.02832 20.3613 2.49023 20.3613-0.390625ZM45.6299-33.9111C44.0186-33.9111 43.2373-34.6924 43.2373-36.3037L43.2373-52.124L61.2061-33.9111Z"/>
  </g>
  <g id="Semibold-S" transform="matrix(1 0 0 1 1992.92 696)">
   <path d="M29.0346-61.7988L38.3328-61.7988L38.3328-70.5082C38.3328-73.6201 39.911-75.3271 43.2183-75.3271L58.236-75.3271L58.236-58.7309C58.236-53.5953 61.1521-50.6793 66.2543-50.6793L81.6006-50.6793L81.6006-20.3693C81.6006-17.2574 80.0224-15.5505 76.7484-15.5505L70.194-15.5505L70.194-6.25225L77.6958-6.25225C86.3337-6.25225 90.9321-10.884 90.9321-19.5885L90.9321-48.6463C90.9321-54.3723 89.7182-58.0364 86.3913-61.4609L68.1895-80.0689C65.0246-83.3159 61.1496-84.6253 56.1072-84.6253L42.2376-84.6253C33.5997-84.6253 29.0346-79.9936 29.0346-71.2891ZM65.6373-59.8051L65.6373-71.9646L79.255-58.0806L67.3618-58.0806C66.1566-58.0806 65.6373-58.5999 65.6373-59.8051ZM9.76562 0.745703C9.76562 9.4835 14.3308 14.0819 22.9687 14.0819L58.4269 14.0819C67.0647 14.0819 71.6632 9.4502 71.6632 0.745703L71.6632-27.8302C71.6632-33.4985 70.9375-36.2282 67.3976-39.8348L47.5065-60.0255C44.0998-63.4988 41.137-64.2911 35.9682-64.2911L22.9687-64.2911C14.3308-64.2911 9.76562-59.6594 9.76562-50.9549ZM19.0639-0.0351563L19.0639-50.174C19.0639-53.2859 20.6421-54.9929 23.9493-54.9929L34.4081-54.9929L34.4081-35.5336C34.4081-29.2421 37.4463-26.2372 43.7045-26.2372L62.3316-26.2372L62.3316-0.0351563C62.3316 3.07676 60.7534 4.78369 57.4795 4.78369L23.916 4.78369C20.6421 4.78369 19.0639 3.07676 19.0639-0.0351563ZM44.519-34.1155C42.9966-34.1155 42.2864-34.8257 42.2864-36.3481L42.2864-53.5015L61.3394-34.1155Z"/>
  </g>
  <g id="Medium-S" transform="matrix(1 0 0 1 1696.73 696)">
   <path d="M28.7246-61.9336L37.0391-61.9336L37.0391-70.8047C37.0391-74.0918 38.7588-75.9268 42.2412-75.9268L57.9463-75.9268L57.9463-58.3535C57.9463-53.4336 60.5928-50.7871 65.4727-50.7871L81.5332-50.7871L81.5332-19.709C81.5332-16.4219 79.8135-14.5869 76.3711-14.5869L69.5674-14.5869L69.5674-6.27246L77.0557-6.27246C85.5049-6.27246 89.8877-10.6953 89.8877-19.2246L89.8877-48.7676C89.8877-54.3184 88.7344-57.8545 85.4951-61.1914L67.2461-79.8398C64.1621-83.0127 60.4219-84.2412 55.5547-84.2412L41.5166-84.2412C33.0674-84.2412 28.7246-79.8184 28.7246-71.2891ZM64.8691-59.4277L64.8691-72.625L79.4639-57.71L66.5869-57.71C65.375-57.71 64.8691-58.2158 64.8691-59.4277ZM9.76562 0.71875C9.76562 9.28809 14.1084 13.6709 22.5576 13.6709L58.0967 13.6709C66.5459 13.6709 70.9287 9.24805 70.9287 0.71875L70.9287-28.1064C70.9287-33.667 70.2637-36.208 66.7979-39.7539L46.7451-60.167C43.4395-63.5527 40.6182-64.2979 35.6582-64.2979L22.5576-64.2979C14.1084-64.2979 9.76562-59.875 9.76562-51.3457ZM18.0801 0.234375L18.0801-50.8613C18.0801-54.1484 19.7998-55.9834 23.2822-55.9834L34.2666-55.9834L34.2666-35.5605C34.2666-29.7744 37.1094-26.9717 42.8555-26.9717L62.5742-26.9717L62.5742 0.234375C62.5742 3.52148 60.8545 5.35645 57.4121 5.35645L23.2422 5.35645C19.7998 5.35645 18.0801 3.52148 18.0801 0.234375ZM43.6768-34.2705C42.2217-34.2705 41.5654-34.9268 41.5654-36.3818L41.5654-54.5459L61.4404-34.2705Z"/>
  </g>
  <g id="Regular-S" transform="matrix(1 0 0 1 1400.7 696)">
   <path d="M28.3203-62.1094L35.3516-62.1094L35.3516-71.1914C35.3516-74.707 37.2559-76.709 40.9668-76.709L57.5684-76.709L57.5684-57.8613C57.5684-53.2227 59.8633-50.9277 64.4531-50.9277L81.4453-50.9277L81.4453-18.8477C81.4453-15.332 79.541-13.3301 75.8789-13.3301L68.75-13.3301L68.75-6.29883L76.2207-6.29883C84.4238-6.29883 88.5254-10.4492 88.5254-18.75L88.5254-48.9258C88.5254-54.248 87.4512-57.6172 84.3262-60.8398L66.0156-79.541C63.0371-82.6172 59.4727-83.7402 54.834-83.7402L40.5762-83.7402C32.373-83.7402 28.3203-79.5898 28.3203-71.2891ZM63.8672-58.9355L63.8672-73.4863L79.7363-57.2266L65.5762-57.2266C64.3555-57.2266 63.8672-57.7148 63.8672-58.9355ZM9.76562 0.683594C9.76562 9.0332 13.8184 13.1348 22.0215 13.1348L57.666 13.1348C65.8691 13.1348 69.9707 8.98438 69.9707 0.683594L69.9707-28.4668C69.9707-33.8867 69.3848-36.1816 66.0156-39.6484L45.752-60.3516C42.5781-63.623 39.9414-64.3066 35.2539-64.3066L22.0215-64.3066C13.8184-64.3066 9.76562-60.1562 9.76562-51.8555ZM16.7969 0.585938L16.7969-51.7578C16.7969-55.2734 18.7012-57.2754 22.4121-57.2754L34.082-57.2754L34.082-35.5957C34.082-30.4688 36.6699-27.9297 41.748-27.9297L62.8906-27.9297L62.8906 0.585938C62.8906 4.10156 60.9863 6.10352 57.3242 6.10352L22.3633 6.10352C18.7012 6.10352 16.7969 4.10156 16.7969 0.585938ZM42.5781-34.4727C41.2109-34.4727 40.625-35.0586 40.625-36.4258L40.625-55.9082L61.5723-34.4727Z"/>
  </g>
  <g id="Light-S" transform="matrix(1 0 0 1 1104.46 696)">
   <path d="M28.3052-62.3364L33.7319-62.3364L33.7319-71.4033C33.7319-75.4185 35.8936-77.708 40.104-77.708L57.2354-77.708L57.2354-57.4678C57.2354-53.1924 59.2881-51.2153 63.4541-51.2153L82.1113-51.2153L82.1113-17.9849C82.1113-13.9092 79.9497-11.6802 75.773-11.6802L67.8418-11.6802L67.8418-6.25342L76.0391-6.25342C83.6821-6.25342 87.5718-10.1768 87.5718-17.8872L87.5718-49.6523C87.5718-53.7939 86.6943-56.4971 84.0688-59.2051L63.8965-79.6318C61.3721-82.2236 58.5342-83.1348 54.8491-83.1348L39.8042-83.1348C32.1914-83.1348 28.3052-79.2114 28.3052-71.501ZM62.1568-58.1939L62.1568-74.8789L80.6143-56.1367L64.1987-56.1367C62.7359-56.1367 62.1568-56.731 62.1568-58.1939ZM9.76562 0.925779C9.76562 8.66992 13.6216 12.5596 21.2647 12.5596L57.4995 12.5596C65.1426 12.5596 69.0322 8.65137 69.0322 0.925779L69.0322-29.5264C69.0322-34.0381 68.4766-36 65.6826-38.8613L43.8599-60.9722C41.2007-63.6987 39.0181-64.3218 34.9966-64.3218L21.2647-64.3218C13.6519-64.3218 9.76562-60.3984 9.76562-52.688ZM15.1924 0.828123L15.1924-52.5903C15.1924-56.6055 17.354-58.895 21.5645-58.895L34.8237-58.895L34.8237-36.292C34.8237-31.6797 37.1543-29.4736 41.6421-29.4736L63.5718-29.4736L63.5718 0.828123C63.5718 4.9038 61.4102 7.1328 57.2334 7.1328L21.5308 7.1328C17.354 7.1328 15.1924 4.9038 15.1924 0.828123ZM42.2451-34.5635C40.5903-34.5635 39.9136-35.2402 39.9136-36.895L39.9136-57.4824L62.4956-34.5635Z"/>
  </g>
  <g id="Thin-S" transform="matrix(1 0 0 1 808.384 696)">
   <path d="M28.2852-62.6367L31.5899-62.6367L31.5899-71.6836C31.5899-76.3594 34.0918-79.0293 38.9629-79.0293L56.7949-79.0293L56.7949-56.9473C56.7949-53.1523 58.5274-51.5957 62.1328-51.5957L82.9922-51.5957L82.9922-16.8438C82.9922-12.0274 80.4902-9.49808 75.6328-9.49808L66.6406-9.49808L66.6406-6.19336L75.7988-6.19336C82.7012-6.19336 86.3106-9.81641 86.3106-16.7461L86.3106-50.6133C86.3106-53.1934 85.6934-55.0156 83.7285-57.043L61.0938-79.752C59.17-81.7031 57.293-82.334 54.8691-82.334L38.7832-82.334C31.9512-82.334 28.2852-78.7109 28.2852-71.7812ZM59.8946-57.2129L59.8946-76.7207L81.7754-54.6953L62.377-54.6953C60.5938-54.6953 59.8946-55.4297 59.8946-57.2129ZM9.76562 1.24609C9.76562 8.18946 13.3613 11.7988 20.2637 11.7988L57.2793 11.7988C64.1817 11.7988 67.791 8.21094 67.791 1.24609L67.791-30.9277C67.791-34.2383 67.2754-35.7598 65.2422-37.8203L41.3575-61.793C39.3789-63.7988 37.7969-64.3418 34.6563-64.3418L20.2637-64.3418C13.4316-64.3418 9.76562-60.7187 9.76562-53.789ZM13.0703 1.14843L13.0703-53.6914C13.0703-58.3672 15.5723-61.0371 20.4434-61.0371L35.8047-61.0371L35.8047-37.2129C35.8047-33.2812 37.7949-31.5156 41.502-31.5156L64.4726-31.5156L64.4726 1.14843C64.4726 5.96483 61.9707 8.49412 57.1133 8.49412L20.4297 8.49412C15.5723 8.49412 13.0703 5.96483 13.0703 1.14843ZM41.8047-34.6836C39.7695-34.6836 38.9727-35.4805 38.9727-37.5156L38.9727-59.5644L63.7168-34.6836Z"/>
  </g>
  <g id="Ultralight-S" transform="matrix(1 0 0 1 511.996 696)">
   <path d="M28.2749-62.7905L30.4927-62.7905L30.4927-71.8271C30.4927-76.8413 33.169-79.706 38.3784-79.706L56.5693-79.706L56.5693-56.6807C56.5693-53.1318 58.1377-51.7905 61.4561-51.7905L83.4433-51.7905L83.4433-16.2593C83.4433-11.0635 80.7671-8.38041 75.561-8.38041L66.0254-8.38041L66.0254-6.1626L75.6758-6.1626C82.1987-6.1626 85.6646-9.63184 85.6646-16.1616L85.6646-51.1055C85.6646-52.8858 85.1807-54.2569 83.5542-55.9356L59.6583-79.8135C58.042-81.4365 56.6572-81.9238 54.8794-81.9238L38.2603-81.9238C31.8281-81.9238 28.2749-78.4546 28.2749-71.9248ZM58.7359-56.7105L58.7359-77.664L82.3701-53.9571L61.4439-53.9571C59.4966-53.9571 58.7359-54.7632 58.7359-56.7105ZM9.76562 1.41015C9.76562 7.94337 13.228 11.4092 19.751 11.4092L57.1665 11.4092C63.6895 11.4092 67.1553 7.98536 67.1553 1.41015L67.1553-31.6455C67.1553-34.3408 66.6602-35.6367 65.0166-37.2871L40.0757-62.2134C38.4458-63.8501 37.1714-64.3521 34.4819-64.3521L19.751-64.3521C13.3189-64.3521 9.76562-60.8828 9.76562-54.353ZM11.9834 1.31249L11.9834-54.2554C11.9834-59.2695 14.6597-62.1342 19.8692-62.1342L36.3071-62.1342L36.3071-37.6846C36.3071-34.1015 38.123-32.5615 41.4302-32.5615L64.9341-32.5615L64.9341 1.31249C64.9341 6.50828 62.2578 9.19138 57.0518 9.19138L19.8657 9.19138C14.6597 9.19138 11.9834 6.50828 11.9834 1.31249ZM41.5791-34.7451C39.3491-34.7451 38.4907-35.6035 38.4907-37.8335L38.4907-60.6308L64.3423-34.7451Z"/>
  </g>
 </g>
</svg>
