<?xml version="1.0" encoding="UTF-8"?>
<!--Generator: Apple Native CoreSVG 341-->
<!DOCTYPE svg
PUBLIC "-//W3C//DTD SVG 1.1//EN"
       "http://www.w3.org/Graphics/SVG/1.1/DTD/svg11.dtd">
<svg version="1.1" xmlns="http://www.w3.org/2000/svg" xmlns:xlink="http://www.w3.org/1999/xlink" viewBox="0 0 3300 2200">
 <g id="Notes">
  <rect height="2200" id="artboard" style="fill:white;opacity:1" width="3300" x="0" y="0"/>
  <line style="fill:none;stroke:black;opacity:1;stroke-width:0.5;" x1="263" x2="3036" y1="292" y2="292"/>
  <text style="stroke:none;fill:black;font-family:sans-serif;font-size:13;font-weight:bold;" transform="matrix(1 0 0 1 263 322)">Weight/Scale Variations</text>
  <text style="stroke:none;fill:black;font-family:sans-serif;font-size:13;text-anchor:middle;" transform="matrix(1 0 0 1 559.711 322)">Ultralight</text>
  <text style="stroke:none;fill:black;font-family:sans-serif;font-size:13;text-anchor:middle;" transform="matrix(1 0 0 1 856.422 322)">Thin</text>
  <text style="stroke:none;fill:black;font-family:sans-serif;font-size:13;text-anchor:middle;" transform="matrix(1 0 0 1 1153.13 322)">Light</text>
  <text style="stroke:none;fill:black;font-family:sans-serif;font-size:13;text-anchor:middle;" transform="matrix(1 0 0 1 1449.84 322)">Regular</text>
  <text style="stroke:none;fill:black;font-family:sans-serif;font-size:13;text-anchor:middle;" transform="matrix(1 0 0 1 1746.56 322)">Medium</text>
  <text style="stroke:none;fill:black;font-family:sans-serif;font-size:13;text-anchor:middle;" transform="matrix(1 0 0 1 2043.27 322)">Semibold</text>
  <text style="stroke:none;fill:black;font-family:sans-serif;font-size:13;text-anchor:middle;" transform="matrix(1 0 0 1 2339.98 322)">Bold</text>
  <text style="stroke:none;fill:black;font-family:sans-serif;font-size:13;text-anchor:middle;" transform="matrix(1 0 0 1 2636.69 322)">Heavy</text>
  <text style="stroke:none;fill:black;font-family:sans-serif;font-size:13;text-anchor:middle;" transform="matrix(1 0 0 1 2933.4 322)">Black</text>
  <line style="fill:none;stroke:black;opacity:1;stroke-width:0.5;" x1="263" x2="3036" y1="1903" y2="1903"/>
  <g transform="matrix(0.2 0 0 0.2 263 1933)">
   <path d="m46.2402 4.15039c21.7773 0 39.4531-17.627 39.4531-39.4043s-17.6758-39.4043-39.4531-39.4043c-21.7285 0-39.4043 17.627-39.4043 39.4043s17.6758 39.4043 39.4043 39.4043Zm0-7.42188c-17.6758 0-31.9336-14.3066-31.9336-31.9824s14.2578-31.9824 31.9336-31.9824 31.9824 14.3066 31.9824 31.9824-14.3066 31.9824-31.9824 31.9824Zm3.61328-17.7734v-28.4668c0-2.24609-1.46484-3.75977-3.71094-3.75977-2.14844 0-3.61328 1.51367-3.61328 3.75977v28.4668c0 2.19727 1.46484 3.71094 3.61328 3.71094 2.24609 0 3.71094-1.51367 3.71094-3.71094Zm-17.8223-10.5957h28.418c2.19727 0 3.71094-1.46484 3.71094-3.61328 0-2.19727-1.51367-3.71094-3.71094-3.71094h-28.418c-2.24609 0-3.75977 1.51367-3.75977 3.71094 0 2.14844 1.51367 3.61328 3.75977 3.61328Z"/>
  </g>
  <g transform="matrix(0.2 0 0 0.2 281.506 1933)">
   <path d="m58.5449 14.5508c27.4902 0 49.8047-22.3145 49.8047-49.8047s-22.3145-49.8047-49.8047-49.8047-49.8047 22.3145-49.8047 49.8047 22.3145 49.8047 49.8047 49.8047Zm0-8.30078c-22.9492 0-41.5039-18.5547-41.5039-41.5039s18.5547-41.5039 41.5039-41.5039 41.5039 18.5547 41.5039 41.5039-18.5547 41.5039-41.5039 41.5039Zm4.05273-23.0957v-36.9141c0-2.49023-1.70898-4.19922-4.15039-4.19922-2.39258 0-4.05273 1.70898-4.05273 4.19922v36.9141c0 2.44141 1.66016 4.15039 4.05273 4.15039 2.44141 0 4.15039-1.66016 4.15039-4.15039Zm-22.5586-14.4043h36.9629c2.44141 0 4.15039-1.61133 4.15039-4.00391 0-2.44141-1.70898-4.15039-4.15039-4.15039h-36.9629c-2.49023 0-4.15039 1.70898-4.15039 4.15039 0 2.39258 1.66016 4.00391 4.15039 4.00391Z"/>
  </g>
  <g transform="matrix(0.2 0 0 0.2 304.924 1933)">
   <path d="m74.8535 28.3203c35.1074 0 63.623-28.4668 63.623-63.5742s-28.5156-63.623-63.623-63.623-63.5742 28.5156-63.5742 63.623 28.4668 63.5742 63.5742 63.5742Zm0-9.08203c-30.127 0-54.4922-24.3652-54.4922-54.4922s24.3652-54.4922 54.4922-54.4922 54.4922 24.3652 54.4922 54.4922-24.3652 54.4922-54.4922 54.4922Zm4.44336-30.3223v-48.4863c0-2.73438-1.85547-4.63867-4.54102-4.63867-2.58789 0-4.44336 1.9043-4.44336 4.63867v48.4863c0 2.68555 1.85547 4.58984 4.44336 4.58984 2.68555 0 4.54102-1.85547 4.54102-4.58984Zm-28.7109-19.7754h48.4863c2.68555 0 4.58984-1.80664 4.58984-4.39453 0-2.73438-1.85547-4.58984-4.58984-4.58984h-48.4863c-2.73438 0-4.58984 1.85547-4.58984 4.58984 0 2.58789 1.85547 4.39453 4.58984 4.39453Z"/>
  </g>
  <text style="stroke:none;fill:black;font-family:sans-serif;font-size:13;font-weight:bold;" transform="matrix(1 0 0 1 263 1953)">Design Variations</text>
  <text style="stroke:none;fill:black;font-family:sans-serif;font-size:13;" transform="matrix(1 0 0 1 263 1971)">Symbols are supported in up to nine weights and three scales.</text>
  <text style="stroke:none;fill:black;font-family:sans-serif;font-size:13;" transform="matrix(1 0 0 1 263 1989)">For optimal layout with text and other symbols, vertically align</text>
  <text style="stroke:none;fill:black;font-family:sans-serif;font-size:13;" transform="matrix(1 0 0 1 263 2007)">symbols with the adjacent text.</text>
  <line style="fill:none;stroke:#00AEEF;stroke-width:0.5;opacity:1.0;" x1="776" x2="776" y1="1919" y2="1933"/>
  <g transform="matrix(0.2 0 0 0.2 776 1933)">
   <path d="m16.5527 0.78125c2.58789 0 3.85742-0.976562 4.78516-3.71094l20.5566-57.5195h0.244141l20.6055 57.5195c0.927734 2.73438 2.19727 3.71094 4.73633 3.71094 2.58789 0 4.24805-1.5625 4.24805-4.00391 0-0.830078-0.146484-1.61133-0.537109-2.63672l-22.9004-60.9863c-1.12305-2.97852-3.125-4.49219-6.25-4.49219-3.02734 0-5.07812 1.46484-6.15234 4.44336l-22.9004 61.084c-0.390625 1.02539-0.537109 1.80664-0.537109 2.63672 0 2.44141 1.5625 3.95508 4.10156 3.95508Zm10.2051-20.9473h30.6641c2.00195 0 3.66211-1.66016 3.66211-3.66211 0-2.05078-1.66016-3.66211-3.66211-3.66211h-30.6641c-2.00195 0-3.66211 1.61133-3.66211 3.66211 0 2.00195 1.66016 3.66211 3.66211 3.66211Z"/>
  </g>
  <line style="fill:none;stroke:#00AEEF;stroke-width:0.5;opacity:1.0;" x1="792.836" x2="792.836" y1="1919" y2="1933"/>
  <text style="stroke:none;fill:black;font-family:sans-serif;font-size:13;font-weight:bold;" transform="matrix(1 0 0 1 776 1953)">Margins</text>
  <text style="stroke:none;fill:black;font-family:sans-serif;font-size:13;" transform="matrix(1 0 0 1 776 1971)">Leading and trailing margins on the left and right side of each symbol</text>
  <text style="stroke:none;fill:black;font-family:sans-serif;font-size:13;" transform="matrix(1 0 0 1 776 1989)">can be adjusted by modifying the x-location of the margin guidelines.</text>
  <text style="stroke:none;fill:black;font-family:sans-serif;font-size:13;" transform="matrix(1 0 0 1 776 2007)">Modifications are automatically applied proportionally to all</text>
  <text style="stroke:none;fill:black;font-family:sans-serif;font-size:13;" transform="matrix(1 0 0 1 776 2025)">scales and weights.</text>
  <g transform="matrix(0.2 0 0 0.2 1289 1933)">
   <path d="m14.209 13.1348 7.86133 7.86133c4.29688 4.39453 9.32617 4.10156 13.8672-1.02539l60.6934-68.2129-4.88281-4.88281-60.2539 67.6758c-1.80664 1.95312-3.4668 2.44141-5.81055 0.0976562l-5.17578-5.12695c-2.29492-2.29492-1.80664-3.95508 0.195312-5.81055l67.4805-62.1582-4.88281-4.83398-68.0664 62.5977c-4.98047 4.58984-5.32227 9.47266-1.02539 13.8184Zm44.873-97.4609c-2.05078 2.00195-2.24609 4.88281-1.07422 6.78711 1.12305 1.80664 3.4668 3.02734 6.5918 2.24609 5.85938-1.66016 12.5977-2.39258 18.8965 0.927734l-2.68555 7.12891c-1.61133 4.00391-0.732422 6.88477 1.70898 9.42383l10.2539 10.3027c2.34375 2.39258 4.54102 2.44141 7.08008 1.95312l4.44336-0.732422 2.58789 2.53906-0.195312 2.24609c-0.0976562 2.29492 0.537109 4.29688 2.7832 6.49414l3.36914 3.32031c2.29492 2.29492 5.51758 2.49023 7.8125 0.195312l12.9883-13.0371c2.29492-2.34375 2.14844-5.37109-0.195312-7.66602l-3.41797-3.41797c-2.19727-2.19727-4.05273-3.02734-6.34766-2.88086l-2.34375 0.244141-2.44141-2.44141 1.02539-4.6875c0.634766-2.73438-0.244141-4.98047-2.88086-7.61719l-11.2793-11.1816c-12.9395-12.8418-35.5957-11.0352-46.6797-0.146484Zm7.08008 2.05078c8.78906-6.39648 25.9766-5.66406 33.6914 1.95312l12.3047 12.207c1.02539 1.02539 1.2207 1.80664 0.927734 3.32031l-1.46484 6.64062 6.73828 6.68945 4.39453-0.244141c1.12305-0.0488281 1.51367 0.0488281 2.34375 0.878906l2.53906 2.49023-10.8398 10.8398-2.49023-2.49023c-0.830078-0.878906-0.976562-1.2207-0.927734-2.39258l0.292969-4.3457-6.68945-6.73828-6.83594 1.17188c-1.41602 0.292969-2.05078 0.195312-3.17383-0.878906l-8.93555-8.88672c-1.07422-1.02539-1.17188-1.70898-0.488281-3.36914l4.58984-11.4746c-6.10352-6.34766-17.041-7.51953-25.5859-4.58984-0.683594 0.244141-0.927734-0.390625-0.390625-0.78125Z"/>
  </g>
  <text style="stroke:none;fill:black;font-family:sans-serif;font-size:13;font-weight:bold;" transform="matrix(1 0 0 1 1289 1953)">Exporting</text>
  <text style="stroke:none;fill:black;font-family:sans-serif;font-size:13;" transform="matrix(1 0 0 1 1289 1971)">Symbols should be outlined when exporting to ensure the</text>
  <text style="stroke:none;fill:black;font-family:sans-serif;font-size:13;" transform="matrix(1 0 0 1 1289 1989)">design is preserved when submitting to Xcode.</text>
  <text id="template-version" style="stroke:none;fill:black;font-family:sans-serif;font-size:13;text-anchor:end;" transform="matrix(1 0 0 1 3036 1933)">Template v.2.0</text>
  <text style="stroke:none;fill:black;font-family:sans-serif;font-size:13;text-anchor:end;" transform="matrix(1 0 0 1 3036 1951)">Requires Xcode 12 or greater</text>
  <text id="descriptive-name" style="stroke:none;fill:black;font-family:sans-serif;font-size:13;text-anchor:end;" transform="matrix(1 0 0 1 3036 1969)">Generated from book.fill</text>
  <text style="stroke:none;fill:black;font-family:sans-serif;font-size:13;text-anchor:end;" transform="matrix(1 0 0 1 3036 1987)">Typeset at 100.0 points</text>
  <text style="stroke:none;fill:black;font-family:sans-serif;font-size:13;" transform="matrix(1 0 0 1 263 726)">Small</text>
  <text style="stroke:none;fill:black;font-family:sans-serif;font-size:13;" transform="matrix(1 0 0 1 263 1156)">Medium</text>
  <text style="stroke:none;fill:black;font-family:sans-serif;font-size:13;" transform="matrix(1 0 0 1 263 1586)">Large</text>
 </g>
 <g id="Guides">
  <g id="H-reference" style="fill:#27AAE1;stroke:none;" transform="matrix(1 0 0 1 339 696)">
   <path d="M0.993654 0L3.63775 0L29.3281-67.1323L30.0303-67.1323L30.0303-70.459L28.1226-70.459ZM11.6885-24.4799L46.9815-24.4799L46.2315-26.7285L12.4385-26.7285ZM55.1196 0L57.7637 0L30.6382-70.459L29.4326-70.459L29.4326-67.1323Z"/>
  </g>
  <line id="Baseline-S" style="fill:none;stroke:#27AAE1;opacity:1;stroke-width:0.5;" x1="263" x2="3036" y1="696" y2="696"/>
  <line id="Capline-S" style="fill:none;stroke:#27AAE1;opacity:1;stroke-width:0.5;" x1="263" x2="3036" y1="625.541" y2="625.541"/>
  <g id="H-reference" style="fill:#27AAE1;stroke:none;" transform="matrix(1 0 0 1 339 1126)">
   <path d="M0.993654 0L3.63775 0L29.3281-67.1323L30.0303-67.1323L30.0303-70.459L28.1226-70.459ZM11.6885-24.4799L46.9815-24.4799L46.2315-26.7285L12.4385-26.7285ZM55.1196 0L57.7637 0L30.6382-70.459L29.4326-70.459L29.4326-67.1323Z"/>
  </g>
  <line id="Baseline-M" style="fill:none;stroke:#27AAE1;opacity:1;stroke-width:0.5;" x1="263" x2="3036" y1="1126" y2="1126"/>
  <line id="Capline-M" style="fill:none;stroke:#27AAE1;opacity:1;stroke-width:0.5;" x1="263" x2="3036" y1="1055.54" y2="1055.54"/>
  <g id="H-reference" style="fill:#27AAE1;stroke:none;" transform="matrix(1 0 0 1 339 1556)">
   <path d="M0.993654 0L3.63775 0L29.3281-67.1323L30.0303-67.1323L30.0303-70.459L28.1226-70.459ZM11.6885-24.4799L46.9815-24.4799L46.2315-26.7285L12.4385-26.7285ZM55.1196 0L57.7637 0L30.6382-70.459L29.4326-70.459L29.4326-67.1323Z"/>
  </g>
  <line id="Baseline-L" style="fill:none;stroke:#27AAE1;opacity:1;stroke-width:0.5;" x1="263" x2="3036" y1="1556" y2="1556"/>
  <line id="Capline-L" style="fill:none;stroke:#27AAE1;opacity:1;stroke-width:0.5;" x1="263" x2="3036" y1="1485.54" y2="1485.54"/>
  <line id="right-margin" style="fill:none;stroke:#00AEEF;stroke-width:0.5;opacity:1.0;" x1="1518.52" x2="1518.52" y1="1030.79" y2="1150.12"/>
  <line id="left-margin" style="fill:none;stroke:#00AEEF;stroke-width:0.5;opacity:1.0;" x1="1381.17" x2="1381.17" y1="1030.79" y2="1150.12"/>
 </g>
 <g id="Symbols">
  <g id="Black-L" transform="matrix(1 0 0 1 2837.82 1556)">
   <path d="M54.1159-96.5117C39.1783-96.5117 23.9058-89.3327 18.0939-79.2976C16.5536-76.6723 16.084-75.0344 16.084-70.8459L16.084 16.2771C16.084 22.6752 19.6731 26.0111 25.7444 26.0111C29.4471 26.0111 31.388 24.8873 35.5467 22.5224C42.5653 18.055 50.8376 15.6895 59.0902 15.6895C67.7671 15.6895 76.2305 18.4125 83.252 24.0672C84.3238 24.9406 85.5553 25.3195 86.6283 25.3195C88.4775 25.3195 89.9699 24.0256 89.9699 22.0531L89.9699-75.9467C89.9699-77.9424 89.6534-79.0073 88.2958-81.0958C82.2821-90.4437 68.9892-96.5117 54.1159-96.5117ZM137.045-96.5117C122.172-96.5117 108.878-90.4437 102.865-81.0958C101.508-79.0073 101.191-77.9424 101.191-75.9467L101.191 22.0531C101.191 24.0256 102.683 25.3195 104.533 25.3195C105.606 25.3195 106.837 24.9406 107.909 24.0672C114.93 18.4125 123.394 15.6895 132.05 15.6895C140.323 15.6895 148.596 18.055 155.614 22.5224C159.772 24.8873 161.714 26.0111 165.417 26.0111C171.488 26.0111 175.077 22.6752 175.077 16.2771L175.077-70.8459C175.077-75.0344 174.607-76.6723 173.067-79.2976C167.255-89.3327 151.983-96.5117 137.045-96.5117Z"/>
  </g>
  <g id="Heavy-L" transform="matrix(1 0 0 1 2542.88 1556)">
   <path d="M53.5248-95.5755C38.8381-95.5755 23.768-88.6001 17.7951-78.3324C16.4522-76.0418 16.084-74.6052 16.084-70.8777L16.084 16.5785C16.084 22.1036 19.2397 25.0562 24.5675 25.0562C27.7431 25.0562 29.535 24.0884 32.9879 22.0346C40.1962 16.9993 49.0348 14.3757 57.8489 14.3757C66.8722 14.3757 75.4878 17.3133 82.3718 22.9536C83.3521 23.7586 84.4876 24.1193 85.4735 24.1193C87.1997 24.1193 88.6011 22.8932 88.6011 21.0206L88.6011-75.7006C88.6011-77.6146 88.3309-78.5087 87.0087-80.494C80.9253-89.7239 67.9502-95.5755 53.5248-95.5755ZM134.085-95.5755C119.66-95.5755 106.679-89.7239 100.602-80.494C99.2793-78.5087 99.0091-77.6146 99.0091-75.7006L99.0091 21.0206C99.0091 22.8932 100.41 24.1193 102.137 24.1193C103.123 24.1193 104.258 23.7586 105.238 22.9536C112.122 17.3133 120.738 14.3757 129.731 14.3757C138.575 14.3757 147.414 16.9993 154.622 22.0346C158.07 24.0884 159.867 25.0562 163.043 25.0562C168.371 25.0562 171.526 22.1036 171.526 16.5785L171.526-70.8777C171.526-74.6052 171.158-76.0418 169.815-78.3324C163.842-88.6001 148.772-95.5755 134.085-95.5755Z"/>
  </g>
  <g id="Bold-L" transform="matrix(1 0 0 1 2248.41 1556)">
   <path d="M52.8395-94.3035C38.4603-94.3035 23.6138-87.604 17.4635-77.1189C16.3441-75.2134 16.084-74.0153 16.084-70.8491L16.084 16.8058C16.084 21.2848 18.7093 23.7685 23.1226 23.7685C25.6897 23.7685 27.2748 22.978 29.9114 21.2935C37.3131 15.5961 46.8361 12.6946 56.3344 12.6946C65.8551 12.6946 74.6328 15.9607 81.2881 21.5259C82.1607 22.2464 83.1808 22.584 84.0666 22.584C85.6392 22.584 86.9254 21.4499 86.9254 19.7077L86.9254-75.3262C86.9254-77.1329 86.7017-77.8491 85.4404-79.6816C79.2202-88.758 66.6594-94.3035 52.8395-94.3035ZM130.301-94.3035C116.481-94.3035 103.907-88.758 97.7-79.6816C96.4387-77.8491 96.215-77.1329 96.215-75.3262L96.215 19.7077C96.215 21.4499 97.5012 22.584 99.0738 22.584C99.9596 22.584 100.98 22.2464 101.852 21.5259C108.508 15.9607 117.285 12.6946 126.768 12.6946C136.304 12.6946 145.827 15.5961 153.229 21.2935C155.852 22.978 157.451 23.7685 160.018 23.7685C164.431 23.7685 167.056 21.2848 167.056 16.8058L167.056-70.8491C167.056-74.0153 166.796-75.2134 165.677-77.1189C159.527-87.604 144.68-94.3035 130.301-94.3035Z"/>
  </g>
  <g id="Semibold-L" transform="matrix(1 0 0 1 1953.24 1556)">
   <path d="M52.367-93.4266C38.1998-93.4266 23.5075-86.9172 17.2349-76.2823C16.2695-74.6424 16.084-73.6087 16.084-70.8294L16.084 16.9626C16.084 20.7204 18.3436 22.8809 22.1264 22.8809C24.2741 22.8809 25.7167 22.2125 27.7905 20.7826C35.3256 14.6287 45.3204 11.5356 55.2903 11.5356C65.1539 11.5356 74.0435 15.0282 80.5411 20.5417C81.3393 21.2039 82.28 21.5256 83.0967 21.5256C84.5634 21.5256 85.7701 20.4549 85.7701 18.8026L85.7701-75.0681C85.7701-76.8008 85.5785-77.3945 84.3592-79.1215C78.0448-88.0921 65.7695-93.4266 52.367-93.4266ZM127.692-93.4266C114.289-93.4266 101.996-88.0921 95.6997-79.1215C94.4805-77.3945 94.2888-76.8008 94.2888-75.0681L94.2888 18.8026C94.2888 20.4549 95.4955 21.5256 96.9622 21.5256C97.779 21.5256 98.7196 21.2039 99.5178 20.5417C106.015 15.0282 114.905 11.5356 124.725 11.5356C134.739 11.5356 144.733 14.6287 152.268 20.7826C154.324 22.2125 155.785 22.8809 157.933 22.8809C161.715 22.8809 163.975 20.7204 163.975 16.9626L163.975-70.8294C163.975-73.6087 163.789-74.6424 162.824-76.2823C156.551-86.9172 141.859-93.4266 127.692-93.4266Z"/>
  </g>
  <g id="Medium-L" transform="matrix(1 0 0 1 1657.69 1556)">
   <path d="M52.0088-92.7616C38.0022-92.7616 23.4269-86.3965 17.0615-75.648C16.213-74.2093 16.084-73.3004 16.084-70.8144L16.084 17.0814C16.084 20.2924 18.0664 22.2078 21.3711 22.2078C23.2007 22.2078 24.5352 21.6321 26.1824 20.3952C33.8185 13.8952 44.1711 10.6569 54.4987 10.6569C64.6222 10.6569 73.5966 14.3211 79.9746 19.7953C80.7166 20.4134 81.5969 20.7231 82.3613 20.7231C83.7476 20.7231 84.8942 19.7005 84.8942 18.1163L84.8942-74.8724C84.8942-76.549 84.7268-77.0497 83.5394-78.6969C77.1535-87.5873 65.0948-92.7616 52.0088-92.7616ZM125.714-92.7616C112.628-92.7616 100.546-87.5873 94.1831-78.6969C92.9956-77.0497 92.8282-76.549 92.8282-74.8724L92.8282 18.1163C92.8282 19.7005 93.9748 20.7231 95.3611 20.7231C96.1255 20.7231 97.0059 20.4134 97.7478 19.7953C104.126 14.3211 113.1 10.6569 123.176 10.6569C133.551 10.6569 143.904 13.8952 151.54 20.3952C153.165 21.6321 154.522 22.2078 156.351 22.2078C159.656 22.2078 161.638 20.2924 161.638 17.0814L161.638-70.8144C161.638-73.3004 161.509-74.2093 160.661-75.648C154.296-86.3965 139.72-92.7616 125.714-92.7616Z"/>
  </g>
  <g id="Regular-L" transform="matrix(1 0 0 1 1362.51 1556)">
   <path d="M51.5415-91.8943C37.7446-91.8943 23.3218-85.7173 16.8354-74.8206C16.1393-73.6445 16.084-72.8982 16.084-70.7949L16.084 17.2365C16.084 19.7342 17.7047 21.3298 20.3859 21.3298C21.8007 21.3298 22.9942 20.875 24.0848 19.8899C31.8528 12.9385 42.672 9.51066 53.4661 9.51066C63.9287 9.51066 73.0136 13.3989 79.2358 18.8219C79.9043 19.3823 80.7059 19.6763 81.402 19.6763C82.6836 19.6763 83.7517 18.7164 83.7517 17.2212L83.7517-74.6172C83.7517-76.2205 83.6159-76.6 82.47-78.1429C75.9909-86.9287 64.2147-91.8943 51.5415-91.8943ZM123.133-91.8943C110.46-91.8943 98.6562-86.9287 92.2048-78.1429C91.0589-76.6 90.9231-76.2205 90.9231-74.6172L90.9231 17.2212C90.9231 18.7164 91.9912 19.6763 93.2728 19.6763C93.9689 19.6763 94.7706 19.3823 95.439 18.8219C101.661 13.3989 110.746 9.51066 121.156 9.51066C132.003 9.51066 142.822 12.9385 150.59 19.8899C151.653 20.875 152.874 21.3298 154.289 21.3298C156.97 21.3298 158.591 19.7342 158.591 17.2365L158.591-70.7949C158.591-72.8982 158.536-73.6445 157.839-74.8206C151.353-85.7173 136.93-91.8943 123.133-91.8943Z"/>
  </g>
  <g id="Light-L" transform="matrix(1 0 0 1 1067.57 1556)">
   <path d="M51.3698-90.2912C37.7637-90.2912 23.3218-84.4577 16.8545-73.8663C16.1775-72.7666 16.084-72.1157 16.084-70.3369L16.084 16.454C16.084 18.4555 17.3803 19.7648 19.4698 19.7648C20.751 19.7648 21.6582 19.3291 22.558 18.4967C30.1923 11.3544 41.3742 8.00292 52.5691 8.00292C63.8142 8.00292 72.8419 12.5209 78.5296 17.5241C79.1599 18.0272 79.9043 18.3022 80.5814 18.3022C81.7485 18.3022 82.7211 17.4568 82.7211 16.0951L82.7211-73.9111C82.7211-75.3998 82.5471-75.8748 81.5539-77.1505C74.655-85.7836 63.2986-90.2912 51.3698-90.2912ZM119.755-90.2912C107.826-90.2912 96.4232-85.7836 89.571-77.1505C88.5778-75.8748 88.4039-75.3998 88.4039-73.9111L88.4039 16.0951C88.4039 17.4568 89.3765 18.3022 90.5436 18.3022C91.2206 18.3022 91.965 18.0272 92.5953 17.5241C98.2831 12.5209 107.311 8.00292 118.522 8.00292C129.751 8.00292 140.933 11.3544 148.567 18.4967C149.42 19.3291 150.374 19.7648 151.655 19.7648C153.745 19.7648 155.041 18.4555 155.041 16.454L155.041-70.3369C155.041-72.1157 154.947-72.7666 154.27-73.8663C147.803-84.4577 133.361-90.2912 119.755-90.2912Z"/>
  </g>
  <g id="Thin-L" transform="matrix(1 0 0 1 773.207 1556)">
   <path d="M51.1426-88.1709C37.7889-88.1709 23.3218-82.7917 16.8797-72.6043C16.228-71.6055 16.084-71.0808 16.084-69.7311L16.084 15.4191C16.084 16.7643 16.9512 17.695 18.2582 17.695C19.3627 17.695 19.8913 17.2845 20.5386 16.654C27.9963 9.25936 39.6577 6.00881 51.3827 6.00881C63.6628 6.00881 72.6147 11.3598 77.5957 15.8077C78.1755 16.2351 78.8442 16.4848 79.496 16.4848C80.5116 16.4848 81.358 15.7908 81.358 14.6059L81.358-72.9771C81.358-74.3144 81.1336-74.9156 80.3423-75.8379C72.888-84.2691 62.087-88.1709 51.1426-88.1709ZM115.287-88.1709C104.343-88.1709 93.4699-84.2691 86.0876-75.8379C85.2964-74.9156 85.072-74.3144 85.072-72.9771L85.072 14.6059C85.072 15.7908 85.9184 16.4848 86.934 16.4848C87.5858 16.4848 88.2545 16.2351 88.8343 15.8077C93.8153 11.3598 102.767 6.00881 115.039 6.00881C126.772 6.00881 138.434 9.25936 145.891 16.654C146.467 17.2845 147.067 17.695 148.172 17.695C149.479 17.695 150.346 16.7643 150.346 15.4191L150.346-69.7311C150.346-71.0808 150.202-71.6055 149.55-72.6043C143.108-82.7917 128.641-88.1709 115.287-88.1709Z"/>
  </g>
  <g id="Ultralight-L" transform="matrix(1 0 0 1 477.699 1556)">
   <path d="M51.0262-87.0849C37.8019-87.0849 23.3218-81.9384 16.8927-71.9578C16.2538-71.0107 16.084-70.5507 16.084-69.4208L16.084 14.889C16.084 15.898 16.7314 16.6349 17.6376 16.6349C18.6516 16.6349 18.9863 16.2372 19.5043 15.7102C26.8715 8.18627 38.7786 4.98744 50.7751 4.98744C63.5852 4.98744 72.4983 10.7651 77.1173 14.9285C77.6713 15.3171 78.3012 15.5539 78.94 15.5539C79.8781 15.5539 80.6598 14.9375 80.6598 13.8431L80.6598-72.4987C80.6598-73.7585 80.4096-74.4243 79.7218-75.1656C71.983-83.4934 61.4664-87.0849 51.0262-87.0849ZM112.999-87.0849C102.559-87.0849 91.9573-83.4934 84.3035-75.1656C83.6156-74.4243 83.3654-73.7585 83.3654-72.4987L83.3654 13.8431C83.3654 14.9375 84.1471 15.5539 85.0852 15.5539C85.7241 15.5539 86.3539 15.3171 86.9079 14.9285C91.5269 10.7651 100.44 4.98744 113.255 4.98744C125.247 4.98744 137.154 8.18627 144.521 15.7102C144.954 16.2372 145.374 16.6349 146.388 16.6349C147.294 16.6349 147.941 15.898 147.941 14.889L147.941-69.4208C147.941-70.5507 147.771-71.0107 147.133-71.9578C140.703-81.9384 126.223-87.0849 112.999-87.0849Z"/>
  </g>
  <g id="Black-M" transform="matrix(1 0 0 1 2858.06 1126)">
   <path d="M42.4106-83.2947C30.648-83.2947 18.6393-77.6045 14.2775-70.0711C12.9171-67.7599 12.4609-66.3308 12.4609-62.7336L12.4609 4.30982C12.4609 9.94966 15.5702 12.8247 20.8326 12.8247C24.1361 12.8247 25.7291 11.8226 29.5317 9.74381C34.7883 6.74501 40.7595 5.1444 46.725 5.1444C53.2556 5.1444 59.674 7.15485 65.1596 11.4914C66.0634 12.219 67.0922 12.5256 67.9958 12.5256C69.5187 12.5256 70.7402 11.4804 70.7402 9.88451L70.7402-66.8906C70.7402-68.4914 70.45-69.4763 69.3886-71.1468C64.7324-78.4698 54.2177-83.2947 42.4106-83.2947ZM108.26-83.2947C96.4533-83.2947 85.9389-78.4698 81.2824-71.1468C80.221-69.4763 79.9309-68.4914 79.9309-66.8906L79.9309 9.88451C79.9309 11.4804 81.1523 12.5256 82.6752 12.5256C83.5788 12.5256 84.6076 12.219 85.5114 11.4914C90.997 7.15485 97.4154 5.1444 103.94 5.1444C109.911 5.1444 115.883 6.74501 121.139 9.74381C124.942 11.8226 126.535 12.8247 129.838 12.8247C135.101 12.8247 138.21 9.94966 138.21 4.30982L138.21-62.7336C138.21-66.3308 137.754-67.7599 136.393-70.0711C132.032-77.6045 120.023-83.2947 108.26-83.2947Z"/>
  </g>
  <g id="Heavy-M" transform="matrix(1 0 0 1 2562.93 1126)">
   <path d="M41.8486-82.5275C30.3137-82.5275 18.5046-77.0045 13.9836-69.2156C12.8145-67.2245 12.4609-65.9835 12.4609-62.807L12.4609 4.6766C12.4609 9.50886 15.1764 12.0357 19.7666 12.0357C22.5672 12.0357 24.0409 11.1843 27.1712 9.39546C32.6255 5.85906 39.1169 3.99918 45.5942 3.99918C52.3914 3.99918 58.9638 6.16138 64.3643 10.5225C65.1822 11.1886 66.1225 11.4791 66.9427 11.4791C68.3558 11.4791 69.4972 10.4897 69.4972 8.97907L69.4972-66.7152C69.4972-68.2467 69.2558-69.0557 68.2148-70.6501C63.5293-77.8717 53.2865-82.5275 41.8486-82.5275ZM105.679-82.5275C94.241-82.5275 83.9958-77.8717 79.3126-70.6501C78.2716-69.0557 78.0303-68.2467 78.0303-66.7152L78.0303 8.97907C78.0303 10.4897 79.1716 11.4791 80.5848 11.4791C81.405 11.4791 82.3452 11.1886 83.1632 10.5225C88.5636 6.16138 95.1361 3.99918 101.917 3.99918C108.411 3.99918 114.902 5.85906 120.356 9.39546C123.484 11.1843 124.96 12.0357 127.761 12.0357C132.351 12.0357 135.066 9.50886 135.066 4.6766L135.066-62.807C135.066-65.9835 134.713-67.2245 133.544-69.2156C129.023-77.0045 117.214-82.5275 105.679-82.5275Z"/>
  </g>
  <g id="Bold-M" transform="matrix(1 0 0 1 2267.97 1126)">
   <path d="M41.2199-81.6692C29.9397-81.6692 18.3538-76.3334 13.6549-68.2586C12.6996-66.6257 12.4609-65.5949 12.4609-62.8891L12.4609 5.0869C12.4609 9.01576 14.7358 11.153 18.5742 11.153C20.8121 11.153 22.1525 10.4702 24.5306 9.00579C30.2061 4.86799 37.2794 2.71808 44.3293 2.71808C51.4246 2.71808 58.1693 5.05003 63.4746 9.43865C64.1964 10.0359 65.0376 10.3085 65.7645 10.3085C67.055 10.3085 68.1067 9.3814 68.1067 7.9662L68.1067-66.5189C68.1067-67.973 67.9199-68.5853 66.9018-70.0944C62.1835-77.2027 52.2448-81.6692 41.2199-81.6692ZM102.791-81.6692C91.7661-81.6692 81.8222-77.2027 77.1091-70.0944C76.091-68.5853 75.9042-67.973 75.9042-66.5189L75.9042 7.9662C75.9042 9.3814 76.9559 10.3085 78.2464 10.3085C78.9733 10.3085 79.8145 10.0359 80.5363 9.43865C85.8416 5.05003 92.5863 2.71808 99.653 2.71808C106.731 2.71808 113.805 4.86799 119.48 9.00579C121.853 10.4702 123.199 11.153 125.437 11.153C129.275 11.153 131.55 9.01576 131.55 5.0869L131.55-62.8891C131.55-65.5949 131.311-66.6257 130.356-68.2586C125.657-76.3334 114.071-81.6692 102.791-81.6692Z"/>
  </g>
  <g id="Semibold-M" transform="matrix(1 0 0 1 1972.47 1126)">
   <path d="M40.7865-81.0775C29.6819-81.0775 18.2499-75.8707 13.4282-67.5989C12.6204-66.2128 12.4609-65.327 12.4609-62.9456L12.4609 5.36976C12.4609 8.67581 14.4321 10.5444 17.7522 10.5444C19.6021 10.5444 20.8506 9.978 22.7102 8.73714C28.5381 4.18475 36.0127 1.8349 43.4573 1.8349C50.7581 1.8349 57.6216 4.28388 62.8613 8.69147C63.5168 9.24121 64.2898 9.50148 64.9523 9.50148C66.1583 9.50148 67.1481 8.61738 67.1481 7.26794L67.1481-66.3836C67.1481-67.7843 66.999-68.261 65.9966-69.7113C61.2557-76.7415 51.5266-81.0775 40.7865-81.0775ZM100.8-81.0775C90.06-81.0775 80.3238-76.7415 75.59-69.7113C74.5877-68.261 74.4385-67.7843 74.4385-66.3836L74.4385 7.26794C74.4385 8.61738 75.4283 9.50148 76.6343 9.50148C77.2969 9.50148 78.0698 9.24121 78.7253 8.69147C83.965 4.28388 90.8285 1.8349 98.0923 1.8349C105.574 1.8349 113.048 4.18475 118.876 8.73714C120.729 9.978 121.984 10.5444 123.834 10.5444C127.154 10.5444 129.126 8.67581 129.126 5.36976L129.126-62.9456C129.126-65.327 128.966-66.2128 128.158-67.5989C123.337-75.8707 111.905-81.0775 100.8-81.0775Z"/>
  </g>
  <g id="Medium-M" transform="matrix(1 0 0 1 1676.68 1126)">
   <path d="M40.4579-80.6289C29.4864-80.6289 18.1711-75.5199 13.2564-67.0987C12.5604-65.8998 12.4609-65.1239 12.4609-62.9886L12.4609 5.58424C12.4609 8.41806 14.2019 10.083 17.1288 10.083C18.6847 10.083 19.8635 9.60476 21.3299 8.53345C27.2735 3.66669 35.0522 1.16524 42.7961 1.16524C50.2527 1.16524 57.2063 3.70295 62.3963 8.12492C63.0015 8.63866 63.7227 8.88956 64.3365 8.88956C65.4783 8.88956 66.4213 8.03807 66.4213 6.73849L66.4213-66.281C66.4213-67.6412 66.3006-68.015 65.3103-69.4208C60.5523-76.3918 50.9821-80.6289 40.4579-80.6289ZM99.2905-80.6289C88.7663-80.6289 79.1876-76.3918 74.4382-69.4208C73.4478-68.015 73.3272-67.6412 73.3272-66.281L73.3272 6.73849C73.3272 8.03807 74.2701 8.88956 75.4119 8.88956C76.0257 8.88956 76.747 8.63866 77.3522 8.12492C82.5421 3.70295 89.4957 1.16524 96.909 1.16524C104.696 1.16524 112.475 3.66669 118.418 8.53345C119.876 9.60476 121.064 10.083 122.62 10.083C125.547 10.083 127.287 8.41806 127.287 5.58424L127.287-62.9886C127.287-65.1239 127.188-65.8998 126.492-67.0987C121.577-75.5199 110.262-80.6289 99.2905-80.6289Z"/>
  </g>
  <g id="Regular-M" transform="matrix(1 0 0 1 1381.17 1126)">
   <path d="M40.0293-80.0437C29.2314-80.0437 18.0684-75.0623 13.0322-66.4462C12.482-65.4915 12.4609-64.8589 12.4609-63.0445L12.4609 5.86399C12.4609 8.08185 13.9015 9.4812 16.3158 9.4812C17.4881 9.4812 18.5759 9.11792 19.5295 8.26776C25.6239 2.99096 33.7993 0.291761 41.9336 0.291761C49.5935 0.291761 56.6646 2.94522 61.7897 7.38595C62.3293 7.85273 62.983 8.0914 63.5332 8.0914C64.5914 8.0914 65.4732 7.28244 65.4732 6.0479L65.4732-66.1472C65.4732-67.4546 65.3898-67.6943 64.415-69.0419C59.6347-75.9356 50.2719-80.0437 40.0293-80.0437ZM97.3215-80.0437C87.0789-80.0437 77.7056-75.9356 72.9358-69.0419C71.961-67.6943 71.8776-67.4546 71.8776-66.1472L71.8776 6.0479C71.8776 7.28244 72.7594 8.0914 73.8176 8.0914C74.3678 8.0914 75.0215 7.85273 75.5611 7.38595C80.6862 2.94522 87.7573 0.291761 95.3654 0.291761C103.551 0.291761 111.727 2.99096 117.821 8.26776C118.764 9.11792 119.863 9.4812 121.035 9.4812C123.449 9.4812 124.89 8.08185 124.89 5.86399L124.89-63.0445C124.89-64.8589 124.869-65.4915 124.319-66.4462C119.282-75.0623 108.119-80.0437 97.3215-80.0437Z"/>
  </g>
  <g id="Light-M" transform="matrix(1 0 0 1 1086.05 1126)">
   <path d="M39.8753-78.6064C29.2486-78.6064 18.0684-73.933 13.0493-65.5906C12.5163-64.7044 12.4609-64.1574 12.4609-62.6339L12.4609 5.16244C12.4609 6.93542 13.6106 8.0781 15.4945 8.0781C16.547 8.0781 17.3781 7.73194 18.1607 7.01866C24.1352 1.57076 32.6358-1.06 41.1294-1.06C49.4909-1.06 56.5106 2.15812 61.1566 6.2224C61.662 6.63786 62.2644 6.85941 62.7974 6.85941C63.753 6.85941 64.5492 6.15312 64.5492 5.03835L64.5492-65.5141C64.5492-66.7188 64.4316-67.0441 63.5937-68.1521C58.4369-74.9089 49.4505-78.6064 39.8753-78.6064ZM94.2929-78.6064C84.7176-78.6064 75.7036-74.9089 70.5744-68.1521C69.7366-67.0441 69.6189-66.7188 69.6189-65.5141L69.6189 5.03835C69.6189 6.15312 70.4152 6.85941 71.3707 6.85941C71.9038 6.85941 72.5062 6.63786 73.0116 6.2224C77.6575 2.15812 84.6773-1.06 93.0041-1.06C101.532-1.06 110.033 1.57076 116.007 7.01866C116.762 7.73194 117.621 8.0781 118.674 8.0781C120.558 8.0781 121.707 6.93542 121.707 5.16244L121.707-62.6339C121.707-64.1574 121.652-64.7044 121.119-65.5906C116.1-73.933 104.92-78.6064 94.2929-78.6064Z"/>
  </g>
  <g id="Thin-M" transform="matrix(1 0 0 1 791.443 1126)">
   <path d="M39.6716-76.7054C29.2712-76.7054 18.0684-72.4394 13.072-64.4591C12.5615-63.6634 12.4609-63.2295 12.4609-62.0907L12.4609 4.23459C12.4609 5.41917 13.2259 6.2224 14.4082 6.2224C15.3023 6.2224 15.794 5.89886 16.3502 5.36663C22.1663-0.307584 31.0969-2.84782 40.0657-2.84782C49.3551-2.84782 56.3069 1.11711 60.3193 4.68352C60.7794 5.03108 61.3139 5.23001 61.8243 5.23001C62.6441 5.23001 63.3272 4.6595 63.3272 3.70315L63.3272-64.6768C63.3272-65.7457 63.1643-66.1841 62.5074-66.9753C56.8528-73.5511 48.3643-76.7054 39.6716-76.7054ZM90.2873-76.7054C81.5946-76.7054 73.0558-73.5511 67.4514-66.9753C66.7946-66.1841 66.6317-65.7457 66.6317-64.6768L66.6317 3.70315C66.6317 4.6595 67.3148 5.23001 68.1345 5.23001C68.645 5.23001 69.1795 5.03108 69.6396 4.68352C73.6519 1.11711 80.6038-2.84782 89.8811-2.84782C98.862-2.84782 107.793-0.307584 113.609 5.36663C114.115 5.89886 114.657 6.2224 115.551 6.2224C116.733 6.2224 117.498 5.41917 117.498 4.23459L117.498-62.0907C117.498-63.2295 117.397-63.6634 116.887-64.4591C111.891-72.4394 100.688-76.7054 90.2873-76.7054Z"/>
  </g>
  <g id="Ultralight-M" transform="matrix(1 0 0 1 495.81 1126)">
   <path d="M39.5673-75.7317C29.2828-75.7317 18.0684-71.6744 13.0836-63.8795C12.5847-63.1302 12.4609-62.7543 12.4609-61.8125L12.4609 3.75934C12.4609 4.64255 13.0288 5.27191 13.8518 5.27191C14.6647 5.27191 14.9826 4.95997 15.4229 4.52047C21.1579-1.26966 30.3087-3.76353 39.521-3.76353C49.2855-3.76353 56.2026 0.583909 59.8904 3.89532C60.3274 4.2081 60.8271 4.39544 61.3259 4.39544C62.0761 4.39544 62.7012 3.89447 62.7012 3.01926L62.7012-64.2479C62.7012-65.2473 62.5152-65.7436 61.9511-66.3726C56.0414-72.8556 47.8079-75.7317 39.5673-75.7317ZM88.2356-75.7317C79.995-75.7317 71.6996-72.8556 65.8518-66.3726C65.2877-65.7436 65.1016-65.2473 65.1016-64.2479L65.1016 3.01926C65.1016 3.89447 65.7268 4.39544 66.477 4.39544C66.9758 4.39544 67.4755 4.2081 67.9125 3.89532C71.6003 0.583909 78.5174-3.76353 88.2815-3.76353C97.4942-3.76353 106.645-1.26966 112.38 4.52047C112.758 4.95997 113.138 5.27191 113.951 5.27191C114.774 5.27191 115.342 4.64255 115.342 3.75934L115.342-61.8125C115.342-62.7543 115.218-63.1302 114.719-63.8795C109.735-71.6744 98.5201-75.7317 88.2356-75.7317Z"/>
  </g>
  <g id="Black-S" transform="matrix(1 0 0 1 2873.98 696)">
   <path d="M33.3984-73.0469C24.1211-73.0469 14.6484-68.5547 11.2793-62.7441C10.1562-60.8398 9.76562-59.668 9.76562-56.7383L9.76562-4.39453C9.76562 0.244141 12.3047 2.58789 16.6016 2.58789C19.3359 2.58789 20.6055 1.75781 23.7793 0.0488281C27.832-2.14844 32.373-3.32031 36.9141-3.32031C41.9922-3.32031 46.9727-1.75781 51.2695 1.61133C52.002 2.19727 52.832 2.44141 53.5645 2.44141C54.7852 2.44141 55.7617 1.61133 55.7617 0.341797L55.7617-60.0586C55.7617-61.3281 55.5176-62.1582 54.6875-63.4766C51.0254-69.2383 42.7246-73.0469 33.3984-73.0469ZM85.4492-73.0469C76.123-73.0469 67.8223-69.2383 64.1602-63.4766C63.3301-62.1582 63.0859-61.3281 63.0859-60.0586L63.0859 0.341797C63.0859 1.61133 64.0625 2.44141 65.2832 2.44141C66.0156 2.44141 66.8457 2.19727 67.5781 1.61133C71.875-1.75781 76.8555-3.32031 81.9336-3.32031C86.4746-3.32031 91.0156-2.14844 95.0684 0.0488281C98.2422 1.75781 99.5117 2.58789 102.246 2.58789C106.543 2.58789 109.082 0.244141 109.082-4.39453L109.082-56.7383C109.082-59.668 108.691-60.8398 107.568-62.7441C104.199-68.5547 94.7266-73.0469 85.4492-73.0469Z"/>
  </g>
  <g id="Heavy-S" transform="matrix(1 0 0 1 2578.41 696)">
   <path d="M32.9375-72.5744C23.833-72.5744 14.5332-68.1859 11.0258-62.1218C10.0641-60.4826 9.76562-59.4605 9.76562-56.8535L9.76562-3.99117C9.76562 0.0136513 12.0051 2.09234 15.7948 2.09234C18.1143 2.09234 19.3147 1.38903 21.9354-0.0894655C26.1725-2.72466 31.1169-4.12703 36.0497-4.12703C41.2661-4.12703 46.3849-2.5069 50.6703 0.931385C51.3335 1.47122 52.0945 1.70384 52.7577 1.70384C53.8978 1.70384 54.8167 0.908336 54.8167-0.303573L54.8167-59.9894C54.8167-61.2129 54.6187-61.8816 53.7886-63.1654C50.1495-68.858 42.0331-72.5744 32.9375-72.5744ZM83.6284-72.5744C74.5327-72.5744 66.4163-68.858 62.7772-63.1654C61.9471-61.8816 61.7491-61.2129 61.7491-59.9894L61.7491-0.303573C61.7491 0.908336 62.668 1.70384 63.8081 1.70384C64.4713 1.70384 65.2323 1.47122 65.8956 0.931385C70.1809-2.5069 75.2997-4.12703 80.5046-4.12703C85.4489-4.12703 90.3933-2.72466 94.6304-0.0894655C97.2511 1.38903 98.4515 2.09234 100.771 2.09234C104.561 2.09234 106.8 0.0136513 106.8-3.99117L106.8-56.8535C106.8-59.4605 106.502-60.4826 105.54-62.1218C102.033-68.1859 92.7328-72.5744 83.6284-72.5744Z"/>
  </g>
  <g id="Bold-S" transform="matrix(1 0 0 1 2282.97 696)">
   <path d="M32.4219-72.0459C23.5107-72.0459 14.4043-67.7734 10.7422-61.4258C9.96094-60.083 9.76562-59.2285 9.76562-56.9824L9.76562-3.54004C9.76562-0.244141 11.6699 1.53809 14.8926 1.53809C16.748 1.53809 17.8711 0.976562 19.873-0.244141C24.3164-3.36914 29.7119-5.0293 35.083-5.0293C40.4541-5.0293 45.7275-3.34473 50 0.170898C50.5859 0.65918 51.2695 0.878906 51.8555 0.878906C52.9053 0.878906 53.7598 0.12207 53.7598-1.02539L53.7598-59.9121C53.7598-61.084 53.6133-61.5723 52.7832-62.8174C49.1699-68.4326 41.2598-72.0459 32.4219-72.0459ZM81.5918-72.0459C72.7539-72.0459 64.8438-68.4326 61.2305-62.8174C60.4004-61.5723 60.2539-61.084 60.2539-59.9121L60.2539-1.02539C60.2539 0.12207 61.1084 0.878906 62.1582 0.878906C62.7441 0.878906 63.4277 0.65918 64.0137 0.170898C68.2861-3.34473 73.5596-5.0293 78.9062-5.0293C84.3018-5.0293 89.6973-3.36914 94.1406-0.244141C96.1426 0.976562 97.2656 1.53809 99.1211 1.53809C102.344 1.53809 104.248-0.244141 104.248-3.54004L104.248-56.9824C104.248-59.2285 104.053-60.083 103.271-61.4258C99.6094-67.7734 90.5029-72.0459 81.5918-72.0459Z"/>
  </g>
  <g id="Semibold-S" transform="matrix(1 0 0 1 1987.14 696)">
   <path d="M32.0664-71.6815C23.2886-71.6815 14.3154-67.4891 10.5467-60.9459C9.88984-59.8075 9.76562-59.0686 9.76562-57.0713L9.76562-3.229C9.76562-0.421875 11.4389 1.15596 14.2705 1.15596C15.8061 1.15596 16.8758 0.692187 18.4512-0.350781C23.0367-3.81348 28.7433-5.65137 34.4165-5.65137C39.8942-5.65137 45.2743-3.92236 49.5379-0.353418C50.0705 0.0993164 50.7008 0.310156 51.2334 0.310156C52.221 0.310156 53.0311-0.42002 53.0311-1.52305L53.0311-59.8588C53.0311-60.9951 52.9201-61.359 52.09-62.5774C48.4945-68.1394 40.7266-71.6815 32.0664-71.6815ZM80.1877-71.6815C71.5275-71.6815 63.7596-68.1394 60.1641-62.5774C59.334-61.359 59.223-60.9951 59.223-59.8588L59.223-1.52305C59.223-0.42002 60.0331 0.310156 61.0207 0.310156C61.5533 0.310156 62.1836 0.0993164 62.7162-0.353418C66.9798-3.92236 72.3599-5.65137 77.8043-5.65137C83.5108-5.65137 89.2174-3.81348 93.8029-0.350781C95.3783 0.692187 96.448 1.15596 97.9836 1.15596C100.815 1.15596 102.488-0.421875 102.488-3.229L102.488-57.0713C102.488-59.0686 102.364-59.8075 101.707-60.9459C97.9387-67.4891 88.9655-71.6815 80.1877-71.6815Z"/>
  </g>
  <g id="Medium-S" transform="matrix(1 0 0 1 1691.1 696)">
   <path d="M31.7969-71.4053C23.1201-71.4053 14.248-67.2734 10.3984-60.582C9.83594-59.5986 9.76562-58.9473 9.76562-57.1387L9.76562-2.99316C9.76562-0.556641 11.2637 0.866211 13.7988 0.866211C15.0918 0.866211 16.1211 0.476562 17.373-0.431641C22.0664-4.15039 28.0088-6.12305 33.9111-6.12305C39.4697-6.12305 44.9307-4.36035 49.1875-0.750977C49.6797-0.325195 50.2695-0.121094 50.7617-0.121094C51.7021-0.121094 52.4785-0.831055 52.4785-1.90039L52.4785-59.8184C52.4785-60.9277 52.3945-61.1973 51.5645-62.3955C47.9824-67.917 40.3223-71.4053 31.7969-71.4053ZM79.123-71.4053C70.5977-71.4053 62.9375-67.917 59.3555-62.3955C58.5254-61.1973 58.4414-60.9277 58.4414-59.8184L58.4414-1.90039C58.4414-0.831055 59.2178-0.121094 60.1582-0.121094C60.6504-0.121094 61.2402-0.325195 61.7324-0.750977C65.9893-4.36035 71.4502-6.12305 76.9688-6.12305C82.9111-6.12305 88.8535-4.15039 93.5469-0.431641C94.7988 0.476562 95.8281 0.866211 97.1211 0.866211C99.6562 0.866211 101.154-0.556641 101.154-2.99316L101.154-57.1387C101.154-58.9473 101.084-59.5986 100.521-60.582C96.6719-67.2734 87.7998-71.4053 79.123-71.4053Z"/>
  </g>
  <g id="Regular-S" transform="matrix(1 0 0 1 1395.25 696)">
   <path d="M31.4453-71.0449C22.9004-71.0449 14.1602-66.9922 10.2051-60.1074C9.76562-59.3262 9.76562-58.7891 9.76562-57.2266L9.76562-2.68555C9.76562-0.732422 11.0352 0.488281 13.1836 0.488281C14.1602 0.488281 15.1367 0.195312 15.9668-0.537109C20.8008-4.58984 27.0508-6.73828 33.252-6.73828C38.916-6.73828 44.4824-4.93164 48.7305-1.26953C49.1699-0.878906 49.707-0.683594 50.1465-0.683594C51.0254-0.683594 51.7578-1.36719 51.7578-2.39258L51.7578-59.7656C51.7578-60.8398 51.709-60.9863 50.8789-62.1582C47.3145-67.627 39.7949-71.0449 31.4453-71.0449ZM77.7344-71.0449C69.3848-71.0449 61.8652-67.627 58.3008-62.1582C57.4707-60.9863 57.4219-60.8398 57.4219-59.7656L57.4219-2.39258C57.4219-1.36719 58.1543-0.683594 59.0332-0.683594C59.4727-0.683594 60.0098-0.878906 60.4492-1.26953C64.6973-4.93164 70.2637-6.73828 75.8789-6.73828C82.1289-6.73828 88.3789-4.58984 93.2129-0.537109C94.043 0.195312 95.0195 0.488281 95.9961 0.488281C98.1445 0.488281 99.4141-0.732422 99.4141-2.68555L99.4141-57.2266C99.4141-58.7891 99.4141-59.3262 98.9746-60.1074C95.0195-66.9922 86.2793-71.0449 77.7344-71.0449Z"/>
  </g>
  <g id="Light-S" transform="matrix(1 0 0 1 1099.95 696)">
   <path d="M31.3091-69.7734C22.9155-69.7734 14.1602-65.9932 10.2202-59.3506C9.7959-58.6299 9.76562-58.1685 9.76562-56.8633L9.76562-3.30615C9.76562-1.74657 10.7778-0.75292 12.457-0.75292C13.3276-0.75292 14.0772-1.03075 14.7559-1.64208C19.4839-5.84618 26.0215-7.93407 32.5405-7.93407C38.8252-7.93407 44.3462-5.62792 48.1704-2.29882C48.5796-1.9536 49.0713-1.77343 49.4956-1.77343C50.2837-1.77343 50.9404-2.3662 50.9404-3.28564L50.9404-59.2056C50.9404-60.189 50.8613-60.4111 50.1523-61.3711C46.2549-66.7188 39.0684-69.7734 31.3091-69.7734ZM75.0552-69.7734C67.2959-69.7734 60.0943-66.7188 56.2119-61.3711C55.5029-60.4111 55.4238-60.189 55.4238-59.2056L55.4238-3.28564C55.4238-2.3662 56.0806-1.77343 56.8687-1.77343C57.293-1.77343 57.7847-1.9536 58.1939-2.29882C62.0181-5.62792 67.5391-7.93407 73.7901-7.93407C80.3428-7.93407 86.8804-5.84618 91.6084-1.64208C92.272-1.03075 93.0366-0.75292 93.9072-0.75292C95.5864-0.75292 96.5987-1.74657 96.5987-3.30615L96.5987-56.8633C96.5987-58.1685 96.5684-58.6299 96.1441-59.3506C92.2041-65.9932 83.4488-69.7734 75.0552-69.7734Z"/>
  </g>
  <g id="Thin-S" transform="matrix(1 0 0 1 805.102 696)">
   <path d="M31.1289-68.0918C22.9355-68.0918 14.1602-64.6719 10.2402-58.3496C9.83594-57.709 9.76562-57.3477 9.76562-56.3828L9.76562-4.12694C9.76562-3.08787 10.4375-2.39451 11.4961-2.39451C12.2266-2.39451 12.6758-2.65232 13.1543-3.1035C17.7422-7.50779 24.6602-9.5156 31.5996-9.5156C38.7051-9.5156 44.166-6.54882 47.4297-3.66014C47.7988-3.37498 48.2305-3.21482 48.6348-3.21482C49.3027-3.21482 49.8594-3.68748 49.8594-4.46678L49.8594-58.4649C49.8594-59.3281 49.7402-59.6504 49.1914-60.3301C44.8535-65.5176 38.1074-68.0918 31.1289-68.0918ZM71.5118-68.0918C64.5332-68.0918 57.752-65.5176 53.4493-60.3301C52.9004-59.6504 52.7813-59.3281 52.7813-58.4649L52.7813-4.46678C52.7813-3.68748 53.3379-3.21482 54.0059-3.21482C54.4102-3.21482 54.8418-3.37498 55.211-3.66014C58.4747-6.54882 63.9356-9.5156 71.0274-9.5156C77.9805-9.5156 84.8985-7.50779 89.4864-3.1035C89.9297-2.65232 90.4141-2.39451 91.1446-2.39451C92.2032-2.39451 92.8751-3.08787 92.8751-4.12694L92.8751-56.3828C92.8751-57.3477 92.8047-57.709 92.4004-58.3496C88.4805-64.6719 79.7051-68.0918 71.5118-68.0918Z"/>
  </g>
  <g id="Ultralight-S" transform="matrix(1 0 0 1 509.344 696)">
   <path d="M31.0366-67.2305C22.9458-67.2305 14.1602-63.9951 10.2505-57.8369C9.85644-57.2373 9.76562-56.9273 9.76562-56.1367L9.76562-4.54735C9.76562-3.77488 10.2632-3.23532 11.0039-3.23532C11.6626-3.23532 11.958-3.48288 12.334-3.85202C16.8501-8.35886 23.9629-10.3257 31.1177-10.3257C38.6436-10.3257 44.0737-7.02049 47.0503-4.3574C47.3989-4.103 47.7998-3.9531 48.1939-3.9531C48.8003-3.9531 49.3057-4.36423 49.3057-5.07176L49.3057-58.0855C49.3057-58.8872 49.166-59.2608 48.6992-59.7969C44.1358-64.9024 37.6153-67.2305 31.0366-67.2305ZM69.6968-67.2305C63.1182-67.2305 56.5523-64.9024 52.0342-59.7969C51.5674-59.2608 51.4278-58.8872 51.4278-58.0855L51.4278-5.07176C51.4278-4.36423 51.9332-3.9531 52.5396-3.9531C52.9336-3.9531 53.3345-4.103 53.6832-4.3574C56.6597-7.02049 62.0899-10.3257 69.6124-10.3257C76.7706-10.3257 83.8833-8.35886 88.3995-3.85202C88.73-3.48288 89.0708-3.23532 89.7295-3.23532C90.4703-3.23532 90.9678-3.77488 90.9678-4.54735L90.9678-56.1367C90.9678-56.9273 90.877-57.2373 90.483-57.8369C86.5733-63.9951 77.7877-67.2305 69.6968-67.2305Z"/>
  </g>
 </g>
</svg>
