<?xml version="1.0" encoding="UTF-8"?>
<!--Generator: Apple Native CoreSVG 341-->
<!DOCTYPE svg
PUBLIC "-//W3C//DTD SVG 1.1//EN"
       "http://www.w3.org/Graphics/SVG/1.1/DTD/svg11.dtd">
<svg version="1.1" xmlns="http://www.w3.org/2000/svg" xmlns:xlink="http://www.w3.org/1999/xlink" viewBox="0 0 3300 2200">
 <g id="Notes">
  <rect height="2200" id="artboard" style="fill:white;opacity:1" width="3300" x="0" y="0"/>
  <line style="fill:none;stroke:black;opacity:1;stroke-width:0.5;" x1="263" x2="3036" y1="292" y2="292"/>
  <text style="stroke:none;fill:black;font-family:sans-serif;font-size:13;font-weight:bold;" transform="matrix(1 0 0 1 263 322)">Weight/Scale Variations</text>
  <text style="stroke:none;fill:black;font-family:sans-serif;font-size:13;text-anchor:middle;" transform="matrix(1 0 0 1 559.711 322)">Ultralight</text>
  <text style="stroke:none;fill:black;font-family:sans-serif;font-size:13;text-anchor:middle;" transform="matrix(1 0 0 1 856.422 322)">Thin</text>
  <text style="stroke:none;fill:black;font-family:sans-serif;font-size:13;text-anchor:middle;" transform="matrix(1 0 0 1 1153.13 322)">Light</text>
  <text style="stroke:none;fill:black;font-family:sans-serif;font-size:13;text-anchor:middle;" transform="matrix(1 0 0 1 1449.84 322)">Regular</text>
  <text style="stroke:none;fill:black;font-family:sans-serif;font-size:13;text-anchor:middle;" transform="matrix(1 0 0 1 1746.56 322)">Medium</text>
  <text style="stroke:none;fill:black;font-family:sans-serif;font-size:13;text-anchor:middle;" transform="matrix(1 0 0 1 2043.27 322)">Semibold</text>
  <text style="stroke:none;fill:black;font-family:sans-serif;font-size:13;text-anchor:middle;" transform="matrix(1 0 0 1 2339.98 322)">Bold</text>
  <text style="stroke:none;fill:black;font-family:sans-serif;font-size:13;text-anchor:middle;" transform="matrix(1 0 0 1 2636.69 322)">Heavy</text>
  <text style="stroke:none;fill:black;font-family:sans-serif;font-size:13;text-anchor:middle;" transform="matrix(1 0 0 1 2933.4 322)">Black</text>
  <line style="fill:none;stroke:black;opacity:1;stroke-width:0.5;" x1="263" x2="3036" y1="1903" y2="1903"/>
  <g transform="matrix(0.2 0 0 0.2 263 1933)">
   <path d="m46.2402 4.15039c21.7773 0 39.4531-17.627 39.4531-39.4043s-17.6758-39.4043-39.4531-39.4043c-21.7285 0-39.4043 17.627-39.4043 39.4043s17.6758 39.4043 39.4043 39.4043Zm0-7.42188c-17.6758 0-31.9336-14.3066-31.9336-31.9824s14.2578-31.9824 31.9336-31.9824 31.9824 14.3066 31.9824 31.9824-14.3066 31.9824-31.9824 31.9824Zm3.61328-17.7734v-28.4668c0-2.24609-1.46484-3.75977-3.71094-3.75977-2.14844 0-3.61328 1.51367-3.61328 3.75977v28.4668c0 2.19727 1.46484 3.71094 3.61328 3.71094 2.24609 0 3.71094-1.51367 3.71094-3.71094Zm-17.8223-10.5957h28.418c2.19727 0 3.71094-1.46484 3.71094-3.61328 0-2.19727-1.51367-3.71094-3.71094-3.71094h-28.418c-2.24609 0-3.75977 1.51367-3.75977 3.71094 0 2.14844 1.51367 3.61328 3.75977 3.61328Z"/>
  </g>
  <g transform="matrix(0.2 0 0 0.2 281.506 1933)">
   <path d="m58.5449 14.5508c27.4902 0 49.8047-22.3145 49.8047-49.8047s-22.3145-49.8047-49.8047-49.8047-49.8047 22.3145-49.8047 49.8047 22.3145 49.8047 49.8047 49.8047Zm0-8.30078c-22.9492 0-41.5039-18.5547-41.5039-41.5039s18.5547-41.5039 41.5039-41.5039 41.5039 18.5547 41.5039 41.5039-18.5547 41.5039-41.5039 41.5039Zm4.05273-23.0957v-36.9141c0-2.49023-1.70898-4.19922-4.15039-4.19922-2.39258 0-4.05273 1.70898-4.05273 4.19922v36.9141c0 2.44141 1.66016 4.15039 4.05273 4.15039 2.44141 0 4.15039-1.66016 4.15039-4.15039Zm-22.5586-14.4043h36.9629c2.44141 0 4.15039-1.61133 4.15039-4.00391 0-2.44141-1.70898-4.15039-4.15039-4.15039h-36.9629c-2.49023 0-4.15039 1.70898-4.15039 4.15039 0 2.39258 1.66016 4.00391 4.15039 4.00391Z"/>
  </g>
  <g transform="matrix(0.2 0 0 0.2 304.924 1933)">
   <path d="m74.8535 28.3203c35.1074 0 63.623-28.4668 63.623-63.5742s-28.5156-63.623-63.623-63.623-63.5742 28.5156-63.5742 63.623 28.4668 63.5742 63.5742 63.5742Zm0-9.08203c-30.127 0-54.4922-24.3652-54.4922-54.4922s24.3652-54.4922 54.4922-54.4922 54.4922 24.3652 54.4922 54.4922-24.3652 54.4922-54.4922 54.4922Zm4.44336-30.3223v-48.4863c0-2.73438-1.85547-4.63867-4.54102-4.63867-2.58789 0-4.44336 1.9043-4.44336 4.63867v48.4863c0 2.68555 1.85547 4.58984 4.44336 4.58984 2.68555 0 4.54102-1.85547 4.54102-4.58984Zm-28.7109-19.7754h48.4863c2.68555 0 4.58984-1.80664 4.58984-4.39453 0-2.73438-1.85547-4.58984-4.58984-4.58984h-48.4863c-2.73438 0-4.58984 1.85547-4.58984 4.58984 0 2.58789 1.85547 4.39453 4.58984 4.39453Z"/>
  </g>
  <text style="stroke:none;fill:black;font-family:sans-serif;font-size:13;font-weight:bold;" transform="matrix(1 0 0 1 263 1953)">Design Variations</text>
  <text style="stroke:none;fill:black;font-family:sans-serif;font-size:13;" transform="matrix(1 0 0 1 263 1971)">Symbols are supported in up to nine weights and three scales.</text>
  <text style="stroke:none;fill:black;font-family:sans-serif;font-size:13;" transform="matrix(1 0 0 1 263 1989)">For optimal layout with text and other symbols, vertically align</text>
  <text style="stroke:none;fill:black;font-family:sans-serif;font-size:13;" transform="matrix(1 0 0 1 263 2007)">symbols with the adjacent text.</text>
  <line style="fill:none;stroke:#00AEEF;stroke-width:0.5;opacity:1.0;" x1="776" x2="776" y1="1919" y2="1933"/>
  <g transform="matrix(0.2 0 0 0.2 776 1933)">
   <path d="m16.5527 0.78125c2.58789 0 3.85742-0.976562 4.78516-3.71094l20.5566-57.5195h0.244141l20.6055 57.5195c0.927734 2.73438 2.19727 3.71094 4.73633 3.71094 2.58789 0 4.24805-1.5625 4.24805-4.00391 0-0.830078-0.146484-1.61133-0.537109-2.63672l-22.9004-60.9863c-1.12305-2.97852-3.125-4.49219-6.25-4.49219-3.02734 0-5.07812 1.46484-6.15234 4.44336l-22.9004 61.084c-0.390625 1.02539-0.537109 1.80664-0.537109 2.63672 0 2.44141 1.5625 3.95508 4.10156 3.95508Zm10.2051-20.9473h30.6641c2.00195 0 3.66211-1.66016 3.66211-3.66211 0-2.05078-1.66016-3.66211-3.66211-3.66211h-30.6641c-2.00195 0-3.66211 1.61133-3.66211 3.66211 0 2.00195 1.66016 3.66211 3.66211 3.66211Z"/>
  </g>
  <line style="fill:none;stroke:#00AEEF;stroke-width:0.5;opacity:1.0;" x1="792.836" x2="792.836" y1="1919" y2="1933"/>
  <text style="stroke:none;fill:black;font-family:sans-serif;font-size:13;font-weight:bold;" transform="matrix(1 0 0 1 776 1953)">Margins</text>
  <text style="stroke:none;fill:black;font-family:sans-serif;font-size:13;" transform="matrix(1 0 0 1 776 1971)">Leading and trailing margins on the left and right side of each symbol</text>
  <text style="stroke:none;fill:black;font-family:sans-serif;font-size:13;" transform="matrix(1 0 0 1 776 1989)">can be adjusted by modifying the x-location of the margin guidelines.</text>
  <text style="stroke:none;fill:black;font-family:sans-serif;font-size:13;" transform="matrix(1 0 0 1 776 2007)">Modifications are automatically applied proportionally to all</text>
  <text style="stroke:none;fill:black;font-family:sans-serif;font-size:13;" transform="matrix(1 0 0 1 776 2025)">scales and weights.</text>
  <g transform="matrix(0.2 0 0 0.2 1289 1933)">
   <path d="m14.209 13.1348 7.86133 7.86133c4.29688 4.39453 9.32617 4.10156 13.8672-1.02539l60.6934-68.2129-4.88281-4.88281-60.2539 67.6758c-1.80664 1.95312-3.4668 2.44141-5.81055 0.0976562l-5.17578-5.12695c-2.29492-2.29492-1.80664-3.95508 0.195312-5.81055l67.4805-62.1582-4.88281-4.83398-68.0664 62.5977c-4.98047 4.58984-5.32227 9.47266-1.02539 13.8184Zm44.873-97.4609c-2.05078 2.00195-2.24609 4.88281-1.07422 6.78711 1.12305 1.80664 3.4668 3.02734 6.5918 2.24609 5.85938-1.66016 12.5977-2.39258 18.8965 0.927734l-2.68555 7.12891c-1.61133 4.00391-0.732422 6.88477 1.70898 9.42383l10.2539 10.3027c2.34375 2.39258 4.54102 2.44141 7.08008 1.95312l4.44336-0.732422 2.58789 2.53906-0.195312 2.24609c-0.0976562 2.29492 0.537109 4.29688 2.7832 6.49414l3.36914 3.32031c2.29492 2.29492 5.51758 2.49023 7.8125 0.195312l12.9883-13.0371c2.29492-2.34375 2.14844-5.37109-0.195312-7.66602l-3.41797-3.41797c-2.19727-2.19727-4.05273-3.02734-6.34766-2.88086l-2.34375 0.244141-2.44141-2.44141 1.02539-4.6875c0.634766-2.73438-0.244141-4.98047-2.88086-7.61719l-11.2793-11.1816c-12.9395-12.8418-35.5957-11.0352-46.6797-0.146484Zm7.08008 2.05078c8.78906-6.39648 25.9766-5.66406 33.6914 1.95312l12.3047 12.207c1.02539 1.02539 1.2207 1.80664 0.927734 3.32031l-1.46484 6.64062 6.73828 6.68945 4.39453-0.244141c1.12305-0.0488281 1.51367 0.0488281 2.34375 0.878906l2.53906 2.49023-10.8398 10.8398-2.49023-2.49023c-0.830078-0.878906-0.976562-1.2207-0.927734-2.39258l0.292969-4.3457-6.68945-6.73828-6.83594 1.17188c-1.41602 0.292969-2.05078 0.195312-3.17383-0.878906l-8.93555-8.88672c-1.07422-1.02539-1.17188-1.70898-0.488281-3.36914l4.58984-11.4746c-6.10352-6.34766-17.041-7.51953-25.5859-4.58984-0.683594 0.244141-0.927734-0.390625-0.390625-0.78125Z"/>
  </g>
  <text style="stroke:none;fill:black;font-family:sans-serif;font-size:13;font-weight:bold;" transform="matrix(1 0 0 1 1289 1953)">Exporting</text>
  <text style="stroke:none;fill:black;font-family:sans-serif;font-size:13;" transform="matrix(1 0 0 1 1289 1971)">Symbols should be outlined when exporting to ensure the</text>
  <text style="stroke:none;fill:black;font-family:sans-serif;font-size:13;" transform="matrix(1 0 0 1 1289 1989)">design is preserved when submitting to Xcode.</text>
  <text id="template-version" style="stroke:none;fill:black;font-family:sans-serif;font-size:13;text-anchor:end;" transform="matrix(1 0 0 1 3036 1933)">Template v.2.0</text>
  <text style="stroke:none;fill:black;font-family:sans-serif;font-size:13;text-anchor:end;" transform="matrix(1 0 0 1 3036 1951)">Requires Xcode 12 or greater</text>
  <text id="descriptive-name" style="stroke:none;fill:black;font-family:sans-serif;font-size:13;text-anchor:end;" transform="matrix(1 0 0 1 3036 1969)">Generated from camera</text>
  <text style="stroke:none;fill:black;font-family:sans-serif;font-size:13;text-anchor:end;" transform="matrix(1 0 0 1 3036 1987)">Typeset at 100.0 points</text>
  <text style="stroke:none;fill:black;font-family:sans-serif;font-size:13;" transform="matrix(1 0 0 1 263 726)">Small</text>
  <text style="stroke:none;fill:black;font-family:sans-serif;font-size:13;" transform="matrix(1 0 0 1 263 1156)">Medium</text>
  <text style="stroke:none;fill:black;font-family:sans-serif;font-size:13;" transform="matrix(1 0 0 1 263 1586)">Large</text>
 </g>
 <g id="Guides">
  <g id="H-reference" style="fill:#27AAE1;stroke:none;" transform="matrix(1 0 0 1 339 696)">
   <path d="M0.993654 0L3.63775 0L29.3281-67.1323L30.0303-67.1323L30.0303-70.459L28.1226-70.459ZM11.6885-24.4799L46.9815-24.4799L46.2315-26.7285L12.4385-26.7285ZM55.1196 0L57.7637 0L30.6382-70.459L29.4326-70.459L29.4326-67.1323Z"/>
  </g>
  <line id="Baseline-S" style="fill:none;stroke:#27AAE1;opacity:1;stroke-width:0.5;" x1="263" x2="3036" y1="696" y2="696"/>
  <line id="Capline-S" style="fill:none;stroke:#27AAE1;opacity:1;stroke-width:0.5;" x1="263" x2="3036" y1="625.541" y2="625.541"/>
  <g id="H-reference" style="fill:#27AAE1;stroke:none;" transform="matrix(1 0 0 1 339 1126)">
   <path d="M0.993654 0L3.63775 0L29.3281-67.1323L30.0303-67.1323L30.0303-70.459L28.1226-70.459ZM11.6885-24.4799L46.9815-24.4799L46.2315-26.7285L12.4385-26.7285ZM55.1196 0L57.7637 0L30.6382-70.459L29.4326-70.459L29.4326-67.1323Z"/>
  </g>
  <line id="Baseline-M" style="fill:none;stroke:#27AAE1;opacity:1;stroke-width:0.5;" x1="263" x2="3036" y1="1126" y2="1126"/>
  <line id="Capline-M" style="fill:none;stroke:#27AAE1;opacity:1;stroke-width:0.5;" x1="263" x2="3036" y1="1055.54" y2="1055.54"/>
  <g id="H-reference" style="fill:#27AAE1;stroke:none;" transform="matrix(1 0 0 1 339 1556)">
   <path d="M0.993654 0L3.63775 0L29.3281-67.1323L30.0303-67.1323L30.0303-70.459L28.1226-70.459ZM11.6885-24.4799L46.9815-24.4799L46.2315-26.7285L12.4385-26.7285ZM55.1196 0L57.7637 0L30.6382-70.459L29.4326-70.459L29.4326-67.1323Z"/>
  </g>
  <line id="Baseline-L" style="fill:none;stroke:#27AAE1;opacity:1;stroke-width:0.5;" x1="263" x2="3036" y1="1556" y2="1556"/>
  <line id="Capline-L" style="fill:none;stroke:#27AAE1;opacity:1;stroke-width:0.5;" x1="263" x2="3036" y1="1485.54" y2="1485.54"/>
  <line id="right-margin" style="fill:none;stroke:#00AEEF;stroke-width:0.5;opacity:1.0;" x1="1522.25" x2="1522.25" y1="1030.79" y2="1150.12"/>
  <line id="left-margin" style="fill:none;stroke:#00AEEF;stroke-width:0.5;opacity:1.0;" x1="1377.44" x2="1377.44" y1="1030.79" y2="1150.12"/>
 </g>
 <g id="Symbols">
  <g id="Black-L" transform="matrix(1 0 0 1 2837.7 1556)">
   <path d="M139.162-47.2215C143.519-47.2215 147.014-50.7164 147.014-55.0519C147.014-59.407 143.519-62.9019 139.162-62.9019C134.827-62.9019 131.332-59.407 131.332-55.0519C131.332-50.7164 134.827-47.2215 139.162-47.2215ZM39.8556 26.4225L151.547 26.4225C166.69 26.4225 175.317 17.8126 175.317 2.71334L175.317-63.8414C175.317-78.9407 166.69-87.5298 151.547-87.5298L136.846-87.5298C131.993-87.5298 130.119-88.0781 126.439-91.3588L121.64-95.8088C117.915-99.1924 114.319-100.506 108.144-100.506L83.2078-100.506C77.0122-100.506 73.4164-99.1924 69.712-95.8088L64.8916-91.3588C61.2353-88.0805 59.3373-87.5298 54.5061-87.5298L39.8556-87.5298C24.7123-87.5298 16.084-78.9407 16.084-63.8414L16.084 2.71334C16.084 17.8126 24.7123 26.4225 39.8556 26.4225ZM42.5864 6.42071C38.2752 6.42071 36.065 4.51135 36.065-0.121475L36.065-60.9858C36.065-65.6186 38.2752-67.5488 42.5864-67.5488L61.7207-67.5488C67.3525-67.5488 69.8368-68.3939 73.0948-71.7411L77.4438-76.2079C80.7695-79.5852 82.9112-80.5251 88.2735-80.5251L103.058-80.5251C108.42-80.5251 110.562-79.5268 113.654-76.3831L118.257-71.7411C121.494-68.4523 123.999-67.5488 129.631-67.5488L148.816-67.5488C153.105-67.5488 155.317-65.6186 155.317-60.9858L155.317-0.121475C155.317 4.51135 153.105 6.42071 148.816 6.42071ZM95.7013 0.452687C113.927 0.452687 128.491-14.1686 128.491-32.4384C128.491-50.6874 113.93-65.3087 95.7013-65.3087C77.5339-65.3087 62.8906-50.6874 62.8906-32.4384C62.8906-14.1686 77.5339 0.452687 95.7013 0.452687ZM95.7013-16.6579C87.0272-16.6579 79.9816-23.7227 79.9816-32.4384C79.9816-41.2126 87.0064-48.1982 95.7013-48.1982C104.453-48.1982 111.4-41.2126 111.4-32.4384C111.4-23.7227 104.453-16.6579 95.7013-16.6579Z"/>
  </g>
  <g id="Heavy-L" transform="matrix(1 0 0 1 2541.6 1556)">
   <path d="M139.605-47.7014C143.944-47.7014 147.44-51.1974 147.44-55.5064C147.44-59.8399 143.944-63.3359 139.605-63.3359C135.296-63.3359 131.8-59.8399 131.8-55.5064C131.8-51.1974 135.296-47.7014 139.605-47.7014ZM38.8315 25.5159L151.342 25.5159C165.955 25.5159 174.084 17.4 174.084 2.85894L174.084-63.5608C174.084-78.1019 165.955-86.1875 151.342-86.1875L135.822-86.1875C130.933-86.1875 129.16-86.83 125.661-90.0904L120.794-94.842C117.189-98.2477 113.706-99.6744 107.474-99.6744L82.5287-99.6744C76.267-99.6744 72.7838-98.2477 69.209-94.842L64.3119-90.0904C60.8546-86.8412 59.0343-86.1875 54.181-86.1875L38.8315-86.1875C24.2188-86.1875 16.084-78.1019 16.084-63.5608L16.084 2.85894C16.084 17.4 24.2188 25.5159 38.8315 25.5159ZM40.9557 7.98528C36.1404 7.98528 33.5844 5.72074 33.5844 0.583786L33.5844-61.2554C33.5844-66.3924 36.1404-68.6871 40.9557-68.6871L60.2309-68.6871C65.8715-68.6871 68.4721-69.5752 71.7202-72.972L76.2144-77.7079C79.6045-81.2325 81.6773-82.174 87.0654-82.174L102.907-82.174C108.296-82.174 110.368-81.1879 113.58-77.8418L118.283-72.972C121.501-69.6198 124.132-68.6871 129.772-68.6871L149.218-68.6871C153.997-68.6871 156.559-66.3924 156.559-61.2554L156.559 0.583786C156.559 5.72074 153.997 7.98528 149.218 7.98528ZM95.0868 1.22633C113.514 1.22633 128.256-13.5549 128.256-32.0535C128.256-50.522 113.525-65.3032 95.0868-65.3032C76.7043-65.3032 61.8873-50.522 61.8873-32.0535C61.8873-13.5549 76.7043 1.22633 95.0868 1.22633ZM95.0868-13.9666C85.1459-13.9666 77.0557-22.0523 77.0557-32.0535C77.0557-42.0994 85.1157-50.1103 95.0868-50.1103C105.097-50.1103 113.088-42.0994 113.088-32.0535C113.088-22.0523 105.097-13.9666 95.0868-13.9666Z"/>
  </g>
  <g id="Bold-L" transform="matrix(1 0 0 1 2245.74 1556)">
   <path d="M140.076-48.3453C144.377-48.3453 147.859-51.8264 147.859-56.0897C147.859-60.3778 144.377-63.8589 140.076-63.8589C135.813-63.8589 132.332-60.3778 132.332-56.0897C132.332-51.8264 135.813-48.3453 140.076-48.3453ZM37.5412 24.3865L150.947 24.3865C164.862 24.3865 172.391 16.8555 172.391 3.04324L172.391-63.2522C172.391-77.0645 164.862-84.5575 150.947-84.5575L134.457-84.5575C129.515-84.5575 127.864-85.2706 124.544-88.5377L119.578-93.6508C116.096-97.0946 112.774-98.6074 106.503-98.6074L81.6166-98.6074C75.3076-98.6074 71.9852-97.0946 68.5418-93.6508L63.5376-88.5377C60.2814-85.297 58.5535-84.5575 53.6621-84.5575L37.5412-84.5575C23.6265-84.5575 16.084-77.0645 16.084-63.2522L16.084 3.04324C16.084 16.8555 23.6265 24.3865 37.5412 24.3865ZM38.987 9.90678C33.5195 9.90678 30.5257 7.19674 30.5257 1.40752L30.5257-61.5785C30.5257-67.3677 33.5195-70.1157 38.987-70.1157L58.3047-70.1157C63.9606-70.1157 66.6699-71.0278 69.9176-74.4936L74.6035-79.56C78.0631-83.2465 80.0588-84.1657 85.4329-84.1657L102.649-84.1657C108.023-84.1657 110.018-83.2173 113.361-79.6476L118.202-74.4936C121.412-71.057 124.159-70.1157 129.815-70.1157L149.501-70.1157C154.917-70.1157 157.924-67.3677 157.924-61.5785L157.924 1.40752C157.924 7.19674 154.917 9.90678 149.501 9.90678ZM94.2441 2.13459C112.91 2.13459 127.867-12.8389 127.867-31.6069C127.867-50.337 112.936-65.3105 94.2441-65.3105C75.6077-65.3105 60.583-50.337 60.583-31.6069C60.583-12.8389 75.6077 2.13459 94.2441 2.13459ZM94.2441-10.6616C82.7282-10.6616 73.3544-20.015 73.3544-31.6069C73.3544-43.228 82.6902-52.5143 94.2441-52.5143C105.814-52.5143 115.096-43.228 115.096-31.6069C115.096-20.015 105.814-10.6616 94.2441-10.6616Z"/>
  </g>
  <g id="Semibold-L" transform="matrix(1 0 0 1 1949.61 1556)">
   <path d="M140.401-48.7892C144.676-48.7892 148.147-52.2601 148.147-56.4919C148.147-60.7485 144.676-64.2194 140.401-64.2194C136.169-64.2194 132.698-60.7485 132.698-56.4919C132.698-52.2601 136.169-48.7892 140.401-48.7892ZM36.6517 23.608L150.675 23.608C164.108 23.608 171.224 16.4801 171.224 3.17029L171.224-63.0395C171.224-76.3493 164.108-83.4338 150.675-83.4338L133.516-83.4338C128.537-83.4338 126.972-84.1955 123.774-87.4672L118.739-92.8296C115.343-96.2997 112.131-97.8719 105.833-97.8719L80.9877-97.8719C74.6463-97.8719 71.4346-96.2997 68.0819-92.8296L63.0038-87.4672C59.8863-84.2325 58.222-83.4338 53.3044-83.4338L36.6517-83.4338C23.2182-83.4338 16.084-76.3493 16.084-63.0395L16.084 3.17029C16.084 16.4801 23.2182 23.608 36.6517 23.608ZM37.6298 11.2314C31.7126 11.2314 28.4171 8.21429 28.4171 1.97539L28.4171-61.8012C28.4171-68.0401 31.7126-71.1006 37.6298-71.1006L56.9769-71.1006C62.6432-71.1006 65.4274-72.0292 68.6749-75.5425L73.4929-80.8367C77.0005-84.6349 78.943-85.5388 84.3075-85.5388L102.47-85.5388C107.834-85.5388 109.777-84.6164 113.21-80.8925L118.146-75.5425C121.35-72.0477 124.178-71.1006 129.844-71.1006L149.696-71.1006C155.552-71.1006 158.866-68.0401 158.866-61.8012L158.866 1.97539C158.866 8.21429 155.552 11.2314 149.696 11.2314ZM93.6631 2.76074C112.493 2.76074 127.599-12.3453 127.599-31.299C127.599-50.2094 112.53-65.3155 93.6631-65.3155C74.8517-65.3155 59.6838-50.2094 59.6838-31.299C59.6838-12.3453 74.8517 2.76074 93.6631 2.76074ZM93.6631-8.38318C81.0614-8.38318 70.8028-18.6106 70.8028-31.299C70.8028-44.0061 81.018-54.1715 93.6631-54.1715C106.308-54.1715 116.48-44.0061 116.48-31.299C116.48-18.6106 106.308-8.38318 93.6631-8.38318Z"/>
  </g>
  <g id="Medium-L" transform="matrix(1 0 0 1 1653.34 1556)">
   <path d="M140.647-49.1258C144.903-49.1258 148.366-52.5889 148.366-56.7968C148.366-61.0297 144.903-64.4928 140.647-64.4928C136.439-64.4928 132.976-61.0297 132.976-56.7968C132.976-52.5889 136.439-49.1258 140.647-49.1258ZM35.9773 23.0176L150.468 23.0176C163.537 23.0176 170.339 16.1955 170.339 3.26662L170.339-62.8782C170.339-75.807 163.537-82.5817 150.468-82.5817L132.803-82.5817C127.796-82.5817 126.294-83.3804 123.19-86.6556L118.103-92.2069C114.772-95.6969 111.644-97.3142 105.325-97.3142L80.5109-97.3142C74.1448-97.3142 71.0171-95.6969 67.7332-92.2069L62.599-86.6556C59.5867-83.4253 57.9707-82.5817 53.0332-82.5817L35.9773-82.5817C22.9086-82.5817 16.084-75.807 16.084-62.8782L16.084 3.26662C16.084 16.1955 22.9086 23.0176 35.9773 23.0176ZM36.6007 12.2359C30.3426 12.2359 26.8183 8.98584 26.8183 2.40598L26.8183-61.9701C26.8183-68.55 30.3426-71.8474 36.6007-71.8474L55.97-71.8474C61.6443-71.8474 64.4853-72.7885 67.7326-76.3378L72.6509-81.8048C76.1947-85.6877 78.097-86.5799 83.4542-86.5799L102.335-86.5799C107.692-86.5799 109.594-85.6772 113.096-81.8364L118.104-76.3378C121.303-72.799 124.192-71.8474 129.866-71.8474L149.845-71.8474C156.033-71.8474 159.58-68.55 159.58-61.9701L159.58 2.40598C159.58 8.98584 156.033 12.2359 149.845 12.2359ZM93.2226 3.23552C112.177 3.23552 127.396-11.971 127.396-31.0656C127.396-50.1127 112.222-65.3193 93.2226-65.3193C74.2784-65.3193 59.0019-50.1127 59.0019-31.0656C59.0019-11.971 74.2784 3.23552 93.2226 3.23552ZM93.2226-6.65558C79.7976-6.65558 68.8681-17.5457 68.8681-31.0656C68.8681-44.596 79.7501-55.4282 93.2226-55.4282C106.683-55.4282 117.53-44.596 117.53-31.0656C117.53-17.5457 106.683-6.65558 93.2226-6.65558Z"/>
  </g>
  <g id="Regular-L" transform="matrix(1 0 0 1 1357.21 1556)">
   <path d="M140.968-49.5648C145.198-49.5648 148.651-53.0178 148.651-57.1945C148.651-61.3964 145.198-64.8493 140.968-64.8493C136.792-64.8493 133.339-61.3964 133.339-57.1945C133.339-53.0178 136.792-49.5648 140.968-49.5648ZM35.0976 22.2476L150.199 22.2476C162.791 22.2476 169.184 15.8242 169.184 3.39227L169.184-62.6678C169.184-75.0997 162.791-81.4704 150.199-81.4704L131.873-81.4704C126.829-81.4704 125.411-82.3171 122.428-85.5969L117.274-91.3948C114.027-94.9107 111.009-96.5868 104.663-96.5868L79.889-96.5868C73.4907-96.5868 70.4726-94.9107 67.2783-91.3948L62.071-85.5969C59.1959-82.3724 57.6428-81.4704 52.6794-81.4704L35.0976-81.4704C22.5048-81.4704 16.084-75.0997 16.084-62.6678L16.084 3.39227C16.084 15.8242 22.5048 22.2476 35.0976 22.2476ZM35.2584 13.546C28.5555 13.546 24.7328 9.9922 24.7328 2.96762L24.7328-62.1904C24.7328-69.215 28.5555-72.8215 35.2584-72.8215L54.6567-72.8215C60.3414-72.8215 63.2565-73.7789 66.5035-77.3752L71.5525-83.0676C75.1438-87.0609 76.9934-87.9379 82.3412-87.9379L102.158-87.9379C107.506-87.9379 109.355-87.0609 112.947-83.0676L118.048-77.3752C121.243-73.7789 124.211-72.8215 129.895-72.8215L150.038-72.8215C156.66-72.8215 160.511-69.215 160.511-62.1904L160.511 2.96762C160.511 9.9922 156.66 13.546 150.038 13.546ZM92.6481 3.85479C111.765 3.85479 127.131-11.4829 127.131-30.7611C127.131-49.9865 111.821-65.3242 92.6481-65.3242C73.5307-65.3242 58.1126-49.9865 58.1126-30.7611C58.1126-11.4829 73.5307 3.85479 92.6481 3.85479ZM92.6481-4.40218C78.1491-4.40218 66.3445-16.1566 66.3445-30.7611C66.3445-45.3655 78.0964-57.0672 92.6481-57.0672C107.172-57.0672 118.899-45.3655 118.899-30.7611C118.899-16.1566 107.172-4.40218 92.6481-4.40218Z"/>
  </g>
  <g id="Light-L" transform="matrix(1 0 0 1 1061.62 1556)">
   <path d="M140.797-50.3282C144.893-50.3282 148.231-53.6667 148.231-57.7289C148.231-61.7781 144.893-65.1165 140.797-65.1165C136.734-65.1165 133.396-61.7781 133.396-57.7289C133.396-53.6667 136.734-50.3282 140.797-50.3282ZM34.067 21.4269L149.015 21.4269C160.864 21.4269 166.952 15.2326 166.952 3.54496L166.952-62.706C166.952-74.3936 160.864-80.5543 149.015-80.5543L130.308-80.5543C125.168-80.5543 123.827-81.1529 120.672-84.6426L115.346-90.6123C112.023-94.2236 109.253-95.6134 103.079-95.6134L78.8011-95.6134C72.5937-95.6134 69.8237-94.2236 66.534-90.6123L61.174-84.6426C58.1462-81.2464 56.6313-80.5543 51.5724-80.5543L34.067-80.5543C22.2185-80.5543 16.084-74.3936 16.084-62.706L16.084 3.54496C16.084 15.2326 22.2185 21.4269 34.067 21.4269ZM34.2278 14.7674C26.8951 14.7674 22.7098 10.8701 22.7098 3.21573L22.7098-62.3431C22.7098-69.9975 26.8951-73.9284 34.2278-73.9284L52.8054-73.9284C58.5283-73.9284 61.2908-74.7141 64.6141-78.4058L69.873-84.3081C73.4452-88.2824 75.2948-88.9876 80.3372-88.9876L101.509-88.9876C106.551-88.9876 108.401-88.2824 111.973-84.3081L117.266-78.4058C120.556-74.7141 123.352-73.9284 129.075-73.9284L148.854-73.9284C156.107-73.9284 160.339-69.9975 160.339-62.3431L160.339 3.21573C160.339 10.8701 156.107 14.7674 148.854 14.7674ZM91.5411 4.16015C110.754 4.16015 126.234-11.2729 126.234-30.6466C126.234-49.9865 110.847-65.4196 91.5411-65.4196C72.3283-65.4196 56.8148-49.9865 56.8148-30.6466C56.8148-11.2729 72.3283 4.16015 91.5411 4.16015ZM91.5411-2.3028C75.9162-2.3028 63.2908-14.9543 63.2908-30.6466C63.2908-46.3389 75.8825-58.9567 91.5411-58.9567C107.153-58.9567 119.758-46.3389 119.758-30.6466C119.758-14.9543 107.153-2.3028 91.5411-2.3028Z"/>
  </g>
  <g id="Thin-L" transform="matrix(1 0 0 1 766.381 1556)">
   <path d="M140.57-51.3379C144.489-51.3379 147.676-54.5249 147.676-58.4357C147.676-62.2829 144.489-65.4699 140.57-65.4699C136.659-65.4699 133.472-62.2829 133.472-58.4357C133.472-54.5249 136.659-51.3379 140.57-51.3379ZM32.7039 20.3415L147.45 20.3415C158.314 20.3415 163.998 14.4501 163.998 3.74689L163.998-62.7564C163.998-73.4596 158.314-79.3427 147.45-79.3427L128.238-79.3427C122.972-79.3427 121.732-79.6132 118.35-83.3805L112.797-89.5774C109.372-93.3149 106.93-94.3261 100.984-94.3261L77.3623-94.3261C71.4073-94.3261 68.9654-93.3149 65.5496-89.5774L59.9877-83.3805C56.7579-79.7571 55.2935-79.3427 50.1084-79.3427L32.7039-79.3427C21.8399-79.3427 16.084-73.4596 16.084-62.7564L16.084 3.74689C16.084 14.4501 21.8399 20.3415 32.7039 20.3415ZM32.8648 16.3829C24.6991 16.3829 20.0342 12.0312 20.0342 3.54387L20.0342-62.545C20.0342-71.0324 24.6991-75.3925 32.8648-75.3925L50.357-75.3925C56.1303-75.3925 58.6908-75.9509 62.1152-79.7689L67.6518-85.9488C71.1987-89.8979 73.0483-90.3759 77.6868-90.3759L100.651-90.3759C105.289-90.3759 107.139-89.8979 110.686-85.9488L116.231-79.7689C119.647-75.9509 122.216-75.3925 127.989-75.3925L147.289-75.3925C155.375-75.3925 160.112-71.0324 160.112-62.545L160.112 3.54387C160.112 12.0312 155.375 16.3829 147.289 16.3829ZM90.0771 4.56402C109.416 4.56402 125.047-10.9953 125.047-30.4951C125.047-49.9865 109.56-65.5458 90.0771-65.5458C70.7381-65.5458 55.0984-49.9865 55.0984-30.4951C55.0984-10.9953 70.7381 4.56402 90.0771 4.56402ZM90.0771 0.473805C72.9629 0.473805 59.2521-13.364 59.2521-30.4951C59.2521-47.6262 72.9544-61.4556 90.0771-61.4556C107.128-61.4556 120.894-47.6262 120.894-30.4951C120.894-13.364 107.128 0.473805 90.0771 0.473805Z"/>
  </g>
  <g id="Ultralight-L" transform="matrix(1 0 0 1 470.426 1556)">
   <path d="M140.453-51.8551C144.282-51.8551 147.391-54.9645 147.391-58.7977C147.391-62.5415 144.282-65.6509 140.453-65.6509C136.62-65.6509 133.511-62.5415 133.511-58.7977C133.511-54.9645 136.62-51.8551 140.453-51.8551ZM32.0058 19.7856L146.649 19.7856C157.008 19.7856 162.486 14.0493 162.486 3.85032L162.486-62.7823C162.486-72.9813 157.008-78.7221 146.649-78.7221L127.178-78.7221C121.847-78.7221 120.659-78.8245 117.161-82.7341L111.491-89.0473C108.015-92.8495 105.741-93.6667 99.9108-93.6667L76.6254-93.6667C70.7996-93.6667 68.5259-92.8495 65.0453-89.0473L59.38-82.7341C56.0469-78.9943 54.6083-78.7221 49.3585-78.7221L32.0058-78.7221C21.646-78.7221 16.084-72.9813 16.084-62.7823L16.084 3.85032C16.084 14.0493 21.646 19.7856 32.0058 19.7856ZM32.1666 17.2104C23.5743 17.2104 18.6637 12.626 18.6637 3.71194L18.6637-62.6484C18.6637-71.5624 23.5743-76.1423 32.1666-76.1423L49.1029-76.1423C54.9021-76.1423 57.3592-76.5844 60.8352-80.467L66.514-86.7892C70.048-90.7253 71.8977-91.087 76.3293-91.087L100.211-91.087C104.643-91.087 106.493-90.7253 110.027-86.7892L115.701-80.467C119.181-76.5844 121.634-76.1423 127.433-76.1423L146.488-76.1423C155-76.1423 159.995-71.5624 159.995-62.6484L159.995 3.71194C159.995 12.626 155 17.2104 146.488 17.2104ZM89.3272 4.77088C108.731 4.77088 124.44-10.853 124.44-30.4176C124.44-49.9865 108.901-65.6105 89.3272-65.6105C69.9236-65.6105 54.2192-49.9865 54.2192-30.4176C54.2192-10.853 69.9236 4.77088 89.3272 4.77088ZM89.3272 1.89597C71.4502 1.89597 57.1835-12.5495 57.1835-30.4176C57.1835-48.2856 71.4547-62.7356 89.3272-62.7356C107.115-62.7356 121.475-48.2856 121.475-30.4176C121.475-12.5495 107.115 1.89597 89.3272 1.89597Z"/>
  </g>
  <g id="Black-M" transform="matrix(1 0 0 1 2858.88 1126)">
   <path d="M107.411-44.2112C110.783-44.2112 113.474-46.9024 113.474-50.2685C113.474-53.6405 110.783-56.3317 107.411-56.3317C104.045-56.3317 101.354-53.6405 101.354-50.2685C101.354-46.9024 104.045-44.2112 107.411-44.2112ZM31.6184 13.203L117.426 13.203C129.513 13.203 136.583 6.13889 136.583-5.93804L136.583-57.6427C136.583-69.7196 129.513-76.7782 117.426-76.7782L106.688-76.7782C102.946-76.7782 101.418-77.0884 98.3891-79.676L94.7053-82.8877C91.7056-85.5031 88.8567-86.385 84.1448-86.385L64.9008-86.385C60.1834-86.385 57.3346-85.5031 54.3403-82.8877L50.651-79.676C47.6266-77.0878 46.0944-76.7782 42.3576-76.7782L31.6184-76.7782C19.5311-76.7782 12.4609-69.7196 12.4609-57.6427L12.4609-5.93804C12.4609 6.13889 19.5311 13.203 31.6184 13.203ZM34.2553-4.14048C31.2632-4.14048 29.7989-5.36104 29.7989-8.60235L29.7989-54.9729C29.7989-58.2142 31.2632-59.4403 34.2553-59.4403L48.8471-59.4403C53.2079-59.4403 55.012-60.0348 57.5549-62.5983L60.8281-65.856C63.3466-68.3435 65.0651-69.047 69.1559-69.047L79.8842-69.047C83.975-69.047 85.6935-68.2864 87.9836-66.0273L91.4907-62.5983C94.0282-60.0919 95.8377-59.4403 100.198-59.4403L114.789-59.4403C117.776-59.4403 119.24-58.2142 119.24-54.9729L119.24-8.60235C119.24-5.36104 117.776-4.14048 114.789-4.14048ZM74.522-8.20853C88.4823-8.20853 99.6281-19.4117 99.6281-33.3824C99.6281-47.3476 88.4817-58.5508 74.522-58.5508C60.6189-58.5508 49.4105-47.3476 49.4105-33.3824C49.4105-19.4117 60.6189-8.20853 74.522-8.20853ZM74.522-22.8698C68.738-22.8698 64.0659-27.5874 64.0659-33.3824C64.0659-39.2345 68.7325-43.8895 74.522-43.8895C80.3689-43.8895 84.9726-39.2345 84.9726-33.3824C84.9726-27.5874 80.3689-22.8698 74.522-22.8698Z"/>
  </g>
  <g id="Heavy-M" transform="matrix(1 0 0 1 2562.67 1126)">
   <path d="M107.86-44.6099C111.227-44.6099 113.93-47.3127 113.93-50.6635C113.93-54.0285 111.227-56.7313 107.86-56.7313C104.509-56.7313 101.806-54.0285 101.806-50.6635C101.806-47.3127 104.509-44.6099 107.86-44.6099ZM30.7123 12.3923L117.334 12.3923C128.972 12.3923 135.584 5.79013 135.584-5.80979L135.584-57.3648C135.584-68.9648 128.972-75.5505 117.334-75.5505L105.832-75.5505C102.063-75.5505 100.627-75.9757 97.7901-78.5241L94.0563-82.0148C91.1811-84.643 88.4194-85.6617 83.6362-85.6617L64.3373-85.6617C59.5377-85.6617 56.776-84.643 53.9172-82.0148L50.167-78.5241C47.3512-75.9803 45.8915-75.5505 42.1419-75.5505L30.7123-75.5505C19.075-75.5505 12.4609-68.9648 12.4609-57.3648L12.4609-5.80979C12.4609 5.79013 19.075 12.3923 30.7123 12.3923ZM32.7562-2.72369C29.3294-2.72369 27.5605-4.25976 27.5605-7.93579L27.5605-55.2224C27.5605-58.8985 29.3294-60.4509 32.7562-60.4509L47.5615-60.4509C51.9274-60.4509 53.8593-61.1033 56.3855-63.7065L59.7811-67.208C62.3645-69.8411 64.0156-70.5621 68.1598-70.5621L79.7973-70.5621C83.9415-70.5621 85.5926-69.7975 88.0015-67.3389L91.588-63.7065C94.0978-61.1469 96.0461-60.4509 100.412-60.4509L115.291-60.4509C118.699-60.4509 120.47-58.8985 120.47-55.2224L120.47-7.93579C120.47-4.25976 118.699-2.72369 115.291-2.72369ZM74.0234-7.48041C88.1716-7.48041 99.481-18.8312 99.481-33.0167C99.481-47.1859 88.1761-58.5366 74.0234-58.5366C59.9188-58.5366 48.5494-47.1859 48.5494-33.0167C48.5494-18.8312 59.9188-7.48041 74.0234-7.48041ZM74.0234-20.4326C67.1049-20.4326 61.4874-26.0654 61.4874-33.0167C61.4874-40.0117 67.0884-45.5844 74.0234-45.5844C80.9997-45.5844 86.5429-40.0117 86.5429-33.0167C86.5429-26.0654 80.9997-20.4326 74.0234-20.4326Z"/>
  </g>
  <g id="Bold-M" transform="matrix(1 0 0 1 2266.51 1126)">
   <path d="M108.362-45.0559C111.724-45.0559 114.44-47.7717 114.44-51.1054C114.44-54.4625 111.724-57.1783 108.362-57.1783C105.028-57.1783 102.312-54.4625 102.312-51.1054C102.312-47.7717 105.028-45.0559 108.362-45.0559ZM29.6986 11.4855L117.233 11.4855C128.366 11.4855 134.465 5.39999 134.465-5.66632L134.465-57.054C134.465-68.1203 128.366-74.1772 117.233-74.1772L104.874-74.1772C101.076-74.1772 99.7413-74.731 97.12-77.2355L93.3303-81.0383C90.5944-83.6808 87.9301-84.8526 83.0672-84.8526L63.707-84.8526C58.8154-84.8526 56.1512-83.6808 53.4439-81.0383L49.6256-77.2355C47.0432-74.7413 45.6646-74.1772 41.9006-74.1772L29.6986-74.1772C18.5648-74.1772 12.4609-68.1203 12.4609-57.054L12.4609-5.66632C12.4609 5.39999 18.5648 11.4855 29.6986 11.4855ZM31.0794-1.13881C27.1663-1.13881 25.0566-3.02783 25.0566-7.19016L25.0566-55.5016C25.0566-59.6639 27.1663-61.5815 31.0794-61.5815L46.1235-61.5815C50.4951-61.5815 52.5698-62.2986 55.0773-64.9463L58.61-68.7204C61.2658-71.5165 62.8415-72.2569 67.0455-72.2569L79.7001-72.2569C83.904-72.2569 85.4798-71.4879 88.0214-68.806L91.6968-64.9463C94.1757-62.3272 96.2791-61.5815 100.651-61.5815L115.852-61.5815C119.731-61.5815 121.846-59.6639 121.846-55.5016L121.846-7.19016C121.846-3.02783 119.731-1.13881 115.852-1.13881ZM73.4656-6.6659C87.824-6.6659 99.3164-18.1817 99.3164-32.6076C99.3164-47.005 87.8343-58.5208 73.4656-58.5208C59.1357-58.5208 47.5861-47.005 47.5861-32.6076C47.5861-18.1817 59.1357-6.6659 73.4656-6.6659ZM73.4656-17.7062C65.2779-17.7062 58.6029-24.3628 58.6029-32.6076C58.6029-40.8811 65.2493-47.4805 73.4656-47.4805C81.7053-47.4805 88.2996-40.8811 88.2996-32.6076C88.2996-24.3628 81.7053-17.7062 73.4656-17.7062Z"/>
  </g>
  <g id="Semibold-M" transform="matrix(1 0 0 1 1970.19 1126)">
   <path d="M108.708-45.3634C112.066-45.3634 114.791-48.0882 114.791-51.41C114.791-54.7617 112.066-57.4865 108.708-57.4865C105.386-57.4865 102.661-54.7617 102.661-51.41C102.661-48.0882 105.386-45.3634 108.708-45.3634ZM28.9998 10.8604L117.162 10.8604C127.949 10.8604 133.694 5.13104 133.694-5.56741L133.694-56.8397C133.694-67.5382 127.949-73.2305 117.162-73.2305L104.213-73.2305C100.395-73.2305 99.1308-73.873 96.658-76.3472L92.8298-80.3652C90.1899-83.0175 87.5928-84.2948 82.6749-84.2948L63.2725-84.2948C58.3175-84.2948 55.7204-83.0175 53.1176-80.3652L49.2524-76.3472C46.8308-73.8872 45.5081-73.2305 41.7343-73.2305L28.9998-73.2305C18.2131-73.2305 12.4609-67.5382 12.4609-56.8397L12.4609-5.56741C12.4609 5.13104 18.2131 10.8604 28.9998 10.8604ZM29.9233-0.0461991C25.675-0.0461991 23.3305-2.17855 23.3305-6.67612L23.3305-55.694C23.3305-60.1916 25.675-62.361 29.9233-62.361L45.132-62.361C49.5076-62.361 51.6809-63.1226 54.1755-65.8009L57.8026-69.763C60.5084-72.6714 62.0322-73.4253 66.2773-73.4253L79.633-73.4253C83.8782-73.4253 85.402-72.6533 88.0351-69.8175L91.7719-65.8009C94.2294-63.1408 96.4398-62.361 100.815-62.361L116.239-62.361C120.443-62.361 122.795-60.1916 122.795-55.694L122.795-6.67612C122.795-2.17855 120.443-0.0461991 116.239-0.0461991ZM73.081-6.10439C87.5844-6.10439 99.2029-17.7339 99.2029-32.3256C99.2029-46.8803 87.5986-58.5098 73.081-58.5098C58.5958-58.5098 46.9221-46.8803 46.9221-32.3256C46.9221-17.7339 58.5958-6.10439 73.081-6.10439ZM73.081-15.8266C64.0185-15.8266 56.6144-23.189 56.6144-32.3256C56.6144-41.4804 63.9814-48.7876 73.081-48.7876C82.1917-48.7876 89.5106-41.4804 89.5106-32.3256C89.5106-23.189 82.1917-15.8266 73.081-15.8266Z"/>
  </g>
  <g id="Medium-M" transform="matrix(1 0 0 1 1673.77 1126)">
   <path d="M108.97-45.5965C112.326-45.5965 115.058-48.3281 115.058-51.6409C115.058-54.9886 112.326-57.7202 108.97-57.7202C105.657-57.7202 102.926-54.9886 102.926-51.6409C102.926-48.3281 105.657-45.5965 108.97-45.5965ZM28.47 10.3864L117.109 10.3864C127.632 10.3864 133.109 4.9271 133.109-5.49242L133.109-56.6773C133.109-67.0968 127.632-72.5126 117.109-72.5126L103.712-72.5126C99.8789-72.5126 98.6679-73.2223 96.3077-75.6736L92.4503-79.8548C89.8832-82.5146 87.3371-83.8719 82.3775-83.8719L62.943-83.8719C57.9399-83.8719 55.3938-82.5146 52.8702-79.8548L48.9693-75.6736C46.6698-73.2395 45.3895-72.5126 41.6082-72.5126L28.47-72.5126C17.9464-72.5126 12.4609-67.0968 12.4609-56.6773L12.4609-5.49242C12.4609 4.9271 17.9464 10.3864 28.47 10.3864ZM29.0468 0.782262C24.5442 0.782262 22.0216-1.53459 22.0216-6.28636L22.0216-55.8399C22.0216-60.5917 24.5442-62.9519 29.0468-62.9519L44.3803-62.9519C48.7588-62.9519 51.0069-63.7474 53.4917-66.449L57.1904-70.5536C59.9341-73.5472 61.4185-74.3112 65.6949-74.3112L79.5822-74.3112C83.8586-74.3112 85.343-73.5369 88.0456-70.5844L91.8287-66.449C94.2702-63.7577 96.5616-62.9519 100.94-62.9519L116.532-62.9519C120.983-62.9519 123.514-60.5917 123.514-55.8399L123.514-6.28636C123.514-1.53459 120.983 0.782262 116.532 0.782262ZM72.7895-5.67862C87.4028-5.67862 99.1169-17.3944 99.1169-32.1118C99.1169-46.7857 87.42-58.5015 72.7895-58.5015C58.1864-58.5015 46.4186-46.7857 46.4186-32.1118C46.4186-17.3944 58.1864-5.67862 72.7895-5.67862ZM72.7895-14.4015C63.0635-14.4015 55.1066-22.299 55.1066-32.1118C55.1066-41.9349 63.0201-49.7787 72.7895-49.7787C82.5605-49.7787 90.4288-41.9349 90.4288-32.1118C90.4288-22.299 82.5605-14.4015 72.7895-14.4015Z"/>
  </g>
  <g id="Regular-M" transform="matrix(1 0 0 1 1377.44 1126)">
   <path d="M109.312-45.9007C112.665-45.9007 115.405-48.6411 115.405-51.9422C115.405-55.2846 112.665-58.025 109.312-58.025C106.011-58.025 103.271-55.2846 103.271-51.9422C103.271-48.6411 106.011-45.9007 109.312-45.9007ZM27.7789 9.76808L117.039 9.76808C127.22 9.76808 132.347 4.6611 132.347-5.3946L132.347-56.4653C132.347-66.521 127.22-71.5763 117.039-71.5763L103.059-71.5763C99.2057-71.5763 98.0641-72.3737 95.8508-74.795L91.9552-79.189C89.4832-81.8585 87.0035-83.3202 81.9895-83.3202L62.5132-83.3202C57.4475-83.3202 54.9678-81.8585 52.5475-79.189L48.6002-74.795C46.4597-72.3948 45.2347-71.5763 41.4437-71.5763L27.7789-71.5763C17.5986-71.5763 12.4609-66.521 12.4609-56.4653L12.4609-5.3946C12.4609 4.6611 17.5986 9.76808 27.7789 9.76808ZM27.9035 1.86286C23.0694 1.86286 20.3144-0.694633 20.3144-5.77797L20.3144-56.0302C20.3144-61.1135 23.0694-63.7228 27.9035-63.7228L43.3998-63.7228C47.7822-63.7228 50.1277-64.5624 52.5998-67.2943L56.3918-71.5847C59.185-74.6894 60.618-75.4667 64.9351-75.4667L79.5159-75.4667C83.833-75.4667 85.266-74.6894 88.0592-71.5847L91.903-67.2943C94.3233-64.5624 96.7205-63.7228 101.103-63.7228L116.915-63.7228C121.687-63.7228 124.452-61.1135 124.452-56.0302L124.452-5.77797C124.452-0.694633 121.687 1.86286 116.915 1.86286ZM72.4091-5.12327C87.1658-5.12327 99.0047-16.9516 99.0047-31.8329C99.0047-46.6624 87.1869-58.4907 72.4091-58.4907C57.6525-58.4907 45.7618-46.6624 45.7618-31.8329C45.7618-16.9516 57.6525-5.12327 72.4091-5.12327ZM72.4091-12.5426C61.8179-12.5426 53.14-21.1381 53.14-31.8329C53.14-42.5277 61.7661-51.0714 72.4091-51.0714C83.0416-51.0714 91.6266-42.5277 91.6266-31.8329C91.6266-21.1381 83.0416-12.5426 72.4091-12.5426Z"/>
  </g>
  <g id="Light-M" transform="matrix(1 0 0 1 1081.73 1126)">
   <path d="M109.158-46.5851C112.391-46.5851 115.029-49.2228 115.029-52.4213C115.029-55.6268 112.391-58.2645 109.158-58.2645C105.96-58.2645 103.322-55.6268 103.322-52.4213C103.322-49.2228 105.96-46.5851 109.158-46.5851ZM26.8549 9.03231L115.979 9.03231C125.491 9.03231 130.345 4.13066 130.345-5.25771L130.345-56.4996C130.345-65.8879 125.491-70.7549 115.979-70.7549L101.656-70.7549C97.717-70.7549 96.6439-71.3299 94.2766-73.9395L90.227-78.4874C87.6865-81.2425 85.4293-82.4475 80.5693-82.4475L61.5379-82.4475C56.6432-82.4475 54.3861-81.2425 51.8802-78.4874L47.796-73.9395C45.5186-71.3852 44.3279-70.7549 40.4513-70.7549L26.8549-70.7549C17.3419-70.7549 12.4609-65.8879 12.4609-56.4996L12.4609-5.25771C12.4609 4.13066 17.3419 9.03231 26.8549 9.03231ZM26.9795 2.95796C21.5807 2.95796 18.5006 0.0924704 18.5006-5.55553L18.5006-56.1671C18.5006-61.8151 21.5807-64.7152 26.9795-64.7152L41.74-64.7152C46.1567-64.7152 48.3653-65.4008 50.9058-68.2183L54.8861-72.697C57.6621-75.7845 59.0951-76.4078 63.1385-76.4078L78.9341-76.4078C82.9774-76.4078 84.4105-75.7845 87.1865-72.697L91.2014-68.2183C93.7073-65.4008 95.9505-64.7152 100.367-64.7152L115.854-64.7152C121.19-64.7152 124.298-61.8151 124.298-56.1671L124.298-5.55553C124.298 0.0924704 121.19 2.95796 115.854 2.95796ZM71.4167-4.8495C86.2589-4.8495 98.2005-16.7634 98.2005-31.7302C98.2005-46.6624 86.3142-58.5763 71.4167-58.5763C56.5745-58.5763 44.5983-46.6624 44.5983-31.7302C44.5983-16.7634 56.5745-4.8495 71.4167-4.8495ZM71.4167-10.6604C59.8159-10.6604 50.4022-20.0601 50.4022-31.7302C50.4022-43.4003 59.7812-52.7654 71.4167-52.7654C83.0245-52.7654 92.3965-43.4003 92.3965-31.7302C92.3965-20.0601 83.0245-10.6604 71.4167-10.6604Z"/>
  </g>
  <g id="Thin-M" transform="matrix(1 0 0 1 786.343 1126)">
   <path d="M108.954-47.4903C112.029-47.4903 114.531-49.9923 114.531-53.055C114.531-56.0794 112.029-58.5813 108.954-58.5813C105.892-58.5813 103.39-56.0794 103.39-53.055C103.39-49.9923 105.892-47.4903 108.954-47.4903ZM25.6328 8.0592L114.575 8.0592C123.206 8.0592 127.697 3.42911 127.697-5.07666L127.697-56.5448C127.697-65.0506 123.206-69.6687 114.575-69.6687L99.8002-69.6687C95.7482-69.6687 94.7656-69.9494 92.1946-72.8079L87.9413-77.5596C85.3103-80.4278 83.3473-81.2934 78.691-81.2934L60.248-81.2934C55.5796-81.2934 53.6166-80.4278 50.9976-77.5596L46.7323-72.8079C44.2739-70.05 43.1284-69.6687 39.1387-69.6687L25.6328-69.6687C17.0024-69.6687 12.4609-65.0506 12.4609-56.5448L12.4609-5.07666C12.4609 3.42911 17.0024 8.0592 25.6328 8.0592ZM25.7574 4.40632C19.6119 4.40632 16.1018 1.13348 16.1018-5.26133L16.1018-56.3481C16.1018-62.743 19.6119-66.0278 25.7574-66.0278L39.5449-66.0278C44.0068-66.0278 46.0343-66.5097 48.6654-69.4403L52.8946-74.1679C55.648-77.2329 57.081-77.6525 60.7622-77.6525L78.1647-77.6525C81.8459-77.6525 83.2789-77.2329 86.0323-74.1679L90.2736-69.4403C92.8926-66.5097 94.9321-66.0278 99.3941-66.0278L114.451-66.0278C120.534-66.0278 124.094-62.743 124.094-56.3481L124.094-5.26133C124.094 1.13348 120.534 4.40632 114.451 4.40632ZM70.1041-4.48741C85.0595-4.48741 97.1368-16.5145 97.1368-31.5944C97.1368-46.6624 85.1601-58.6895 70.1041-58.6895C55.1488-58.6895 43.0594-46.6624 43.0594-31.5944C43.0594-16.5145 55.1488-4.48741 70.1041-4.48741ZM70.1041-8.17104C57.1681-8.17104 46.7813-18.6344 46.7813-31.5944C46.7813-44.5545 57.1561-55.0058 70.1041-55.0058C83.0019-55.0058 93.4149-44.5545 93.4149-31.5944C93.4149-18.6344 83.0019-8.17104 70.1041-8.17104Z"/>
  </g>
  <g id="Ultralight-M" transform="matrix(1 0 0 1 490.31 1126)">
   <path d="M108.85-47.954C111.844-47.954 114.276-50.3864 114.276-53.3795C114.276-56.3112 111.844-58.7436 108.85-58.7436C105.857-58.7436 103.425-56.3112 103.425-53.3795C103.425-50.3864 105.857-47.954 108.85-47.954ZM25.0069 7.56077L113.857 7.56077C122.035 7.56077 126.341 3.06978 126.341-4.98393L126.341-56.568C126.341-64.6217 122.035-69.1123 113.857-69.1123L98.8497-69.1123C94.7397-69.1123 93.8035-69.2424 91.1282-72.2284L86.7706-77.0843C84.0932-80.0106 82.2809-80.7022 77.7289-80.7022L59.5873-80.7022C55.0348-80.7022 53.2225-80.0106 50.5455-77.0843L46.1876-72.2284C43.6364-69.3661 42.5141-69.1123 38.4664-69.1123L25.0069-69.1123C16.8286-69.1123 12.4609-64.6217 12.4609-56.568L12.4609-4.98393C12.4609 3.06978 16.8286 7.56077 25.0069 7.56077ZM25.1315 5.14816C18.6034 5.14816 14.8731 1.66668 14.8731-5.11065L14.8731-56.4409C14.8731-63.2182 18.6034-66.7001 25.1315-66.7001L38.4205-66.7001C42.9056-66.7001 44.8404-67.0777 47.5178-70.0662L51.8745-74.9214C54.6164-77.9747 56.0494-78.29 59.5452-78.29L77.7706-78.29C81.2664-78.29 82.6994-77.9747 85.4412-74.9214L89.7983-70.0662C92.4753-67.0777 94.4105-66.7001 98.8956-66.7001L113.732-66.7001C120.198-66.7001 123.99-63.2182 123.99-56.4409L123.99-5.11065C123.99 1.66668 120.198 5.14816 113.732 5.14816ZM69.4318-4.30195C84.4452-4.30195 96.592-16.387 96.592-31.5249C96.592-46.6624 84.5689-58.7474 69.4318-58.7474C54.4185-58.7474 42.2712-46.6624 42.2712-31.5249C42.2712-16.387 54.4185-4.30195 69.4318-4.30195ZM69.4318-6.896C55.8119-6.896 44.9267-17.9041 44.9267-31.5249C44.9267-45.1456 55.8115-56.1534 69.4318-56.1534C82.9903-56.1534 93.9365-45.1456 93.9365-31.5249C93.9365-17.9041 82.9903-6.896 69.4318-6.896Z"/>
  </g>
  <g id="Black-S" transform="matrix(1 0 0 1 2874.9 696)">
   <path d="M84.0332-42.1875C86.6699-42.1875 88.7695-44.2871 88.7695-46.9238C88.7695-49.5605 86.6699-51.6602 84.0332-51.6602C81.3965-51.6602 79.2969-49.5605 79.2969-46.9238C79.2969-44.2871 81.3965-42.1875 84.0332-42.1875ZM25 2.92969L91.9922 2.92969C101.562 2.92969 107.227-2.73438 107.227-12.3047L107.227-52.8809C107.227-62.4512 101.562-68.1152 91.9922-68.1152L83.7891-68.1152C80.8594-68.1152 79.6387-68.3105 77.1973-70.3613L74.3164-72.8027C71.9238-74.8535 69.6777-75.4883 66.0156-75.4883L50.9766-75.4883C47.3145-75.4883 45.0684-74.8535 42.6758-72.8027L39.7949-70.3613C37.3535-68.3105 36.1328-68.1152 33.2031-68.1152L25-68.1152C15.4297-68.1152 9.76562-62.4512 9.76562-52.8809L9.76562-12.3047C9.76562-2.73438 15.4297 2.92969 25 2.92969ZM27.2461-11.2305C25-11.2305 23.9258-12.1094 23.9258-14.5508L23.9258-50.6348C23.9258-53.0762 25-53.9551 27.2461-53.9551L38.5742-53.9551C41.9922-53.9551 43.3594-54.3945 45.3613-56.3965L47.9004-58.8867C49.8535-60.791 51.2207-61.3281 54.3945-61.3281L62.5977-61.3281C65.7715-61.3281 67.1387-60.7422 68.8965-59.0332L71.6309-56.3965C73.6328-54.4434 75-53.9551 78.418-53.9551L89.7461-53.9551C91.9922-53.9551 93.0664-53.0762 93.0664-50.6348L93.0664-14.5508C93.0664-12.1094 91.9922-11.2305 89.7461-11.2305ZM58.4961-14.2578C69.3848-14.2578 78.0762-22.998 78.0762-33.8867C78.0762-44.7754 69.3848-53.5156 58.4961-53.5156C47.6562-53.5156 38.916-44.7754 38.916-33.8867C38.916-22.998 47.6562-14.2578 58.4961-14.2578ZM58.4961-26.1719C54.248-26.1719 50.8301-29.6387 50.8301-33.8867C50.8301-38.1836 54.248-41.6016 58.4961-41.6016C62.793-41.6016 66.1621-38.1836 66.1621-33.8867C66.1621-29.6387 62.793-26.1719 58.4961-26.1719Z"/>
  </g>
  <g id="Heavy-S" transform="matrix(1 0 0 1 2578.49 696)">
   <path d="M84.4366-42.441C87.0848-42.441 89.2075-44.5637 89.2075-47.2004C89.2075-49.8487 87.0848-51.9713 84.4366-51.9713C81.7998-51.9713 79.6772-49.8487 79.6772-47.2004C79.6772-44.5637 81.7998-42.441 84.4366-42.441ZM24.3431 2.33042L92.0498 2.33042C101.32 2.33042 106.627-2.96486 106.627-12.2125L106.627-52.6388C106.627-61.8865 101.32-67.1702 92.0498-67.1702L83.2359-67.1702C80.2947-67.1702 79.1431-67.4923 76.8861-69.4855L73.9822-72.1458C71.7049-74.1966 69.5049-74.9812 65.7621-74.9812L50.6193-74.9812C46.865-74.9812 44.665-74.1966 42.3992-72.1458L39.4838-69.4855C37.2383-67.4923 36.0752-67.1702 33.1455-67.1702L24.3431-67.1702C15.0724-67.1702 9.76562-61.8865 9.76562-52.6388L9.76562-12.2125C9.76562-2.96486 15.0724 2.33042 24.3431 2.33042ZM26.0821-10.1587C23.5364-10.1587 22.2432-11.2681 22.2432-14.0091L22.2432-50.8307C22.2432-53.5717 23.5364-54.6926 26.0821-54.6926L37.6868-54.6926C41.1048-54.6926 42.5988-55.2012 44.5777-57.2262L47.1974-59.9009C49.2081-61.9319 50.5177-62.5036 53.7722-62.5036L62.5977-62.5036C65.8522-62.5036 67.1617-61.8946 69.0233-60.0128L71.8037-57.2262C73.7711-55.2385 75.2766-54.6926 78.6946-54.6926L90.3108-54.6926C92.845-54.6926 94.1382-53.5717 94.1382-50.8307L94.1382-14.0091C94.1382-11.2681 92.845-10.1587 90.3108-10.1587ZM58.1965-13.6701C69.2349-13.6701 78.0531-22.5255 78.0531-33.5871C78.0531-44.6371 69.2349-53.4926 58.1965-53.4926C47.1953-53.4926 38.3283-44.6371 38.3283-33.5871C38.3283-22.5255 47.1953-13.6701 58.1965-13.6701ZM58.1965-24.328C53.1071-24.328 48.9746-28.4747 48.9746-33.5871C48.9746-38.7368 53.0956-42.8347 58.1965-42.8347C63.3346-42.8347 67.4068-38.7368 67.4068-33.5871C67.4068-28.4747 63.3346-24.328 58.1965-24.328Z"/>
  </g>
  <g id="Bold-S" transform="matrix(1 0 0 1 2282.12 696)">
   <path d="M84.8877-42.7246C87.5488-42.7246 89.6973-44.873 89.6973-47.5098C89.6973-50.1709 87.5488-52.3193 84.8877-52.3193C82.251-52.3193 80.1025-50.1709 80.1025-47.5098C80.1025-44.873 82.251-42.7246 84.8877-42.7246ZM23.6084 1.66016L92.1143 1.66016C101.05 1.66016 105.957-3.22266 105.957-12.1094L105.957-52.3682C105.957-61.2549 101.05-66.1133 92.1143-66.1133L82.6172-66.1133C79.6631-66.1133 78.5889-66.5771 76.5381-68.5059L73.6084-71.4111C71.46-73.4619 69.3115-74.4141 65.4785-74.4141L50.2197-74.4141C46.3623-74.4141 44.2139-73.4619 42.0898-71.4111L39.1357-68.5059C37.1094-66.5771 36.0107-66.1133 33.0811-66.1133L23.6084-66.1133C14.6729-66.1133 9.76562-61.2549 9.76562-52.3682L9.76562-12.1094C9.76562-3.22266 14.6729 1.66016 23.6084 1.66016ZM24.7803-8.95996C21.8994-8.95996 20.3613-10.3271 20.3613-13.4033L20.3613-51.0498C20.3613-54.126 21.8994-55.5176 24.7803-55.5176L36.6943-55.5176C40.1123-55.5176 41.748-56.1035 43.7012-58.1543L46.4111-61.0352C48.4863-63.208 49.7314-63.8184 53.0762-63.8184L62.5977-63.8184C65.9424-63.8184 67.1875-63.1836 69.165-61.1084L71.9971-58.1543C73.9258-56.1279 75.5859-55.5176 79.0039-55.5176L90.9424-55.5176C93.7988-55.5176 95.3369-54.126 95.3369-51.0498L95.3369-13.4033C95.3369-10.3271 93.7988-8.95996 90.9424-8.95996ZM57.8613-13.0127C69.0674-13.0127 78.0273-21.9971 78.0273-33.252C78.0273-44.4824 69.0674-53.4668 57.8613-53.4668C46.6797-53.4668 37.6709-44.4824 37.6709-33.252C37.6709-21.9971 46.6797-13.0127 57.8613-13.0127ZM57.8613-22.2656C51.8311-22.2656 46.8994-27.1729 46.8994-33.252C46.8994-39.3555 51.8066-44.2139 57.8613-44.2139C63.9404-44.2139 68.7988-39.3555 68.7988-33.252C68.7988-27.1729 63.9404-22.2656 57.8613-22.2656Z"/>
  </g>
  <g id="Semibold-S" transform="matrix(1 0 0 1 1985.64 696)">
   <path d="M85.1987-42.9201C87.8688-42.9201 90.035-45.0863 90.035-47.723C90.035-50.3931 87.8688-52.5593 85.1987-52.5593C82.562-52.5593 80.3958-50.3931 80.3958-47.723C80.3958-45.0863 82.562-42.9201 85.1987-42.9201ZM23.1019 1.19805L92.1587 1.19805C100.863 1.19805 105.495-3.40039 105.495-12.0383L105.495-52.1815C105.495-60.8194 100.863-65.3846 92.1587-65.3846L82.1906-65.3846C79.2276-65.3846 78.2067-65.9462 76.2981-67.8305L73.3507-70.9046C71.2911-72.9554 69.1782-74.023 65.283-74.023L49.9442-74.023C46.0157-74.023 43.9028-72.9554 41.8766-70.9046L38.8958-67.8305C37.0205-65.9462 35.9663-65.3846 33.0366-65.3846L23.1019-65.3846C14.3974-65.3846 9.76562-60.8194 9.76562-52.1815L9.76562-12.0383C9.76562-3.40039 14.3974 1.19805 23.1019 1.19805ZM23.8827-8.1335C20.7708-8.1335 19.0639-9.67842 19.0639-12.9856L19.0639-51.2009C19.0639-54.5081 20.7708-56.0863 23.8827-56.0863L36.0101-56.0863C39.428-56.0863 41.1615-56.7256 43.0969-58.7941L45.869-61.8172C47.9887-64.0878 49.1894-64.7248 52.5963-64.7248L62.5977-64.7248C66.0046-64.7248 67.2053-64.0723 69.2628-61.8638L72.1304-58.7941C74.0324-56.7411 75.7992-56.0863 79.2172-56.0863L91.3778-56.0863C94.4564-56.0863 96.1634-54.5081 96.1634-51.2009L96.1634-12.9856C96.1634-9.67842 94.4564-8.1335 91.3778-8.1335ZM57.6303-12.5595C68.9519-12.5595 78.0096-21.6327 78.0096-33.0209C78.0096-44.3758 68.9519-53.449 57.6303-53.449C46.3242-53.449 37.2177-44.3758 37.2177-33.0209C37.2177-21.6327 46.3242-12.5595 57.6303-12.5595ZM57.6303-20.8438C50.9513-20.8438 45.4687-26.2753 45.4687-33.0209C45.4687-39.782 50.918-45.1647 57.6303-45.1647C64.3581-45.1647 69.7586-39.782 69.7586-33.0209C69.7586-26.2753 64.3581-20.8438 57.6303-20.8438Z"/>
  </g>
  <g id="Medium-S" transform="matrix(1 0 0 1 1689.1 696)">
   <path d="M85.4346-43.0684C88.1113-43.0684 90.291-45.248 90.291-47.8848C90.291-50.5615 88.1113-52.7412 85.4346-52.7412C82.7979-52.7412 80.6182-50.5615 80.6182-47.8848C80.6182-45.248 82.7979-43.0684 85.4346-43.0684ZM22.7178 0.847656L92.1924 0.847656C100.722 0.847656 105.145-3.53516 105.145-11.9844L105.145-52.04C105.145-60.4893 100.722-64.832 92.1924-64.832L81.8672-64.832C78.8975-64.832 77.917-65.4678 76.1162-67.3184L73.1553-70.5205C71.1631-72.5713 69.0771-73.7266 65.1348-73.7266L49.7354-73.7266C45.7529-73.7266 43.667-72.5713 41.7148-70.5205L38.7139-67.3184C36.9531-65.4678 35.9326-64.832 33.0029-64.832L22.7178-64.832C14.1885-64.832 9.76562-60.4893 9.76562-52.04L9.76562-11.9844C9.76562-3.53516 14.1885 0.847656 22.7178 0.847656ZM23.2021-7.50684C19.915-7.50684 18.0801-9.18652 18.0801-12.6689L18.0801-51.3154C18.0801-54.7979 19.915-56.5176 23.2021-56.5176L35.4912-56.5176C38.9092-56.5176 40.7168-57.1973 42.6387-59.2793L45.458-62.4102C47.6113-64.7549 48.7783-65.4121 52.2324-65.4121L62.5977-65.4121C66.0518-65.4121 67.2188-64.7461 69.3369-62.4365L72.2314-59.2793C74.1133-57.2061 75.9609-56.5176 79.3789-56.5176L91.708-56.5176C94.9551-56.5176 96.79-54.7979 96.79-51.3154L96.79-12.6689C96.79-9.18652 94.9551-7.50684 91.708-7.50684ZM57.4551-12.2158C68.8643-12.2158 77.9961-21.3564 77.9961-32.8457C77.9961-44.2949 68.8643-53.4355 57.4551-53.4355C46.0547-53.4355 36.874-44.2949 36.874-32.8457C36.874-21.3564 46.0547-12.2158 57.4551-12.2158ZM57.4551-19.7656C50.2842-19.7656 44.3838-25.5947 44.3838-32.8457C44.3838-40.1055 50.2441-45.8857 57.4551-45.8857C64.6748-45.8857 70.4863-40.1055 70.4863-32.8457C70.4863-25.5947 64.6748-19.7656 57.4551-19.7656Z"/>
  </g>
  <g id="Regular-S" transform="matrix(1 0 0 1 1392.62 696)">
   <path d="M85.7422-43.2617C88.4277-43.2617 90.625-45.459 90.625-48.0957C90.625-50.7812 88.4277-52.9785 85.7422-52.9785C83.1055-52.9785 80.9082-50.7812 80.9082-48.0957C80.9082-45.459 83.1055-43.2617 85.7422-43.2617ZM22.2168 0.390625L92.2363 0.390625C100.537 0.390625 104.688-3.71094 104.688-11.9141L104.688-51.8555C104.688-60.0586 100.537-64.1113 92.2363-64.1113L81.4453-64.1113C78.4668-64.1113 77.5391-64.8438 75.8789-66.6504L72.9004-70.0195C70.9961-72.0703 68.9453-73.3398 64.9414-73.3398L49.4629-73.3398C45.4102-73.3398 43.3594-72.0703 41.5039-70.0195L38.4766-66.6504C36.8652-64.8438 35.8887-64.1113 32.959-64.1113L22.2168-64.1113C13.916-64.1113 9.76562-60.0586 9.76562-51.8555L9.76562-11.9141C9.76562-3.71094 13.916 0.390625 22.2168 0.390625ZM22.3145-6.68945C18.7988-6.68945 16.7969-8.54492 16.7969-12.2559L16.7969-51.4648C16.7969-55.1758 18.7988-57.0801 22.3145-57.0801L34.8145-57.0801C38.2324-57.0801 40.1367-57.8125 42.041-59.9121L44.9219-63.1836C47.1191-65.625 48.2422-66.3086 51.7578-66.3086L62.5977-66.3086C66.1133-66.3086 67.2363-65.625 69.4336-63.1836L72.3633-59.9121C74.2188-57.8125 76.1719-57.0801 79.5898-57.0801L92.1387-57.0801C95.6055-57.0801 97.6074-55.1758 97.6074-51.4648L97.6074-12.2559C97.6074-8.54492 95.6055-6.68945 92.1387-6.68945ZM57.2266-11.7676C68.75-11.7676 77.9785-20.9961 77.9785-32.6172C77.9785-44.1895 68.75-53.418 57.2266-53.418C45.7031-53.418 36.4258-44.1895 36.4258-32.6172C36.4258-20.9961 45.7031-11.7676 57.2266-11.7676ZM57.2266-18.3594C49.4141-18.3594 42.9688-24.707 42.9688-32.6172C42.9688-40.5273 49.3652-46.8262 57.2266-46.8262C65.0879-46.8262 71.4355-40.5273 71.4355-32.6172C71.4355-24.707 65.0879-18.3594 57.2266-18.3594Z"/>
  </g>
  <g id="Light-S" transform="matrix(1 0 0 1 1096.79 696)">
   <path d="M85.606-43.8672C88.1855-43.8672 90.292-45.9736 90.292-48.5195C90.292-51.084 88.1855-53.1904 85.606-53.1904C83.0601-53.1904 80.9536-51.084 80.9536-48.5195C80.9536-45.9736 83.0601-43.8672 85.606-43.8672ZM21.3994-0.260249L91.2979-0.260249C99.0083-0.260249 102.917-4.18017 102.917-11.793L102.917-51.8857C102.917-59.4985 99.0083-63.3848 91.2979-63.3848L80.2041-63.3848C77.1499-63.3848 76.2827-63.9204 74.4863-65.8936L71.3716-69.3989C69.4068-71.5254 67.5527-72.5679 63.6851-72.5679L48.6001-72.5679C44.6987-72.5679 42.8447-71.5254 40.9136-69.3989L37.7651-65.8936C36.0327-63.9507 35.0864-63.3848 32.0811-63.3848L21.3994-63.3848C13.689-63.3848 9.76562-59.4985 9.76562-51.8857L9.76562-11.793C9.76562-4.18017 13.689-0.260249 21.3994-0.260249ZM21.4971-5.72071C17.4819-5.72071 15.1924-7.84864 15.1924-12.0591L15.1924-51.5859C15.1924-55.7964 17.4819-57.958 21.4971-57.958L33.3462-57.958C36.7944-57.958 38.5776-58.5542 40.5425-60.7295L43.5899-64.1675C45.772-66.5937 46.895-67.1411 50.1685-67.1411L62.083-67.1411C65.3565-67.1411 66.4795-66.5937 68.6616-64.1675L71.7427-60.7295C73.6738-58.5542 75.4907-57.958 78.939-57.958L91.2002-57.958C95.1665-57.958 97.4712-55.7964 97.4712-51.5859L97.4712-12.0591C97.4712-7.84864 95.1665-5.72071 91.2002-5.72071ZM56.3486-11.5254C67.9478-11.5254 77.2671-20.8296 77.2671-32.5264C77.2671-44.1895 67.978-53.4937 56.3486-53.4937C44.7495-53.4937 35.3965-44.1895 35.3965-32.5264C35.3965-20.8296 44.7495-11.5254 56.3486-11.5254ZM56.3486-16.6943C47.6431-16.6943 40.5469-23.7534 40.5469-32.5264C40.5469-41.2993 47.6094-48.3247 56.3486-48.3247C65.0728-48.3247 72.1167-41.2993 72.1167-32.5264C72.1167-23.7534 65.0728-16.6943 56.3486-16.6943Z"/>
  </g>
  <g id="Thin-S" transform="matrix(1 0 0 1 801.252 696)">
   <path d="M85.4258-44.668C87.8652-44.668 89.8516-46.6543 89.8516-49.0801C89.8516-51.4844 87.8652-53.4707 85.4258-53.4707C83-53.4707 81.0137-51.4844 81.0137-49.0801C81.0137-46.6543 83-44.668 85.4258-44.668ZM20.3184-1.12108L90.0567-1.12108C96.9864-1.12108 100.574-4.80077 100.574-11.6328L100.574-51.9258C100.574-58.7578 96.9864-62.4238 90.0567-62.4238L78.5625-62.4238C75.4082-62.4238 74.6211-62.6992 72.6446-64.8926L69.3496-68.5781C67.3047-70.8047 65.711-71.5469 62.0235-71.5469L47.459-71.5469C43.7578-71.5469 42.1641-70.8047 40.1328-68.5781L36.8242-64.8926C34.9317-62.7695 34.0254-62.4238 30.9199-62.4238L20.3184-62.4238C13.3887-62.4238 9.76562-58.7578 9.76562-51.9258L9.76562-11.6328C9.76562-4.80077 13.3887-1.12108 20.3184-1.12108ZM20.416-4.43947C15.7403-4.43947 13.0703-6.92775 13.0703-11.7988L13.0703-51.7461C13.0703-56.6172 15.7403-59.1191 20.416-59.1191L31.4043-59.1191C34.8926-59.1191 36.5157-59.5351 38.5606-61.8105L41.8281-65.4687C43.9903-67.875 45.1133-68.2422 48.0664-68.2422L61.4024-68.2422C64.3555-68.2422 65.4785-67.875 67.6406-65.4687L70.9219-61.8105C72.9531-59.5351 74.5899-59.1191 78.0781-59.1191L89.959-59.1191C94.5859-59.1191 97.291-56.6172 97.291-51.7461L97.291-11.7988C97.291-6.92775 94.5859-4.43947 89.959-4.43947ZM55.1875-11.2051C66.8867-11.2051 76.3262-20.6094 76.3262-32.4063C76.3262-44.1895 66.957-53.5937 55.1875-53.5937C43.4883-53.5937 34.0352-44.1895 34.0352-32.4063C34.0352-20.6094 43.4883-11.2051 55.1875-11.2051ZM55.1875-14.4922C45.3008-14.4922 37.3438-22.4922 37.3438-32.4063C37.3438-42.3203 45.2871-50.3066 55.1875-50.3066C65.0527-50.3066 73.0176-42.3203 73.0176-32.4063C73.0176-22.4922 65.0527-14.4922 55.1875-14.4922Z"/>
  </g>
  <g id="Ultralight-S" transform="matrix(1 0 0 1 505.141 696)">
   <path d="M85.3335-45.0781C87.7012-45.0781 89.626-47.0029 89.626-49.3672C89.626-51.6894 87.7012-53.6143 85.3335-53.6143C82.9692-53.6143 81.0444-51.6894 81.0444-49.3672C81.0444-47.0029 82.9692-45.0781 85.3335-45.0781ZM19.7647-1.562L89.4209-1.562C95.9507-1.562 99.3746-5.11864 99.3746-11.5508L99.3746-51.9463C99.3746-58.3784 95.9507-61.9317 89.4209-61.9317L77.7217-61.9317C74.5161-61.9317 73.77-62.0738 71.7012-64.3799L68.314-68.1577C66.2281-70.4356 64.7676-71.0239 61.1724-71.0239L46.8745-71.0239C43.2759-71.0239 41.8154-70.4356 39.7329-68.1577L36.3423-64.3799C34.3677-62.1646 33.482-61.9317 30.3252-61.9317L19.7647-61.9317C13.2349-61.9317 9.76562-58.3784 9.76562-51.9463L9.76562-11.5508C9.76562-5.11864 13.2349-1.562 19.7647-1.562ZM19.8623-3.78323C14.8482-3.78323 11.9834-6.45607 11.9834-11.6655L11.9834-51.8281C11.9834-57.0376 14.8482-59.7138 19.8623-59.7138L30.4097-59.7138C33.9185-59.7138 35.4595-60.0376 37.5454-62.3642L40.9258-66.1352C43.0777-68.5312 44.2007-68.8061 46.9898-68.8061L61.0537-68.8061C63.8428-68.8061 64.9658-68.5312 67.1177-66.1352L70.5015-62.3642C72.584-60.0376 74.1284-59.7138 77.6372-59.7138L89.3233-59.7138C94.2886-59.7138 97.1987-57.0376 97.1987-51.8281L97.1987-11.6655C97.1987-6.45607 94.2886-3.78323 89.3233-3.78323ZM54.5928-11.041C66.3433-11.041 75.8443-20.4966 75.8443-32.3447C75.8443-44.1895 66.4341-53.645 54.5928-53.645C42.8423-53.645 33.3379-44.1895 33.3379-32.3447C33.3379-20.4966 42.8423-11.041 54.5928-11.041ZM54.5928-13.3643C44.1011-13.3643 35.7032-21.8462 35.7032-32.3447C35.7032-42.8432 44.0977-51.3217 54.5928-51.3217C65.0425-51.3217 73.479-42.8432 73.479-32.3447C73.479-21.8462 65.0425-13.3643 54.5928-13.3643Z"/>
  </g>
 </g>
</svg>
