<?xml version="1.0" encoding="UTF-8"?>
<!--Generator: Apple Native CoreSVG 341-->
<!DOCTYPE svg
PUBLIC "-//W3C//DTD SVG 1.1//EN"
       "http://www.w3.org/Graphics/SVG/1.1/DTD/svg11.dtd">
<svg version="1.1" xmlns="http://www.w3.org/2000/svg" xmlns:xlink="http://www.w3.org/1999/xlink" viewBox="0 0 3300 2200">
 <g id="Notes">
  <rect height="2200" id="artboard" style="fill:white;opacity:1" width="3300" x="0" y="0"/>
  <line style="fill:none;stroke:black;opacity:1;stroke-width:0.5;" x1="263" x2="3036" y1="292" y2="292"/>
  <text style="stroke:none;fill:black;font-family:sans-serif;font-size:13;font-weight:bold;" transform="matrix(1 0 0 1 263 322)">Weight/Scale Variations</text>
  <text style="stroke:none;fill:black;font-family:sans-serif;font-size:13;text-anchor:middle;" transform="matrix(1 0 0 1 559.711 322)">Ultralight</text>
  <text style="stroke:none;fill:black;font-family:sans-serif;font-size:13;text-anchor:middle;" transform="matrix(1 0 0 1 856.422 322)">Thin</text>
  <text style="stroke:none;fill:black;font-family:sans-serif;font-size:13;text-anchor:middle;" transform="matrix(1 0 0 1 1153.13 322)">Light</text>
  <text style="stroke:none;fill:black;font-family:sans-serif;font-size:13;text-anchor:middle;" transform="matrix(1 0 0 1 1449.84 322)">Regular</text>
  <text style="stroke:none;fill:black;font-family:sans-serif;font-size:13;text-anchor:middle;" transform="matrix(1 0 0 1 1746.56 322)">Medium</text>
  <text style="stroke:none;fill:black;font-family:sans-serif;font-size:13;text-anchor:middle;" transform="matrix(1 0 0 1 2043.27 322)">Semibold</text>
  <text style="stroke:none;fill:black;font-family:sans-serif;font-size:13;text-anchor:middle;" transform="matrix(1 0 0 1 2339.98 322)">Bold</text>
  <text style="stroke:none;fill:black;font-family:sans-serif;font-size:13;text-anchor:middle;" transform="matrix(1 0 0 1 2636.69 322)">Heavy</text>
  <text style="stroke:none;fill:black;font-family:sans-serif;font-size:13;text-anchor:middle;" transform="matrix(1 0 0 1 2933.4 322)">Black</text>
  <line style="fill:none;stroke:black;opacity:1;stroke-width:0.5;" x1="263" x2="3036" y1="1903" y2="1903"/>
  <g transform="matrix(0.2 0 0 0.2 263 1933)">
   <path d="m46.2402 4.15039c21.7773 0 39.4531-17.627 39.4531-39.4043s-17.6758-39.4043-39.4531-39.4043c-21.7285 0-39.4043 17.627-39.4043 39.4043s17.6758 39.4043 39.4043 39.4043Zm0-7.42188c-17.6758 0-31.9336-14.3066-31.9336-31.9824s14.2578-31.9824 31.9336-31.9824 31.9824 14.3066 31.9824 31.9824-14.3066 31.9824-31.9824 31.9824Zm3.61328-17.7734v-28.4668c0-2.24609-1.46484-3.75977-3.71094-3.75977-2.14844 0-3.61328 1.51367-3.61328 3.75977v28.4668c0 2.19727 1.46484 3.71094 3.61328 3.71094 2.24609 0 3.71094-1.51367 3.71094-3.71094Zm-17.8223-10.5957h28.418c2.19727 0 3.71094-1.46484 3.71094-3.61328 0-2.19727-1.51367-3.71094-3.71094-3.71094h-28.418c-2.24609 0-3.75977 1.51367-3.75977 3.71094 0 2.14844 1.51367 3.61328 3.75977 3.61328Z"/>
  </g>
  <g transform="matrix(0.2 0 0 0.2 281.506 1933)">
   <path d="m58.5449 14.5508c27.4902 0 49.8047-22.3145 49.8047-49.8047s-22.3145-49.8047-49.8047-49.8047-49.8047 22.3145-49.8047 49.8047 22.3145 49.8047 49.8047 49.8047Zm0-8.30078c-22.9492 0-41.5039-18.5547-41.5039-41.5039s18.5547-41.5039 41.5039-41.5039 41.5039 18.5547 41.5039 41.5039-18.5547 41.5039-41.5039 41.5039Zm4.05273-23.0957v-36.9141c0-2.49023-1.70898-4.19922-4.15039-4.19922-2.39258 0-4.05273 1.70898-4.05273 4.19922v36.9141c0 2.44141 1.66016 4.15039 4.05273 4.15039 2.44141 0 4.15039-1.66016 4.15039-4.15039Zm-22.5586-14.4043h36.9629c2.44141 0 4.15039-1.61133 4.15039-4.00391 0-2.44141-1.70898-4.15039-4.15039-4.15039h-36.9629c-2.49023 0-4.15039 1.70898-4.15039 4.15039 0 2.39258 1.66016 4.00391 4.15039 4.00391Z"/>
  </g>
  <g transform="matrix(0.2 0 0 0.2 304.924 1933)">
   <path d="m74.8535 28.3203c35.1074 0 63.623-28.4668 63.623-63.5742s-28.5156-63.623-63.623-63.623-63.5742 28.5156-63.5742 63.623 28.4668 63.5742 63.5742 63.5742Zm0-9.08203c-30.127 0-54.4922-24.3652-54.4922-54.4922s24.3652-54.4922 54.4922-54.4922 54.4922 24.3652 54.4922 54.4922-24.3652 54.4922-54.4922 54.4922Zm4.44336-30.3223v-48.4863c0-2.73438-1.85547-4.63867-4.54102-4.63867-2.58789 0-4.44336 1.9043-4.44336 4.63867v48.4863c0 2.68555 1.85547 4.58984 4.44336 4.58984 2.68555 0 4.54102-1.85547 4.54102-4.58984Zm-28.7109-19.7754h48.4863c2.68555 0 4.58984-1.80664 4.58984-4.39453 0-2.73438-1.85547-4.58984-4.58984-4.58984h-48.4863c-2.73438 0-4.58984 1.85547-4.58984 4.58984 0 2.58789 1.85547 4.39453 4.58984 4.39453Z"/>
  </g>
  <text style="stroke:none;fill:black;font-family:sans-serif;font-size:13;font-weight:bold;" transform="matrix(1 0 0 1 263 1953)">Design Variations</text>
  <text style="stroke:none;fill:black;font-family:sans-serif;font-size:13;" transform="matrix(1 0 0 1 263 1971)">Symbols are supported in up to nine weights and three scales.</text>
  <text style="stroke:none;fill:black;font-family:sans-serif;font-size:13;" transform="matrix(1 0 0 1 263 1989)">For optimal layout with text and other symbols, vertically align</text>
  <text style="stroke:none;fill:black;font-family:sans-serif;font-size:13;" transform="matrix(1 0 0 1 263 2007)">symbols with the adjacent text.</text>
  <line style="fill:none;stroke:#00AEEF;stroke-width:0.5;opacity:1.0;" x1="776" x2="776" y1="1919" y2="1933"/>
  <g transform="matrix(0.2 0 0 0.2 776 1933)">
   <path d="m16.5527 0.78125c2.58789 0 3.85742-0.976562 4.78516-3.71094l20.5566-57.5195h0.244141l20.6055 57.5195c0.927734 2.73438 2.19727 3.71094 4.73633 3.71094 2.58789 0 4.24805-1.5625 4.24805-4.00391 0-0.830078-0.146484-1.61133-0.537109-2.63672l-22.9004-60.9863c-1.12305-2.97852-3.125-4.49219-6.25-4.49219-3.02734 0-5.07812 1.46484-6.15234 4.44336l-22.9004 61.084c-0.390625 1.02539-0.537109 1.80664-0.537109 2.63672 0 2.44141 1.5625 3.95508 4.10156 3.95508Zm10.2051-20.9473h30.6641c2.00195 0 3.66211-1.66016 3.66211-3.66211 0-2.05078-1.66016-3.66211-3.66211-3.66211h-30.6641c-2.00195 0-3.66211 1.61133-3.66211 3.66211 0 2.00195 1.66016 3.66211 3.66211 3.66211Z"/>
  </g>
  <line style="fill:none;stroke:#00AEEF;stroke-width:0.5;opacity:1.0;" x1="792.836" x2="792.836" y1="1919" y2="1933"/>
  <text style="stroke:none;fill:black;font-family:sans-serif;font-size:13;font-weight:bold;" transform="matrix(1 0 0 1 776 1953)">Margins</text>
  <text style="stroke:none;fill:black;font-family:sans-serif;font-size:13;" transform="matrix(1 0 0 1 776 1971)">Leading and trailing margins on the left and right side of each symbol</text>
  <text style="stroke:none;fill:black;font-family:sans-serif;font-size:13;" transform="matrix(1 0 0 1 776 1989)">can be adjusted by modifying the x-location of the margin guidelines.</text>
  <text style="stroke:none;fill:black;font-family:sans-serif;font-size:13;" transform="matrix(1 0 0 1 776 2007)">Modifications are automatically applied proportionally to all</text>
  <text style="stroke:none;fill:black;font-family:sans-serif;font-size:13;" transform="matrix(1 0 0 1 776 2025)">scales and weights.</text>
  <g transform="matrix(0.2 0 0 0.2 1289 1933)">
   <path d="m14.209 13.1348 7.86133 7.86133c4.29688 4.39453 9.32617 4.10156 13.8672-1.02539l60.6934-68.2129-4.88281-4.88281-60.2539 67.6758c-1.80664 1.95312-3.4668 2.44141-5.81055 0.0976562l-5.17578-5.12695c-2.29492-2.29492-1.80664-3.95508 0.195312-5.81055l67.4805-62.1582-4.88281-4.83398-68.0664 62.5977c-4.98047 4.58984-5.32227 9.47266-1.02539 13.8184Zm44.873-97.4609c-2.05078 2.00195-2.24609 4.88281-1.07422 6.78711 1.12305 1.80664 3.4668 3.02734 6.5918 2.24609 5.85938-1.66016 12.5977-2.39258 18.8965 0.927734l-2.68555 7.12891c-1.61133 4.00391-0.732422 6.88477 1.70898 9.42383l10.2539 10.3027c2.34375 2.39258 4.54102 2.44141 7.08008 1.95312l4.44336-0.732422 2.58789 2.53906-0.195312 2.24609c-0.0976562 2.29492 0.537109 4.29688 2.7832 6.49414l3.36914 3.32031c2.29492 2.29492 5.51758 2.49023 7.8125 0.195312l12.9883-13.0371c2.29492-2.34375 2.14844-5.37109-0.195312-7.66602l-3.41797-3.41797c-2.19727-2.19727-4.05273-3.02734-6.34766-2.88086l-2.34375 0.244141-2.44141-2.44141 1.02539-4.6875c0.634766-2.73438-0.244141-4.98047-2.88086-7.61719l-11.2793-11.1816c-12.9395-12.8418-35.5957-11.0352-46.6797-0.146484Zm7.08008 2.05078c8.78906-6.39648 25.9766-5.66406 33.6914 1.95312l12.3047 12.207c1.02539 1.02539 1.2207 1.80664 0.927734 3.32031l-1.46484 6.64062 6.73828 6.68945 4.39453-0.244141c1.12305-0.0488281 1.51367 0.0488281 2.34375 0.878906l2.53906 2.49023-10.8398 10.8398-2.49023-2.49023c-0.830078-0.878906-0.976562-1.2207-0.927734-2.39258l0.292969-4.3457-6.68945-6.73828-6.83594 1.17188c-1.41602 0.292969-2.05078 0.195312-3.17383-0.878906l-8.93555-8.88672c-1.07422-1.02539-1.17188-1.70898-0.488281-3.36914l4.58984-11.4746c-6.10352-6.34766-17.041-7.51953-25.5859-4.58984-0.683594 0.244141-0.927734-0.390625-0.390625-0.78125Z"/>
  </g>
  <text style="stroke:none;fill:black;font-family:sans-serif;font-size:13;font-weight:bold;" transform="matrix(1 0 0 1 1289 1953)">Exporting</text>
  <text style="stroke:none;fill:black;font-family:sans-serif;font-size:13;" transform="matrix(1 0 0 1 1289 1971)">Symbols should be outlined when exporting to ensure the</text>
  <text style="stroke:none;fill:black;font-family:sans-serif;font-size:13;" transform="matrix(1 0 0 1 1289 1989)">design is preserved when submitting to Xcode.</text>
  <text id="template-version" style="stroke:none;fill:black;font-family:sans-serif;font-size:13;text-anchor:end;" transform="matrix(1 0 0 1 3036 1933)">Template v.2.0</text>
  <text style="stroke:none;fill:black;font-family:sans-serif;font-size:13;text-anchor:end;" transform="matrix(1 0 0 1 3036 1951)">Requires Xcode 12 or greater</text>
  <text id="descriptive-name" style="stroke:none;fill:black;font-family:sans-serif;font-size:13;text-anchor:end;" transform="matrix(1 0 0 1 3036 1969)">Generated from folder</text>
  <text style="stroke:none;fill:black;font-family:sans-serif;font-size:13;text-anchor:end;" transform="matrix(1 0 0 1 3036 1987)">Typeset at 100.0 points</text>
  <text style="stroke:none;fill:black;font-family:sans-serif;font-size:13;" transform="matrix(1 0 0 1 263 726)">Small</text>
  <text style="stroke:none;fill:black;font-family:sans-serif;font-size:13;" transform="matrix(1 0 0 1 263 1156)">Medium</text>
  <text style="stroke:none;fill:black;font-family:sans-serif;font-size:13;" transform="matrix(1 0 0 1 263 1586)">Large</text>
 </g>
 <g id="Guides">
  <g id="H-reference" style="fill:#27AAE1;stroke:none;" transform="matrix(1 0 0 1 339 696)">
   <path d="M0.993654 0L3.63775 0L29.3281-67.1323L30.0303-67.1323L30.0303-70.459L28.1226-70.459ZM11.6885-24.4799L46.9815-24.4799L46.2315-26.7285L12.4385-26.7285ZM55.1196 0L57.7637 0L30.6382-70.459L29.4326-70.459L29.4326-67.1323Z"/>
  </g>
  <line id="Baseline-S" style="fill:none;stroke:#27AAE1;opacity:1;stroke-width:0.5;" x1="263" x2="3036" y1="696" y2="696"/>
  <line id="Capline-S" style="fill:none;stroke:#27AAE1;opacity:1;stroke-width:0.5;" x1="263" x2="3036" y1="625.541" y2="625.541"/>
  <g id="H-reference" style="fill:#27AAE1;stroke:none;" transform="matrix(1 0 0 1 339 1126)">
   <path d="M0.993654 0L3.63775 0L29.3281-67.1323L30.0303-67.1323L30.0303-70.459L28.1226-70.459ZM11.6885-24.4799L46.9815-24.4799L46.2315-26.7285L12.4385-26.7285ZM55.1196 0L57.7637 0L30.6382-70.459L29.4326-70.459L29.4326-67.1323Z"/>
  </g>
  <line id="Baseline-M" style="fill:none;stroke:#27AAE1;opacity:1;stroke-width:0.5;" x1="263" x2="3036" y1="1126" y2="1126"/>
  <line id="Capline-M" style="fill:none;stroke:#27AAE1;opacity:1;stroke-width:0.5;" x1="263" x2="3036" y1="1055.54" y2="1055.54"/>
  <g id="H-reference" style="fill:#27AAE1;stroke:none;" transform="matrix(1 0 0 1 339 1556)">
   <path d="M0.993654 0L3.63775 0L29.3281-67.1323L30.0303-67.1323L30.0303-70.459L28.1226-70.459ZM11.6885-24.4799L46.9815-24.4799L46.2315-26.7285L12.4385-26.7285ZM55.1196 0L57.7637 0L30.6382-70.459L29.4326-70.459L29.4326-67.1323Z"/>
  </g>
  <line id="Baseline-L" style="fill:none;stroke:#27AAE1;opacity:1;stroke-width:0.5;" x1="263" x2="3036" y1="1556" y2="1556"/>
  <line id="Capline-L" style="fill:none;stroke:#27AAE1;opacity:1;stroke-width:0.5;" x1="263" x2="3036" y1="1485.54" y2="1485.54"/>
  <line id="right-margin" style="fill:none;stroke:#00AEEF;stroke-width:0.5;opacity:1.0;" x1="1517.71" x2="1517.71" y1="1030.79" y2="1150.12"/>
  <line id="left-margin" style="fill:none;stroke:#00AEEF;stroke-width:0.5;opacity:1.0;" x1="1381.98" x2="1381.98" y1="1030.79" y2="1150.12"/>
 </g>
 <g id="Symbols">
  <g id="Black-L" transform="matrix(1 0 0 1 2842.85 1556)">
   <path d="M39.8556 25.6183L141.855 25.6183C156.415 25.6183 165.023 17.0084 165.023 1.90914L165.023-63.1621C165.023-78.2614 156.395-86.8505 141.251-86.8505L88.9958-86.8505C83.7999-86.8505 80.5864-88.0276 76.1215-91.3515L73.2818-93.5146C67.9914-97.5054 64.5525-98.8214 56.7408-98.8214L39.3132-98.8214C25.142-98.8214 16.084-90.0374 16.084-74.8613L16.084 1.90914C16.084 17.0108 24.7123 25.6183 39.8556 25.6183ZM42.5864 5.61651C38.2704 5.61651 36.065 3.70715 36.065-0.925674L36.065-72.0813C36.065-76.3041 38.7621-78.8428 43.1173-78.8428L51.2713-78.8428C56.4611-78.8428 59.5555-77.7229 64.0823-74.337L66.9232-72.1739C72.2452-68.1514 75.7121-66.8695 83.5262-66.8695L138.521-66.8695C142.832-66.8695 145.042-64.9393 145.042-60.3065L145.042-0.904857C145.042 3.70715 142.832 5.61651 138.521 5.61651ZM43.6064-45.6564L137.498-45.6564L137.498-52.4548C137.498-56.2077 135.809-57.6857 132.285-57.6857L48.82-57.6857C45.316-57.6857 43.6064-56.2077 43.6064-52.4548Z"/>
  </g>
  <g id="Heavy-L" transform="matrix(1 0 0 1 2546.9 1556)">
   <path d="M38.8315 24.7117L141.631 24.7117C155.399 24.7117 163.503 16.5958 163.503 2.05474L163.503-62.9377C163.503-77.4788 155.369-85.5644 140.756-85.5644L86.5281-85.5644C81.5158-85.5644 78.4627-86.7012 74.3021-89.8807L71.2353-92.2831C66.2113-96.1764 62.843-97.4383 55.409-97.4383L37.8524-97.4383C24.467-97.4383 16.084-89.2885 16.084-74.7782L16.084 2.05474C16.084 16.607 24.2188 24.7117 38.8315 24.7117ZM40.9557 7.18108C36.118 7.18108 33.5844 4.91654 33.5844-0.220413L33.5844-72.5308C33.5844-77.2555 36.4276-79.9491 41.2202-79.9491L50.6641-79.9491C55.6484-79.9491 58.601-78.8513 62.8231-75.6104L65.8955-73.208C70.9059-69.3283 74.338-68.064 81.7833-68.064L138.632-68.064C143.447-68.064 146.003-65.7693 146.003-60.6323L146.003-0.190229C146.003 4.91654 143.447 7.18108 138.632 7.18108ZM41.0996-47.389L138.477-47.389L138.477-53.4157C138.477-57.2315 136.694-58.8485 132.963-58.8485L46.6133-58.8485C42.9129-58.8485 41.0996-57.2315 41.0996-53.4157Z"/>
  </g>
  <g id="Bold-L" transform="matrix(1 0 0 1 2251.15 1556)">
   <path d="M37.5412 23.5823L141.221 23.5823C154.072 23.5823 161.576 16.0513 161.576 2.23904L161.576-62.6759C161.576-76.4882 154.034-83.9812 140.119-83.9812L83.6339-83.9812C78.7626-83.9812 75.8943-85.0569 72.0581-88.1043L68.7667-90.769C64.0433-94.5693 60.7969-95.7546 53.7719-95.7546L36.0764-95.7546C23.6369-95.7546 16.084-88.3812 16.084-74.7602L16.084 2.23904C16.084 16.0778 23.6265 23.5823 37.5412 23.5823ZM38.987 9.10258C33.4665 9.10258 30.5257 6.39254 30.5257 0.603319L30.5257-73.114C30.5257-78.4536 33.5459-81.3393 38.8838-81.3393L49.926-81.3393C54.7312-81.3393 57.5146-80.2796 61.4197-77.1633L64.7243-74.4986C69.3729-70.7733 72.7366-69.5395 79.788-69.5395L138.673-69.5395C144.141-69.5395 147.134-66.7914 147.134-61.0022L147.134 0.641306C147.134 6.39254 144.141 9.10258 138.673 9.10258ZM37.8536-49.667L139.78-49.667L139.78-54.6887C139.78-58.5963 137.859-60.4197 133.815-60.4197L43.8183-60.4197C39.8124-60.4197 37.8536-58.5963 37.8536-54.6887Z"/>
  </g>
  <g id="Semibold-L" transform="matrix(1 0 0 1 1955.1 1556)">
   <path d="M36.6517 22.8038L140.937 22.8038C153.157 22.8038 160.248 15.6759 160.248 2.36609L160.248-62.4955C160.248-75.8053 153.113-82.8898 139.68-82.8898L81.6387-82.8898C76.8645-82.8898 74.1237-83.9233 70.5111-86.8797L67.0649-89.7252C62.5486-93.4613 59.3863-94.5939 52.6433-94.5939L34.852-94.5939C23.0647-94.5939 16.084-87.7557 16.084-74.7478L16.084 2.36609C16.084 15.7129 23.2182 22.8038 36.6517 22.8038ZM37.6298 10.4272C31.6387 10.4272 28.4171 7.41009 28.4171 1.1712L28.4171-73.516C28.4171-79.2795 31.5592-82.2977 37.2732-82.2977L49.4172-82.2977C54.099-82.2977 56.7656-81.2642 60.4522-78.2338L63.917-75.3883C68.316-71.7694 71.6326-70.5566 78.4125-70.5566L138.702-70.5566C144.619-70.5566 147.914-67.4961 147.914-61.2572L147.914 1.21456C147.914 7.41009 144.619 10.4272 138.702 10.4272ZM35.6159-51.2375L140.679-51.2375L140.679-55.5663C140.679-59.5371 138.663-61.5028 134.403-61.5028L41.8914-61.5028C37.675-61.5028 35.6159-59.5371 35.6159-55.5663Z"/>
  </g>
  <g id="Medium-L" transform="matrix(1 0 0 1 1658.89 1556)">
   <path d="M35.9773 22.2134L140.723 22.2134C152.463 22.2134 159.24 15.3913 159.24 2.46242L159.24-62.3586C159.24-75.2875 152.415-82.0622 139.347-82.0622L80.1258-82.0622C75.4253-82.0622 72.7812-83.0638 69.3381-85.9511L65.7745-88.9337C61.4154-92.6212 58.3167-93.7137 51.7876-93.7137L33.9236-93.7137C22.6308-93.7137 16.084-87.2814 16.084-74.7383L16.084 2.46242C16.084 15.4362 22.9086 22.2134 35.9773 22.2134ZM36.6007 11.4317C30.2527 11.4317 26.8183 8.18164 26.8183 1.60178L26.8183-73.8208C26.8183-79.9058 30.0528-83.0244 36.0519-83.0244L49.0314-83.0244C53.6195-83.0244 56.1977-82.0108 59.7187-79.0456L63.3048-76.063C67.5147-72.5248 70.7955-71.3279 77.3696-71.3279L138.723-71.3279C144.982-71.3279 148.506-68.0304 148.506-61.4506L148.506 1.64923C148.506 8.18164 144.982 11.4317 138.723 11.4317ZM33.9192-52.4283L141.36-52.4283L141.36-56.2317C141.36-60.2505 139.272-62.3241 134.849-62.3241L40.4304-62.3241C36.0543-62.3241 33.9192-60.2505 33.9192-56.2317Z"/>
  </g>
  <g id="Regular-L" transform="matrix(1 0 0 1 1362.84 1556)">
   <path d="M35.0976 21.4434L140.443 21.4434C151.558 21.4434 157.926 15.02 157.926 2.58807L157.926-62.1802C157.926-74.6121 151.505-80.9827 138.912-80.9827L78.1525-80.9827C73.5481-80.9827 71.03-81.9427 67.8081-84.7399L64.0913-87.9014C59.9372-91.5254 56.9216-92.5658 50.6714-92.5658L32.7127-92.5658C22.0649-92.5658 16.084-86.6627 16.084-74.7261L16.084 2.58807C16.084 15.0753 22.5048 21.4434 35.0976 21.4434ZM35.2584 12.7418C28.4449 12.7418 24.7328 9.188 24.7328 2.16342L24.7328-74.2184C24.7328-80.7227 28.0879-83.9722 34.459-83.9722L48.5281-83.9722C52.9942-83.9722 55.457-82.9846 58.7619-80.1044L62.5063-76.9429C66.4694-73.51 69.7037-72.3339 76.0092-72.3339L138.752-72.3339C145.455-72.3339 149.277-68.7273 149.277-61.7027L149.277 2.21618C149.277 9.188 145.455 12.7418 138.752 12.7418ZM31.706-53.9815L142.249-53.9815L142.249-57.0996C142.249-61.181 140.067-63.3953 135.43-63.3953L38.5247-63.3953C33.9403-63.3953 31.706-61.181 31.706-57.0996Z"/>
  </g>
  <g id="Light-L" transform="matrix(1 0 0 1 1066.94 1556)">
   <path d="M34.067 20.6227L139.297 20.6227C150.203 20.6227 156.304 14.4284 156.304 2.74076L156.304-62.1038C156.304-73.7914 150.169-79.9521 138.321-79.9521L77.1982-79.9521C72.1358-79.9521 69.6559-80.7976 66.3195-83.8047L62.8126-86.9281C58.6775-90.6666 55.9673-91.5924 49.6217-91.5924L31.7011-91.5924C21.5305-91.5924 16.084-86.1665 16.084-75.2605L16.084 2.74076C16.084 14.5219 22.2185 20.6227 34.067 20.6227ZM34.2278 13.9632C26.7082 13.9632 22.7098 10.0659 22.7098 2.41153L22.7098-74.791C22.7098-81.6769 26.1603-85.0601 32.9321-85.0601L48.1082-85.0601C52.9369-85.0601 55.3234-84.1679 58.8-81.0205L62.3536-77.8972C66.2213-74.4261 69.2456-73.3263 75.6847-73.3263L138.16-73.3263C145.493-73.3263 149.678-69.3953 149.678-61.7409L149.678 2.44521C149.678 10.0659 145.493 13.9632 138.16 13.9632ZM28.557-56.4053L143.737-56.4053L143.737-58.5119C143.737-62.746 141.327-65.3229 136.098-65.3229L36.1963-65.3229C31.0012-65.3229 28.557-62.746 28.557-58.5119Z"/>
  </g>
  <g id="Thin-L" transform="matrix(1 0 0 1 771.301 1556)">
   <path d="M32.7039 19.5373L137.783 19.5373C148.411 19.5373 154.158 13.6459 154.158 2.94269L154.158-62.0029C154.158-72.706 148.402-78.5891 137.538-78.5891L75.9361-78.5891C70.2679-78.5891 67.8385-79.283 64.3506-82.5679L61.1214-85.6407C57.0116-89.5307 54.7053-90.3051 48.2334-90.3051L30.3633-90.3051C20.8237-90.3051 16.084-85.5102 16.084-75.9672L16.084 2.94269C16.084 13.7898 21.8399 19.5373 32.7039 19.5373ZM32.8648 15.5787C24.4111 15.5787 20.0342 11.227 20.0342 2.73967L20.0342-75.5483C20.0342-82.939 23.6109-86.4989 30.9128-86.4989L47.5529-86.4989C52.8612-86.4989 55.1467-85.7329 58.8505-82.2321L62.1517-79.1593C65.8932-75.6377 68.6398-74.6389 75.2556-74.6389L137.377-74.6389C145.543-74.6389 150.208-70.2788 150.208-61.7914L150.208 2.74811C150.208 11.227 145.543 15.5787 137.377 15.5787ZM24.3921-59.611L145.706-59.611L145.706-60.3798C145.706-64.8158 142.993-67.8723 136.982-67.8723L33.1168-67.8723C27.114-67.8723 24.3921-64.8158 24.3921-60.3798Z"/>
  </g>
  <g id="Ultralight-L" transform="matrix(1 0 0 1 475.139 1556)">
   <path d="M32.0058 18.9814L137.007 18.9814C147.493 18.9814 153.059 13.2451 153.059 3.04612L153.059-61.9511C153.059-72.1501 147.497-77.8909 137.138-77.8909L75.2897-77.8909C69.3112-77.8909 66.9076-78.5073 63.3422-81.9344L60.2552-84.9814C56.1583-88.9489 54.0588-89.6457 47.5223-89.6457L29.6781-89.6457C20.4617-89.6457 16.084-85.1741 16.084-76.3292L16.084 3.04612C16.084 13.4149 21.646 18.9814 32.0058 18.9814ZM32.1666 16.4062C23.2346 16.4062 18.6637 11.8218 18.6637 2.90774L18.6637-75.9361C18.6637-83.5854 22.3051-87.2358 29.8785-87.2358L47.2685-87.2358C52.8224-87.2358 55.0562-86.5345 58.8764-82.8527L62.0482-79.8057C65.7251-76.2582 68.3295-75.3112 75.0358-75.3112L136.977-75.3112C145.569-75.3112 150.48-70.7313 150.48-61.8173L150.48 2.90325C150.48 11.8218 145.569 16.4062 136.977 16.4062ZM22.2588-61.253L146.715-61.253L146.715-61.3365C146.715-65.876 143.846-69.1781 137.434-69.1781L31.5395-69.1781C25.1229-69.1781 22.2588-65.876 22.2588-61.3365Z"/>
  </g>
  <g id="Black-M" transform="matrix(1 0 0 1 2862.7 1126)">
   <path d="M31.6184 12.5799L109.938 12.5799C121.872 12.5799 128.936 5.51584 128.936-6.56109L128.936-57.0526C128.936-69.1295 121.866-76.1881 109.779-76.1881L70.9402-76.1881C66.695-76.1881 64.0727-77.1192 60.3365-79.8468L58.36-81.3119C54.0351-84.5031 51.3515-85.5536 44.9619-85.5536L31.5761-85.5536C19.9863-85.5536 12.4609-78.2679 12.4609-66.0777L12.4609-6.56109C12.4609 5.51527 19.5311 12.5799 31.6184 12.5799ZM34.2553-4.76353C31.2643-4.76353 29.7989-5.98408 29.7989-9.22539L29.7989-63.4714C29.7989-66.3634 31.7758-68.2151 34.8284-68.2151L40.187-68.2151C44.4335-68.2151 46.9423-67.3414 50.7347-64.5575L52.7109-63.0925C57.0888-59.8482 59.7763-58.8502 66.1652-58.8502L107.142-58.8502C110.134-58.8502 111.598-57.6241 111.598-54.3828L111.598-9.2199C111.598-5.98408 110.134-4.76353 107.142-4.76353ZM35.5115-42.1471L105.886-42.1471L105.886-47.9402C105.886-50.8144 104.628-51.889 101.994-51.889L39.4039-51.889C36.7754-51.889 35.5115-50.8144 35.5115-47.9402Z"/>
  </g>
  <g id="Heavy-M" transform="matrix(1 0 0 1 2566.66 1126)">
   <path d="M30.7123 11.7693L109.825 11.7693C121.003 11.7693 127.601 5.16708 127.601-6.43283L127.601-56.8402C127.601-68.4402 120.987-75.026 109.349-75.026L68.616-75.026C64.5924-75.026 62.1234-75.9282 58.6952-78.4954L56.4774-80.1978C52.4111-83.2831 49.7683-84.2913 43.7568-84.2913L30.2413-84.2913C19.3757-84.2913 12.4609-77.5816 12.4609-65.9472L12.4609-6.43283C12.4609 5.17163 19.075 11.7693 30.7123 11.7693ZM32.7562-3.34674C29.3203-3.34674 27.5605-4.88281 27.5605-8.55884L27.5605-63.858C27.5605-67.2054 29.6715-69.1963 33.1147-69.1963L39.6321-69.1963C43.6443-69.1963 46.0216-68.3354 49.5002-65.7178L51.7202-64.0153C55.8024-60.9141 58.4752-59.9263 64.4913-59.9263L107.305-59.9263C110.732-59.9263 112.501-58.3739 112.501-54.6978L112.501-8.54243C112.501-4.88281 110.732-3.34674 107.305-3.34674ZM33.3514-43.6172L106.706-43.6172L106.706-48.7493C106.706-51.6708 105.376-52.8479 102.595-52.8479L37.4616-52.8479C34.6973-52.8479 33.3514-51.6708 33.3514-48.7493Z"/>
  </g>
  <g id="Bold-M" transform="matrix(1 0 0 1 2270.69 1126)">
   <path d="M29.6986 10.8625L109.699 10.8625C120.031 10.8625 126.106 4.77695 126.106-6.28936L126.106-56.6027C126.106-67.669 120.002-73.7259 108.869-73.7259L66.016-73.7259C62.2403-73.7259 59.9428-74.5959 56.8593-76.9835L54.3715-78.9516C50.5944-81.9184 47.9974-82.8793 42.4087-82.8793L28.7482-82.8793C18.6927-82.8793 12.4609-76.8138 12.4609-65.8012L12.4609-6.28936C12.4609 4.78721 18.5648 10.8625 29.6986 10.8625ZM31.0794-1.76185C27.1457-1.76185 25.0566-3.65088 25.0566-7.81321L25.0566-64.2905C25.0566-68.1473 27.3176-70.2938 31.1976-70.2938L39.0115-70.2938C42.7615-70.2938 44.9916-69.4472 48.1191-67.0157L50.6121-65.0476C54.3634-62.1066 57.0198-61.1302 62.6188-61.1302L107.488-61.1302C111.401-61.1302 113.511-59.2126 113.511-55.0502L113.511-7.78458C113.511-3.65088 111.401-1.76185 107.488-1.76185ZM30.935-45.2617L107.622-45.2617L107.622-49.6543C107.622-52.6289 106.213-53.9206 103.268-53.9206L35.2887-53.9206C32.3726-53.9206 30.935-52.6289 30.935-49.6543Z"/>
  </g>
  <g id="Semibold-M" transform="matrix(1 0 0 1 1974.5 1126)">
   <path d="M28.9998 10.2373L109.612 10.2373C119.361 10.2373 125.076 4.50799 125.076-6.19046L125.076-56.4389C125.076-67.1374 119.324-72.8297 108.537-72.8297L64.2236-72.8297C60.6188-72.8297 58.4396-73.6775 55.5936-75.9413L52.9196-78.0924C49.3419-80.9776 46.7765-81.9058 41.4793-81.9058L27.7188-81.9058C18.2218-81.9058 12.4609-76.2845 12.4609-65.7005L12.4609-6.19046C12.4609 4.5222 18.2131 10.2373 28.9998 10.2373ZM29.9233-0.669246C25.6466-0.669246 23.3305-2.8016 23.3305-7.29917L23.3305-64.5886C23.3305-68.7966 25.6948-71.0505 29.876-71.0505L38.5836-71.0505C42.1529-71.0505 44.2816-70.2138 47.167-67.9105L49.8481-65.7593C53.3714-62.9286 56.0165-61.9602 61.3279-61.9602L107.614-61.9602C111.862-61.9602 114.207-59.7908 114.207-55.2932L114.207-7.26213C114.207-2.8016 111.862-0.669246 107.614-0.669246ZM29.2692-46.3954L108.254-46.3954L108.254-50.2782C108.254-53.2894 106.79-54.6602 103.732-54.6602L33.7908-54.6602C30.77-54.6602 29.2692-53.2894 29.2692-50.2782Z"/>
  </g>
  <g id="Medium-M" transform="matrix(1 0 0 1 1678.18 1126)">
   <path d="M28.47 9.76331L109.545 9.76331C118.853 9.76331 124.295 4.30406 124.295-6.11546L124.295-56.3148C124.295-66.7343 118.81-72.1501 108.286-72.1501L62.8645-72.1501C59.3893-72.1501 57.2997-72.9811 54.6339-75.151L51.8188-77.441C48.3923-80.2642 45.8508-81.1677 40.7746-81.1677L26.9383-81.1677C17.8648-81.1677 12.4609-75.8832 12.4609-65.6242L12.4609-6.11546C12.4609 4.32126 17.9464 9.76331 28.47 9.76331ZM29.0468 0.159215C24.5098 0.159215 22.0216-2.15763 22.0216-6.90941L22.0216-64.8147C22.0216-69.289 24.4643-71.6242 28.8739-71.6242L38.2592-71.6242C41.6914-71.6242 43.7432-70.795 46.4451-68.589L49.2688-66.299C52.6192-63.5519 55.2557-62.5895 60.3491-62.5895L107.709-62.5895C112.212-62.5895 114.735-60.2292 114.735-55.4774L114.735-6.86598C114.735-2.15763 112.212 0.159215 107.709 0.159215ZM28.006-47.255L108.733-47.255L108.733-50.7513C108.733-53.7902 107.227-55.2209 104.084-55.2209L32.655-55.2209C29.5549-55.2209 28.006-53.7902 28.006-50.7513Z"/>
  </g>
  <g id="Regular-M" transform="matrix(1 0 0 1 1381.98 1126)">
   <path d="M27.7789 9.14504L109.459 9.14504C118.191 9.14504 123.276 4.03805 123.276-6.01764L123.276-56.1528C123.276-66.2085 118.139-71.2637 107.958-71.2637L61.0918-71.2637C57.7856-71.2637 55.813-72.0727 53.3821-74.1202L50.3829-76.5913C47.1536-79.3337 44.6433-80.205 39.8554-80.205L25.9203-80.205C17.3991-80.205 12.4609-75.3598 12.4609-65.5246L12.4609-6.01764C12.4609 4.05916 17.5986 9.14504 27.7789 9.14504ZM27.9035 1.23982C23.0272 1.23982 20.3144-1.31768 20.3144-6.40102L20.3144-65.1096C20.3144-69.9312 22.8593-72.3726 27.5669-72.3726L37.836-72.3726C41.0894-72.3726 43.041-71.5531 45.5035-69.4739L48.5132-67.0028C51.638-64.3649 54.2634-63.4103 59.0724-63.4103L107.834-63.4103C112.668-63.4103 115.423-60.801 115.423-55.7177L115.423-6.34927C115.423-1.31768 112.668 1.23982 107.834 1.23982ZM26.3585-48.3762L109.358-48.3762L109.358-51.3684C109.358-54.4434 107.798-55.9523 104.543-55.9523L31.1735-55.9523C27.9699-55.9523 26.3585-54.4434 26.3585-51.3684Z"/>
  </g>
  <g id="Light-M" transform="matrix(1 0 0 1 1085.99 1126)">
   <path d="M26.8549 8.40927L108.433 8.40927C116.976 8.40927 121.822 3.50762 121.822-5.88075L121.822-56.0844C121.822-65.4727 116.941-70.3397 107.428-70.3397L60.2362-70.3397C56.5194-70.3397 54.581-71.046 52.0474-73.2818L49.2365-75.7186C46.0243-78.5637 43.7878-79.3323 38.9143-79.3323L25.0134-79.3323C16.92-79.3323 12.4609-74.9149 12.4609-66.0037L12.4609-5.88075C12.4609 3.56294 17.3419 8.40927 26.8549 8.40927ZM26.9795 2.33492C21.4701 2.33492 18.5006-0.530576 18.5006-6.17858L18.5006-65.6229C18.5006-70.7867 21.1311-73.3479 26.198-73.3479L37.4596-73.3479C41.0381-73.3479 42.9212-72.614 45.5377-70.2953L48.3764-67.8584C51.4156-65.1863 53.8527-64.3 58.7815-64.3L107.303-64.3C112.702-64.3 115.782-61.3999 115.782-55.7519L115.782-6.14394C115.782-0.530576 112.702 2.33492 107.303 2.33492ZM23.5352-50.5493L110.692-50.5493L110.692-52.6346C110.692-55.8465 108.927-57.6805 105.142-57.6805L29.086-57.6805C25.3348-57.6805 23.5352-55.8465 23.5352-52.6346Z"/>
  </g>
  <g id="Thin-M" transform="matrix(1 0 0 1 790.243 1126)">
   <path d="M25.6328 7.43615L107.075 7.43615C115.369 7.43615 119.898 2.80607 119.898-5.69971L119.898-55.9938C119.898-64.4996 115.357-69.1177 106.726-69.1177L59.1047-69.1177C54.8448-69.1177 52.9516-69.6882 50.2823-72.1729L47.7202-74.5645C44.5307-77.5453 42.6563-78.1781 37.6697-78.1781L23.814-78.1781C16.2863-78.1781 12.4609-74.3265 12.4609-66.6374L12.4609-5.69971C12.4609 2.90665 17.0024 7.43615 25.6328 7.43615ZM25.7574 3.78328C19.4107 3.78328 16.1018 0.510431 16.1018-5.88438L16.1018-66.3018C16.1018-71.9182 18.8455-74.6379 24.3875-74.6379L36.9617-74.6379C40.9702-74.6379 42.7628-74.0171 45.583-71.3815L48.1953-68.9899C51.1214-66.2725 53.3096-65.4768 58.3968-65.4768L106.602-65.4768C112.747-65.4768 116.258-62.192 116.258-55.7972L116.258-5.87237C116.258 0.510431 112.747 3.78328 106.602 3.78328ZM19.8011-53.4234L112.458-53.4234L112.458-54.3092C112.458-57.7022 110.421-59.9662 105.934-59.9662L26.325-59.9662C21.8497-59.9662 19.8011-57.7022 19.8011-54.3092Z"/>
  </g>
  <g id="Ultralight-M" transform="matrix(1 0 0 1 494.024 1126)">
   <path d="M25.0069 6.93772L106.379 6.93772C114.546 6.93772 118.913 2.44674 118.913-5.60698L118.913-55.9475C118.913-64.0012 114.545-68.4918 106.367-68.4918L58.5251-68.4918C53.987-68.4918 52.117-68.9927 49.3781-71.6049L46.9436-73.9733C43.7657-77.0237 42.0767-77.587 37.0321-77.587L23.1996-77.587C15.9618-77.587 12.4609-74.0251 12.4609-66.9619L12.4609-5.60698C12.4609 2.5705 16.8286 6.93772 25.0069 6.93772ZM25.1315 4.52512C18.3559 4.52512 14.8731 1.04363 14.8731-5.73369L14.8731-66.6496C14.8731-72.4978 17.6747-75.2986 23.4602-75.2986L36.7067-75.2986C40.9354-75.2986 42.6817-74.7357 45.6062-71.9379L48.1026-69.5695C50.9707-66.8289 53.0314-66.0796 58.1997-66.0796L106.243-66.0796C112.771-66.0796 116.501-62.5977 116.501-55.8203L116.501-5.73327C116.501 1.04363 112.771 4.52512 106.243 4.52512ZM17.8886-54.8955L113.362-54.8955L113.362-55.167C113.362-58.6527 111.186-61.1369 106.339-61.1369L24.9109-61.1369C20.0646-61.1369 17.8886-58.6527 17.8886-55.167Z"/>
  </g>
  <g id="Black-S" transform="matrix(1 0 0 1 2877.83 696)">
   <path d="M25 2.44141L86.1328 2.44141C95.7031 2.44141 101.367-3.22266 101.367-12.793L101.367-52.3926C101.367-61.9629 95.7031-67.627 86.1328-67.627L56.25-67.627C52.832-67.627 50.7324-68.3594 47.7051-70.5566L46.2402-71.6309C42.7734-74.1699 40.6738-75 35.5469-75L25.0977-75C15.8203-75 9.76562-69.1406 9.76562-59.4727L9.76562-12.793C9.76562-3.22266 15.4297 2.44141 25 2.44141ZM27.2461-11.7188C25-11.7188 23.9258-12.5977 23.9258-15.0391L23.9258-57.2754C23.9258-59.4238 25.4395-60.8398 27.7344-60.8398L31.6406-60.8398C35.0586-60.8398 37.0605-60.1562 40.1367-57.9102L41.6016-56.8359C45.1172-54.248 47.2168-53.4668 52.3438-53.4668L83.8867-53.4668C86.1328-53.4668 87.207-52.5879 87.207-50.1465L87.207-15.0391C87.207-12.5977 86.1328-11.7188 83.8867-11.7188ZM28.3203-40.332L82.8125-40.332L82.8125-45.0195C82.8125-47.2656 81.8359-48.0957 79.7852-48.0957L31.3477-48.0957C29.2969-48.0957 28.3203-47.2656 28.3203-45.0195Z"/>
  </g>
  <g id="Heavy-S" transform="matrix(1 0 0 1 2581.6 696)">
   <path d="M24.3431 1.84213L86.1674 1.84213C95.1154 1.84213 100.411-3.45315 100.411-12.7008L100.411-52.2197C100.411-61.4673 95.1039-66.7511 85.8332-66.7511L54.3715-66.7511C51.1956-66.7511 49.2227-67.472 46.472-69.5079L44.7766-70.7896C41.5288-73.2249 39.4292-74.0319 34.6364-74.0319L24.072-74.0319C15.3593-74.0319 9.76562-68.6105 9.76562-59.2998L9.76562-12.7008C9.76562-3.45315 15.0724 1.84213 24.3431 1.84213ZM26.0821-10.647C23.5364-10.647 22.2432-11.7564 22.2432-14.4974L22.2432-57.5405C22.2432-60.0346 23.8606-61.5544 26.4436-61.5544L31.2142-61.5544C34.3902-61.5544 36.2884-60.8708 39.0765-58.7975L40.7718-57.5159C44.0454-55.0548 46.1565-54.2735 50.9493-54.2735L84.0942-54.2735C86.6399-54.2735 87.9331-53.1526 87.9331-50.4115L87.9331-14.4859C87.9331-11.7564 86.6399-10.647 84.0942-10.647ZM26.8337-41.3116L83.3426-41.3116L83.3426-45.5497C83.3426-47.8188 82.3315-48.695 80.2231-48.695L29.9532-48.695C27.8563-48.695 26.8337-47.8188 26.8337-45.5497Z"/>
  </g>
  <g id="Bold-S" transform="matrix(1 0 0 1 2285.42 696)">
   <path d="M23.6084 1.17188L86.2061 1.17188C94.458 1.17188 99.3408-3.71094 99.3408-12.5977L99.3408-52.0264C99.3408-60.9131 94.4336-65.7715 85.498-65.7715L52.2705-65.7715C49.3652-65.7715 47.5342-66.4795 45.0928-68.335L43.1396-69.8486C40.1367-72.168 38.0371-72.9492 33.6182-72.9492L22.9248-72.9492C14.8438-72.9492 9.76562-68.0176 9.76562-59.1064L9.76562-12.5977C9.76562-3.71094 14.6729 1.17188 23.6084 1.17188ZM24.7803-9.44824C21.8994-9.44824 20.3613-10.8154 20.3613-13.8916L20.3613-57.8369C20.3613-60.7178 22.0947-62.3535 25-62.3535L30.7373-62.3535C33.6426-62.3535 35.4248-61.6699 37.8906-59.79L39.8438-58.2764C42.8467-55.957 44.9707-55.1758 49.3896-55.1758L84.3262-55.1758C87.207-55.1758 88.7451-53.7842 88.7451-50.708L88.7451-13.8672C88.7451-10.8154 87.207-9.44824 84.3262-9.44824ZM25.1709-42.4072L83.9355-42.4072L83.9355-46.1426C83.9355-48.4375 82.8857-49.3652 80.7129-49.3652L28.3936-49.3652C26.2451-49.3652 25.1709-48.4375 25.1709-46.1426Z"/>
  </g>
  <g id="Semibold-S" transform="matrix(1 0 0 1 1989.08 696)">
   <path d="M23.1019 0.709766L86.2327 0.709766C94.0048 0.709766 98.6032-3.88867 98.6032-12.5266L98.6032-51.8931C98.6032-60.531 93.9715-65.0961 85.267-65.0961L50.822-65.0961C48.1033-65.0961 46.37-65.7952 44.1419-67.5263L42.011-69.1999C39.177-71.4393 37.0773-72.2027 32.9161-72.2027L22.1339-72.2027C14.4883-72.2027 9.76562-67.6088 9.76562-58.9731L9.76562-12.5266C9.76562-3.88867 14.3974 0.709766 23.1019 0.709766ZM23.8827-8.62178C20.7708-8.62178 19.0639-10.1667 19.0639-13.4739L19.0639-58.0413C19.0639-61.1888 20.8772-62.9045 24.0047-62.9045L30.4085-62.9045C33.1271-62.9045 34.8294-62.2209 37.073-60.4743L39.2039-58.8007C42.0202-56.5791 44.1531-55.7979 48.3144-55.7979L84.4861-55.7979C87.598-55.7979 89.305-54.2196 89.305-50.9124L89.305-13.4406C89.305-10.1667 87.598-8.62178 84.4861-8.62178ZM24.0245-43.1626L84.3443-43.1626L84.3443-46.5514C84.3443-48.8641 83.2679-49.8273 81.0506-49.8273L27.3183-49.8273C25.1343-49.8273 24.0245-48.8641 24.0245-46.5514Z"/>
  </g>
  <g id="Medium-S" transform="matrix(1 0 0 1 1692.65 696)">
   <path d="M22.7178 0.359375L86.2529 0.359375C93.6611 0.359375 98.0439-4.02344 98.0439-12.4727L98.0439-51.792C98.0439-60.2412 93.6211-64.584 85.0918-64.584L49.7236-64.584C47.1465-64.584 45.4873-65.2764 43.4209-66.9131L41.1553-68.708C38.4492-70.8867 36.3496-71.6367 32.3838-71.6367L21.5342-71.6367C14.2188-71.6367 9.76562-67.2988 9.76562-58.8721L9.76562-12.4727C9.76562-4.02344 14.1885 0.359375 22.7178 0.359375ZM23.2021-7.99512C19.915-7.99512 18.0801-9.6748 18.0801-13.1572L18.0801-58.1963C18.0801-61.5459 19.9541-63.3223 23.25-63.3223L30.1592-63.3223C32.7363-63.3223 34.3779-62.6387 36.4531-60.9932L38.7188-59.1982C41.3936-57.0508 43.5332-56.2695 47.499-56.2695L84.6074-56.2695C87.8945-56.2695 89.7295-54.5498 89.7295-51.0674L89.7295-13.1172C89.7295-9.6748 87.8945-7.99512 84.6074-7.99512ZM23.1553-43.7354L84.6543-43.7354L84.6543-46.8613C84.6543-49.1875 83.5576-50.1777 81.3066-50.1777L26.5029-50.1777C24.292-50.1777 23.1553-49.1875 23.1553-46.8613Z"/>
  </g>
  <g id="Regular-S" transform="matrix(1 0 0 1 1396.3 696)">
   <path d="M22.2168-0.0976562L86.2793-0.0976562C93.2129-0.0976562 97.3145-4.19922 97.3145-12.4023L97.3145-51.6602C97.3145-59.8633 93.1641-63.916 84.8633-63.916L48.291-63.916C45.8984-63.916 44.3359-64.5996 42.4805-66.1133L40.0391-68.0664C37.5-70.166 35.4004-70.8984 31.6895-70.8984L20.752-70.8984C13.8672-70.8984 9.76562-66.8945 9.76562-58.7402L9.76562-12.4023C9.76562-4.19922 13.916-0.0976562 22.2168-0.0976562ZM22.3145-7.17773C18.7988-7.17773 16.7969-9.0332 16.7969-12.7441L16.7969-58.3984C16.7969-62.0117 18.75-63.8672 22.2656-63.8672L29.834-63.8672C32.2266-63.8672 33.7891-63.1836 35.6445-61.6699L38.0859-59.7168C40.5762-57.666 42.7246-56.8848 46.4355-56.8848L84.7656-56.8848C88.2812-56.8848 90.2832-54.9805 90.2832-51.2695L90.2832-12.6953C90.2832-9.0332 88.2812-7.17773 84.7656-7.17773ZM22.0215-44.4824L85.0586-44.4824L85.0586-47.2656C85.0586-49.6094 83.9355-50.6348 81.6406-50.6348L25.4395-50.6348C23.1934-50.6348 22.0215-49.6094 22.0215-47.2656Z"/>
  </g>
  <g id="Light-S" transform="matrix(1 0 0 1 1100.24 696)">
   <path d="M21.3994-0.74853L85.3711-0.74853C92.1382-0.74853 96.0278-4.66845 96.0278-12.2813L96.0278-51.5996C96.0278-59.2124 92.1045-63.0986 84.394-63.0986L47.5342-63.0986C44.7783-63.0986 43.2461-63.6914 41.2998-65.3716L39.0249-67.2944C36.501-69.4849 34.6436-70.1265 30.8569-70.1265L19.9497-70.1265C13.4434-70.1265 9.76562-66.501 9.76562-59.1641L9.76562-12.2813C9.76562-4.63818 13.689-0.74853 21.3994-0.74853ZM21.4971-6.20899C17.4214-6.20899 15.1924-8.33692 15.1924-12.5474L15.1924-58.8525C15.1924-62.7685 17.2212-64.73 21.0547-64.73L29.501-64.73C32.1812-64.73 33.6831-64.1221 35.6748-62.3965L37.9648-60.4736C40.3794-58.3926 42.3613-57.6719 46.1782-57.6719L84.2964-57.6719C88.3115-57.6719 90.6011-55.5102 90.6011-51.2998L90.6011-12.5137C90.6011-8.33692 88.3115-6.20899 84.2964-6.20899ZM19.5239-46.4048L86.2392-46.4048L86.2392-48.3857C86.2392-50.8506 84.9346-52.1636 82.1704-52.1636L23.5928-52.1636C20.8623-52.1636 19.5239-50.8506 19.5239-48.3857Z"/>
  </g>
  <g id="Thin-S" transform="matrix(1 0 0 1 804.376 696)">
   <path d="M20.3184-1.60936L84.1699-1.60936C90.7168-1.60936 94.3262-5.28905 94.3262-12.1211L94.3262-51.5195C94.3262-58.3516 90.7031-62.0176 83.7734-62.0176L46.5332-62.0176C43.2969-62.0176 41.8047-62.4903 39.7383-64.3906L37.6836-66.2735C35.1797-68.584 33.6426-69.1055 29.7559-69.1055L18.8887-69.1055C12.8828-69.1055 9.76562-65.9805 9.76562-59.7246L9.76562-12.1211C9.76562-5.21874 13.3887-1.60936 20.3184-1.60936ZM20.416-4.92775C15.5996-4.92775 13.0703-7.41603 13.0703-12.2871L13.0703-59.4531C13.0703-63.7695 15.1992-65.8711 19.4531-65.8711L29.0606-65.8711C32.1211-65.8711 33.543-65.3633 35.7148-63.3574L37.8047-61.4746C40.1191-59.3535 41.8809-58.7129 45.8379-58.7129L83.6758-58.7129C88.3516-58.7129 91.0215-56.2109 91.0215-51.3398L91.0215-12.2734C91.0215-7.41603 88.3516-4.92775 83.6758-4.92775ZM16.2207-48.9472L87.8008-48.9472L87.8008-49.8672C87.8008-52.4922 86.2558-54.1855 82.8711-54.1855L21.1504-54.1855C17.7793-54.1855 16.2207-52.4922 16.2207-49.8672Z"/>
  </g>
  <g id="Ultralight-S" transform="matrix(1 0 0 1 508.101 696)">
   <path d="M19.7647-2.05028L83.5547-2.05028C89.9888-2.05028 93.4546-5.60692 93.4546-12.0391L93.4546-51.4785C93.4546-57.9107 89.9854-61.4639 83.4556-61.4639L46.0205-61.4639C42.5381-61.4639 41.0664-61.875 38.9385-63.8882L36.9966-65.7505C34.503-68.1226 33.1299-68.5825 29.1919-68.5825L18.3452-68.5825C12.5957-68.5825 9.76562-65.7139 9.76562-60.0117L9.76562-12.0391C9.76562-5.5161 13.2349-2.05028 19.7647-2.05028ZM19.8623-4.27151C14.6665-4.27151 11.9834-6.94435 11.9834-12.1538L11.9834-59.7607C11.9834-64.2822 14.1636-66.4555 18.6328-66.4555L28.835-66.4555C32.0903-66.4555 33.4712-65.999 35.7354-63.8496L37.7227-61.9873C39.9858-59.8457 41.6348-59.2461 45.6636-59.2461L83.3579-59.2461C88.3721-59.2461 91.2368-56.5698 91.2368-51.3604L91.2368-12.1504C91.2368-6.94435 88.3721-4.27151 83.3579-4.27151ZM14.5289-50.2495L88.6006-50.2495L88.6006-50.626C88.6006-53.333 86.9326-55.2212 83.23-55.2212L19.8995-55.2212C16.2003-55.2212 14.5289-53.333 14.5289-50.626Z"/>
  </g>
 </g>
</svg>
