<?xml version="1.0" encoding="UTF-8"?>
<!--Generator: Apple Native CoreSVG 341-->
<!DOCTYPE svg
PUBLIC "-//W3C//DTD SVG 1.1//EN"
       "http://www.w3.org/Graphics/SVG/1.1/DTD/svg11.dtd">
<svg version="1.1" xmlns="http://www.w3.org/2000/svg" xmlns:xlink="http://www.w3.org/1999/xlink" viewBox="0 0 3300 2200">
 <g id="Notes">
  <rect height="2200" id="artboard" style="fill:white;opacity:1" width="3300" x="0" y="0"/>
  <line style="fill:none;stroke:black;opacity:1;stroke-width:0.5;" x1="263" x2="3036" y1="292" y2="292"/>
  <text style="stroke:none;fill:black;font-family:sans-serif;font-size:13;font-weight:bold;" transform="matrix(1 0 0 1 263 322)">Weight/Scale Variations</text>
  <text style="stroke:none;fill:black;font-family:sans-serif;font-size:13;text-anchor:middle;" transform="matrix(1 0 0 1 559.711 322)">Ultralight</text>
  <text style="stroke:none;fill:black;font-family:sans-serif;font-size:13;text-anchor:middle;" transform="matrix(1 0 0 1 856.422 322)">Thin</text>
  <text style="stroke:none;fill:black;font-family:sans-serif;font-size:13;text-anchor:middle;" transform="matrix(1 0 0 1 1153.13 322)">Light</text>
  <text style="stroke:none;fill:black;font-family:sans-serif;font-size:13;text-anchor:middle;" transform="matrix(1 0 0 1 1449.84 322)">Regular</text>
  <text style="stroke:none;fill:black;font-family:sans-serif;font-size:13;text-anchor:middle;" transform="matrix(1 0 0 1 1746.56 322)">Medium</text>
  <text style="stroke:none;fill:black;font-family:sans-serif;font-size:13;text-anchor:middle;" transform="matrix(1 0 0 1 2043.27 322)">Semibold</text>
  <text style="stroke:none;fill:black;font-family:sans-serif;font-size:13;text-anchor:middle;" transform="matrix(1 0 0 1 2339.98 322)">Bold</text>
  <text style="stroke:none;fill:black;font-family:sans-serif;font-size:13;text-anchor:middle;" transform="matrix(1 0 0 1 2636.69 322)">Heavy</text>
  <text style="stroke:none;fill:black;font-family:sans-serif;font-size:13;text-anchor:middle;" transform="matrix(1 0 0 1 2933.4 322)">Black</text>
  <line style="fill:none;stroke:black;opacity:1;stroke-width:0.5;" x1="263" x2="3036" y1="1903" y2="1903"/>
  <g transform="matrix(0.2 0 0 0.2 263 1933)">
   <path d="m46.2402 4.15039c21.7773 0 39.4531-17.627 39.4531-39.4043s-17.6758-39.4043-39.4531-39.4043c-21.7285 0-39.4043 17.627-39.4043 39.4043s17.6758 39.4043 39.4043 39.4043Zm0-7.42188c-17.6758 0-31.9336-14.3066-31.9336-31.9824s14.2578-31.9824 31.9336-31.9824 31.9824 14.3066 31.9824 31.9824-14.3066 31.9824-31.9824 31.9824Zm3.61328-17.7734v-28.4668c0-2.24609-1.46484-3.75977-3.71094-3.75977-2.14844 0-3.61328 1.51367-3.61328 3.75977v28.4668c0 2.19727 1.46484 3.71094 3.61328 3.71094 2.24609 0 3.71094-1.51367 3.71094-3.71094Zm-17.8223-10.5957h28.418c2.19727 0 3.71094-1.46484 3.71094-3.61328 0-2.19727-1.51367-3.71094-3.71094-3.71094h-28.418c-2.24609 0-3.75977 1.51367-3.75977 3.71094 0 2.14844 1.51367 3.61328 3.75977 3.61328Z"/>
  </g>
  <g transform="matrix(0.2 0 0 0.2 281.506 1933)">
   <path d="m58.5449 14.5508c27.4902 0 49.8047-22.3145 49.8047-49.8047s-22.3145-49.8047-49.8047-49.8047-49.8047 22.3145-49.8047 49.8047 22.3145 49.8047 49.8047 49.8047Zm0-8.30078c-22.9492 0-41.5039-18.5547-41.5039-41.5039s18.5547-41.5039 41.5039-41.5039 41.5039 18.5547 41.5039 41.5039-18.5547 41.5039-41.5039 41.5039Zm4.05273-23.0957v-36.9141c0-2.49023-1.70898-4.19922-4.15039-4.19922-2.39258 0-4.05273 1.70898-4.05273 4.19922v36.9141c0 2.44141 1.66016 4.15039 4.05273 4.15039 2.44141 0 4.15039-1.66016 4.15039-4.15039Zm-22.5586-14.4043h36.9629c2.44141 0 4.15039-1.61133 4.15039-4.00391 0-2.44141-1.70898-4.15039-4.15039-4.15039h-36.9629c-2.49023 0-4.15039 1.70898-4.15039 4.15039 0 2.39258 1.66016 4.00391 4.15039 4.00391Z"/>
  </g>
  <g transform="matrix(0.2 0 0 0.2 304.924 1933)">
   <path d="m74.8535 28.3203c35.1074 0 63.623-28.4668 63.623-63.5742s-28.5156-63.623-63.623-63.623-63.5742 28.5156-63.5742 63.623 28.4668 63.5742 63.5742 63.5742Zm0-9.08203c-30.127 0-54.4922-24.3652-54.4922-54.4922s24.3652-54.4922 54.4922-54.4922 54.4922 24.3652 54.4922 54.4922-24.3652 54.4922-54.4922 54.4922Zm4.44336-30.3223v-48.4863c0-2.73438-1.85547-4.63867-4.54102-4.63867-2.58789 0-4.44336 1.9043-4.44336 4.63867v48.4863c0 2.68555 1.85547 4.58984 4.44336 4.58984 2.68555 0 4.54102-1.85547 4.54102-4.58984Zm-28.7109-19.7754h48.4863c2.68555 0 4.58984-1.80664 4.58984-4.39453 0-2.73438-1.85547-4.58984-4.58984-4.58984h-48.4863c-2.73438 0-4.58984 1.85547-4.58984 4.58984 0 2.58789 1.85547 4.39453 4.58984 4.39453Z"/>
  </g>
  <text style="stroke:none;fill:black;font-family:sans-serif;font-size:13;font-weight:bold;" transform="matrix(1 0 0 1 263 1953)">Design Variations</text>
  <text style="stroke:none;fill:black;font-family:sans-serif;font-size:13;" transform="matrix(1 0 0 1 263 1971)">Symbols are supported in up to nine weights and three scales.</text>
  <text style="stroke:none;fill:black;font-family:sans-serif;font-size:13;" transform="matrix(1 0 0 1 263 1989)">For optimal layout with text and other symbols, vertically align</text>
  <text style="stroke:none;fill:black;font-family:sans-serif;font-size:13;" transform="matrix(1 0 0 1 263 2007)">symbols with the adjacent text.</text>
  <line style="fill:none;stroke:#00AEEF;stroke-width:0.5;opacity:1.0;" x1="776" x2="776" y1="1919" y2="1933"/>
  <g transform="matrix(0.2 0 0 0.2 776 1933)">
   <path d="m16.5527 0.78125c2.58789 0 3.85742-0.976562 4.78516-3.71094l20.5566-57.5195h0.244141l20.6055 57.5195c0.927734 2.73438 2.19727 3.71094 4.73633 3.71094 2.58789 0 4.24805-1.5625 4.24805-4.00391 0-0.830078-0.146484-1.61133-0.537109-2.63672l-22.9004-60.9863c-1.12305-2.97852-3.125-4.49219-6.25-4.49219-3.02734 0-5.07812 1.46484-6.15234 4.44336l-22.9004 61.084c-0.390625 1.02539-0.537109 1.80664-0.537109 2.63672 0 2.44141 1.5625 3.95508 4.10156 3.95508Zm10.2051-20.9473h30.6641c2.00195 0 3.66211-1.66016 3.66211-3.66211 0-2.05078-1.66016-3.66211-3.66211-3.66211h-30.6641c-2.00195 0-3.66211 1.61133-3.66211 3.66211 0 2.00195 1.66016 3.66211 3.66211 3.66211Z"/>
  </g>
  <line style="fill:none;stroke:#00AEEF;stroke-width:0.5;opacity:1.0;" x1="792.836" x2="792.836" y1="1919" y2="1933"/>
  <text style="stroke:none;fill:black;font-family:sans-serif;font-size:13;font-weight:bold;" transform="matrix(1 0 0 1 776 1953)">Margins</text>
  <text style="stroke:none;fill:black;font-family:sans-serif;font-size:13;" transform="matrix(1 0 0 1 776 1971)">Leading and trailing margins on the left and right side of each symbol</text>
  <text style="stroke:none;fill:black;font-family:sans-serif;font-size:13;" transform="matrix(1 0 0 1 776 1989)">can be adjusted by modifying the x-location of the margin guidelines.</text>
  <text style="stroke:none;fill:black;font-family:sans-serif;font-size:13;" transform="matrix(1 0 0 1 776 2007)">Modifications are automatically applied proportionally to all</text>
  <text style="stroke:none;fill:black;font-family:sans-serif;font-size:13;" transform="matrix(1 0 0 1 776 2025)">scales and weights.</text>
  <g transform="matrix(0.2 0 0 0.2 1289 1933)">
   <path d="m14.209 13.1348 7.86133 7.86133c4.29688 4.39453 9.32617 4.10156 13.8672-1.02539l60.6934-68.2129-4.88281-4.88281-60.2539 67.6758c-1.80664 1.95312-3.4668 2.44141-5.81055 0.0976562l-5.17578-5.12695c-2.29492-2.29492-1.80664-3.95508 0.195312-5.81055l67.4805-62.1582-4.88281-4.83398-68.0664 62.5977c-4.98047 4.58984-5.32227 9.47266-1.02539 13.8184Zm44.873-97.4609c-2.05078 2.00195-2.24609 4.88281-1.07422 6.78711 1.12305 1.80664 3.4668 3.02734 6.5918 2.24609 5.85938-1.66016 12.5977-2.39258 18.8965 0.927734l-2.68555 7.12891c-1.61133 4.00391-0.732422 6.88477 1.70898 9.42383l10.2539 10.3027c2.34375 2.39258 4.54102 2.44141 7.08008 1.95312l4.44336-0.732422 2.58789 2.53906-0.195312 2.24609c-0.0976562 2.29492 0.537109 4.29688 2.7832 6.49414l3.36914 3.32031c2.29492 2.29492 5.51758 2.49023 7.8125 0.195312l12.9883-13.0371c2.29492-2.34375 2.14844-5.37109-0.195312-7.66602l-3.41797-3.41797c-2.19727-2.19727-4.05273-3.02734-6.34766-2.88086l-2.34375 0.244141-2.44141-2.44141 1.02539-4.6875c0.634766-2.73438-0.244141-4.98047-2.88086-7.61719l-11.2793-11.1816c-12.9395-12.8418-35.5957-11.0352-46.6797-0.146484Zm7.08008 2.05078c8.78906-6.39648 25.9766-5.66406 33.6914 1.95312l12.3047 12.207c1.02539 1.02539 1.2207 1.80664 0.927734 3.32031l-1.46484 6.64062 6.73828 6.68945 4.39453-0.244141c1.12305-0.0488281 1.51367 0.0488281 2.34375 0.878906l2.53906 2.49023-10.8398 10.8398-2.49023-2.49023c-0.830078-0.878906-0.976562-1.2207-0.927734-2.39258l0.292969-4.3457-6.68945-6.73828-6.83594 1.17188c-1.41602 0.292969-2.05078 0.195312-3.17383-0.878906l-8.93555-8.88672c-1.07422-1.02539-1.17188-1.70898-0.488281-3.36914l4.58984-11.4746c-6.10352-6.34766-17.041-7.51953-25.5859-4.58984-0.683594 0.244141-0.927734-0.390625-0.390625-0.78125Z"/>
  </g>
  <text style="stroke:none;fill:black;font-family:sans-serif;font-size:13;font-weight:bold;" transform="matrix(1 0 0 1 1289 1953)">Exporting</text>
  <text style="stroke:none;fill:black;font-family:sans-serif;font-size:13;" transform="matrix(1 0 0 1 1289 1971)">Symbols should be outlined when exporting to ensure the</text>
  <text style="stroke:none;fill:black;font-family:sans-serif;font-size:13;" transform="matrix(1 0 0 1 1289 1989)">design is preserved when submitting to Xcode.</text>
  <text id="template-version" style="stroke:none;fill:black;font-family:sans-serif;font-size:13;text-anchor:end;" transform="matrix(1 0 0 1 3036 1933)">Template v.2.0</text>
  <text style="stroke:none;fill:black;font-family:sans-serif;font-size:13;text-anchor:end;" transform="matrix(1 0 0 1 3036 1951)">Requires Xcode 12 or greater</text>
  <text id="descriptive-name" style="stroke:none;fill:black;font-family:sans-serif;font-size:13;text-anchor:end;" transform="matrix(1 0 0 1 3036 1969)">Generated from checkmark</text>
  <text style="stroke:none;fill:black;font-family:sans-serif;font-size:13;text-anchor:end;" transform="matrix(1 0 0 1 3036 1987)">Typeset at 100.0 points</text>
  <text style="stroke:none;fill:black;font-family:sans-serif;font-size:13;" transform="matrix(1 0 0 1 263 726)">Small</text>
  <text style="stroke:none;fill:black;font-family:sans-serif;font-size:13;" transform="matrix(1 0 0 1 263 1156)">Medium</text>
  <text style="stroke:none;fill:black;font-family:sans-serif;font-size:13;" transform="matrix(1 0 0 1 263 1586)">Large</text>
 </g>
 <g id="Guides">
  <g id="H-reference" style="fill:#27AAE1;stroke:none;" transform="matrix(1 0 0 1 339 696)">
   <path d="M0.993654 0L3.63775 0L29.3281-67.1323L30.0303-67.1323L30.0303-70.459L28.1226-70.459ZM11.6885-24.4799L46.9815-24.4799L46.2315-26.7285L12.4385-26.7285ZM55.1196 0L57.7637 0L30.6382-70.459L29.4326-70.459L29.4326-67.1323Z"/>
  </g>
  <line id="Baseline-S" style="fill:none;stroke:#27AAE1;opacity:1;stroke-width:0.5;" x1="263" x2="3036" y1="696" y2="696"/>
  <line id="Capline-S" style="fill:none;stroke:#27AAE1;opacity:1;stroke-width:0.5;" x1="263" x2="3036" y1="625.541" y2="625.541"/>
  <g id="H-reference" style="fill:#27AAE1;stroke:none;" transform="matrix(1 0 0 1 339 1126)">
   <path d="M0.993654 0L3.63775 0L29.3281-67.1323L30.0303-67.1323L30.0303-70.459L28.1226-70.459ZM11.6885-24.4799L46.9815-24.4799L46.2315-26.7285L12.4385-26.7285ZM55.1196 0L57.7637 0L30.6382-70.459L29.4326-70.459L29.4326-67.1323Z"/>
  </g>
  <line id="Baseline-M" style="fill:none;stroke:#27AAE1;opacity:1;stroke-width:0.5;" x1="263" x2="3036" y1="1126" y2="1126"/>
  <line id="Capline-M" style="fill:none;stroke:#27AAE1;opacity:1;stroke-width:0.5;" x1="263" x2="3036" y1="1055.54" y2="1055.54"/>
  <g id="H-reference" style="fill:#27AAE1;stroke:none;" transform="matrix(1 0 0 1 339 1556)">
   <path d="M0.993654 0L3.63775 0L29.3281-67.1323L30.0303-67.1323L30.0303-70.459L28.1226-70.459ZM11.6885-24.4799L46.9815-24.4799L46.2315-26.7285L12.4385-26.7285ZM55.1196 0L57.7637 0L30.6382-70.459L29.4326-70.459L29.4326-67.1323Z"/>
  </g>
  <line id="Baseline-L" style="fill:none;stroke:#27AAE1;opacity:1;stroke-width:0.5;" x1="263" x2="3036" y1="1556" y2="1556"/>
  <line id="Capline-L" style="fill:none;stroke:#27AAE1;opacity:1;stroke-width:0.5;" x1="263" x2="3036" y1="1485.54" y2="1485.54"/>
  <line id="right-margin" style="fill:none;stroke:#00AEEF;stroke-width:0.5;opacity:1.0;" x1="1504.36" x2="1504.36" y1="1030.79" y2="1150.12"/>
  <line id="left-margin" style="fill:none;stroke:#00AEEF;stroke-width:0.5;opacity:1.0;" x1="1395.33" x2="1395.33" y1="1030.79" y2="1150.12"/>
 </g>
 <g id="Symbols">
  <g id="Black-L" transform="matrix(1 0 0 1 2856.81 1556)">
   <path d="M64.0628 22.894C69.3219 22.894 73.418 20.9595 76.217 16.7998L134.278-70.5775C136.272-73.5218 137.099-76.474 137.099-79.1342C137.099-86.4753 131.4-91.9624 123.804-91.9624C118.666-91.9624 115.382-90.132 112.233-85.191L63.8031-9.19681L39.5173-38.2096C36.7559-41.432 33.6052-42.9327 29.2875-42.9327C21.6907-42.9327 16.084-37.4052 16.084-29.9849C16.084-26.6214 17.033-23.8588 19.9044-20.5913L52.3681 17.5758C55.5281 21.2539 59.2697 22.894 64.0628 22.894Z" data-clipstroke-keyframes="0 0 0 0.7349537 0.83901983 0 0.22352235 0.91995233 0.6525843 0 0.42042473 0.08607321 0.62538487 0 1 0.29677442 0.4130392"/>
  </g>
  <g id="Heavy-L" transform="matrix(1 0 0 1 2561.67 1556)">
   <path d="M62.2724 22.1856C66.8802 22.1856 70.4711 20.4508 72.9425 16.7638L131.443-72.209C133.228-74.8626 133.95-77.4321 133.95-79.7785C133.95-86.1385 129.096-90.8442 122.527-90.8442C118.055-90.8442 115.236-89.2603 112.503-84.9573L62.0122-5.47967L36.5028-36.6347C34.0459-39.5675 31.3011-40.9138 27.4935-40.9138C20.9192-40.9138 16.084-36.1534 16.084-29.7186C16.084-26.8255 16.947-24.3629 19.4069-21.5289L51.8965 17.3281C54.7388 20.6852 58.016 22.1856 62.2724 22.1856Z" data-clipstroke-keyframes="0 0 0 0.7468592 0.83898324 0 0.23757811 0.9291727 0.65580136 0 0.40854958 0.07612987 0.6308327 0 1 0.30081066 0.40457907"/>
  </g>
  <g id="Bold-L" transform="matrix(1 0 0 1 2266.91 1556)">
   <path d="M59.9699 21.1978C63.7634 21.1978 66.7169 19.7239 68.7737 16.6432L127.939-74.3044C129.455-76.582 130.046-78.6752 130.046-80.6223C130.046-85.7831 126.2-89.5504 120.885-89.5504C117.234-89.5504 114.978-88.2664 112.759-84.7549L59.7171-1.11541L32.7908-34.5116C30.7253-37.0535 28.4801-38.2003 25.3101-38.2003C19.9812-38.2003 16.084-34.3703 16.084-29.1422C16.084-26.8182 16.832-24.7394 18.7996-22.4358L51.2753 16.9761C53.7032 19.8963 56.3967 21.1978 59.9699 21.1978Z" data-clipstroke-keyframes="0 0 0 0.7625041 0.8395568 0 0.2521653 0.940559 0.66115874 0 0.39382917 0.064047396 0.63869256 0 1 0.30652443 0.39482504"/>
  </g>
  <g id="Semibold-L" transform="matrix(1 0 0 1 1971.55 1556)">
   <path d="M58.3825 20.5168C61.6147 20.5168 64.1288 19.2227 65.8997 16.5601L125.523-75.749C126.854-77.7674 127.356-79.5321 127.356-81.204C127.356-85.5381 124.204-88.6585 119.752-88.6585C116.669-88.6585 114.799-87.5812 112.935-84.6153L58.1349 1.89329L30.2318-33.048C28.4361-35.3204 26.5353-36.3296 23.8048-36.3296C19.3346-36.3296 16.084-33.141 16.084-28.7449C16.084-26.8132 16.7527-24.999 18.381-23.0611L50.847 16.7333C52.9893 19.3525 55.2804 20.5168 58.3825 20.5168Z" data-clipstroke-keyframes="0 0 0 0.7739019 0.8399538 0 0.26222157 0.948743 0.66494584 0 0.383681 0.05525027 0.6445626 0 1 0.31068364 0.38800415"/>
  </g>
  <g id="Medium-L" transform="matrix(1 0 0 1 1675.86 1556)">
   <path d="M57.1789 20.0005C59.9855 20.0005 62.1663 18.8427 63.7205 16.497L123.691-76.8443C124.882-78.6661 125.315-80.1819 125.315-81.6451C125.315-85.3524 122.691-87.9822 118.894-87.9822C116.24-87.9822 114.664-87.0617 113.069-84.5094L56.9351 4.17461L28.2914-31.9382C26.7003-34.0063 25.0606-34.9112 22.6635-34.9112C18.8443-34.9112 16.084-32.2089 16.084-28.4437C16.084-26.8094 16.6926-25.1959 18.0635-23.5351L50.5222 16.5493C52.448 18.9402 54.434 20.0005 57.1789 20.0005Z" data-clipstroke-keyframes="0 0 0 0.782799 0.840173 0 0.26984668 0.9551249 0.6677306 0 0.37598625 0.048328105 0.6491245 0 1 0.31408268 0.3825254"/>
  </g>
  <g id="Regular-L" transform="matrix(1 0 0 1 1380.48 1556)">
   <path d="M55.609 19.327C57.8604 19.327 59.6066 18.347 60.8781 16.4148L121.302-78.273C122.309-79.8384 122.654-81.0294 122.654-82.2204C122.654-85.11 120.716-87.1001 117.774-87.1001C115.681-87.1001 114.487-86.384 113.244-84.3714L55.3703 7.15024L25.7605-30.4906C24.4363-32.2922 23.1372-33.0611 21.1748-33.0611C18.2047-33.0611 16.084-30.9931 16.084-28.0507C16.084-26.8044 16.6142-25.4526 17.6494-24.1535L50.0987 16.3093C51.742 18.4024 53.33 19.327 55.609 19.327Z" data-clipstroke-keyframes="0 0 0 0.79436386 0.8406735 0 0.2797925 0.96377206 0.67108494 0 0.3659496 0.03886712 0.6550994 0 1 0.3182405 0.3753562"/>
  </g>
  <g id="Light-L" transform="matrix(1 0 0 1 1085.12 1556)">
   <path d="M53.4714 17.9338C55.1121 17.9338 56.3431 17.221 57.2709 15.8422L118.935-80.2006C119.695-81.4034 119.944-82.2509 119.944-83.0983C119.944-85.2627 118.445-86.7948 116.247-86.7948C114.708-86.7948 113.8-86.2504 112.919-84.7912L53.29 8.61981L23.3366-27.9141C22.3751-29.2385 21.4004-29.8166 19.9151-29.8166C17.6703-29.8166 16.084-28.2639 16.084-26.0659C16.084-25.1249 16.4806-24.1166 17.2868-23.142L49.4307 15.7749C50.6541 17.3145 51.7841 17.9338 53.4714 17.9338Z" data-clipstroke-keyframes="0 0 0 0.8098581 0.8453441 0 0.27169052 0.9685222 0.6867714 0 0.3557079 0.035062216 0.6657781 0 1 0.32729962 0.37316972"/>
  </g>
  <g id="Thin-L" transform="matrix(1 0 0 1 790.201 1556)">
   <path d="M50.6444 16.0911C51.4773 16.0911 52.0267 15.7317 52.5002 15.085L115.805-82.75C116.237-83.4732 116.359-83.8664 116.359-84.2595C116.359-85.4647 115.441-86.3909 114.228-86.3909C113.42-86.3909 112.892-86.0737 112.49-85.3466L50.5386 10.5634L20.1309-24.5064C19.6489-25.1999 19.1034-25.5255 18.2492-25.5255C16.9636-25.5255 16.084-24.6543 16.084-23.4407C16.084-22.9036 16.3039-22.3497 16.8072-21.8042L48.5472 15.0681C49.2153 15.8757 49.7395 16.0911 50.6444 16.0911Z" data-clipstroke-keyframes="0 0 0 0.8308083 0.8515281 0 0.26097503 0.9745147 0.70791274 0 0.3421625 0.030437024 0.67976123 0 1 0.34020808 0.3697666"/>
  </g>
  <g id="Ultralight-L" transform="matrix(1 0 0 1 494.407 1556)">
   <path d="M49.1963 15.1473C49.6155 15.1473 49.8159 14.9689 50.0567 14.6971L114.202-84.0558C114.465-84.5334 114.523-84.6938 114.523-84.8542C114.523-85.5681 113.903-86.1841 113.194-86.1841C112.761-86.1841 112.426-85.9832 112.27-85.631L49.1294 11.5589L18.489-22.7611C18.2526-23.1313 17.9269-23.3276 17.3959-23.3276C16.6016-23.3276 16.084-22.8055 16.084-22.0961C16.084-21.7659 16.2134-21.4447 16.5616-21.1189L48.0947 14.7061C48.4784 15.1388 48.6923 15.1473 49.1963 15.1473Z" data-clipstroke-keyframes="0 0 0 0.8426078 0.8547946 0 0.2554866 0.9777346 0.71959937 0 0.33522457 0.027946351 0.68748885 0 1 0.34740534 0.3679531"/>
  </g>
  <g id="Black-M" transform="matrix(1 0 0 1 2872.89 1126)">
   <path d="M50.8812 10.2212C55.4327 10.2212 58.9705 8.58711 61.374 5.03313L106.148-61.4741C107.839-63.9559 108.556-66.5255 108.556-68.8096C108.556-75.242 103.473-80.1025 96.8067-80.1025C92.3288-80.1025 89.4226-78.4959 86.6762-74.1945L50.6882-18.0564L32.878-38.5427C30.5261-41.2235 27.7803-42.4931 24.0613-42.4931C17.3954-42.4931 12.4609-37.6212 12.4609-31.1263C12.4609-28.1576 13.252-25.8059 15.7991-22.9459L40.8866 5.8215C43.5509 8.87203 46.7867 10.2212 50.8812 10.2212Z" data-clipstroke-keyframes="0 0 0 0.7240497 0.83966666 0 0.20651323 0.910806 0.65084225 0 0.43180692 0.096373595 0.62106574 0 1 0.2938085 0.4218925"/>
  </g>
  <g id="Heavy-M" transform="matrix(1 0 0 1 2577.59 1126)">
   <path d="M49.3282 9.65727C53.2993 9.65727 56.3908 8.19371 58.5057 5.05075L103.594-62.8912C105.103-65.1222 105.727-67.3494 105.727-69.3584C105.727-74.8986 101.43-79.0376 95.6993-79.0376C91.8211-79.0376 89.3441-77.656 86.9696-73.9273L49.1294-14.5582L30.1548-37.2409C28.067-39.6825 25.6881-40.8187 22.4238-40.8187C16.6905-40.8187 12.4609-36.6492 12.4609-31.049C12.4609-28.512 13.1802-26.4219 15.3463-23.9557L40.4872 5.62864C42.8796 8.41637 45.7038 9.65727 49.3282 9.65727Z" data-clipstroke-keyframes="0 0 0 0.73741066 0.83922756 0 0.22521353 0.9215382 0.65382093 0 0.4180424 0.084508725 0.62670356 0 1 0.29780388 0.4117223"/>
  </g>
  <g id="Bold-M" transform="matrix(1 0 0 1 2282.47 1126)">
   <path d="M47.5909 9.02642C50.9128 9.02642 53.505 7.75364 55.2972 5.07046L100.737-64.4764C102.043-66.427 102.563-68.271 102.563-69.9723C102.563-74.5145 99.1456-77.8462 94.4606-77.8462C91.2531-77.8462 89.2562-76.7165 87.2978-73.6285L47.3857-10.645L27.1085-35.7845C25.3162-37.9587 23.3477-38.9457 20.592-38.9457C15.9019-38.9457 12.4609-35.5619 12.4609-30.9626C12.4609-28.9084 13.0999-27.1111 14.8398-25.0854L40.0404 5.41289C42.1287 7.90665 44.4923 9.02642 47.5909 9.02642Z" data-clipstroke-keyframes="0 0 0 0.75280744 0.83869165 0 0.2461325 0.9342775 0.65652394 0 0.4026448 0.07043389 0.63337463 0 1 0.30247205 0.39990917"/>
  </g>
  <g id="Semibold-M" transform="matrix(1 0 0 1 1986.85 1126)">
   <path d="M46.3933 8.59152C49.2676 8.59152 51.5156 7.45025 53.0852 5.08405L98.7675-65.5692C99.934-67.3265 100.381-68.9064 100.381-70.3956C100.381-74.2497 97.5704-77.0249 93.6066-77.0249C90.8616-77.0249 89.1956-76.0688 87.5241-73.4225L46.1836-7.94723L25.0084-34.7805C23.4198-36.7704 21.7342-37.6545 19.3292-37.6545C15.3583-37.6545 12.4609-34.8123 12.4609-30.903C12.4609-29.1817 13.0446-27.5861 14.4905-25.8642L39.7324 5.26415C41.6111 7.55525 43.6572 8.59152 46.3933 8.59152Z" data-clipstroke-keyframes="0 0 0 0.7637855 0.8383428 0 0.26055393 0.9435532 0.65808946 0 0.3920298 0.06019295 0.6383237 0 1 0.30572328 0.39167437"/>
  </g>
  <g id="Medium-M" transform="matrix(1 0 0 1 1690.96 1126)">
   <path d="M45.4852 8.26176C48.0201 8.26176 50.0071 7.22021 51.408 5.09435L97.2741-66.3978C98.3345-68.0085 98.727-69.3882 98.727-70.7165C98.727-74.0489 96.3761-76.4022 92.9591-76.4022C90.5647-76.4022 89.1496-75.5777 87.6957-73.2662L45.2721-5.90168L23.416-34.0193C21.9819-35.8693 20.5108-36.6755 18.3717-36.6755C14.9461-36.6755 12.4609-34.244 12.4609-30.8578C12.4609-29.389 13.0026-27.9464 14.2258-26.4547L39.4988 5.15138C41.2186 7.2888 43.0239 8.26176 45.4852 8.26176Z" data-clipstroke-keyframes="0 0 0 0.77238095 0.83797264 0 0.27148882 0.9508221 0.6590883 0 0.38398108 0.05216982 0.6422404 0 1 0.3084524 0.38514537"/>
  </g>
  <g id="Regular-M" transform="matrix(1 0 0 1 1395.33 1126)">
   <path d="M44.3007 7.83163C46.393 7.83163 48.0395 6.92016 49.2203 5.10779L95.3262-67.4786C96.2483-68.8981 96.5693-70.0166 96.5693-71.1351C96.5693-73.787 94.8183-75.5899 92.1145-75.5899C90.1775-75.5899 89.0897-74.9372 87.9195-73.0625L44.0831-3.23357L21.3389-33.0263C20.1064-34.694 18.9151-35.3984 17.1228-35.3984C14.4085-35.3984 12.4609-33.5026 12.4609-30.7989C12.4609-29.6593 12.9478-28.4162 13.8804-27.2249L39.1942 5.00428C40.7066 6.94127 42.1979 7.83163 44.3007 7.83163Z" data-clipstroke-keyframes="0 0 0 0.78395444 0.8375776 0 0.28575176 0.9607074 0.66031873 0 0.3734827 0.041264314 0.6477806 0 1 0.3118552 0.3768768"/>
  </g>
  <g id="Light-M" transform="matrix(1 0 0 1 1099.83 1126)">
   <path d="M42.3843 6.58253C43.929 6.58253 45.1136 5.91062 45.9863 4.59446L93.2045-69.2068C93.9041-70.3012 94.1396-71.1117 94.1396-71.9222C94.1396-73.9239 92.7821-75.3161 90.7456-75.3161C89.3049-75.3161 88.4737-74.8174 87.6286-73.4389L42.218-1.91602L19.1658-30.7163C18.2584-31.9562 17.358-32.4896 15.9935-32.4896C13.9294-32.4896 12.4609-31.0558 12.4609-29.0193C12.4609-28.1535 12.828-27.2184 13.5553-26.318L38.5953 4.52517C39.7313 5.96594 40.8119 6.58253 42.3843 6.58253Z" data-clipstroke-keyframes="0 0 0 0.80079764 0.8423585 0 0.27637595 0.9655513 0.67757475 0 0.36163077 0.03696437 0.65951353 0 1 0.32180756 0.37428874"/>
  </g>
  <g id="Thin-M" transform="matrix(1 0 0 1 804.729 1126)">
   <path d="M39.8497 4.9305C40.6702 4.9305 41.2437 4.57541 41.7092 3.91554L90.3983-71.4925C90.8037-72.1569 90.926-72.56 90.926-72.9632C90.926-74.105 90.089-74.954 88.9352-74.954C88.1507-74.954 87.659-74.659 87.2439-73.9368L39.7513-0.173468L16.2917-27.6612C15.8143-28.3353 15.2986-28.6424 14.4998-28.6424C13.2957-28.6424 12.4609-27.8196 12.4609-26.6658C12.4609-26.162 12.6696-25.6343 13.1253-25.1186L37.8032 3.89152C38.4413 4.676 38.9788 4.9305 39.8497 4.9305Z" data-clipstroke-keyframes="0 0 0 0.8247433 0.84972364 0 0.2639757 0.9727888 0.70180976 0 0.34595564 0.03177223 0.6757276 0 1 0.33655024 0.3706667"/>
  </g>
  <g id="Ultralight-M" transform="matrix(1 0 0 1 508.841 1126)">
   <path d="M38.5514 4.08433C39.001 4.08433 39.2616 3.89153 39.5184 3.5678L88.961-72.6633C89.2157-73.1074 89.2801-73.3019 89.2801-73.4964C89.2801-74.1977 88.7096-74.7685 88.0079-74.7685C87.5595-74.7685 87.2417-74.5778 87.0468-74.1918L38.4879 0.719061L14.8197-26.0964C14.5624-26.4807 14.2438-26.6718 13.7348-26.6718C12.9712-26.6718 12.4609-26.162 12.4609-25.4603C12.4609-25.142 12.5885-24.8229 12.9051-24.5042L37.3975 3.56696C37.7806 4.0153 38.0399 4.08433 38.5514 4.08433Z" data-clipstroke-keyframes="0 0 0 0.8381729 0.8534168 0 0.25762436 0.97645354 0.7151433 0 0.3379269 0.028946511 0.68457955 0 1 0.34478414 0.3686018"/>
  </g>
  <g id="Black-S" transform="matrix(1 0 0 1 2885.62 696)">
   <path d="M40.2344 0.488281C43.9453 0.488281 46.8262-0.830078 48.7793-3.71094L83.8379-55.4688C85.2051-57.4707 85.791-59.5703 85.791-61.4258C85.791-66.6992 81.5918-70.7031 76.123-70.7031C72.4609-70.7031 70.0684-69.3848 67.8223-65.8691L40.0879-22.7539L26.4648-38.0859C24.5605-40.2344 22.3145-41.2598 19.2871-41.2598C13.8184-41.2598 9.76562-37.2559 9.76562-31.9336C9.76562-29.4922 10.4004-27.5879 12.5-25.2441L32.1289-3.02734C34.2773-0.585938 36.9141 0.488281 40.2344 0.488281Z" data-clipstroke-keyframes="0 0 0 0.71994317 0.8401453 0 0.19858848 0.9071264 0.65062773 0 0.43624663 0.100715175 0.6197119 0 1 0.29293206 0.42569038"/>
  </g>
  <g id="Heavy-S" transform="matrix(1 0 0 1 2589.97 696)">
   <path d="M39.1511 0.165596C42.4356 0.165596 44.9938-1.03752 46.7395-3.63027L81.9248-56.4599C83.1652-58.2889 83.682-60.135 83.682-61.7946C83.682-66.3881 80.1051-69.8273 75.3509-69.8273C72.1383-69.8273 70.0799-68.6818 68.1104-65.5926L38.9931-19.9304L24.4135-37.2677C22.6936-39.2663 20.7241-40.1995 18.0309-40.1995C13.2767-40.1995 9.76562-36.7373 9.76562-32.0949C9.76562-29.9877 10.3543-28.2678 12.1543-26.2237L31.8638-3.13106C33.8279-0.851 36.165 0.165596 39.1511 0.165596Z" data-clipstroke-keyframes="0 0 0 0.7322344 0.8389779 0 0.22052537 0.917933 0.6516797 0 0.42315793 0.08821144 0.6241023 0 1 0.29582646 0.41485512"/>
  </g>
  <g id="Bold-S" transform="matrix(1 0 0 1 2294.43 696)">
   <path d="M37.9395-0.195312C40.7471-0.195312 42.9443-1.26953 44.458-3.54004L79.7852-57.5684C80.8838-59.2041 81.3232-60.7666 81.3232-62.207C81.3232-66.04 78.4424-68.8477 74.4873-68.8477C71.7773-68.8477 70.0928-67.8955 68.4326-65.2832L37.7686-16.7725L22.1191-36.3525C20.6055-38.1836 18.9453-39.0137 16.626-39.0137C12.6709-39.0137 9.76562-36.1572 9.76562-32.2754C9.76562-30.542 10.3027-29.0283 11.7676-27.3193L31.5674-3.24707C33.3252-1.14746 35.3271-0.195312 37.9395-0.195312Z" data-clipstroke-keyframes="0 0 0 0.74631596 0.837622 0 0.2450608 0.9308596 0.65200603 0 0.4085188 0.07349991 0.6294092 0 1 0.299118 0.40249547"/>
  </g>
  <g id="Semibold-S" transform="matrix(1 0 0 1 1998.54 696)">
   <path d="M37.1041-0.444141C39.5829-0.444141 41.5313-1.42949 42.8851-3.47783L78.31-58.3326C79.3108-59.8351 79.697-61.2021 79.697-62.4914C79.697-65.8001 77.296-68.1723 73.8919-68.1723C71.5285-68.1723 70.1017-67.3534 68.6548-65.0699L36.9243-14.5952L20.5373-35.7216C19.1658-37.4371 17.7189-38.1961 15.6573-38.1961C12.2532-38.1961 9.76562-35.7573 9.76562-32.3998C9.76562-30.9241 10.2672-29.5526 11.501-28.0747L31.363-3.32705C32.9786-1.35186 34.7495-0.444141 37.1041-0.444141Z" data-clipstroke-keyframes="0 0 0 0.7561775 0.8366194 0 0.26197672 0.94029385 0.6516155 0 0.39842585 0.06291159 0.63324577 0 1 0.3014871 0.39369872"/>
  </g>
  <g id="Medium-S" transform="matrix(1 0 0 1 1702.44 696)">
   <path d="M36.4707-0.632812C38.7002-0.632812 40.46-1.55078 41.6924-3.43066L77.1914-58.9121C78.1182-60.3135 78.4639-61.5322 78.4639-62.707C78.4639-65.6182 76.4268-67.6602 73.4404-67.6602C71.3398-67.6602 70.1084-66.9424 68.8232-64.9082L36.2842-12.9443L19.3379-35.2432C18.0742-36.8711 16.7891-37.5762 14.9229-37.5762C11.9365-37.5762 9.76562-35.4541 9.76562-32.4941C9.76562-31.2139 10.2402-29.9502 11.2988-28.6475L31.208-3.3877C32.7158-1.50684 34.3115-0.632812 36.4707-0.632812Z" data-clipstroke-keyframes="0 0 0 0.7640199 0.8358362 0 0.27480307 0.94774395 0.6512555 0 0.39077294 0.05462995 0.6365383 0 1 0.30333382 0.3871608"/>
  </g>
  <g id="Regular-S" transform="matrix(1 0 0 1 1406.53 696)">
   <path d="M35.6445-0.878906C37.5488-0.878906 39.0625-1.70898 40.1367-3.36914L75.7324-59.668C76.5625-60.9375 76.8555-61.9629 76.8555-62.9883C76.8555-65.3809 75.293-66.9922 72.8516-66.9922C71.0938-66.9922 70.1172-66.4062 69.043-64.6973L35.4492-10.791L17.7734-34.6191C16.6504-36.1328 15.5762-36.7676 13.9648-36.7676C11.5234-36.7676 9.76562-35.0586 9.76562-32.6172C9.76562-31.5918 10.2051-30.4688 11.0352-29.3945L31.0059-3.4668C32.373-1.70898 33.7402-0.878906 35.6445-0.878906Z" data-clipstroke-keyframes="0 0 0 0.77428883 0.83470535 0 0.2915331 0.95784783 0.65022427 0 0.38079092 0.043500084 0.64086664 0 1 0.30588508 0.37826645"/>
  </g>
  <g id="Light-S" transform="matrix(1 0 0 1 1110.9 696)">
   <path d="M33.9492-1.98388C35.3692-1.98388 36.4741-2.60204 37.2759-3.82324L73.8555-61.1968C74.4888-62.1787 74.7061-62.9316 74.7061-63.6846C74.7061-65.502 73.4917-66.75 71.6406-66.75C70.3218-66.75 69.5723-66.3003 68.7856-65.0303L33.7993-9.6255L15.8511-32.5757C15.0156-33.711 14.1987-34.1944 12.9658-34.1944C11.0996-34.1944 9.76562-32.8941 9.76562-31.043C9.76562-30.2598 10.0991-29.4092 10.7476-28.5923L30.4761-3.89062C31.5103-2.57177 32.5142-1.98388 33.9492-1.98388Z" data-clipstroke-keyframes="0 0 0 0.79230535 0.84006107 0 0.28095 0.9631672 0.6689641 0 0.3674128 0.03934035 0.65366215 0 1 0.31698126 0.37565884"/>
  </g>
  <g id="Thin-S" transform="matrix(1 0 0 1 815.608 696)">
   <path d="M31.7071-3.44529C32.4864-3.44529 33.0508-3.78319 33.4922-4.42382L71.3731-63.2187C71.7461-63.8203 71.8633-64.2129 71.8633-64.6055C71.8633-65.6621 71.1094-66.4297 70.0391-66.4297C69.3008-66.4297 68.8516-66.1602 68.4453-65.4707L31.6172-8.08401L13.3086-29.8731C12.8535-30.5079 12.377-30.7911 11.6445-30.7911C10.5391-30.7911 9.76562-30.0313 9.76562-28.961C9.76562-28.4981 9.95899-28.0078 10.3672-27.5313L29.7754-4.45116C30.3692-3.71287 30.8926-3.44529 31.7071-3.44529Z" data-clipstroke-keyframes="0 0 0 0.8188591 0.84797275 0 0.266953 0.9711099 0.69586235 0 0.3497192 0.033069633 0.67178047 0 1 0.33299017 0.37153223"/>
  </g>
  <g id="Ultralight-S" transform="matrix(1 0 0 1 519.625 696)">
   <path d="M30.5586-4.19382C31.0098-4.19382 31.2974-4.38816 31.5543-4.73143L70.1016-64.2544C70.3414-64.6611 70.4073-64.8691 70.4073-65.0771C70.4073-65.7441 69.8892-66.2656 69.2188-66.2656C68.7779-66.2656 68.4824-66.0884 68.271-65.6963L30.4996-7.29446L12.0064-28.4888C11.7461-28.8672 11.4439-29.0479 10.9678-29.0479C10.252-29.0479 9.76562-28.565 9.76562-27.8946C9.76562-27.5957 9.88721-27.2901 10.1724-26.9878L29.4165-4.73827C29.7847-4.29734 30.062-4.19382 30.5586-4.19382Z" data-clipstroke-keyframes="0 0 0 0.8332541 0.8522556 0 0.25978377 0.9752093 0.71036637 0 0.3406566 0.029899083 0.68137807 0 1 0.34167993 0.36940122"/>
  </g>
 </g>
</svg>
