<?xml version="1.0" encoding="UTF-8"?>
<!--Generator: Apple Native CoreSVG 341-->
<!DOCTYPE svg
PUBLIC "-//W3C//DTD SVG 1.1//EN"
       "http://www.w3.org/Graphics/SVG/1.1/DTD/svg11.dtd">
<svg version="1.1" xmlns="http://www.w3.org/2000/svg" xmlns:xlink="http://www.w3.org/1999/xlink" viewBox="0 0 3300 2200">
 <g id="Notes">
  <rect height="2200" id="artboard" style="fill:white;opacity:1" width="3300" x="0" y="0"/>
  <line style="fill:none;stroke:black;opacity:1;stroke-width:0.5;" x1="263" x2="3036" y1="292" y2="292"/>
  <text style="stroke:none;fill:black;font-family:sans-serif;font-size:13;font-weight:bold;" transform="matrix(1 0 0 1 263 322)">Weight/Scale Variations</text>
  <text style="stroke:none;fill:black;font-family:sans-serif;font-size:13;text-anchor:middle;" transform="matrix(1 0 0 1 559.711 322)">Ultralight</text>
  <text style="stroke:none;fill:black;font-family:sans-serif;font-size:13;text-anchor:middle;" transform="matrix(1 0 0 1 856.422 322)">Thin</text>
  <text style="stroke:none;fill:black;font-family:sans-serif;font-size:13;text-anchor:middle;" transform="matrix(1 0 0 1 1153.13 322)">Light</text>
  <text style="stroke:none;fill:black;font-family:sans-serif;font-size:13;text-anchor:middle;" transform="matrix(1 0 0 1 1449.84 322)">Regular</text>
  <text style="stroke:none;fill:black;font-family:sans-serif;font-size:13;text-anchor:middle;" transform="matrix(1 0 0 1 1746.56 322)">Medium</text>
  <text style="stroke:none;fill:black;font-family:sans-serif;font-size:13;text-anchor:middle;" transform="matrix(1 0 0 1 2043.27 322)">Semibold</text>
  <text style="stroke:none;fill:black;font-family:sans-serif;font-size:13;text-anchor:middle;" transform="matrix(1 0 0 1 2339.98 322)">Bold</text>
  <text style="stroke:none;fill:black;font-family:sans-serif;font-size:13;text-anchor:middle;" transform="matrix(1 0 0 1 2636.69 322)">Heavy</text>
  <text style="stroke:none;fill:black;font-family:sans-serif;font-size:13;text-anchor:middle;" transform="matrix(1 0 0 1 2933.4 322)">Black</text>
  <line style="fill:none;stroke:black;opacity:1;stroke-width:0.5;" x1="263" x2="3036" y1="1903" y2="1903"/>
  <g transform="matrix(0.2 0 0 0.2 263 1933)">
   <path d="m46.2402 4.15039c21.7773 0 39.4531-17.627 39.4531-39.4043s-17.6758-39.4043-39.4531-39.4043c-21.7285 0-39.4043 17.627-39.4043 39.4043s17.6758 39.4043 39.4043 39.4043Zm0-7.42188c-17.6758 0-31.9336-14.3066-31.9336-31.9824s14.2578-31.9824 31.9336-31.9824 31.9824 14.3066 31.9824 31.9824-14.3066 31.9824-31.9824 31.9824Zm3.61328-17.7734v-28.4668c0-2.24609-1.46484-3.75977-3.71094-3.75977-2.14844 0-3.61328 1.51367-3.61328 3.75977v28.4668c0 2.19727 1.46484 3.71094 3.61328 3.71094 2.24609 0 3.71094-1.51367 3.71094-3.71094Zm-17.8223-10.5957h28.418c2.19727 0 3.71094-1.46484 3.71094-3.61328 0-2.19727-1.51367-3.71094-3.71094-3.71094h-28.418c-2.24609 0-3.75977 1.51367-3.75977 3.71094 0 2.14844 1.51367 3.61328 3.75977 3.61328Z"/>
  </g>
  <g transform="matrix(0.2 0 0 0.2 281.506 1933)">
   <path d="m58.5449 14.5508c27.4902 0 49.8047-22.3145 49.8047-49.8047s-22.3145-49.8047-49.8047-49.8047-49.8047 22.3145-49.8047 49.8047 22.3145 49.8047 49.8047 49.8047Zm0-8.30078c-22.9492 0-41.5039-18.5547-41.5039-41.5039s18.5547-41.5039 41.5039-41.5039 41.5039 18.5547 41.5039 41.5039-18.5547 41.5039-41.5039 41.5039Zm4.05273-23.0957v-36.9141c0-2.49023-1.70898-4.19922-4.15039-4.19922-2.39258 0-4.05273 1.70898-4.05273 4.19922v36.9141c0 2.44141 1.66016 4.15039 4.05273 4.15039 2.44141 0 4.15039-1.66016 4.15039-4.15039Zm-22.5586-14.4043h36.9629c2.44141 0 4.15039-1.61133 4.15039-4.00391 0-2.44141-1.70898-4.15039-4.15039-4.15039h-36.9629c-2.49023 0-4.15039 1.70898-4.15039 4.15039 0 2.39258 1.66016 4.00391 4.15039 4.00391Z"/>
  </g>
  <g transform="matrix(0.2 0 0 0.2 304.924 1933)">
   <path d="m74.8535 28.3203c35.1074 0 63.623-28.4668 63.623-63.5742s-28.5156-63.623-63.623-63.623-63.5742 28.5156-63.5742 63.623 28.4668 63.5742 63.5742 63.5742Zm0-9.08203c-30.127 0-54.4922-24.3652-54.4922-54.4922s24.3652-54.4922 54.4922-54.4922 54.4922 24.3652 54.4922 54.4922-24.3652 54.4922-54.4922 54.4922Zm4.44336-30.3223v-48.4863c0-2.73438-1.85547-4.63867-4.54102-4.63867-2.58789 0-4.44336 1.9043-4.44336 4.63867v48.4863c0 2.68555 1.85547 4.58984 4.44336 4.58984 2.68555 0 4.54102-1.85547 4.54102-4.58984Zm-28.7109-19.7754h48.4863c2.68555 0 4.58984-1.80664 4.58984-4.39453 0-2.73438-1.85547-4.58984-4.58984-4.58984h-48.4863c-2.73438 0-4.58984 1.85547-4.58984 4.58984 0 2.58789 1.85547 4.39453 4.58984 4.39453Z"/>
  </g>
  <text style="stroke:none;fill:black;font-family:sans-serif;font-size:13;font-weight:bold;" transform="matrix(1 0 0 1 263 1953)">Design Variations</text>
  <text style="stroke:none;fill:black;font-family:sans-serif;font-size:13;" transform="matrix(1 0 0 1 263 1971)">Symbols are supported in up to nine weights and three scales.</text>
  <text style="stroke:none;fill:black;font-family:sans-serif;font-size:13;" transform="matrix(1 0 0 1 263 1989)">For optimal layout with text and other symbols, vertically align</text>
  <text style="stroke:none;fill:black;font-family:sans-serif;font-size:13;" transform="matrix(1 0 0 1 263 2007)">symbols with the adjacent text.</text>
  <line style="fill:none;stroke:#00AEEF;stroke-width:0.5;opacity:1.0;" x1="776" x2="776" y1="1919" y2="1933"/>
  <g transform="matrix(0.2 0 0 0.2 776 1933)">
   <path d="m16.5527 0.78125c2.58789 0 3.85742-0.976562 4.78516-3.71094l20.5566-57.5195h0.244141l20.6055 57.5195c0.927734 2.73438 2.19727 3.71094 4.73633 3.71094 2.58789 0 4.24805-1.5625 4.24805-4.00391 0-0.830078-0.146484-1.61133-0.537109-2.63672l-22.9004-60.9863c-1.12305-2.97852-3.125-4.49219-6.25-4.49219-3.02734 0-5.07812 1.46484-6.15234 4.44336l-22.9004 61.084c-0.390625 1.02539-0.537109 1.80664-0.537109 2.63672 0 2.44141 1.5625 3.95508 4.10156 3.95508Zm10.2051-20.9473h30.6641c2.00195 0 3.66211-1.66016 3.66211-3.66211 0-2.05078-1.66016-3.66211-3.66211-3.66211h-30.6641c-2.00195 0-3.66211 1.61133-3.66211 3.66211 0 2.00195 1.66016 3.66211 3.66211 3.66211Z"/>
  </g>
  <line style="fill:none;stroke:#00AEEF;stroke-width:0.5;opacity:1.0;" x1="792.836" x2="792.836" y1="1919" y2="1933"/>
  <text style="stroke:none;fill:black;font-family:sans-serif;font-size:13;font-weight:bold;" transform="matrix(1 0 0 1 776 1953)">Margins</text>
  <text style="stroke:none;fill:black;font-family:sans-serif;font-size:13;" transform="matrix(1 0 0 1 776 1971)">Leading and trailing margins on the left and right side of each symbol</text>
  <text style="stroke:none;fill:black;font-family:sans-serif;font-size:13;" transform="matrix(1 0 0 1 776 1989)">can be adjusted by modifying the x-location of the margin guidelines.</text>
  <text style="stroke:none;fill:black;font-family:sans-serif;font-size:13;" transform="matrix(1 0 0 1 776 2007)">Modifications are automatically applied proportionally to all</text>
  <text style="stroke:none;fill:black;font-family:sans-serif;font-size:13;" transform="matrix(1 0 0 1 776 2025)">scales and weights.</text>
  <g transform="matrix(0.2 0 0 0.2 1289 1933)">
   <path d="m14.209 13.1348 7.86133 7.86133c4.29688 4.39453 9.32617 4.10156 13.8672-1.02539l60.6934-68.2129-4.88281-4.88281-60.2539 67.6758c-1.80664 1.95312-3.4668 2.44141-5.81055 0.0976562l-5.17578-5.12695c-2.29492-2.29492-1.80664-3.95508 0.195312-5.81055l67.4805-62.1582-4.88281-4.83398-68.0664 62.5977c-4.98047 4.58984-5.32227 9.47266-1.02539 13.8184Zm44.873-97.4609c-2.05078 2.00195-2.24609 4.88281-1.07422 6.78711 1.12305 1.80664 3.4668 3.02734 6.5918 2.24609 5.85938-1.66016 12.5977-2.39258 18.8965 0.927734l-2.68555 7.12891c-1.61133 4.00391-0.732422 6.88477 1.70898 9.42383l10.2539 10.3027c2.34375 2.39258 4.54102 2.44141 7.08008 1.95312l4.44336-0.732422 2.58789 2.53906-0.195312 2.24609c-0.0976562 2.29492 0.537109 4.29688 2.7832 6.49414l3.36914 3.32031c2.29492 2.29492 5.51758 2.49023 7.8125 0.195312l12.9883-13.0371c2.29492-2.34375 2.14844-5.37109-0.195312-7.66602l-3.41797-3.41797c-2.19727-2.19727-4.05273-3.02734-6.34766-2.88086l-2.34375 0.244141-2.44141-2.44141 1.02539-4.6875c0.634766-2.73438-0.244141-4.98047-2.88086-7.61719l-11.2793-11.1816c-12.9395-12.8418-35.5957-11.0352-46.6797-0.146484Zm7.08008 2.05078c8.78906-6.39648 25.9766-5.66406 33.6914 1.95312l12.3047 12.207c1.02539 1.02539 1.2207 1.80664 0.927734 3.32031l-1.46484 6.64062 6.73828 6.68945 4.39453-0.244141c1.12305-0.0488281 1.51367 0.0488281 2.34375 0.878906l2.53906 2.49023-10.8398 10.8398-2.49023-2.49023c-0.830078-0.878906-0.976562-1.2207-0.927734-2.39258l0.292969-4.3457-6.68945-6.73828-6.83594 1.17188c-1.41602 0.292969-2.05078 0.195312-3.17383-0.878906l-8.93555-8.88672c-1.07422-1.02539-1.17188-1.70898-0.488281-3.36914l4.58984-11.4746c-6.10352-6.34766-17.041-7.51953-25.5859-4.58984-0.683594 0.244141-0.927734-0.390625-0.390625-0.78125Z"/>
  </g>
  <text style="stroke:none;fill:black;font-family:sans-serif;font-size:13;font-weight:bold;" transform="matrix(1 0 0 1 1289 1953)">Exporting</text>
  <text style="stroke:none;fill:black;font-family:sans-serif;font-size:13;" transform="matrix(1 0 0 1 1289 1971)">Symbols should be outlined when exporting to ensure the</text>
  <text style="stroke:none;fill:black;font-family:sans-serif;font-size:13;" transform="matrix(1 0 0 1 1289 1989)">design is preserved when submitting to Xcode.</text>
  <text id="template-version" style="stroke:none;fill:black;font-family:sans-serif;font-size:13;text-anchor:end;" transform="matrix(1 0 0 1 3036 1933)">Template v.2.0</text>
  <text style="stroke:none;fill:black;font-family:sans-serif;font-size:13;text-anchor:end;" transform="matrix(1 0 0 1 3036 1951)">Requires Xcode 12 or greater</text>
  <text id="descriptive-name" style="stroke:none;fill:black;font-family:sans-serif;font-size:13;text-anchor:end;" transform="matrix(1 0 0 1 3036 1969)">Generated from arrow.up.arrow.down</text>
  <text style="stroke:none;fill:black;font-family:sans-serif;font-size:13;text-anchor:end;" transform="matrix(1 0 0 1 3036 1987)">Typeset at 100.0 points</text>
  <text style="stroke:none;fill:black;font-family:sans-serif;font-size:13;" transform="matrix(1 0 0 1 263 726)">Small</text>
  <text style="stroke:none;fill:black;font-family:sans-serif;font-size:13;" transform="matrix(1 0 0 1 263 1156)">Medium</text>
  <text style="stroke:none;fill:black;font-family:sans-serif;font-size:13;" transform="matrix(1 0 0 1 263 1586)">Large</text>
 </g>
 <g id="Guides">
  <g id="H-reference" style="fill:#27AAE1;stroke:none;" transform="matrix(1 0 0 1 339 696)">
   <path d="M0.993654 0L3.63775 0L29.3281-67.1323L30.0303-67.1323L30.0303-70.459L28.1226-70.459ZM11.6885-24.4799L46.9815-24.4799L46.2315-26.7285L12.4385-26.7285ZM55.1196 0L57.7637 0L30.6382-70.459L29.4326-70.459L29.4326-67.1323Z"/>
  </g>
  <line id="Baseline-S" style="fill:none;stroke:#27AAE1;opacity:1;stroke-width:0.5;" x1="263" x2="3036" y1="696" y2="696"/>
  <line id="Capline-S" style="fill:none;stroke:#27AAE1;opacity:1;stroke-width:0.5;" x1="263" x2="3036" y1="625.541" y2="625.541"/>
  <g id="H-reference" style="fill:#27AAE1;stroke:none;" transform="matrix(1 0 0 1 339 1126)">
   <path d="M0.993654 0L3.63775 0L29.3281-67.1323L30.0303-67.1323L30.0303-70.459L28.1226-70.459ZM11.6885-24.4799L46.9815-24.4799L46.2315-26.7285L12.4385-26.7285ZM55.1196 0L57.7637 0L30.6382-70.459L29.4326-70.459L29.4326-67.1323Z"/>
  </g>
  <line id="Baseline-M" style="fill:none;stroke:#27AAE1;opacity:1;stroke-width:0.5;" x1="263" x2="3036" y1="1126" y2="1126"/>
  <line id="Capline-M" style="fill:none;stroke:#27AAE1;opacity:1;stroke-width:0.5;" x1="263" x2="3036" y1="1055.54" y2="1055.54"/>
  <g id="H-reference" style="fill:#27AAE1;stroke:none;" transform="matrix(1 0 0 1 339 1556)">
   <path d="M0.993654 0L3.63775 0L29.3281-67.1323L30.0303-67.1323L30.0303-70.459L28.1226-70.459ZM11.6885-24.4799L46.9815-24.4799L46.2315-26.7285L12.4385-26.7285ZM55.1196 0L57.7637 0L30.6382-70.459L29.4326-70.459L29.4326-67.1323Z"/>
  </g>
  <line id="Baseline-L" style="fill:none;stroke:#27AAE1;opacity:1;stroke-width:0.5;" x1="263" x2="3036" y1="1556" y2="1556"/>
  <line id="Capline-L" style="fill:none;stroke:#27AAE1;opacity:1;stroke-width:0.5;" x1="263" x2="3036" y1="1485.54" y2="1485.54"/>
  <line id="right-margin" style="fill:none;stroke:#00AEEF;stroke-width:0.5;opacity:1.0;" x1="1519.97" x2="1519.97" y1="1030.79" y2="1150.12"/>
  <line id="left-margin" style="fill:none;stroke:#00AEEF;stroke-width:0.5;opacity:1.0;" x1="1379.72" x2="1379.72" y1="1030.79" y2="1150.12"/>
 </g>
 <g id="Symbols">
  <g id="Black-L" transform="matrix(1 0 0 1 2838.23 1556)">
   <path d="M141.837 7.60904L142.235-14.9291L142.235-89.266C142.235-95.0446 137.897-99.3647 132.116-99.3647C126.335-99.3647 121.996-95.0446 121.996-89.266L121.996-14.9291L122.415 7.60904C122.498 14.7824 127.316 18.3819 132.137 18.3819C136.978 18.3819 141.796 14.7824 141.837 7.60904ZM107.027-21.3163C105.188-23.2723 102.724-24.2005 100.02-24.2005C94.1817-24.2005 89.9796-20.0192 89.9796-14.1603C89.9796-11.593 91.1843-8.75353 93.0223-6.89471L124.638 25.6682C128.8 29.968 135.409 29.99 139.573 25.6682L171.209-6.89471C173.047-8.75353 174.252-11.593 174.252-14.1603C174.252-20.0192 170.05-24.2005 164.212-24.2005C161.507-24.2005 159.102-23.2723 157.205-21.3163L140.842-4.18643L132.116 5.60735L123.097-4.47847ZM67.9625-78.0704C67.9-85.2438 63.0815-88.8433 58.241-88.8433C53.42-88.8433 48.6027-85.2438 48.5194-78.0704L48.1007-55.5323L48.1007 18.8047C48.1007 24.5832 52.4392 28.9033 58.2201 28.9033C64.001 28.9033 68.3384 24.5832 68.3384 18.8047L68.3384-55.5323ZM33.1313-49.1451L49.2018-65.9829L58.2201-76.0687L66.9464-66.2749L83.3089-49.1451C85.2065-47.189 87.6106-46.2608 90.3161-46.2608C96.1542-46.2608 100.356-50.4421 100.356-56.3011C100.356-58.8892 99.1516-61.7079 97.3136-63.5667L65.6978-96.1296C61.5125-100.451 54.9046-100.429 50.7633-96.1296L19.1267-63.5667C17.2887-61.7079 16.084-58.8892 16.084-56.3011C16.084-50.4421 20.2849-46.2608 26.1242-46.2608C28.8284-46.2608 31.2921-47.189 33.1313-49.1451Z" data-clipstroke-keyframes="0 0 0 0.37460005 0.49951932 0 0.7659432 0.78636026 0.087764286 0 1 0.8735268 0.000594003 0 0 2.6254084 2.5004923 0 0.76594883 2.9122388 2.2136593 0 1 2.9994059 2.126493"/>
  </g>
  <g id="Heavy-L" transform="matrix(1 0 0 1 2542.73 1556)">
   <path d="M139.202 9.20171L139.786-12.6567L139.786-89.5285C139.786-94.6567 135.949-98.4755 130.809-98.4755C125.67-98.4755 121.832-94.6567 121.832-89.5285L121.832-12.6567L122.447 9.20171C122.567 15.3146 126.695 18.3974 130.839 18.3974C135.014 18.3974 139.141 15.3146 139.202 9.20171ZM104.906-20.2084C103.253-21.9499 101.1-22.7827 98.6822-22.7827C93.5038-22.7827 89.7798-19.0889 89.7798-13.8802C89.7798-11.6052 90.8571-9.079 92.5037-7.40218L124.159 25.1342C127.858 28.9519 133.725 28.9877 137.429 25.1342L169.114-7.40218C170.761-9.079 171.838-11.6052 171.838-13.8802C171.838-19.0889 168.114-22.7827 162.936-22.7827C160.518-22.7827 158.409-21.9499 156.712-20.2084L141.035-3.85893L130.809 7.75847L120.36-4.08204ZM65.5359-79.6719C65.4454-85.7849 61.3123-88.8676 57.1434-88.8676C52.9991-88.8676 48.8717-85.7849 48.7509-79.6719L48.136-57.8135L48.136 19.0583C48.136 24.1865 51.9738 28.0053 57.1133 28.0053C62.2527 28.0053 66.0849 24.1865 66.0849 19.0583L66.0849-57.8135ZM31.2098-50.2618L46.6642-66.3882L57.1133-78.2287L67.3392-66.6113L83.0167-50.2618C84.7135-48.5204 86.8165-47.6876 89.2401-47.6876C94.4186-47.6876 98.1425-51.3813 98.1425-56.59C98.1425-58.8952 97.0653-61.3912 95.4186-63.068L63.7631-95.6044C60.0234-99.4579 54.1617-99.4221 50.4936-95.6044L18.8079-63.068C17.1613-61.3912 16.084-58.8952 16.084-56.59C16.084-51.3813 19.8023-47.6876 24.9864-47.6876C27.4044-47.6876 29.5576-48.5204 31.2098-50.2618Z" data-clipstroke-keyframes="0 0 0 0.38850677 0.50148845 0 0.7765751 0.80339295 0.08662339 0 1 0.88943106 0.0005485095 0 0 2.6115007 2.4985247 0 0.7765834 2.9133813 2.1966336 0 1 2.9994516 2.1105926"/>
  </g>
  <g id="Bold-L" transform="matrix(1 0 0 1 2247.56 1556)">
   <path d="M135.884 11.1466L136.632-9.73994L136.632-89.814C136.632-94.1131 133.424-97.3096 129.098-97.3096C124.773-97.3096 121.565-94.1131 121.565-89.814L121.565-9.73994L122.351 11.1466C122.503 15.9903 125.8 18.4576 129.136 18.4576C132.511 18.4576 135.808 15.9903 135.884 11.1466ZM102.166-18.8405C100.744-20.3206 98.9678-21.0306 96.9183-21.0306C92.5767-21.0306 89.4519-17.9437 89.4519-13.5642C89.4519-11.6429 90.3679-9.52339 91.7764-8.07694L123.5 24.4138C126.608 27.6173 131.538 27.6685 134.658 24.4138L166.42-8.07694C167.829-9.52339 168.745-11.6429 168.745-13.5642C168.745-17.9437 165.62-21.0306 161.279-21.0306C159.229-21.0306 157.482-20.3206 156.031-18.8405L140.975-3.23561L129.098 10.2906L117.076-3.38163ZM62.5538-81.6321C62.4399-86.4758 59.1298-88.9431 55.7685-88.9431C52.4319-88.9431 49.1351-86.4758 48.9831-81.6321L48.197-60.7455L48.197 19.3286C48.197 23.6277 51.4049 26.8241 55.7305 26.8241C60.0561 26.8241 63.2508 23.6277 63.2508 19.3286L63.2508-60.7455ZM28.7981-51.645L43.7078-67.1038L55.7305-80.776L67.6072-67.2498L82.6629-51.645C84.1138-50.1649 85.8479-49.4549 87.9107-49.4549C92.2522-49.4549 95.377-52.5417 95.377-56.9212C95.377-58.8805 94.461-60.9621 93.0526-62.4085L61.3285-94.8992C58.1569-98.154 53.2397-98.1027 50.1705-94.8992L18.4085-62.4085C17-60.9621 16.084-58.8805 16.084-56.9212C16.084-52.5417 19.1956-49.4549 23.5503-49.4549C25.5999-49.4549 27.3764-50.1649 28.7981-51.645Z" data-clipstroke-keyframes="0 0 0 0.40673074 0.5040884 0 0.790714 0.8260923 0.084767394 0 1 0.9102689 0.00050709856 0 0 2.5932722 2.4959292 0 0.79072475 2.915239 2.173942 0 1 2.999493 2.0897589"/>
  </g>
  <g id="Semibold-L" transform="matrix(1 0 0 1 1951.92 1556)">
   <path d="M133.596 12.4874L134.457-7.72917L134.457-90.0109C134.457-93.7384 131.684-96.5058 127.919-96.5058C124.155-96.5058 121.381-93.7384 121.381-90.0109L121.381-7.72917L122.285 12.4874C122.459 16.4561 125.183 18.4991 127.962 18.4991C130.786 18.4991 133.51 16.4561 133.596 12.4874ZM100.277-17.8975C99.0145-19.1974 97.4978-19.8227 95.7022-19.8227C91.9376-19.8227 89.2258-17.1543 89.2258-13.3464C89.2258-11.6689 90.0307-9.82974 91.275-8.54211L123.046 23.9171C125.746 26.6972 130.03 26.759 132.749 23.9171L164.563-8.54211C165.808-9.82974 166.612-11.6689 166.612-13.3464C166.612-17.1543 163.901-19.8227 160.136-19.8227C158.34-19.8227 156.842-19.1974 155.561-17.8975L140.934-2.8059L127.919 12.0362L114.811-2.89877ZM60.498-82.9834C60.3679-86.9521 57.6252-88.9951 54.8206-88.9951C52.0409-88.9951 49.3167-86.9521 49.1432-82.9834L48.239-62.7668L48.239 19.5149C48.239 23.2424 51.0128 26.0098 54.7772 26.0098C58.5417 26.0098 61.2971 23.2424 61.2971 19.5149L61.2971-62.7668ZM27.1354-52.5985L41.6696-67.5972L54.7772-82.5322L67.792-67.69L82.4191-52.5985C83.7004-51.2986 85.1801-50.6732 86.9942-50.6732C90.7587-50.6732 93.4705-53.3417 93.4705-57.1496C93.4705-58.8704 92.6657-60.6662 91.4214-61.9538L59.65-94.413C56.8701-97.255 52.6041-97.1931 49.9478-94.413L18.1331-61.9538C16.8888-60.6662 16.084-58.8704 16.084-57.1496C16.084-53.3417 18.7773-50.6732 22.5603-50.6732C24.3559-50.6732 25.8727-51.2986 27.1354-52.5985Z" data-clipstroke-keyframes="0 0 0 0.4198517 0.5047895 0 0.80046135 0.8412399 0.08344778 0 1 0.92410254 0.00047907885 0 0 2.5801473 2.495234 0 0.8004737 2.9165606 2.1587975 0 1 2.999521 2.075926"/>
  </g>
  <g id="Medium-L" transform="matrix(1 0 0 1 1656.02 1556)">
   <path d="M131.862 13.5041L132.809-6.20451L132.809-90.1601C132.809-93.4542 130.364-95.8963 127.025-95.8963C123.686-95.8963 121.241-93.4542 121.241-90.1601L121.241-6.20451L122.235 13.5041C122.425 16.8093 124.715 18.5306 127.072 18.5306C129.477 18.5306 131.767 16.8093 131.862 13.5041ZM98.8452-17.1824C97.7029-18.3457 96.3831-18.9069 94.7801-18.9069C91.453-18.9069 89.0544-16.5557 89.0544-13.1812C89.0544-11.6886 89.775-10.062 90.8948-8.89482L122.702 23.5405C125.093 25.9995 128.887 26.0695 131.3 23.5405L163.155-8.89482C164.275-10.062 164.995-11.6886 164.995-13.1812C164.995-16.5557 162.597-18.9069 159.27-18.9069C157.667-18.9069 156.357-18.3457 155.205-17.1824L140.903-2.48008L127.025 13.3599L113.095-2.53265ZM58.9392-84.008C58.7968-87.3132 56.4843-89.0345 54.1019-89.0345C51.7444-89.0345 49.4544-87.3132 49.2646-84.008L48.2708-64.2994L48.2708 19.6562C48.2708 22.9503 50.7154 25.3924 54.0544 25.3924C57.3935 25.3924 59.8156 22.9503 59.8156 19.6562L59.8156-64.2994ZM25.8747-53.3215L40.1242-67.9713L54.0544-83.8638L67.9321-68.0238L82.2342-53.3215C83.3869-52.1582 84.6738-51.5971 86.2992-51.5971C89.6263-51.5971 92.0249-53.9482 92.0249-57.3227C92.0249-58.8628 91.3044-60.4419 90.1846-61.6091L58.3774-94.0444C55.8944-96.5734 52.1221-96.5035 49.779-94.0444L17.9243-61.6091C16.8045-60.4419 16.084-58.8628 16.084-57.3227C16.084-53.9482 18.4601-51.5971 21.8097-51.5971C23.4127-51.5971 24.7325-52.1582 25.8747-53.3215Z" data-clipstroke-keyframes="0 0 0 0.42963213 0.5058705 0 0.80785215 0.8532204 0.082330234 0 1 0.9349758 0.00045760884 0 0 2.5703638 2.4941597 0 0.80786574 2.9176803 2.1468198 0 1 2.9995425 2.0650542"/>
  </g>
  <g id="Regular-L" transform="matrix(1 0 0 1 1360.36 1556)">
   <path d="M129.6 14.8301L130.658-4.21583L130.658-90.3548C130.658-93.0836 128.643-95.1013 125.859-95.1013C123.074-95.1013 121.059-93.0836 121.059-90.3548L121.059-4.21583L122.17 14.8301C122.381 17.27 124.105 18.5716 125.911 18.5716C127.771 18.5716 129.495 17.27 129.6 14.8301ZM96.9772-16.2498C95.9922-17.2348 94.9292-17.7123 93.5774-17.7123C90.821-17.7123 88.8309-15.7749 88.8309-12.9657C88.8309-11.7143 89.4415-10.365 90.3989-9.35488L122.253 23.0493C124.24 25.0896 127.396 25.17 129.412 23.0493L161.318-9.35488C162.276-10.365 162.886-11.7143 162.886-12.9657C162.886-15.7749 160.896-17.7123 158.14-17.7123C156.788-17.7123 155.725-17.2348 154.74-16.2498L140.862-2.05509L125.859 15.0863L110.855-2.05509ZM56.9059-85.3444C56.7476-87.7843 54.9962-89.0859 53.1644-89.0859C51.3577-89.0859 49.634-87.7843 49.4229-85.3444L48.3124-66.2985L48.3124 19.8405C48.3124 22.5693 50.3276 24.587 53.1117 24.587C55.8958 24.587 57.8833 22.5693 57.8833 19.8405L57.8833-66.2985ZM24.2303-54.2645L38.1084-68.4592L53.1117-85.6006L68.1149-68.4592L81.993-54.2645C82.9781-53.2795 84.0133-52.802 85.3928-52.802C88.1493-52.802 90.1393-54.7394 90.1393-57.5486C90.1393-58.8527 89.5287-60.1493 88.5714-61.1594L56.7174-93.5636C54.6218-95.6843 51.4935-95.6039 49.5587-93.5636L17.652-61.1594C16.6946-60.1493 16.084-58.8527 16.084-57.5486C16.084-54.7394 18.0464-52.802 20.8305-52.802C22.1824-52.802 23.2453-53.2795 24.2303-54.2645Z" data-clipstroke-keyframes="0 0 0 0.4427372 0.5073175 0 0.81749237 0.86926466 0.080834866 0 1 0.9495457 0.00043001998 0 0 2.5572557 2.4927258 0 0.81750757 2.919179 2.1307802 0 1 2.9995701 2.0504887"/>
  </g>
  <g id="Light-L" transform="matrix(1 0 0 1 1065.05 1556)">
   <path d="M126.966 15.9943L127.7-1.5439L127.7-90.2975C127.7-92.3011 126.181-93.8799 124.084-93.8799C121.987-93.8799 120.468-92.3011 120.468-90.2975L120.468-1.5439L121.235 15.9943C121.369 17.8426 122.673 18.877 124.117 18.877C125.595 18.877 126.899 17.8426 126.966 15.9943ZM94.3625-15.3337C93.5302-16.1661 92.6772-16.529 91.6689-16.529C89.6186-16.529 88.0865-15.0306 88.0865-12.9466C88.0865-11.8861 88.5635-10.9376 89.3492-10.1183L121.375 22.1713C122.847 23.6773 125.24 23.7577 126.759 22.1713L158.818-10.1183C159.604-10.9376 160.081-11.8861 160.081-12.9466C160.081-15.0306 158.549-16.529 156.498-16.529C155.49-16.529 154.637-16.1661 153.805-15.3337L138.896-0.222905L124.084 15.9833L109.271-0.222905ZM54.9974-86.5468C54.8964-88.395 53.5458-89.4295 52.1147-89.4295C50.6707-89.4295 49.3668-88.395 49.2321-86.5468L48.465-69.0086L48.465 19.7451C48.465 21.7486 49.984 23.3274 52.0811 23.3274C54.1781 23.3274 55.6503 21.7486 55.6503 19.7451L55.6503-69.0086ZM22.36-55.2188L37.2687-70.3296L52.0811-86.5358L66.8934-70.3296L81.8022-55.2188C82.6345-54.3864 83.4408-54.0235 84.4958-54.0235C86.5461-54.0235 88.0781-55.5219 88.0781-57.6058C88.0781-58.7001 87.6011-59.6149 86.8155-60.4342L54.7898-92.7238C53.1904-94.3101 50.8446-94.2297 49.406-92.7238L17.3466-60.4342C16.561-59.6149 16.084-58.7001 16.084-57.6058C16.084-55.5219 17.5693-54.0235 19.6663-54.0235C20.6746-54.0235 21.5276-54.3864 22.36-55.2188Z" data-clipstroke-keyframes="0 0 0 0.45511428 0.5050233 0 0.8335046 0.8843381 0.075845435 0 1 0.95957255 0.0004776984 0 0 2.5448196 2.4950097 0 0.83351547 2.9241552 2.1156514 0 1 2.9995224 2.0403974"/>
  </g>
  <g id="Thin-L" transform="matrix(1 0 0 1 770.195 1556)">
   <path d="M123.483 17.5341L123.787 1.98996L123.787-90.2218C123.787-91.2662 122.924-92.2644 121.736-92.2644C120.548-92.2644 119.685-91.2662 119.685-90.2218L119.685 1.98996L119.998 17.5341C120.032 18.5998 120.78 19.2809 121.745 19.2809C122.717 19.2809 123.466 18.5998 123.483 17.5341ZM90.9044-14.1221C90.274-14.7525 89.6986-14.964 89.1447-14.964C88.0284-14.964 87.1021-14.0462 87.1021-12.9214C87.1021-12.1133 87.4024-11.6948 87.9609-11.128L120.214 21.0102C121.004 21.8094 122.387 21.8898 123.25 21.0102L155.511-11.128C156.07-11.6948 156.37-12.1133 156.37-12.9214C156.37-14.0462 155.444-14.964 154.328-14.964C153.774-14.964 153.198-14.7525 152.568-14.1221L136.296 2.20031L121.736 17.1697L107.176 2.20031ZM52.4732-88.1371C52.4479-89.2028 51.6274-89.8838 50.7264-89.8838C49.762-89.8838 49.0134-89.2028 48.9797-88.1371L48.667-72.5929L48.667 19.6189C48.667 20.6632 49.5297 21.6614 50.718 21.6614C51.9063 21.6614 52.697 20.6632 52.697 19.6189L52.697-72.5929ZM19.8863-56.4809L36.1581-72.8033L50.718-87.7726L65.278-72.8033L81.5497-56.4809C82.1802-55.8504 82.6835-55.639 83.3094-55.639C84.4258-55.639 85.352-56.5568 85.352-57.6816C85.352-58.4981 85.0517-58.9081 84.4933-59.475L52.2404-91.6132C51.2973-92.4927 49.9863-92.4123 49.2041-91.6132L16.9427-59.475C16.3843-58.9081 16.084-58.4981 16.084-57.6816C16.084-56.5568 16.9382-55.639 18.1266-55.639C18.6805-55.639 19.2558-55.8504 19.8863-56.4809Z" data-clipstroke-keyframes="0 0 0 0.47307736 0.50285906 0 0.85468215 0.90680146 0.06914223 0 1 0.97539836 0.0005240988 0 0 2.526805 2.4972167 0 0.8546872 2.9308457 2.093172 0 1 2.999476 2.0245562"/>
  </g>
  <g id="Ultralight-L" transform="matrix(1 0 0 1 474.434 1556)">
   <path d="M121.699 18.3228L121.783 3.79998L121.783-90.183C121.783-90.7361 121.257-91.437 120.534-91.437C119.811-91.437 119.284-90.7361 119.284-90.183L119.284 3.79998L119.364 18.3228C119.346 18.9877 119.81 19.4877 120.529 19.4877C121.244 19.4877 121.708 18.9877 121.699 18.3228ZM89.1331-13.5015C88.6062-14.0285 88.173-14.1624 87.8518-14.1624C87.2138-14.1624 86.5979-13.542 86.5979-12.9085C86.5979-12.2296 86.8077-12.0827 87.2498-11.6451L119.619 20.4155C120.061 20.8526 120.926 20.9331 121.453 20.4155L153.818-11.6451C154.26-12.0827 154.47-12.2296 154.47-12.9085C154.47-13.542 153.854-14.1624 153.216-14.1624C152.894-14.1624 152.461-14.0285 151.934-13.5015L134.964 3.44147L120.534 17.7773L106.103 3.44147ZM51.1803-88.9516C51.1938-89.6165 50.6448-90.1165 50.0154-90.1165C49.2965-90.1165 48.8324-89.6165 48.8504-88.9516L48.7704-74.4288L48.7704 19.5542C48.7704 20.1073 49.297 20.8082 50.0199 20.8082C50.7427 20.8082 51.1844 20.1073 51.1844 19.5542L51.1844-74.4288ZM18.6192-57.1273L35.5892-74.0703L50.0199-88.4061L64.4505-74.0703L81.4205-57.1273C81.9475-56.6003 82.2956-56.4664 82.7018-56.4664C83.3398-56.4664 83.9557-57.0869 83.9557-57.7203C83.9557-58.3947 83.7459-58.5461 83.3038-58.9837L50.9346-91.0443C50.3276-91.5619 49.5468-91.4814 49.1006-91.0443L16.7359-58.9837C16.2938-58.5461 16.084-58.3947 16.084-57.7203C16.084-57.0869 16.615-56.4664 17.3379-56.4664C17.6591-56.4664 18.0922-56.6003 18.6192-57.1273Z" data-clipstroke-keyframes="0 0 0 0.48241684 0.5003797 0 0.8655292 0.91719747 0.06556391 0 1 0.9823163 0.000539528 0 0 2.5174074 2.4997191 0 0.8655313 2.934413 2.0827308 0 1 2.9994602 2.0175922"/>
  </g>
  <g id="Black-M" transform="matrix(1 0 0 1 2858.82 1126)">
   <path d="M111.796-3.25174L111.899-21.0929L111.899-76.8606C111.899-81.798 108.175-85.5164 103.238-85.5164C98.3013-85.5164 94.5769-81.798 94.5769-76.8606L94.5769-21.0929L94.6861-3.25174C94.7081 3.13698 98.9763 6.33352 103.244 6.33352C107.517 6.33352 111.785 3.13698 111.796-3.25174ZM84.3872-25.2785C82.8223-26.9576 80.6751-27.7432 78.3806-27.7432C73.3863-27.7432 69.7819-24.1442 69.7819-19.1445C69.7819-16.9301 70.8066-14.5153 72.3718-12.9446L96.8549 12.2905C100.408 15.9636 106.063 15.9688 109.616 12.2905L134.105-12.9446C135.67-14.5153 136.694-16.9301 136.694-19.1445C136.694-24.1442 133.09-27.7432 128.096-27.7432C125.801-27.7432 123.711-26.9576 122.089-25.2785L108.684-11.2124L103.238-5.31867L97.5068-11.4978ZM54.4803-67.2067C54.4638-73.5954 50.1959-76.7919 45.9227-76.7919C41.6554-76.7919 37.3872-73.5954 37.3652-67.2067L37.2559-49.3656L37.2559 6.40216C37.2559 11.3396 40.9804 15.058 45.9172 15.058C50.8541 15.058 54.5788 11.3396 54.5788 6.40216L54.5788-49.3656ZM27.0662-45.18L40.1858-58.9606L45.9172-65.1397L51.3632-59.2461L64.7683-45.18C66.3903-43.5009 68.4806-42.7153 70.7748-42.7153C75.7691-42.7153 79.3735-46.3142 79.3735-51.314C79.3735-53.5338 78.3488-55.9431 76.7837-57.5138L52.3005-82.7489C48.7421-86.4272 43.0874-86.422 39.5395-82.7489L15.0508-57.5138C13.4856-55.9431 12.4609-53.5338 12.4609-51.314C12.4609-46.3142 16.0657-42.7153 21.0596-42.7153C23.3542-42.7153 25.5013-43.5009 27.0662-45.18Z" data-clipstroke-keyframes="0 0 0 0.361447 0.49701366 0 0.75694937 0.7702153 0.08824369 0 1 0.85780984 0.0006550936 0 0 2.6385567 2.5029914 0 0.7569513 2.9117572 2.2297914 0 1 2.9993448 2.1421976"/>
  </g>
  <g id="Heavy-M" transform="matrix(1 0 0 1 2563.16 1126)">
   <path d="M109.462-1.8022L109.778-19.1179L109.778-77.1224C109.778-81.4911 106.498-84.7599 102.125-84.7599C97.7513-84.7599 94.4707-81.4911 94.4707-77.1224L94.4707-19.1179L94.8034-1.8022C94.869 3.60446 98.5016 6.32054 102.141 6.32054C105.797 6.32054 109.429 3.60446 109.462-1.8022ZM82.5546-24.2799C81.1584-25.7633 79.2954-26.4662 77.249-26.4662C72.8345-26.4662 69.6552-23.3034 69.6552-18.8724C69.6552-16.9262 70.5677-14.7807 71.9616-13.3703L96.4678 11.8495C99.6153 15.1006 104.615 15.1193 107.765 11.8495L132.287-13.3703C133.681-14.7807 134.594-16.9262 134.594-18.8724C134.594-23.3034 131.415-26.4662 127-26.4662C124.954-26.4662 123.134-25.7633 121.694-24.2799L109.054-11.0612L102.125-3.29856L94.9769-11.2793ZM52.2842-68.6613C52.235-74.068 48.6002-76.7841 44.9467-76.7841C41.3073-76.7841 37.6748-74.068 37.6091-68.6613L37.2764-51.3456L37.2764 6.65887C37.2764 11.0275 40.557 14.2963 44.9303 14.2963C49.3035 14.2963 52.5819 11.0275 52.5819 6.65887L52.5819-51.3456ZM25.3604-46.1837L37.7826-59.1842L44.9303-67.165L51.8598-59.4023L64.5001-46.1837C65.94-44.7002 67.7571-43.9973 69.8057-43.9973C74.2203-43.9973 77.3996-47.1601 77.3996-51.5911C77.3996-53.5538 76.4871-55.6829 75.0932-57.0932L50.587-82.313C47.4185-85.5828 42.4211-85.5641 39.29-82.313L14.7674-57.0932C13.3734-55.6829 12.4609-53.5538 12.4609-51.5911C12.4609-47.1601 15.6379-43.9973 20.0548-43.9973C22.1012-43.9973 23.9642-44.7002 25.3604-46.1837Z" data-clipstroke-keyframes="0 0 0 0.37726396 0.49968717 0 0.768458 0.7896152 0.0873482 0 1 0.8763545 0.0005901679 0 0 2.6227422 2.500322 0 0.7684638 2.9126546 2.2104034 0 1 2.9994097 2.1236627"/>
  </g>
  <g id="Bold-M" transform="matrix(1 0 0 1 2267.63 1126)">
   <path d="M106.852-0.180674L107.406-16.9087L107.406-77.4153C107.406-81.1477 104.621-83.9136 100.879-83.9136C97.1361-83.9136 94.3518-81.1477 94.3518-77.4153L94.3518-16.9087L94.9346-0.180674C95.0491 4.12739 97.9705 6.306 100.907 6.306C103.873 6.306 106.794 4.12739 106.852-0.180674ZM80.5047-23.1628C79.2972-24.4274 77.7521-25.0378 75.9832-25.0378C72.2172-25.0378 69.5135-22.3628 69.5135-18.5681C69.5135-16.9218 70.3005-15.0775 71.5029-13.8465L96.0348 11.3561C98.7282 14.1353 102.996 14.169 105.694 11.3561L130.255-13.8465C131.457-15.0775 132.244-16.9218 132.244-18.5681C132.244-22.3628 129.54-25.0378 125.774-25.0378C124.005-25.0378 122.489-24.4274 121.253-23.1628L109.468-10.8922L100.879-1.03878L92.1469-11.0349ZM49.8276-70.2886C49.7417-74.5966 46.8152-76.7753 43.8548-76.7753C40.9179-76.7753 37.9965-74.5966 37.882-70.2886L37.2993-53.5606L37.2993 6.94604C37.2993 10.6785 40.0835 13.4443 43.8262 13.4443C47.5689 13.4443 50.348 10.6785 50.348 6.94604L50.348-53.5606ZM23.4521-47.3064L35.0943-59.4343L43.8262-69.4305L52.4153-59.5771L64.2002-47.3064C65.4363-46.0418 66.9477-45.4314 68.7217-45.4314C72.4878-45.4314 75.1914-48.1065 75.1914-51.9012C75.1914-53.5761 74.4045-55.3918 73.2021-56.6228L48.6701-81.8254C45.9378-84.6383 41.6757-84.6045 39.0108-81.8254L14.4503-56.6228C13.2479-55.3918 12.4609-53.5761 12.4609-51.9012C12.4609-48.1065 15.1594-45.4314 18.9307-45.4314C20.6995-45.4314 22.2446-46.0418 23.4521-47.3064Z" data-clipstroke-keyframes="0 0 0 0.39572823 0.50280714 0 0.781332 0.812245 0.08631357 0 1 0.89799845 0.00051875494 0 0 2.6042824 2.497211 0 0.7813422 2.9136932 2.1877885 0 1 2.9994812 2.1020324"/>
  </g>
  <g id="Semibold-M" transform="matrix(1 0 0 1 1971.72 1126)">
   <path d="M105.052 0.937193L105.77-15.3856L105.77-77.6172C105.77-80.911 103.328-83.3302 100.02-83.3302C96.7119-83.3302 94.2699-80.911 94.2699-77.6172L94.2699-15.3856L95.025 0.937193C95.1732 4.4879 97.6044 6.29599 100.057 6.29599C102.547 6.29599 104.978 4.4879 105.052 0.937193ZM79.0915-22.3927C78.0141-23.5065 76.6881-24.0531 75.1106-24.0531C71.7916-24.0531 69.4158-21.7144 69.4158-18.3583C69.4158-16.9187 70.1162-15.2821 71.1866-14.1747L95.7363 11.016C98.1167 13.4698 101.879 13.5139 104.267 11.016L128.853-14.1747C129.924-15.2821 130.624-16.9187 130.624-18.3583C130.624-21.7144 128.248-24.0531 124.929-24.0531C123.352-24.0531 122.044-23.5065 120.948-22.3927L109.753-10.7756L100.02 0.519101L90.1959-10.8664ZM48.1341-71.4104C48.0229-74.9611 45.5846-76.7692 43.1021-76.7692C40.6495-76.7692 38.2183-74.9611 38.0701-71.4104L37.315-55.0876L37.315 7.14401C37.315 10.4378 39.757 12.857 43.065 12.857C46.373 12.857 48.8079 10.4378 48.8079 7.14401L48.8079-55.0876ZM22.1366-48.0805L33.241-59.6068L43.065-70.9923L52.7983-59.6976L63.9935-48.0805C65.0891-46.9667 66.3898-46.4201 67.9743-46.4201C71.2934-46.4201 73.6691-48.7588 73.6691-52.1149C73.6691-53.5915 72.9687-55.1911 71.8984-56.2985L47.3487-81.4892C44.917-83.9871 41.1618-83.943 38.8184-81.4892L14.2317-56.2985C13.1613-55.1911 12.4609-53.5915 12.4609-52.1149C12.4609-48.7588 14.8296-46.4201 18.1557-46.4201C19.7332-46.4201 21.0592-46.9667 22.1366-48.0805Z" data-clipstroke-keyframes="0 0 0 0.4094424 0.5056396 0 0.7902074 0.8294287 0.08568101 0 1 0.9145851 0.0004708604 0 0 2.590576 2.494392 0 0.7902205 2.9143307 2.1706235 0 1 2.9995294 2.0854645"/>
  </g>
  <g id="Medium-M" transform="matrix(1 0 0 1 1675.63 1126)">
   <path d="M103.687 1.78481L104.53-14.2308L104.53-77.7703C104.53-80.7315 102.347-82.8878 99.3687-82.8878C96.3903-82.8878 94.2078-80.7315 94.2078-77.7703L94.2078-14.2308L95.0936 1.78481C95.2673 4.76125 97.3268 6.28839 99.4122 6.28839C101.541 6.28839 103.6 4.76125 103.687 1.78481ZM78.02-21.8088C77.0411-22.8082 75.8813-23.3064 74.449-23.3064C71.4689-23.3064 69.3418-21.2227 69.3418-18.1992C69.3418-16.9164 69.9765-15.4373 70.9468-14.4236L95.5099 10.7581C97.653 12.9652 101.032 13.0172 103.184 10.7581L127.791-14.4236C128.761-15.4373 129.396-16.9164 129.396-18.1992C129.396-21.2227 127.269-23.3064 124.289-23.3064C122.856-23.3064 121.707-22.8082 120.718-21.8088L109.97-10.6872L99.3687 1.70035L88.7165-10.7386ZM46.8499-72.261C46.7196-75.2374 44.6515-76.7646 42.5313-76.7646C40.446-76.7646 38.3864-75.2374 38.2127-72.261L37.327-56.2454L37.327 7.29412C37.327 10.2553 39.5095 12.4116 42.4879 12.4116C45.4663 12.4116 47.6402 10.2553 47.6402 7.29412L47.6402-56.2454ZM21.1391-48.6674L31.8357-59.7376L42.4879-72.1765L53.0887-59.789L63.8367-48.6674C64.8258-47.668 65.9667-47.1698 67.4077-47.1698C70.3878-47.1698 72.5149-49.2535 72.5149-52.277C72.5149-53.6032 71.8801-55.0389 70.9099-56.0525L46.3467-81.2343C44.143-83.4934 40.7722-83.4414 38.6725-81.2343L14.0659-56.0525C13.0957-55.0389 12.4609-53.6032 12.4609-52.277C12.4609-49.2535 14.5795-47.1698 17.5681-47.1698C19.0005-47.1698 20.1603-47.668 21.1391-48.6674Z" data-clipstroke-keyframes="0 0 0 0.42021465 0.5066746 0 0.796937 0.8417157 0.08520226 0 1 0.9264219 0.00043497793 0 0 2.5798092 2.4933672 0 0.7969524 2.914814 2.158348 0 1 2.9995651 2.0736396"/>
  </g>
  <g id="Regular-M" transform="matrix(1 0 0 1 1379.72 1126)">
   <path d="M101.907 2.89039L102.912-12.7245L102.912-77.97C102.912-80.4974 101.068-82.3108 98.5193-82.3108C95.9709-82.3108 94.1268-80.4974 94.1268-77.97L94.1268-12.7245L95.183 2.89039C95.39 5.1178 96.9647 6.27848 98.5711 6.27848C100.229 6.27848 101.804 5.1178 101.907 2.89039ZM76.6223-21.0472C75.7721-21.8973 74.829-22.3325 73.5859-22.3325C71.048-22.3325 69.2452-20.5814 69.2452-17.9917C69.2452-16.9134 69.7943-15.6397 70.634-14.7483L95.2147 10.4218C97.0481 12.307 99.9282 12.3693 101.772 10.4218L126.405-14.7483C127.244-15.6397 127.794-16.9134 127.794-17.9917C127.794-20.5814 125.991-22.3325 123.453-22.3325C122.21-22.3325 121.267-21.8973 120.416-21.0472L110.252-10.572L98.5193 3.24111L86.787-10.572ZM45.175-73.3705C45.0197-75.5979 43.4344-76.7586 41.7869-76.7586C40.1805-76.7586 38.6058-75.5979 38.3988-73.3705L37.3426-57.7556L37.3426 7.48992C37.3426 10.0173 39.1866 11.8307 41.7351 11.8307C44.2836 11.8307 46.1171 10.0173 46.1171 7.48992L46.1171-57.7556ZM19.8381-49.4329L30.0027-59.9081L41.7351-73.7212L53.4675-59.9081L63.6322-49.4329C64.4823-48.5828 65.4149-48.1476 66.6686-48.1476C69.2065-48.1476 71.0093-49.8987 71.0093-52.4884C71.0093-53.6184 70.4601-54.8404 69.6205-55.7318L45.0398-80.9019C43.1335-82.8494 40.2639-82.7871 38.4822-80.9019L13.8497-55.7318C13.0101-54.8404 12.4609-53.6184 12.4609-52.4884C12.4609-49.8987 14.2532-48.1476 16.8017-48.1476C18.0448-48.1476 18.9879-48.5828 19.8381-49.4329Z" data-clipstroke-keyframes="0 0 0 0.43390152 0.50896317 0 0.8057148 0.85848445 0.08440857 0 1 0.94243705 0.00038794876 0 0 2.5661316 2.491095 0 0.8057332 2.9156148 2.1415977 0 1 2.9996123 2.0576437"/>
  </g>
  <g id="Light-M" transform="matrix(1 0 0 1 1084.26 1126)">
   <path d="M99.5461 3.93416L100.26-10.329L100.26-77.9187C100.26-79.7958 98.8605-81.2157 96.928-81.2157C94.9955-81.2157 93.5964-79.7958 93.5964-77.9187L93.5964-10.329L94.3446 3.93416C94.4831 5.63113 95.6814 6.55226 96.9627 6.55226C98.2786 6.55226 99.4768 5.63113 99.5461 3.93416ZM74.2781-20.2258C73.5648-20.9391 72.8099-21.2716 71.8748-21.2716C69.97-21.2716 68.5778-19.9141 68.5778-17.9746C68.5778-17.0674 69.0072-16.153 69.6928-15.4327L94.4275 9.63468C95.799 11.0408 97.9947 11.1031 99.3939 9.63468L124.163-15.4327C124.849-16.153 125.278-17.0674 125.278-17.9746C125.278-19.9141 123.886-21.2716 121.981-21.2716C121.046-21.2716 120.291-20.9391 119.578-20.2258L108.489-8.92931L96.928 4.04533L85.3668-8.92931ZM43.4639-74.4485C43.36-76.1454 42.134-77.0666 40.8458-77.0666C39.5645-77.0666 38.3662-76.1454 38.2277-74.4485L37.4795-60.1853L37.4795 7.40437C37.4795 9.28153 38.8786 10.7014 40.8111 10.7014C42.7436 10.7014 44.1151 9.28153 44.1151 7.40437L44.1151-60.1853ZM18.1612-50.2885L29.2499-61.585L40.8111-74.5596L52.3724-61.585L63.4611-50.2885C64.1744-49.5752 64.9016-49.2427 65.8643-49.2427C67.7692-49.2427 69.1613-50.6003 69.1613-52.5397C69.1613-53.4815 68.7319-54.3613 68.0463-55.0816L43.3116-80.149C41.8502-81.6174 39.6821-81.5551 38.3453-80.149L13.576-55.0816C12.8904-54.3613 12.4609-53.4815 12.4609-52.5397C12.4609-50.6003 13.8254-49.2427 15.7579-49.2427C16.693-49.2427 17.4479-49.5752 18.1612-50.2885Z" data-clipstroke-keyframes="0 0 0 0.44790435 0.50635815 0 0.82424456 0.8755614 0.07874947 0 1 0.95372206 0.00045148763 0 0 2.5520642 2.4936793 0 0.82425797 2.9212587 2.124461 0 1 2.9995487 2.0462854"/>
  </g>
  <g id="Thin-M" transform="matrix(1 0 0 1 789.216 1126)">
   <path d="M96.4231 5.31462L96.7519-7.1607L96.7519-77.8508C96.7519-78.868 95.9412-79.7673 94.8234-79.7673C93.7056-79.7673 92.8948-78.868 92.8948-77.8508L92.8948-7.1607L93.2357 5.31462C93.2837 6.31005 93.9841 6.91435 94.8354 6.91435C95.6987 6.91435 96.3991 6.31005 96.4231 5.31462ZM71.1777-19.1396C70.6455-19.6718 70.1395-19.8685 69.6118-19.8685C68.5443-19.8685 67.6952-19.0315 67.6952-17.952C67.6952-17.2711 67.9662-16.8319 68.4482-16.338L93.3865 8.59367C94.147 9.36614 95.4374 9.42845 96.2482 8.59367L121.199-16.338C121.681-16.8319 121.952-17.2711 121.952-17.952C121.952-19.0315 121.102-19.8685 120.035-19.8685C119.507-19.8685 119.001-19.6718 118.469-19.1396L106.158-6.75678L94.8234 5.10897L83.4884-6.75678ZM41.2008-75.8742C41.1648-76.8696 40.4141-77.4739 39.6011-77.4739C38.7498-77.4739 38.0494-76.8696 38.0014-75.8742L37.6605-63.3989L37.6605 7.29121C37.6605 8.30842 38.4713 9.20774 39.5891 9.20774C40.7069 9.20774 41.4673 8.30842 41.4673 7.29121L41.4673-63.3989ZM15.9434-51.42L28.2541-63.8028L39.5891-75.6685L50.924-63.8028L63.2348-51.42C63.767-50.8878 64.2227-50.6911 64.8007-50.6911C65.8682-50.6911 66.7172-51.5281 66.7172-52.6076C66.7172-53.3005 66.4462-53.7276 65.9643-54.2216L41.0259-79.1532C40.1529-79.988 38.9127-79.9257 38.1643-79.1532L13.2139-54.2216C12.7319-53.7276 12.4609-53.3005 12.4609-52.6076C12.4609-51.5281 13.2597-50.6911 14.3775-50.6911C14.9052-50.6911 15.4112-50.8878 15.9434-51.42Z" data-clipstroke-keyframes="0 0 0 0.46730673 0.5027752 0 0.8487518 0.8991542 0.07095059 0 1 0.9695249 0.00051246403 0 0 2.5325656 2.4972596 0 0.84875846 2.929037 2.1007767 0 1 2.9994874 2.0303824"/>
  </g>
  <g id="Ultralight-M" transform="matrix(1 0 0 1 493.357 1126)">
   <path d="M94.8235 6.02169L94.9553-5.53792L94.9553-77.816C94.9553-78.3927 94.4459-79.0255 93.7454-79.0255C93.0449-79.0255 92.5355-78.3927 92.5355-77.816L92.5355-5.53792L92.6677 6.02169C92.6694 6.65779 93.1148 7.09981 93.7458 7.09981C94.3773 7.09981 94.8227 6.65779 94.8235 6.02169ZM69.5897-18.5832C69.1502-19.0227 68.7717-19.1498 68.4526-19.1498C67.814-19.1498 67.2432-18.5794 67.2432-17.9404C67.2432-17.3754 67.433-17.1797 67.8106-16.8016L92.8533 8.06047C93.3008 8.50839 94.1276 8.57069 94.637 8.06047L119.68-16.8016C120.058-17.1797 120.248-17.3754 120.248-17.9404C120.248-18.5794 119.677-19.1498 119.038-19.1498C118.719-19.1498 118.341-19.0227 117.901-18.5832L104.964-5.64401L93.7454 5.65376L82.5263-5.64401ZM40.0417-76.6044C40.0404-77.2405 39.5332-77.6826 38.9636-77.6826C38.3325-77.6826 37.8871-77.2405 37.8855-76.6044L37.7533-65.0448L37.7533 7.23326C37.7533 7.80999 38.2627 8.44272 38.9632 8.44272C39.6637 8.44272 40.1112 7.80999 40.1112 7.23326L40.1112-65.0448ZM14.8075-51.9996L27.7441-64.9387L38.9632-76.2365L50.1822-64.9387L63.1189-51.9996C63.5584-51.5601 63.8749-51.4329 64.2559-51.4329C64.8945-51.4329 65.4654-52.0034 65.4654-52.6424C65.4654-53.2078 65.2755-53.4031 64.8979-53.7811L39.8552-78.6432C39.2835-79.1534 38.5186-79.0911 38.0715-78.6432L13.0284-53.7811C12.6508-53.4031 12.4609-53.2078 12.4609-52.6424C12.4609-52.0034 12.9699-51.4329 13.6704-51.4329C13.9895-51.4329 14.368-51.5601 14.8075-51.9996Z" data-clipstroke-keyframes="0 0 0 0.4791373 0.50095224 0 0.8613042 0.9130492 0.067020774 0 1 0.97958 0.0005346216 0 0 2.520706 2.4991422 0 0.8613075 2.9329598 2.0868976 0 1 2.9994652 2.0203469"/>
  </g>
  <g id="Black-S" transform="matrix(1 0 0 1 2874.71 696)">
   <path d="M88.1836-10.5469L88.1836-24.6094L88.1836-67.7734C88.1836-71.7773 85.1562-74.8047 81.1523-74.8047C77.1484-74.8047 74.1211-71.7773 74.1211-67.7734L74.1211-24.6094L74.1211-10.5469C74.1211-5.27344 77.6367-2.63672 81.1523-2.63672C84.668-2.63672 88.1836-5.27344 88.1836-10.5469ZM66.5527-27.6855C65.2832-29.0527 63.5254-29.6875 61.6699-29.6875C57.6172-29.6875 54.6875-26.7578 54.6875-22.7051C54.6875-20.8984 55.5176-18.9453 56.7871-17.6758L75.9766 2.09961C78.8574 5.07812 83.4473 5.07812 86.3281 2.09961L105.518-17.6758C106.787-18.9453 107.617-20.8984 107.617-22.7051C107.617-26.7578 104.688-29.6875 100.635-29.6875C98.7793-29.6875 97.0703-29.0527 95.752-27.6855L84.9609-16.3574L81.1523-12.3535L77.0996-16.6016ZM43.2617-59.9121C43.2617-65.1855 39.7461-67.8223 36.2305-67.8223C32.7148-67.8223 29.1992-65.1855 29.1992-59.9121L29.1992-45.8496L29.1992-2.68555C29.1992 1.31836 32.2266 4.3457 36.2305 4.3457C40.2344 4.3457 43.2617 1.31836 43.2617-2.68555L43.2617-45.8496ZM21.6309-42.7734L32.1777-53.8574L36.2305-58.1055L40.0391-54.1016L50.8301-42.7734C52.1484-41.4062 53.8574-40.7715 55.7129-40.7715C59.7656-40.7715 62.6953-43.7012 62.6953-47.7539C62.6953-49.5605 61.8652-51.5137 60.5957-52.7832L41.4062-72.5586C38.5254-75.5371 33.9355-75.5371 31.0547-72.5586L11.8652-52.7832C10.5957-51.5137 9.76562-49.5605 9.76562-47.7539C9.76562-43.7012 12.6953-40.7715 16.748-40.7715C18.6035-40.7715 20.3613-41.4062 21.6309-42.7734Z" data-clipstroke-keyframes="0 0 0 0.3563338 0.49581006 0 0.75387776 0.76392573 0.08821816 0 1 0.8514588 0.0006850972 0 0 2.6436663 2.50419 0 0.75387776 2.9117818 2.2360742 0 1 2.9993148 2.1485412"/>
  </g>
  <g id="Heavy-S" transform="matrix(1 0 0 1 2578.74 696)">
   <path d="M86.4895-9.44053L86.7085-23.2264L86.7085-68.0039C86.7085-71.6045 84.0038-74.2976 80.4033-74.2976C76.8027-74.2976 74.098-71.6045 74.098-68.0039L74.098-23.2264L74.3285-9.44053C74.3746-4.93923 77.3947-2.68282 80.4148-2.68282C83.4464-2.68282 86.4664-4.93923 86.4895-9.44053ZM65.285-26.9365C64.1423-28.1538 62.6034-28.731 60.9208-28.731C57.283-28.731 54.6645-26.124 54.6645-22.4746C54.6645-20.8754 55.4139-19.1067 56.5566-17.9524L75.7461 1.82302C78.3388 4.5019 82.4562 4.51343 85.0489 1.82302L104.25-17.9524C105.393-19.1067 106.142-20.8754 106.142-22.4746C106.142-26.124 103.524-28.731 99.8857-28.731C98.2031-28.731 96.7015-28.1538 95.5215-26.9365L85.5026-16.4381L80.4033-10.7286L75.1174-16.6246ZM41.6022-61.0185C41.5676-65.5198 38.5475-67.7762 35.516-67.7762C32.4959-67.7762 29.4758-65.5198 29.4297-61.0185L29.1992-47.2325L29.1992-2.45506C29.1992 1.14549 31.9039 3.83863 35.5044 3.83863C39.105 3.83863 41.8096 1.14549 41.8096-2.45506L41.8096-47.2325ZM20.3862-43.5225L30.2186-53.8344L35.5044-59.7304L40.6038-54.0209L50.6226-43.5225C51.8027-42.3052 53.3042-41.728 54.9868-41.728C58.6247-41.728 61.2432-44.335 61.2432-47.9844C61.2432-49.5951 60.4938-51.3523 59.3511-52.5066L40.1616-72.282C37.5573-74.9724 33.44-74.9609 30.8588-72.282L11.6578-52.5066C10.515-51.3523 9.76562-49.5951 9.76562-47.9844C9.76562-44.335 12.3842-41.728 16.022-41.728C17.7046-41.728 19.2435-42.3052 20.3862-43.5225Z" data-clipstroke-keyframes="0 0 0 0.37148574 0.49912238 0 0.76341563 0.78254646 0.08806167 0 1 0.8700112 0.00060344575 0 0 2.6285236 2.50089 0 0.7634207 2.9119415 2.2174718 0 1 2.9993966 2.1300085"/>
  </g>
  <g id="Bold-S" transform="matrix(1 0 0 1 2282.85 696)">
   <path d="M84.5947-8.20312L85.0586-21.6797L85.0586-68.2617C85.0586-71.4111 82.7148-73.7305 79.5654-73.7305C76.416-73.7305 74.0723-71.4111 74.0723-68.2617L74.0723-21.6797L74.5605-8.20312C74.6582-4.56543 77.124-2.73438 79.5898-2.73438C82.0801-2.73438 84.5459-4.56543 84.5947-8.20312ZM63.8672-26.0986C62.8662-27.1484 61.5723-27.6611 60.083-27.6611C56.9092-27.6611 54.6387-25.415 54.6387-22.2168C54.6387-20.8496 55.2979-19.2871 56.2988-18.2617L75.4883 1.51367C77.7588 3.85742 81.3477 3.88184 83.6182 1.51367L102.832-18.2617C103.833-19.2871 104.492-20.8496 104.492-22.2168C104.492-25.415 102.222-27.6611 99.0479-27.6611C97.5586-27.6611 96.2891-27.1484 95.2637-26.0986L86.1084-16.5283L79.5654-8.91113L72.9004-16.6504ZM39.7461-62.2559C39.6729-65.8936 37.207-67.7246 34.7168-67.7246C32.251-67.7246 29.7852-65.8936 29.6875-62.2559L29.1992-48.7793L29.1992-2.19727C29.1992 0.952148 31.543 3.27148 34.6924 3.27148C37.8418 3.27148 40.1855 0.952148 40.1855-2.19727L40.1855-48.7793ZM18.9941-44.3604L28.0273-53.8086L34.6924-61.5479L41.2354-53.9307L50.3906-44.3604C51.416-43.3105 52.6855-42.7979 54.1748-42.7979C57.3486-42.7979 59.6191-45.0439 59.6191-48.2422C59.6191-49.6338 58.96-51.1719 57.959-52.1973L38.7695-71.9727C36.4746-74.3408 32.8857-74.3164 30.6396-71.9727L11.4258-52.1973C10.4248-51.1719 9.76562-49.6338 9.76562-48.2422C9.76562-45.0439 12.0361-42.7979 15.21-42.7979C16.6992-42.7979 17.9932-43.3105 18.9941-44.3604Z" data-clipstroke-keyframes="0 0 0 0.38912186 0.5029717 0 0.77408326 0.80419695 0.08789666 0 1 0.8915943 0.000512466 0 0 2.6109014 2.497057 0 0.77409405 2.9121127 2.1958454 0 1 2.9994876 2.1084511"/>
  </g>
  <g id="Semibold-S" transform="matrix(1 0 0 1 1986.71 696)">
   <path d="M83.2884-7.35L83.9211-20.6133L83.9211-68.4395C83.9211-71.2778 81.8262-73.3395 78.9878-73.3395C76.1494-73.3395 74.0545-71.2778 74.0545-68.4395L74.0545-20.6133L74.7205-7.35C74.8537-4.30771 76.9374-2.76992 79.0211-2.76992C81.1381-2.76992 83.2218-4.30771 83.2884-7.35ZM62.8896-25.521C61.9864-26.4553 60.8613-26.9235 59.5054-26.9235C56.6515-26.9235 54.6209-24.9263 54.6209-22.0391C54.6209-20.8318 55.2179-19.4115 56.1211-18.475L75.3105 1.30039C77.3589 3.41309 80.5834 3.44639 82.6317 1.30039L101.854-18.475C102.758-19.4115 103.355-20.8318 103.355-22.0391C103.355-24.9263 101.324-26.9235 98.4702-26.9235C97.1143-26.9235 96.0047-26.4553 95.0859-25.521L86.5261-16.5905L78.9878-7.65811L71.3719-16.6682ZM38.4664-63.109C38.3665-66.1513 36.2828-67.6891 34.1658-67.6891C32.0821-67.6891 29.9984-66.1513 29.8652-63.109L29.1992-49.8457L29.1992-2.01953C29.1992 0.818848 31.2941 2.88047 34.1325 2.88047C36.9709 2.88047 39.0658 0.818848 39.0658-2.01953L39.0658-49.8457ZM18.0344-44.938L26.5166-53.7908L34.1325-62.8009L41.6708-53.8685L50.2307-44.938C51.1494-44.0037 52.259-43.5354 53.6149-43.5354C56.4688-43.5354 58.4994-45.5327 58.4994-48.4199C58.4994-49.6604 57.9024-51.0475 56.9992-51.984L37.8098-71.7594C35.7281-73.9054 32.5036-73.8721 30.4886-71.7594L11.2658-51.984C10.3626-51.0475 9.76562-49.6604 9.76562-48.4199C9.76562-45.5327 11.7962-43.5354 14.6501-43.5354C16.0061-43.5354 17.1312-44.0037 18.0344-44.938Z" data-clipstroke-keyframes="0 0 0 0.40223846 0.50636315 0 0.7814381 0.82069963 0.087902054 0 1 0.9081685 0.00045050387 0 0 2.5978005 2.4936836 0 0.7814528 2.9121144 2.1793694 0 1 2.9995496 2.0919058"/>
  </g>
  <g id="Medium-S" transform="matrix(1 0 0 1 1690.43 696)">
   <path d="M82.2979-6.70312L83.0586-19.8047L83.0586-68.5742C83.0586-71.1768 81.1523-73.043 78.5498-73.043C75.9473-73.043 74.041-71.1768 74.041-68.5742L74.041-19.8047L74.8418-6.70312C75.002-4.1123 76.7959-2.79688 78.5898-2.79688C80.4238-2.79688 82.2178-4.1123 82.2979-6.70312ZM62.1484-25.083C61.3193-25.9297 60.3223-26.3643 59.0674-26.3643C56.4561-26.3643 54.6074-24.5557 54.6074-21.9043C54.6074-20.8184 55.1572-19.5059 55.9863-18.6367L75.1758 1.13867C77.0557 3.07617 80.0039 3.11621 81.8838 1.13867L101.113-18.6367C101.942-19.5059 102.492-20.8184 102.492-21.9043C102.492-24.5557 100.644-26.3643 98.0322-26.3643C96.7773-26.3643 95.7891-25.9297 94.9512-25.083L86.8428-16.6377L78.5498-6.70801L70.2129-16.6816ZM37.4961-63.7559C37.376-66.3467 35.582-67.6621 33.748-67.6621C31.9541-67.6621 30.1602-66.3467 30-63.7559L29.1992-50.6543L29.1992-1.88477C29.1992 0.717773 31.1055 2.58398 33.708 2.58398C36.3105 2.58398 38.2168 0.717773 38.2168-1.88477L38.2168-50.6543ZM17.3066-45.376L25.3711-53.7773L33.708-63.751L42.001-53.8213L50.1094-45.376C50.9473-44.5293 51.9355-44.0947 53.1904-44.0947C55.8018-44.0947 57.6504-45.9033 57.6504-48.5547C57.6504-49.6807 57.1006-50.9531 56.2715-51.8223L37.082-71.5977C35.1621-73.5752 32.2139-73.5352 30.374-71.5977L11.1445-51.8223C10.3154-50.9531 9.76562-49.6807 9.76562-48.5547C9.76562-45.9033 11.6143-44.0947 14.2256-44.0947C15.4805-44.0947 16.4775-44.5293 17.3066-45.376Z" data-clipstroke-keyframes="0 0 0 0.41198218 0.5084039 0 0.78701484 0.83257717 0.08780891 0 1 0.9200035 0.0004030413 0 0 2.5880685 2.4916556 0 0.7870325 2.9122138 2.16751 0 1 2.999597 2.080091"/>
  </g>
  <g id="Regular-S" transform="matrix(1 0 0 1 1394.28 696)">
   <path d="M81.0059-5.85938L81.9336-18.75L81.9336-68.75C81.9336-71.0449 80.2734-72.6562 77.9785-72.6562C75.6836-72.6562 74.0234-71.0449 74.0234-68.75L74.0234-18.75L75-5.85938C75.1953-3.85742 76.6113-2.83203 78.0273-2.83203C79.4922-2.83203 80.9082-3.85742 81.0059-5.85938ZM61.1816-24.5117C60.4492-25.2441 59.6191-25.6348 58.4961-25.6348C56.2012-25.6348 54.5898-24.0723 54.5898-21.7285C54.5898-20.8008 55.0781-19.6289 55.8105-18.8477L75 0.927734C76.6602 2.63672 79.248 2.68555 80.9082 0.927734L100.146-18.8477C100.879-19.6289 101.367-20.8008 101.367-21.7285C101.367-24.0723 99.7559-25.6348 97.4609-25.6348C96.3379-25.6348 95.5078-25.2441 94.7754-24.5117L87.2559-16.6992L77.9785-5.46875L68.7012-16.6992ZM36.2305-64.5996C36.084-66.6016 34.668-67.627 33.2031-67.627C31.7871-67.627 30.3711-66.6016 30.1758-64.5996L29.1992-51.709L29.1992-1.70898C29.1992 0.585938 30.8594 2.19727 33.1543 2.19727C35.4492 2.19727 37.1094 0.585938 37.1094-1.70898L37.1094-51.709ZM16.3574-45.9473L23.877-53.7598L33.1543-64.9902L42.4316-53.7598L49.9512-45.9473C50.6836-45.2148 51.5137-44.8242 52.6367-44.8242C54.9316-44.8242 56.543-46.3867 56.543-48.7305C56.543-49.707 56.0547-50.8301 55.3223-51.6113L36.1328-71.3867C34.4238-73.1445 31.8359-73.0957 30.2246-71.3867L10.9863-51.6113C10.2539-50.8301 9.76562-49.707 9.76562-48.7305C9.76562-46.3867 11.377-44.8242 13.6719-44.8242C14.7949-44.8242 15.625-45.2148 16.3574-45.9473Z" data-clipstroke-keyframes="0 0 0 0.42553845 0.51052725 0 0.7942888 0.84826595 0.08779977 0 1 0.9357483 0.000341677 0 0 2.574531 2.4895515 0 0.79431033 2.9122329 2.1518495 0 1 2.9996586 2.0643768"/>
  </g>
  <g id="Light-S" transform="matrix(1 0 0 1 1098.68 696)">
   <path d="M78.917-4.93604L79.5874-16.6309L79.5874-68.7046C79.5874-70.4243 78.3208-71.6875 76.5708-71.6875C74.8208-71.6875 73.5542-70.4243 73.5542-68.7046L73.5542-16.6309L74.2583-4.93604C74.3931-3.40332 75.4761-2.58985 76.6045-2.58985C77.7666-2.58985 78.8496-3.40332 78.917-4.93604ZM59.1079-23.7852C58.4966-24.3965 57.833-24.6963 56.9824-24.6963C55.2476-24.6963 53.9995-23.4819 53.9995-21.7134C53.9995-20.937 54.3818-20.083 54.978-19.4531L74.3037 0.231451C75.5552 1.51661 77.5376 1.56544 78.8042 0.231451L98.1636-19.4531C98.7598-20.083 99.1421-20.937 99.1421-21.7134C99.1421-23.4819 97.8941-24.6963 96.1592-24.6963C95.3086-24.6963 94.645-24.3965 94.0337-23.7852L85.6968-15.2461L76.5708-4.75733L67.4448-15.2461ZM34.7168-65.5532C34.6157-67.0859 33.5176-67.8994 32.3706-67.8994C31.2422-67.8994 30.1592-67.0859 30.0244-65.5532L29.3203-53.8584L29.3203-1.78467C29.3203-0.0649363 30.5869 1.19825 32.3369 1.19825C34.0869 1.19825 35.3384-0.0649363 35.3384-1.78467L35.3384-53.8584ZM14.874-46.7041L23.2109-55.2432L32.3369-65.7319L41.4629-55.2432L49.7998-46.7041C50.4111-46.0928 51.0596-45.793 51.9253-45.793C53.6602-45.793 54.9082-47.0073 54.9082-48.7759C54.9082-49.5859 54.5259-50.4063 53.9297-51.0361L34.604-70.7207C33.2886-72.0547 31.3213-72.0059 30.1035-70.7207L10.7441-51.0361C10.148-50.4063 9.76562-49.5859 9.76562-48.7759C9.76562-47.0073 10.9985-45.793 12.7485-45.793C13.5991-45.793 14.2627-46.0928 14.874-46.7041Z" data-clipstroke-keyframes="0 0 0 0.4410035 0.5076398 0 0.8152047 0.8671507 0.08153532 0 1 0.94814754 0.0004223043 0 0 2.5589974 2.492406 0 0.81522053 2.9184804 2.1329017 0 1 2.999578 2.0518959"/>
  </g>
  <g id="Thin-S" transform="matrix(1 0 0 1 803.44 696)">
   <path d="M76.1543-3.71486L76.4844-13.8282L76.4844-68.6445C76.4844-69.6035 75.7383-70.4063 74.709-70.4063C73.6797-70.4063 72.9336-69.6035 72.9336-68.6445L72.9336-13.8282L73.2774-3.71486C73.332-2.80274 73.9746-2.26954 74.7227-2.26954C75.4844-2.26954 76.127-2.80274 76.1543-3.71486ZM56.3653-22.8242C55.9141-23.2754 55.4707-23.4551 54.9805-23.4551C53.9863-23.4551 53.2188-22.7012 53.2188-21.6934C53.2188-21.1172 53.461-20.6836 53.877-20.2539L73.3828-0.68944C74.0938 0.0351767 75.2754 0.0840049 76.0215-0.68944L95.5411-20.2539C95.9571-20.6836 96.1993-21.1172 96.1993-21.6934C96.1993-22.7012 95.4317-23.4551 94.4375-23.4551C93.9473-23.4551 93.5039-23.2754 93.0527-22.8242L83.6348-13.3242L74.709-3.81642L65.7832-13.3242ZM32.7149-66.8144C32.6739-67.7266 31.9961-68.2598 31.2695-68.2598C30.5215-68.2598 29.8789-67.7266 29.8242-66.8144L29.4805-56.7011L29.4805-1.88476C29.4805-0.925769 30.2266-0.123029 31.2559-0.123029C32.2852-0.123029 32.9961-0.925769 32.9961-1.88476L32.9961-56.7011ZM12.9121-47.7051L22.3301-57.2051L31.2559-66.7129L40.1817-57.2051L49.5996-47.7051C50.0508-47.2539 50.459-47.0742 50.9844-47.0742C51.9785-47.0742 52.7461-47.8281 52.7461-48.8359C52.7461-49.4258 52.5039-49.8457 52.0879-50.2754L32.5821-69.8399C31.7871-70.6133 30.6406-70.5645 29.9434-69.8399L10.4238-50.2754C10.0078-49.8457 9.76562-49.4258 9.76562-48.8359C9.76562-47.8281 10.4981-47.0742 11.5274-47.0742C12.0176-47.0742 12.461-47.2539 12.9121-47.7051Z" data-clipstroke-keyframes="0 0 0 0.46255338 0.5036503 0 0.8428676 0.89338183 0.07285645 0 1 0.9656363 0.00050030707 0 0 2.5373433 2.4963825 0 0.84287596 2.9271364 2.1065724 0 1 2.9994998 2.0342953"/>
  </g>
  <g id="Ultralight-S" transform="matrix(1 0 0 1 507.482 696)">
   <path d="M74.7393-3.08938L74.8951-12.3926L74.8951-68.6138C74.8951-69.1831 74.4156-69.75 73.7554-69.75C73.0952-69.75 72.6157-69.1831 72.6157-68.6138L72.6157-12.3926L72.7749-3.08938C72.7886-2.49513 73.2056-2.10547 73.7588-2.10547C74.3155-2.10547 74.7325-2.49513 74.7393-3.08938ZM54.9605-22.332C54.5914-22.7012 54.2608-22.8194 53.9551-22.8194C53.3404-22.8194 52.8189-22.3013 52.8189-21.6831C52.8189-21.2095 52.9893-20.9912 53.313-20.664L72.9111-1.16112C73.3452-0.723606 74.1167-0.674778 74.5962-1.16112L94.1978-20.664C94.5215-20.9912 94.6919-21.2095 94.6919-21.6831C94.6919-22.3013 94.1705-22.8194 93.5557-22.8194C93.25-22.8194 92.9195-22.7012 92.5503-22.332L82.5787-12.3399L73.7554-3.33449L64.9322-12.3399ZM31.6895-67.4604C31.6792-68.0547 31.2168-68.4443 30.7056-68.4443C30.1524-68.4443 29.7354-68.0547 29.7217-67.4604L29.5625-58.1572L29.5625-1.93603C29.5625-1.36668 30.042-0.799781 30.7022-0.799781C31.3623-0.799781 31.7964-1.36668 31.7964-1.93603L31.7964-58.1572ZM11.9073-48.2178L21.8789-58.2099L30.7022-67.2153L39.5254-58.2099L49.4971-48.2178C49.8662-47.8486 50.1514-47.7304 50.5025-47.7304C51.1172-47.7304 51.6387-48.2485 51.6387-48.8667C51.6387-49.3438 51.4683-49.5586 51.1446-49.8858L31.5464-69.3887C31.0181-69.875 30.292-69.8262 29.8613-69.3887L10.2598-49.8858C9.93604-49.5586 9.76562-49.3438 9.76562-48.8667C9.76562-48.2485 10.2417-47.7304 10.9019-47.7304C11.2075-47.7304 11.5381-47.8486 11.9073-48.2178Z" data-clipstroke-keyframes="0 0 0 0.47497067 0.5024441 0 0.8570365 0.9090591 0.06835565 0 1 0.9768874 0.0005277997 0 0 2.5249014 2.4976335 0 0.85704094 2.9316301 2.0909045 0 1 2.9994721 2.0230572"/>
  </g>
 </g>
 <g id="Data">
  <g id="Black-L-draw-attachment-data" data-d="0 1 0 2970.36 1563.45 1 0 2896.47 1478.08"/>
  <g id="Heavy-L-draw-attachment-data" data-d="0 1 0 2673.55 1565.06 1 0 2599.87 1476.47"/>
  <g id="Bold-L-draw-attachment-data" data-d="0 1 0 2376.68 1567.02 1 0 2303.33 1474.5"/>
  <g id="Semibold-L-draw-attachment-data" data-d="0 1 0 2079.86 1568.37 1 0 2006.74 1473.14"/>
  <g id="Medium-L-draw-attachment-data" data-d="0 1 0 1783.06 1569.39 1 0 1710.12 1472.11"/>
  <g id="Regular-L-draw-attachment-data" data-d="0 1 0 1486.24 1570.72 1 0 1413.52 1470.76"/>
  <g id="Light-L-draw-attachment-data" data-d="0 1 0 1189.15 1571.87 1 0 1117.17 1469.58"/>
  <g id="Thin-L-draw-attachment-data" data-d="0 1 0 891.936 1573.39 1 0 820.922 1468.01"/>
  <g id="Ultralight-L-draw-attachment-data" data-d="0 1 0 594.966 1574.17 1 0 524.45 1467.2"/>
  <g id="Black-M-draw-attachment-data" data-d="0 1 0 2962.06 1122.61 1 0 2904.75 1058.93"/>
  <g id="Heavy-M-draw-attachment-data" data-d="0 1 0 2665.29 1124.08 1 0 2608.11 1057.46"/>
  <g id="Bold-M-draw-attachment-data" data-d="0 1 0 2368.52 1125.72 1 0 2311.48 1055.81"/>
  <g id="Semibold-M-draw-attachment-data" data-d="0 1 0 2071.76 1126.84 1 0 2014.83 1054.68"/>
  <g id="Medium-M-draw-attachment-data" data-d="0 1 0 1775.02 1127.7 1 0 1718.16 1053.82"/>
  <g id="Regular-M-draw-attachment-data" data-d="0 1 0 1478.26 1128.82 1 0 1421.5 1052.7"/>
  <g id="Light-M-draw-attachment-data" data-d="0 1 0 1181.21 1129.85 1 0 1125.11 1051.64"/>
  <g id="Thin-M-draw-attachment-data" data-d="0 1 0 884.046 1131.21 1 0 828.817 1050.23"/>
  <g id="Ultralight-M-draw-attachment-data" data-d="0 1 0 587.103 1131.9 1 0 532.32 1049.51"/>
  <g id="Black-S-draw-attachment-data" data-d="0 1 0 2955.86 685.343 1 0 2910.94 636.198"/>
  <g id="Heavy-S-draw-attachment-data" data-d="0 1 0 2659.14 686.464 1 0 2614.25 635.077"/>
  <g id="Bold-S-draw-attachment-data" data-d="0 1 0 2362.43 687.717 1 0 2317.57 633.824"/>
  <g id="Semibold-S-draw-attachment-data" data-d="0 1 0 2065.71 688.581 1 0 2020.87 632.96"/>
  <g id="Medium-S-draw-attachment-data" data-d="0 1 0 1769 689.236 1 0 1724.17 632.305"/>
  <g id="Regular-S-draw-attachment-data" data-d="0 1 0 1472.28 690.09 1 0 1427.48 631.451"/>
  <g id="Light-S-draw-attachment-data" data-d="0 1 0 1175.27 691.001 1 0 1131.05 630.51"/>
  <g id="Thin-S-draw-attachment-data" data-d="0 1 0 878.156 692.204 1 0 834.709 629.266"/>
  <g id="Ultralight-S-draw-attachment-data" data-d="0 1 0 581.24 692.821 1 0 538.188 628.629"/>
 </g>
</svg>
