<?xml version="1.0" encoding="UTF-8"?>
<!--Generator: Apple Native CoreSVG 341-->
<!DOCTYPE svg
PUBLIC "-//W3C//DTD SVG 1.1//EN"
       "http://www.w3.org/Graphics/SVG/1.1/DTD/svg11.dtd">
<svg version="1.1" xmlns="http://www.w3.org/2000/svg" xmlns:xlink="http://www.w3.org/1999/xlink" viewBox="0 0 3300 2200">
 <g id="Notes">
  <rect height="2200" id="artboard" style="fill:white;opacity:1" width="3300" x="0" y="0"/>
  <line style="fill:none;stroke:black;opacity:1;stroke-width:0.5;" x1="263" x2="3036" y1="292" y2="292"/>
  <text style="stroke:none;fill:black;font-family:sans-serif;font-size:13;font-weight:bold;" transform="matrix(1 0 0 1 263 322)">Weight/Scale Variations</text>
  <text style="stroke:none;fill:black;font-family:sans-serif;font-size:13;text-anchor:middle;" transform="matrix(1 0 0 1 559.711 322)">Ultralight</text>
  <text style="stroke:none;fill:black;font-family:sans-serif;font-size:13;text-anchor:middle;" transform="matrix(1 0 0 1 856.422 322)">Thin</text>
  <text style="stroke:none;fill:black;font-family:sans-serif;font-size:13;text-anchor:middle;" transform="matrix(1 0 0 1 1153.13 322)">Light</text>
  <text style="stroke:none;fill:black;font-family:sans-serif;font-size:13;text-anchor:middle;" transform="matrix(1 0 0 1 1449.84 322)">Regular</text>
  <text style="stroke:none;fill:black;font-family:sans-serif;font-size:13;text-anchor:middle;" transform="matrix(1 0 0 1 1746.56 322)">Medium</text>
  <text style="stroke:none;fill:black;font-family:sans-serif;font-size:13;text-anchor:middle;" transform="matrix(1 0 0 1 2043.27 322)">Semibold</text>
  <text style="stroke:none;fill:black;font-family:sans-serif;font-size:13;text-anchor:middle;" transform="matrix(1 0 0 1 2339.98 322)">Bold</text>
  <text style="stroke:none;fill:black;font-family:sans-serif;font-size:13;text-anchor:middle;" transform="matrix(1 0 0 1 2636.69 322)">Heavy</text>
  <text style="stroke:none;fill:black;font-family:sans-serif;font-size:13;text-anchor:middle;" transform="matrix(1 0 0 1 2933.4 322)">Black</text>
  <line style="fill:none;stroke:black;opacity:1;stroke-width:0.5;" x1="263" x2="3036" y1="1903" y2="1903"/>
  <g transform="matrix(0.2 0 0 0.2 263 1933)">
   <path d="m46.2402 4.15039c21.7773 0 39.4531-17.627 39.4531-39.4043s-17.6758-39.4043-39.4531-39.4043c-21.7285 0-39.4043 17.627-39.4043 39.4043s17.6758 39.4043 39.4043 39.4043Zm0-7.42188c-17.6758 0-31.9336-14.3066-31.9336-31.9824s14.2578-31.9824 31.9336-31.9824 31.9824 14.3066 31.9824 31.9824-14.3066 31.9824-31.9824 31.9824Zm3.61328-17.7734v-28.4668c0-2.24609-1.46484-3.75977-3.71094-3.75977-2.14844 0-3.61328 1.51367-3.61328 3.75977v28.4668c0 2.19727 1.46484 3.71094 3.61328 3.71094 2.24609 0 3.71094-1.51367 3.71094-3.71094Zm-17.8223-10.5957h28.418c2.19727 0 3.71094-1.46484 3.71094-3.61328 0-2.19727-1.51367-3.71094-3.71094-3.71094h-28.418c-2.24609 0-3.75977 1.51367-3.75977 3.71094 0 2.14844 1.51367 3.61328 3.75977 3.61328Z"/>
  </g>
  <g transform="matrix(0.2 0 0 0.2 281.506 1933)">
   <path d="m58.5449 14.5508c27.4902 0 49.8047-22.3145 49.8047-49.8047s-22.3145-49.8047-49.8047-49.8047-49.8047 22.3145-49.8047 49.8047 22.3145 49.8047 49.8047 49.8047Zm0-8.30078c-22.9492 0-41.5039-18.5547-41.5039-41.5039s18.5547-41.5039 41.5039-41.5039 41.5039 18.5547 41.5039 41.5039-18.5547 41.5039-41.5039 41.5039Zm4.05273-23.0957v-36.9141c0-2.49023-1.70898-4.19922-4.15039-4.19922-2.39258 0-4.05273 1.70898-4.05273 4.19922v36.9141c0 2.44141 1.66016 4.15039 4.05273 4.15039 2.44141 0 4.15039-1.66016 4.15039-4.15039Zm-22.5586-14.4043h36.9629c2.44141 0 4.15039-1.61133 4.15039-4.00391 0-2.44141-1.70898-4.15039-4.15039-4.15039h-36.9629c-2.49023 0-4.15039 1.70898-4.15039 4.15039 0 2.39258 1.66016 4.00391 4.15039 4.00391Z"/>
  </g>
  <g transform="matrix(0.2 0 0 0.2 304.924 1933)">
   <path d="m74.8535 28.3203c35.1074 0 63.623-28.4668 63.623-63.5742s-28.5156-63.623-63.623-63.623-63.5742 28.5156-63.5742 63.623 28.4668 63.5742 63.5742 63.5742Zm0-9.08203c-30.127 0-54.4922-24.3652-54.4922-54.4922s24.3652-54.4922 54.4922-54.4922 54.4922 24.3652 54.4922 54.4922-24.3652 54.4922-54.4922 54.4922Zm4.44336-30.3223v-48.4863c0-2.73438-1.85547-4.63867-4.54102-4.63867-2.58789 0-4.44336 1.9043-4.44336 4.63867v48.4863c0 2.68555 1.85547 4.58984 4.44336 4.58984 2.68555 0 4.54102-1.85547 4.54102-4.58984Zm-28.7109-19.7754h48.4863c2.68555 0 4.58984-1.80664 4.58984-4.39453 0-2.73438-1.85547-4.58984-4.58984-4.58984h-48.4863c-2.73438 0-4.58984 1.85547-4.58984 4.58984 0 2.58789 1.85547 4.39453 4.58984 4.39453Z"/>
  </g>
  <text style="stroke:none;fill:black;font-family:sans-serif;font-size:13;font-weight:bold;" transform="matrix(1 0 0 1 263 1953)">Design Variations</text>
  <text style="stroke:none;fill:black;font-family:sans-serif;font-size:13;" transform="matrix(1 0 0 1 263 1971)">Symbols are supported in up to nine weights and three scales.</text>
  <text style="stroke:none;fill:black;font-family:sans-serif;font-size:13;" transform="matrix(1 0 0 1 263 1989)">For optimal layout with text and other symbols, vertically align</text>
  <text style="stroke:none;fill:black;font-family:sans-serif;font-size:13;" transform="matrix(1 0 0 1 263 2007)">symbols with the adjacent text.</text>
  <line style="fill:none;stroke:#00AEEF;stroke-width:0.5;opacity:1.0;" x1="776" x2="776" y1="1919" y2="1933"/>
  <g transform="matrix(0.2 0 0 0.2 776 1933)">
   <path d="m16.5527 0.78125c2.58789 0 3.85742-0.976562 4.78516-3.71094l20.5566-57.5195h0.244141l20.6055 57.5195c0.927734 2.73438 2.19727 3.71094 4.73633 3.71094 2.58789 0 4.24805-1.5625 4.24805-4.00391 0-0.830078-0.146484-1.61133-0.537109-2.63672l-22.9004-60.9863c-1.12305-2.97852-3.125-4.49219-6.25-4.49219-3.02734 0-5.07812 1.46484-6.15234 4.44336l-22.9004 61.084c-0.390625 1.02539-0.537109 1.80664-0.537109 2.63672 0 2.44141 1.5625 3.95508 4.10156 3.95508Zm10.2051-20.9473h30.6641c2.00195 0 3.66211-1.66016 3.66211-3.66211 0-2.05078-1.66016-3.66211-3.66211-3.66211h-30.6641c-2.00195 0-3.66211 1.61133-3.66211 3.66211 0 2.00195 1.66016 3.66211 3.66211 3.66211Z"/>
  </g>
  <line style="fill:none;stroke:#00AEEF;stroke-width:0.5;opacity:1.0;" x1="792.836" x2="792.836" y1="1919" y2="1933"/>
  <text style="stroke:none;fill:black;font-family:sans-serif;font-size:13;font-weight:bold;" transform="matrix(1 0 0 1 776 1953)">Margins</text>
  <text style="stroke:none;fill:black;font-family:sans-serif;font-size:13;" transform="matrix(1 0 0 1 776 1971)">Leading and trailing margins on the left and right side of each symbol</text>
  <text style="stroke:none;fill:black;font-family:sans-serif;font-size:13;" transform="matrix(1 0 0 1 776 1989)">can be adjusted by modifying the x-location of the margin guidelines.</text>
  <text style="stroke:none;fill:black;font-family:sans-serif;font-size:13;" transform="matrix(1 0 0 1 776 2007)">Modifications are automatically applied proportionally to all</text>
  <text style="stroke:none;fill:black;font-family:sans-serif;font-size:13;" transform="matrix(1 0 0 1 776 2025)">scales and weights.</text>
  <g transform="matrix(0.2 0 0 0.2 1289 1933)">
   <path d="m14.209 13.1348 7.86133 7.86133c4.29688 4.39453 9.32617 4.10156 13.8672-1.02539l60.6934-68.2129-4.88281-4.88281-60.2539 67.6758c-1.80664 1.95312-3.4668 2.44141-5.81055 0.0976562l-5.17578-5.12695c-2.29492-2.29492-1.80664-3.95508 0.195312-5.81055l67.4805-62.1582-4.88281-4.83398-68.0664 62.5977c-4.98047 4.58984-5.32227 9.47266-1.02539 13.8184Zm44.873-97.4609c-2.05078 2.00195-2.24609 4.88281-1.07422 6.78711 1.12305 1.80664 3.4668 3.02734 6.5918 2.24609 5.85938-1.66016 12.5977-2.39258 18.8965 0.927734l-2.68555 7.12891c-1.61133 4.00391-0.732422 6.88477 1.70898 9.42383l10.2539 10.3027c2.34375 2.39258 4.54102 2.44141 7.08008 1.95312l4.44336-0.732422 2.58789 2.53906-0.195312 2.24609c-0.0976562 2.29492 0.537109 4.29688 2.7832 6.49414l3.36914 3.32031c2.29492 2.29492 5.51758 2.49023 7.8125 0.195312l12.9883-13.0371c2.29492-2.34375 2.14844-5.37109-0.195312-7.66602l-3.41797-3.41797c-2.19727-2.19727-4.05273-3.02734-6.34766-2.88086l-2.34375 0.244141-2.44141-2.44141 1.02539-4.6875c0.634766-2.73438-0.244141-4.98047-2.88086-7.61719l-11.2793-11.1816c-12.9395-12.8418-35.5957-11.0352-46.6797-0.146484Zm7.08008 2.05078c8.78906-6.39648 25.9766-5.66406 33.6914 1.95312l12.3047 12.207c1.02539 1.02539 1.2207 1.80664 0.927734 3.32031l-1.46484 6.64062 6.73828 6.68945 4.39453-0.244141c1.12305-0.0488281 1.51367 0.0488281 2.34375 0.878906l2.53906 2.49023-10.8398 10.8398-2.49023-2.49023c-0.830078-0.878906-0.976562-1.2207-0.927734-2.39258l0.292969-4.3457-6.68945-6.73828-6.83594 1.17188c-1.41602 0.292969-2.05078 0.195312-3.17383-0.878906l-8.93555-8.88672c-1.07422-1.02539-1.17188-1.70898-0.488281-3.36914l4.58984-11.4746c-6.10352-6.34766-17.041-7.51953-25.5859-4.58984-0.683594 0.244141-0.927734-0.390625-0.390625-0.78125Z"/>
  </g>
  <text style="stroke:none;fill:black;font-family:sans-serif;font-size:13;font-weight:bold;" transform="matrix(1 0 0 1 1289 1953)">Exporting</text>
  <text style="stroke:none;fill:black;font-family:sans-serif;font-size:13;" transform="matrix(1 0 0 1 1289 1971)">Symbols should be outlined when exporting to ensure the</text>
  <text style="stroke:none;fill:black;font-family:sans-serif;font-size:13;" transform="matrix(1 0 0 1 1289 1989)">design is preserved when submitting to Xcode.</text>
  <text id="template-version" style="stroke:none;fill:black;font-family:sans-serif;font-size:13;text-anchor:end;" transform="matrix(1 0 0 1 3036 1933)">Template v.2.0</text>
  <text style="stroke:none;fill:black;font-family:sans-serif;font-size:13;text-anchor:end;" transform="matrix(1 0 0 1 3036 1951)">Requires Xcode 12 or greater</text>
  <text id="descriptive-name" style="stroke:none;fill:black;font-family:sans-serif;font-size:13;text-anchor:end;" transform="matrix(1 0 0 1 3036 1969)">Generated from trash</text>
  <text style="stroke:none;fill:black;font-family:sans-serif;font-size:13;text-anchor:end;" transform="matrix(1 0 0 1 3036 1987)">Typeset at 100.0 points</text>
  <text style="stroke:none;fill:black;font-family:sans-serif;font-size:13;" transform="matrix(1 0 0 1 263 726)">Small</text>
  <text style="stroke:none;fill:black;font-family:sans-serif;font-size:13;" transform="matrix(1 0 0 1 263 1156)">Medium</text>
  <text style="stroke:none;fill:black;font-family:sans-serif;font-size:13;" transform="matrix(1 0 0 1 263 1586)">Large</text>
 </g>
 <g id="Guides">
  <g id="H-reference" style="fill:#27AAE1;stroke:none;" transform="matrix(1 0 0 1 339 696)">
   <path d="M0.993654 0L3.63775 0L29.3281-67.1323L30.0303-67.1323L30.0303-70.459L28.1226-70.459ZM11.6885-24.4799L46.9815-24.4799L46.2315-26.7285L12.4385-26.7285ZM55.1196 0L57.7637 0L30.6382-70.459L29.4326-70.459L29.4326-67.1323Z"/>
  </g>
  <line id="Baseline-S" style="fill:none;stroke:#27AAE1;opacity:1;stroke-width:0.5;" x1="263" x2="3036" y1="696" y2="696"/>
  <line id="Capline-S" style="fill:none;stroke:#27AAE1;opacity:1;stroke-width:0.5;" x1="263" x2="3036" y1="625.541" y2="625.541"/>
  <g id="H-reference" style="fill:#27AAE1;stroke:none;" transform="matrix(1 0 0 1 339 1126)">
   <path d="M0.993654 0L3.63775 0L29.3281-67.1323L30.0303-67.1323L30.0303-70.459L28.1226-70.459ZM11.6885-24.4799L46.9815-24.4799L46.2315-26.7285L12.4385-26.7285ZM55.1196 0L57.7637 0L30.6382-70.459L29.4326-70.459L29.4326-67.1323Z"/>
  </g>
  <line id="Baseline-M" style="fill:none;stroke:#27AAE1;opacity:1;stroke-width:0.5;" x1="263" x2="3036" y1="1126" y2="1126"/>
  <line id="Capline-M" style="fill:none;stroke:#27AAE1;opacity:1;stroke-width:0.5;" x1="263" x2="3036" y1="1055.54" y2="1055.54"/>
  <g id="H-reference" style="fill:#27AAE1;stroke:none;" transform="matrix(1 0 0 1 339 1556)">
   <path d="M0.993654 0L3.63775 0L29.3281-67.1323L30.0303-67.1323L30.0303-70.459L28.1226-70.459ZM11.6885-24.4799L46.9815-24.4799L46.2315-26.7285L12.4385-26.7285ZM55.1196 0L57.7637 0L30.6382-70.459L29.4326-70.459L29.4326-67.1323Z"/>
  </g>
  <line id="Baseline-L" style="fill:none;stroke:#27AAE1;opacity:1;stroke-width:0.5;" x1="263" x2="3036" y1="1556" y2="1556"/>
  <line id="Capline-L" style="fill:none;stroke:#27AAE1;opacity:1;stroke-width:0.5;" x1="263" x2="3036" y1="1485.54" y2="1485.54"/>
  <line id="right-margin" style="fill:none;stroke:#00AEEF;stroke-width:0.5;opacity:1.0;" x1="1504.57" x2="1504.57" y1="1030.79" y2="1150.12"/>
  <line id="left-margin" style="fill:none;stroke:#00AEEF;stroke-width:0.5;opacity:1.0;" x1="1395.12" x2="1395.12" y1="1030.79" y2="1150.12"/>
 </g>
 <g id="Symbols">
  <g id="Black-L" transform="matrix(1 0 0 1 2857.79 1556)">
   <path d="M57.3725 7.51978C60.9566 7.51978 63.1739 5.20404 63.0947 1.80164L61.2367-59.4802C61.1574-62.845 58.8197-65.0791 55.3393-65.0791C51.894-65.0791 49.7131-62.8242 49.7923-59.4194L51.6503 1.91965C51.7295 5.28446 54.0649 7.51978 57.3725 7.51978ZM75.6074 7.51978C79.0151 7.51978 81.3129 5.32205 81.3129 1.97686L81.3129-59.5362C81.3129-62.8814 79.0151-65.0791 75.6074-65.0791C72.201-65.0791 69.902-62.8814 69.902-59.5362L69.902 1.97686C69.902 5.32205 72.201 7.51978 75.6074 7.51978ZM93.862 7.52217C97.15 7.52217 99.5062 5.28566 99.5854 1.92085L101.423-59.4182C101.502-62.823 99.3405-65.0779 95.8756-65.0779C92.394-65.0779 90.0563-62.823 89.977-59.479L88.1398 1.80284C88.0606 5.20524 90.2791 7.52217 93.862 7.52217ZM43.6659-86.4493L60.9186-86.4493L60.9186-98.1433C60.9186-100.302 62.3902-101.552 64.9277-101.552L86.2652-101.552C88.783-101.552 90.2546-100.302 90.2546-98.1433L90.2546-86.4493L107.528-86.4493L107.528-98.5851C107.528-109.967 100.541-116.165 87.5807-116.165L63.5914-116.165C50.6532-116.165 43.6659-109.967 43.6659-98.5851ZM18.1738-73.3257L133.041-73.3257C137.971-73.3257 141.563-76.7061 141.563-81.6351C141.563-86.4498 137.949-89.8278 133.041-89.8278L18.1738-89.8278C13.2864-89.8278 9.65039-86.4486 9.65039-81.6351C9.65039-76.7049 13.2864-73.3257 18.1738-73.3257ZM46.4174 32.4327L104.818 32.4327C116.676 32.4327 123.675 26.3768 124.213 14.4428L128.237-74.5856L111.135-74.5856L107.329 9.80485C107.167 13.5549 105.433 15.5802 102.285 15.5802L48.9063 15.5802C45.8015 15.5802 44.0462 13.5341 43.8842 9.80485L40.0152-74.5844L22.9782-74.5844L27.0236 14.4636C27.5621 26.3976 34.5186 32.4327 46.4174 32.4327Z"/>
  </g>
  <g id="Heavy-L" transform="matrix(1 0 0 1 2562.31 1556)">
   <path d="M56.038 7.9064C59.3181 7.9064 61.3545 5.79971 61.2797 2.7106L59.3908-60.1697C59.316-63.2443 57.1735-65.265 54.0152-65.265C50.8601-65.265 48.8325-63.2141 48.9073-60.1138L50.7963 2.80546C50.8711 5.88013 53.0023 7.9064 56.038 7.9064ZM74.3865 7.9064C77.5272 7.9064 79.644 5.89456 79.644 2.84447L79.644-60.2031C79.644-63.2531 77.5272-65.265 74.3865-65.265C71.2515-65.265 69.1291-63.2531 69.1291-60.2031L69.1291 2.84447C69.1291 5.89456 71.2515 7.9064 74.3865 7.9064ZM92.7597 7.91763C95.7708 7.91763 97.9322 5.88574 98.007 2.81107L99.8658-60.1082C99.9406-63.2085 97.9376-65.2594 94.7579-65.2594C91.594-65.2594 89.4515-63.2085 89.3767-60.164L87.5179 2.71621C87.4431 5.80532 89.4852 7.91763 92.7597 7.91763ZM43.5099-85.4636L58.8973-85.4636L58.8973-97.5628C58.8973-100.108 60.6331-101.627 63.5098-101.627L85.2275-101.627C88.0796-101.627 89.8154-100.108 89.8154-97.5628L89.8154-85.4636L105.233-85.4636L105.233-98.0431C105.233-108.842 98.5226-114.869 86.366-114.869L62.3411-114.869C50.2203-114.869 43.5099-108.842 43.5099-98.0431ZM17.1988-74.3339L131.574-74.3339C135.921-74.3339 139.117-77.3873 139.117-81.7284C139.117-85.9915 135.885-89.0336 131.574-89.0336L17.1988-89.0336C12.918-89.0336 9.65039-85.9859 9.65039-81.7284C9.65039-77.3816 12.918-74.3339 17.1988-74.3339ZM45.2997 31.6767L103.504 31.6767C114.628 31.6767 121.395 25.6925 121.911 14.5042L126.037-75.5624L110.737-75.5624L106.81 10.7325C106.644 14.508 104.66 16.7093 101.35 16.7093L47.3821 16.7093C44.1378 16.7093 42.1238 14.4779 41.9574 10.7325L37.9345-75.5568L22.7357-75.5568L26.8981 14.5344C27.414 25.7227 34.1146 31.6767 45.2997 31.6767Z"/>
  </g>
  <g id="Bold-L" transform="matrix(1 0 0 1 2267.05 1556)">
   <path d="M54.4381 8.39779C57.3193 8.39779 59.1105 6.55973 59.0433 3.87729L57.1011-61.0748C57.0339-63.766 55.1446-65.5104 52.4082-65.5104C49.6366-65.5104 47.8234-63.728 47.8906-61.0191L49.8328 3.94893C49.9 6.64015 51.7628 8.39779 54.4381 8.39779ZM72.9325 8.39779C75.7129 8.39779 77.5845 6.63136 77.5845 3.9649L77.5845-61.0775C77.5845-63.744 75.7129-65.5104 72.9325-65.5104C70.1653-65.5104 68.2804-63.744 68.2804-61.0775L68.2804 3.9649C68.2804 6.63136 70.1653 8.39779 72.9325 8.39779ZM91.4516 8.42425C94.1021 8.42425 96.0029 6.65338 96.0701 3.96216L97.9744-61.0059C98.0416-63.7148 96.2531-65.4972 93.4567-65.4972C90.7071-65.4972 88.8178-63.7148 88.7506-61.0615L86.8464 3.89052C86.7792 6.57296 88.5836 8.42425 91.4516 8.42425ZM43.3327-84.3983L56.3551-84.3983L56.3551-96.9374C56.3551-99.9813 58.4212-101.831 61.7577-101.831L84.056-101.831C87.3678-101.831 89.4339-99.9813 89.4339-96.9374L89.4339-84.3983L102.494-84.3983L102.494-97.4341C102.494-107.504 96.1445-113.285 84.9643-113.285L60.8115-113.285C49.6825-113.285 43.3327-107.504 43.3327-97.4341ZM15.9849-75.6385L129.88-75.6385C133.505-75.6385 136.201-78.2697 136.201-81.8809C136.201-85.4602 133.453-88.065 129.88-88.065L15.9849-88.065C12.4496-88.065 9.65039-85.447 9.65039-81.8809C9.65039-78.2565 12.4496-75.6385 15.9849-75.6385ZM43.9985 30.7989L101.904 30.7989C112.1 30.7989 118.582 24.9218 119.067 14.6854L123.347-76.8211L110.334-76.8211L106.232 11.9148C106.058 15.7509 103.744 18.1972 100.212 18.1972L45.5888 18.1972C42.1455 18.1972 39.794 15.7129 39.6199 11.9148L35.3901-76.8078L22.518-76.8078L26.8487 14.7234C27.3339 24.9597 33.7269 30.7989 43.9985 30.7989Z"/>
  </g>
  <g id="Semibold-L" transform="matrix(1 0 0 1 1971.35 1556)">
   <path d="M53.3351 8.73655C55.9414 8.73655 57.5635 7.08368 57.5016 4.6816L55.5226-61.6988C55.4606-64.1256 53.7459-65.6796 51.3004-65.6796C48.7931-65.6796 47.1277-64.0823 47.1896-61.6432L49.1686 4.73723C49.2306 7.1641 50.9083 8.73655 53.3351 8.73655ZM71.93 8.73655C74.4621 8.73655 76.1647 7.13931 76.1647 4.73732L76.1647-61.6804C76.1647-64.0824 74.4621-65.6796 71.93-65.6796C69.4164-65.6796 67.6954-64.0824 67.6954-61.6804L67.6954 4.73732C67.6954 7.13931 69.4164 8.73655 71.93 8.73655ZM90.5499 8.77351C92.9518 8.77351 94.6729 7.18258 94.7348 4.75571L96.6705-61.6247C96.7324-64.0638 95.0919-65.6611 92.5597-65.6611C90.0957-65.6611 88.381-64.0638 88.3191-61.6803L86.3834 4.70008C86.3214 7.10216 87.9621 8.77351 90.5499 8.77351ZM43.2105-83.664L54.6025-83.664L54.6025-96.5064C54.6025-99.8941 56.8964-101.972 60.5498-101.972L83.2484-101.972C86.877-101.972 89.1708-99.8941 89.1708-96.5064L89.1708-83.664L100.606-83.664L100.606-97.0143C100.606-106.581 94.505-112.193 83.998-112.193L59.7569-112.193C49.3117-112.193 43.2105-106.581 43.2105-97.0143ZM15.1481-76.5378L128.712-76.5378C131.839-76.5378 134.191-78.8781 134.191-81.9861C134.191-85.0939 131.777-87.3972 128.712-87.3972L15.1481-87.3972C12.1268-87.3972 9.65039-85.0755 9.65039-81.9861C9.65039-78.8596 12.1268-76.5378 15.1481-76.5378ZM43.1015 30.1938L100.802 30.1938C110.357 30.1938 116.643 24.3904 117.107 14.8102L121.492-77.6888L110.057-77.6888L105.833 12.7299C105.654 16.6077 103.113 19.223 99.4272 19.223L44.3525 19.223C40.772 19.223 38.1878 16.5644 38.0085 12.7299L33.636-77.6703L22.3679-77.6703L26.8146 14.8536C27.2788 24.4338 33.4596 30.1938 43.1015 30.1938Z"/>
  </g>
  <g id="Medium-L" transform="matrix(1 0 0 1 1675.4 1556)">
   <path d="M52.4988 8.99341C54.8966 8.99341 56.3905 7.48096 56.3326 5.29146L54.3257-62.1719C54.2677-64.3983 52.6853-65.8079 50.4604-65.8079C48.1535-65.8079 46.6002-64.3509 46.6581-62.1164L48.665 5.33495C48.723 7.56138 50.2604 8.99341 52.4988 8.99341ZM71.17 8.99341C73.5137 8.99341 75.0881 7.52445 75.0881 5.323L75.0881-62.1375C75.0881-64.3389 73.5137-65.8079 71.17-65.8079C68.8486-65.8079 67.2518-64.3389 67.2518-62.1375L67.2518 5.323C67.2518 7.52445 68.8486 8.99341 71.17 8.99341ZM89.8661 9.03833C92.0795 9.03833 93.6644 7.58385 93.7223 5.35741L95.6818-62.094C95.7397-64.3284 94.2114-65.7854 91.8796-65.7854C89.6321-65.7854 88.0498-64.3284 87.9918-62.1494L86.0323 5.31392C85.9744 7.50343 87.4908 9.03833 89.8661 9.03833ZM43.1178-83.1072L53.2736-83.1072L53.2736-96.1795C53.2736-99.828 55.7401-102.078 59.634-102.078L82.636-102.078C86.5049-102.078 88.9714-99.828 88.9714-96.1795L88.9714-83.1072L99.1746-83.1072L99.1746-96.696C99.1746-105.881 93.2619-111.366 83.2653-111.366L58.9573-111.366C49.0306-111.366 43.1178-105.881 43.1178-96.696ZM14.5135-77.2197L127.826-77.2197C130.575-77.2197 132.667-79.3393 132.667-82.0658C132.667-84.8162 130.505-86.8909 127.826-86.8909L14.5135-86.8909C11.8819-86.8909 9.65039-84.7937 9.65039-82.0658C9.65039-79.3169 11.8819-77.2197 14.5135-77.2197ZM42.4213 29.7349L99.966 29.7349C109.036 29.7349 115.173 23.9875 115.621 14.9049L120.086-78.3467L109.847-78.3467L105.531 13.3479C105.347 17.2574 102.634 20.0007 98.8324 20.0007L43.4151 20.0007C39.7306 20.0007 36.97 17.21 36.7866 13.3479L32.306-78.3242L22.2541-78.3242L26.7888 14.9524C27.2369 24.0349 33.2569 29.7349 42.4213 29.7349Z"/>
  </g>
  <g id="Regular-L" transform="matrix(1 0 0 1 1379.68 1556)">
   <path d="M51.4079 9.32844C53.5338 9.32844 54.8605 7.99916 54.8077 6.08693L52.7645-62.789C52.7117-64.754 51.302-65.9752 49.3647-65.9752C47.3193-65.9752 45.9121-64.7012 45.9649-62.7337L48.0081 6.11459C48.0609 8.07958 49.4153 9.32844 51.4079 9.32844ZM70.1785 9.32844C72.2767 9.32844 73.6839 8.02682 73.6839 6.08693L73.6839-62.7337C73.6839-64.6736 72.2767-65.9752 70.1785-65.9752C68.108-65.9752 66.6732-64.6736 66.6732-62.7337L66.6732 6.08693C66.6732 8.02682 68.108 9.32844 70.1785 9.32844ZM88.9742 9.38376C90.9418 9.38376 92.3489 8.10724 92.4017 6.14225L94.3922-62.706C94.445-64.6736 93.0629-65.9475 90.9924-65.9475C89.0274-65.9475 87.6177-64.6736 87.5649-62.7614L85.5744 6.11459C85.5217 8.02682 86.8761 9.38376 88.9742 9.38376ZM42.997-82.3809L51.5403-82.3809L51.5403-95.7531C51.5403-99.7418 54.2321-102.217 58.4394-102.217L81.8373-102.217C86.0195-102.217 88.7112-99.7418 88.7112-95.7531L88.7112-82.3809L97.3073-82.3809L97.3073-96.2808C97.3073-104.968 91.6405-110.286 82.3096-110.286L57.9143-110.286C48.6639-110.286 42.997-104.968 42.997-96.2808ZM13.6859-78.1092L126.671-78.1092C128.928-78.1092 130.679-79.941 130.679-82.1698C130.679-84.4539 128.847-86.2304 126.671-86.2304L13.6859-86.2304C11.5626-86.2304 9.65039-84.4263 9.65039-82.1698C9.65039-79.9134 11.5626-78.1092 13.6859-78.1092ZM41.5341 29.1365L98.8757 29.1365C107.312 29.1365 113.255 23.4619 113.682 15.0285L118.251-79.2049L109.572-79.2049L105.136 14.154C104.948 18.1048 102.01 21.0152 98.0566 21.0152L42.1924 21.0152C38.3723 21.0152 35.3814 18.052 35.1929 14.154L30.5711-79.1772L22.1057-79.1772L26.7551 15.0812C27.1823 23.5147 32.9926 29.1365 41.5341 29.1365Z"/>
  </g>
  <g id="Light-L" transform="matrix(1 0 0 1 1083.61 1556)">
   <path d="M50.6445 9.74832C52.3505 9.74832 53.3719 8.66714 53.3382 7.15571L51.1613-63.7433C51.1276-65.2884 49.9661-66.2424 48.4677-66.2424C46.8421-66.2424 45.7404-65.2547 45.774-63.6498L47.9509 7.20245C47.9846 8.74756 49.0527 9.74832 50.6445 9.74832ZM69.5487 9.74832C71.2079 9.74832 72.3097 8.71389 72.3097 7.15571L72.3097-63.6498C72.3097-65.208 71.2079-66.2424 69.5487-66.2424C67.9363-66.2424 66.7877-65.208 66.7877-63.6498L66.7877 7.15571C66.7877 8.71389 67.9363 9.74832 69.5487 9.74832ZM88.4399 9.8418C90.0448 9.8418 91.1466 8.79431 91.1802 7.24919L93.3234-63.603C93.3571-65.208 92.2422-66.1957 90.6298-66.1957C89.0847-66.1957 87.9231-65.208 87.8894-63.6965L85.7462 7.20245C85.7125 8.71389 86.7806 9.8418 88.4399 9.8418ZM42.9779-82.6481L49.5364-82.6481L49.5364-95.9249C49.5364-100.391 52.4762-103.076 57.2561-103.076L81.7609-103.076C86.5539-103.076 89.4937-100.391 89.4937-95.9249L89.4937-82.6481L96.0859-82.6481L96.0859-96.2617C96.0859-104.396 90.7816-109.332 82.0042-109.332L56.9791-109.332C48.2822-109.332 42.9779-104.396 42.9779-96.2617ZM12.808-79.3688L126.289-79.3688C128.05-79.3688 129.4-80.7998 129.4-82.5134C129.4-84.3203 127.969-85.6579 126.289-85.6579L12.808-85.6579C11.1618-85.6579 9.65039-84.2736 9.65039-82.5134C9.65039-80.7531 11.1618-79.3688 12.808-79.3688ZM41.1715 28.9074L97.9596 28.9074C105.613 28.9074 111.385 23.4238 111.774 15.83L116.61-80.3882L109.878-80.3882L105.156 15.1846C104.948 19.3644 101.647 22.6184 97.4077 22.6184L41.5626 22.6184C37.4371 22.6184 34.1027 19.3308 33.8951 15.1846L29.0252-80.3414L22.4874-80.3414L27.404 15.8637C27.7931 23.4575 33.4506 28.9074 41.1715 28.9074Z"/>
  </g>
  <g id="Thin-L" transform="matrix(1 0 0 1 787.742 1556)">
   <path d="M49.6349 10.3036C50.7855 10.3036 51.403 9.55061 51.3946 8.56925L49.041-65.0054C49.0326-65.9952 48.1991-66.5958 47.2813-66.5958C46.2111-66.5958 45.5132-65.9867 45.5216-64.8614L47.8752 8.64123C47.8836 9.63103 48.5731 10.3036 49.6349 10.3036ZM68.7157 10.3036C69.7944 10.3036 70.4923 9.62259 70.4923 8.56925L70.4923-64.8614C70.4923-65.9147 69.7944-66.5958 68.7157-66.5958C67.7091-66.5958 66.9392-65.9147 66.9392-64.8614L66.9392 8.56925C66.9392 9.62259 67.7091 10.3036 68.7157 10.3036ZM87.7331 10.4476C88.8584 10.4476 89.5563 9.70301 89.5648 8.71322L91.9099-64.7894C91.9183-65.9147 91.1568-66.5238 90.1502-66.5238C89.1604-66.5238 88.3269-65.9147 88.3185-64.9334L85.9734 8.64123C85.965 9.62259 86.6544 10.4476 87.7331 10.4476ZM42.9527-83.0014L46.886-83.0014L46.886-96.1521C46.886-101.249 50.154-104.212 55.6911-104.212L81.66-104.212C87.2607-104.212 90.5286-101.249 90.5286-96.1521L90.5286-83.0014L94.4704-83.0014L94.4704-96.2364C94.4704-103.638 89.6457-108.069 81.6004-108.069L55.7423-108.069C47.7773-108.069 42.9527-103.638 42.9527-96.2364ZM11.6469-81.0348L125.785-81.0348C126.889-81.0348 127.709-81.9357 127.709-82.9677C127.709-84.1436 126.808-84.9006 125.785-84.9006L11.6469-84.9006C10.6317-84.9006 9.65039-84.0717 9.65039-82.9677C9.65039-81.8637 10.6317-81.0348 11.6469-81.0348ZM40.6919 28.6045L96.748 28.6045C103.367 28.6045 108.911 23.3733 109.25 16.8902L114.439-81.9532L110.282-81.9532L105.181 16.5477C104.948 21.0304 101.168 24.7387 96.5495 24.7387L40.7296 24.7387C36.2002 24.7387 32.4115 21.022 32.1787 16.5477L26.9806-81.8812L22.9922-81.8812L28.2622 16.8986C28.6008 23.3817 34.0564 28.6045 40.6919 28.6045Z"/>
  </g>
  <g id="Ultralight-L" transform="matrix(1 0 0 1 491.464 1556)">
   <path d="M49.1177 10.5881C49.9839 10.5881 50.3945 10.0031 50.399 9.29326L47.955-65.6518C47.9595-66.3572 47.2941-66.7768 46.6737-66.7768C45.8879-66.7768 45.3968-66.3617 45.3923-65.482L47.8364 9.37817C47.8319 10.0835 48.3274 10.5881 49.1177 10.5881ZM68.2891 10.5881C69.0704 10.5881 69.5614 10.088 69.5614 9.29326L69.5614-65.482C69.5614-66.2767 69.0704-66.7768 68.2891-66.7768C67.5927-66.7768 67.0168-66.2767 67.0168-65.482L67.0168 9.29326C67.0168 10.088 67.5927 10.5881 68.2891 10.5881ZM87.3711 10.7579C88.2508 10.7579 88.7418 10.1684 88.7373 9.46308L91.1859-65.3971C91.1814-66.2767 90.6009-66.6919 89.9045-66.6919C89.1992-66.6919 88.5338-66.2767 88.5383-65.5669L86.0897 9.37817C86.0942 10.088 86.5898 10.7579 87.3711 10.7579ZM42.9397-83.1825L45.5285-83.1825L45.5285-96.2684C45.5285-101.688 48.9645-104.794 54.8895-104.794L81.6083-104.794C87.6227-104.794 91.0587-101.688 91.0587-96.2684L91.0587-83.1825L93.6429-83.1825L93.6429-96.2235C93.6429-103.251 89.0639-107.423 81.3935-107.423L55.1088-107.423C47.5187-107.423 42.9397-103.251 42.9397-96.2235ZM11.0521-81.8881L125.526-81.8881C126.294-81.8881 126.843-82.5175 126.843-83.2004C126.843-84.0531 126.213-84.5128 125.526-84.5128L11.0521-84.5128C10.3602-84.5128 9.65039-83.9682 9.65039-83.2004C9.65039-82.4326 10.3602-81.8881 11.0521-81.8881ZM40.4463 28.4494L96.1274 28.4494C102.216 28.4494 107.644 23.3474 107.957 17.4332L113.327-82.7547L110.488-82.7547L105.194 17.2458C104.948 21.8837 100.922 25.8247 96.1099 25.8247L40.303 25.8247C35.5667 25.8247 31.5453 21.8882 31.2995 17.2458L25.9334-82.6698L23.2508-82.6698L28.7018 17.4287C29.0145 23.3429 34.3667 28.4494 40.4463 28.4494Z"/>
  </g>
  <g id="Black-M" transform="matrix(1 0 0 1 2873.86 1126)">
   <path d="M45.4924-2.38523C48.4734-2.38523 50.3054-4.32537 50.2428-7.1763L48.8118-53.5542C48.7492-56.3536 46.8039-58.2317 43.8901-58.2317C41.0284-58.2317 39.2483-56.3481 39.3109-53.4977L40.7419-7.06239C40.8045-4.26306 42.7504-2.38523 45.4924-2.38523ZM59.5402-2.38523C62.3502-2.38523 64.2445-4.21146 64.2445-7.00501L64.2445-53.6119C64.2445-56.4055 62.3502-58.2317 59.5402-58.2317C56.7299-58.2317 54.8359-56.4055 54.8359-53.6119L54.8359-7.00501C54.8359-4.21146 56.7299-2.38523 59.5402-2.38523ZM73.5938-2.3858C76.33-2.3858 78.2814-4.26335 78.344-7.06267L79.7695-53.498C79.8321-56.3484 78.0577-58.232 75.1903-58.232C72.2768-58.232 70.3315-56.3484 70.2689-53.5545L68.8434-7.17658C68.7808-4.32565 70.6125-2.3858 73.5938-2.3858ZM33.9614-75.795L48.6619-75.795L48.6619-84.4936C48.6619-85.8991 49.6086-86.6647 51.3605-86.6647L67.7147-86.6647C69.4608-86.6647 70.4075-85.8991 70.4075-84.4936L70.4075-75.795L85.1136-75.795L85.1136-84.7769C85.1136-94.0213 79.5114-98.9178 68.855-98.9178L50.2147-98.9178C39.5635-98.9178 33.9614-94.0213 33.9614-84.7769ZM14.7991-64.0483L104.281-64.0483C108.535-64.0483 111.604-66.8941 111.604-71.1483C111.604-75.2877 108.53-78.134 104.281-78.134L14.7991-78.134C10.5559-78.134 7.47656-75.288 7.47656-71.1483C7.47656-66.8943 10.5559-64.0483 14.7991-64.0483ZM36.873 17.8099L82.2129 17.8099C91.9227 17.8099 97.522 13.0824 97.9535 3.3095L101.018-65.0411L86.4842-65.0411L83.6016-0.997154C83.4773 1.91735 82.2987 3.38172 79.9612 3.38172L39.1143 3.38172C36.7875 3.38172 35.6034 1.91186 35.4791-0.997154L32.5803-65.0414L18.0623-65.0414L21.1321 3.31499C21.5636 13.0879 27.1523 17.8099 36.873 17.8099Z"/>
  </g>
  <g id="Heavy-M" transform="matrix(1 0 0 1 2578.29 1126)">
   <path d="M44.2582-2.04601C46.9809-2.04601 48.6642-3.80469 48.6041-6.38633L47.1552-54.1402C47.0952-56.6947 45.3178-58.3888 42.6784-58.3888C40.0617-58.3888 38.4033-56.6782 38.4634-54.0921L39.9123-6.29681C39.9723-3.74238 41.7451-2.04601 44.2582-2.04601ZM58.4048-2.04601C60.9943-2.04601 62.7399-3.71517 62.7399-6.25546L62.7399-54.1793C62.7399-56.7196 60.9943-58.3888 58.4048-58.3888C55.8175-58.3888 54.0697-56.7196 54.0697-54.1793L54.0697-6.25546C54.0697-3.71517 55.8175-2.04601 58.4048-2.04601ZM72.5655-2.04146C75.0644-2.04146 76.8537-3.74011 76.9137-6.29454L78.3462-54.0898C78.4062-56.676 76.762-58.3865 74.1312-58.3865C71.4895-58.3865 69.7121-56.676 69.6521-54.1379L68.2196-6.38406C68.1595-3.80241 69.8451-2.04146 72.5655-2.04146ZM33.8106-74.8067L46.8708-74.8067L46.8708-83.9103C46.8708-85.6492 48.0528-86.6585 50.0835-86.6585L66.7074-86.6585C68.7239-86.6585 69.906-85.6492 69.906-83.9103L69.906-74.8067L82.9826-74.8067L82.9826-84.2489C82.9826-92.9744 77.6176-97.7389 67.6957-97.7389L49.0788-97.7389C39.1755-97.7389 33.8106-92.9744 33.8106-84.2489ZM13.9269-64.9178L102.883-64.9178C106.612-64.9178 109.331-67.4807 109.331-71.2078C109.331-74.8521 106.593-77.4105 102.883-77.4105L13.9269-77.4105C10.2327-77.4105 7.47656-74.8498 7.47656-71.2078C7.47656-67.4785 10.2327-64.9178 13.9269-64.9178ZM35.8138 17.092L81.0122 17.092C90.0781 17.092 95.4658 12.417 95.8787 3.29561L99.0195-65.8869L86.067-65.8869L83.0921-0.185347C82.9652 2.73289 81.5764 4.33761 79.1062 4.33761L37.6824 4.33761C35.2474 4.33761 33.8421 2.71648 33.7152-0.185347L30.6888-65.8846L17.7901-65.8846L20.9495 3.31202C21.3624 12.4334 26.7151 17.092 35.8138 17.092Z"/>
  </g>
  <g id="Bold-M" transform="matrix(1 0 0 1 2282.85 1126)">
   <path d="M42.8776-1.66654C45.3113-1.66654 46.8282-3.22223 46.7711-5.50263L45.3021-54.7957C45.2449-57.0762 43.6555-58.5645 41.3231-58.5645C38.9803-58.5645 37.4581-57.0476 37.5153-54.7569L38.9842-5.4404C39.0414-3.15993 40.6206-1.66654 42.8776-1.66654ZM57.1347-1.66654C59.4775-1.66654 61.0568-3.16 61.0568-5.41699L61.0568-54.814C61.0568-57.071 59.4775-58.5645 57.1347-58.5645C54.797-58.5645 53.2126-57.071 53.2126-54.814L53.2126-5.41699C53.2126-3.16 54.797-1.66654 57.1347-1.66654ZM71.4152-1.65628C73.6488-1.65628 75.2566-3.15479 75.3137-5.43527L76.7541-54.7518C76.8112-57.0424 75.3126-58.5593 72.9463-58.5593C70.6087-58.5593 69.0193-57.0424 68.9621-54.7906L67.5218-5.4975C67.4646-3.2171 68.9867-1.65628 71.4152-1.65628ZM33.6419-73.7012L44.8671-73.7012L44.8671-83.2577C44.8671-85.3696 46.3125-86.6515 48.6551-86.6515L65.5805-86.6515C67.8996-86.6515 69.345-85.3696 69.345-83.2577L69.345-73.7012L80.5988-73.7012L80.5988-83.6581C80.5988-91.8033 75.4992-96.4202 66.3989-96.4202L47.8081-96.4202C38.7415-96.4202 33.6419-91.8033 33.6419-83.6581ZM12.9512-65.8904L101.318-65.8904C104.461-65.8904 106.788-68.137 106.788-71.2743C106.788-74.3648 104.427-76.6012 101.318-76.6012L12.9512-76.6012C9.87116-76.6012 7.47656-74.3596 7.47656-71.2743C7.47656-68.1319 9.87116-65.8904 12.9512-65.8904ZM34.6289 16.289L79.6691 16.289C88.0148 16.289 93.1657 11.6727 93.5578 3.28008L96.7839-66.833L85.6002-66.833L82.5222 0.722776C82.3924 3.64519 80.7683 5.40691 78.1498 5.40691L36.0807 5.40691C33.5245 5.40691 31.8718 3.61657 31.742 0.722776L28.573-66.8278L17.4855-66.8278L20.7453 3.3087C21.1374 11.7013 26.226 16.289 34.6289 16.289Z"/>
  </g>
  <g id="Semibold-M" transform="matrix(1 0 0 1 1987.01 1126)">
   <path d="M41.9259-1.40494C44.1603-1.40494 45.5625-2.82069 45.5073-4.89342L44.0246-55.2476C43.9694-57.3392 42.5095-58.6856 40.3887-58.6856C38.2347-58.6856 36.8065-57.3022 36.8617-55.2153L38.3444-4.85C38.3996-2.75838 39.8453-1.40494 41.9259-1.40494ZM56.2591-1.40494C58.4319-1.40494 59.8964-2.77727 59.8964-4.83895L59.8964-55.2516C59.8964-57.3133 58.4319-58.6856 56.2591-58.6856C54.0934-58.6856 52.6217-57.3133 52.6217-55.2516L52.6217-4.83895C52.6217-2.77727 54.0934-1.40494 56.2591-1.40494ZM70.6222-1.39073C72.6728-1.39073 74.1555-2.75128 74.2107-4.84289L75.6564-55.2082C75.7116-57.2951 74.3133-58.6785 72.1295-58.6785C70.0015-58.6785 68.5416-57.2951 68.4865-55.2405L67.0407-4.88631C66.9855-2.81358 68.3949-1.39073 70.6222-1.39073ZM33.5256-72.9391L43.4859-72.9391L43.4859-82.8079C43.4859-85.1769 45.1127-86.6467 47.6703-86.6467L64.8036-86.6467C67.3313-86.6467 68.9582-85.1769 68.9582-82.8079L68.9582-72.9391L78.9555-72.9391L78.9555-83.2509C78.9555-90.996 74.0388-95.511 65.5048-95.511L46.9321-95.511C38.4423-95.511 33.5256-90.996 33.5256-83.2509ZM12.2786-66.5609L100.24-66.5609C102.977-66.5609 105.034-68.5895 105.034-71.3202C105.034-74.0288 102.933-76.0432 100.24-76.0432L12.2786-76.0432C9.62192-76.0432 7.47656-74.0217 7.47656-71.3202C7.47656-68.5823 9.62192-66.5609 12.2786-66.5609ZM33.8121 15.7353L78.7431 15.7353C86.5923 15.7353 91.58 11.1595 91.9578 3.26937L95.2426-67.4852L85.2785-67.4852L82.1293 1.34883C81.9976 4.27412 80.2113 6.14407 77.4904 6.14407L34.9765 6.14407C32.3368 6.14407 30.5135 4.23708 30.3818 1.34883L27.1143-67.4781L17.2755-67.4781L20.6045 3.30641C20.9823 11.1966 25.8888 15.7353 33.8121 15.7353Z"/>
  </g>
  <g id="Medium-M" transform="matrix(1 0 0 1 1690.96 1126)">
   <path d="M41.2042-1.20658C43.2875-1.20658 44.6028-2.51622 44.5491-4.43149L43.0559-55.5903C43.0022-57.5387 41.6405-58.7774 39.6802-58.7774C37.6695-58.7774 36.3124-57.4953 36.3661-55.5628L37.8593-4.40233C37.913-2.45392 39.2575-1.20658 41.2042-1.20658ZM55.5951-1.20658C57.639-1.20658 59.0166-2.48707 59.0166-4.40065L59.0166-55.5834C59.0166-57.4969 57.639-58.7774 55.5951-58.7774C53.5599-58.7774 52.1737-57.4969 52.1737-55.5834L52.1737-4.40065C52.1737-2.48707 53.5599-1.20658 55.5951-1.20658ZM70.0209-1.18938C71.9328-1.18938 73.3207-2.44532 73.3744-4.39373L74.8242-55.5542C74.8779-57.4867 73.5557-58.7688 71.5101-58.7688C69.5412-58.7688 68.1795-57.4867 68.1258-55.5817L66.676-4.42289C66.6223-2.50762 67.9462-1.18938 70.0209-1.18938ZM33.4375-72.3612L42.4385-72.3612L42.4385-82.4667C42.4385-85.0307 44.203-86.6431 46.9237-86.6431L64.2146-86.6431C66.9004-86.6431 68.6649-85.0307 68.6649-82.4667L68.6649-72.3612L77.7094-72.3612L77.7094-82.9421C77.7094-90.3838 72.9315-94.8217 64.8269-94.8217L46.2679-94.8217C38.2154-94.8217 33.4375-90.3838 33.4375-82.9421ZM11.7686-67.0693L99.4217-67.0693C101.853-67.0693 103.705-68.9325 103.705-71.355C103.705-73.7741 101.801-75.6201 99.4217-75.6201L11.7686-75.6201C9.43294-75.6201 7.47656-73.7655 7.47656-71.355C7.47656-68.9239 9.43294-67.0693 11.7686-67.0693ZM33.1927 15.3156L78.041 15.3156C85.5137 15.3156 90.3776 10.7705 90.7445 3.26125L94.074-67.9797L85.0345-67.9797L81.8314 1.82353C81.6982 4.75101 79.7889 6.70302 76.9904 6.70302L34.1392 6.70302C31.4362 6.70302 29.4835 4.70758 29.3503 1.82353L26.0083-67.9711L17.1163-67.9711L20.4978 3.30468C20.8647 10.8139 25.6332 15.3156 33.1927 15.3156Z"/>
  </g>
  <g id="Regular-M" transform="matrix(1 0 0 1 1395.12 1126)">
   <path d="M40.2629-0.947858C42.1492-0.947858 43.351-2.11909 43.2993-3.82897L41.7924-56.0372C41.7407-57.7988 40.5071-58.8972 38.7561-58.8972C36.9321-58.8972 35.6679-57.7471 35.7197-56.0161L37.2266-3.81842C37.2783-2.05679 38.4907-0.947858 40.2629-0.947858ZM54.7292-0.947858C56.6048-0.947858 57.869-2.10854 57.869-3.82897L57.869-56.0161C57.869-57.7365 56.6048-58.8972 54.7292-58.8972C52.864-58.8972 51.5893-57.7365 51.5893-56.0161L51.5893-3.82897C51.5893-2.10854 52.864-0.947858 54.7292-0.947858ZM69.2366-0.926756C70.9676-0.926756 72.2318-2.04624 72.2835-3.80786L73.7386-56.0056C73.7904-57.7365 72.5674-58.8867 70.7023-58.8867C68.9406-58.8867 67.7071-57.7365 67.6553-56.0267L66.2002-3.81842C66.1485-2.10854 67.3609-0.926756 69.2366-0.926756ZM33.3225-71.6074L41.0724-71.6074L41.0724-82.0218C41.0724-84.8401 43.0164-86.6384 45.9497-86.6384L63.4463-86.6384C66.3384-86.6384 68.2824-84.8401 68.2824-82.0218L68.2824-71.6074L76.0841-71.6074L76.0841-82.5394C76.0841-89.5853 71.4871-93.9225 63.9427-93.9225L45.4016-93.9225C37.9194-93.9225 33.3225-89.5853 33.3225-82.5394ZM11.1033-67.7324L98.355-67.7324C100.386-67.7324 101.971-69.38 101.971-71.4004C101.971-73.4419 100.324-75.0683 98.355-75.0683L11.1033-75.0683C9.18644-75.0683 7.47656-73.4313 7.47656-71.4004C7.47656-69.3694 9.18644-67.7324 11.1033-67.7324ZM32.3849 14.768L77.1252 14.768C84.1069 14.768 88.8094 10.263 89.1621 3.25066L92.5496-68.6248L84.7163-68.6248L81.4428 2.44271C81.3076 5.37303 79.238 7.43209 76.3383 7.43209L33.0471 7.43209C30.2615 7.43209 28.1402 5.32127 28.005 2.44271L24.5657-68.6142L16.9087-68.6142L20.3585 3.30242C20.7113 10.3147 25.2997 14.768 32.3849 14.768Z"/>
  </g>
  <g id="Light-M" transform="matrix(1 0 0 1 1098.98 1126)">
   <path d="M39.5785-0.571417C41.0883-0.571417 42.0164-1.52021 41.9817-2.87075L40.3551-56.8928C40.3205-58.278 39.3094-59.1368 37.9518-59.1368C36.5043-59.1368 35.5139-58.2433 35.5486-56.8374L37.1752-2.84309C37.2099-1.45791 38.1656-0.571417 39.5785-0.571417ZM54.1645-0.571417C55.6466-0.571417 56.637-1.49255 56.637-2.87075L56.637-56.8374C56.637-58.2156 55.6466-59.1368 54.1645-59.1368C52.71-59.1368 51.6919-58.2156 51.6919-56.8374L51.6919-2.87075C51.6919-1.49255 52.71-0.571417 54.1645-0.571417ZM68.7575-0.516093C70.1634-0.516093 71.1538-1.43024 71.1884-2.81543L72.7804-56.8098C72.8151-58.2156 71.8316-59.1091 70.3772-59.1091C68.992-59.1091 67.9809-58.2156 67.9462-56.8651L66.3542-2.84309C66.3196-1.49255 67.2754-0.516093 68.7575-0.516093ZM33.3053-71.8469L39.2758-71.8469L39.2758-82.1758C39.2758-85.4219 41.4422-87.4084 44.8889-87.4084L63.3778-87.4084C66.8175-87.4084 68.9839-85.4219 68.9839-82.1758L68.9839-71.8469L74.989-71.8469L74.989-82.5222C74.989-89.072 70.7171-93.067 63.6689-93.067L44.5631-93.067C37.5772-93.067 33.3053-89.072 33.3053-82.5222ZM10.3162-68.8617L98.0128-68.8617C99.5988-68.8617 100.825-70.15 100.825-71.7084C100.825-73.3221 99.5365-74.555 98.0128-74.555L10.3162-74.555C8.82711-74.555 7.47656-73.2944 7.47656-71.7084C7.47656-70.1223 8.82711-68.8617 10.3162-68.8617ZM32.0598 14.5627L76.3039 14.5627C82.584 14.5627 87.1325 10.2288 87.451 3.96932L91.0781-69.6856L84.9901-69.6856L81.4599 3.3667C81.3076 6.50235 78.9129 8.86941 75.7566 8.86941L32.4825 8.86941C29.4231 8.86941 26.9937 6.46771 26.8414 3.3667L23.1797-69.658L17.2509-69.658L20.9403 4.00397C21.2588 10.2634 25.7104 14.5627 32.0598 14.5627Z"/>
  </g>
  <g id="Thin-M" transform="matrix(1 0 0 1 803.03 1126)">
   <path d="M38.6733-0.0735439C39.6852-0.0735439 40.2512-0.728139 40.2392-1.60344L38.4541-58.0243C38.4421-58.9116 37.7252-59.4536 36.8882-59.4536C35.9386-59.4536 35.3103-58.8996 35.3223-57.9237L37.1073-1.55315C37.1193-0.665834 37.7357-0.0735439 38.6733-0.0735439ZM53.4177-0.0735439C54.3793-0.0735439 55.0076-0.677846 55.0076-1.60344L55.0076-57.9237C55.0076-58.8493 54.3793-59.4536 53.4177-59.4536C52.5064-59.4536 51.8277-58.8493 51.8277-57.9237L51.8277-1.60344C51.8277-0.677846 52.5064-0.0735439 53.4177-0.0735439ZM68.1238 0.0270413C69.0997 0.0270413 69.7281-0.615542 69.7401-1.50286L71.5131-57.8734C71.5251-58.8493 70.8585-59.4033 69.9472-59.4033C69.0599-59.4033 68.343-58.8493 68.331-57.974L66.5579-1.55315C66.5459-0.677846 67.1622 0.0270413 68.1238 0.0270413ZM33.2827-72.1638L36.8996-72.1638L36.8996-82.3795C36.8996-86.1913 39.3602-88.4267 43.4858-88.4267L63.2873-88.4267C67.4512-88.4267 69.9118-86.1913 69.9118-82.3795L69.9118-72.1638L73.5407-72.1638L73.5407-82.4996C73.5407-88.3931 69.6987-91.9355 63.3068-91.9355L43.4542-91.9355C37.1246-91.9355 33.2827-88.3931 33.2827-82.4996ZM9.27521-70.3553L97.5602-70.3553C98.5578-70.3553 99.3085-71.1683 99.3085-72.1157C99.3085-73.1637 98.4955-73.8761 97.5602-73.8761L9.27521-73.8761C8.35186-73.8761 7.47656-73.1134 7.47656-72.1157C7.47656-71.118 8.35186-70.3553 9.27521-70.3553ZM31.6298 14.2911L75.2176 14.2911C80.5699 14.2911 84.9147 10.1835 85.1879 4.91981L89.1319-71.0887L85.3521-71.0887L81.4825 4.58875C81.3076 7.99597 78.4829 10.7704 74.9871 10.7704L31.7357 10.7704C28.3142 10.7704 25.4775 7.98396 25.3026 4.58875L21.3466-71.0385L17.7035-71.0385L21.7098 4.93182C21.983 10.1955 26.2535 14.2911 31.6298 14.2911Z"/>
  </g>
  <g id="Ultralight-M" transform="matrix(1 0 0 1 506.707 1126)">
   <path d="M38.2096 0.181464C38.9665 0.181464 39.3471-0.322444 39.3467-0.954328L37.4805-58.6039C37.48-59.2362 36.9138-59.6159 36.3434-59.6159C35.6488-59.6159 35.2059-59.2357 35.2064-58.4801L37.0726-0.892445C37.073-0.260139 37.5154 0.181464 38.2096 0.181464ZM53.0352 0.181464C53.7302 0.181464 54.1731-0.26056 54.1731-0.954328L54.1731-58.4801C54.1731-59.1739 53.7302-59.6159 53.0352-59.6159C52.402-59.6159 51.8973-59.1739 51.8973-58.4801L51.8973-0.954328C51.8973-0.26056 52.402 0.181464 53.0352 0.181464ZM67.7993 0.305232C68.5549 0.305232 68.9978-0.198255 68.9982-0.830561L70.864-58.4182C70.8644-59.1739 70.3601-59.554 69.7269-59.554C69.0946-59.554 68.5284-59.1739 68.528-58.542L66.6622-0.892445C66.6618-0.26056 67.1043 0.305232 67.7993 0.305232ZM33.2711-72.326L35.6825-72.326L35.6825-82.4838C35.6825-86.5854 38.2938-88.9483 42.7671-88.9483L63.2409-88.9483C67.7757-88.9483 70.387-86.5854 70.387-82.4838L70.387-72.326L72.7988-72.326L72.7988-82.488C72.7988-88.0453 69.1771-91.3559 63.1214-91.3559L42.8862-91.3559C36.8928-91.3559 33.2711-88.0453 33.2711-82.488ZM8.74201-71.1204L97.3283-71.1204C98.0246-71.1204 98.5319-71.6899 98.5319-72.3244C98.5319-73.0825 97.9623-73.5283 97.3283-73.5283L8.74201-73.5283C8.10845-73.5283 7.47656-73.0207 7.47656-72.3244C7.47656-71.6281 8.10845-71.1204 8.74201-71.1204ZM31.4096 14.152L74.6612 14.152C79.5382 14.152 83.7787 10.1603 84.0288 5.40664L88.135-71.8074L85.5376-71.8074L81.4941 5.21468C81.3076 8.76099 78.2627 11.744 74.593 11.744L31.3531 11.744C27.7462 11.744 24.7009 8.76057 24.5144 5.21468L20.4077-71.7455L17.9353-71.7455L22.1039 5.40706C22.3539 10.1607 26.5317 14.152 31.4096 14.152Z"/>
  </g>
  <g id="Black-S" transform="matrix(1 0 0 1 2886.43 696)">
   <path d="M35.9863-9.57031C38.3789-9.57031 39.8438-11.1328 39.7949-13.4277L38.6719-49.4629C38.623-51.709 37.0605-53.2227 34.7168-53.2227C32.4219-53.2227 31.0059-51.709 31.0547-49.4141L32.1777-13.3301C32.2266-11.084 33.7891-9.57031 35.9863-9.57031ZM46.9727-9.57031C49.2188-9.57031 50.7324-11.0352 50.7324-13.2812L50.7324-49.5117C50.7324-51.7578 49.2188-53.2227 46.9727-53.2227C44.7266-53.2227 43.2129-51.7578 43.2129-49.5117L43.2129-13.2812C43.2129-11.0352 44.7266-9.57031 46.9727-9.57031ZM57.959-9.57031C60.1562-9.57031 61.7188-11.084 61.7676-13.3301L62.8906-49.4141C62.9395-51.709 61.5234-53.2227 59.2285-53.2227C56.8848-53.2227 55.3223-51.709 55.2734-49.4629L54.1504-13.4277C54.1016-11.1328 55.5664-9.57031 57.959-9.57031ZM26.6602-67.334L38.5742-67.334L38.5742-74.0234C38.5742-75.0488 39.2578-75.5859 40.5762-75.5859L53.3691-75.5859C54.6875-75.5859 55.3711-75.0488 55.3711-74.0234L55.3711-67.334L67.2852-67.334L67.2852-74.2188C67.2852-81.5918 62.8418-85.4492 54.2969-85.4492L39.6484-85.4492C31.1035-85.4492 26.6602-81.5918 26.6602-74.2188ZM11.8164-57.6172L82.1289-57.6172C85.5957-57.6172 88.0859-59.9121 88.0859-63.3789C88.0859-66.748 85.5957-69.043 82.1289-69.043L11.8164-69.043C8.34961-69.043 5.85938-66.748 5.85938-63.3789C5.85938-59.9121 8.34961-57.6172 11.8164-57.6172ZM29.1992 6.54297L64.7461 6.54297C72.5098 6.54297 76.9531 2.83203 77.2949-4.98047L79.6875-58.3984L67.9199-58.3984L65.6738-8.59375C65.5762-6.29883 64.6973-5.17578 62.8906-5.17578L31.0547-5.17578C29.248-5.17578 28.3691-6.29883 28.2715-8.59375L26.0254-58.3984L14.2578-58.3984L16.6504-4.98047C16.9922 2.83203 21.4355 6.54297 29.1992 6.54297Z"/>
  </g>
  <g id="Heavy-S" transform="matrix(1 0 0 1 2590.62 696)">
   <path d="M35.0183-9.3283C37.238-9.3283 38.6106-10.764 38.5618-12.8746L37.4388-49.8547C37.3899-51.9395 35.9427-53.3264 33.7833-53.3264C31.6497-53.3264 30.3029-51.9279 30.3517-49.8174L31.4747-12.8C31.5236-10.7152 32.9708-9.3283 35.0183-9.3283ZM46.0737-9.3283C48.1815-9.3283 49.603-10.6894 49.603-12.7626L49.603-49.892C49.603-51.9653 48.1815-53.3264 46.0737-53.3264C43.9659-53.3264 42.5445-51.9653 42.5445-49.892L42.5445-12.7626C42.5445-10.6894 43.9659-9.3283 46.0737-9.3283ZM57.1407-9.3283C59.1767-9.3283 60.6355-10.7152 60.6843-12.8L61.7958-49.8174C61.8446-51.9279 60.5093-53.3264 58.3642-53.3264C56.2048-53.3264 54.7576-51.9279 54.7087-49.8547L53.5972-12.8746C53.5484-10.764 54.921-9.3283 57.1407-9.3283ZM26.5334-66.4581L37.272-66.4581L37.272-73.5048C37.272-74.7607 38.1284-75.4822 39.6196-75.4822L52.5163-75.4822C53.996-75.4822 54.8525-74.7607 54.8525-73.5048L54.8525-66.4581L65.6026-66.4581L65.6026-73.7693C65.6026-80.762 61.3206-84.5503 53.3403-84.5503L38.7841-84.5503C30.8154-84.5503 26.5334-80.762 26.5334-73.7693ZM11.171-58.2165L80.9765-58.2165C84.0514-58.2165 86.2881-60.3155 86.2881-63.3904C86.2881-66.3908 84.0399-68.4898 80.9765-68.4898L11.171-68.4898C8.11912-68.4898 5.85938-66.3908 5.85938-63.3904C5.85938-60.3155 8.11912-58.2165 11.171-58.2165ZM28.3349 5.95522L63.8241 5.95522C71.1268 5.95522 75.4088 2.26733 75.7391-5.08419L78.1663-58.9862L67.5281-58.9862L65.2359-8.01753C65.1382-5.74565 64.121-4.54194 62.2337-4.54194L29.9022-4.54194C28.038-4.54194 27.0093-5.75718 26.9116-8.01753L24.5848-58.9862L13.9812-58.9862L16.4199-5.07266C16.7502 2.27886 21.0091 5.95522 28.3349 5.95522Z"/>
  </g>
  <g id="Bold-S" transform="matrix(1 0 0 1 2294.91 696)">
   <path d="M33.9355-9.05762C35.9619-9.05762 37.2314-10.3516 37.1826-12.2559L36.0596-50.293C36.0107-52.1973 34.6924-53.4424 32.7393-53.4424C30.7861-53.4424 29.5166-52.1729 29.5654-50.2686L30.6885-12.207C30.7373-10.3027 32.0557-9.05762 33.9355-9.05762ZM45.0684-9.05762C47.0215-9.05762 48.3398-10.3027 48.3398-12.1826L48.3398-50.3174C48.3398-52.1973 47.0215-53.4424 45.0684-53.4424C43.1152-53.4424 41.7969-52.1973 41.7969-50.3174L41.7969-12.1826C41.7969-10.3027 43.1152-9.05762 45.0684-9.05762ZM56.2256-9.05762C58.0811-9.05762 59.4238-10.3027 59.4727-12.207L60.5713-50.2686C60.6201-52.1729 59.375-53.4424 57.3975-53.4424C55.4443-53.4424 54.126-52.1729 54.0771-50.293L52.9785-12.2559C52.9297-10.3516 54.1992-9.05762 56.2256-9.05762ZM26.3916-65.4785L35.8154-65.4785L35.8154-72.9248C35.8154-74.4385 36.8652-75.3662 38.5498-75.3662L51.5625-75.3662C53.2227-75.3662 54.2725-74.4385 54.2725-72.9248L54.2725-65.4785L63.7207-65.4785L63.7207-73.2666C63.7207-79.834 59.6191-83.5449 52.2705-83.5449L37.8174-83.5449C30.4932-83.5449 26.3916-79.834 26.3916-73.2666ZM10.4492-58.8867L79.6875-58.8867C82.3242-58.8867 84.2773-60.7666 84.2773-63.4033C84.2773-65.9912 82.2998-67.8711 79.6875-67.8711L10.4492-67.8711C7.86133-67.8711 5.85938-65.9912 5.85938-63.4033C5.85938-60.7666 7.86133-58.8867 10.4492-58.8867ZM27.3682 5.29785L62.793 5.29785C69.5801 5.29785 73.6816 1.63574 73.999-5.2002L76.4648-59.6436L67.0898-59.6436L64.7461-7.37305C64.6484-5.12695 63.4766-3.83301 61.499-3.83301L28.6133-3.83301C26.6846-3.83301 25.4883-5.15137 25.3906-7.37305L22.9736-59.6436L13.6719-59.6436L16.1621-5.17578C16.4795 1.66016 20.5322 5.29785 27.3682 5.29785Z"/>
  </g>
  <g id="Semibold-S" transform="matrix(1 0 0 1 1998.89 696)">
   <path d="M33.1891-8.871C35.0821-8.871 36.2806-10.0672 36.2317-11.8293L35.1087-50.5951C35.0599-52.375 33.8304-53.5224 32.0194-53.5224C30.1907-53.5224 28.9745-52.3417 29.0233-50.5796L30.1464-11.7982C30.1952-10.0184 31.4247-8.871 33.1891-8.871ZM44.3752-8.871C46.2217-8.871 47.4689-10.0361 47.4689-11.7827L47.4689-50.6106C47.4689-52.3572 46.2217-53.5224 44.3752-53.5224C42.5287-53.5224 41.2814-52.3572 41.2814-50.6106L41.2814-11.7827C41.2814-10.0361 42.5287-8.871 44.3752-8.871ZM55.5946-8.871C57.3257-8.871 58.5885-10.0184 58.6373-11.7982L59.7271-50.5796C59.7759-52.3417 58.593-53.5224 56.731-53.5224C54.92-53.5224 53.6905-52.3417 53.6417-50.5951L52.552-11.8293C52.5031-10.0672 53.7016-8.871 55.5946-8.871ZM26.2938-64.8031L34.8112-64.8031L34.8112-72.5249C34.8112-74.2163 35.9943-75.2862 37.8122-75.2862L50.9049-75.2862C52.6895-75.2862 53.8726-74.2163 53.8726-72.5249L53.8726-64.8031L62.4232-64.8031L62.4232-72.92C62.4232-79.1941 58.4461-82.8518 51.5329-82.8518L37.1509-82.8518C30.271-82.8518 26.2938-79.1941 26.2938-72.92ZM9.95156-59.3488L78.7988-59.3488C81.1334-59.3488 82.891-61.0776 82.891-63.4122C82.891-65.7157 81.1001-67.4445 78.7988-67.4445L9.95156-67.4445C7.68359-67.4445 5.85938-65.7157 5.85938-63.4122C5.85938-61.0776 7.68359-59.3488 9.95156-59.3488ZM26.7017 4.84463L62.082 4.84463C68.5137 4.84463 72.4908 1.20029 72.7993-5.28018L75.2918-60.0968L66.7877-60.0968L64.4084-6.92871C64.3107-4.70039 63.0322-3.34424 60.9925-3.34424L27.7246-3.34424C25.7515-3.34424 24.4396-4.73369 24.342-6.92871L21.8628-60.0968L13.4586-60.0968L15.9844-5.24688C16.2929 1.23359 20.2034 4.84463 26.7017 4.84463Z"/>
  </g>
  <g id="Medium-S" transform="matrix(1 0 0 1 1702.71 696)">
   <path d="M32.623-8.72949C34.415-8.72949 35.5596-9.85156 35.5107-11.5059L34.3877-50.8242C34.3389-52.5098 33.1768-53.583 31.4736-53.583C29.7393-53.583 28.5635-52.4697 28.6123-50.8154L29.7354-11.4883C29.7842-9.80273 30.9463-8.72949 32.623-8.72949ZM43.8496-8.72949C45.6152-8.72949 46.8086-9.83398 46.8086-11.4795L46.8086-50.833C46.8086-52.4785 45.6152-53.583 43.8496-53.583C42.084-53.583 40.8906-52.4785 40.8906-50.833L40.8906-11.4795C40.8906-9.83398 42.084-8.72949 43.8496-8.72949ZM55.1162-8.72949C56.7529-8.72949 57.9551-9.80273 58.0039-11.4883L59.0869-50.8154C59.1357-52.4697 58-53.583 56.2256-53.583C54.5225-53.583 53.3604-52.4697 53.3115-50.8242L52.2285-11.5059C52.1797-9.85156 53.3242-8.72949 55.1162-8.72949ZM26.2197-64.291L34.0498-64.291L34.0498-72.2217C34.0498-74.0479 35.334-75.2256 37.2529-75.2256L50.4062-75.2256C52.2852-75.2256 53.5693-74.0479 53.5693-72.2217L53.5693-64.291L61.4395-64.291L61.4395-72.6572C61.4395-78.709 57.5566-82.3262 50.9736-82.3262L36.6455-82.3262C30.1025-82.3262 26.2197-78.709 26.2197-72.6572ZM9.57422-59.6992L78.125-59.6992C80.2305-59.6992 81.8398-61.3135 81.8398-63.4189C81.8398-65.5068 80.1904-67.1211 78.125-67.1211L9.57422-67.1211C7.54883-67.1211 5.85938-65.5068 5.85938-63.4189C5.85938-61.3135 7.54883-59.6992 9.57422-59.6992ZM26.1963 4.50098L61.543 4.50098C67.7051 4.50098 71.5879 0.870117 71.8896-5.34082L74.4023-60.4404L66.5586-60.4404L64.1523-6.5918C64.0547-4.37695 62.6953-2.97363 60.6084-2.97363L27.0508-2.97363C25.0439-2.97363 23.6445-4.41699 23.5469-6.5918L21.0205-60.4404L13.2969-60.4404L15.8496-5.30078C16.1514 0.910156 19.9541 4.50098 26.1963 4.50098Z"/>
  </g>
  <g id="Regular-S" transform="matrix(1 0 0 1 1406.68 696)">
   <path d="M31.8848-8.54492C33.5449-8.54492 34.6191-9.57031 34.5703-11.084L33.4473-51.123C33.3984-52.6855 32.3242-53.6621 30.7617-53.6621C29.1504-53.6621 28.0273-52.6367 28.0762-51.123L29.1992-11.084C29.248-9.52148 30.3223-8.54492 31.8848-8.54492ZM43.1641-8.54492C44.8242-8.54492 45.9473-9.57031 45.9473-11.084L45.9473-51.123C45.9473-52.6367 44.8242-53.6621 43.1641-53.6621C41.5039-53.6621 40.3809-52.6367 40.3809-51.123L40.3809-11.084C40.3809-9.57031 41.5039-8.54492 43.1641-8.54492ZM54.4922-8.54492C56.0059-8.54492 57.1289-9.52148 57.1777-11.084L58.252-51.123C58.3008-52.6367 57.2266-53.6621 55.5664-53.6621C54.0039-53.6621 52.9297-52.6367 52.8809-51.123L51.8066-11.084C51.7578-9.57031 52.832-8.54492 54.4922-8.54492ZM26.123-63.623L33.0566-63.623L33.0566-71.8262C33.0566-73.8281 34.4727-75.1465 36.5234-75.1465L49.7559-75.1465C51.7578-75.1465 53.1738-73.8281 53.1738-71.8262L53.1738-63.623L60.1562-63.623L60.1562-72.3145C60.1562-78.0762 56.3965-81.6406 50.2441-81.6406L35.9863-81.6406C29.8828-81.6406 26.123-78.0762 26.123-72.3145ZM9.08203-60.1562L77.2461-60.1562C79.0527-60.1562 80.4688-61.6211 80.4688-63.4277C80.4688-65.2344 79.0039-66.6992 77.2461-66.6992L9.08203-66.6992C7.37305-66.6992 5.85938-65.2344 5.85938-63.4277C5.85938-61.6211 7.37305-60.1562 9.08203-60.1562ZM25.5371 4.05273L60.8398 4.05273C66.6504 4.05273 70.4102 0.439453 70.7031-5.41992L73.2422-60.8887L66.2598-60.8887L63.8184-6.15234C63.7207-3.95508 62.2559-2.49023 60.1074-2.49023L26.1719-2.49023C24.1211-2.49023 22.6074-4.00391 22.5098-6.15234L19.9219-60.8887L13.0859-60.8887L15.6738-5.37109C15.9668 0.488281 19.6289 4.05273 25.5371 4.05273Z"/>
  </g>
  <g id="Light-S" transform="matrix(1 0 0 1 1110.48 696)">
   <path d="M31.2793-8.21192C32.6065-8.21192 33.4385-9.04053 33.4048-10.2363L32.1758-51.8799C32.1421-53.1094 31.2647-53.874 30.0503-53.874C28.772-53.874 27.8911-53.0757 27.9248-51.8496L29.1538-10.2212C29.1875-8.9917 30.0347-8.21192 31.2793-8.21192ZM42.6646-8.21192C43.9766-8.21192 44.8574-9.02539 44.8574-10.2363L44.8574-51.8496C44.8574-53.0605 43.9766-53.874 42.6646-53.874C41.3677-53.874 40.4717-53.0605 40.4717-51.8496L40.4717-10.2363C40.4717-9.02539 41.3677-8.21192 42.6646-8.21192ZM54.0684-8.18164C55.2944-8.18164 56.1753-8.97657 56.209-10.2061L57.4043-51.8345C57.438-53.0605 56.5757-53.8589 55.2788-53.8589C54.0493-53.8589 53.1719-53.0605 53.1382-51.8647L51.9429-10.2212C51.9092-9.02539 52.7563-8.18164 54.0684-8.18164ZM26.1079-63.835L31.4673-63.835L31.4673-71.9624C31.4673-74.3428 33.0801-75.8276 35.585-75.8276L49.6953-75.8276C52.1816-75.8276 53.7944-74.3428 53.7944-71.9624L53.7944-63.835L59.1875-63.835L59.1875-72.2993C59.1875-77.6221 55.7153-80.8838 50.002-80.8838L35.2446-80.8838C29.5801-80.8838 26.1079-77.6221 26.1079-72.2993ZM8.38575-61.1553L76.9434-61.1553C78.3565-61.1553 79.4546-62.3022 79.4546-63.7002C79.4546-65.1284 78.3076-66.2451 76.9434-66.2451L8.38575-66.2451C7.05518-66.2451 5.85938-65.1133 5.85938-63.7002C5.85938-62.2871 7.05518-61.1553 8.38575-61.1553ZM25.2495 3.8711L60.1133 3.8711C65.3032 3.8711 68.9268 0.40918 69.1895-4.78418L71.9404-61.8271L66.502-61.8271L63.8335-5.33497C63.7207-2.95606 61.9683-1.21876 59.5928-1.21876L25.6724-1.21876C23.3794-1.21876 21.5933-2.98975 21.4805-5.33497L18.6958-61.812L13.3887-61.812L16.1885-4.75049C16.4512 0.442871 19.9922 3.8711 25.2495 3.8711Z"/>
  </g>
  <g id="Thin-S" transform="matrix(1 0 0 1 814.436 696)">
   <path d="M30.4785-7.77149C31.3653-7.77149 31.877-8.33985 31.8633-9.11525L30.4942-52.8808C30.4805-53.6699 29.8633-54.1543 29.1094-54.1543C28.2715-54.1543 27.7109-53.6562 27.7246-52.8105L29.0938-9.08009C29.1074-8.29103 29.6543-7.77149 30.4785-7.77149ZM42.0039-7.77149C42.8555-7.77149 43.416-8.3047 43.416-9.11525L43.416-52.8105C43.416-53.6211 42.8555-54.1543 42.0039-54.1543C41.1875-54.1543 40.5918-53.6211 40.5918-52.8105L40.5918-9.11525C40.5918-8.3047 41.1875-7.77149 42.0039-7.77149ZM53.5078-7.70118C54.3535-7.70118 54.9141-8.25587 54.9278-9.04494L56.2832-52.7754C56.2969-53.6211 55.7149-54.1191 54.8984-54.1191C54.1094-54.1191 53.4922-53.6211 53.4785-52.8457L52.123-9.08009C52.1094-8.3047 52.6563-7.70118 53.5078-7.70118ZM26.0879-64.1152L29.3653-64.1152L29.3653-72.1426C29.3653-75.0234 31.2383-76.7285 34.3438-76.7285L49.6152-76.7285C52.7422-76.7285 54.6152-75.0234 54.6152-72.1426L54.6152-64.1152L57.9063-64.1152L57.9063-72.2793C57.9063-77.0215 54.8145-79.8828 49.6816-79.8828L34.2637-79.8828C29.1797-79.8828 26.0879-77.0215 26.0879-72.2793ZM7.46486-62.4765L76.543-62.4765C77.4356-62.4765 78.1133-63.2031 78.1133-64.0605C78.1133-64.9883 77.3867-65.6445 76.543-65.6445L7.46486-65.6445C6.63477-65.6445 5.85938-64.9531 5.85938-64.0605C5.85938-63.168 6.63477-62.4765 7.46486-62.4765ZM24.8691 3.63086L59.1524 3.63086C63.5215 3.63086 66.9649 0.369141 67.1875-3.94337L70.2188-63.0683L66.8223-63.0683L63.8535-4.25392C63.7207-1.63478 61.5879 0.462867 58.9121 0.462867L25.0117 0.462867C22.3985 0.462867 20.252-1.64846 20.1192-4.25392L17.0742-63.0332L13.7891-63.0332L16.8691-3.9297C17.0918 0.382813 20.4726 3.63086 24.8691 3.63086Z"/>
  </g>
  <g id="Ultralight-S" transform="matrix(1 0 0 1 518.068 696)">
   <path d="M30.0684-7.54591C30.7295-7.54591 31.0772-7.98097 31.0738-8.54104L29.6328-53.3935C29.6294-53.957 29.1455-54.2978 28.6275-54.2978C28.0151-54.2978 27.6187-53.9536 27.6221-53.3027L29.063-8.49563C29.0664-7.93214 29.4595-7.54591 30.0684-7.54591ZM41.6655-7.54591C42.2813-7.54591 42.6778-7.93556 42.6778-8.54104L42.6778-53.3027C42.6778-53.9082 42.2813-54.2978 41.6655-54.2978C41.0952-54.2978 40.6533-53.9082 40.6533-53.3027L40.6533-8.54104C40.6533-7.93556 41.0952-7.54591 41.6655-7.54591ZM53.2207-7.45509C53.8716-7.45509 54.2681-7.88673 54.2715-8.45022L55.709-53.2573C55.7124-53.9082 55.2739-54.2524 54.7036-54.2524C54.1401-54.2524 53.6562-53.9082 53.6528-53.3481L52.2153-8.49563C52.2119-7.93556 52.605-7.45509 53.2207-7.45509ZM26.0776-64.2588L28.2886-64.2588L28.2886-72.2349C28.2886-75.3721 30.295-77.1899 33.708-77.1899L49.5742-77.1899C53.0293-77.1899 55.0356-75.3721 55.0356-72.2349L55.0356-64.2588L57.25-64.2588L57.25-72.269C57.25-76.7139 54.353-79.3701 49.5176-79.3701L33.7612-79.3701C28.9746-79.3701 26.0776-76.7139 26.0776-72.269ZM6.99318-63.1533L76.3379-63.1533C76.9639-63.1533 77.4263-63.6645 77.4263-64.2451C77.4263-64.9165 76.9151-65.3369 76.3379-65.3369L6.99318-65.3369C6.41944-65.3369 5.85938-64.8711 5.85938-64.2451C5.85938-63.6191 6.41944-63.1533 6.99318-63.1533ZM24.6743 3.50782L58.6602 3.50782C62.6089 3.50782 65.96 0.348634 66.1621-3.51271L69.3369-63.7041L66.9863-63.7041L63.8638-3.70021C63.7207-0.958031 61.3931 1.32419 58.5635 1.32419L24.6734 1.32419C21.896 1.32419 19.565-0.96145 19.4219-3.70021L16.2437-63.6587L13.9941-63.6587L17.2178-3.50929C17.4199 0.352052 20.7187 3.50782 24.6743 3.50782Z"/>
  </g>
 </g>
</svg>
