<?xml version="1.0" encoding="UTF-8"?>
<!--Generator: Apple Native CoreSVG 341-->
<!DOCTYPE svg
PUBLIC "-//W3C//DTD SVG 1.1//EN"
       "http://www.w3.org/Graphics/SVG/1.1/DTD/svg11.dtd">
<svg version="1.1" xmlns="http://www.w3.org/2000/svg" xmlns:xlink="http://www.w3.org/1999/xlink" viewBox="0 0 3300 2200">
 <g id="Notes">
  <rect height="2200" id="artboard" style="fill:white;opacity:1" width="3300" x="0" y="0"/>
  <line style="fill:none;stroke:black;opacity:1;stroke-width:0.5;" x1="263" x2="3036" y1="292" y2="292"/>
  <text style="stroke:none;fill:black;font-family:sans-serif;font-size:13;font-weight:bold;" transform="matrix(1 0 0 1 263 322)">Weight/Scale Variations</text>
  <text style="stroke:none;fill:black;font-family:sans-serif;font-size:13;text-anchor:middle;" transform="matrix(1 0 0 1 559.711 322)">Ultralight</text>
  <text style="stroke:none;fill:black;font-family:sans-serif;font-size:13;text-anchor:middle;" transform="matrix(1 0 0 1 856.422 322)">Thin</text>
  <text style="stroke:none;fill:black;font-family:sans-serif;font-size:13;text-anchor:middle;" transform="matrix(1 0 0 1 1153.13 322)">Light</text>
  <text style="stroke:none;fill:black;font-family:sans-serif;font-size:13;text-anchor:middle;" transform="matrix(1 0 0 1 1449.84 322)">Regular</text>
  <text style="stroke:none;fill:black;font-family:sans-serif;font-size:13;text-anchor:middle;" transform="matrix(1 0 0 1 1746.56 322)">Medium</text>
  <text style="stroke:none;fill:black;font-family:sans-serif;font-size:13;text-anchor:middle;" transform="matrix(1 0 0 1 2043.27 322)">Semibold</text>
  <text style="stroke:none;fill:black;font-family:sans-serif;font-size:13;text-anchor:middle;" transform="matrix(1 0 0 1 2339.98 322)">Bold</text>
  <text style="stroke:none;fill:black;font-family:sans-serif;font-size:13;text-anchor:middle;" transform="matrix(1 0 0 1 2636.69 322)">Heavy</text>
  <text style="stroke:none;fill:black;font-family:sans-serif;font-size:13;text-anchor:middle;" transform="matrix(1 0 0 1 2933.4 322)">Black</text>
  <line style="fill:none;stroke:black;opacity:1;stroke-width:0.5;" x1="263" x2="3036" y1="1903" y2="1903"/>
  <g transform="matrix(0.2 0 0 0.2 263 1933)">
   <path d="m46.2402 4.15039c21.7773 0 39.4531-17.627 39.4531-39.4043s-17.6758-39.4043-39.4531-39.4043c-21.7285 0-39.4043 17.627-39.4043 39.4043s17.6758 39.4043 39.4043 39.4043Zm0-7.42188c-17.6758 0-31.9336-14.3066-31.9336-31.9824s14.2578-31.9824 31.9336-31.9824 31.9824 14.3066 31.9824 31.9824-14.3066 31.9824-31.9824 31.9824Zm3.61328-17.7734v-28.4668c0-2.24609-1.46484-3.75977-3.71094-3.75977-2.14844 0-3.61328 1.51367-3.61328 3.75977v28.4668c0 2.19727 1.46484 3.71094 3.61328 3.71094 2.24609 0 3.71094-1.51367 3.71094-3.71094Zm-17.8223-10.5957h28.418c2.19727 0 3.71094-1.46484 3.71094-3.61328 0-2.19727-1.51367-3.71094-3.71094-3.71094h-28.418c-2.24609 0-3.75977 1.51367-3.75977 3.71094 0 2.14844 1.51367 3.61328 3.75977 3.61328Z"/>
  </g>
  <g transform="matrix(0.2 0 0 0.2 281.506 1933)">
   <path d="m58.5449 14.5508c27.4902 0 49.8047-22.3145 49.8047-49.8047s-22.3145-49.8047-49.8047-49.8047-49.8047 22.3145-49.8047 49.8047 22.3145 49.8047 49.8047 49.8047Zm0-8.30078c-22.9492 0-41.5039-18.5547-41.5039-41.5039s18.5547-41.5039 41.5039-41.5039 41.5039 18.5547 41.5039 41.5039-18.5547 41.5039-41.5039 41.5039Zm4.05273-23.0957v-36.9141c0-2.49023-1.70898-4.19922-4.15039-4.19922-2.39258 0-4.05273 1.70898-4.05273 4.19922v36.9141c0 2.44141 1.66016 4.15039 4.05273 4.15039 2.44141 0 4.15039-1.66016 4.15039-4.15039Zm-22.5586-14.4043h36.9629c2.44141 0 4.15039-1.61133 4.15039-4.00391 0-2.44141-1.70898-4.15039-4.15039-4.15039h-36.9629c-2.49023 0-4.15039 1.70898-4.15039 4.15039 0 2.39258 1.66016 4.00391 4.15039 4.00391Z"/>
  </g>
  <g transform="matrix(0.2 0 0 0.2 304.924 1933)">
   <path d="m74.8535 28.3203c35.1074 0 63.623-28.4668 63.623-63.5742s-28.5156-63.623-63.623-63.623-63.5742 28.5156-63.5742 63.623 28.4668 63.5742 63.5742 63.5742Zm0-9.08203c-30.127 0-54.4922-24.3652-54.4922-54.4922s24.3652-54.4922 54.4922-54.4922 54.4922 24.3652 54.4922 54.4922-24.3652 54.4922-54.4922 54.4922Zm4.44336-30.3223v-48.4863c0-2.73438-1.85547-4.63867-4.54102-4.63867-2.58789 0-4.44336 1.9043-4.44336 4.63867v48.4863c0 2.68555 1.85547 4.58984 4.44336 4.58984 2.68555 0 4.54102-1.85547 4.54102-4.58984Zm-28.7109-19.7754h48.4863c2.68555 0 4.58984-1.80664 4.58984-4.39453 0-2.73438-1.85547-4.58984-4.58984-4.58984h-48.4863c-2.73438 0-4.58984 1.85547-4.58984 4.58984 0 2.58789 1.85547 4.39453 4.58984 4.39453Z"/>
  </g>
  <text style="stroke:none;fill:black;font-family:sans-serif;font-size:13;font-weight:bold;" transform="matrix(1 0 0 1 263 1953)">Design Variations</text>
  <text style="stroke:none;fill:black;font-family:sans-serif;font-size:13;" transform="matrix(1 0 0 1 263 1971)">Symbols are supported in up to nine weights and three scales.</text>
  <text style="stroke:none;fill:black;font-family:sans-serif;font-size:13;" transform="matrix(1 0 0 1 263 1989)">For optimal layout with text and other symbols, vertically align</text>
  <text style="stroke:none;fill:black;font-family:sans-serif;font-size:13;" transform="matrix(1 0 0 1 263 2007)">symbols with the adjacent text.</text>
  <line style="fill:none;stroke:#00AEEF;stroke-width:0.5;opacity:1.0;" x1="776" x2="776" y1="1919" y2="1933"/>
  <g transform="matrix(0.2 0 0 0.2 776 1933)">
   <path d="m16.5527 0.78125c2.58789 0 3.85742-0.976562 4.78516-3.71094l20.5566-57.5195h0.244141l20.6055 57.5195c0.927734 2.73438 2.19727 3.71094 4.73633 3.71094 2.58789 0 4.24805-1.5625 4.24805-4.00391 0-0.830078-0.146484-1.61133-0.537109-2.63672l-22.9004-60.9863c-1.12305-2.97852-3.125-4.49219-6.25-4.49219-3.02734 0-5.07812 1.46484-6.15234 4.44336l-22.9004 61.084c-0.390625 1.02539-0.537109 1.80664-0.537109 2.63672 0 2.44141 1.5625 3.95508 4.10156 3.95508Zm10.2051-20.9473h30.6641c2.00195 0 3.66211-1.66016 3.66211-3.66211 0-2.05078-1.66016-3.66211-3.66211-3.66211h-30.6641c-2.00195 0-3.66211 1.61133-3.66211 3.66211 0 2.00195 1.66016 3.66211 3.66211 3.66211Z"/>
  </g>
  <line style="fill:none;stroke:#00AEEF;stroke-width:0.5;opacity:1.0;" x1="792.836" x2="792.836" y1="1919" y2="1933"/>
  <text style="stroke:none;fill:black;font-family:sans-serif;font-size:13;font-weight:bold;" transform="matrix(1 0 0 1 776 1953)">Margins</text>
  <text style="stroke:none;fill:black;font-family:sans-serif;font-size:13;" transform="matrix(1 0 0 1 776 1971)">Leading and trailing margins on the left and right side of each symbol</text>
  <text style="stroke:none;fill:black;font-family:sans-serif;font-size:13;" transform="matrix(1 0 0 1 776 1989)">can be adjusted by modifying the x-location of the margin guidelines.</text>
  <text style="stroke:none;fill:black;font-family:sans-serif;font-size:13;" transform="matrix(1 0 0 1 776 2007)">Modifications are automatically applied proportionally to all</text>
  <text style="stroke:none;fill:black;font-family:sans-serif;font-size:13;" transform="matrix(1 0 0 1 776 2025)">scales and weights.</text>
  <g transform="matrix(0.2 0 0 0.2 1289 1933)">
   <path d="m14.209 13.1348 7.86133 7.86133c4.29688 4.39453 9.32617 4.10156 13.8672-1.02539l60.6934-68.2129-4.88281-4.88281-60.2539 67.6758c-1.80664 1.95312-3.4668 2.44141-5.81055 0.0976562l-5.17578-5.12695c-2.29492-2.29492-1.80664-3.95508 0.195312-5.81055l67.4805-62.1582-4.88281-4.83398-68.0664 62.5977c-4.98047 4.58984-5.32227 9.47266-1.02539 13.8184Zm44.873-97.4609c-2.05078 2.00195-2.24609 4.88281-1.07422 6.78711 1.12305 1.80664 3.4668 3.02734 6.5918 2.24609 5.85938-1.66016 12.5977-2.39258 18.8965 0.927734l-2.68555 7.12891c-1.61133 4.00391-0.732422 6.88477 1.70898 9.42383l10.2539 10.3027c2.34375 2.39258 4.54102 2.44141 7.08008 1.95312l4.44336-0.732422 2.58789 2.53906-0.195312 2.24609c-0.0976562 2.29492 0.537109 4.29688 2.7832 6.49414l3.36914 3.32031c2.29492 2.29492 5.51758 2.49023 7.8125 0.195312l12.9883-13.0371c2.29492-2.34375 2.14844-5.37109-0.195312-7.66602l-3.41797-3.41797c-2.19727-2.19727-4.05273-3.02734-6.34766-2.88086l-2.34375 0.244141-2.44141-2.44141 1.02539-4.6875c0.634766-2.73438-0.244141-4.98047-2.88086-7.61719l-11.2793-11.1816c-12.9395-12.8418-35.5957-11.0352-46.6797-0.146484Zm7.08008 2.05078c8.78906-6.39648 25.9766-5.66406 33.6914 1.95312l12.3047 12.207c1.02539 1.02539 1.2207 1.80664 0.927734 3.32031l-1.46484 6.64062 6.73828 6.68945 4.39453-0.244141c1.12305-0.0488281 1.51367 0.0488281 2.34375 0.878906l2.53906 2.49023-10.8398 10.8398-2.49023-2.49023c-0.830078-0.878906-0.976562-1.2207-0.927734-2.39258l0.292969-4.3457-6.68945-6.73828-6.83594 1.17188c-1.41602 0.292969-2.05078 0.195312-3.17383-0.878906l-8.93555-8.88672c-1.07422-1.02539-1.17188-1.70898-0.488281-3.36914l4.58984-11.4746c-6.10352-6.34766-17.041-7.51953-25.5859-4.58984-0.683594 0.244141-0.927734-0.390625-0.390625-0.78125Z"/>
  </g>
  <text style="stroke:none;fill:black;font-family:sans-serif;font-size:13;font-weight:bold;" transform="matrix(1 0 0 1 1289 1953)">Exporting</text>
  <text style="stroke:none;fill:black;font-family:sans-serif;font-size:13;" transform="matrix(1 0 0 1 1289 1971)">Symbols should be outlined when exporting to ensure the</text>
  <text style="stroke:none;fill:black;font-family:sans-serif;font-size:13;" transform="matrix(1 0 0 1 1289 1989)">design is preserved when submitting to Xcode.</text>
  <text id="template-version" style="stroke:none;fill:black;font-family:sans-serif;font-size:13;text-anchor:end;" transform="matrix(1 0 0 1 3036 1933)">Template v.2.0</text>
  <text style="stroke:none;fill:black;font-family:sans-serif;font-size:13;text-anchor:end;" transform="matrix(1 0 0 1 3036 1951)">Requires Xcode 12 or greater</text>
  <text id="descriptive-name" style="stroke:none;fill:black;font-family:sans-serif;font-size:13;text-anchor:end;" transform="matrix(1 0 0 1 3036 1969)">Generated from puzzlepiece.extension</text>
  <text style="stroke:none;fill:black;font-family:sans-serif;font-size:13;text-anchor:end;" transform="matrix(1 0 0 1 3036 1987)">Typeset at 100.0 points</text>
  <text style="stroke:none;fill:black;font-family:sans-serif;font-size:13;" transform="matrix(1 0 0 1 263 726)">Small</text>
  <text style="stroke:none;fill:black;font-family:sans-serif;font-size:13;" transform="matrix(1 0 0 1 263 1156)">Medium</text>
  <text style="stroke:none;fill:black;font-family:sans-serif;font-size:13;" transform="matrix(1 0 0 1 263 1586)">Large</text>
 </g>
 <g id="Guides">
  <g id="H-reference" style="fill:#27AAE1;stroke:none;" transform="matrix(1 0 0 1 339 696)">
   <path d="M0.993654 0L3.63775 0L29.3281-67.1323L30.0303-67.1323L30.0303-70.459L28.1226-70.459ZM11.6885-24.4799L46.9815-24.4799L46.2315-26.7285L12.4385-26.7285ZM55.1196 0L57.7637 0L30.6382-70.459L29.4326-70.459L29.4326-67.1323Z"/>
  </g>
  <line id="Baseline-S" style="fill:none;stroke:#27AAE1;opacity:1;stroke-width:0.5;" x1="263" x2="3036" y1="696" y2="696"/>
  <line id="Capline-S" style="fill:none;stroke:#27AAE1;opacity:1;stroke-width:0.5;" x1="263" x2="3036" y1="625.541" y2="625.541"/>
  <g id="H-reference" style="fill:#27AAE1;stroke:none;" transform="matrix(1 0 0 1 339 1126)">
   <path d="M0.993654 0L3.63775 0L29.3281-67.1323L30.0303-67.1323L30.0303-70.459L28.1226-70.459ZM11.6885-24.4799L46.9815-24.4799L46.2315-26.7285L12.4385-26.7285ZM55.1196 0L57.7637 0L30.6382-70.459L29.4326-70.459L29.4326-67.1323Z"/>
  </g>
  <line id="Baseline-M" style="fill:none;stroke:#27AAE1;opacity:1;stroke-width:0.5;" x1="263" x2="3036" y1="1126" y2="1126"/>
  <line id="Capline-M" style="fill:none;stroke:#27AAE1;opacity:1;stroke-width:0.5;" x1="263" x2="3036" y1="1055.54" y2="1055.54"/>
  <g id="H-reference" style="fill:#27AAE1;stroke:none;" transform="matrix(1 0 0 1 339 1556)">
   <path d="M0.993654 0L3.63775 0L29.3281-67.1323L30.0303-67.1323L30.0303-70.459L28.1226-70.459ZM11.6885-24.4799L46.9815-24.4799L46.2315-26.7285L12.4385-26.7285ZM55.1196 0L57.7637 0L30.6382-70.459L29.4326-70.459L29.4326-67.1323Z"/>
  </g>
  <line id="Baseline-L" style="fill:none;stroke:#27AAE1;opacity:1;stroke-width:0.5;" x1="263" x2="3036" y1="1556" y2="1556"/>
  <line id="Capline-L" style="fill:none;stroke:#27AAE1;opacity:1;stroke-width:0.5;" x1="263" x2="3036" y1="1485.54" y2="1485.54"/>
  <line id="right-margin" style="fill:none;stroke:#00AEEF;stroke-width:0.5;opacity:1.0;" x1="1520.19" x2="1520.19" y1="1030.79" y2="1150.12"/>
  <line id="left-margin" style="fill:none;stroke:#00AEEF;stroke-width:0.5;opacity:1.0;" x1="1379.5" x2="1379.5" y1="1030.79" y2="1150.12"/>
 </g>
 <g id="Symbols">
  <g id="Black-L" transform="matrix(1 0 0 1 2839.03 1556)">
   <path d="M16.084 7.31299C16.084 20.8162 24.6527 29.2837 38.3972 29.2837L116.971 29.2837C130.695 29.2837 139.264 20.8162 139.264 7.31299L139.264-9.80591C139.264-10.8581 140.015-11.2138 141.227-10.5972C144.035-9.07105 147.562-8.28444 151.484-8.28444C164.687-8.28444 177.49-18.4394 177.49-35.3126C177.49-52.2053 164.687-62.3407 151.484-62.3407C147.562-62.3407 144.035-61.5737 141.227-60.0267C140.015-59.4322 139.264-59.7658 139.264-60.8388L139.264-78.0132C139.264-91.5164 130.695-99.9839 116.971-99.9839L38.3972-99.9839C24.6527-99.9839 16.084-91.5164 16.084-78.0132L16.084-50.5745C16.084-43.4624 21.0031-38.3769 27.5114-38.3769C31.4102-38.3769 34.0634-39.7864 36.5068-41.541C39.1255-43.4439 41.6502-45.0827 45.0441-45.0827C50.5963-45.0827 54.6855-41.2177 54.6855-35.3281C54.6855-29.4385 50.5963-25.5735 45.0441-25.5735C41.6502-25.5735 39.1255-27.2123 36.5068-29.1152C34.0634-30.8698 31.4102-32.2793 27.5114-32.2793C21.0031-32.2793 16.084-27.1938 16.084-20.0817ZM33.7287 6.67801L33.7287-9.50155C33.7287-11.1782 34.7299-11.042 35.9821-10.4474C38.7081-9.02535 42.1103-8.29999 45.9491-8.29999C59.1522-8.29999 71.9342-18.4562 71.9342-35.3281C71.9342-52.2001 59.1522-62.3562 45.9491-62.3562C42.1103-62.3562 38.7081-61.6309 35.9821-60.2088C34.7299-59.6143 33.7287-59.478 33.7287-61.1547L33.7287-77.3782C33.7287-80.4722 35.5813-82.3392 38.558-82.3392L116.81-82.3392C119.766-82.3392 121.619-80.4722 121.619-77.3782L121.619-50.5917C121.619-43.4797 126.539-38.3613 133.046-38.3613C136.945-38.3613 139.599-39.7709 142.042-41.5254C144.662-43.4492 147.186-45.0672 150.579-45.0672C156.131-45.0672 160.22-41.2009 160.22-35.3126C160.22-29.4438 156.131-25.5579 150.579-25.5579C147.186-25.5579 144.662-27.1967 142.042-29.0997C139.599-30.8542 136.945-32.2626 133.046-32.2626C126.539-32.2626 121.619-27.1663 121.619-20.053L121.619 6.67801C121.619 9.77194 119.766 11.6389 116.81 11.6389L38.558 11.6389C35.5813 11.6389 33.7287 9.77194 33.7287 6.67801Z"/>
  </g>
  <g id="Heavy-L" transform="matrix(1 0 0 1 2543.22 1556)">
   <path d="M16.084 7.19296C16.084 20.3451 24.1685 28.3191 37.5619 28.3191L115.975 28.3191C129.338 28.3191 137.423 20.3451 137.423 7.19296L137.423-11.2629C137.423-12.3129 138.181-12.7265 139.386-12.0471C142.467-10.2309 146.249-9.10453 150.548-9.10453C163.439-9.10453 175.68-19.0846 175.68-35.2414C175.68-51.4227 163.439-61.3782 150.548-61.3782C146.249-61.3782 142.467-60.2764 139.386-58.43C138.181-57.7864 137.423-58.1642 137.423-59.2444L137.423-77.8932C137.423-91.0453 129.338-99.0193 115.975-99.0193L37.5619-99.0193C24.1685-99.0193 16.084-91.0453 16.084-77.8932L16.084-50.3027C16.084-43.6815 20.6215-39.0786 26.5959-39.0786C30.1114-39.0786 32.6944-40.3883 35.1169-42.237C37.8619-44.3501 40.6116-46.0336 44.133-46.0336C50.1287-46.0336 54.6855-41.7863 54.6855-35.3143C54.6855-28.8423 50.1287-24.5951 44.133-24.5951C40.6116-24.5951 37.8619-26.2786 35.1169-28.3916C32.6944-30.2404 30.1114-31.5501 26.5959-31.5501C20.6215-31.5501 16.084-26.9471 16.084-20.3259ZM31.7995 6.58889L31.7995-10.9146C31.7995-12.8702 32.9202-12.5278 34.1803-11.8842C37.1456-10.219 40.7462-9.1775 44.9244-9.1775C57.816-9.1775 70.027-19.1632 70.027-35.3143C70.027-51.4655 57.816-61.4512 44.9244-61.4512C40.7462-61.4512 37.1456-60.4097 34.1803-58.7444C32.9202-58.1008 31.7995-57.7584 31.7995-59.714L31.7995-77.2891C31.7995-81.0762 34.0541-83.3038 37.7228-83.3038L115.814-83.3038C119.453-83.3038 121.707-81.0762 121.707-77.2891L121.707-50.3161C121.707-43.6949 126.25-39.0056 132.219-39.0056C135.735-39.0056 138.323-40.3153 140.74-42.1641C143.491-44.3073 146.24-45.9606 149.756-45.9606C155.752-45.9606 160.309-41.7077 160.309-35.2414C160.309-28.7995 155.752-24.5221 149.756-24.5221C146.24-24.5221 143.491-26.2056 140.74-28.3186C138.323-30.1674 135.735-31.4715 132.219-31.4715C126.25-31.4715 121.707-26.818 121.707-20.1912L121.707 6.58889C121.707 10.3759 119.453 12.6036 115.814 12.6036L37.7228 12.6036C34.0541 12.6036 31.7995 10.3759 31.7995 6.58889Z"/>
  </g>
  <g id="Bold-L" transform="matrix(1 0 0 1 2247.63 1556)">
   <path d="M16.084 7.13631C16.084 19.7164 23.5841 27.0981 36.4055 27.0981L114.85 27.0981C127.633 27.0981 135.133 19.7164 135.133 7.13631L135.133-13.0239C135.133-14.1036 135.929-14.6088 137.157-13.8376C140.523-11.7051 144.56-10.1263 149.417-10.1263C161.947-10.1263 173.437-19.8465 173.437-35.1269C173.437-50.4321 161.947-60.1275 149.417-60.1275C144.56-60.1275 140.523-58.5735 137.157-56.403C135.929-55.683 135.133-56.137 135.133-57.2547L135.133-77.8366C135.133-90.4167 127.633-97.7984 114.85-97.7984L36.4055-97.7984C23.5841-97.7984 16.084-90.4167 16.084-77.8366L16.084-50.0094C16.084-44.0176 20.1303-40.0214 25.4513-40.0214C28.498-40.0214 30.9517-41.2007 33.3212-43.12C36.2422-45.4869 39.2463-47.2391 42.9961-47.2391C49.5896-47.2391 54.6855-42.5081 54.6855-35.2989C54.6855-28.0897 49.5896-23.3587 42.9961-23.3587C39.2463-23.3587 36.2422-25.1109 33.3212-27.4778C30.9517-29.3971 28.498-30.5764 25.4513-30.5764C20.1303-30.5764 16.084-26.5802 16.084-20.5884ZM29.3576 6.58556L29.3576-12.7336C29.3576-14.953 30.6095-14.4389 31.8997-13.719C35.1273-11.7763 38.9365-10.2983 43.6416-10.2983C56.1713-10.2983 67.6232-20.0317 67.6232-35.2989C67.6232-50.5661 56.1713-60.2995 43.6416-60.2995C38.9365-60.2995 35.1273-58.8215 31.8997-56.8789C30.6095-56.1589 29.3576-55.6448 29.3576-57.8642L29.3576-77.2858C29.3576-81.8588 32.0967-84.5247 36.5663-84.5247L114.689-84.5247C119.12-84.5247 121.86-81.8588 121.86-77.2858L121.86-50.0077C121.86-44.0159 125.919-39.8494 131.227-39.8494C134.273-39.8494 136.74-41.0287 139.097-42.9481C142.031-45.3529 145.035-47.0671 148.772-47.0671C155.365-47.0671 160.461-42.3229 160.461-35.1269C160.461-27.9557 155.365-23.1867 148.772-23.1867C145.035-23.1867 142.031-24.9389 139.097-27.3058C136.74-29.2251 134.273-30.3912 131.227-30.3912C125.919-30.3912 121.86-26.2759 121.86-20.2709L121.86 6.58556C121.86 11.1586 119.12 13.8245 114.689 13.8245L36.5663 13.8245C32.0967 13.8245 29.3576 11.1586 29.3576 6.58556Z"/>
  </g>
  <g id="Semibold-L" transform="matrix(1 0 0 1 1951.69 1556)">
   <path d="M16.084 7.09726C16.084 19.283 23.1812 26.2564 35.6082 26.2564L114.074 26.2564C126.458 26.2564 133.555 19.283 133.555 7.09726L133.555-14.2379C133.555-15.3381 134.377-15.9065 135.619-15.072C139.183-12.7214 143.396-10.8307 148.638-10.8307C160.918-10.8307 171.89-20.3717 171.89-35.048C171.89-49.7492 160.918-59.2653 148.638-59.2653C143.396-59.2653 139.183-57.3996 135.619-55.0056C134.377-54.2329 133.555-54.7394 133.555-55.883L133.555-77.7975C133.555-89.9832 126.458-96.9567 114.074-96.9567L35.6082-96.9567C23.1812-96.9567 16.084-89.9832 16.084-77.7975L16.084-49.8072C16.084-44.2493 19.7916-40.6714 24.6622-40.6714C27.3856-40.6714 29.7502-41.7608 32.0832-43.7288C35.1257-46.2706 38.3051-48.0702 42.2122-48.0702C49.2179-48.0702 54.6855-43.0056 54.6855-35.2883C54.6855-27.5709 49.2179-22.5064 42.2122-22.5064C38.3051-22.5064 35.1257-24.306 32.0832-26.8478C29.7502-28.8158 27.3856-29.9052 24.6622-29.9052C19.7916-29.9052 16.084-26.3273 16.084-20.7694ZM27.6742 6.58327L27.6742-13.9876C27.6742-16.3888 29.0165-15.7565 30.3274-14.9838C33.7359-12.85 37.689-11.071 42.7573-11.071C55.0375-11.071 65.9661-20.6304 65.9661-35.2883C65.9661-49.9461 55.0375-59.5056 42.7573-59.5056C37.689-59.5056 33.7359-57.7265 30.3274-55.5927C29.0165-54.8201 27.6742-54.1877 27.6742-56.589L27.6742-77.2835C27.6742-82.3984 30.7473-85.3664 35.769-85.3664L113.913-85.3664C118.891-85.3664 121.965-82.3984 121.965-77.2835L121.965-49.7951C121.965-44.2372 125.691-40.4311 130.543-40.4311C133.266-40.4311 135.649-41.5205 137.964-43.4885C141.025-46.0737 144.204-47.8299 148.093-47.8299C155.098-47.8299 160.566-42.7469 160.566-35.048C160.566-27.374 155.098-22.2661 148.093-22.2661C144.204-22.2661 141.025-24.0657 137.964-26.6075C135.649-28.5755 133.266-29.6464 130.543-29.6464C125.691-29.6464 121.965-25.9022 121.965-20.3258L121.965 6.58327C121.965 11.6982 118.891 14.6662 113.913 14.6662L35.769 14.6662C30.7473 14.6662 27.6742 11.6982 27.6742 6.58327Z"/>
  </g>
  <g id="Medium-L" transform="matrix(1 0 0 1 1655.57 1556)">
   <path d="M16.084 7.06765C16.084 18.9544 22.8757 25.6182 35.0037 25.6182L113.486 25.6182C125.566 25.6182 132.358 18.9544 132.358 7.06765L132.358-15.1584C132.358-16.2742 133.2-16.8904 134.454-16.008C138.167-13.4919 142.513-11.3648 148.047-11.3648C160.138-11.3648 170.717-20.7699 170.717-34.9882C170.717-49.2314 160.138-58.6116 148.047-58.6116C142.513-58.6116 138.167-56.5094 134.454-53.946C133.2-53.1334 132.358-53.6797 132.358-54.843L132.358-77.7679C132.358-89.6546 125.566-96.3184 113.486-96.3184L35.0037-96.3184C22.8757-96.3184 16.084-89.6546 16.084-77.7679L16.084-49.6538C16.084-44.425 19.5349-41.1642 24.0639-41.1642C26.5422-41.1642 28.8392-42.1854 31.1445-44.1904C34.2791-46.8648 37.5914-48.7003 41.6179-48.7003C48.9361-48.7003 54.6855-43.3829 54.6855-35.2802C54.6855-27.1775 48.9361-21.8601 41.6179-21.8601C37.5914-21.8601 34.2791-23.6956 31.1445-26.3701C28.8392-28.375 26.5422-29.3962 24.0639-29.3962C19.5349-29.3962 16.084-26.1355 16.084-20.9066ZM26.3978 6.58153L26.3978-14.9384C26.3978-17.4775 27.8087-16.7554 29.1353-15.9429C32.6808-13.6641 36.743-11.6568 42.0867-11.6568C54.1777-11.6568 64.7095-21.0844 64.7095-35.2802C64.7095-49.476 54.1777-58.9036 42.0867-58.9036C36.743-58.9036 32.6808-56.8963 29.1353-54.6175C27.8087-53.805 26.3978-53.0829 26.3978-55.622L26.3978-77.2818C26.3978-82.8076 29.7242-86.0047 35.1645-86.0047L113.325-86.0047C118.718-86.0047 122.044-82.8076 122.044-77.2818L122.044-49.6339C122.044-44.405 125.518-40.8722 130.024-40.8722C132.502-40.8722 134.822-41.8934 137.105-43.8983C140.262-46.6202 143.574-48.4083 147.578-48.4083C154.896-48.4083 160.646-43.0684 160.646-34.9882C160.646-26.9329 154.896-21.5681 147.578-21.5681C143.574-21.5681 140.262-23.4036 137.105-26.0781C134.822-28.083 132.502-29.0817 130.024-29.0817C125.518-29.0817 122.044-25.6188 122.044-20.3675L122.044 6.58153C122.044 12.1073 118.718 15.3044 113.325 15.3044L35.1645 15.3044C29.7242 15.3044 26.3978 12.1073 26.3978 6.58153Z"/>
  </g>
  <g id="Regular-L" transform="matrix(1 0 0 1 1359.62 1556)">
   <path d="M16.084 7.02902C16.084 18.5257 22.4772 24.7857 34.2151 24.7857L112.719 24.7857C124.404 24.7857 130.797 18.5257 130.797 7.02902L130.797-16.3591C130.797-17.4951 131.664-18.1738 132.933-17.2288C136.841-14.497 141.362-12.0615 147.276-12.0615C159.12-12.0615 169.187-21.2894 169.187-34.9102C169.187-48.5561 159.12-57.7588 147.276-57.7588C141.362-57.7588 136.841-55.3484 132.933-52.5639C131.664-51.6993 130.797-52.2975 130.797-53.4864L130.797-77.7293C130.797-89.226 124.404-95.486 112.719-95.486L34.2151-95.486C22.4772-95.486 16.084-89.226 16.084-77.7293L16.084-49.4538C16.084-44.6541 19.2-41.8071 23.2835-41.8071C25.4421-41.8071 27.6509-42.7393 29.9201-44.7924C33.1748-47.6399 36.6605-49.5223 40.8427-49.5223C48.5685-49.5223 54.6855-43.875 54.6855-35.2697C54.6855-26.6644 48.5685-21.0171 40.8427-21.0171C36.6605-21.0171 33.1748-22.8995 29.9201-25.747C27.6509-27.8001 25.4421-28.7323 23.2835-28.7323C19.2-28.7323 16.084-25.8853 16.084-21.0856ZM24.7328 6.57926L24.7328-16.1786C24.7328-18.8976 26.2332-18.0585 27.5803-17.1939C31.3047-14.7259 35.5091-12.421 41.2121-12.421C53.0564-12.421 63.0706-21.6766 63.0706-35.2697C63.0706-48.8628 53.0564-58.1184 41.2121-58.1184C35.5091-58.1184 31.3047-55.8135 27.5803-53.3455C26.2332-52.4809 24.7328-51.6418 24.7328-54.3608L24.7328-77.2795C24.7328-83.3412 28.3896-86.8371 34.376-86.8371L112.558-86.8371C118.491-86.8371 122.148-83.3412 122.148-77.2795L122.148-49.4236C122.148-44.6239 125.292-41.4475 129.348-41.4475C131.506-41.4475 133.743-42.3798 135.984-44.4329C139.267-47.3331 142.752-49.1627 146.907-49.1627C154.633-49.1627 160.75-43.4878 160.75-34.9102C160.75-26.3576 154.633-20.6576 146.907-20.6576C142.752-20.6576 139.267-22.54 135.984-25.3875C133.743-27.4405 131.506-28.3452 129.348-28.3452C125.292-28.3452 122.148-25.2492 122.148-20.4218L122.148 6.57926C122.148 12.641 118.491 16.1369 112.558 16.1369L34.376 16.1369C28.3896 16.1369 24.7328 12.641 24.7328 6.57926Z"/>
  </g>
  <g id="Light-L" transform="matrix(1 0 0 1 1063.69 1556)">
   <path d="M16.084 7.58249C16.084 17.8005 22.1718 23.7742 32.6311 23.7742L112.642 23.7742C123.068 23.7742 129.156 17.8005 129.156 7.58249L129.156-17.2942C129.156-18.6593 130.233-19.5289 131.712-18.4311C135.486-15.7567 139.797-12.8058 146.684-12.8058C158.433-12.8058 167.622-21.5757 167.622-34.6621C167.622-47.7354 158.433-56.5183 146.684-56.5183C139.797-56.5183 135.486-53.5544 131.712-50.8462C130.233-49.8289 129.156-50.618 129.156-52.0168L129.156-78.2827C129.156-88.5007 123.068-94.4745 112.642-94.4745L32.6311-94.4745C22.1718-94.4745 16.084-88.5007 16.084-78.2827L16.084-49.5302C16.084-45.303 18.7419-42.9331 22.4247-42.9331C24.297-42.9331 26.1432-43.7318 28.2025-45.5367C31.7052-48.5178 35.21-50.5338 40.003-50.5338C48.454-50.5338 54.6855-44.4858 54.6855-35.2697C54.6855-26.0536 48.454-20.0056 40.003-20.0056C35.21-20.0056 31.7052-22.0216 28.2025-25.0027C26.1432-26.8076 24.297-27.6063 22.4247-27.6063C18.7419-27.6063 16.084-25.2364 16.084-21.0092ZM22.7098 7.26633L22.7098-17.8772C22.7098-20.2526 24.191-19.8334 25.6909-18.8161C29.3771-16.31 33.4861-13.4135 40.2387-13.4135C51.9876-13.4135 61.143-22.2301 61.143-35.2697C61.143-48.3094 51.9876-57.1259 40.2387-57.1259C33.4861-57.1259 29.3771-54.2294 25.6909-51.7233C24.191-50.706 22.7098-50.2868 22.7098-52.6622L22.7098-77.9666C22.7098-84.1046 26.6147-87.8486 32.7919-87.8486L112.481-87.8486C118.625-87.8486 122.53-84.1046 122.53-77.9666L122.53-49.4236C122.53-45.1965 125.234-42.3254 128.87-42.3254C130.743-42.3254 132.636-43.1241 134.648-44.9291C138.198-47.9438 141.703-49.9261 146.449-49.9261C154.9-49.9261 161.131-43.8314 161.131-34.6621C161.131-25.4797 154.9-19.398 146.449-19.398C141.703-19.398 138.198-21.414 134.648-24.395C132.636-26.2 130.743-26.9519 128.87-26.9519C125.234-26.9519 122.53-24.1613 122.53-19.8874L122.53 7.26633C122.53 13.4044 118.625 17.1484 112.481 17.1484L32.7919 17.1484C26.6147 17.1484 22.7098 13.4044 22.7098 7.26633Z"/>
  </g>
  <g id="Thin-L" transform="matrix(1 0 0 1 768.017 1556)">
   <path d="M16.084 8.31451C16.084 16.8413 21.7679 22.4364 30.536 22.4364L112.541 22.4364C121.301 22.4364 126.985 16.8413 126.985 8.31451L126.985-18.5311C126.985-20.1991 128.34-21.321 130.096-20.0214C133.694-17.4226 137.727-13.7903 145.902-13.7903C157.525-13.7903 165.553-21.9543 165.553-34.3339C165.553-46.65 157.525-54.8776 145.902-54.8776C137.727-54.8776 133.694-51.1816 130.096-48.5745C128.34-47.3552 126.985-48.3968 126.985-50.0732L126.985-79.0148C126.985-87.5415 121.301-93.1366 112.541-93.1366L30.536-93.1366C21.7679-93.1366 16.084-87.5415 16.084-79.0148L16.084-49.6311C16.084-46.1612 18.1361-44.4224 21.2888-44.4224C22.7825-44.4224 24.1491-45.0444 25.9307-46.5212C29.7616-49.6789 33.2916-51.8716 38.8923-51.8716C48.3026-51.8716 54.6855-45.2935 54.6855-35.2697C54.6855-25.2459 48.3026-18.6678 38.8923-18.6678C33.2916-18.6678 29.7616-20.8605 25.9307-24.0182C24.1491-25.4951 22.7825-26.117 21.2888-26.117C18.1361-26.117 16.084-24.3782 16.084-20.9083ZM20.0342 8.17503L20.0342-20.1237C20.0342-22.0448 21.4902-22.1809 23.1919-20.9617C26.8277-18.4051 30.8104-14.726 38.9514-14.726C50.574-14.726 58.5936-22.9621 58.5936-35.2697C58.5936-47.5773 50.574-55.8134 38.9514-55.8134C30.8104-55.8134 26.8277-52.1343 23.1919-49.5777C21.4902-48.3585 20.0342-48.4946 20.0342-50.4157L20.0342-78.8753C20.0342-85.1143 24.2672-89.1865 30.6968-89.1865L112.38-89.1865C118.802-89.1865 123.035-85.1143 123.035-78.8753L123.035-49.4236C123.035-45.9537 125.159-43.4866 128.239-43.4866C129.733-43.4866 131.172-44.1086 132.881-45.5854C136.784-48.7516 140.314-50.9358 145.843-50.9358C155.253-50.9358 161.636-44.2857 161.636-34.3339C161.636-24.3186 155.253-17.732 145.843-17.732C140.314-17.732 136.784-19.9247 132.881-23.0825C131.172-24.5593 129.733-25.1093 128.239-25.1093C125.159-25.1093 123.035-22.7225 123.035-19.1807L123.035 8.17503C123.035 14.414 118.802 18.4862 112.38 18.4862L30.6968 18.4862C24.2672 18.4862 20.0342 14.414 20.0342 8.17503Z"/>
  </g>
  <g id="Ultralight-L" transform="matrix(1 0 0 1 471.835 1556)">
   <path d="M16.084 8.68944C16.084 16.35 21.5611 21.7512 29.4629 21.7512L112.49 21.7512C120.396 21.7512 125.873 16.35 125.873 8.68944L125.873-19.1646C125.873-20.9877 127.37-22.239 129.269-20.8359C132.776-18.2759 136.667-14.2945 145.501-14.2945C157.059-14.2945 164.492-22.1482 164.492-34.1658C164.492-46.0941 157.059-54.0372 145.501-54.0372C136.667-54.0372 132.776-49.9663 129.269-47.4109C127.37-46.0882 125.873-47.259 125.873-49.0777L125.873-79.3897C125.873-87.0503 120.396-92.4514 112.49-92.4514L29.4629-92.4514C21.5611-92.4514 16.084-87.0503 16.084-79.3897L16.084-49.6828C16.084-46.6008 17.8258-45.1852 20.707-45.1852C22.0068-45.1852 23.1277-45.7166 24.7671-47.0254C28.7661-50.2736 32.3091-52.5568 38.3235-52.5568C48.225-52.5568 54.6855-45.7072 54.6855-35.2697C54.6855-24.8322 48.225-17.9826 38.3235-17.9826C32.3091-17.9826 28.7661-20.2658 24.7671-23.514C23.1277-24.8228 22.0068-25.3542 20.707-25.3542C17.8258-25.3542 16.084-23.9386 16.084-20.8566ZM18.6637 8.64047L18.6637-21.2744C18.6637-22.9627 20.1068-23.3833 21.912-22.0606C25.5219-19.4782 29.44-15.3983 38.292-15.3983C49.85-15.3983 57.2878-23.337 57.2878-35.2697C57.2878-47.2024 49.85-55.1411 38.292-55.1411C29.44-55.1411 25.5219-51.0612 21.912-48.4788C20.1068-47.1561 18.6637-47.5767 18.6637-49.265L18.6637-79.3407C18.6637-85.6314 23.0648-89.8717 29.6237-89.8717L112.329-89.8717C118.892-89.8717 123.293-85.6314 123.293-79.3407L123.293-49.4236C123.293-46.3416 125.12-44.0813 127.916-44.0813C129.216-44.0813 130.422-44.6128 131.976-45.9215C136.06-49.1653 139.603-51.453 145.533-51.453C155.434-51.453 161.895-44.5184 161.895-34.1658C161.895-23.7238 155.434-16.8787 145.533-16.8787C139.603-16.8787 136.06-19.1619 131.976-22.4102C130.422-23.7189 129.216-24.1655 127.916-24.1655C125.12-24.1655 123.293-21.9856 123.293-18.8187L123.293 8.64047C123.293 14.9312 118.892 19.1714 112.329 19.1714L29.6237 19.1714C23.0648 19.1714 18.6637 14.9312 18.6637 8.64047Z"/>
  </g>
  <g id="Black-M" transform="matrix(1 0 0 1 2859.61 1126)">
   <path d="M12.4609-2.0919C12.4609 8.49803 19.4743 15.4436 30.2511 15.4436L91.4684 15.4436C102.24 15.4436 109.253 8.49803 109.253-2.0919L109.253-14.4073C109.253-15.2554 109.857-15.507 110.83-15.0627C112.754-14.1373 115.239-13.7501 118.086-13.7501C128.569-13.7501 138.852-21.7058 138.852-35.3214C138.852-48.9428 128.569-56.8928 118.086-56.8928C115.239-56.8928 112.754-56.5113 110.83-55.5805C109.857-55.1414 109.253-55.3878 109.253-56.2413L109.253-68.554C109.253-79.1439 102.24-86.0894 91.4684-86.0894L30.2511-86.0894C19.4743-86.0894 12.4609-79.1439 12.4609-68.554L12.4609-47.3619C12.4609-41.5075 16.538-37.2174 21.9847-37.2174C25.2959-37.2174 27.3625-38.3772 29.2452-39.6219C31.199-40.9338 32.9643-42.1831 35.5668-42.1831C39.5854-42.1831 42.3672-39.4628 42.3672-35.3177C42.3672-31.1726 39.5854-28.4524 35.5668-28.4524C32.9643-28.4524 31.199-29.7017 29.2452-31.0135C27.3625-32.2583 25.2959-33.418 21.9847-33.418C16.538-33.418 12.4609-29.128 12.4609-23.2736ZM27.515-2.59232L27.515-14.3127C27.515-15.3254 28.1852-15.4539 29.1694-15.0148C31.0706-14.1168 33.5229-13.7464 36.3475-13.7464C46.8313-13.7464 57.1083-21.7018 57.1083-35.3177C57.1083-48.9336 46.8313-56.8891 36.3475-56.8891C33.5229-56.8891 31.0706-56.5186 29.1694-55.6207C28.1852-55.1816 27.515-55.31 27.515-56.3228L27.515-68.0536C27.515-69.8653 28.6384-71.0354 30.3757-71.0354L91.3438-71.0354C93.0756-71.0354 94.199-69.8653 94.199-68.0536L94.199-47.3682C94.199-41.5139 98.2758-37.2211 103.723-37.2211C107.034-37.2211 109.1-38.3809 110.983-39.6256C112.937-40.9429 114.702-42.1868 117.305-42.1868C121.324-42.1868 124.105-39.4668 124.105-35.3214C124.105-31.1818 121.324-28.4561 117.305-28.4561C114.702-28.4561 112.937-29.7054 110.983-31.0172C109.1-32.262 107.034-33.422 103.723-33.422C98.2758-33.422 94.199-29.1345 94.199-23.2804L94.199-2.59232C94.199-0.780626 93.0756 0.389457 91.3438 0.389457L30.3757 0.389457C28.6384 0.389457 27.515-0.780626 27.515-2.59232Z"/>
  </g>
  <g id="Heavy-M" transform="matrix(1 0 0 1 2563.71 1126)">
   <path d="M12.4609-2.2603C12.4609 8.10442 19.0291 14.5939 29.5807 14.5939L90.5015 14.5939C101.037 14.5939 107.605 8.10442 107.605-2.2603L107.605-15.7453C107.605-16.5702 108.197-16.8608 109.144-16.3691C111.346-15.1549 114.1-14.4831 117.225-14.4831C127.413-14.4831 137.227-22.3101 137.227-35.2747C137.227-48.2534 127.413-56.0663 117.225-56.0663C114.1-56.0663 111.346-55.4086 109.144-54.178C108.197-53.705 107.605-53.977 107.605-54.8182L107.605-68.3856C107.605-78.7503 101.037-85.2398 90.5015-85.2398L29.5807-85.2398C19.0291-85.2398 12.4609-78.7503 12.4609-68.3856L12.4609-47.0891C12.4609-41.6618 16.2071-37.7995 21.1689-37.7995C24.1319-37.7995 26.1634-38.8739 28.0449-40.2337C30.0993-41.7386 32.0828-43.0193 34.7536-43.0193C39.1389-43.0193 42.3672-39.9624 42.3672-35.3043C42.3672-30.6461 39.1389-27.5893 34.7536-27.5893C32.0828-27.5893 30.0993-28.8699 28.0449-30.3748C26.1634-31.7346 24.1319-32.809 21.1689-32.809C16.2071-32.809 12.4609-28.9467 12.4609-23.5194ZM25.8157-2.74282L25.8157-15.5374C25.8157-16.8545 26.6046-16.7427 27.5823-16.2697C29.7209-15.1375 32.376-14.5126 35.4356-14.5126C45.6237-14.5126 55.4218-22.3419 55.4218-35.3043C55.4218-48.2666 45.6237-56.0959 35.4356-56.0959C32.376-56.0959 29.7209-55.471 27.5823-54.3389C26.6046-53.8659 25.8157-53.7541 25.8157-55.0712L25.8157-67.9031C25.8157-70.3853 27.3092-71.885 29.7053-71.885L90.3769-71.885C92.7567-71.885 94.2502-70.3853 94.2502-67.9031L94.2502-47.0987C94.2502-41.6714 97.9986-37.7699 102.958-37.7699C105.921-37.7699 107.955-38.8444 109.834-40.2041C111.891-41.7254 113.874-42.9897 116.543-42.9897C120.928-42.9897 124.156-39.9306 124.156-35.2747C124.156-30.633 120.928-27.5597 116.543-27.5597C113.874-27.5597 111.891-28.8404 109.834-30.3453C107.955-31.705 105.921-32.7772 102.958-32.7772C97.9986-32.7772 94.2502-28.8944 94.2502-23.4648L94.2502-2.74282C94.2502-0.260635 92.7567 1.23913 90.3769 1.23913L29.7053 1.23913C27.3092 1.23913 25.8157-0.260635 25.8157-2.74282Z"/>
  </g>
  <g id="Bold-M" transform="matrix(1 0 0 1 2267.91 1126)">
   <path d="M12.4609-2.44867C12.4609 7.66412 18.5311 13.6434 28.8308 13.6434L89.4199 13.6434C99.6909 13.6434 105.761 7.66412 105.761-2.44867L105.761-17.2421C105.761-18.0409 106.339-18.3753 107.258-17.8305C109.771-16.2933 112.825-15.3031 116.262-15.3031C126.119-15.3031 135.41-22.9861 135.41-35.2225C135.41-47.4823 126.119-55.1418 116.262-55.1418C112.825-55.1418 109.771-54.1751 107.258-52.6092C106.339-52.0983 105.761-52.3988 105.761-53.2263L105.761-68.1972C105.761-78.31 99.6909-84.2893 89.4199-84.2893L28.8308-84.2893C18.5311-84.2893 12.4609-78.31 12.4609-68.1972L12.4609-46.784C12.4609-41.8345 15.837-38.4506 20.2564-38.4506C22.8298-38.4506 24.822-39.4297 26.7022-40.918C28.8692-42.6389 31.0966-43.9547 33.844-43.9547C38.6394-43.9547 42.3672-40.5212 42.3672-35.2892C42.3672-30.0572 38.6394-26.6237 33.844-26.6237C31.0966-26.6237 28.8692-27.9395 26.7022-29.6604C24.822-31.1487 22.8298-32.1278 20.2564-32.1278C15.837-32.1278 12.4609-28.7439 12.4609-23.7944ZM23.9147-2.91117L23.9147-16.9073C23.9147-18.5649 24.8364-18.1844 25.8069-17.6734C28.2111-16.2793 31.0931-15.3698 34.4154-15.3698C44.2727-15.3698 53.5351-23.058 53.5351-35.2892C53.5351-47.5204 44.2727-55.2086 34.4154-55.2086C31.0931-55.2086 28.2111-54.299 25.8069-52.905C24.8364-52.394 23.9147-52.0135 23.9147-53.671L23.9147-67.7347C23.9147-70.9669 25.8222-72.8355 28.9555-72.8355L89.2953-72.8355C92.3998-72.8355 94.3074-70.9669 94.3074-67.7347L94.3074-46.7972C94.3074-41.8477 97.6886-38.3839 102.103-38.3839C104.676-38.3839 106.674-39.3629 108.549-40.8513C110.721-42.6008 112.948-43.8879 115.69-43.8879C120.486-43.8879 124.214-40.4493 124.214-35.2225C124.214-30.0191 120.486-26.557 115.69-26.557C112.948-26.557 110.721-27.8727 108.549-29.5936C106.674-31.082 104.676-32.0559 102.103-32.0559C97.6886-32.0559 94.3074-28.6259 94.3074-23.6712L94.3074-2.91117C94.3074 0.32105 92.3998 2.18961 89.2953 2.18961L28.9555 2.18961C25.8222 2.18961 23.9147 0.32105 23.9147-2.91117Z"/>
  </g>
  <g id="Semibold-M" transform="matrix(1 0 0 1 1971.83 1126)">
   <path d="M12.4609-2.57854C12.4609 7.36058 18.1878 12.9881 28.3139 12.9881L88.6742 12.9881C98.7632 12.9881 104.49 7.36058 104.49-2.57854L104.49-18.2739C104.49-19.0549 105.059-19.4193 105.957-18.838C108.686-17.0781 111.946-15.8684 115.598-15.8684C125.227-15.8684 134.157-23.4521 134.157-35.1864C134.157-46.9507 125.227-54.5045 115.598-54.5045C111.946-54.5045 108.686-53.3246 105.957-51.5277C105.059-50.9906 104.49-51.3109 104.49-52.1288L104.49-68.0674C104.49-78.0065 98.7632-83.634 88.6742-83.634L28.3139-83.634C18.1878-83.634 12.4609-78.0065 12.4609-68.0674L12.4609-46.5737C12.4609-41.9535 15.5819-38.8995 19.6273-38.8995C21.9321-38.8995 23.8973-39.8128 25.7765-41.3898C28.0211-43.2596 30.4168-44.5996 33.2168-44.5996C38.295-44.5996 42.3672-40.9064 42.3672-35.2788C42.3672-29.6512 38.295-25.9581 33.2168-25.9581C30.4168-25.9581 28.0211-27.298 25.7765-29.1678C23.8973-30.7448 21.9321-31.6581 19.6273-31.6581C15.5819-31.6581 12.4609-28.6042 12.4609-23.9839ZM22.6042-3.02724L22.6042-17.8518C22.6042-19.744 23.6175-19.1783 24.5829-18.6412C27.1702-17.0665 30.2086-15.9608 33.7122-15.9608C43.3413-15.9608 52.2345-23.5516 52.2345-35.2788C52.2345-47.006 43.3413-54.5968 33.7122-54.5968C30.2086-54.5968 27.1702-53.4911 24.5829-51.9164C23.6175-51.3793 22.6042-50.8136 22.6042-52.7058L22.6042-67.6187C22.6042-71.368 24.7972-73.4908 28.4385-73.4908L88.5496-73.4908C92.1539-73.4908 94.3468-71.368 94.3468-67.6187L94.3468-46.5894C94.3468-41.9692 97.4748-38.8071 101.513-38.8071C103.818-38.8071 105.79-39.7204 107.662-41.2974C109.914-43.2042 112.31-44.5072 115.103-44.5072C120.181-44.5072 124.253-40.8069 124.253-35.1864C124.253-29.5958 120.181-25.8657 115.103-25.8657C112.31-25.8657 109.914-27.2057 107.662-29.0754C105.79-30.6525 103.818-31.5587 101.513-31.5587C97.4748-31.5587 94.3468-28.4407 94.3468-23.8134L94.3468-3.02724C94.3468 0.72206 92.1539 2.84487 88.5496 2.84487L28.4385 2.84487C24.7972 2.84487 22.6042 0.72206 22.6042-3.02724Z"/>
  </g>
  <g id="Medium-M" transform="matrix(1 0 0 1 1675.59 1126)">
   <path d="M12.4609-2.67701C12.4609 7.13042 17.9275 12.4913 27.9219 12.4913L88.1088 12.4913C98.0597 12.4913 103.526 7.13042 103.526-2.67701L103.526-19.0563C103.526-19.8237 104.088-20.211 104.971-19.602C107.862-17.6732 111.28-16.297 115.095-16.297C124.551-16.297 133.207-23.8055 133.207-35.1591C133.207-46.5476 124.551-54.0212 115.095-54.0212C111.28-54.0212 107.862-52.6798 104.971-50.7076C104.088-50.1507 103.526-50.4859 103.526-51.2967L103.526-67.9689C103.526-77.7763 98.0597-83.1372 88.1088-83.1372L27.9219-83.1372C17.9275-83.1372 12.4609-77.7763 12.4609-67.9689L12.4609-46.4142C12.4609-42.0437 15.3884-39.2398 19.1503-39.2398C21.2514-39.2398 23.1961-40.1033 25.0747-41.7475C27.3781-43.7302 29.9013-45.0885 32.7413-45.0885C38.0339-45.0885 42.3672-41.1985 42.3672-35.2709C42.3672-29.3433 38.0339-25.4533 32.7413-25.4533C29.9013-25.4533 27.3781-26.8117 25.0747-28.7943C23.1961-30.4386 21.2514-31.302 19.1503-31.302C15.3884-31.302 12.4609-28.4982 12.4609-24.1277ZM21.6105-3.11524L21.6105-18.5679C21.6105-20.6381 22.6932-19.9319 23.6548-19.375C26.381-17.6633 29.538-16.4088 33.1789-16.4088C42.6351-16.4088 51.2482-23.9259 51.2482-35.2709C51.2482-46.616 42.6351-54.133 33.1789-54.133C29.538-54.133 26.381-52.8785 23.6548-51.1669C22.6932-50.6099 21.6105-49.9037 21.6105-51.9739L21.6105-67.5307C21.6105-71.672 24.0199-73.9876 28.0465-73.9876L87.9842-73.9876C91.9673-73.9876 94.3767-71.672 94.3767-67.5307L94.3767-46.4318C94.3767-42.0613 97.3128-39.128 101.066-39.128C103.167-39.128 105.12-39.9914 106.99-41.6357C109.302-43.6618 111.826-44.9767 114.657-44.9767C119.95-44.9767 124.283-41.0781 124.283-35.1591C124.283-29.2749 119.95-25.3415 114.657-25.3415C111.826-25.3415 109.302-26.6998 106.99-28.6825C105.12-30.3268 103.167-31.1816 101.066-31.1816C97.3128-31.1816 94.3767-28.3003 94.3767-23.9212L94.3767-3.11524C94.3767 1.02612 91.9673 3.34171 87.9842 3.34171L28.0465 3.34171C24.0199 3.34171 21.6105 1.02612 21.6105-3.11524Z"/>
  </g>
  <g id="Regular-M" transform="matrix(1 0 0 1 1379.5 1126)">
   <path d="M12.4609-2.80545C12.4609 6.83021 17.588 11.8432 27.4106 11.8432L87.3713 11.8432C97.1421 11.8432 102.269 6.83021 102.269-2.80545L102.269-20.0769C102.269-20.8265 102.821-21.2436 103.685-20.5984C106.789-18.4494 110.411-16.8561 114.438-16.8561C123.669-16.8561 131.968-24.2664 131.968-35.1235C131.968-46.0218 123.669-53.3908 114.438-53.3908C110.411-53.3908 106.789-51.8388 103.685-49.638C102.821-49.0552 102.269-49.4099 102.269-50.2113L102.269-67.8405C102.269-77.4761 97.1421-82.4891 87.3713-82.4891L27.4106-82.4891C17.588-82.4891 12.4609-77.4761 12.4609-67.8405L12.4609-46.2062C12.4609-42.1614 15.136-39.6837 18.5281-39.6837C20.3636-39.6837 22.2815-40.4822 24.1592-42.2141C26.5393-44.344 29.229-45.7263 32.1211-45.7263C37.6933-45.7263 42.3672-41.5795 42.3672-35.2606C42.3672-28.9418 37.6933-24.795 32.1211-24.795C29.229-24.795 26.5393-26.1772 24.1592-28.3072C22.2815-30.0391 20.3636-30.8375 18.5281-30.8375C15.136-30.8375 12.4609-28.3599 12.4609-24.3151ZM20.3144-3.23003L20.3144-19.502C20.3144-21.8043 21.4876-20.9149 22.4443-20.3321C25.3515-18.4418 28.6632-16.9933 32.4834-16.9933C41.714-16.9933 49.9619-24.4141 49.9619-35.2606C49.9619-46.1072 41.714-53.528 32.4834-53.528C28.6632-53.528 25.3515-52.0794 22.4443-50.1892C21.4876-49.6064 20.3144-48.717 20.3144-51.0193L20.3144-67.4159C20.3144-72.0686 23.0061-74.6357 27.5352-74.6357L87.2467-74.6357C91.7241-74.6357 94.4157-72.0686 94.4157-67.4159L94.4157-46.2263C94.4157-42.1815 97.1014-39.5466 100.483-39.5466C102.318-39.5466 104.247-40.345 106.114-42.077C108.505-44.2586 111.194-45.5891 114.076-45.5891C119.648-45.5891 124.322-41.4318 124.322-35.1235C124.322-28.8564 119.648-24.6578 114.076-24.6578C111.194-24.6578 108.505-26.0401 106.114-28.17C104.247-29.902 102.318-30.6898 100.483-30.6898C97.1014-30.6898 94.4157-28.1172 94.4157-24.0619L94.4157-3.23003C94.4157 1.42273 91.7241 3.98977 87.2467 3.98977L27.5352 3.98977C23.0061 3.98977 20.3144 1.42273 20.3144-3.23003Z"/>
  </g>
  <g id="Light-M" transform="matrix(1 0 0 1 1083.49 1126)">
   <path d="M12.4609-2.30923C12.4609 6.18 17.3142 10.9364 25.9904 10.9364L87.3028 10.9364C95.9443 10.9364 100.798 6.18 100.798-2.30923L100.798-20.9153C100.798-21.8703 101.538-22.4584 102.59-21.6764C105.574-19.5787 109.008-17.5234 113.908-17.5234C123.053-17.5234 130.565-24.523 130.565-34.901C130.565-45.286 123.053-52.2786 113.908-52.2786C109.008-52.2786 105.574-50.2303 102.59-48.098C101.538-47.3783 100.798-47.9041 100.798-48.8938L100.798-68.3367C100.798-76.8259 95.9443-81.5823 87.3028-81.5823L25.9904-81.5823C17.3142-81.5823 12.4609-76.8259 12.4609-68.3367L12.4609-46.2746C12.4609-42.7431 14.7254-40.6933 17.7581-40.6933C19.337-40.6933 20.9297-41.3719 22.6192-42.8815C25.2218-45.1311 27.9285-46.6332 31.3682-46.6332C37.5907-46.6332 42.3672-42.1271 42.3672-35.2606C42.3672-28.3942 37.5907-23.8881 31.3682-23.8881C27.9285-23.8881 25.2218-25.3901 22.6192-27.6398C20.9297-29.1494 19.337-29.828 17.7581-29.828C14.7254-29.828 12.4609-27.7781 12.4609-24.2467ZM18.5006-2.61403L18.5006-21.0249C18.5006-23.0192 19.6568-22.5063 20.7503-21.7865C23.6233-19.8621 26.8495-17.8831 31.6107-17.8831C40.7558-17.8831 48.2337-24.9103 48.2337-35.2606C48.2337-45.611 40.7558-52.6382 31.6107-52.6382C26.8495-52.6382 23.6233-50.6592 20.7503-48.7348C19.6568-48.015 18.5006-47.5021 18.5006-49.4964L18.5006-68.0319C18.5006-72.7531 21.4147-75.5425 26.115-75.5425L87.1782-75.5425C91.8438-75.5425 94.7579-72.7531 94.7579-68.0319L94.7579-46.2263C94.7579-42.6948 97.05-40.3337 100.055-40.3337C101.634-40.3337 103.254-41.0123 104.916-42.5218C107.546-44.8062 110.253-46.2736 113.665-46.2736C119.888-46.2736 124.664-41.7398 124.664-34.901C124.664-28.0692 119.888-23.5285 113.665-23.5285C110.253-23.5285 107.546-25.0305 104.916-27.2802C103.254-28.7898 101.634-29.4407 100.055-29.4407C97.05-29.4407 94.7579-27.1419 94.7579-23.5828L94.7579-2.61403C94.7579 2.10716 91.8438 4.89665 87.1782 4.89665L26.115 4.89665C21.4147 4.89665 18.5006 2.10716 18.5006-2.61403Z"/>
  </g>
  <g id="Thin-M" transform="matrix(1 0 0 1 787.706 1126)">
   <path d="M12.4609-1.65294C12.4609 5.32003 16.9522 9.73694 24.112 9.73694L87.2123 9.73694C94.3602 9.73694 98.8514 5.32003 98.8514-1.65294L98.8514-22.0242C98.8514-23.2508 99.8408-24.0652 101.142-23.1021C103.967-21.0723 107.152-18.406 113.206-18.406C122.238-18.406 128.71-24.8625 128.71-34.6068C128.71-44.3129 122.238-50.8076 113.206-50.8076C107.152-50.8076 103.967-48.1031 101.142-46.0613C99.8408-45.1605 98.8514-45.9126 98.8514-47.1512L98.8514-68.993C98.8514-75.9659 94.3602-80.3828 87.2123-80.3828L24.112-80.3828C16.9522-80.3828 12.4609-75.9659 12.4609-68.993L12.4609-46.3651C12.4609-43.5126 14.1822-42.0285 16.7398-42.0285C17.9791-42.0285 19.1419-42.5487 20.5825-43.764C23.4792-46.1721 26.2086-47.8326 30.3725-47.8326C37.4549-47.8326 42.3672-42.8513 42.3672-35.2606C42.3672-27.67 37.4549-22.6887 30.3725-22.6887C26.2086-22.6887 23.4792-24.3491 20.5825-26.7572C19.1419-27.9726 17.9791-28.4928 16.7398-28.4928C14.1822-28.4928 12.4609-27.0087 12.4609-24.1562ZM16.1018-1.79933L16.1018-23.039C16.1018-24.6259 17.2353-24.6109 18.5099-23.7101C21.3376-21.7404 24.4506-19.0598 30.4566-19.0598C39.4885-19.0598 45.948-25.5666 45.948-35.2606C45.948-44.9547 39.4885-51.4614 30.4566-51.4614C24.4506-51.4614 21.3376-48.7809 18.5099-46.8112C17.2353-45.9104 16.1018-45.8953 16.1018-47.4823L16.1018-68.8466C16.1018-73.6583 19.3101-76.742 24.2367-76.742L87.0877-76.742C92.0022-76.742 95.2105-73.6583 95.2105-68.8466L95.2105-46.2263C95.2105-43.3737 96.9821-41.3747 99.4894-41.3747C100.729-41.3747 101.942-41.8949 103.332-43.1102C106.279-45.5304 109.009-47.1788 113.122-47.1788C120.204-47.1788 125.117-42.1472 125.117-34.6068C125.117-27.0282 120.204-22.0349 113.122-22.0349C109.009-22.0349 106.279-23.6953 103.332-26.1034C101.942-27.3188 100.729-27.7887 99.4894-27.7887C96.9821-27.7887 95.2105-25.852 95.2105-22.9491L95.2105-1.79933C95.2105 3.01239 92.0022 6.09607 87.0877 6.09607L24.2367 6.09607C19.3101 6.09607 16.1018 3.01239 16.1018-1.79933Z"/>
  </g>
  <g id="Ultralight-M" transform="matrix(1 0 0 1 491.47 1126)">
   <path d="M12.4609-1.31679C12.4609 4.87957 16.7667 9.1226 23.15 9.1226L87.1659 9.1226C93.5488 9.1226 97.8546 4.87957 97.8546-1.31679L97.8546-22.5922C97.8546-23.9578 98.9714-24.8882 100.4-23.8324C103.144-21.8374 106.202-18.8581 112.847-18.8581C121.821-18.8581 127.759-25.0364 127.759-34.4562C127.759-43.8145 121.821-50.0542 112.847-50.0542C106.202-50.0542 103.144-47.0135 100.4-45.0181C98.9714-44.0245 97.8546-44.8926 97.8546-46.2587L97.8546-69.3291C97.8546-75.5255 93.5488-79.7685 87.1659-79.7685L23.15-79.7685C16.7667-79.7685 12.4609-75.5255 12.4609-69.3291L12.4609-46.4115C12.4609-43.9067 13.904-42.7124 16.2182-42.7124C17.2836-42.7124 18.2262-43.1515 19.5392-44.2161C22.5867-46.7053 25.3277-48.4469 29.8625-48.4469C37.3853-48.4469 42.3672-43.2222 42.3672-35.2606C42.3672-27.2991 37.3853-22.0744 29.8625-22.0744C25.3277-22.0744 22.5867-23.8159 19.5392-26.3052C18.2262-27.3698 17.2836-27.8089 16.2182-27.8089C13.904-27.8089 12.4609-26.6146 12.4609-24.1098ZM14.8731-1.38204L14.8731-24.0707C14.8731-25.4489 15.995-25.6889 17.3624-24.6954C20.1669-22.7025 23.222-19.6626 29.8654-19.6626C38.8394-19.6626 44.7773-25.9027 44.7773-35.2606C44.7773-44.6186 38.8394-50.8587 29.8654-50.8587C23.222-50.8587 20.1669-47.8188 17.3624-45.8259C15.995-44.8324 14.8731-45.0724 14.8731-46.4506L14.8731-69.2639C14.8731-74.1219 18.2321-77.3563 23.2746-77.3563L87.0413-77.3563C92.0834-77.3563 95.4424-74.1219 95.4424-69.2639L95.4424-46.2263C95.4424-43.7215 96.9474-41.9079 99.1996-41.9079C100.265-41.9079 101.27-42.347 102.521-43.4116C105.63-45.9013 108.371-47.6424 112.844-47.6424C120.367-47.6424 125.349-42.3558 125.349-34.4562C125.349-26.495 120.367-21.2699 112.844-21.2699C108.371-21.2699 105.63-23.0115 102.521-25.5007C101.27-26.5653 100.265-26.9425 99.1996-26.9425C96.9474-26.9425 95.4424-25.1913 95.4424-22.6246L95.4424-1.38204C95.4424 3.47604 92.0834 6.71041 87.0413 6.71041L23.2746 6.71041C18.2321 6.71041 14.8731 3.47604 14.8731-1.38204Z"/>
  </g>
  <g id="Black-S" transform="matrix(1 0 0 1 2875.37 696)">
   <path d="M9.76562-9.17969C9.76562-0.878906 15.3809 4.6875 23.8281 4.6875L71.9727 4.6875C80.4199 4.6875 86.0352-0.878906 86.0352-9.17969L86.0352-18.5547C86.0352-19.2383 86.5234-19.4336 87.3047-19.0918C88.7207-18.457 90.5762-18.2129 92.7734-18.2129C101.074-18.2129 109.229-24.4629 109.229-35.3027C109.229-46.1426 101.074-52.3926 92.7734-52.3926C90.5762-52.3926 88.7207-52.1484 87.3047-51.5137C86.5234-51.1719 86.0352-51.3672 86.0352-52.0508L86.0352-61.4258C86.0352-69.7266 80.4199-75.293 71.9727-75.293L23.8281-75.293C15.3809-75.293 9.76562-69.7266 9.76562-61.4258L9.76562-44.8242C9.76562-40.1367 13.0371-36.6699 17.4316-36.6699C20.1172-36.6699 21.7285-37.5977 23.1934-38.5254C24.707-39.502 26.0254-40.4785 28.0762-40.4785C31.1523-40.4785 33.2031-38.4277 33.2031-35.3027C33.2031-32.1777 31.1523-30.127 28.0762-30.127C26.0254-30.127 24.707-31.1035 23.1934-32.0801C21.7285-33.0078 20.1172-33.9355 17.4316-33.9355C13.0371-33.9355 9.76562-30.4688 9.76562-25.7812ZM21.9727-9.57031L21.9727-18.5547C21.9727-19.2383 22.4609-19.4336 23.2422-19.0918C24.6582-18.457 26.5137-18.2129 28.7109-18.2129C37.0117-18.2129 45.166-24.4629 45.166-35.3027C45.166-46.1426 37.0117-52.3926 28.7109-52.3926C26.5137-52.3926 24.6582-52.1484 23.2422-51.5137C22.4609-51.1719 21.9727-51.3672 21.9727-52.0508L21.9727-61.0352C21.9727-62.2559 22.7539-63.0859 23.9258-63.0859L71.875-63.0859C73.0469-63.0859 73.8281-62.2559 73.8281-61.0352L73.8281-44.8242C73.8281-40.1367 77.0996-36.6699 81.4941-36.6699C84.1797-36.6699 85.791-37.5977 87.2559-38.5254C88.7695-39.502 90.0879-40.4785 92.1387-40.4785C95.2148-40.4785 97.2656-38.4277 97.2656-35.3027C97.2656-32.1777 95.2148-30.127 92.1387-30.127C90.0879-30.127 88.7695-31.1035 87.2559-32.0801C85.791-33.0078 84.1797-33.9355 81.4941-33.9355C77.0996-33.9355 73.8281-30.4688 73.8281-25.7812L73.8281-9.57031C73.8281-8.34961 73.0469-7.51953 71.875-7.51953L23.9258-7.51953C22.7539-7.51953 21.9727-8.34961 21.9727-9.57031Z"/>
  </g>
  <g id="Heavy-S" transform="matrix(1 0 0 1 2579.26 696)">
   <path d="M9.76562-9.38713C9.76562-1.13244 15.0351 4.0767 23.4363 4.0767L71.1544 4.0767C79.5441 4.0767 84.8136-1.13244 84.8136-9.38713L84.8136-19.5919C84.8136-20.2294 85.2673-20.4362 86.0024-20.0714C87.672-19.1831 89.781-18.7545 92.105-18.7545C100.164-18.7545 108.018-24.9469 108.018-35.2912C108.018-45.647 100.164-51.8279 92.105-51.8279C89.781-51.8279 87.672-51.4109 86.0024-50.511C85.2673-50.1577 84.8136-50.353 84.8136-51.0021L84.8136-61.2183C84.8136-69.473 79.5441-74.6822 71.1544-74.6822L23.4363-74.6822C15.0351-74.6822 9.76562-69.473 9.76562-61.2183L9.76562-44.5822C9.76562-40.1943 12.8066-37.0387 16.8324-37.0387C19.2529-37.0387 20.8757-37.9088 22.3636-38.9633C23.9349-40.0897 25.4376-41.0778 27.4769-41.0778C30.7836-41.0778 33.2031-38.785 33.2031-35.2912C33.2031-31.7974 30.7836-29.5046 27.4769-29.5046C25.4376-29.5046 23.9349-30.4927 22.3636-31.6191C20.8757-32.6736 19.2529-33.5437 16.8324-33.5437C12.8066-33.5437 9.76562-30.3881 9.76562-26.0002ZM20.7511-9.77775L20.7511-19.4075C20.7511-20.3907 21.3431-20.3325 22.1013-19.9792C23.7247-19.1485 25.7646-18.7545 28.0425-18.7545C36.1013-18.7545 43.9444-24.9469 43.9444-35.2912C43.9444-45.6355 36.1013-51.8279 28.0425-51.8279C25.7646-51.8279 23.7247-51.4339 22.1013-50.6032C21.3431-50.2499 20.7511-50.1917 20.7511-51.1749L20.7511-60.8277C20.7511-62.6131 21.8204-63.6967 23.5339-63.6967L71.0568-63.6967C72.7588-63.6967 73.8281-62.6131 73.8281-60.8277L73.8281-44.5937C73.8281-40.2059 76.8691-37.0387 80.8949-37.0387C83.3154-37.0387 84.9382-37.9088 86.4261-38.9633C87.9974-40.1012 89.5001-41.0778 91.5394-41.0778C94.8461-41.0778 97.2656-38.785 97.2656-35.2912C97.2656-31.809 94.8461-29.5046 91.5394-29.5046C89.5001-29.5046 87.9974-30.4927 86.4261-31.6191C84.9382-32.6736 83.3154-33.5437 80.8949-33.5437C76.8691-33.5437 73.8281-30.3881 73.8281-26.0002L73.8281-9.77775C73.8281-7.99235 72.7588-6.90873 71.0568-6.90873L23.5339-6.90873C21.8204-6.90873 20.7511-7.99235 20.7511-9.77775Z"/>
  </g>
  <g id="Bold-S" transform="matrix(1 0 0 1 2283.23 696)">
   <path d="M9.76562-9.61914C9.76562-1.41602 14.6484 3.39355 22.998 3.39355L70.2393 3.39355C78.5645 3.39355 83.4473-1.41602 83.4473-9.61914L83.4473-20.752C83.4473-21.3379 83.8623-21.5576 84.5459-21.167C86.499-19.9951 88.8916-19.3604 91.3574-19.3604C99.1455-19.3604 106.665-25.4883 106.665-35.2783C106.665-45.0928 99.1455-51.1963 91.3574-51.1963C88.8916-51.1963 86.499-50.5859 84.5459-49.3896C83.8623-49.0234 83.4473-49.2188 83.4473-49.8291L83.4473-60.9863C83.4473-69.1895 78.5645-73.999 70.2393-73.999L22.998-73.999C14.6484-73.999 9.76562-69.1895 9.76562-60.9863L9.76562-44.3115C9.76562-40.2588 12.5488-37.4512 16.1621-37.4512C18.2861-37.4512 19.9219-38.2568 21.4355-39.4531C23.0713-40.7471 24.7803-41.748 26.8066-41.748C30.3711-41.748 33.2031-39.1846 33.2031-35.2783C33.2031-31.3721 30.3711-28.8086 26.8066-28.8086C24.7803-28.8086 23.0713-29.8096 21.4355-31.1035C19.9219-32.2998 18.2861-33.1055 16.1621-33.1055C12.5488-33.1055 9.76562-30.2979 9.76562-26.2451ZM19.3848-10.0098L19.3848-20.3613C19.3848-21.6797 20.0928-21.3379 20.8252-20.9717C22.6807-19.9219 24.9268-19.3604 27.2949-19.3604C35.083-19.3604 42.5781-25.4883 42.5781-35.2783C42.5781-45.0684 35.083-51.1963 27.2949-51.1963C24.9268-51.1963 22.6807-50.6348 20.8252-49.585C20.0928-49.2188 19.3848-48.877 19.3848-50.1953L19.3848-60.5957C19.3848-63.0127 20.7764-64.3799 23.0957-64.3799L70.1416-64.3799C72.4365-64.3799 73.8281-63.0127 73.8281-60.5957L73.8281-44.3359C73.8281-40.2832 76.6113-37.4512 80.2246-37.4512C82.3486-37.4512 83.9844-38.2568 85.498-39.4531C87.1338-40.7715 88.8428-41.748 90.8691-41.748C94.4336-41.748 97.2656-39.1846 97.2656-35.2783C97.2656-31.3965 94.4336-28.8086 90.8691-28.8086C88.8428-28.8086 87.1338-29.8096 85.498-31.1035C83.9844-32.2998 82.3486-33.1055 80.2246-33.1055C76.6113-33.1055 73.8281-30.2979 73.8281-26.2451L73.8281-10.0098C73.8281-7.59277 72.4365-6.22559 70.1416-6.22559L23.0957-6.22559C20.7764-6.22559 19.3848-7.59277 19.3848-10.0098Z"/>
  </g>
  <g id="Semibold-S" transform="matrix(1 0 0 1 1986.98 696)">
   <path d="M9.76562-9.7791C9.76562-1.61152 14.3818 2.92256 22.6959 2.92256L69.6083 2.92256C77.8891 2.92256 82.5053-1.61152 82.5053-9.7791L82.5053-21.5518C82.5053-22.1021 82.8937-22.3308 83.5417-21.9224C85.6903-20.555 88.2784-19.778 90.842-19.778C98.4435-19.778 105.732-25.8615 105.732-35.2694C105.732-44.7106 98.4435-50.7608 90.842-50.7608C88.2784-50.7608 85.6903-50.0172 83.5417-48.6165C82.8937-48.2414 82.5053-48.4367 82.5053-49.0204L82.5053-60.8264C82.5053-68.9939 77.8891-73.528 69.6083-73.528L22.6959-73.528C14.3818-73.528 9.76562-68.9939 9.76562-60.8264L9.76562-44.1249C9.76562-40.3032 12.3711-37.7355 15.7-37.7355C17.6196-37.7355 19.2643-38.4968 20.7957-39.7908C22.4759-41.2003 24.3271-42.2102 26.3445-42.2102C30.0867-42.2102 33.2031-39.4601 33.2031-35.2694C33.2031-31.0788 30.0867-28.3287 26.3445-28.3287C24.3271-28.3287 22.4759-29.3386 20.7957-30.748C19.2643-32.0421 17.6196-32.8033 15.7-32.8033C12.3711-32.8033 9.76562-30.2356 9.76562-26.414ZM18.4428-10.1697L18.4428-21.0189C18.4428-22.5684 19.2308-22.0311 19.9454-21.656C21.9608-20.4551 24.3491-19.778 26.7795-19.778C34.381-19.778 41.6361-25.8615 41.6361-35.2694C41.6361-44.6773 34.381-50.7608 26.7795-50.7608C24.3491-50.7608 21.9608-50.0838 19.9454-48.8829C19.2308-48.5078 18.4428-47.9705 18.4428-49.5199L18.4428-60.4357C18.4428-63.2882 20.0565-64.8509 22.7936-64.8509L69.5106-64.8509C72.2144-64.8509 73.8281-63.2882 73.8281-60.4357L73.8281-44.1582C73.8281-40.3365 76.4336-37.7355 79.7625-37.7355C81.6821-37.7355 83.3268-38.4968 84.8582-39.7908C86.5384-41.2336 88.3896-42.2102 90.407-42.2102C94.1492-42.2102 97.2656-39.4601 97.2656-35.2694C97.2656-31.1121 94.1492-28.3287 90.407-28.3287C88.3896-28.3287 86.5384-29.3386 84.8582-30.748C83.3268-32.0421 81.6821-32.8033 79.7625-32.8033C76.4336-32.8033 73.8281-30.2356 73.8281-26.414L73.8281-10.1697C73.8281-7.31729 72.2144-5.75459 69.5106-5.75459L22.7936-5.75459C20.0565-5.75459 18.4428-7.31729 18.4428-10.1697Z"/>
  </g>
  <g id="Medium-S" transform="matrix(1 0 0 1 1690.63 696)">
   <path d="M9.76562-9.90039C9.76562-1.75977 14.1797 2.56543 22.4668 2.56543L69.1299 2.56543C77.377 2.56543 81.791-1.75977 81.791-9.90039L81.791-22.1582C81.791-22.6816 82.1592-22.917 82.7803-22.4951C85.0771-20.9795 87.8135-20.0947 90.4512-20.0947C97.9111-20.0947 105.024-26.1445 105.024-35.2627C105.024-44.4209 97.9111-50.4307 90.4512-50.4307C87.8135-50.4307 85.0771-49.5859 82.7803-48.0303C82.1592-47.6484 81.791-47.8438 81.791-48.4072L81.791-60.7051C81.791-68.8457 77.377-73.1709 69.1299-73.1709L22.4668-73.1709C14.1797-73.1709 9.76562-68.8457 9.76562-60.7051L9.76562-43.9834C9.76562-40.3369 12.2363-37.9512 15.3496-37.9512C17.1143-37.9512 18.7656-38.6787 20.3105-40.0469C22.0244-41.5439 23.9834-42.5605 25.9941-42.5605C29.8711-42.5605 33.2031-39.6689 33.2031-35.2627C33.2031-30.8564 29.8711-27.9648 25.9941-27.9648C23.9834-27.9648 22.0244-28.9814 20.3105-30.4785C18.7656-31.8467 17.1143-32.5742 15.3496-32.5742C12.2363-32.5742 9.76562-30.1885 9.76562-26.542ZM17.7285-10.291L17.7285-21.5176C17.7285-23.2422 18.5771-22.5566 19.2783-22.1748C21.415-20.8594 23.9111-20.0947 26.3887-20.0947C33.8486-20.0947 40.9219-26.1445 40.9219-35.2627C40.9219-44.3809 33.8486-50.4307 26.3887-50.4307C23.9111-50.4307 21.415-49.666 19.2783-48.3506C18.5771-47.9688 17.7285-47.2832 17.7285-49.0078L17.7285-60.3145C17.7285-63.4971 19.5107-65.208 22.5645-65.208L69.0322-65.208C72.0459-65.208 73.8281-63.4971 73.8281-60.3145L73.8281-44.0234C73.8281-40.377 76.2988-37.9512 79.4121-37.9512C81.1768-37.9512 82.8281-38.6787 84.373-40.0469C86.0869-41.584 88.0459-42.5605 90.0566-42.5605C93.9336-42.5605 97.2656-39.6689 97.2656-35.2627C97.2656-30.8965 93.9336-27.9648 90.0566-27.9648C88.0459-27.9648 86.0869-28.9814 84.373-30.4785C82.8281-31.8467 81.1768-32.5742 79.4121-32.5742C76.2988-32.5742 73.8281-30.1885 73.8281-26.542L73.8281-10.291C73.8281-7.1084 72.0459-5.39746 69.0322-5.39746L22.5645-5.39746C19.5107-5.39746 17.7285-7.1084 17.7285-10.291Z"/>
  </g>
  <g id="Regular-S" transform="matrix(1 0 0 1 1394.38 696)">
   <path d="M9.76562-10.0586C9.76562-1.95312 13.916 2.09961 22.168 2.09961L68.5059 2.09961C76.709 2.09961 80.8594-1.95312 80.8594-10.0586L80.8594-22.9492C80.8594-23.4375 81.2012-23.6816 81.7871-23.2422C84.2773-21.5332 87.207-20.5078 89.9414-20.5078C97.2168-20.5078 104.102-26.5137 104.102-35.2539C104.102-44.043 97.2168-50 89.9414-50C87.207-50 84.2773-49.0234 81.7871-47.2656C81.2012-46.875 80.8594-47.0703 80.8594-47.6074L80.8594-60.5469C80.8594-68.6523 76.709-72.7051 68.5059-72.7051L22.168-72.7051C13.916-72.7051 9.76562-68.6523 9.76562-60.5469L9.76562-43.7988C9.76562-40.3809 12.0605-38.2324 14.8926-38.2324C16.4551-38.2324 18.1152-38.916 19.6777-40.3809C21.4355-41.9922 23.5352-43.0176 25.5371-43.0176C29.5898-43.0176 33.2031-39.9414 33.2031-35.2539C33.2031-30.5664 29.5898-27.4902 25.5371-27.4902C23.5352-27.4902 21.4355-28.5156 19.6777-30.127C18.1152-31.5918 16.4551-32.2754 14.8926-32.2754C12.0605-32.2754 9.76562-30.127 9.76562-26.709ZM16.7969-10.4492L16.7969-22.168C16.7969-24.1211 17.7246-23.2422 18.4082-22.8516C20.7031-21.3867 23.3398-20.5078 25.8789-20.5078C33.1543-20.5078 39.9902-26.5137 39.9902-35.2539C39.9902-43.9941 33.1543-50 25.8789-50C23.3398-50 20.7031-49.1211 18.4082-47.6562C17.7246-47.2656 16.7969-46.3867 16.7969-48.3398L16.7969-60.1562C16.7969-63.7695 18.7988-65.6738 22.2656-65.6738L68.4082-65.6738C71.8262-65.6738 73.8281-63.7695 73.8281-60.1562L73.8281-43.8477C73.8281-40.4297 76.123-38.2324 78.9551-38.2324C80.5176-38.2324 82.1777-38.916 83.7402-40.3809C85.498-42.041 87.5977-43.0176 89.5996-43.0176C93.6523-43.0176 97.2656-39.9414 97.2656-35.2539C97.2656-30.6152 93.6523-27.4902 89.5996-27.4902C87.5977-27.4902 85.498-28.5156 83.7402-30.127C82.1777-31.5918 80.5176-32.2754 78.9551-32.2754C76.123-32.2754 73.8281-30.127 73.8281-26.709L73.8281-10.4492C73.8281-6.83594 71.8262-4.93164 68.4082-4.93164L22.2656-4.93164C18.7988-4.93164 16.7969-6.83594 16.7969-10.4492Z"/>
  </g>
  <g id="Light-S" transform="matrix(1 0 0 1 1098.29 696)">
   <path d="M9.76562-9.61963C9.76562-2.52832 13.6738 1.29737 20.9116 1.29737L68.4453 1.29737C75.6494 1.29737 79.5576-2.52832 79.5576-9.61963L79.5576-23.6909C79.5576-24.3608 80.0659-24.7563 80.8184-24.1958C83.2026-22.5322 85.9658-21.0981 89.4722-21.0981C96.6719-21.0981 102.86-26.7407 102.86-35.0571C102.86-43.3921 96.6719-49.0161 89.4722-49.0161C85.9658-49.0161 83.2026-47.6006 80.8184-45.9033C80.0659-45.3916 79.5576-45.7383 79.5576-46.4419L79.5576-60.9858C79.5576-68.0772 75.6494-71.9028 68.4453-71.9028L20.9116-71.9028C13.6738-71.9028 9.76562-68.0772 9.76562-60.9858L9.76562-43.8594C9.76562-40.8955 11.6973-39.1255 14.2114-39.1255C15.5469-39.1255 16.9194-39.7031 18.3154-40.9712C20.27-42.6885 22.3848-43.8198 24.8711-43.8198C29.499-43.8198 33.2031-40.4258 33.2031-35.2539C33.2031-30.082 29.499-26.688 24.8711-26.688C22.3848-26.688 20.27-27.8193 18.3154-29.5366C16.9194-30.8047 15.5469-31.3823 14.2114-31.3823C11.6973-31.3823 9.76562-29.6123 9.76562-26.6484ZM15.1924-9.9043L15.1924-23.5151C15.1924-25.1958 16.105-24.6499 16.9097-24.1382C19.1743-22.6431 21.7354-21.2949 25.1069-21.2949C32.3066-21.2949 38.4614-26.9526 38.4614-35.2539C38.4614-43.5552 32.3066-49.2129 25.1069-49.2129C21.7354-49.2129 19.1743-47.8648 16.9097-46.3696C16.105-45.8579 15.1924-45.312 15.1924-46.9927L15.1924-60.7012C15.1924-64.375 17.3911-66.4761 21.0093-66.4761L68.3477-66.4761C71.9321-66.4761 74.1309-64.375 74.1309-60.7012L74.1309-43.8477C74.1309-40.8838 76.0776-38.9287 78.5767-38.9287C79.9121-38.9287 81.2998-39.5063 82.6807-40.7744C84.6504-42.5254 86.7651-43.623 89.2363-43.623C93.8643-43.623 97.5684-40.2139 97.5684-35.0571C97.5684-29.919 93.8643-26.4912 89.2363-26.4912C86.7651-26.4912 84.6504-27.6226 82.6807-29.3398C81.2998-30.6079 79.9121-31.1704 78.5767-31.1704C76.0776-31.1704 74.1309-29.2642 74.1309-26.2852L74.1309-9.9043C74.1309-6.23047 71.9321-4.1294 68.3477-4.1294L21.0093-4.1294C17.3911-4.1294 15.1924-6.23047 15.1924-9.9043Z"/>
  </g>
  <g id="Thin-S" transform="matrix(1 0 0 1 802.395 696)">
   <path d="M9.76562-9.03907C9.76562-3.28905 13.3535 0.236343 19.25 0.236343L68.3652 0.236343C74.2481 0.236343 77.836-3.28905 77.836-9.03907L77.836-24.6719C77.836-25.582 78.5645-26.1777 79.5371-25.457C81.7813-23.8535 84.3242-21.8789 88.8516-21.8789C95.9512-21.8789 101.219-27.041 101.219-34.7969C101.219-42.5313 95.9512-47.7149 88.8516-47.7149C84.3242-47.7149 81.7813-45.7188 79.5371-44.1016C78.5645-43.4297 77.836-43.9766 77.836-44.9004L77.836-61.5664C77.836-67.3164 74.2481-70.8418 68.3652-70.8418L19.25-70.8418C13.3535-70.8418 9.76562-67.3164 9.76562-61.5664L9.76562-43.9395C9.76562-41.5762 11.2168-40.3066 13.3106-40.3066C14.3457-40.3066 15.3379-40.7441 16.5137-41.7519C18.7285-43.6094 20.8633-44.8808 23.9902-44.8808C29.3789-44.8808 33.2031-41.0664 33.2031-35.2539C33.2031-29.4414 29.3789-25.627 23.9902-25.627C20.8633-25.627 18.7285-26.8985 16.5137-28.7559C15.3379-29.7637 14.3457-30.2012 13.3106-30.2012C11.2168-30.2012 9.76562-28.9317 9.76562-26.5684ZM13.0703-9.1836L13.0703-25.2969C13.0703-26.6172 13.9629-26.5117 14.9278-25.8398C17.1524-24.3047 19.6133-22.3359 24.086-22.3359C31.1856-22.3359 36.4395-27.5332 36.4395-35.2539C36.4395-42.9746 31.1856-48.1719 24.086-48.1719C19.6133-48.1719 17.1524-46.2031 14.9278-44.668C13.9629-43.9961 13.0703-43.8906 13.0703-45.211L13.0703-61.4219C13.0703-65.1758 15.5293-67.5371 19.3477-67.5371L68.2676-67.5371C72.0723-67.5371 74.5312-65.1758 74.5312-61.4219L74.5312-43.8477C74.5312-41.4844 76.0176-39.8496 78.0762-39.8496C79.1113-39.8496 80.1387-40.2871 81.2793-41.2949C83.5293-43.166 85.6641-44.4238 88.7559-44.4238C94.1445-44.4238 97.9687-40.5742 97.9687-34.7969C97.9687-28.9981 94.1445-25.1699 88.7559-25.1699C85.6641-25.1699 83.5293-26.4414 81.2793-28.2988C80.1387-29.3067 79.1113-29.709 78.0762-29.709C76.0176-29.709 74.5312-28.1231 74.5312-25.7246L74.5312-9.1836C74.5312-5.4297 72.0723-3.06837 68.2676-3.06837L19.3477-3.06837C15.5293-3.06837 13.0703-5.4297 13.0703-9.1836Z"/>
  </g>
  <g id="Ultralight-S" transform="matrix(1 0 0 1 506.104 696)">
   <path d="M9.76562-8.74171C9.76562-3.6787 13.1895-0.30711 18.399-0.30711L68.3242-0.30711C73.5303-0.30711 76.9541-3.6787 76.9541-8.74171L76.9541-25.1743C76.9541-26.2075 77.7954-26.9057 78.8809-26.103C81.0532-24.5302 83.4834-22.2788 88.5337-22.2788C95.582-22.2788 100.378-27.1948 100.378-34.6636C100.378-42.0903 95.582-47.0484 88.5337-47.0484C83.4834-47.0484 81.0532-44.7549 78.8809-43.1787C77.7954-42.4248 76.9541-43.0743 76.9541-44.1109L76.9541-61.8638C76.9541-66.9268 73.5303-70.2984 68.3242-70.2984L18.399-70.2984C13.1895-70.2984 9.76562-66.9268 9.76562-61.8638L9.76562-43.9805C9.76562-41.9248 10.9707-40.9116 12.8491-40.9116C13.7305-40.9116 14.5279-41.2773 15.5909-42.1518C17.939-44.081 20.084-45.4243 23.5391-45.4243C29.3174-45.4243 33.2031-41.3945 33.2031-35.2539C33.2031-29.1133 29.3174-25.0835 23.5391-25.0835C20.084-25.0835 17.939-26.4268 15.5909-28.356C14.5279-29.2305 13.7305-29.5962 12.8491-29.5962C10.9707-29.5962 9.76562-28.583 9.76562-26.5273ZM11.9834-8.81447L11.9834-26.2094C11.9834-27.3452 12.8658-27.4653 13.9126-26.7114C16.1167-25.1557 18.5264-22.8691 23.563-22.8691C30.6113-22.8691 35.4038-27.8306 35.4038-35.2539C35.4038-42.6773 30.6113-47.6387 23.563-47.6387C18.5264-47.6387 16.1167-45.3521 13.9126-43.7964C12.8658-43.0425 11.9834-43.1626 11.9834-44.2984L11.9834-61.791C11.9834-65.5859 14.5757-68.0805 18.4966-68.0805L68.2266-68.0805C72.144-68.0805 74.7363-65.5859 74.7363-61.791L74.7363-43.8477C74.7363-41.792 75.9868-40.3213 77.8198-40.3213C78.7012-40.3213 79.544-40.687 80.5615-41.5615C82.9551-43.4941 85.1001-44.834 88.5098-44.834C94.2881-44.834 98.1738-40.7588 98.1738-34.6636C98.1738-28.5264 94.2881-24.4932 88.5098-24.4932C85.1001-24.4932 82.9551-25.8364 80.5615-27.7656C79.544-28.6402 78.7012-28.9605 77.8198-28.9605C75.9868-28.9605 74.7363-27.5386 74.7363-25.4375L74.7363-8.81447C74.7363-5.01955 72.144-2.52492 68.2266-2.52492L18.4966-2.52492C14.5757-2.52492 11.9834-5.01955 11.9834-8.81447Z"/>
  </g>
 </g>
</svg>
