<?xml version="1.0" encoding="UTF-8"?>
<!--Generator: Apple Native CoreSVG 341-->
<!DOCTYPE svg
PUBLIC "-//W3C//DTD SVG 1.1//EN"
       "http://www.w3.org/Graphics/SVG/1.1/DTD/svg11.dtd">
<svg version="1.1" xmlns="http://www.w3.org/2000/svg" xmlns:xlink="http://www.w3.org/1999/xlink" viewBox="0 0 3300 2200">
 <g id="Notes">
  <rect height="2200" id="artboard" style="fill:white;opacity:1" width="3300" x="0" y="0"/>
  <line style="fill:none;stroke:black;opacity:1;stroke-width:0.5;" x1="263" x2="3036" y1="292" y2="292"/>
  <text style="stroke:none;fill:black;font-family:sans-serif;font-size:13;font-weight:bold;" transform="matrix(1 0 0 1 263 322)">Weight/Scale Variations</text>
  <text style="stroke:none;fill:black;font-family:sans-serif;font-size:13;text-anchor:middle;" transform="matrix(1 0 0 1 559.711 322)">Ultralight</text>
  <text style="stroke:none;fill:black;font-family:sans-serif;font-size:13;text-anchor:middle;" transform="matrix(1 0 0 1 856.422 322)">Thin</text>
  <text style="stroke:none;fill:black;font-family:sans-serif;font-size:13;text-anchor:middle;" transform="matrix(1 0 0 1 1153.13 322)">Light</text>
  <text style="stroke:none;fill:black;font-family:sans-serif;font-size:13;text-anchor:middle;" transform="matrix(1 0 0 1 1449.84 322)">Regular</text>
  <text style="stroke:none;fill:black;font-family:sans-serif;font-size:13;text-anchor:middle;" transform="matrix(1 0 0 1 1746.56 322)">Medium</text>
  <text style="stroke:none;fill:black;font-family:sans-serif;font-size:13;text-anchor:middle;" transform="matrix(1 0 0 1 2043.27 322)">Semibold</text>
  <text style="stroke:none;fill:black;font-family:sans-serif;font-size:13;text-anchor:middle;" transform="matrix(1 0 0 1 2339.98 322)">Bold</text>
  <text style="stroke:none;fill:black;font-family:sans-serif;font-size:13;text-anchor:middle;" transform="matrix(1 0 0 1 2636.69 322)">Heavy</text>
  <text style="stroke:none;fill:black;font-family:sans-serif;font-size:13;text-anchor:middle;" transform="matrix(1 0 0 1 2933.4 322)">Black</text>
  <line style="fill:none;stroke:black;opacity:1;stroke-width:0.5;" x1="263" x2="3036" y1="1903" y2="1903"/>
  <g transform="matrix(0.2 0 0 0.2 263 1933)">
   <path d="m46.2402 4.15039c21.7773 0 39.4531-17.627 39.4531-39.4043s-17.6758-39.4043-39.4531-39.4043c-21.7285 0-39.4043 17.627-39.4043 39.4043s17.6758 39.4043 39.4043 39.4043Zm0-7.42188c-17.6758 0-31.9336-14.3066-31.9336-31.9824s14.2578-31.9824 31.9336-31.9824 31.9824 14.3066 31.9824 31.9824-14.3066 31.9824-31.9824 31.9824Zm3.61328-17.7734v-28.4668c0-2.24609-1.46484-3.75977-3.71094-3.75977-2.14844 0-3.61328 1.51367-3.61328 3.75977v28.4668c0 2.19727 1.46484 3.71094 3.61328 3.71094 2.24609 0 3.71094-1.51367 3.71094-3.71094Zm-17.8223-10.5957h28.418c2.19727 0 3.71094-1.46484 3.71094-3.61328 0-2.19727-1.51367-3.71094-3.71094-3.71094h-28.418c-2.24609 0-3.75977 1.51367-3.75977 3.71094 0 2.14844 1.51367 3.61328 3.75977 3.61328Z"/>
  </g>
  <g transform="matrix(0.2 0 0 0.2 281.506 1933)">
   <path d="m58.5449 14.5508c27.4902 0 49.8047-22.3145 49.8047-49.8047s-22.3145-49.8047-49.8047-49.8047-49.8047 22.3145-49.8047 49.8047 22.3145 49.8047 49.8047 49.8047Zm0-8.30078c-22.9492 0-41.5039-18.5547-41.5039-41.5039s18.5547-41.5039 41.5039-41.5039 41.5039 18.5547 41.5039 41.5039-18.5547 41.5039-41.5039 41.5039Zm4.05273-23.0957v-36.9141c0-2.49023-1.70898-4.19922-4.15039-4.19922-2.39258 0-4.05273 1.70898-4.05273 4.19922v36.9141c0 2.44141 1.66016 4.15039 4.05273 4.15039 2.44141 0 4.15039-1.66016 4.15039-4.15039Zm-22.5586-14.4043h36.9629c2.44141 0 4.15039-1.61133 4.15039-4.00391 0-2.44141-1.70898-4.15039-4.15039-4.15039h-36.9629c-2.49023 0-4.15039 1.70898-4.15039 4.15039 0 2.39258 1.66016 4.00391 4.15039 4.00391Z"/>
  </g>
  <g transform="matrix(0.2 0 0 0.2 304.924 1933)">
   <path d="m74.8535 28.3203c35.1074 0 63.623-28.4668 63.623-63.5742s-28.5156-63.623-63.623-63.623-63.5742 28.5156-63.5742 63.623 28.4668 63.5742 63.5742 63.5742Zm0-9.08203c-30.127 0-54.4922-24.3652-54.4922-54.4922s24.3652-54.4922 54.4922-54.4922 54.4922 24.3652 54.4922 54.4922-24.3652 54.4922-54.4922 54.4922Zm4.44336-30.3223v-48.4863c0-2.73438-1.85547-4.63867-4.54102-4.63867-2.58789 0-4.44336 1.9043-4.44336 4.63867v48.4863c0 2.68555 1.85547 4.58984 4.44336 4.58984 2.68555 0 4.54102-1.85547 4.54102-4.58984Zm-28.7109-19.7754h48.4863c2.68555 0 4.58984-1.80664 4.58984-4.39453 0-2.73438-1.85547-4.58984-4.58984-4.58984h-48.4863c-2.73438 0-4.58984 1.85547-4.58984 4.58984 0 2.58789 1.85547 4.39453 4.58984 4.39453Z"/>
  </g>
  <text style="stroke:none;fill:black;font-family:sans-serif;font-size:13;font-weight:bold;" transform="matrix(1 0 0 1 263 1953)">Design Variations</text>
  <text style="stroke:none;fill:black;font-family:sans-serif;font-size:13;" transform="matrix(1 0 0 1 263 1971)">Symbols are supported in up to nine weights and three scales.</text>
  <text style="stroke:none;fill:black;font-family:sans-serif;font-size:13;" transform="matrix(1 0 0 1 263 1989)">For optimal layout with text and other symbols, vertically align</text>
  <text style="stroke:none;fill:black;font-family:sans-serif;font-size:13;" transform="matrix(1 0 0 1 263 2007)">symbols with the adjacent text.</text>
  <line style="fill:none;stroke:#00AEEF;stroke-width:0.5;opacity:1.0;" x1="776" x2="776" y1="1919" y2="1933"/>
  <g transform="matrix(0.2 0 0 0.2 776 1933)">
   <path d="m16.5527 0.78125c2.58789 0 3.85742-0.976562 4.78516-3.71094l20.5566-57.5195h0.244141l20.6055 57.5195c0.927734 2.73438 2.19727 3.71094 4.73633 3.71094 2.58789 0 4.24805-1.5625 4.24805-4.00391 0-0.830078-0.146484-1.61133-0.537109-2.63672l-22.9004-60.9863c-1.12305-2.97852-3.125-4.49219-6.25-4.49219-3.02734 0-5.07812 1.46484-6.15234 4.44336l-22.9004 61.084c-0.390625 1.02539-0.537109 1.80664-0.537109 2.63672 0 2.44141 1.5625 3.95508 4.10156 3.95508Zm10.2051-20.9473h30.6641c2.00195 0 3.66211-1.66016 3.66211-3.66211 0-2.05078-1.66016-3.66211-3.66211-3.66211h-30.6641c-2.00195 0-3.66211 1.61133-3.66211 3.66211 0 2.00195 1.66016 3.66211 3.66211 3.66211Z"/>
  </g>
  <line style="fill:none;stroke:#00AEEF;stroke-width:0.5;opacity:1.0;" x1="792.836" x2="792.836" y1="1919" y2="1933"/>
  <text style="stroke:none;fill:black;font-family:sans-serif;font-size:13;font-weight:bold;" transform="matrix(1 0 0 1 776 1953)">Margins</text>
  <text style="stroke:none;fill:black;font-family:sans-serif;font-size:13;" transform="matrix(1 0 0 1 776 1971)">Leading and trailing margins on the left and right side of each symbol</text>
  <text style="stroke:none;fill:black;font-family:sans-serif;font-size:13;" transform="matrix(1 0 0 1 776 1989)">can be adjusted by modifying the x-location of the margin guidelines.</text>
  <text style="stroke:none;fill:black;font-family:sans-serif;font-size:13;" transform="matrix(1 0 0 1 776 2007)">Modifications are automatically applied proportionally to all</text>
  <text style="stroke:none;fill:black;font-family:sans-serif;font-size:13;" transform="matrix(1 0 0 1 776 2025)">scales and weights.</text>
  <g transform="matrix(0.2 0 0 0.2 1289 1933)">
   <path d="m14.209 13.1348 7.86133 7.86133c4.29688 4.39453 9.32617 4.10156 13.8672-1.02539l60.6934-68.2129-4.88281-4.88281-60.2539 67.6758c-1.80664 1.95312-3.4668 2.44141-5.81055 0.0976562l-5.17578-5.12695c-2.29492-2.29492-1.80664-3.95508 0.195312-5.81055l67.4805-62.1582-4.88281-4.83398-68.0664 62.5977c-4.98047 4.58984-5.32227 9.47266-1.02539 13.8184Zm44.873-97.4609c-2.05078 2.00195-2.24609 4.88281-1.07422 6.78711 1.12305 1.80664 3.4668 3.02734 6.5918 2.24609 5.85938-1.66016 12.5977-2.39258 18.8965 0.927734l-2.68555 7.12891c-1.61133 4.00391-0.732422 6.88477 1.70898 9.42383l10.2539 10.3027c2.34375 2.39258 4.54102 2.44141 7.08008 1.95312l4.44336-0.732422 2.58789 2.53906-0.195312 2.24609c-0.0976562 2.29492 0.537109 4.29688 2.7832 6.49414l3.36914 3.32031c2.29492 2.29492 5.51758 2.49023 7.8125 0.195312l12.9883-13.0371c2.29492-2.34375 2.14844-5.37109-0.195312-7.66602l-3.41797-3.41797c-2.19727-2.19727-4.05273-3.02734-6.34766-2.88086l-2.34375 0.244141-2.44141-2.44141 1.02539-4.6875c0.634766-2.73438-0.244141-4.98047-2.88086-7.61719l-11.2793-11.1816c-12.9395-12.8418-35.5957-11.0352-46.6797-0.146484Zm7.08008 2.05078c8.78906-6.39648 25.9766-5.66406 33.6914 1.95312l12.3047 12.207c1.02539 1.02539 1.2207 1.80664 0.927734 3.32031l-1.46484 6.64062 6.73828 6.68945 4.39453-0.244141c1.12305-0.0488281 1.51367 0.0488281 2.34375 0.878906l2.53906 2.49023-10.8398 10.8398-2.49023-2.49023c-0.830078-0.878906-0.976562-1.2207-0.927734-2.39258l0.292969-4.3457-6.68945-6.73828-6.83594 1.17188c-1.41602 0.292969-2.05078 0.195312-3.17383-0.878906l-8.93555-8.88672c-1.07422-1.02539-1.17188-1.70898-0.488281-3.36914l4.58984-11.4746c-6.10352-6.34766-17.041-7.51953-25.5859-4.58984-0.683594 0.244141-0.927734-0.390625-0.390625-0.78125Z"/>
  </g>
  <text style="stroke:none;fill:black;font-family:sans-serif;font-size:13;font-weight:bold;" transform="matrix(1 0 0 1 1289 1953)">Exporting</text>
  <text style="stroke:none;fill:black;font-family:sans-serif;font-size:13;" transform="matrix(1 0 0 1 1289 1971)">Symbols should be outlined when exporting to ensure the</text>
  <text style="stroke:none;fill:black;font-family:sans-serif;font-size:13;" transform="matrix(1 0 0 1 1289 1989)">design is preserved when submitting to Xcode.</text>
  <text id="template-version" style="stroke:none;fill:black;font-family:sans-serif;font-size:13;text-anchor:end;" transform="matrix(1 0 0 1 3036 1933)">Template v.2.0</text>
  <text style="stroke:none;fill:black;font-family:sans-serif;font-size:13;text-anchor:end;" transform="matrix(1 0 0 1 3036 1951)">Requires Xcode 12 or greater</text>
  <text id="descriptive-name" style="stroke:none;fill:black;font-family:sans-serif;font-size:13;text-anchor:end;" transform="matrix(1 0 0 1 3036 1969)">Generated from text.below.folder</text>
  <text style="stroke:none;fill:black;font-family:sans-serif;font-size:13;text-anchor:end;" transform="matrix(1 0 0 1 3036 1987)">Typeset at 100.0 points</text>
  <text style="stroke:none;fill:black;font-family:sans-serif;font-size:13;" transform="matrix(1 0 0 1 263 726)">Small</text>
  <text style="stroke:none;fill:black;font-family:sans-serif;font-size:13;" transform="matrix(1 0 0 1 263 1156)">Medium</text>
  <text style="stroke:none;fill:black;font-family:sans-serif;font-size:13;" transform="matrix(1 0 0 1 263 1586)">Large</text>
 </g>
 <g id="Guides">
  <g id="H-reference" style="fill:#27AAE1;stroke:none;" transform="matrix(1 0 0 1 339 696)">
   <path d="M0.993654 0L3.63775 0L29.3281-67.1323L30.0303-67.1323L30.0303-70.459L28.1226-70.459ZM11.6885-24.4799L46.9815-24.4799L46.2315-26.7285L12.4385-26.7285ZM55.1196 0L57.7637 0L30.6382-70.459L29.4326-70.459L29.4326-67.1323Z"/>
  </g>
  <line id="Baseline-S" style="fill:none;stroke:#27AAE1;opacity:1;stroke-width:0.5;" x1="263" x2="3036" y1="696" y2="696"/>
  <line id="Capline-S" style="fill:none;stroke:#27AAE1;opacity:1;stroke-width:0.5;" x1="263" x2="3036" y1="625.541" y2="625.541"/>
  <g id="H-reference" style="fill:#27AAE1;stroke:none;" transform="matrix(1 0 0 1 339 1126)">
   <path d="M0.993654 0L3.63775 0L29.3281-67.1323L30.0303-67.1323L30.0303-70.459L28.1226-70.459ZM11.6885-24.4799L46.9815-24.4799L46.2315-26.7285L12.4385-26.7285ZM55.1196 0L57.7637 0L30.6382-70.459L29.4326-70.459L29.4326-67.1323Z"/>
  </g>
  <line id="Baseline-M" style="fill:none;stroke:#27AAE1;opacity:1;stroke-width:0.5;" x1="263" x2="3036" y1="1126" y2="1126"/>
  <line id="Capline-M" style="fill:none;stroke:#27AAE1;opacity:1;stroke-width:0.5;" x1="263" x2="3036" y1="1055.54" y2="1055.54"/>
  <g id="H-reference" style="fill:#27AAE1;stroke:none;" transform="matrix(1 0 0 1 339 1556)">
   <path d="M0.993654 0L3.63775 0L29.3281-67.1323L30.0303-67.1323L30.0303-70.459L28.1226-70.459ZM11.6885-24.4799L46.9815-24.4799L46.2315-26.7285L12.4385-26.7285ZM55.1196 0L57.7637 0L30.6382-70.459L29.4326-70.459L29.4326-67.1323Z"/>
  </g>
  <line id="Baseline-L" style="fill:none;stroke:#27AAE1;opacity:1;stroke-width:0.5;" x1="263" x2="3036" y1="1556" y2="1556"/>
  <line id="Capline-L" style="fill:none;stroke:#27AAE1;opacity:1;stroke-width:0.5;" x1="263" x2="3036" y1="1485.54" y2="1485.54"/>
  <line id="right-margin" style="fill:none;stroke:#00AEEF;stroke-width:0.5;opacity:1.0;" x1="1510.12" x2="1510.12" y1="1030.79" y2="1150.12"/>
  <line id="left-margin" style="fill:none;stroke:#00AEEF;stroke-width:0.5;opacity:1.0;" x1="1389.57" x2="1389.57" y1="1030.79" y2="1150.12"/>
 </g>
 <g id="Symbols">
  <g id="Black-L" transform="matrix(1 0 0 1 2849.13 1556)">
   <path d="M37.8945-13.8314L131.137-13.8314C144.509-13.8314 152.448-21.7159 152.448-35.5587L152.448-86.9688C152.448-100.852 144.488-108.755 130.637-108.755L83.0149-108.755C78.2068-108.755 75.2761-109.83 71.1537-112.891L68.5801-114.828C63.6947-118.473 60.5815-119.708 53.4161-119.708L37.439-119.708C24.3994-119.708 16.084-111.628 16.084-97.6836L16.084-35.5587C16.084-21.7147 24.0245-13.8314 37.8945-13.8314ZM40.4292-29.993C35.4054-29.993 32.3027-32.6439 32.3027-38.2183L32.3027-95.0997C32.3027-99.9172 35.5686-103.491 40.9638-103.491L48.3426-103.491C53.5328-103.491 56.9051-102.319 61.4411-98.9042L64.0511-96.9876C68.5205-93.5621 71.2408-92.5346 77.9426-92.5346L128.103-92.5346C133.123-92.5346 136.229-89.8836 136.229-84.3092L136.229-38.1975C136.229-32.6439 133.123-29.993 128.103-29.993ZM40.2567-71.8981L128.273-71.8981L128.273-78.1783C128.273-81.6043 126.71-82.9578 123.513-82.9578L45.0166-82.9578C41.8199-82.9578 40.2567-81.6043 40.2567-78.1783ZM24.3223 17.7077L144.211 17.7077C148.773 17.7077 152.448 14.0313 152.448 9.46941C152.448 4.88555 148.773 1.2311 144.211 1.2311L24.3223 1.2311C19.7593 1.2311 16.084 4.88555 16.084 9.46941C16.084 14.0313 19.7593 17.7077 24.3223 17.7077ZM24.3223 49.2457L144.211 49.2457C148.773 49.2457 152.448 45.5704 152.448 41.0074C152.448 36.4247 148.773 32.7691 144.211 32.7691L24.3223 32.7691C19.7593 32.7691 16.084 36.4247 16.084 41.0074C16.084 45.5704 19.7593 49.2457 24.3223 49.2457Z" data-clipstroke-keyframes="0 0 0 3.9116235 3.0004013 0 1 3.4104476 3.4993458 0 0 4.9116235 4.999373 0 1 4.4104476 4.499346"/>
  </g>
  <g id="Heavy-L" transform="matrix(1 0 0 1 2553.94 1556)">
   <path d="M36.7155-15.6691L129.51-15.6691C142.032-15.6691 149.417-23.0265 149.417-36.1799L149.417-86.6589C149.417-99.8671 142.002-107.214 128.786-107.214L79.9923-107.214C75.409-107.214 72.6576-108.241 68.8489-111.143L66.0994-113.283C61.5178-116.778 58.5172-117.96 51.7668-117.96L35.8741-117.96C23.6952-117.96 16.084-110.533 16.084-97.3629L16.084-36.1799C16.084-23.0209 23.4747-15.6691 36.7155-15.6691ZM38.6757-29.9991C33.5392-29.9991 30.453-32.7069 30.453-38.3212L30.453-95.2796C30.453-100.231 33.6169-103.596 38.957-103.596L47.396-103.596C52.2334-103.596 55.2891-102.511 59.4327-99.3241L62.1909-97.2145C66.4265-93.8953 69.2168-92.8397 75.6271-92.8397L126.825-92.8397C131.945-92.8397 135.048-90.1319 135.048-84.5176L135.048-38.291C135.048-32.7069 131.945-29.9991 126.825-29.9991ZM37.9744-73.223L127.516-73.223L127.516-78.7349C127.516-82.1775 125.89-83.6425 122.538-83.6425L42.9518-83.6425C39.6-83.6425 37.9744-82.1775 37.9744-78.7349ZM23.4955 15.9102L142.011 15.9102C146.1 15.9102 149.417 12.5878 149.417 8.49866C149.417 4.37369 146.1 1.08714 142.011 1.08714L23.4955 1.08714C19.4007 1.08714 16.084 4.37369 16.084 8.49866C16.084 12.5878 19.4007 15.9102 23.4955 15.9102ZM23.4955 47.4839L142.011 47.4839C146.1 47.4839 149.417 44.1671 149.417 40.0723C149.417 35.953 146.1 32.6608 142.011 32.6608L23.4955 32.6608C19.4007 32.6608 16.084 35.953 16.084 40.0723C16.084 44.1671 19.4007 47.4839 23.4955 47.4839Z" data-clipstroke-keyframes="0 0 0 3.9181333 3.0004077 0 1 3.4171886 3.4993796 0 0 4.9181333 4.999499 0 1 4.4171886 4.499379"/>
  </g>
  <g id="Bold-L" transform="matrix(1 0 0 1 2258.9 1556)">
   <path d="M35.3003-17.7275L127.765-17.7275C139.331-17.7275 146.07-24.4764 146.07-36.7919L146.07-86.2747C146.07-98.6528 139.293-105.368 126.853-105.368L76.6004-105.368C72.2044-105.368 69.6534-106.326 66.1768-109.08L63.2494-111.444C58.9996-114.8 56.1597-115.905 49.8496-115.905L34.0271-115.905C22.8566-115.905 16.084-109.262 16.084-97.0603L16.084-36.7919C16.084-24.4632 22.8357-17.7275 35.3003-17.7275ZM36.6205-29.7757C31.2561-29.7757 28.1482-32.5901 28.1482-38.34L28.1482-95.5396C28.1482-100.704 31.2114-103.854 36.557-103.854L46.3396-103.854C50.836-103.854 53.5297-102.876 57.2636-99.9061L60.1689-97.5807C64.135-94.3698 66.9875-93.2908 73.1037-93.2908L125.533-93.2908C130.858-93.2908 134.006-90.4765 134.006-84.7266L134.006-38.302C134.006-32.5901 130.858-29.7757 125.533-29.7757ZM35.0573-74.9567L127.07-74.9567L127.07-79.486C127.07-82.974 125.345-84.6145 121.734-84.6145L40.393-84.6145C36.7821-84.6145 35.0573-82.974 35.0573-79.486ZM22.4288 13.8458L139.738 13.8458C143.221 13.8458 146.07 10.9838 146.07 7.50106C146.07 3.96706 143.221 1.15628 139.738 1.15628L22.4288 1.15628C18.9327 1.15628 16.084 3.96706 16.084 7.50106C16.084 10.9838 18.9327 13.8458 22.4288 13.8458ZM22.4288 45.406L139.738 45.406C143.221 45.406 146.07 42.5572 146.07 39.0612C146.07 35.5404 143.221 32.7164 139.738 32.7164L22.4288 32.7164C18.9327 32.7164 16.084 35.5404 16.084 39.0612C16.084 42.5572 18.9327 45.406 22.4288 45.406Z" data-clipstroke-keyframes="0 0 0 3.928328 3.0004177 0 1 3.427628 3.4993985 0 0 4.928328 4.99965 0 1 4.427628 4.4993978"/>
  </g>
  <g id="Semibold-L" transform="matrix(1 0 0 1 1963.34 1556)">
   <path d="M34.3246-19.1465L126.562-19.1465C137.469-19.1465 143.762-25.4761 143.762-37.2137L143.762-86.0098C143.762-97.8158 137.426-104.096 125.521-104.096L74.2621-104.096C69.9951-104.096 67.5823-105.005 64.3348-107.659L61.2847-110.176C57.2636-113.436 54.5344-114.488 48.5279-114.488L32.7538-114.488C22.2785-114.488 16.084-108.386 16.084-96.8516L16.084-37.2137C16.084-25.4576 22.3951-19.1465 34.3246-19.1465ZM35.2036-29.6218C29.6822-29.6218 26.5593-32.5095 26.5593-38.3529L26.5593-95.719C26.5593-101.031 29.5531-104.031 34.9024-104.031L45.6114-104.031C49.8726-104.031 52.3167-103.127 55.7682-100.307L58.775-97.8331C62.5552-94.6969 65.4507-93.6018 71.3641-93.6018L124.642-93.6018C130.108-93.6018 133.287-90.7141 133.287-84.8707L133.287-38.3095C133.287-32.5095 130.108-29.6218 124.642-29.6218ZM33.0463-76.1519L126.763-76.1519L126.763-80.0039C126.763-83.523 124.97-85.2846 121.18-85.2846L38.6291-85.2846C34.8394-85.2846 33.0463-83.523 33.0463-80.0039ZM21.6934 12.4227L138.171 12.4227C141.236 12.4227 143.762 9.87807 143.762 6.81332C143.762 3.68673 141.236 1.20395 138.171 1.20395L21.6934 1.20395C18.6101 1.20395 16.084 3.68673 16.084 6.81332C16.084 9.87807 18.6101 12.4227 21.6934 12.4227ZM21.6934 43.9735L138.171 43.9735C141.236 43.9735 143.762 41.4473 143.762 38.3641C143.762 35.256 141.236 32.7547 138.171 32.7547L21.6934 32.7547C18.6101 32.7547 16.084 35.256 16.084 38.3641C16.084 41.4473 18.6101 43.9735 21.6934 43.9735Z" data-clipstroke-keyframes="0 0 0 3.9350414 3.0004244 0 1 3.434518 3.4994135 0 0 4.9350414 4.9997377 0 1 4.4345183 4.4994125"/>
  </g>
  <g id="Medium-L" transform="matrix(1 0 0 1 1667.51 1556)">
   <path d="M33.5848-20.2225L125.65-20.2225C136.058-20.2225 142.012-26.234 142.012-37.5336L142.012-85.809C142.012-97.181 136.01-103.131 124.511-103.131L72.489-103.131C68.32-103.131 66.012-104.004 62.938-106.58L59.7949-109.215C55.9472-112.402 53.3021-113.414 47.5257-113.414L31.7883-113.414C21.8401-113.414 16.084-107.722 16.084-96.6934L16.084-37.5336C16.084-26.2115 22.061-20.2225 33.5848-20.2225ZM34.1293-29.505C28.4888-29.505 25.3545-32.4484 25.3545-38.3627L25.3545-95.8549C25.3545-101.279 28.2957-104.166 33.6478-104.166L45.0592-104.166C49.1422-104.166 51.397-103.318 54.6343-100.612L57.7181-98.0245C61.3574-94.9449 64.2854-93.8376 70.0451-93.8376L123.967-93.8376C129.54-93.8376 132.742-90.8942 132.742-84.9799L132.742-38.3153C132.742-32.4484 129.54-29.505 123.967-29.505ZM31.5215-77.0582L126.53-77.0582L126.53-80.3965C126.53-83.9394 124.685-85.7927 120.76-85.7927L37.2916-85.7927C33.3665-85.7927 31.5215-83.9394 31.5215-80.3965ZM21.1357 11.3436L136.983 11.3436C139.731 11.3436 142.012 9.03963 142.012 6.29185C142.012 3.47417 139.731 1.24009 136.983 1.24009L21.1357 1.24009C18.3655 1.24009 16.084 3.47417 16.084 6.29185C16.084 9.03963 18.3655 11.3436 21.1357 11.3436ZM21.1357 42.8873L136.983 42.8873C139.731 42.8873 142.012 40.6058 142.012 37.8355C142.012 35.0403 139.731 32.7838 136.983 32.7838L21.1357 32.7838C18.3655 32.7838 16.084 35.0403 16.084 37.8355C16.084 40.6058 18.3655 42.8873 21.1357 42.8873Z" data-clipstroke-keyframes="0 0 0 3.9403434 3.0004296 0 1 3.439958 3.4994292 0 0 4.9403434 4.9997973 0 1 4.439958 4.499428"/>
  </g>
  <g id="Regular-L" transform="matrix(1 0 0 1 1371.94 1556)">
   <path d="M32.6199-21.626L124.46-21.626C134.216-21.626 139.73-27.2226 139.73-37.9508L139.73-85.5471C139.73-96.3531 134.163-101.872 123.194-101.872L70.1764-101.872C66.135-101.872 63.9637-102.699 61.1162-105.174L57.8517-107.961C54.2303-111.053 51.6947-112.012 46.2185-112.012L30.529-112.012C21.2683-112.012 16.084-106.856 16.084-96.4871L16.084-37.9508C16.084-27.195 21.6253-21.626 32.6199-21.626ZM32.728-29.3528C26.9322-29.3528 23.7831-32.3687 23.7831-38.3755L23.7831-96.0323C23.7831-101.602 26.6557-104.341 32.0114-104.341L44.339-104.341C48.1894-104.341 50.1973-103.567 53.1554-101.008L56.3395-98.2742C59.795-95.2685 62.7654-94.1451 68.3246-94.1451L123.086-94.1451C128.799-94.1451 132.031-91.1292 132.031-85.1224L132.031-38.3227C132.031-32.3687 128.799-29.3528 123.086-29.3528ZM29.5325-78.2402L126.226-78.2402L126.226-80.9086C126.226-84.4824 124.313-86.4554 120.212-86.4554L35.547-86.4554C31.4452-86.4554 29.5325-84.4824 29.5325-80.9086ZM20.4084 9.9361L135.433 9.9361C137.767 9.9361 139.73 7.946 139.73 5.61167C139.73 3.19692 137.767 1.28724 135.433 1.28724L20.4084 1.28724C18.0464 1.28724 16.084 3.19692 16.084 5.61167C16.084 7.946 18.0464 9.9361 20.4084 9.9361ZM20.4084 41.4705L135.433 41.4705C137.767 41.4705 139.73 39.5081 139.73 37.1461C139.73 34.759 137.767 32.8217 135.433 32.8217L20.4084 32.8217C18.0464 32.8217 16.084 34.759 16.084 37.1461C16.084 39.5081 18.0464 41.4705 20.4084 41.4705Z" data-clipstroke-keyframes="0 0 0 3.947551 3.0004368 0 1 3.4473515 3.4994555 0 0 4.9475513 4.9998655 0 1 4.4473515 4.4994545"/>
  </g>
  <g id="Light-L" transform="matrix(1 0 0 1 1075.07 1556)">
   <path d="M31.9328-21.6451L124.995-21.6451C134.712-21.6451 140.035-27.1081 140.035-37.3592L140.035-85.2799C140.035-95.5516 134.679-100.994 124.186-100.994L70.1-100.994C65.6006-100.994 63.4293-101.725 60.4482-104.411L57.3173-107.179C53.6386-110.461 51.3512-111.306 45.7032-111.306L29.8419-111.306C20.9057-111.306 16.084-106.531 16.084-96.8879L16.084-37.3592C16.084-27.0614 21.4535-21.6451 31.9328-21.6451ZM32.06-27.7114C25.539-27.7114 22.1036-31.0327 22.1036-37.6884L22.1036-96.4521C22.1036-102.48 25.0716-105.333 30.9045-105.333L44.3581-105.333C48.5902-105.333 50.5409-104.636 53.7089-101.81L56.7593-99.0758C60.1576-95.9937 63.0135-94.9276 68.8017-94.9276L124.059-94.9276C130.44-94.9276 134.016-91.6063 134.016-84.9506L134.016-37.6547C134.016-31.0327 130.44-27.7114 124.059-27.7114ZM26.9369-80.0342L129.089-80.0342L129.089-81.8247C129.089-85.5893 126.966-87.925 122.254-87.925L33.772-87.925C29.0595-87.925 26.9369-85.5893 26.9369-81.8247ZM19.3969 9.55439L136.769 9.55439C138.55 9.55439 140.035 8.02234 140.035 6.24148C140.035 4.3802 138.55 2.92857 136.769 2.92857L19.3969 2.92857C17.5693 2.92857 16.084 4.3802 16.084 6.24148C16.084 8.02234 17.5693 9.55439 19.3969 9.55439ZM19.3969 40.7071L136.769 40.7071C138.55 40.7071 140.035 39.2218 140.035 37.3942C140.035 35.5797 138.55 34.0813 136.769 34.0813L19.3969 34.0813C17.5693 34.0813 16.084 35.5797 16.084 37.3942C16.084 39.2218 17.5693 40.7071 19.3969 40.7071Z" data-clipstroke-keyframes="0 0 0 3.9596229 3.0004487 0 1 3.4592729 3.4993687 0 0 4.959623 4.9999385 0 1 4.459273 4.4993677"/>
  </g>
  <g id="Thin-L" transform="matrix(1 0 0 1 778.161 1556)">
   <path d="M31.0241-21.6703L125.701-21.6703C135.369-21.6703 140.439-26.9566 140.439-36.5767L140.439-84.9265C140.439-94.4914 135.36-99.8329 125.499-99.8329L69.9991-99.8329C64.8938-99.8329 62.7225-100.438 59.5647-103.401L56.6106-106.144C52.8561-109.678 50.8968-110.372 45.0217-110.372L28.9332-110.372C20.4261-110.372 16.084-106.102 16.084-97.418L16.084-36.5767C16.084-26.8847 21.2264-21.6703 31.0241-21.6703ZM31.1765-25.5406C23.6964-25.5406 19.8823-29.2658 19.8823-36.7797L19.8823-97.0074C19.8823-103.641 22.9765-106.646 29.4405-106.646L44.3834-106.646C49.1203-106.646 50.9952-106.049 54.4409-102.87L57.3146-100.136C60.6372-96.9529 63.3416-95.9625 69.4327-95.9625L125.347-95.9625C132.611-95.9625 136.641-92.2374 136.641-84.7235L136.641-36.7713C136.641-29.2658 132.611-25.5406 125.347-25.5406ZM23.5041-82.407L132.875-82.407L132.875-83.0363C132.875-87.0534 130.475-89.8686 124.955-89.8686L31.4246-89.8686C25.9043-89.8686 23.5041-87.0534 23.5041-83.0363ZM18.0591 9.04956L138.536 9.04956C139.585 9.04956 140.439 8.12331 140.439 7.07446C140.439 5.9452 139.585 5.09937 138.536 5.09937L18.0591 5.09937C16.9382 5.09937 16.084 5.9452 16.084 7.07446C16.084 8.12331 16.9382 9.04956 18.0591 9.04956ZM18.0591 39.6974L138.536 39.6974C139.585 39.6974 140.439 38.8432 140.439 37.7223C140.439 36.6651 139.585 35.7472 138.536 35.7472L18.0591 35.7472C16.9382 35.7472 16.084 36.6651 16.084 37.7223C16.084 38.8432 16.9382 39.6974 18.0591 39.6974Z" data-clipstroke-keyframes="0 0 0 3.9758275 3.0004647 0 1 3.4752629 3.4993744 0 0 4.975827 4.999996 0 1 4.475263 4.4993744"/>
  </g>
  <g id="Ultralight-L" transform="matrix(1 0 0 1 481.346 1556)">
   <path d="M30.5587-21.6832L126.063-21.6832C135.705-21.6832 140.646-26.8791 140.646-36.1759L140.646-84.7455C140.646-93.9484 135.709-99.2381 126.171-99.2381L69.9474-99.2381C64.5318-99.2381 62.3605-99.7786 59.1122-102.884L56.2486-105.614C52.4554-109.278 50.6641-109.894 44.6726-109.894L28.4678-109.894C20.1805-109.894 16.084-105.882 16.084-97.6895L16.084-36.1759C16.084-26.7942 21.11-21.6832 30.5587-21.6832ZM30.724-24.4288C22.7526-24.4288 18.7446-28.3608 18.7446-36.3143L18.7446-97.2919C18.7446-104.235 21.9034-107.318 28.6906-107.318L44.3963-107.318C49.3918-107.318 51.2279-106.773 54.8158-103.413L57.5991-100.679C60.8828-97.4442 63.5097-96.4926 69.756-96.4926L126.006-96.4926C133.723-96.4926 137.985-92.5606 137.985-84.6071L137.985-36.3188C137.985-28.3608 133.723-24.4288 126.006-24.4288ZM21.7457-83.6223L134.814-83.6223L134.814-83.6569C134.814-87.8032 132.272-90.8641 126.338-90.8641L30.2222-90.8641C24.2882-90.8641 21.7457-87.8032 21.7457-83.6569ZM17.3739 8.79098L139.441 8.79098C140.115 8.79098 140.646 8.17503 140.646 7.50111C140.646 6.74678 140.115 6.21124 139.441 6.21124L17.3739 6.21124C16.615 6.21124 16.084 6.74678 16.084 7.50111C16.084 8.17503 16.615 8.79098 17.3739 8.79098ZM17.3739 39.1803L139.441 39.1803C140.115 39.1803 140.646 38.6492 140.646 37.8904C140.646 37.221 140.115 36.6005 139.441 36.6005L17.3739 36.6005C16.615 36.6005 16.084 37.221 16.084 37.8904C16.084 38.6492 16.615 39.1803 17.3739 39.1803Z" data-clipstroke-keyframes="0 0 0 3.9854715 3.000474 0 1 3.484735 3.499506 0 0 4.9854712 4.000008 0 1 4.484735 4.4995046"/>
  </g>
  <g id="Black-M" transform="matrix(1 0 0 1 2866.79 1126)">
   <path d="M30.2787-17.0747L103.068-17.0747C114.153-17.0747 120.754-23.6181 120.754-34.8705L120.754-75.5443C120.754-86.8079 114.147-93.3972 102.936-93.3972L66.9024-93.3972C62.9221-93.3972 60.4976-94.2604 57.0162-96.796L55.1915-98.1205C51.1377-101.098 48.6627-102.086 42.7313-102.086L30.2575-102.086C19.4593-102.086 12.4609-95.3156 12.4609-83.9453L12.4609-34.8705C12.4609-23.6184 19.062-17.0747 30.2787-17.0747ZM32.7387-30.9449C28.8451-30.9449 26.3885-32.9912 26.3885-37.3635L26.3885-81.5157C26.3885-85.1953 29.0193-88.158 33.311-88.158L38.2692-88.158C42.6452-88.158 45.5221-87.1861 49.4021-84.3088L51.2786-82.9898C54.9344-80.2341 56.9663-79.4699 62.4401-79.4699L100.476-79.4699C104.371-79.4699 106.826-77.4236 106.826-73.0513L106.826-37.3581C106.826-32.9912 104.371-30.9449 100.476-30.9449ZM32.7984-62.7426L100.417-62.7426L100.417-68.1495C100.417-70.8154 99.2311-71.8173 96.8051-71.8173L36.4103-71.8173C33.9843-71.8173 32.7984-70.8154 32.7984-68.1495ZM19.417 7.27633L113.798 7.27633C117.663 7.27633 120.754 4.18575 120.754 0.320249C120.754-3.55046 117.663-6.63583 113.798-6.63583L19.417-6.63583C15.5518-6.63583 12.4609-3.55046 12.4609 0.320249C12.4609 4.18575 15.5518 7.27633 19.417 7.27633ZM19.417 31.6277L113.798 31.6277C117.663 31.6277 120.754 28.5368 120.754 24.6716C120.754 20.8006 117.663 17.7155 113.798 17.7155L19.417 17.7155C15.5518 17.7155 12.4609 20.8006 12.4609 24.6716C12.4609 28.5368 15.5518 31.6277 19.417 31.6277Z" data-clipstroke-keyframes="0 0 0 3.9065912 3.0003965 0 1 3.4051387 3.4992616 0 0 4.9065914 4.9992533 0 1 4.4051385 4.499262"/>
  </g>
  <g id="Heavy-M" transform="matrix(1 0 0 1 2571.58 1126)">
   <path d="M29.1895-18.8694L101.428-18.8694C111.686-18.8694 117.763-24.9098 117.763-35.5324L117.763-75.266C117.763-85.919 111.669-91.9725 101.034-91.9725L63.9547-91.9725C60.2364-91.9725 57.9871-92.796 54.8246-95.1576L52.8157-96.6817C49.0642-99.4958 46.6763-100.442 41.1665-100.442L28.791-100.442C18.8043-100.442 12.4609-94.275 12.4609-83.5948L12.4609-35.5324C12.4609-24.9076 18.5404-18.8694 29.1895-18.8694ZM31.0862-31.1023C27.1493-31.1023 24.7351-33.176 24.7351-37.5275L24.7351-81.6528C24.7351-85.4208 27.2574-88.1697 31.4514-88.1697L37.342-88.1697C41.3379-88.1697 43.9107-87.2754 47.3876-84.6452L49.4214-83.1376C52.854-80.4929 54.9649-79.696 60.1325-79.696L99.1377-79.696C103.068-79.696 105.489-77.6223 105.489-73.2708L105.489-37.5111C105.489-33.176 103.068-31.1023 99.1377-31.1023ZM30.8067-63.8723L99.4126-63.8723L99.4126-68.6091C99.4126-71.2736 98.1851-72.351 95.6638-72.351L34.5556-72.351C32.0342-72.351 30.8067-71.2736 30.8067-68.6091ZM18.7021 5.55433L111.524 5.55433C114.979 5.55433 117.763 2.76765 117.763-0.686829C117.763-4.16 114.979-6.92799 111.524-6.92799L18.7021-6.92799C15.2453-6.92799 12.4609-4.16 12.4609-0.686829C12.4609 2.76765 15.2453 5.55433 18.7021 5.55433ZM18.7021 29.9758L111.524 29.9758C114.979 29.9758 117.763 27.1914 117.763 23.7347C117.763 20.2638 114.979 17.4935 111.524 17.4935L18.7021 17.4935C15.2453 17.4935 12.4609 20.2638 12.4609 23.7347C12.4609 27.1914 15.2453 29.9758 18.7021 29.9758Z" data-clipstroke-keyframes="0 0 0 3.9131835 3.000403 0 1 3.4120336 3.4993365 0 0 4.913183 4.999402 0 1 4.4120336 4.4993362"/>
  </g>
  <g id="Bold-M" transform="matrix(1 0 0 1 2276.54 1126)">
   <path d="M27.9711-20.8771L99.594-20.8771C108.926-20.8771 114.417-26.3548 114.417-36.2727L114.417-74.9546C114.417-84.9246 108.898-90.3788 98.907-90.3788L60.6573-90.3788C57.2321-90.3788 55.1787-91.1579 52.373-93.3248L50.1581-95.0721C46.7447-97.7038 44.4543-98.6024 39.4162-98.6024L27.1505-98.6024C18.0717-98.6024 12.4609-93.1109 12.4609-83.2026L12.4609-36.2727C12.4609-26.3497 17.957-20.8771 27.9711-20.8771ZM29.2376-31.2784C25.2523-31.2784 22.8856-33.3828 22.8856-37.7109L22.8856-81.8062C22.8856-85.6729 25.2866-88.1828 29.3712-88.1828L36.3048-88.1828C39.8756-88.1828 42.1081-87.3752 45.1342-85.0216L47.3439-83.3029C50.5267-80.7825 52.726-79.949 57.5511-79.949L97.6406-79.949C101.61-79.949 103.992-77.8445 103.992-73.5164L103.992-37.6823C103.992-33.3828 101.61-31.2784 97.6406-31.2784ZM28.5788-65.136L98.2891-65.136L98.2891-69.1233C98.2891-71.7862 97.0151-72.9481 94.3871-72.9481L32.4807-72.9481C29.8528-72.9481 28.5788-71.7862 28.5788-69.1233ZM17.9023 3.62802L108.981 3.62802C111.976 3.62802 114.417 1.18131 114.417-1.81339C114.417-4.84185 111.976-7.2548 108.981-7.2548L17.9023-7.2548C14.9025-7.2548 12.4609-4.84185 12.4609-1.81339C12.4609 1.18131 14.9025 3.62802 17.9023 3.62802ZM17.9023 28.128L108.981 28.128C111.976 28.128 114.417 25.6864 114.417 22.6866C114.417 19.6632 111.976 17.2452 108.981 17.2452L17.9023 17.2452C14.9025 17.2452 12.4609 19.6632 12.4609 22.6866C12.4609 25.6864 14.9025 28.128 17.9023 28.128Z" data-clipstroke-keyframes="0 0 0 3.9211144 3.0004108 0 1 3.420315 3.4994175 0 0 4.9211144 4.999554 0 1 4.420315 4.4994173"/>
  </g>
  <g id="Semibold-M" transform="matrix(1 0 0 1 1980.98 1126)">
   <path d="M27.1311-22.2611L98.3295-22.2611C107.024-22.2611 112.111-27.351 112.111-36.7832L112.111-74.7399C112.111-84.2391 106.987-89.2801 97.4405-89.2801L58.384-89.2801C55.1609-89.2801 53.2427-90.0286 50.683-92.0613L48.3259-93.9625C45.1456-96.4684 42.9224-97.3344 38.2095-97.3344L26.0196-97.3344C17.5666-97.3344 12.4609-92.3084 12.4609-82.9323L12.4609-36.7832C12.4609-27.3439 17.5547-22.2611 27.1311-22.2611ZM27.9631-31.3998C23.9445-31.3998 21.6106-33.5254 21.6106-37.8374L21.6106-81.9119C21.6106-85.8468 23.9279-88.1918 27.9371-88.1918L35.5898-88.1918C38.8674-88.1918 40.8655-87.4441 43.5807-85.2811L45.9117-83.4169C48.9223-80.9821 51.1825-80.1233 55.7715-80.1233L96.6085-80.1233C100.606-80.1233 102.961-77.9977 102.961-73.6857L102.961-37.8004C102.961-33.5254 100.606-31.3998 96.6085-31.3998ZM27.0429-66.0072L97.5145-66.0072L97.5145-69.4777C97.5145-72.1396 96.2084-73.3597 93.507-73.3597L31.0504-73.3597C28.349-73.3597 27.0429-72.1396 27.0429-69.4777ZM17.351 2.30003L107.228 2.30003C109.905 2.30003 112.111 0.0876951 112.111-2.59004C112.111-5.31191 109.905-7.4801 107.228-7.4801L17.351-7.4801C14.6662-7.4801 12.4609-5.31191 12.4609-2.59004C12.4609 0.0876951 14.6662 2.30003 17.351 2.30003ZM17.351 26.8541L107.228 26.8541C109.905 26.8541 112.111 24.6488 112.111 21.964C112.111 19.2492 109.905 17.0739 107.228 17.0739L17.351 17.0739C14.6662 17.0739 12.4609 19.2492 12.4609 21.964C12.4609 24.6488 14.6662 26.8541 17.351 26.8541Z" data-clipstroke-keyframes="0 0 0 3.9278479 3.0004175 0 1 3.427297 3.4994783 0 0 4.927848 4.999654 0 1 4.427297 4.499478"/>
  </g>
  <g id="Medium-M" transform="matrix(1 0 0 1 1685.14 1126)">
   <path d="M26.4943-23.3106L97.3707-23.3106C105.582-23.3106 110.362-28.1063 110.362-37.1702L110.362-74.5772C110.362-83.7193 105.538-88.4471 96.3284-88.4471L56.6604-88.4471C53.5905-88.4471 51.7746-89.1723 49.4015-91.1033L46.9367-93.1212C43.9331-95.5317 41.7609-96.3729 37.2945-96.3729L25.1621-96.3729C17.1836-96.3729 12.4609-91.7 12.4609-82.7273L12.4609-37.1702C12.4609-28.0977 17.2497-23.3106 26.4943-23.3106ZM26.9968-31.4918C22.9529-31.4918 20.6438-33.6334 20.6438-37.9333L20.6438-81.9921C20.6438-85.9786 22.8977-88.1986 26.8497-88.1986L35.0476-88.1986C38.103-88.1986 39.9232-87.4963 42.4028-85.4778L44.8258-83.5034C47.7058-81.1335 50.0121-80.2556 54.4221-80.2556L95.8259-80.2556C99.844-80.2556 102.179-78.1139 102.179-73.8141L102.179-37.8899C102.179-33.6334 99.844-31.4918 95.8259-31.4918ZM25.8783-66.6678L96.9272-66.6678L96.9272-69.7464C96.9272-72.4075 95.5968-73.6718 92.8397-73.6718L29.9658-73.6718C27.2087-73.6718 25.8783-72.4075 25.8783-69.7464ZM16.933 1.2931L105.898 1.2931C108.336 1.2931 110.362-0.74153 110.362-3.17892C110.362-5.66834 108.336-7.65094 105.898-7.65094L16.933-7.65094C14.487-7.65094 12.4609-5.66834 12.4609-3.17892C12.4609-0.74153 14.487 1.2931 16.933 1.2931ZM16.933 25.8882L105.898 25.8882C108.336 25.8882 110.362 23.8621 110.362 21.4161C110.362 18.9353 108.336 16.9441 105.898 16.9441L16.933 16.9441C14.487 16.9441 12.4609 18.9353 12.4609 21.4161C12.4609 23.8621 14.487 25.8882 16.933 25.8882Z" data-clipstroke-keyframes="0 0 0 3.9324536 3.000422 0 1 3.4320974 3.499518 0 0 4.9324536 4.999719 0 1 4.4320974 4.4995174"/>
  </g>
  <g id="Regular-M" transform="matrix(1 0 0 1 1389.57 1126)">
   <path d="M25.6635-24.6794L96.12-24.6794C103.7-24.6794 108.081-29.0915 108.081-37.675L108.081-74.3649C108.081-83.0413 103.648-87.3605 94.878-87.3605L54.4121-87.3605C51.5421-87.3605 49.8598-88.0554 47.7299-89.8536L45.1247-92.0238C42.3516-94.3099 40.2458-95.1189 36.1011-95.1189L24.0436-95.1189C16.6841-95.1189 12.4609-90.9063 12.4609-82.46L12.4609-37.675C12.4609-29.0809 16.8519-24.6794 25.6635-24.6794ZM25.7364-31.6118C21.6595-31.6118 19.3828-33.7744 19.3828-38.0583L19.3828-82.0967C19.3828-86.1505 21.554-88.2075 25.4314-88.2075L34.3404-88.2075C37.1059-88.2075 38.6942-87.5644 40.8663-85.7345L43.4093-83.6161C46.119-81.3309 48.4856-80.428 52.662-80.428L94.8051-80.428C98.8504-80.428 101.159-78.2654 101.159-73.9815L101.159-38.0066C101.159-33.7744 98.8504-31.6118 94.8051-31.6118ZM24.3592-67.5294L96.1612-67.5294L96.1612-70.097C96.1612-72.757 94.799-74.0789 91.9692-74.0789L28.5512-74.0789C25.7214-74.0789 24.3592-72.757 24.3592-70.097ZM16.3877-0.0202981L104.164-0.0202981C106.288-0.0202981 108.081-1.82313 108.081-3.94703C108.081-6.13324 106.288-7.87376 104.164-7.87376L16.3877-7.87376C14.2532-7.87376 12.4609-6.13324 12.4609-3.94703C12.4609-1.82313 14.2532-0.0202981 16.3877-0.0202981ZM16.3877 24.6283L104.164 24.6283C106.288 24.6283 108.081 22.836 108.081 20.7015C108.081 18.5259 106.288 16.7748 104.164 16.7748L16.3877 16.7748C14.2532 16.7748 12.4609 18.5259 12.4609 20.7015C12.4609 22.836 14.2532 24.6283 16.3877 24.6283Z" data-clipstroke-keyframes="0 0 0 3.9387696 3.0004282 0 1 3.438674 3.4995685 0 0 4.93877 4.999797 0 1 4.438674 4.4995675"/>
  </g>
  <g id="Light-M" transform="matrix(1 0 0 1 1092.73 1126)">
   <path d="M25.0475-24.6965L96.5991-24.6965C104.145-24.6965 108.354-28.9888 108.354-37.1445L108.354-74.1253C108.354-82.3227 104.11-86.5733 95.7677-86.5733L54.3436-86.5733C51.063-86.5733 49.3807-87.1827 47.131-89.1692L44.6456-91.3222C41.8212-93.7795 39.9378-94.4858 35.6391-94.4858L23.4276-94.4858C16.359-94.4858 12.4609-90.6154 12.4609-82.8193L12.4609-37.1445C12.4609-28.9612 16.6979-24.6965 25.0475-24.6965ZM25.1375-30.1403C20.4104-30.1403 17.8771-32.5766 17.8771-37.4424L17.8771-82.4731C17.8771-86.9376 20.1337-89.0973 24.439-89.0973L34.3575-89.0973C37.4653-89.0973 39.0022-88.5226 41.3625-86.4531L43.7857-84.3348C46.4441-81.9811 48.708-81.1296 53.0898-81.1296L95.6778-81.1296C100.322-81.1296 102.938-78.6932 102.938-73.8275L102.938-37.4077C102.938-32.5766 100.322-30.1403 95.6778-30.1403ZM22.0321-69.1378L98.7278-69.1378L98.7278-70.9183C98.7278-73.7494 97.1774-75.3965 93.8001-75.3965L26.9599-75.3965C23.5825-75.3965 22.0321-73.7494 22.0321-70.9183ZM15.4808-0.362517L105.362-0.362517C106.99-0.362517 108.354-1.75468 108.354-3.38237C108.354-5.07236 106.99-6.40222 105.362-6.40222L15.4808-6.40222C13.8254-6.40222 12.4609-5.07236 12.4609-3.38237C12.4609-1.75468 13.8254-0.362517 15.4808-0.362517ZM15.4808 23.9438L105.362 23.9438C106.99 23.9438 108.354 22.5793 108.354 20.924C108.354 19.2616 106.99 17.9041 105.362 17.9041L15.4808 17.9041C13.8254 17.9041 12.4609 19.2616 12.4609 20.924C12.4609 22.5793 13.8254 23.9438 15.4808 23.9438Z" data-clipstroke-keyframes="0 0 0 3.952623 3.0004418 0 1 3.452361 3.4994094 0 0 4.952623 4.9998994 0 1 4.452361 4.4994082"/>
  </g>
  <g id="Thin-M" transform="matrix(1 0 0 1 795.834 1126)">
   <path d="M24.2328-24.7191L97.2328-24.7191C104.733-24.7191 108.716-28.853 108.716-36.443L108.716-73.8085C108.716-81.3722 104.721-85.5323 96.9445-85.5323L54.2531-85.5323C50.4293-85.5323 48.7471-86.0285 46.339-88.264L44.0119-90.3944C41.1196-93.0779 39.5305-93.6485 35.028-93.6485L22.6129-93.6485C15.929-93.6485 12.4609-90.2307 12.4609-83.2945L12.4609-36.443C12.4609-28.8027 16.4942-24.7191 24.2328-24.7191ZM24.3454-28.1941C18.7583-28.1941 15.8856-30.9925 15.8856-36.6277L15.8856-82.971C15.8856-87.9786 18.2554-90.2741 23.1264-90.2741L34.3802-90.2741C37.9405-90.2741 39.4096-89.7899 42.0188-87.4036L44.2836-85.2852C46.8741-82.8411 49.0022-82.0574 53.6556-82.0574L96.8319-82.0574C102.268-82.0574 105.292-79.259 105.292-73.6238L105.292-36.6156C105.292-30.9925 102.268-28.1941 96.8319-28.1941ZM18.9544-71.2651L102.122-71.2651L102.122-72.0046C102.122-75.062 100.323-77.139 96.2215-77.139L24.8552-77.139C20.7537-77.139 18.9544-75.062 18.9544-72.0046ZM14.2814-0.815129L106.946-0.815129C107.918-0.815129 108.716-1.66416 108.716-2.63556C108.716-3.66926 107.918-4.45599 106.946-4.45599L14.2814-4.45599C13.2597-4.45599 12.4609-3.66926 12.4609-2.63556C12.4609-1.66416 13.2597-0.815129 14.2814-0.815129ZM14.2814 23.0386L106.946 23.0386C107.918 23.0386 108.716 22.2398 108.716 21.2182C108.716 20.2347 107.918 19.3977 106.946 19.3977L14.2814 19.3977C13.2597 19.3977 12.4609 20.2347 12.4609 21.2182C12.4609 22.2398 13.2597 23.0386 14.2814 23.0386Z" data-clipstroke-keyframes="0 0 0 3.971262 3.0004601 0 1 3.4707594 3.4993587 0 0 4.971262 4.9999843 0 1 4.4707594 4.499358"/>
  </g>
  <g id="Ultralight-M" transform="matrix(1 0 0 1 499.03 1126)">
   <path d="M23.8155-24.7307L97.5574-24.7307C105.035-24.7307 108.902-28.7835 108.902-36.0837L108.902-73.6462C108.902-80.8854 105.034-84.9991 97.5473-84.9991L54.2068-84.9991C50.1048-84.9991 48.4225-85.4374 45.9333-87.8003L43.6874-89.9191C40.7603-92.7186 39.3218-93.2196 34.7151-93.2196L22.1956-93.2196C15.7088-93.2196 12.4609-90.0336 12.4609-83.5379L12.4609-36.0837C12.4609-28.7216 16.3899-24.7307 23.8155-24.7307ZM23.9397-27.1972C17.9122-27.1972 14.8655-30.1811 14.8655-36.2104L14.8655-83.226C14.8655-88.5118 17.2933-90.8768 22.4541-90.8768L34.3918-90.8768C38.1839-90.8768 39.6182-90.439 42.355-87.8904L44.5386-85.7721C47.0943-83.2816 49.1529-82.5326 53.9453-82.5326L97.4231-82.5326C103.265-82.5326 106.497-79.5488 106.497-73.5195L106.497-36.2099C106.497-30.1811 103.265-27.1972 97.4231-27.1972ZM17.3779-72.3547L103.861-72.3547L103.861-72.561C103.861-75.7343 101.934-78.0316 97.4618-78.0316L23.7772-78.0316C19.3048-78.0316 17.3779-75.7343 17.3779-72.561ZM13.667-1.04695L107.758-1.04695C108.393-1.04695 108.902-1.6178 108.902-2.25305C108.902-2.9506 108.393-3.45914 107.758-3.45914L13.667-3.45914C12.9699-3.45914 12.4609-2.9506 12.4609-2.25305C12.4609-1.6178 12.9699-1.04695 13.667-1.04695ZM13.667 22.5749L107.758 22.5749C108.393 22.5749 108.902 22.066 108.902 21.3688C108.902 20.7332 108.393 20.1628 107.758 20.1628L13.667 20.1628C12.9699 20.1628 12.4609 20.7332 12.4609 21.3688C12.4609 22.066 12.9699 22.5749 13.667 22.5749Z" data-clipstroke-keyframes="0 0 0 3.982404 3.0004709 0 1 3.4817176 3.4994783 0 0 4.9824038 4.000005 0 1 4.4817176 4.499477"/>
  </g>
  <g id="Black-S" transform="matrix(1 0 0 1 2880.74 696)">
   <path d="M24.0234-20.459L81.2988-20.459C90.2344-20.459 95.5566-25.7324 95.5566-34.7168L95.5566-66.8945C95.5566-75.8789 90.2344-81.2012 81.2988-81.2012L53.3203-81.2012C50.0977-81.2012 48.1445-81.8848 45.3125-83.9355L43.9453-84.9121C40.6738-87.3047 38.7207-88.0859 33.9355-88.0859L24.1211-88.0859C15.4297-88.0859 9.76562-82.6172 9.76562-73.5352L9.76562-34.7168C9.76562-25.7324 15.0879-20.459 24.0234-20.459ZM26.123-31.7383C23.0469-31.7383 21.0938-33.3496 21.0938-36.8164L21.0938-71.4844C21.0938-74.3652 23.1934-76.7578 26.6113-76.7578L30.2734-76.7578C33.8379-76.7578 36.1816-75.9766 39.3555-73.6328L40.7715-72.6562C43.7012-70.459 45.2637-69.873 49.6582-69.873L79.1992-69.873C82.2754-69.873 84.2285-68.2617 84.2285-64.7949L84.2285-36.8164C84.2285-33.3496 82.2754-31.7383 79.1992-31.7383ZM26.1719-56.543L79.1504-56.543L79.1504-60.9375C79.1504-63.0371 78.2227-63.8184 76.3184-63.8184L29.0039-63.8184C27.0996-63.8184 26.1719-63.0371 26.1719-60.9375ZM15.3809-1.41602L89.9414-1.41602C93.0664-1.41602 95.5566-3.90625 95.5566-7.03125C95.5566-10.1562 93.0664-12.6465 89.9414-12.6465L15.3809-12.6465C12.2559-12.6465 9.76562-10.1562 9.76562-7.03125C9.76562-3.90625 12.2559-1.41602 15.3809-1.41602ZM15.3809 17.627L89.9414 17.627C93.0664 17.627 95.5566 15.1367 95.5566 12.0117C95.5566 8.88672 93.0664 6.39648 89.9414 6.39648L15.3809 6.39648C12.2559 6.39648 9.76562 8.88672 9.76562 12.0117C9.76562 15.1367 12.2559 17.627 15.3809 17.627Z" data-clipstroke-keyframes="0 0 0 3.9050255 3.0003948 0 1 3.4034443 3.4992082 0 0 4.9050255 4.9992085 0 1 4.4034443 4.4992085"/>
  </g>
  <g id="Heavy-S" transform="matrix(1 0 0 1 2585.32 696)">
   <path d="M23.1706-21.9917L79.8352-21.9917C88.0678-21.9917 92.9636-26.8503 92.9636-35.3506L92.9636-66.6871C92.9636-75.2105 88.0563-80.0833 79.5586-80.0833L50.808-80.0833C47.8619-80.0833 46.0586-80.7438 43.5147-82.6218L41.9746-83.7712C38.9682-86.0024 37.0612-86.7606 32.6563-86.7606L22.9456-86.7606C14.9111-86.7606 9.76562-81.7644 9.76562-73.1894L9.76562-35.3506C9.76562-26.8503 14.6615-21.9917 23.1706-21.9917ZM24.7862-32.061C21.7561-32.061 19.8722-33.6608 19.8722-37.0354L19.8722-71.5535C19.8722-74.4574 21.868-76.6541 25.1477-76.6541L29.4782-76.6541C32.6739-76.6541 34.7641-75.9305 37.5692-73.8287L39.135-72.6908C41.8803-70.5973 43.5235-69.9768 47.6299-69.9768L77.9431-69.9768C80.9731-69.9768 82.8571-68.377 82.8571-65.0024L82.8571-37.0238C82.8571-33.6608 80.9731-32.061 77.9431-32.061ZM24.7659-57.3036L77.9634-57.3036L77.9634-61.2256C77.9634-63.3022 77.0241-64.1065 75.1083-64.1065L27.621-64.1065C25.7051-64.1065 24.7659-63.3022 24.7659-61.2256ZM14.8853-2.84505L87.844-2.84505C90.6808-2.84505 92.9636-5.12784 92.9636-7.96473C92.9636-10.8131 90.6808-13.0844 87.844-13.0844L14.8853-13.0844C12.0484-13.0844 9.76562-10.8131 9.76562-7.96473C9.76562-5.12784 12.0484-2.84505 14.8853-2.84505ZM14.8853 16.3016L87.844 16.3016C90.6808 16.3016 92.9636 14.0188 92.9636 11.182C92.9636 8.33354 90.6808 6.06227 87.844 6.06227L14.8853 6.06227C12.0484 6.06227 9.76562 8.33354 9.76562 11.182C9.76562 14.0188 12.0484 16.3016 14.8853 16.3016Z" data-clipstroke-keyframes="0 0 0 3.9101157 3.0003998 0 1 3.4088917 3.499342 0 0 4.9101157 4.999342 0 1 4.4088917 4.499342"/>
  </g>
  <g id="Bold-S" transform="matrix(1 0 0 1 2290.06 696)">
   <path d="M22.2168-23.7061L78.1982-23.7061C85.6445-23.7061 90.0635-28.1006 90.0635-36.0596L90.0635-66.4551C90.0635-74.4629 85.6201-78.833 77.6123-78.833L47.998-78.833C45.3613-78.833 43.7256-79.4678 41.5039-81.1523L39.7705-82.4951C37.0605-84.5459 35.2051-85.2783 31.2256-85.2783L21.6309-85.2783C14.3311-85.2783 9.76562-80.8105 9.76562-72.8027L9.76562-36.0596C9.76562-28.1006 14.1846-23.7061 22.2168-23.7061ZM23.291-32.4219C20.3125-32.4219 18.5059-34.0088 18.5059-37.2803L18.5059-71.6309C18.5059-74.5605 20.3857-76.5381 23.5107-76.5381L28.5889-76.5381C31.3721-76.5381 33.1787-75.8789 35.5713-74.0479L37.3047-72.7295C39.8438-70.752 41.5771-70.0928 45.3613-70.0928L76.5381-70.0928C79.5166-70.0928 81.3232-68.5059 81.3232-65.2344L81.3232-37.2559C81.3232-34.0088 79.5166-32.4219 76.5381-32.4219ZM23.1934-58.1543L76.6357-58.1543L76.6357-61.5479C76.6357-63.5986 75.6836-64.4287 73.7549-64.4287L26.0742-64.4287C24.1455-64.4287 23.1934-63.5986 23.1934-61.5479ZM14.3311-4.44336L85.498-4.44336C88.0127-4.44336 90.0635-6.49414 90.0635-9.00879C90.0635-11.5479 88.0127-13.5742 85.498-13.5742L14.3311-13.5742C11.8164-13.5742 9.76562-11.5479 9.76562-9.00879C9.76562-6.49414 11.8164-4.44336 14.3311-4.44336ZM14.3311 14.8193L85.498 14.8193C88.0127 14.8193 90.0635 12.7686 90.0635 10.2539C90.0635 7.71484 88.0127 5.68848 85.498 5.68848L14.3311 5.68848C11.8164 5.68848 9.76562 7.71484 9.76562 10.2539C9.76562 12.7686 11.8164 14.8193 14.3311 14.8193Z" data-clipstroke-keyframes="0 0 0 3.9162679 3.000406 0 1 3.4154544 3.4994817 0 0 4.916268 4.9994817 0 1 4.4154544 4.4994817"/>
  </g>
  <g id="Semibold-S" transform="matrix(1 0 0 1 1994.35 696)">
   <path d="M21.5592-24.888L77.0696-24.888C83.9738-24.888 88.064-28.9626 88.064-36.5483L88.064-66.2951C88.064-73.9475 83.9405-77.971 76.2704-77.971L46.0607-77.971C43.6373-77.971 42.1171-78.588 40.1176-80.1393L38.2509-81.6153C35.7453-83.5417 33.9254-84.2563 30.2392-84.2563L20.7244-84.2563C13.9312-84.2563 9.76562-80.1529 9.76562-72.5361L9.76562-36.5483C9.76562-28.9626 13.8558-24.888 21.5592-24.888ZM22.2602-32.6707C19.3172-32.6707 17.5639-34.2487 17.5639-37.4491L17.5639-71.6842C17.5639-74.6316 19.3638-76.4581 22.3821-76.4581L27.9757-76.4581C30.4745-76.4581 32.0856-75.8434 34.1938-74.1989L36.0428-72.7562C38.4396-70.8586 40.2353-70.1728 43.7973-70.1728L75.5694-70.1728C78.5124-70.1728 80.2657-68.5947 80.2657-65.3943L80.2657-37.4158C80.2657-34.2487 78.5124-32.6707 75.5694-32.6707ZM22.1092-58.7408L75.7204-58.7408L75.7204-61.77C75.7204-63.803 74.7594-64.6509 72.8218-64.6509L25.0078-64.6509C23.0702-64.6509 22.1092-63.803 22.1092-61.77ZM13.9489-5.54531L83.8807-5.54531C86.1731-5.54531 88.064-7.43613 88.064-9.72861C88.064-12.0544 86.1731-13.9119 83.8807-13.9119L13.9489-13.9119C11.6564-13.9119 9.76562-12.0544 9.76562-9.72861C9.76562-7.43613 11.6564-5.54531 13.9489-5.54531ZM13.9489 13.7974L83.8807 13.7974C86.1731 13.7974 88.064 11.9065 88.064 9.61406C88.064 7.28828 86.1731 5.43076 83.8807 5.43076L13.9489 5.43076C11.6564 5.43076 9.76562 7.28828 9.76562 9.61406C9.76562 11.9065 11.6564 13.7974 13.9489 13.7974Z" data-clipstroke-keyframes="0 0 0 3.9212978 3.000411 0 1 3.420774 3.499577 0 0 4.921298 4.999571 0 1 4.420774 4.499577"/>
  </g>
  <g id="Medium-S" transform="matrix(1 0 0 1 1698.4 696)">
   <path d="M21.0605-25.7842L76.2139-25.7842C82.707-25.7842 86.5479-29.6162 86.5479-36.9189L86.5479-66.1738C86.5479-73.5566 82.667-77.3174 75.2529-77.3174L44.5918-77.3174C42.3301-77.3174 40.8975-77.9209 39.0664-79.3711L37.0986-80.9482C34.748-82.7803 32.9551-83.4814 29.4912-83.4814L20.0371-83.4814C13.6279-83.4814 9.76562-79.6543 9.76562-72.334L9.76562-36.9189C9.76562-29.6162 13.6064-25.7842 21.0605-25.7842ZM21.4785-32.8594C18.5625-32.8594 16.8496-34.4307 16.8496-37.5771L16.8496-71.7246C16.8496-74.6855 18.5889-76.3975 21.5264-76.3975L27.5107-76.3975C29.7939-76.3975 31.2568-75.8164 33.1494-74.3135L35.0859-72.7764C37.375-70.9395 39.2178-70.2334 42.6113-70.2334L74.835-70.2334C77.751-70.2334 79.4639-68.6621 79.4639-65.5156L79.4639-37.5371C79.4639-34.4307 77.751-32.8594 74.835-32.8594ZM21.2871-59.1855L75.0264-59.1855L75.0264-61.9385C75.0264-63.958 74.0586-64.8193 72.1143-64.8193L24.1992-64.8193C22.2549-64.8193 21.2871-63.958 21.2871-61.9385ZM13.6592-6.38086L82.6543-6.38086C84.7783-6.38086 86.5479-8.15039 86.5479-10.2744C86.5479-12.4385 84.7783-14.168 82.6543-14.168L13.6592-14.168C11.5352-14.168 9.76562-12.4385 9.76562-10.2744C9.76562-8.15039 11.5352-6.38086 13.6592-6.38086ZM13.6592 13.0225L82.6543 13.0225C84.7783 13.0225 86.5479 11.2529 86.5479 9.12891C86.5479 6.96484 84.7783 5.23535 82.6543 5.23535L13.6592 5.23535C11.5352 5.23535 9.76562 6.96484 9.76562 9.12891C9.76562 11.2529 11.5352 13.0225 13.6592 13.0225Z" data-clipstroke-keyframes="0 0 0 3.9253726 3.0004148 0 1 3.4250734 3.49964 0 0 4.9253726 4.99964 0 1 4.425073 4.49964"/>
  </g>
  <g id="Regular-S" transform="matrix(1 0 0 1 1402.68 696)">
   <path d="M20.4102-26.9531L75.0977-26.9531C81.0547-26.9531 84.5703-30.4688 84.5703-37.4023L84.5703-66.0156C84.5703-73.0469 81.0059-76.4648 73.9258-76.4648L42.6758-76.4648C40.625-76.4648 39.3066-77.0508 37.6953-78.3691L35.5957-80.0781C33.4473-81.7871 31.6895-82.4707 28.5156-82.4707L19.1406-82.4707C13.2324-82.4707 9.76562-79.0039 9.76562-72.0703L9.76562-37.4023C9.76562-30.4688 13.2812-26.9531 20.4102-26.9531ZM20.459-33.1055C17.5781-33.1055 15.918-34.668 15.918-37.7441L15.918-71.7773C15.918-74.7559 17.5781-76.3184 20.4102-76.3184L26.9043-76.3184C28.9062-76.3184 30.1758-75.7812 31.7871-74.4629L33.8379-72.8027C35.9863-71.0449 37.8906-70.3125 41.0645-70.3125L73.877-70.3125C76.7578-70.3125 78.418-68.75 78.418-65.6738L78.418-37.6953C78.418-34.668 76.7578-33.1055 73.877-33.1055ZM20.2148-59.7656L74.1211-59.7656L74.1211-62.1582C74.1211-64.1602 73.1445-65.0391 71.1914-65.0391L23.1445-65.0391C21.1914-65.0391 20.2148-64.1602 20.2148-62.1582ZM13.2812-7.4707L81.0547-7.4707C82.959-7.4707 84.5703-9.08203 84.5703-10.9863C84.5703-12.9395 82.959-14.502 81.0547-14.502L13.2812-14.502C11.377-14.502 9.76562-12.9395 9.76562-10.9863C9.76562-9.08203 11.377-7.4707 13.2812-7.4707ZM13.2812 12.0117L81.0547 12.0117C82.959 12.0117 84.5703 10.4004 84.5703 8.49609C84.5703 6.54297 82.959 4.98047 81.0547 4.98047L13.2812 4.98047C11.377 4.98047 9.76562 6.54297 9.76562 8.49609C9.76562 10.4004 11.377 12.0117 13.2812 12.0117Z" data-clipstroke-keyframes="0 0 0 3.9303284 3.0004199 0 1 3.4303286 3.4997172 0 0 4.9303284 4.999717 0 1 4.4303284 4.499717"/>
  </g>
  <g id="Light-S" transform="matrix(1 0 0 1 1105.84 696)">
   <path d="M19.8652-26.9683L75.5215-26.9683C81.4482-26.9683 84.8125-30.3779 84.8125-36.9331L84.8125-65.8037C84.8125-72.4111 81.4145-75.7686 74.7129-75.7686L42.6152-75.7686C40.2012-75.7686 38.8828-76.2788 37.1655-77.7637L35.1719-79.4575C32.978-81.3179 31.417-81.9106 28.1069-81.9106L18.5957-81.9106C12.9448-81.9106 9.76562-78.7466 9.76562-72.3882L9.76562-36.9331C9.76562-30.3628 13.145-26.9683 19.8652-26.9683ZM19.9292-31.8037C16.4732-31.8037 14.5859-33.6084 14.5859-37.1992L14.5859-72.1103C14.5859-75.4521 16.3218-77.1055 19.5322-77.1055L26.9194-77.1055C29.2241-77.1055 30.4482-76.6289 32.2261-75.0986L34.1709-73.4385C36.2739-71.6201 38.0874-70.9331 41.4429-70.9331L74.6489-70.9331C78.0596-70.9331 79.9922-69.1284 79.9922-65.5376L79.9922-37.1655C79.9922-33.6084 78.0596-31.8037 74.6489-31.8037ZM18.1563-61.1885L76.3916-61.1885L76.3916-62.8848C76.3916-65.0381 75.2485-66.2046 72.811-66.2046L21.7368-66.2046C19.2993-66.2046 18.1563-65.0381 18.1563-62.8848ZM12.479-7.77344L82.1142-7.77344C83.5796-7.77344 84.8125-9.02148 84.8125-10.4868C84.8125-12.001 83.5796-13.2002 82.1142-13.2002L12.479-13.2002C10.9985-13.2002 9.76562-12.001 9.76562-10.4868C9.76562-9.02148 10.9985-7.77344 12.479-7.77344ZM12.479 11.4063L82.1142 11.4063C83.5796 11.4063 84.8125 10.1733 84.8125 8.69287C84.8125 7.19384 83.5796 5.97948 82.1142 5.97948L12.479 5.97948C10.9985 5.97948 9.76562 7.19384 9.76562 8.69287C9.76562 10.1733 10.9985 11.4063 12.479 11.4063Z" data-clipstroke-keyframes="0 0 0 3.945839 3.000435 0 1 3.4456599 3.499474 0 0 4.945839 4.999853 0 1 4.44566 4.499473"/>
  </g>
  <g id="Thin-S" transform="matrix(1 0 0 1 808.973 696)">
   <path d="M19.1445-26.9883L76.082-26.9883C81.9687-26.9883 85.1328-30.2578 85.1328-36.3125L85.1328-65.5234C85.1328-71.5703 81.9551-74.8477 75.7539-74.8477L42.5352-74.8477C39.6406-74.8477 38.3223-75.2578 36.4649-76.9629L34.6113-78.6367C32.3574-80.6973 31.0566-81.1699 27.5664-81.1699L17.875-81.1699C12.5645-81.1699 9.76562-78.4063 9.76562-72.8086L9.76562-36.3125C9.76562-30.2227 12.9648-26.9883 19.1445-26.9883ZM19.2285-30.0821C15.0117-30.0821 12.8242-32.2071 12.8242-36.4785L12.8242-72.5508C12.8242-76.373 14.6602-78.1465 18.3711-78.1465L26.9395-78.1465C29.6445-78.1465 30.8086-77.75 32.8066-75.9394L34.6113-74.2793C36.6543-72.3808 38.3477-71.7539 41.9434-71.7539L75.6699-71.7539C79.7812-71.7539 82.0742-69.6289 82.0742-65.3574L82.0742-36.4649C82.0742-32.2071 79.7812-30.0821 75.6699-30.0821ZM15.4336-63.0703L79.3945-63.0703L79.3945-63.8457C79.3945-66.1992 78.0312-67.7461 74.9531-67.7461L19.875-67.7461C16.7969-67.7461 15.4336-66.1992 15.4336-63.8457ZM11.418-8.17382L83.5156-8.17382C84.4004-8.17382 85.1328-8.94141 85.1328-9.82618C85.1328-10.7598 84.4004-11.4785 83.5156-11.4785L11.418-11.4785C10.4981-11.4785 9.76562-10.7598 9.76562-9.82618C9.76562-8.94141 10.4981-8.17382 11.418-8.17382ZM11.418 10.6055L83.5156 10.6055C84.4004 10.6055 85.1328 9.87305 85.1328 8.95312C85.1328 8.05468 84.4004 7.30076 83.5156 7.30076L11.418 7.30076C10.4981 7.30076 9.76562 8.05468 9.76562 8.95312C9.76562 9.87305 10.4981 10.6055 11.418 10.6055Z" data-clipstroke-keyframes="0 0 0 3.9667535 3.0004556 0 1 3.4663107 3.4993541 0 0 4.9667535 4.9999695 0 1 4.466311 4.4993534"/>
  </g>
  <g id="Ultralight-S" transform="matrix(1 0 0 1 512.18 696)">
   <path d="M18.7754-26.9985L76.3691-26.9985C82.2353-26.9985 85.2969-30.1963 85.2969-35.9946L85.2969-65.3799C85.2969-71.1397 82.2319-74.376 76.2871-74.376L42.4941-74.376C39.3535-74.376 38.0352-74.7349 36.106-76.5527L34.3242-78.2163C32.0396-80.3794 30.8721-80.7905 27.2896-80.7905L17.5059-80.7905C12.3696-80.7905 9.76562-78.2319 9.76562-73.0239L9.76562-35.9946C9.76562-30.1509 12.8726-26.9985 18.7754-26.9985ZM18.8696-29.2002C14.2632-29.2002 11.9219-31.4893 11.9219-36.1094L11.9219-72.7764C11.9219-76.8447 13.8091-78.6797 17.7764-78.6797L26.9497-78.6797C29.8599-78.6797 30.9932-78.3242 33.104-76.3701L34.8369-74.7099C36.8491-72.7705 38.481-72.1743 42.1997-72.1743L76.1929-72.1743C80.6631-72.1743 83.1406-69.8852 83.1406-65.2651L83.1406-36.106C83.1406-31.4893 80.6631-29.2002 76.1929-29.2002ZM14.0391-64.0341L80.9326-64.0341L80.9326-64.3379C80.9326-66.7939 79.4565-68.5356 76.0503-68.5356L18.9214-68.5356C15.5152-68.5356 14.0391-66.7939 14.0391-64.3379ZM10.8745-8.3789L84.2334-8.3789C84.8208-8.3789 85.2969-8.90039 85.2969-9.4878C85.2969-10.124 84.8208-10.5967 84.2334-10.5967L10.8745-10.5967C10.2417-10.5967 9.76562-10.124 9.76562-9.4878C9.76562-8.90039 10.2417-8.3789 10.8745-8.3789ZM10.8745 10.1953L84.2334 10.1953C84.8208 10.1953 85.2969 9.71924 85.2969 9.08642C85.2969 8.49559 84.8208 7.97752 84.2334 7.97752L10.8745 7.97752C10.2417 7.97752 9.76562 8.49559 9.76562 9.08642C9.76562 9.71924 10.2417 10.1953 10.8745 10.1953Z" data-clipstroke-keyframes="0 0 0 3.9776459 3.0004663 0 1 3.4770563 3.4993837 0 0 4.977646 4 0 1 4.4770565 4.499384"/>
  </g>
 </g>
</svg>
