<?xml version="1.0" encoding="UTF-8"?>
<!--Generator: Apple Native CoreSVG 341-->
<!DOCTYPE svg
PUBLIC "-//W3C//DTD SVG 1.1//EN"
       "http://www.w3.org/Graphics/SVG/1.1/DTD/svg11.dtd">
<svg version="1.1" xmlns="http://www.w3.org/2000/svg" xmlns:xlink="http://www.w3.org/1999/xlink" viewBox="0 0 3300 2200">
 <g id="Notes">
  <rect height="2200" id="artboard" style="fill:white;opacity:1" width="3300" x="0" y="0"/>
  <line style="fill:none;stroke:black;opacity:1;stroke-width:0.5;" x1="263" x2="3036" y1="292" y2="292"/>
  <text style="stroke:none;fill:black;font-family:sans-serif;font-size:13;font-weight:bold;" transform="matrix(1 0 0 1 263 322)">Weight/Scale Variations</text>
  <text style="stroke:none;fill:black;font-family:sans-serif;font-size:13;text-anchor:middle;" transform="matrix(1 0 0 1 559.711 322)">Ultralight</text>
  <text style="stroke:none;fill:black;font-family:sans-serif;font-size:13;text-anchor:middle;" transform="matrix(1 0 0 1 856.422 322)">Thin</text>
  <text style="stroke:none;fill:black;font-family:sans-serif;font-size:13;text-anchor:middle;" transform="matrix(1 0 0 1 1153.13 322)">Light</text>
  <text style="stroke:none;fill:black;font-family:sans-serif;font-size:13;text-anchor:middle;" transform="matrix(1 0 0 1 1449.84 322)">Regular</text>
  <text style="stroke:none;fill:black;font-family:sans-serif;font-size:13;text-anchor:middle;" transform="matrix(1 0 0 1 1746.56 322)">Medium</text>
  <text style="stroke:none;fill:black;font-family:sans-serif;font-size:13;text-anchor:middle;" transform="matrix(1 0 0 1 2043.27 322)">Semibold</text>
  <text style="stroke:none;fill:black;font-family:sans-serif;font-size:13;text-anchor:middle;" transform="matrix(1 0 0 1 2339.98 322)">Bold</text>
  <text style="stroke:none;fill:black;font-family:sans-serif;font-size:13;text-anchor:middle;" transform="matrix(1 0 0 1 2636.69 322)">Heavy</text>
  <text style="stroke:none;fill:black;font-family:sans-serif;font-size:13;text-anchor:middle;" transform="matrix(1 0 0 1 2933.4 322)">Black</text>
  <line style="fill:none;stroke:black;opacity:1;stroke-width:0.5;" x1="263" x2="3036" y1="1903" y2="1903"/>
  <g transform="matrix(0.2 0 0 0.2 263 1933)">
   <path d="m46.2402 4.15039c21.7773 0 39.4531-17.627 39.4531-39.4043s-17.6758-39.4043-39.4531-39.4043c-21.7285 0-39.4043 17.627-39.4043 39.4043s17.6758 39.4043 39.4043 39.4043Zm0-7.42188c-17.6758 0-31.9336-14.3066-31.9336-31.9824s14.2578-31.9824 31.9336-31.9824 31.9824 14.3066 31.9824 31.9824-14.3066 31.9824-31.9824 31.9824Zm3.61328-17.7734v-28.4668c0-2.24609-1.46484-3.75977-3.71094-3.75977-2.14844 0-3.61328 1.51367-3.61328 3.75977v28.4668c0 2.19727 1.46484 3.71094 3.61328 3.71094 2.24609 0 3.71094-1.51367 3.71094-3.71094Zm-17.8223-10.5957h28.418c2.19727 0 3.71094-1.46484 3.71094-3.61328 0-2.19727-1.51367-3.71094-3.71094-3.71094h-28.418c-2.24609 0-3.75977 1.51367-3.75977 3.71094 0 2.14844 1.51367 3.61328 3.75977 3.61328Z"/>
  </g>
  <g transform="matrix(0.2 0 0 0.2 281.506 1933)">
   <path d="m58.5449 14.5508c27.4902 0 49.8047-22.3145 49.8047-49.8047s-22.3145-49.8047-49.8047-49.8047-49.8047 22.3145-49.8047 49.8047 22.3145 49.8047 49.8047 49.8047Zm0-8.30078c-22.9492 0-41.5039-18.5547-41.5039-41.5039s18.5547-41.5039 41.5039-41.5039 41.5039 18.5547 41.5039 41.5039-18.5547 41.5039-41.5039 41.5039Zm4.05273-23.0957v-36.9141c0-2.49023-1.70898-4.19922-4.15039-4.19922-2.39258 0-4.05273 1.70898-4.05273 4.19922v36.9141c0 2.44141 1.66016 4.15039 4.05273 4.15039 2.44141 0 4.15039-1.66016 4.15039-4.15039Zm-22.5586-14.4043h36.9629c2.44141 0 4.15039-1.61133 4.15039-4.00391 0-2.44141-1.70898-4.15039-4.15039-4.15039h-36.9629c-2.49023 0-4.15039 1.70898-4.15039 4.15039 0 2.39258 1.66016 4.00391 4.15039 4.00391Z"/>
  </g>
  <g transform="matrix(0.2 0 0 0.2 304.924 1933)">
   <path d="m74.8535 28.3203c35.1074 0 63.623-28.4668 63.623-63.5742s-28.5156-63.623-63.623-63.623-63.5742 28.5156-63.5742 63.623 28.4668 63.5742 63.5742 63.5742Zm0-9.08203c-30.127 0-54.4922-24.3652-54.4922-54.4922s24.3652-54.4922 54.4922-54.4922 54.4922 24.3652 54.4922 54.4922-24.3652 54.4922-54.4922 54.4922Zm4.44336-30.3223v-48.4863c0-2.73438-1.85547-4.63867-4.54102-4.63867-2.58789 0-4.44336 1.9043-4.44336 4.63867v48.4863c0 2.68555 1.85547 4.58984 4.44336 4.58984 2.68555 0 4.54102-1.85547 4.54102-4.58984Zm-28.7109-19.7754h48.4863c2.68555 0 4.58984-1.80664 4.58984-4.39453 0-2.73438-1.85547-4.58984-4.58984-4.58984h-48.4863c-2.73438 0-4.58984 1.85547-4.58984 4.58984 0 2.58789 1.85547 4.39453 4.58984 4.39453Z"/>
  </g>
  <text style="stroke:none;fill:black;font-family:sans-serif;font-size:13;font-weight:bold;" transform="matrix(1 0 0 1 263 1953)">Design Variations</text>
  <text style="stroke:none;fill:black;font-family:sans-serif;font-size:13;" transform="matrix(1 0 0 1 263 1971)">Symbols are supported in up to nine weights and three scales.</text>
  <text style="stroke:none;fill:black;font-family:sans-serif;font-size:13;" transform="matrix(1 0 0 1 263 1989)">For optimal layout with text and other symbols, vertically align</text>
  <text style="stroke:none;fill:black;font-family:sans-serif;font-size:13;" transform="matrix(1 0 0 1 263 2007)">symbols with the adjacent text.</text>
  <line style="fill:none;stroke:#00AEEF;stroke-width:0.5;opacity:1.0;" x1="776" x2="776" y1="1919" y2="1933"/>
  <g transform="matrix(0.2 0 0 0.2 776 1933)">
   <path d="m16.5527 0.78125c2.58789 0 3.85742-0.976562 4.78516-3.71094l20.5566-57.5195h0.244141l20.6055 57.5195c0.927734 2.73438 2.19727 3.71094 4.73633 3.71094 2.58789 0 4.24805-1.5625 4.24805-4.00391 0-0.830078-0.146484-1.61133-0.537109-2.63672l-22.9004-60.9863c-1.12305-2.97852-3.125-4.49219-6.25-4.49219-3.02734 0-5.07812 1.46484-6.15234 4.44336l-22.9004 61.084c-0.390625 1.02539-0.537109 1.80664-0.537109 2.63672 0 2.44141 1.5625 3.95508 4.10156 3.95508Zm10.2051-20.9473h30.6641c2.00195 0 3.66211-1.66016 3.66211-3.66211 0-2.05078-1.66016-3.66211-3.66211-3.66211h-30.6641c-2.00195 0-3.66211 1.61133-3.66211 3.66211 0 2.00195 1.66016 3.66211 3.66211 3.66211Z"/>
  </g>
  <line style="fill:none;stroke:#00AEEF;stroke-width:0.5;opacity:1.0;" x1="792.836" x2="792.836" y1="1919" y2="1933"/>
  <text style="stroke:none;fill:black;font-family:sans-serif;font-size:13;font-weight:bold;" transform="matrix(1 0 0 1 776 1953)">Margins</text>
  <text style="stroke:none;fill:black;font-family:sans-serif;font-size:13;" transform="matrix(1 0 0 1 776 1971)">Leading and trailing margins on the left and right side of each symbol</text>
  <text style="stroke:none;fill:black;font-family:sans-serif;font-size:13;" transform="matrix(1 0 0 1 776 1989)">can be adjusted by modifying the x-location of the margin guidelines.</text>
  <text style="stroke:none;fill:black;font-family:sans-serif;font-size:13;" transform="matrix(1 0 0 1 776 2007)">Modifications are automatically applied proportionally to all</text>
  <text style="stroke:none;fill:black;font-family:sans-serif;font-size:13;" transform="matrix(1 0 0 1 776 2025)">scales and weights.</text>
  <g transform="matrix(0.2 0 0 0.2 1289 1933)">
   <path d="m14.209 13.1348 7.86133 7.86133c4.29688 4.39453 9.32617 4.10156 13.8672-1.02539l60.6934-68.2129-4.88281-4.88281-60.2539 67.6758c-1.80664 1.95312-3.4668 2.44141-5.81055 0.0976562l-5.17578-5.12695c-2.29492-2.29492-1.80664-3.95508 0.195312-5.81055l67.4805-62.1582-4.88281-4.83398-68.0664 62.5977c-4.98047 4.58984-5.32227 9.47266-1.02539 13.8184Zm44.873-97.4609c-2.05078 2.00195-2.24609 4.88281-1.07422 6.78711 1.12305 1.80664 3.4668 3.02734 6.5918 2.24609 5.85938-1.66016 12.5977-2.39258 18.8965 0.927734l-2.68555 7.12891c-1.61133 4.00391-0.732422 6.88477 1.70898 9.42383l10.2539 10.3027c2.34375 2.39258 4.54102 2.44141 7.08008 1.95312l4.44336-0.732422 2.58789 2.53906-0.195312 2.24609c-0.0976562 2.29492 0.537109 4.29688 2.7832 6.49414l3.36914 3.32031c2.29492 2.29492 5.51758 2.49023 7.8125 0.195312l12.9883-13.0371c2.29492-2.34375 2.14844-5.37109-0.195312-7.66602l-3.41797-3.41797c-2.19727-2.19727-4.05273-3.02734-6.34766-2.88086l-2.34375 0.244141-2.44141-2.44141 1.02539-4.6875c0.634766-2.73438-0.244141-4.98047-2.88086-7.61719l-11.2793-11.1816c-12.9395-12.8418-35.5957-11.0352-46.6797-0.146484Zm7.08008 2.05078c8.78906-6.39648 25.9766-5.66406 33.6914 1.95312l12.3047 12.207c1.02539 1.02539 1.2207 1.80664 0.927734 3.32031l-1.46484 6.64062 6.73828 6.68945 4.39453-0.244141c1.12305-0.0488281 1.51367 0.0488281 2.34375 0.878906l2.53906 2.49023-10.8398 10.8398-2.49023-2.49023c-0.830078-0.878906-0.976562-1.2207-0.927734-2.39258l0.292969-4.3457-6.68945-6.73828-6.83594 1.17188c-1.41602 0.292969-2.05078 0.195312-3.17383-0.878906l-8.93555-8.88672c-1.07422-1.02539-1.17188-1.70898-0.488281-3.36914l4.58984-11.4746c-6.10352-6.34766-17.041-7.51953-25.5859-4.58984-0.683594 0.244141-0.927734-0.390625-0.390625-0.78125Z"/>
  </g>
  <text style="stroke:none;fill:black;font-family:sans-serif;font-size:13;font-weight:bold;" transform="matrix(1 0 0 1 1289 1953)">Exporting</text>
  <text style="stroke:none;fill:black;font-family:sans-serif;font-size:13;" transform="matrix(1 0 0 1 1289 1971)">Symbols should be outlined when exporting to ensure the</text>
  <text style="stroke:none;fill:black;font-family:sans-serif;font-size:13;" transform="matrix(1 0 0 1 1289 1989)">design is preserved when submitting to Xcode.</text>
  <text id="template-version" style="stroke:none;fill:black;font-family:sans-serif;font-size:13;text-anchor:end;" transform="matrix(1 0 0 1 3036 1933)">Template v.2.0</text>
  <text style="stroke:none;fill:black;font-family:sans-serif;font-size:13;text-anchor:end;" transform="matrix(1 0 0 1 3036 1951)">Requires Xcode 12 or greater</text>
  <text id="descriptive-name" style="stroke:none;fill:black;font-family:sans-serif;font-size:13;text-anchor:end;" transform="matrix(1 0 0 1 3036 1969)">Generated from smartphone</text>
  <text style="stroke:none;fill:black;font-family:sans-serif;font-size:13;text-anchor:end;" transform="matrix(1 0 0 1 3036 1987)">Typeset at 100.0 points</text>
  <text style="stroke:none;fill:black;font-family:sans-serif;font-size:13;" transform="matrix(1 0 0 1 263 726)">Small</text>
  <text style="stroke:none;fill:black;font-family:sans-serif;font-size:13;" transform="matrix(1 0 0 1 263 1156)">Medium</text>
  <text style="stroke:none;fill:black;font-family:sans-serif;font-size:13;" transform="matrix(1 0 0 1 263 1586)">Large</text>
 </g>
 <g id="Guides">
  <g id="H-reference" style="fill:#27AAE1;stroke:none;" transform="matrix(1 0 0 1 339 696)">
   <path d="M0.993654 0L3.63775 0L29.3281-67.1323L30.0303-67.1323L30.0303-70.459L28.1226-70.459ZM11.6885-24.4799L46.9815-24.4799L46.2315-26.7285L12.4385-26.7285ZM55.1196 0L57.7637 0L30.6382-70.459L29.4326-70.459L29.4326-67.1323Z"/>
  </g>
  <line id="Baseline-S" style="fill:none;stroke:#27AAE1;opacity:1;stroke-width:0.5;" x1="263" x2="3036" y1="696" y2="696"/>
  <line id="Capline-S" style="fill:none;stroke:#27AAE1;opacity:1;stroke-width:0.5;" x1="263" x2="3036" y1="625.541" y2="625.541"/>
  <g id="H-reference" style="fill:#27AAE1;stroke:none;" transform="matrix(1 0 0 1 339 1126)">
   <path d="M0.993654 0L3.63775 0L29.3281-67.1323L30.0303-67.1323L30.0303-70.459L28.1226-70.459ZM11.6885-24.4799L46.9815-24.4799L46.2315-26.7285L12.4385-26.7285ZM55.1196 0L57.7637 0L30.6382-70.459L29.4326-70.459L29.4326-67.1323Z"/>
  </g>
  <line id="Baseline-M" style="fill:none;stroke:#27AAE1;opacity:1;stroke-width:0.5;" x1="263" x2="3036" y1="1126" y2="1126"/>
  <line id="Capline-M" style="fill:none;stroke:#27AAE1;opacity:1;stroke-width:0.5;" x1="263" x2="3036" y1="1055.54" y2="1055.54"/>
  <g id="H-reference" style="fill:#27AAE1;stroke:none;" transform="matrix(1 0 0 1 339 1556)">
   <path d="M0.993654 0L3.63775 0L29.3281-67.1323L30.0303-67.1323L30.0303-70.459L28.1226-70.459ZM11.6885-24.4799L46.9815-24.4799L46.2315-26.7285L12.4385-26.7285ZM55.1196 0L57.7637 0L30.6382-70.459L29.4326-70.459L29.4326-67.1323Z"/>
  </g>
  <line id="Baseline-L" style="fill:none;stroke:#27AAE1;opacity:1;stroke-width:0.5;" x1="263" x2="3036" y1="1556" y2="1556"/>
  <line id="Capline-L" style="fill:none;stroke:#27AAE1;opacity:1;stroke-width:0.5;" x1="263" x2="3036" y1="1485.54" y2="1485.54"/>
  <line id="right-margin" style="fill:none;stroke:#00AEEF;stroke-width:0.5;opacity:1.0;" x1="1499.92" x2="1499.92" y1="1030.79" y2="1150.12"/>
  <line id="left-margin" style="fill:none;stroke:#00AEEF;stroke-width:0.5;opacity:1.0;" x1="1399.77" x2="1399.77" y1="1030.79" y2="1150.12"/>
 </g>
 <g id="Symbols">
  <g id="Black-L" transform="matrix(1 0 0 1 2861.61 1556)">
   <path d="M37.213 41.1276L107.567 41.1276C116.622 41.1276 122.368 35.1097 122.368 25.6459L122.368-96.4386C122.368-105.905 116.624-111.92 107.567-111.92L37.213-111.92C27.4172-111.92 21.2056-105.905 21.2056-96.497L21.2056 25.7043C21.2056 35.1097 27.4196 41.1276 37.213 41.1276ZM44.2956 11.3536C42.4337 11.3536 41.1867 10.1846 41.1867 8.30182L41.1867-88.8887C41.1867-90.7738 42.4313-91.9392 44.2956-91.9392L99.3159-91.9392C101.201-91.9392 102.366-90.7154 102.366-88.8303L102.366 8.24342C102.366 10.1262 101.199 11.3536 99.3159 11.3536Z"/>
  </g>
  <g id="Heavy-L" transform="matrix(1 0 0 1 2566.73 1556)">
   <path d="M35.947 38.7072L104.874 38.7072C112.865 38.7072 118.019 33.3597 118.019 25.0567L118.019-95.7991C118.019-104.113 112.876-109.45 104.874-109.45L35.947-109.45C27.3951-109.45 21.8948-104.113 21.8948-95.8437L21.8948 25.1013C21.8948 33.3597 27.4064 38.7072 35.947 38.7072ZM42.3626 11.8317C40.6037 11.8317 39.3952 10.6924 39.3952 8.90337L39.3952-89.0265C39.3952-90.8268 40.5925-91.9493 42.3626-91.9493L97.5658-91.9493C99.3661-91.9493 100.489-90.7822 100.489-88.9819L100.489 8.85874C100.489 10.6478 99.3549 11.8317 97.5658 11.8317Z"/>
  </g>
  <g id="Bold-L" transform="matrix(1 0 0 1 2272.32 1556)">
   <path d="M34.4987 35.7775L101.383 35.7775C108.156 35.7775 112.64 31.1854 112.64 24.2074L112.64-94.8884C112.64-101.893 108.183-106.458 101.383-106.458L34.4987-106.458C27.357-106.458 22.6658-101.893 22.6658-94.9176L22.6658 24.2366C22.6658 31.1854 27.3835 35.7775 34.4987 35.7775ZM39.9728 12.4309C38.2997 12.4309 37.1076 11.2927 37.1076 9.58163L37.1076-89.1807C37.1076-90.9182 38.2732-92.0167 39.9728-92.0167L95.3244-92.0167C97.0619-92.0167 98.1604-90.889 98.1604-89.1515L98.1604 9.55243C98.1604 11.2635 97.0355 12.4309 95.3244 12.4309Z"/>
  </g>
  <g id="Semibold-L" transform="matrix(1 0 0 1 1977.2 1556)">
   <path d="M33.5002 33.7578L98.9756 33.7578C104.91 33.7578 108.932 29.6864 108.932 23.622L108.932-94.2606C108.932-100.362 104.947-104.396 98.9756-104.396L33.5002-104.396C27.3308-104.396 23.1973-100.362 23.1973-94.2792L23.1973 23.6406C23.1973 29.6864 27.3677 33.7578 33.5002 33.7578ZM38.3252 12.8439C36.7113 12.8439 35.5305 11.7065 35.5305 10.0492L35.5305-89.287C35.5305-90.9812 36.6744-92.0632 38.3252-92.0632L93.7792-92.0632C95.4734-92.0632 96.5554-90.9627 96.5554-89.2684L96.5554 10.0307C96.5554 11.6879 95.4364 12.8439 93.7792 12.8439Z"/>
  </g>
  <g id="Medium-L" transform="matrix(1 0 0 1 1681.7 1556)">
   <path d="M32.7432 32.2263L97.1506 32.2263C102.449 32.2263 106.12 28.5498 106.12 23.1781L106.12-93.7845C106.12-99.2012 102.494-102.833 97.1506-102.833L32.7432-102.833C27.3109-102.833 23.6003-99.2012 23.6003-93.7951L23.6003 23.1886C23.6003 28.5498 27.3558 32.2263 32.7432 32.2263ZM37.076 13.1571C35.5069 13.1571 34.3346 12.0203 34.3346 10.4038L34.3346-89.3676C34.3346-91.029 35.462-92.0985 37.076-92.0985L92.6075-92.0985C94.2689-92.0985 95.3384-91.0185 95.3384-89.3571L95.3384 10.3933C95.3384 12.0097 94.224 13.1571 92.6075 13.1571Z"/>
  </g>
  <g id="Regular-L" transform="matrix(1 0 0 1 1386.56 1556)">
   <path d="M31.7557 30.2288L94.7702 30.2288C99.2384 30.2288 102.453 27.0673 102.453 22.5991L102.453-93.1636C102.453-97.6871 99.2937-100.793 94.7702-100.793L31.7557-100.793C27.2849-100.793 24.126-97.6871 24.126-93.1636L24.126 22.5991C24.126 27.0673 27.3402 30.2288 31.7557 30.2288ZM35.4465 13.5656C33.936 13.5656 32.7748 12.4295 32.7748 10.8662L32.7748-89.4727C32.7748-91.0913 33.8807-92.1444 35.4465-92.1444L91.0793-92.1444C92.6979-92.1444 93.751-91.0913 93.751-89.4727L93.751 10.8662C93.751 12.4295 92.6426 13.5656 91.0793 13.5656Z"/>
  </g>
  <g id="Light-L" transform="matrix(1 0 0 1 1091.68 1556)">
   <path d="M31.5266 28.6447L91.3539 28.6447C95.6313 28.6447 98.7882 25.5214 98.7882 21.244L98.7882-91.7704C98.7882-96.1412 95.7247-99.1711 91.3539-99.1711L31.5266-99.1711C27.1895-99.1711 24.126-96.1412 24.126-91.7704L24.126 21.244C24.126 25.5214 27.283 28.6447 31.5266 28.6447ZM33.8243 14.0236C32.1038 14.0236 30.7518 12.6585 30.7518 10.9044L30.7518-89.4727C30.7518-91.3204 32.0104-92.5452 33.8243-92.5452L89.0562-92.5452C90.9039-92.5452 92.1287-91.3204 92.1287-89.4727L92.1287 10.9044C92.1287 12.6585 90.8104 14.0236 89.0562 14.0236Z"/>
  </g>
  <g id="Thin-L" transform="matrix(1 0 0 1 797.388 1556)">
   <path d="M31.2237 26.5496L86.8356 26.5496C90.8605 26.5496 93.9418 23.4768 93.9418 19.4519L93.9418-89.9277C93.9418-94.0966 91.0045-97.0255 86.8356-97.0255L31.2237-97.0255C27.0633-97.0255 24.126-94.0966 24.126-89.9277L24.126 19.4519C24.126 23.4768 27.2072 26.5496 31.2237 26.5496ZM31.6787 14.6294C29.6806 14.6294 28.0762 12.9614 28.0762 10.9549L28.0762-89.4727C28.0762-91.6233 29.5367-93.0753 31.6787-93.0753L86.3806-93.0753C88.5311-93.0753 89.9832-91.6233 89.9832-89.4727L89.9832 10.9549C89.9832 12.9614 88.3872 14.6294 86.3806 14.6294Z"/>
  </g>
  <g id="Ultralight-L" transform="matrix(1 0 0 1 501.918 1556)">
   <path d="M31.0686 25.4766L84.5214 25.4766C88.417 25.4766 91.4595 22.4296 91.4595 18.5339L91.4595-88.9839C91.4595-93.0494 88.5868-95.9266 84.5214-95.9266L31.0686-95.9266C26.9986-95.9266 24.126-93.0494 24.126-88.9839L24.126 18.5339C24.126 22.4296 27.1685 25.4766 31.0686 25.4766ZM30.5798 14.9397C28.4395 14.9397 26.7057 13.1166 26.7057 10.9807L26.7057-89.4727C26.7057-91.7784 28.2696-93.3468 30.5798-93.3468L85.0102-93.3468C87.3158-93.3468 88.8842-91.7784 88.8842-89.4727L88.8842 10.9807C88.8842 13.1166 87.146 14.9397 85.0102 14.9397Z"/>
  </g>
  <g id="Black-M" transform="matrix(1 0 0 1 2876.46 1126)">
   <path d="M29.8874 25.7931L85.1878 25.7931C93.0917 25.7931 98.0451 20.5597 98.0451 12.2561L98.0451-83.0115C98.0451-91.3146 93.0911-96.5485 85.1878-96.5485L29.8874-96.5485C21.2473-96.5485 15.8366-91.3146 15.8366-83.0686L15.8366 12.3132C15.8366 20.5597 21.2467 25.7931 29.8874 25.7931ZM35.7592 0.511468C34.1996 0.511468 33.1745-0.45076 33.1745-2.01577L33.1745-76.683C33.1745-78.2475 34.2002-79.2106 35.7592-79.2106L78.1741-79.2106C79.7386-79.2106 80.7017-78.1904 80.7017-76.6259L80.7017-2.07286C80.7017-0.507856 79.7392 0.511468 78.1741 0.511468Z"/>
  </g>
  <g id="Heavy-M" transform="matrix(1 0 0 1 2581.37 1126)">
   <path d="M28.671 23.5731L82.8706 23.5731C89.7518 23.5731 94.1316 18.9916 94.1316 11.805L94.1316-82.5149C94.1316-89.7061 89.7564-94.283 82.8706-94.283L28.671-94.283C21.2345-94.283 16.5103-89.7061 16.5103-82.5586L16.5103 11.8487C16.5103 18.9916 21.2391 23.5731 28.671 23.5731ZM34.0192 0.936651C32.5798 0.936651 31.6099 0.0245886 31.6099-1.43124L31.6099-76.8178C31.6099-78.2782 32.5752-79.1834 34.0192-79.1834L76.65-79.1834C78.1103-79.1834 79.0156-78.2345 79.0156-76.7742L79.0156-1.47486C79.0156-0.019033 78.1058 0.936651 76.65 0.936651Z"/>
  </g>
  <g id="Bold-M" transform="matrix(1 0 0 1 2286.47 1126)">
   <path d="M27.3102 21.0898L80.2785 21.0898C86.0157 21.0898 89.7538 17.2375 89.7538 11.3005L89.7538-81.9595C89.7538-87.9068 86.0259-91.7487 80.2785-91.7487L27.3102-91.7487C21.2202-91.7487 17.264-87.9068 17.264-81.988L17.264 11.329C17.264 17.2375 21.2305 21.0898 27.3102 21.0898ZM32.0728 1.41228C30.7677 1.41228 29.8597 0.556334 29.8597-0.777362L29.8597-76.9685C29.8597-78.3125 30.7574-79.153 32.0728-79.153L74.945-79.153C76.2889-79.153 77.1295-78.2839 77.1295-76.94L77.1295-0.80591C77.1295 0.527786 76.2787 1.41228 74.945 1.41228Z"/>
  </g>
  <g id="Semibold-M" transform="matrix(1 0 0 1 1991.01 1126)">
   <path d="M26.3721 19.3778L78.4915 19.3778C83.44 19.3778 86.7358 16.0283 86.7358 10.9527L86.7358-81.5765C86.7358-86.6663 83.4542-90.0016 78.4915-90.0016L26.3721-90.0016C21.2104-90.0016 17.7836-86.6663 17.7836-81.5947L17.7836 10.9708C17.7836 16.0283 21.2246 19.3778 26.3721 19.3778ZM30.7309 1.74017C29.5185 1.74017 28.6531 0.922917 28.6531-0.326583L28.6531-77.0724C28.6531-78.3361 29.5042-79.1321 30.7309-79.1321L73.7695-79.1321C75.0332-79.1321 75.8292-78.318 75.8292-77.0543L75.8292-0.344739C75.8292 0.90476 75.019 1.74017 73.7695 1.74017Z"/>
  </g>
  <g id="Medium-M" transform="matrix(1 0 0 1 1695.24 1126)">
   <path d="M25.6608 18.0797L77.1365 18.0797C81.487 18.0797 84.4474 15.1114 84.4474 10.6889L84.4474-81.2861C84.4474-85.7258 81.5042-88.6769 77.1365-88.6769L25.6608-88.6769C21.2029-88.6769 18.1775-85.7258 18.1775-81.2964L18.1775 10.6992C18.1775 15.1114 21.2201 18.0797 25.6608 18.0797ZM29.7135 1.9888C28.5712 1.9888 27.7382 1.20087 27.7382 0.0152174L27.7382-77.1512C27.7382-78.3541 28.554-79.1162 29.7135-79.1162L72.8783-79.1162C74.0811-79.1162 74.8433-78.3438 74.8433-77.141L74.8433 0.00494008C74.8433 1.1906 74.0639 1.9888 72.8783 1.9888Z"/>
  </g>
  <g id="Regular-M" transform="matrix(1 0 0 1 1399.77 1126)">
   <path d="M24.733 16.3865L75.3692 16.3865C78.9396 16.3865 81.4625 13.9154 81.4625 10.3449L81.4625-80.9074C81.4625-84.499 78.9607-86.949 75.3692-86.949L24.733-86.949C21.1931-86.949 18.6914-84.499 18.6914-80.9074L18.6914 10.3449C18.6914 13.9154 21.2142 16.3865 24.733 16.3865ZM28.3864 2.31309C27.3357 2.31309 26.5449 1.56343 26.5449 0.461043L26.5449-77.254C26.5449-78.3775 27.3146-79.0955 28.3864-79.0955L71.7158-79.0955C72.8393-79.0955 73.5573-78.3775 73.5573-77.254L73.5573 0.461043C73.5573 1.56343 72.8182 2.31309 71.7158 2.31309Z"/>
  </g>
  <g id="Light-M" transform="matrix(1 0 0 1 1104.7 1126)">
   <path d="M24.5276 14.9663L72.3063 14.9663C75.7057 14.9663 78.1772 12.5294 78.1772 9.13004L78.1772-79.6583C78.1772-83.113 75.761-85.4945 72.3063-85.4945L24.5276-85.4945C21.1076-85.4945 18.6914-83.113 18.6914-79.6583L18.6914 9.13004C18.6914 12.5294 21.1629 14.9663 24.5276 14.9663ZM26.9319 2.72375C25.6931 2.72375 24.7311 1.76876 24.7311 0.495265L24.7311-77.254C24.7311-78.5828 25.6378-79.4548 26.9319-79.4548L69.902-79.4548C71.2308-79.4548 72.1028-78.5828 72.1028-77.254L72.1028 0.495265C72.1028 1.76876 71.1755 2.72375 69.902 2.72375Z"/>
  </g>
  <g id="Thin-M" transform="matrix(1 0 0 1 810.16 1126)">
   <path d="M24.2561 13.0879L68.2554 13.0879C71.4285 13.0879 73.8321 10.6963 73.8321 7.52327L73.8321-78.0063C73.8321-81.2799 71.5291-83.5709 68.2554-83.5709L24.2561-83.5709C20.9944-83.5709 18.6914-81.2799 18.6914-78.0063L18.6914 7.52327C18.6914 10.6963 21.095 13.0879 24.2561 13.0879ZM25.0083 3.26689C23.5205 3.26689 22.3323 2.04033 22.3323 0.540527L22.3323-77.254C22.3323-78.8544 23.42-79.9301 25.0083-79.9301L67.5032-79.9301C69.1036-79.9301 70.1792-78.8544 70.1792-77.254L70.1792 0.540527C70.1792 2.04033 69.003 3.26689 67.5032 3.26689Z"/>
  </g>
  <g id="Ultralight-M" transform="matrix(1 0 0 1 514.562 1126)">
   <path d="M24.117 12.1258L66.1806 12.1258C69.2377 12.1258 71.6066 9.75743 71.6066 6.70029L71.6066-77.1601C71.6066-80.341 69.3615-82.5857 66.1806-82.5857L24.117-82.5857C20.9365-82.5857 18.6914-80.341 18.6914-77.1601L18.6914 6.70029C18.6914 9.75743 21.0602 12.1258 24.117 12.1258ZM24.0231 3.54508C22.4078 3.54508 21.1036 2.17942 21.1036 0.563709L21.1036-77.254C21.1036-78.9935 22.284-80.1735 24.0231-80.1735L66.2745-80.1735C68.014-80.1735 69.194-78.9935 69.194-77.254L69.194 0.563709C69.194 2.17942 67.8902 3.54508 66.2745 3.54508Z"/>
  </g>
  <g id="Black-S" transform="matrix(1 0 0 1 2888.38 696)">
   <path d="M23.7793 13.1836L67.2852 13.1836C73.7793 13.1836 77.832 8.88672 77.832 2.05078L77.832-72.7539C77.832-79.5898 73.7793-83.8867 67.2852-83.8867L23.7793-83.8867C16.6504-83.8867 12.207-79.5898 12.207-72.8027L12.207 2.09961C12.207 8.88672 16.6504 13.1836 23.7793 13.1836ZM28.4668-7.32422C27.1973-7.32422 26.3672-8.10547 26.3672-9.375L26.3672-67.6758C26.3672-68.9453 27.1973-69.7266 28.4668-69.7266L61.6211-69.7266C62.8906-69.7266 63.6719-68.8965 63.6719-67.627L63.6719-9.42383C63.6719-8.1543 62.8906-7.32422 61.6211-7.32422Z"/>
  </g>
  <g id="Heavy-S" transform="matrix(1 0 0 1 2592.84 696)">
   <path d="M22.7651 11.4664L65.6948 11.4664C71.3361 11.4664 74.9048 7.72275 74.9048 1.82029L74.9048-72.4888C74.9048-78.3913 71.3361-82.135 65.6948-82.135L22.7651-82.135C16.6504-82.135 12.7833-78.3913 12.7833-72.5261L12.7833 1.8576C12.7833 7.72275 16.6504 11.4664 22.7651 11.4664ZM27.1645-7.01306C26.0218-7.01306 25.2608-7.72516 25.2608-8.87945L25.2608-67.791C25.2608-68.9453 26.0218-69.6574 27.1645-69.6574L60.5493-69.6574C61.7036-69.6574 62.4157-68.908 62.4157-67.7537L62.4157-8.91675C62.4157-7.76247 61.7036-7.01306 60.5493-7.01306Z"/>
  </g>
  <g id="Bold-S" transform="matrix(1 0 0 1 2297.45 696)">
   <path d="M21.6309 9.5459L63.916 9.5459C68.6035 9.5459 71.6309 6.4209 71.6309 1.5625L71.6309-72.1924C71.6309-77.0508 68.6035-80.1758 63.916-80.1758L21.6309-80.1758C16.6504-80.1758 13.4277-77.0508 13.4277-72.2168L13.4277 1.58691C13.4277 6.4209 16.6504 9.5459 21.6309 9.5459ZM25.708-6.66504C24.707-6.66504 24.0234-7.2998 24.0234-8.3252L24.0234-67.9199C24.0234-68.9453 24.707-69.5801 25.708-69.5801L59.3506-69.5801C60.376-69.5801 61.0107-68.9209 61.0107-67.8955L61.0107-8.34961C61.0107-7.32422 60.376-6.66504 59.3506-6.66504Z"/>
  </g>
  <g id="Semibold-S" transform="matrix(1 0 0 1 2001.64 696)">
   <path d="M20.8488 8.22178L62.6896 8.22178C66.7195 8.22178 69.3736 5.52334 69.3736 1.38477L69.3736-71.988C69.3736-76.1266 66.7195-78.825 62.6896-78.825L20.8488-78.825C16.6504-78.825 13.8721-76.1266 13.8721-72.0035L13.8721 1.40029C13.8721 5.52334 16.6504 8.22178 20.8488 8.22178ZM24.7038-6.4251C23.8006-6.4251 23.1703-7.00654 23.1703-7.94307L23.1703-68.0088C23.1703-68.9453 23.8006-69.5268 24.7038-69.5268L58.5241-69.5268C59.4606-69.5268 60.0421-68.9298 60.0421-67.9933L60.0421-7.95859C60.0421-7.02207 59.4606-6.4251 58.5241-6.4251Z"/>
  </g>
  <g id="Medium-S" transform="matrix(1 0 0 1 1705.62 696)">
   <path d="M20.2559 7.21777L61.7598 7.21777C65.291 7.21777 67.6621 4.84277 67.6621 1.25L67.6621-71.833C67.6621-75.4258 65.291-77.8008 61.7598-77.8008L20.2559-77.8008C16.6504-77.8008 14.209-75.4258 14.209-71.8418L14.209 1.25879C14.209 4.84277 16.6504 7.21777 20.2559 7.21777ZM23.9424-6.24316C23.1133-6.24316 22.5234-6.78418 22.5234-7.65332L22.5234-68.0762C22.5234-68.9453 23.1133-69.4863 23.9424-69.4863L57.8975-69.4863C58.7666-69.4863 59.3076-68.9365 59.3076-68.0674L59.3076-7.66211C59.3076-6.79297 58.7666-6.24316 57.8975-6.24316Z"/>
  </g>
  <g id="Regular-S" transform="matrix(1 0 0 1 1409.81 696)">
   <path d="M19.4824 5.9082L60.5469 5.9082C63.4277 5.9082 65.4297 3.95508 65.4297 1.07422L65.4297-71.6309C65.4297-74.5117 63.4277-76.4648 60.5469-76.4648L19.4824-76.4648C16.6504-76.4648 14.6484-74.5117 14.6484-71.6309L14.6484 1.07422C14.6484 3.95508 16.6504 5.9082 19.4824 5.9082ZM22.9492-6.00586C22.2168-6.00586 21.6797-6.49414 21.6797-7.27539L21.6797-68.1641C21.6797-68.9453 22.2168-69.4336 22.9492-69.4336L57.0801-69.4336C57.8613-69.4336 58.3496-68.9453 58.3496-68.1641L58.3496-7.27539C58.3496-6.49414 57.8613-6.00586 57.0801-6.00586Z"/>
  </g>
  <g id="Light-S" transform="matrix(1 0 0 1 1114.55 696)">
   <path d="M19.3008 4.65187L57.8374 4.65187C60.5669 4.65187 62.5235 2.72901 62.5235-0.000479817L62.5235-70.5259C62.5235-73.2857 60.5972-75.1782 57.8374-75.1782L19.3008-75.1782C16.5747-75.1782 14.6484-73.2857 14.6484-70.5259L14.6484-0.000479817C14.6484 2.72901 16.605 4.65187 19.3008 4.65187ZM21.6626-5.64258C20.7637-5.64258 20.0752-6.3125 20.0752-7.24512L20.0752-68.1641C20.0752-69.127 20.7334-69.7515 21.6626-69.7515L55.4756-69.7515C56.4385-69.7515 57.063-69.127 57.063-68.1641L57.063-7.24512C57.063-6.3125 56.4082-5.64258 55.4756-5.64258Z"/>
  </g>
  <g id="Thin-S" transform="matrix(1 0 0 1 819.758 696)">
   <path d="M19.0606 2.99026L54.254 2.99026C56.7833 2.99026 58.6797 1.10744 58.6797-1.42186L58.6797-69.0645C58.6797-71.6641 56.8536-73.4766 54.254-73.4766L19.0606-73.4766C16.4746-73.4766 14.6484-71.6641 14.6484-69.0645L14.6484-1.42186C14.6484 1.10744 16.5449 2.99026 19.0606 2.99026ZM19.961-5.16212C18.8418-5.16212 17.9532-6.07227 17.9532-7.20508L17.9532-68.1641C17.9532-69.3672 18.7715-70.1719 19.961-70.1719L53.3535-70.1719C54.5567-70.1719 55.3614-69.3672 55.3614-68.1641L55.3614-7.20508C55.3614-6.07227 54.4864-5.16212 53.3535-5.16212Z"/>
  </g>
  <g id="Ultralight-S" transform="matrix(1 0 0 1 524.031 696)">
   <path d="M18.9375 2.13919L52.4185 2.13919C54.8453 2.13919 56.711 0.276884 56.711-2.14988L56.711-68.3159C56.711-70.8335 54.9361-72.605 52.4185-72.605L18.9375-72.605C16.4233-72.605 14.6484-70.8335 14.6484-68.3159L14.6484-2.14988C14.6484 0.276884 16.5142 2.13919 18.9375 2.13919ZM19.0894-4.91602C17.8575-4.91602 16.8662-5.94922 16.8662-7.18457L16.8662-68.1641C16.8662-69.4902 17.7666-70.3872 19.0894-70.3872L52.2666-70.3872C53.5928-70.3872 54.4898-69.4902 54.4898-68.1641L54.4898-7.18457C54.4898-5.94922 53.502-4.91602 52.2666-4.91602Z"/>
  </g>
 </g>
</svg>
