<?xml version="1.0" encoding="UTF-8"?>
<!--Generator: Apple Native CoreSVG 341-->
<!DOCTYPE svg
PUBLIC "-//W3C//DTD SVG 1.1//EN"
       "http://www.w3.org/Graphics/SVG/1.1/DTD/svg11.dtd">
<svg version="1.1" xmlns="http://www.w3.org/2000/svg" xmlns:xlink="http://www.w3.org/1999/xlink" viewBox="0 0 3300 2200">
 <g id="Notes">
  <rect height="2200" id="artboard" style="fill:white;opacity:1" width="3300" x="0" y="0"/>
  <line style="fill:none;stroke:black;opacity:1;stroke-width:0.5;" x1="263" x2="3036" y1="292" y2="292"/>
  <text style="stroke:none;fill:black;font-family:sans-serif;font-size:13;font-weight:bold;" transform="matrix(1 0 0 1 263 322)">Weight/Scale Variations</text>
  <text style="stroke:none;fill:black;font-family:sans-serif;font-size:13;text-anchor:middle;" transform="matrix(1 0 0 1 559.711 322)">Ultralight</text>
  <text style="stroke:none;fill:black;font-family:sans-serif;font-size:13;text-anchor:middle;" transform="matrix(1 0 0 1 856.422 322)">Thin</text>
  <text style="stroke:none;fill:black;font-family:sans-serif;font-size:13;text-anchor:middle;" transform="matrix(1 0 0 1 1153.13 322)">Light</text>
  <text style="stroke:none;fill:black;font-family:sans-serif;font-size:13;text-anchor:middle;" transform="matrix(1 0 0 1 1449.84 322)">Regular</text>
  <text style="stroke:none;fill:black;font-family:sans-serif;font-size:13;text-anchor:middle;" transform="matrix(1 0 0 1 1746.56 322)">Medium</text>
  <text style="stroke:none;fill:black;font-family:sans-serif;font-size:13;text-anchor:middle;" transform="matrix(1 0 0 1 2043.27 322)">Semibold</text>
  <text style="stroke:none;fill:black;font-family:sans-serif;font-size:13;text-anchor:middle;" transform="matrix(1 0 0 1 2339.98 322)">Bold</text>
  <text style="stroke:none;fill:black;font-family:sans-serif;font-size:13;text-anchor:middle;" transform="matrix(1 0 0 1 2636.69 322)">Heavy</text>
  <text style="stroke:none;fill:black;font-family:sans-serif;font-size:13;text-anchor:middle;" transform="matrix(1 0 0 1 2933.4 322)">Black</text>
  <line style="fill:none;stroke:black;opacity:1;stroke-width:0.5;" x1="263" x2="3036" y1="1903" y2="1903"/>
  <g transform="matrix(0.2 0 0 0.2 263 1933)">
   <path d="m46.2402 4.15039c21.7773 0 39.4531-17.627 39.4531-39.4043s-17.6758-39.4043-39.4531-39.4043c-21.7285 0-39.4043 17.627-39.4043 39.4043s17.6758 39.4043 39.4043 39.4043Zm0-7.42188c-17.6758 0-31.9336-14.3066-31.9336-31.9824s14.2578-31.9824 31.9336-31.9824 31.9824 14.3066 31.9824 31.9824-14.3066 31.9824-31.9824 31.9824Zm3.61328-17.7734v-28.4668c0-2.24609-1.46484-3.75977-3.71094-3.75977-2.14844 0-3.61328 1.51367-3.61328 3.75977v28.4668c0 2.19727 1.46484 3.71094 3.61328 3.71094 2.24609 0 3.71094-1.51367 3.71094-3.71094Zm-17.8223-10.5957h28.418c2.19727 0 3.71094-1.46484 3.71094-3.61328 0-2.19727-1.51367-3.71094-3.71094-3.71094h-28.418c-2.24609 0-3.75977 1.51367-3.75977 3.71094 0 2.14844 1.51367 3.61328 3.75977 3.61328Z"/>
  </g>
  <g transform="matrix(0.2 0 0 0.2 281.506 1933)">
   <path d="m58.5449 14.5508c27.4902 0 49.8047-22.3145 49.8047-49.8047s-22.3145-49.8047-49.8047-49.8047-49.8047 22.3145-49.8047 49.8047 22.3145 49.8047 49.8047 49.8047Zm0-8.30078c-22.9492 0-41.5039-18.5547-41.5039-41.5039s18.5547-41.5039 41.5039-41.5039 41.5039 18.5547 41.5039 41.5039-18.5547 41.5039-41.5039 41.5039Zm4.05273-23.0957v-36.9141c0-2.49023-1.70898-4.19922-4.15039-4.19922-2.39258 0-4.05273 1.70898-4.05273 4.19922v36.9141c0 2.44141 1.66016 4.15039 4.05273 4.15039 2.44141 0 4.15039-1.66016 4.15039-4.15039Zm-22.5586-14.4043h36.9629c2.44141 0 4.15039-1.61133 4.15039-4.00391 0-2.44141-1.70898-4.15039-4.15039-4.15039h-36.9629c-2.49023 0-4.15039 1.70898-4.15039 4.15039 0 2.39258 1.66016 4.00391 4.15039 4.00391Z"/>
  </g>
  <g transform="matrix(0.2 0 0 0.2 304.924 1933)">
   <path d="m74.8535 28.3203c35.1074 0 63.623-28.4668 63.623-63.5742s-28.5156-63.623-63.623-63.623-63.5742 28.5156-63.5742 63.623 28.4668 63.5742 63.5742 63.5742Zm0-9.08203c-30.127 0-54.4922-24.3652-54.4922-54.4922s24.3652-54.4922 54.4922-54.4922 54.4922 24.3652 54.4922 54.4922-24.3652 54.4922-54.4922 54.4922Zm4.44336-30.3223v-48.4863c0-2.73438-1.85547-4.63867-4.54102-4.63867-2.58789 0-4.44336 1.9043-4.44336 4.63867v48.4863c0 2.68555 1.85547 4.58984 4.44336 4.58984 2.68555 0 4.54102-1.85547 4.54102-4.58984Zm-28.7109-19.7754h48.4863c2.68555 0 4.58984-1.80664 4.58984-4.39453 0-2.73438-1.85547-4.58984-4.58984-4.58984h-48.4863c-2.73438 0-4.58984 1.85547-4.58984 4.58984 0 2.58789 1.85547 4.39453 4.58984 4.39453Z"/>
  </g>
  <text style="stroke:none;fill:black;font-family:sans-serif;font-size:13;font-weight:bold;" transform="matrix(1 0 0 1 263 1953)">Design Variations</text>
  <text style="stroke:none;fill:black;font-family:sans-serif;font-size:13;" transform="matrix(1 0 0 1 263 1971)">Symbols are supported in up to nine weights and three scales.</text>
  <text style="stroke:none;fill:black;font-family:sans-serif;font-size:13;" transform="matrix(1 0 0 1 263 1989)">For optimal layout with text and other symbols, vertically align</text>
  <text style="stroke:none;fill:black;font-family:sans-serif;font-size:13;" transform="matrix(1 0 0 1 263 2007)">symbols with the adjacent text.</text>
  <line style="fill:none;stroke:#00AEEF;stroke-width:0.5;opacity:1.0;" x1="776" x2="776" y1="1919" y2="1933"/>
  <g transform="matrix(0.2 0 0 0.2 776 1933)">
   <path d="m16.5527 0.78125c2.58789 0 3.85742-0.976562 4.78516-3.71094l20.5566-57.5195h0.244141l20.6055 57.5195c0.927734 2.73438 2.19727 3.71094 4.73633 3.71094 2.58789 0 4.24805-1.5625 4.24805-4.00391 0-0.830078-0.146484-1.61133-0.537109-2.63672l-22.9004-60.9863c-1.12305-2.97852-3.125-4.49219-6.25-4.49219-3.02734 0-5.07812 1.46484-6.15234 4.44336l-22.9004 61.084c-0.390625 1.02539-0.537109 1.80664-0.537109 2.63672 0 2.44141 1.5625 3.95508 4.10156 3.95508Zm10.2051-20.9473h30.6641c2.00195 0 3.66211-1.66016 3.66211-3.66211 0-2.05078-1.66016-3.66211-3.66211-3.66211h-30.6641c-2.00195 0-3.66211 1.61133-3.66211 3.66211 0 2.00195 1.66016 3.66211 3.66211 3.66211Z"/>
  </g>
  <line style="fill:none;stroke:#00AEEF;stroke-width:0.5;opacity:1.0;" x1="792.836" x2="792.836" y1="1919" y2="1933"/>
  <text style="stroke:none;fill:black;font-family:sans-serif;font-size:13;font-weight:bold;" transform="matrix(1 0 0 1 776 1953)">Margins</text>
  <text style="stroke:none;fill:black;font-family:sans-serif;font-size:13;" transform="matrix(1 0 0 1 776 1971)">Leading and trailing margins on the left and right side of each symbol</text>
  <text style="stroke:none;fill:black;font-family:sans-serif;font-size:13;" transform="matrix(1 0 0 1 776 1989)">can be adjusted by modifying the x-location of the margin guidelines.</text>
  <text style="stroke:none;fill:black;font-family:sans-serif;font-size:13;" transform="matrix(1 0 0 1 776 2007)">Modifications are automatically applied proportionally to all</text>
  <text style="stroke:none;fill:black;font-family:sans-serif;font-size:13;" transform="matrix(1 0 0 1 776 2025)">scales and weights.</text>
  <g transform="matrix(0.2 0 0 0.2 1289 1933)">
   <path d="m14.209 13.1348 7.86133 7.86133c4.29688 4.39453 9.32617 4.10156 13.8672-1.02539l60.6934-68.2129-4.88281-4.88281-60.2539 67.6758c-1.80664 1.95312-3.4668 2.44141-5.81055 0.0976562l-5.17578-5.12695c-2.29492-2.29492-1.80664-3.95508 0.195312-5.81055l67.4805-62.1582-4.88281-4.83398-68.0664 62.5977c-4.98047 4.58984-5.32227 9.47266-1.02539 13.8184Zm44.873-97.4609c-2.05078 2.00195-2.24609 4.88281-1.07422 6.78711 1.12305 1.80664 3.4668 3.02734 6.5918 2.24609 5.85938-1.66016 12.5977-2.39258 18.8965 0.927734l-2.68555 7.12891c-1.61133 4.00391-0.732422 6.88477 1.70898 9.42383l10.2539 10.3027c2.34375 2.39258 4.54102 2.44141 7.08008 1.95312l4.44336-0.732422 2.58789 2.53906-0.195312 2.24609c-0.0976562 2.29492 0.537109 4.29688 2.7832 6.49414l3.36914 3.32031c2.29492 2.29492 5.51758 2.49023 7.8125 0.195312l12.9883-13.0371c2.29492-2.34375 2.14844-5.37109-0.195312-7.66602l-3.41797-3.41797c-2.19727-2.19727-4.05273-3.02734-6.34766-2.88086l-2.34375 0.244141-2.44141-2.44141 1.02539-4.6875c0.634766-2.73438-0.244141-4.98047-2.88086-7.61719l-11.2793-11.1816c-12.9395-12.8418-35.5957-11.0352-46.6797-0.146484Zm7.08008 2.05078c8.78906-6.39648 25.9766-5.66406 33.6914 1.95312l12.3047 12.207c1.02539 1.02539 1.2207 1.80664 0.927734 3.32031l-1.46484 6.64062 6.73828 6.68945 4.39453-0.244141c1.12305-0.0488281 1.51367 0.0488281 2.34375 0.878906l2.53906 2.49023-10.8398 10.8398-2.49023-2.49023c-0.830078-0.878906-0.976562-1.2207-0.927734-2.39258l0.292969-4.3457-6.68945-6.73828-6.83594 1.17188c-1.41602 0.292969-2.05078 0.195312-3.17383-0.878906l-8.93555-8.88672c-1.07422-1.02539-1.17188-1.70898-0.488281-3.36914l4.58984-11.4746c-6.10352-6.34766-17.041-7.51953-25.5859-4.58984-0.683594 0.244141-0.927734-0.390625-0.390625-0.78125Z"/>
  </g>
  <text style="stroke:none;fill:black;font-family:sans-serif;font-size:13;font-weight:bold;" transform="matrix(1 0 0 1 1289 1953)">Exporting</text>
  <text style="stroke:none;fill:black;font-family:sans-serif;font-size:13;" transform="matrix(1 0 0 1 1289 1971)">Symbols should be outlined when exporting to ensure the</text>
  <text style="stroke:none;fill:black;font-family:sans-serif;font-size:13;" transform="matrix(1 0 0 1 1289 1989)">design is preserved when submitting to Xcode.</text>
  <text id="template-version" style="stroke:none;fill:black;font-family:sans-serif;font-size:13;text-anchor:end;" transform="matrix(1 0 0 1 3036 1933)">Template v.2.0</text>
  <text style="stroke:none;fill:black;font-family:sans-serif;font-size:13;text-anchor:end;" transform="matrix(1 0 0 1 3036 1951)">Requires Xcode 12 or greater</text>
  <text id="descriptive-name" style="stroke:none;fill:black;font-family:sans-serif;font-size:13;text-anchor:end;" transform="matrix(1 0 0 1 3036 1969)">Generated from chevron.up.chevron.down</text>
  <text style="stroke:none;fill:black;font-family:sans-serif;font-size:13;text-anchor:end;" transform="matrix(1 0 0 1 3036 1987)">Typeset at 100.0 points</text>
  <text style="stroke:none;fill:black;font-family:sans-serif;font-size:13;" transform="matrix(1 0 0 1 263 726)">Small</text>
  <text style="stroke:none;fill:black;font-family:sans-serif;font-size:13;" transform="matrix(1 0 0 1 263 1156)">Medium</text>
  <text style="stroke:none;fill:black;font-family:sans-serif;font-size:13;" transform="matrix(1 0 0 1 263 1586)">Large</text>
 </g>
 <g id="Guides">
  <g id="H-reference" style="fill:#27AAE1;stroke:none;" transform="matrix(1 0 0 1 339 696)">
   <path d="M0.993654 0L3.63775 0L29.3281-67.1323L30.0303-67.1323L30.0303-70.459L28.1226-70.459ZM11.6885-24.4799L46.9815-24.4799L46.2315-26.7285L12.4385-26.7285ZM55.1196 0L57.7637 0L30.6382-70.459L29.4326-70.459L29.4326-67.1323Z"/>
  </g>
  <line id="Baseline-S" style="fill:none;stroke:#27AAE1;opacity:1;stroke-width:0.5;" x1="263" x2="3036" y1="696" y2="696"/>
  <line id="Capline-S" style="fill:none;stroke:#27AAE1;opacity:1;stroke-width:0.5;" x1="263" x2="3036" y1="625.541" y2="625.541"/>
  <g id="H-reference" style="fill:#27AAE1;stroke:none;" transform="matrix(1 0 0 1 339 1126)">
   <path d="M0.993654 0L3.63775 0L29.3281-67.1323L30.0303-67.1323L30.0303-70.459L28.1226-70.459ZM11.6885-24.4799L46.9815-24.4799L46.2315-26.7285L12.4385-26.7285ZM55.1196 0L57.7637 0L30.6382-70.459L29.4326-70.459L29.4326-67.1323Z"/>
  </g>
  <line id="Baseline-M" style="fill:none;stroke:#27AAE1;opacity:1;stroke-width:0.5;" x1="263" x2="3036" y1="1126" y2="1126"/>
  <line id="Capline-M" style="fill:none;stroke:#27AAE1;opacity:1;stroke-width:0.5;" x1="263" x2="3036" y1="1055.54" y2="1055.54"/>
  <g id="H-reference" style="fill:#27AAE1;stroke:none;" transform="matrix(1 0 0 1 339 1556)">
   <path d="M0.993654 0L3.63775 0L29.3281-67.1323L30.0303-67.1323L30.0303-70.459L28.1226-70.459ZM11.6885-24.4799L46.9815-24.4799L46.2315-26.7285L12.4385-26.7285ZM55.1196 0L57.7637 0L30.6382-70.459L29.4326-70.459L29.4326-67.1323Z"/>
  </g>
  <line id="Baseline-L" style="fill:none;stroke:#27AAE1;opacity:1;stroke-width:0.5;" x1="263" x2="3036" y1="1556" y2="1556"/>
  <line id="Capline-L" style="fill:none;stroke:#27AAE1;opacity:1;stroke-width:0.5;" x1="263" x2="3036" y1="1485.54" y2="1485.54"/>
  <line id="right-margin" style="fill:none;stroke:#00AEEF;stroke-width:0.5;opacity:1.0;" x1="1494.79" x2="1494.79" y1="1030.79" y2="1150.12"/>
  <line id="left-margin" style="fill:none;stroke:#00AEEF;stroke-width:0.5;opacity:1.0;" x1="1404.9" x2="1404.9" y1="1030.79" y2="1150.12"/>
 </g>
 <g id="Symbols">
  <g id="Black-L" transform="matrix(1 0 0 1 2866.51 1556)">
   <path d="M66.8962-106.895C62.8439-106.895 59.5572-105.241 56.2174-102.018L20.8944-68.1187C18.1052-65.4255 16.084-62.1828 16.084-58.6945C16.084-51.1626 22.45-45.9659 28.6981-45.9659C31.9604-45.9659 35.325-47.0069 38.0044-49.6266L66.8962-77.8727L95.7672-49.6266C98.4466-47.0265 101.831-45.9659 105.094-45.9659C111.341-45.9659 117.688-51.1626 117.688-58.6945C117.688-62.1828 115.687-65.4255 112.877-68.1187L77.575-102.018C74.2132-105.241 70.9278-106.895 66.8962-106.895ZM66.8962 36.3552C70.9278 36.3552 74.2132 34.7017 77.575 31.4787L112.877-2.42066C115.687-5.11395 117.688-8.35656 117.688-11.8449C117.688-19.3768 111.341-24.5735 105.094-24.5735C101.831-24.5735 98.4466-23.5129 95.7672-20.9128L66.8962 7.33329L38.0044-20.9128C35.325-23.5325 31.9604-24.5735 28.6981-24.5735C22.45-24.5735 16.084-19.3768 16.084-11.8449C16.084-8.35656 18.1052-5.11395 20.8944-2.42066L56.2174 31.4787C59.5572 34.7017 62.8439 36.3552 66.8962 36.3552Z"/>
  </g>
  <g id="Heavy-L" transform="matrix(1 0 0 1 2571.91 1556)">
   <path d="M64.7977-104.251C61.331-104.251 58.5015-102.836 55.6789-100.103L20.1252-65.9785C17.7804-63.6927 16.084-60.9348 16.084-57.8606C16.084-51.3881 21.4993-46.8708 26.9957-46.8708C29.7782-46.8708 32.6769-47.7469 35.0187-50.0386L64.7977-79.1629L94.5465-50.0386C96.8883-47.7715 99.8116-46.8708 102.6-46.8708C108.091-46.8708 113.481-51.3881 113.481-57.8606C113.481-60.9348 111.815-63.6927 109.44-65.9785L73.9165-100.103C71.0581-102.836 68.2343-104.251 64.7977-104.251ZM64.7977 33.7117C68.2343 33.7117 71.0581 32.2965 73.9165 29.5631L109.44-4.56095C111.815-6.84674 113.481-9.60463 113.481-12.6788C113.481-19.1513 108.091-23.6686 102.6-23.6686C99.8116-23.6686 96.8883-22.7679 94.5465-20.5009L64.7977 8.62354L35.0187-20.5009C32.6769-22.7925 29.7782-23.6686 26.9957-23.6686C21.4993-23.6686 16.084-19.1513 16.084-12.6788C16.084-9.60463 17.7804-6.84674 20.1252-4.56095L55.6789 29.5631C58.5015 32.2965 61.331 33.7117 64.7977 33.7117Z"/>
  </g>
  <g id="Bold-L" transform="matrix(1 0 0 1 2277.57 1556)">
   <path d="M62.4315-101.179C59.6573-101.179 57.374-100.041 55.1595-97.8847L19.2246-63.3647C17.3956-61.5562 16.084-59.3754 16.084-56.8234C16.084-51.635 20.3609-47.9554 24.92-47.9554C27.1257-47.9554 29.4629-48.639 31.3898-50.5234L62.4315-80.8953L93.4352-50.5234C95.3621-48.6638 97.7241-47.9554 99.9429-47.9554C104.489-47.9554 108.741-51.635 108.741-56.8234C108.741-59.3754 107.467-61.5562 105.6-63.3647L69.7035-97.8847C67.4377-100.041 65.1677-101.179 62.4315-101.179ZM62.4315 30.6396C65.1677 30.6396 67.4377 29.5015 69.7035 27.3453L105.6-7.17466C107.467-8.98318 108.741-11.1641 108.741-13.716C108.741-18.9044 104.489-22.584 99.9429-22.584C97.7241-22.584 95.3621-21.8756 93.4352-20.016L62.4315 10.3559L31.3898-20.016C29.4629-21.9004 27.1257-22.584 24.92-22.584C20.3609-22.584 16.084-18.9044 16.084-13.716C16.084-11.1641 17.3956-8.98318 19.2246-7.17466L55.1595 27.3453C57.374 29.5015 59.6573 30.6396 62.4315 30.6396Z"/>
  </g>
  <g id="Semibold-L" transform="matrix(1 0 0 1 1982.49 1556)">
   <path d="M60.8002-99.061C58.5035-99.061 56.5968-98.114 54.8014-96.3558L18.6037-61.5629C17.1304-60.0834 16.084-58.3003 16.084-56.1084C16.084-51.8052 19.576-48.7031 23.4891-48.7031C25.297-48.7031 27.2473-49.2541 28.888-50.8577L60.8002-82.0896L92.6691-50.8577C94.3098-49.2789 96.2849-48.7031 98.1114-48.7031C102.006-48.7031 105.473-51.8052 105.473-56.1084C105.473-58.3003 104.47-60.0834 102.953-61.5629L66.799-96.3558C64.9418-98.114 63.0536-99.061 60.8002-99.061ZM60.8002 28.5216C63.0536 28.5216 64.9418 27.5746 66.799 25.8164L102.953-8.97653C104.47-10.456 105.473-12.2391 105.473-14.431C105.473-18.7342 102.006-21.8363 98.1114-21.8363C96.2849-21.8363 94.3098-21.2605 92.6691-19.6817L60.8002 11.5502L28.888-19.6817C27.2473-21.2854 25.297-21.8363 23.4891-21.8363C19.576-21.8363 16.084-18.7342 16.084-14.431C16.084-12.2391 17.1304-10.456 18.6037-8.97653L54.8014 25.8164C56.5968 27.5746 58.5035 28.5216 60.8002 28.5216Z"/>
  </g>
  <g id="Medium-L" transform="matrix(1 0 0 1 1687.02 1556)">
   <path d="M59.5633-97.4551C57.6287-97.4551 56.0074-96.653 54.5299-95.1965L18.1329-60.1966C16.9293-58.9666 16.084-57.4851 16.084-55.5662C16.084-51.9342 18.9809-49.27 22.4041-49.27C23.9105-49.27 25.5672-49.7204 26.991-51.1112L59.5633-82.9952L92.0882-51.1112C93.512-49.7454 95.1937-49.27 96.7226-49.27C100.123-49.27 102.995-51.9342 102.995-55.5662C102.995-57.4851 102.197-58.9666 100.946-60.1966L64.5968-95.1965C63.0494-96.653 61.4506-97.4551 59.5633-97.4551ZM59.5633 26.9157C61.4506 26.9157 63.0494 26.1136 64.5968 24.6571L100.946-10.3428C102.197-11.5728 102.995-13.0543 102.995-14.9732C102.995-18.6052 100.123-21.2694 96.7226-21.2694C95.1937-21.2694 93.512-20.794 92.0882-19.4282L59.5633 12.4558L26.991-19.4282C25.5672-20.819 23.9105-21.2694 22.4041-21.2694C18.9809-21.2694 16.084-18.6052 16.084-14.9732C16.084-13.0543 16.9293-11.5728 18.1329-10.3428L54.5299 24.6571C56.0074 26.1136 57.6287 26.9157 59.5633 26.9157Z"/>
  </g>
  <g id="Regular-L" transform="matrix(1 0 0 1 1391.92 1556)">
   <path d="M57.95-95.3604C56.4875-95.3604 55.2387-94.7473 54.1758-93.6844L17.5188-58.4146C16.6669-57.5099 16.084-56.4219 16.084-54.859C16.084-52.1026 18.2047-50.0095 20.9888-50.0095C22.1019-50.0095 23.3759-50.3286 24.5167-51.4418L57.95-84.1764L91.3306-51.4418C92.4713-50.3537 93.7704-50.0095 94.9112-50.0095C97.6676-50.0095 99.7633-52.1026 99.7633-54.859C99.7633-56.4219 99.2331-57.5099 98.3285-58.4146L61.7242-93.6844C60.5809-94.7473 59.3597-95.3604 57.95-95.3604ZM57.95 24.821C59.3597 24.821 60.5809 24.2079 61.7242 23.145L98.3285-12.1249C99.2331-13.0295 99.7633-14.1175 99.7633-15.6804C99.7633-18.4368 97.6676-20.5299 94.9112-20.5299C93.7704-20.5299 92.4713-20.1857 91.3306-19.0976L57.95 13.637L24.5167-19.0976C23.3759-20.2108 22.1019-20.5299 20.9888-20.5299C18.2047-20.5299 16.084-18.4368 16.084-15.6804C16.084-14.1175 16.6669-13.0295 17.5188-12.1249L54.1758 23.145C55.2387 24.2079 56.4875 24.821 57.95 24.821Z"/>
  </g>
  <g id="Light-L" transform="matrix(1 0 0 1 1095.33 1556)">
   <path d="M57.8164-94.5398C56.6211-94.5398 55.6204-94.003 54.7674-93.15L17.2325-56.8496C16.5142-56.0976 16.084-55.2577 16.084-54.1147C16.084-52.0644 17.6703-50.5248 19.7674-50.5248C20.5942-50.5248 21.5819-50.7867 22.4555-51.6135L57.8164-86.2376L93.1437-51.6135C94.0173-50.7736 94.9919-50.5248 95.8655-50.5248C97.9158-50.5248 99.5152-52.0644 99.5152-54.1147C99.5152-55.2577 99.1186-56.0976 98.3666-56.8496L60.8654-93.15C59.932-94.003 58.978-94.5398 57.8164-94.5398ZM57.8164 24.0004C58.978 24.0004 59.932 23.4636 60.8654 22.6106L98.3666-13.6898C99.1186-14.4418 99.5152-15.2817 99.5152-16.4247C99.5152-18.475 97.9158-20.0146 95.8655-20.0146C94.9919-20.0146 94.0173-19.7658 93.1437-18.9259L57.8164 15.6982L22.4555-18.9259C21.5819-19.7527 20.5942-20.0146 19.7674-20.0146C17.6703-20.0146 16.084-18.475 16.084-16.4247C16.084-15.2817 16.5142-14.4418 17.2325-13.6898L54.7674 22.6106C55.6204 23.4636 56.6211 24.0004 57.8164 24.0004Z"/>
  </g>
  <g id="Thin-L" transform="matrix(1 0 0 1 798.787 1556)">
   <path d="M57.6397-93.4544C56.7978-93.4544 56.1252-93.0185 55.5499-92.4432L16.8539-54.7797C16.3123-54.2297 16.084-53.718 16.084-53.1303C16.084-52.0139 16.9636-51.2063 18.1519-51.2063C18.6001-51.2063 19.2092-51.3925 19.7294-51.8407L57.6397-88.9637L95.5416-51.8407C96.0618-51.3289 96.6074-51.2063 97.1276-51.2063C98.2439-51.2063 99.187-52.0139 99.187-53.1303C99.187-53.718 98.9671-54.2297 98.4171-54.7797L59.7295-92.4432C59.0738-93.0185 58.4732-93.4544 57.6397-93.4544ZM57.6397 22.915C58.4732 22.915 59.0738 22.4791 59.7295 21.9038L98.4171-15.7597C98.9671-16.3097 99.187-16.8215 99.187-17.4091C99.187-18.5255 98.2439-19.3331 97.1276-19.3331C96.6074-19.3331 96.0618-19.2105 95.5416-18.6987L57.6397 18.4243L19.7294-18.6987C19.2092-19.1469 18.6001-19.3331 18.1519-19.3331C16.9636-19.3331 16.084-18.5255 16.084-17.4091C16.084-16.8215 16.3123-16.3097 16.8539-15.7597L55.5499 21.9038C56.1252 22.4791 56.7978 22.915 57.6397 22.915Z"/>
  </g>
  <g id="Ultralight-L" transform="matrix(1 0 0 1 502.16 1556)">
   <path d="M57.5492-92.8984C56.8883-92.8984 56.3838-92.5143 55.9507-92.0812L16.66-53.7196C16.2089-53.273 16.084-52.9293 16.084-52.626C16.084-51.9881 16.6016-51.5554 17.3244-51.5554C17.5787-51.5554 17.9939-51.7028 18.3331-51.9571L57.5492-90.36L96.7699-51.9571C97.1091-51.6134 97.4348-51.5554 97.774-51.5554C98.412-51.5554 99.0189-51.9881 99.0189-52.626C99.0189-52.9293 98.8895-53.273 98.443-53.7196L59.1477-92.0812C58.6342-92.5143 58.2146-92.8984 57.5492-92.8984ZM57.5492 22.359C58.2146 22.359 58.6342 21.9749 59.1477 21.5418L98.443-16.8198C98.8895-17.2664 99.0189-17.6101 99.0189-17.9134C99.0189-18.5513 98.412-18.984 97.774-18.984C97.4348-18.984 97.1091-18.926 96.7699-18.5823L57.5492 19.8206L18.3331-18.5823C17.9939-18.8366 17.5787-18.984 17.3244-18.984C16.6016-18.984 16.084-18.5513 16.084-17.9134C16.084-17.6101 16.2089-17.2664 16.66-16.8198L55.9507 21.5418C56.3838 21.9749 56.8883 22.359 57.5492 22.359Z"/>
  </g>
  <g id="Black-M" transform="matrix(1 0 0 1 2879.79 1126)">
   <path d="M53.6127-92.9121C50.0061-92.9121 47.1005-91.4367 44.097-88.5473L16.8101-62.3376C14.2853-59.9214 12.4609-57.0263 12.4609-54.0246C12.4609-47.3746 18.1376-42.8395 23.5313-42.8395C26.4322-42.8395 29.4006-43.78 31.7303-46.0528L53.6127-67.4374L75.4896-46.0528C77.8193-43.7857 80.7935-42.8395 83.6942-42.8395C89.0881-42.8395 94.759-47.3746 94.759-54.0246C94.759-57.0263 92.9402-59.9214 90.4099-62.3376L63.1285-88.5473C60.1197-91.4367 57.2139-92.9121 53.6127-92.9121ZM53.6127 22.3908C57.2139 22.3908 60.1197 20.9154 63.1285 18.0261L90.4099-8.18372C92.9402-10.5999 94.759-13.495 94.759-16.4967C94.759-23.1467 89.0881-27.6818 83.6942-27.6818C80.7935-27.6818 77.8193-26.7356 75.4896-24.4685L53.6127-3.08392L31.7303-24.4685C29.4006-26.7413 26.4322-27.6818 23.5313-27.6818C18.1376-27.6818 12.4609-23.1467 12.4609-16.4967C12.4609-13.495 14.2853-10.5999 16.8101-8.18372L44.097 18.0261C47.1005 20.9154 50.0061 22.3908 53.6127 22.3908Z"/>
  </g>
  <g id="Heavy-M" transform="matrix(1 0 0 1 2585.12 1126)">
   <path d="M51.5736-90.4037C48.5148-90.4037 46.0333-89.1541 43.516-86.724L16.0845-60.3897C13.9818-58.3578 12.4609-55.9136 12.4609-53.2781C12.4609-47.5985 17.2575-43.6766 21.9797-43.6766C24.4381-43.6766 26.9774-44.4612 29.0018-46.4397L51.5736-68.5085L74.1291-46.4397C76.1534-44.4753 78.7069-43.6766 81.1675-43.6766C85.8874-43.6766 90.6699-47.5985 90.6699-53.2781C90.6699-55.9136 89.1654-58.3578 87.0463-60.3897L59.6313-86.724C57.0953-89.1541 54.616-90.4037 51.5736-90.4037ZM51.5736 19.8824C54.616 19.8824 57.0953 18.6328 59.6313 16.2027L87.0463-10.1316C89.1654-12.1635 90.6699-14.6077 90.6699-17.2432C90.6699-22.9228 85.8874-26.8447 81.1675-26.8447C78.7069-26.8447 76.1534-26.046 74.1291-24.0816L51.5736-2.01277L29.0018-24.0816C26.9774-26.0601 24.4381-26.8447 21.9797-26.8447C17.2575-26.8447 12.4609-22.9228 12.4609-17.2432C12.4609-14.6077 13.9818-12.1635 16.0845-10.1316L43.516 16.2027C46.0333 18.6328 48.5148 19.8824 51.5736 19.8824Z"/>
  </g>
  <g id="Bold-M" transform="matrix(1 0 0 1 2290.7 1126)">
   <path d="M49.2926-87.5976C46.8466-87.5976 44.8394-86.6007 42.866-84.6844L15.2729-58.2107C13.6424-56.6087 12.4609-54.6689 12.4609-52.443C12.4609-47.849 16.273-44.613 20.2441-44.613C22.2073-44.613 24.2666-45.2232 25.9495-46.8724L49.2926-69.7067L72.607-46.8724C74.2899-45.2467 76.3727-44.613 78.341-44.613C82.307-44.613 86.0956-47.849 86.0956-52.443C86.0956-54.6689 84.9427-56.6087 83.2836-58.2107L55.7191-84.6844C53.712-86.6007 51.7099-87.5976 49.2926-87.5976ZM49.2926 17.0763C51.7099 17.0763 53.712 16.0794 55.7191 14.1631L83.2836-12.3106C84.9427-13.9126 86.0956-15.8524 86.0956-18.0783C86.0956-22.6722 82.307-25.9083 78.341-25.9083C76.3727-25.9083 74.2899-25.2746 72.607-23.6489L49.2926-0.81454L25.9495-23.6489C24.2666-25.2981 22.2073-25.9083 20.2441-25.9083C16.273-25.9083 12.4609-22.6722 12.4609-18.0783C12.4609-15.8524 13.6424-13.9126 15.2729-12.3106L42.866 14.1631C44.8394 16.0794 46.8466 17.0763 49.2926 17.0763Z"/>
  </g>
  <g id="Semibold-M" transform="matrix(1 0 0 1 1995.57 1126)">
   <path d="M47.72-85.6631C45.6966-85.6631 44.0163-84.8403 42.418-83.2783L14.7133-56.7085C13.4084-55.4028 12.4609-53.8108 12.4609-51.8673C12.4609-48.0218 15.5943-45.2586 19.0476-45.2586C20.6695-45.2586 22.3978-45.7485 23.8453-47.1707L47.72-70.5328L71.5578-47.1707C73.0052-45.7785 74.7635-45.2586 76.3925-45.2586C79.8386-45.2586 82.9421-48.0218 82.9421-51.8673C82.9421-53.8108 82.0317-55.4028 80.6897-56.7085L53.0221-83.2783C51.3796-84.8403 49.7065-85.6631 47.72-85.6631ZM47.72 15.1419C49.7065 15.1419 51.3796 14.319 53.0221 12.757L80.6897-13.8128C82.0317-15.1185 82.9421-16.7104 82.9421-18.6539C82.9421-22.4995 79.8386-25.2627 76.3925-25.2627C74.7635-25.2627 73.0052-24.7428 71.5578-23.3506L47.72 0.0115161L23.8453-23.3506C22.3978-24.7728 20.6695-25.2627 19.0476-25.2627C15.5943-25.2627 12.4609-22.4995 12.4609-18.6539C12.4609-16.7104 13.4084-15.1185 14.7133-13.8128L42.418 12.757C44.0163 14.319 45.6966 15.1419 47.72 15.1419Z"/>
  </g>
  <g id="Medium-M" transform="matrix(1 0 0 1 1700.05 1126)">
   <path d="M46.5277-84.1963C44.8246-84.1963 43.3922-83.5056 42.0782-82.2121L14.2891-55.5694C13.231-54.4885 12.4609-53.1602 12.4609-51.4308C12.4609-48.1527 15.0797-45.7481 18.1403-45.7481C19.5034-45.7481 20.9809-46.1468 22.2498-47.3969L46.5277-71.1592L70.7622-47.3969C72.0311-46.1817 73.5433-45.7481 74.915-45.7481C77.967-45.7481 80.551-48.1527 80.551-51.4308C80.551-53.1602 79.8244-54.4885 78.7229-55.5694L50.9771-82.2121C49.6111-83.5056 48.1874-84.1963 46.5277-84.1963ZM46.5277 13.6751C48.1874 13.6751 49.6111 12.9843 50.9771 11.6908L78.7229-14.9519C79.8244-16.0328 80.551-17.3611 80.551-19.0905C80.551-22.3686 77.967-24.7732 74.915-24.7732C73.5433-24.7732 72.0311-24.3396 70.7622-23.1244L46.5277 0.637866L22.2498-23.1244C20.9809-24.3744 19.5034-24.7732 18.1403-24.7732C15.0797-24.7732 12.4609-22.3686 12.4609-19.0905C12.4609-17.3611 13.231-16.0328 14.2891-14.9519L42.0782 11.6908C43.3922 12.9843 44.8246 13.6751 46.5277 13.6751Z"/>
  </g>
  <g id="Regular-M" transform="matrix(1 0 0 1 1404.9 1126)">
   <path d="M44.9724-82.2831C43.6871-82.2831 42.5782-81.7646 41.6351-80.8215L13.7357-54.0837C12.9996-53.2959 12.4609-52.3116 12.4609-50.8615C12.4609-48.3235 14.4085-46.3865 16.957-46.3865C17.9825-46.3865 19.1326-46.6664 20.1687-47.6919L44.9724-71.9761L69.7244-47.6919C70.7605-46.7076 71.9518-46.3865 72.9879-46.3865C75.5258-46.3865 77.4322-48.3235 77.4322-50.8615C77.4322-52.3116 76.9453-53.2959 76.1574-54.0837L48.3098-80.8215C47.3044-81.7646 46.206-82.2831 44.9724-82.2831ZM44.9724 11.7618C46.206 11.7618 47.3044 11.2433 48.3098 10.3002L76.1574-16.4375C76.9453-17.2254 77.4322-18.2097 77.4322-19.6598C77.4322-22.1978 75.5258-24.1348 72.9879-24.1348C71.9518-24.1348 70.7605-23.8137 69.7244-22.8294L44.9724 1.45484L20.1687-22.8294C19.1326-23.8549 17.9825-24.1348 16.957-24.1348C14.4085-24.1348 12.4609-22.1978 12.4609-19.6598C12.4609-18.2097 12.9996-17.2254 13.7357-16.4375L41.6351 10.3002C42.5782 11.2433 43.6871 11.7618 44.9724 11.7618Z"/>
  </g>
  <g id="Light-M" transform="matrix(1 0 0 1 1108.3 1126)">
   <path d="M44.8527-81.5474C43.8069-81.5474 42.9204-81.0973 42.1655-80.3424L13.479-52.6806C12.8627-52.0297 12.4609-51.2678 12.4609-50.1941C12.4609-48.2893 13.9294-46.8485 15.8619-46.8485C16.6307-46.8485 17.5242-47.0771 18.3207-47.8459L44.8527-73.8241L71.35-47.8459C72.1465-47.0841 73.0469-46.8485 73.8435-46.8485C75.7483-46.8485 77.2097-48.2893 77.2097-50.1941C77.2097-51.2678 76.8426-52.0297 76.1917-52.6806L47.5398-80.3424C46.7226-81.0973 45.8638-81.5474 44.8527-81.5474ZM44.8527 11.0261C45.8638 11.0261 46.7226 10.576 47.5398 9.82107L76.1917-17.8406C76.8426-18.4916 77.2097-19.2535 77.2097-20.3272C77.2097-22.232 75.7483-23.6728 73.8435-23.6728C73.0469-23.6728 72.1465-23.4372 71.35-22.6754L44.8527 3.30283L18.3207-22.6754C17.5242-23.4442 16.6307-23.6728 15.8619-23.6728C13.9294-23.6728 12.4609-22.232 12.4609-20.3272C12.4609-19.2535 12.8627-18.4916 13.479-17.8406L42.1655 9.82107C42.9204 10.576 43.8069 11.0261 44.8527 11.0261Z"/>
  </g>
  <g id="Thin-M" transform="matrix(1 0 0 1 811.734 1126)">
   <path d="M44.6942-80.5742C43.9653-80.5742 43.373-80.2147 42.8671-79.7087L13.1396-50.8249C12.6816-50.355 12.4609-49.8873 12.4609-49.3115C12.4609-48.244 13.2957-47.4596 14.4135-47.4596C14.8429-47.4596 15.3969-47.6202 15.8766-48.0496L44.6942-76.2682L73.4999-48.0496C73.9796-47.5819 74.4953-47.4596 74.975-47.4596C76.0425-47.4596 76.9155-48.244 76.9155-49.3115C76.9155-49.8873 76.7068-50.355 76.2369-50.8249L46.5214-79.7087C45.9531-80.2147 45.4111-80.5742 44.6942-80.5742ZM44.6942 10.0529C45.4111 10.0529 45.9531 9.69337 46.5214 9.18741L76.2369-19.6964C76.7068-20.1663 76.9155-20.634 76.9155-21.2098C76.9155-22.2772 76.0425-23.0617 74.975-23.0617C74.4953-23.0617 73.9796-22.9394 73.4999-22.4717L44.6942 5.74693L15.8766-22.4717C15.3969-22.9011 14.8429-23.0617 14.4135-23.0617C13.2957-23.0617 12.4609-22.2772 12.4609-21.2098C12.4609-20.634 12.6816-20.1663 13.1396-19.6964L42.8671 9.18741C43.373 9.69337 43.9653 10.0529 44.6942 10.0529Z"/>
  </g>
  <g id="Ultralight-M" transform="matrix(1 0 0 1 515.098 1126)">
   <path d="M44.6131-80.0758C44.0465-80.0758 43.6049-79.7626 43.2264-79.3841L12.9657-49.8744C12.5889-49.4973 12.4609-49.1803 12.4609-48.8595C12.4609-48.2209 12.9712-47.7725 13.6717-47.7725C13.9272-47.7725 14.3073-47.8984 14.6247-48.1539L44.6131-77.5201L74.601-48.1539C74.9185-47.8369 75.2371-47.7725 75.5545-47.7725C76.1932-47.7725 76.7648-48.2209 76.7648-48.8595C76.7648-49.1803 76.6373-49.4973 76.2601-49.8744L45.9998-79.3841C45.559-79.7626 45.1793-80.0758 44.6131-80.0758ZM44.6131 9.55452C45.1793 9.55452 45.559 9.24131 45.9998 8.86286L76.2601-20.6468C76.6373-21.024 76.7648-21.341 76.7648-21.6618C76.7648-22.3004 76.1932-22.7488 75.5545-22.7488C75.2371-22.7488 74.9185-22.6844 74.601-22.3674L44.6131 6.99879L14.6247-22.3674C14.3073-22.6229 13.9272-22.7488 13.6717-22.7488C12.9712-22.7488 12.4609-22.3004 12.4609-21.6618C12.4609-21.341 12.5889-21.024 12.9657-20.6468L43.2264 8.86286C43.6049 9.24131 44.0465 9.55452 44.6131 9.55452Z"/>
  </g>
  <g id="Black-S" transform="matrix(1 0 0 1 2890.77 696)">
   <path d="M42.627-81.1523C39.6484-81.1523 37.2559-79.9316 34.7656-77.5391L13.3789-56.9824C11.2793-54.9805 9.76562-52.5879 9.76562-50.1465C9.76562-44.6777 14.4531-40.9668 18.8477-40.9668C21.2402-40.9668 23.6816-41.748 25.5859-43.6035L42.627-60.2539L59.668-43.6035C61.5723-41.748 64.0137-40.9668 66.4062-40.9668C70.8008-40.9668 75.4883-44.6777 75.4883-50.1465C75.4883-52.5879 73.9746-54.9805 71.875-56.9824L50.4883-77.5391C47.998-79.9316 45.6055-81.1523 42.627-81.1523ZM42.627 10.6445C45.6055 10.6445 47.998 9.42383 50.4883 7.03125L71.875-13.5254C73.9746-15.5273 75.4883-17.9199 75.4883-20.3613C75.4883-25.8301 70.8008-29.541 66.4062-29.541C64.0137-29.541 61.5723-28.7598 59.668-26.9043L42.627-10.2539L25.5859-26.9043C23.6816-28.7598 21.2402-29.541 18.8477-29.541C14.4531-29.541 9.76562-25.8301 9.76562-20.3613C9.76562-17.9199 11.2793-15.5273 13.3789-13.5254L34.7656 7.03125C37.2559 9.42383 39.6484 10.6445 42.627 10.6445Z"/>
  </g>
  <g id="Heavy-S" transform="matrix(1 0 0 1 2595.8 696)">
   <path d="M40.8983-79.101C38.3577-79.101 36.2993-78.0647 34.2009-76.0409L12.7912-55.4958C11.0373-53.805 9.76562-51.7697 9.76562-49.5933C9.76562-44.8737 13.7617-41.6237 17.6606-41.6237C19.7075-41.6237 21.8147-42.2782 23.4885-43.9147L40.8983-60.9338L58.2966-43.9147C59.9704-42.2897 62.0891-41.6237 64.1359-41.6237C68.0349-41.6237 72.0194-44.8737 72.0194-49.5933C72.0194-51.7697 70.7593-53.805 68.9939-55.4958L47.5956-76.0409C45.4857-78.0647 43.4273-79.101 40.8983-79.101ZM40.8983 8.59318C43.4273 8.59318 45.4857 7.55686 47.5956 5.53307L68.9939-15.012C70.7593-16.7028 72.0194-18.7382 72.0194-20.9145C72.0194-25.6342 68.0349-28.8841 64.1359-28.8841C62.0891-28.8841 59.9704-28.2181 58.2966-26.5931L40.8983-9.57396L23.4885-26.5931C21.8147-28.2296 19.7075-28.8841 17.6606-28.8841C13.7617-28.8841 9.76562-25.6342 9.76562-20.9145C9.76562-18.7382 11.0373-16.7028 12.7912-15.012L34.2009 5.53307C36.2993 7.55686 38.3577 8.59318 40.8983 8.59318Z"/>
  </g>
  <g id="Bold-S" transform="matrix(1 0 0 1 2301.03 696)">
   <path d="M38.9648-76.8066C36.9141-76.8066 35.2295-75.9766 33.5693-74.3652L12.1338-53.833C10.7666-52.4902 9.76562-50.8545 9.76562-48.9746C9.76562-45.0928 12.9883-42.3584 16.333-42.3584C17.9932-42.3584 19.7266-42.8711 21.1426-44.2627L38.9648-61.6943L56.7627-44.2627C58.1787-42.8955 59.9365-42.3584 61.5967-42.3584C64.9414-42.3584 68.1396-45.0928 68.1396-48.9746C68.1396-50.8545 67.1631-52.4902 65.7715-53.833L44.3604-74.3652C42.6758-75.9766 40.9912-76.8066 38.9648-76.8066ZM38.9648 6.29883C40.9912 6.29883 42.6758 5.46875 44.3604 3.85742L65.7715-16.6748C67.1631-18.0176 68.1396-19.6533 68.1396-21.5332C68.1396-25.415 64.9414-28.1494 61.5967-28.1494C59.9365-28.1494 58.1787-27.6123 56.7627-26.2451L38.9648-8.81348L21.1426-26.2451C19.7266-27.6367 17.9932-28.1494 16.333-28.1494C12.9883-28.1494 9.76562-25.415 9.76562-21.5332C9.76562-19.6533 10.7666-18.0176 12.1338-16.6748L33.5693 3.85742C35.2295 5.46875 36.9141 6.29883 38.9648 6.29883Z"/>
  </g>
  <g id="Semibold-S" transform="matrix(1 0 0 1 2005.65 696)">
   <path d="M37.6318-75.2248C35.9188-75.2248 34.4919-74.5369 33.1339-73.21L11.6806-52.6866C10.58-51.5838 9.76562-50.2235 9.76562-48.548C9.76562-45.2438 12.4551-42.8649 15.4177-42.8649C16.8112-42.8649 18.2869-43.2799 19.5252-44.5026L37.6318-62.2187L55.7052-44.5026C56.9435-43.3132 58.4524-42.8649 59.846-42.8649C62.8086-42.8649 65.4647-45.2438 65.4647-48.548C65.4647-50.2235 64.6837-51.5838 63.5498-52.6866L42.1298-73.21C40.7385-74.5369 39.3116-75.2248 37.6318-75.2248ZM37.6318 4.71699C39.3116 4.71699 40.7385 4.0291 42.1298 2.70215L63.5498-17.8212C64.6837-18.924 65.4647-20.2843 65.4647-21.9598C65.4647-25.264 62.8086-27.6429 59.846-27.6429C58.4524-27.6429 56.9435-27.1946 55.7052-26.0052L37.6318-8.28916L19.5252-26.0052C18.2869-27.2279 16.8112-27.6429 15.4177-27.6429C12.4551-27.6429 9.76562-25.264 9.76562-21.9598C9.76562-20.2843 10.58-18.924 11.6806-17.8212L33.1339 2.70215C34.4919 4.0291 35.9188 4.71699 37.6318 4.71699Z"/>
  </g>
  <g id="Medium-S" transform="matrix(1 0 0 1 1709.95 696)">
   <path d="M36.6211-74.0254C35.1641-74.0254 33.9326-73.4453 32.8037-72.334L11.3369-51.8174C10.4385-50.8965 9.76562-49.7451 9.76562-48.2246C9.76562-45.3584 12.0508-43.249 14.7236-43.249C15.915-43.249 17.1953-43.5898 18.2988-44.6846L36.6211-62.6162L54.9033-44.6846C56.0068-43.6299 57.3271-43.249 58.5186-43.249C61.1914-43.249 63.4365-45.3584 63.4365-48.2246C63.4365-49.7451 62.8037-50.8965 61.8652-51.8174L40.4385-72.334C39.2695-73.4453 38.0381-74.0254 36.6211-74.0254ZM36.6211 3.51758C38.0381 3.51758 39.2695 2.9375 40.4385 1.82617L61.8652-18.6904C62.8037-19.6113 63.4365-20.7627 63.4365-22.2832C63.4365-25.1494 61.1914-27.2588 58.5186-27.2588C57.3271-27.2588 56.0068-26.8779 54.9033-25.8232L36.6211-7.8916L18.2988-25.8232C17.1953-26.918 15.915-27.2588 14.7236-27.2588C12.0508-27.2588 9.76562-25.1494 9.76562-22.2832C9.76562-20.7627 10.4385-19.6113 11.3369-18.6904L32.8037 1.82617C33.9326 2.9375 35.1641 3.51758 36.6211 3.51758Z"/>
  </g>
  <g id="Regular-S" transform="matrix(1 0 0 1 1414.57 696)">
   <path d="M35.3027-72.4609C34.1797-72.4609 33.2031-72.0215 32.373-71.1914L10.8887-50.6836C10.2539-50 9.76562-49.1211 9.76562-47.8027C9.76562-45.5078 11.5234-43.75 13.8184-43.75C14.7461-43.75 15.7715-43.9941 16.6992-44.9219L35.3027-63.1348L53.8574-44.9219C54.7852-44.043 55.8594-43.75 56.7871-43.75C59.082-43.75 60.791-45.5078 60.791-47.8027C60.791-49.1211 60.3516-50 59.668-50.6836L38.2324-71.1914C37.3535-72.0215 36.377-72.4609 35.3027-72.4609ZM35.3027 1.95312C36.377 1.95312 37.3535 1.51367 38.2324 0.683594L59.668-19.8242C60.3516-20.5078 60.791-21.3867 60.791-22.7051C60.791-25 59.082-26.7578 56.7871-26.7578C55.8594-26.7578 54.7852-26.4648 53.8574-25.5859L35.3027-7.37305L16.6992-25.5859C15.7715-26.5137 14.7461-26.7578 13.8184-26.7578C11.5234-26.7578 9.76562-25 9.76562-22.7051C9.76562-21.3867 10.2539-20.5078 10.8887-19.8242L32.373 0.683594C33.2031 1.51367 34.1797 1.95312 35.3027 1.95312Z"/>
  </g>
  <g id="Light-S" transform="matrix(1 0 0 1 1117.95 696)">
   <path d="M35.1968-71.8101C34.2856-71.8101 33.5059-71.4312 32.8423-70.7676L10.6616-49.4424C10.1328-48.8799 9.76562-48.1978 9.76562-47.2124C9.76562-45.4775 11.0996-44.1587 12.8496-44.1587C13.5503-44.1587 14.3486-44.3574 15.0645-45.0581L35.1968-64.7695L55.2954-45.0581C56.0112-44.376 56.8281-44.1587 57.5439-44.1587C59.2788-44.1587 60.5942-45.4775 60.5942-47.2124C60.5942-48.1978 60.2607-48.8799 59.6982-49.4424L37.5513-70.7676C36.8389-71.4312 36.0742-71.8101 35.1968-71.8101ZM35.1968 1.30225C36.0742 1.30225 36.8389 0.923344 37.5513 0.259769L59.6982-21.0654C60.2607-21.6279 60.5942-22.3101 60.5942-23.2954C60.5942-25.0303 59.2788-26.3491 57.5439-26.3491C56.8281-26.3491 56.0112-26.1318 55.2954-25.4497L35.1968-5.73829L15.0645-25.4497C14.3486-26.1504 13.5503-26.3491 12.8496-26.3491C11.0996-26.3491 9.76562-25.0303 9.76562-23.2954C9.76562-22.3101 10.1328-21.6279 10.6616-21.0654L32.8423 0.259769C33.5059 0.923344 34.2856 1.30225 35.1968 1.30225Z"/>
  </g>
  <g id="Thin-S" transform="matrix(1 0 0 1 821.372 696)">
   <path d="M35.0566-70.9492C34.4258-70.9492 33.9062-70.6504 33.4629-70.207L10.3613-47.8008C9.97266-47.3985 9.76562-46.9766 9.76562-46.4317C9.76562-45.4375 10.5391-44.6992 11.5684-44.6992C11.9688-44.6992 12.4668-44.8379 12.9024-45.2383L35.0566-66.9316L57.1972-45.2383C57.6328-44.8164 58.1094-44.6992 58.5449-44.6992C59.5391-44.6992 60.334-45.4375 60.334-46.4317C60.334-46.9766 60.1406-47.3985 59.7383-47.8008L36.6504-70.207C36.1582-70.6504 35.6738-70.9492 35.0566-70.9492ZM35.0566 0.441418C35.6738 0.441418 36.1582 0.142589 36.6504-0.300773L59.7383-22.707C60.1406-23.1094 60.334-23.5312 60.334-24.0762C60.334-25.0703 59.5391-25.8086 58.5449-25.8086C58.1094-25.8086 57.6328-25.6914 57.1972-25.2695L35.0566-3.5762L12.9024-25.2695C12.4668-25.6699 11.9688-25.8086 11.5684-25.8086C10.5391-25.8086 9.76562-25.0703 9.76562-24.0762C9.76562-23.5312 9.97266-23.1094 10.3613-22.707L33.4629-0.300773C33.9062 0.142589 34.4258 0.441418 35.0566 0.441418Z"/>
  </g>
  <g id="Ultralight-S" transform="matrix(1 0 0 1 524.728 696)">
   <path d="M34.9849-70.5083C34.4976-70.5083 34.1113-70.2505 33.7808-69.9199L10.2075-46.96C9.89063-46.6397 9.76562-46.3511 9.76562-46.0318C9.76562-45.417 10.252-44.9761 10.9121-44.9761C11.1587-44.9761 11.503-45.084 11.795-45.3306L34.9849-68.039L58.1714-45.3306C58.4633-45.042 58.7656-44.9761 59.0576-44.9761C59.6724-44.9761 60.2007-45.417 60.2007-46.0318C60.2007-46.3511 60.0791-46.6397 59.7588-46.96L36.189-69.9199C35.8096-70.2505 35.4688-70.5083 34.9849-70.5083ZM34.9849 0.000503659C35.4688 0.000503659 35.8096-0.25731 36.189-0.587881L59.7588-23.5478C60.0791-23.8681 60.2007-24.1567 60.2007-24.4761C60.2007-25.0908 59.6724-25.5317 59.0576-25.5317C58.7656-25.5317 58.4633-25.4658 58.1714-25.1772L34.9849-2.46879L11.795-25.1772C11.503-25.4238 11.1587-25.5317 10.9121-25.5317C10.252-25.5317 9.76562-25.0908 9.76562-24.4761C9.76562-24.1567 9.89063-23.8681 10.2075-23.5478L33.7808-0.587881C34.1113-0.25731 34.4976 0.000503659 34.9849 0.000503659Z"/>
  </g>
 </g>
</svg>
