<?xml version="1.0" encoding="UTF-8"?>
<!--Generator: Apple Native CoreSVG 341-->
<!DOCTYPE svg
PUBLIC "-//W3C//DTD SVG 1.1//EN"
       "http://www.w3.org/Graphics/SVG/1.1/DTD/svg11.dtd">
<svg version="1.1" xmlns="http://www.w3.org/2000/svg" xmlns:xlink="http://www.w3.org/1999/xlink" viewBox="0 0 3300 2200">
 <g id="Notes">
  <rect height="2200" id="artboard" style="fill:white;opacity:1" width="3300" x="0" y="0"/>
  <line style="fill:none;stroke:black;opacity:1;stroke-width:0.5;" x1="263" x2="3036" y1="292" y2="292"/>
  <text style="stroke:none;fill:black;font-family:sans-serif;font-size:13;font-weight:bold;" transform="matrix(1 0 0 1 263 322)">Weight/Scale Variations</text>
  <text style="stroke:none;fill:black;font-family:sans-serif;font-size:13;text-anchor:middle;" transform="matrix(1 0 0 1 559.711 322)">Ultralight</text>
  <text style="stroke:none;fill:black;font-family:sans-serif;font-size:13;text-anchor:middle;" transform="matrix(1 0 0 1 856.422 322)">Thin</text>
  <text style="stroke:none;fill:black;font-family:sans-serif;font-size:13;text-anchor:middle;" transform="matrix(1 0 0 1 1153.13 322)">Light</text>
  <text style="stroke:none;fill:black;font-family:sans-serif;font-size:13;text-anchor:middle;" transform="matrix(1 0 0 1 1449.84 322)">Regular</text>
  <text style="stroke:none;fill:black;font-family:sans-serif;font-size:13;text-anchor:middle;" transform="matrix(1 0 0 1 1746.56 322)">Medium</text>
  <text style="stroke:none;fill:black;font-family:sans-serif;font-size:13;text-anchor:middle;" transform="matrix(1 0 0 1 2043.27 322)">Semibold</text>
  <text style="stroke:none;fill:black;font-family:sans-serif;font-size:13;text-anchor:middle;" transform="matrix(1 0 0 1 2339.98 322)">Bold</text>
  <text style="stroke:none;fill:black;font-family:sans-serif;font-size:13;text-anchor:middle;" transform="matrix(1 0 0 1 2636.69 322)">Heavy</text>
  <text style="stroke:none;fill:black;font-family:sans-serif;font-size:13;text-anchor:middle;" transform="matrix(1 0 0 1 2933.4 322)">Black</text>
  <line style="fill:none;stroke:black;opacity:1;stroke-width:0.5;" x1="263" x2="3036" y1="1903" y2="1903"/>
  <g transform="matrix(0.2 0 0 0.2 263 1933)">
   <path d="m46.2402 4.15039c21.7773 0 39.4531-17.627 39.4531-39.4043s-17.6758-39.4043-39.4531-39.4043c-21.7285 0-39.4043 17.627-39.4043 39.4043s17.6758 39.4043 39.4043 39.4043Zm0-7.42188c-17.6758 0-31.9336-14.3066-31.9336-31.9824s14.2578-31.9824 31.9336-31.9824 31.9824 14.3066 31.9824 31.9824-14.3066 31.9824-31.9824 31.9824Zm3.61328-17.7734v-28.4668c0-2.24609-1.46484-3.75977-3.71094-3.75977-2.14844 0-3.61328 1.51367-3.61328 3.75977v28.4668c0 2.19727 1.46484 3.71094 3.61328 3.71094 2.24609 0 3.71094-1.51367 3.71094-3.71094Zm-17.8223-10.5957h28.418c2.19727 0 3.71094-1.46484 3.71094-3.61328 0-2.19727-1.51367-3.71094-3.71094-3.71094h-28.418c-2.24609 0-3.75977 1.51367-3.75977 3.71094 0 2.14844 1.51367 3.61328 3.75977 3.61328Z"/>
  </g>
  <g transform="matrix(0.2 0 0 0.2 281.506 1933)">
   <path d="m58.5449 14.5508c27.4902 0 49.8047-22.3145 49.8047-49.8047s-22.3145-49.8047-49.8047-49.8047-49.8047 22.3145-49.8047 49.8047 22.3145 49.8047 49.8047 49.8047Zm0-8.30078c-22.9492 0-41.5039-18.5547-41.5039-41.5039s18.5547-41.5039 41.5039-41.5039 41.5039 18.5547 41.5039 41.5039-18.5547 41.5039-41.5039 41.5039Zm4.05273-23.0957v-36.9141c0-2.49023-1.70898-4.19922-4.15039-4.19922-2.39258 0-4.05273 1.70898-4.05273 4.19922v36.9141c0 2.44141 1.66016 4.15039 4.05273 4.15039 2.44141 0 4.15039-1.66016 4.15039-4.15039Zm-22.5586-14.4043h36.9629c2.44141 0 4.15039-1.61133 4.15039-4.00391 0-2.44141-1.70898-4.15039-4.15039-4.15039h-36.9629c-2.49023 0-4.15039 1.70898-4.15039 4.15039 0 2.39258 1.66016 4.00391 4.15039 4.00391Z"/>
  </g>
  <g transform="matrix(0.2 0 0 0.2 304.924 1933)">
   <path d="m74.8535 28.3203c35.1074 0 63.623-28.4668 63.623-63.5742s-28.5156-63.623-63.623-63.623-63.5742 28.5156-63.5742 63.623 28.4668 63.5742 63.5742 63.5742Zm0-9.08203c-30.127 0-54.4922-24.3652-54.4922-54.4922s24.3652-54.4922 54.4922-54.4922 54.4922 24.3652 54.4922 54.4922-24.3652 54.4922-54.4922 54.4922Zm4.44336-30.3223v-48.4863c0-2.73438-1.85547-4.63867-4.54102-4.63867-2.58789 0-4.44336 1.9043-4.44336 4.63867v48.4863c0 2.68555 1.85547 4.58984 4.44336 4.58984 2.68555 0 4.54102-1.85547 4.54102-4.58984Zm-28.7109-19.7754h48.4863c2.68555 0 4.58984-1.80664 4.58984-4.39453 0-2.73438-1.85547-4.58984-4.58984-4.58984h-48.4863c-2.73438 0-4.58984 1.85547-4.58984 4.58984 0 2.58789 1.85547 4.39453 4.58984 4.39453Z"/>
  </g>
  <text style="stroke:none;fill:black;font-family:sans-serif;font-size:13;font-weight:bold;" transform="matrix(1 0 0 1 263 1953)">Design Variations</text>
  <text style="stroke:none;fill:black;font-family:sans-serif;font-size:13;" transform="matrix(1 0 0 1 263 1971)">Symbols are supported in up to nine weights and three scales.</text>
  <text style="stroke:none;fill:black;font-family:sans-serif;font-size:13;" transform="matrix(1 0 0 1 263 1989)">For optimal layout with text and other symbols, vertically align</text>
  <text style="stroke:none;fill:black;font-family:sans-serif;font-size:13;" transform="matrix(1 0 0 1 263 2007)">symbols with the adjacent text.</text>
  <line style="fill:none;stroke:#00AEEF;stroke-width:0.5;opacity:1.0;" x1="776" x2="776" y1="1919" y2="1933"/>
  <g transform="matrix(0.2 0 0 0.2 776 1933)">
   <path d="m16.5527 0.78125c2.58789 0 3.85742-0.976562 4.78516-3.71094l20.5566-57.5195h0.244141l20.6055 57.5195c0.927734 2.73438 2.19727 3.71094 4.73633 3.71094 2.58789 0 4.24805-1.5625 4.24805-4.00391 0-0.830078-0.146484-1.61133-0.537109-2.63672l-22.9004-60.9863c-1.12305-2.97852-3.125-4.49219-6.25-4.49219-3.02734 0-5.07812 1.46484-6.15234 4.44336l-22.9004 61.084c-0.390625 1.02539-0.537109 1.80664-0.537109 2.63672 0 2.44141 1.5625 3.95508 4.10156 3.95508Zm10.2051-20.9473h30.6641c2.00195 0 3.66211-1.66016 3.66211-3.66211 0-2.05078-1.66016-3.66211-3.66211-3.66211h-30.6641c-2.00195 0-3.66211 1.61133-3.66211 3.66211 0 2.00195 1.66016 3.66211 3.66211 3.66211Z"/>
  </g>
  <line style="fill:none;stroke:#00AEEF;stroke-width:0.5;opacity:1.0;" x1="792.836" x2="792.836" y1="1919" y2="1933"/>
  <text style="stroke:none;fill:black;font-family:sans-serif;font-size:13;font-weight:bold;" transform="matrix(1 0 0 1 776 1953)">Margins</text>
  <text style="stroke:none;fill:black;font-family:sans-serif;font-size:13;" transform="matrix(1 0 0 1 776 1971)">Leading and trailing margins on the left and right side of each symbol</text>
  <text style="stroke:none;fill:black;font-family:sans-serif;font-size:13;" transform="matrix(1 0 0 1 776 1989)">can be adjusted by modifying the x-location of the margin guidelines.</text>
  <text style="stroke:none;fill:black;font-family:sans-serif;font-size:13;" transform="matrix(1 0 0 1 776 2007)">Modifications are automatically applied proportionally to all</text>
  <text style="stroke:none;fill:black;font-family:sans-serif;font-size:13;" transform="matrix(1 0 0 1 776 2025)">scales and weights.</text>
  <g transform="matrix(0.2 0 0 0.2 1289 1933)">
   <path d="m14.209 13.1348 7.86133 7.86133c4.29688 4.39453 9.32617 4.10156 13.8672-1.02539l60.6934-68.2129-4.88281-4.88281-60.2539 67.6758c-1.80664 1.95312-3.4668 2.44141-5.81055 0.0976562l-5.17578-5.12695c-2.29492-2.29492-1.80664-3.95508 0.195312-5.81055l67.4805-62.1582-4.88281-4.83398-68.0664 62.5977c-4.98047 4.58984-5.32227 9.47266-1.02539 13.8184Zm44.873-97.4609c-2.05078 2.00195-2.24609 4.88281-1.07422 6.78711 1.12305 1.80664 3.4668 3.02734 6.5918 2.24609 5.85938-1.66016 12.5977-2.39258 18.8965 0.927734l-2.68555 7.12891c-1.61133 4.00391-0.732422 6.88477 1.70898 9.42383l10.2539 10.3027c2.34375 2.39258 4.54102 2.44141 7.08008 1.95312l4.44336-0.732422 2.58789 2.53906-0.195312 2.24609c-0.0976562 2.29492 0.537109 4.29688 2.7832 6.49414l3.36914 3.32031c2.29492 2.29492 5.51758 2.49023 7.8125 0.195312l12.9883-13.0371c2.29492-2.34375 2.14844-5.37109-0.195312-7.66602l-3.41797-3.41797c-2.19727-2.19727-4.05273-3.02734-6.34766-2.88086l-2.34375 0.244141-2.44141-2.44141 1.02539-4.6875c0.634766-2.73438-0.244141-4.98047-2.88086-7.61719l-11.2793-11.1816c-12.9395-12.8418-35.5957-11.0352-46.6797-0.146484Zm7.08008 2.05078c8.78906-6.39648 25.9766-5.66406 33.6914 1.95312l12.3047 12.207c1.02539 1.02539 1.2207 1.80664 0.927734 3.32031l-1.46484 6.64062 6.73828 6.68945 4.39453-0.244141c1.12305-0.0488281 1.51367 0.0488281 2.34375 0.878906l2.53906 2.49023-10.8398 10.8398-2.49023-2.49023c-0.830078-0.878906-0.976562-1.2207-0.927734-2.39258l0.292969-4.3457-6.68945-6.73828-6.83594 1.17188c-1.41602 0.292969-2.05078 0.195312-3.17383-0.878906l-8.93555-8.88672c-1.07422-1.02539-1.17188-1.70898-0.488281-3.36914l4.58984-11.4746c-6.10352-6.34766-17.041-7.51953-25.5859-4.58984-0.683594 0.244141-0.927734-0.390625-0.390625-0.78125Z"/>
  </g>
  <text style="stroke:none;fill:black;font-family:sans-serif;font-size:13;font-weight:bold;" transform="matrix(1 0 0 1 1289 1953)">Exporting</text>
  <text style="stroke:none;fill:black;font-family:sans-serif;font-size:13;" transform="matrix(1 0 0 1 1289 1971)">Symbols should be outlined when exporting to ensure the</text>
  <text style="stroke:none;fill:black;font-family:sans-serif;font-size:13;" transform="matrix(1 0 0 1 1289 1989)">design is preserved when submitting to Xcode.</text>
  <text id="template-version" style="stroke:none;fill:black;font-family:sans-serif;font-size:13;text-anchor:end;" transform="matrix(1 0 0 1 3036 1933)">Template v.2.0</text>
  <text style="stroke:none;fill:black;font-family:sans-serif;font-size:13;text-anchor:end;" transform="matrix(1 0 0 1 3036 1951)">Requires Xcode 12 or greater</text>
  <text id="descriptive-name" style="stroke:none;fill:black;font-family:sans-serif;font-size:13;text-anchor:end;" transform="matrix(1 0 0 1 3036 1969)">Generated from chevron.right</text>
  <text style="stroke:none;fill:black;font-family:sans-serif;font-size:13;text-anchor:end;" transform="matrix(1 0 0 1 3036 1987)">Typeset at 100.0 points</text>
  <text style="stroke:none;fill:black;font-family:sans-serif;font-size:13;" transform="matrix(1 0 0 1 263 726)">Small</text>
  <text style="stroke:none;fill:black;font-family:sans-serif;font-size:13;" transform="matrix(1 0 0 1 263 1156)">Medium</text>
  <text style="stroke:none;fill:black;font-family:sans-serif;font-size:13;" transform="matrix(1 0 0 1 263 1586)">Large</text>
 </g>
 <g id="Guides">
  <g id="H-reference" style="fill:#27AAE1;stroke:none;" transform="matrix(1 0 0 1 339 696)">
   <path d="M0.993654 0L3.63775 0L29.3281-67.1323L30.0303-67.1323L30.0303-70.459L28.1226-70.459ZM11.6885-24.4799L46.9815-24.4799L46.2315-26.7285L12.4385-26.7285ZM55.1196 0L57.7637 0L30.6382-70.459L29.4326-70.459L29.4326-67.1323Z"/>
  </g>
  <line id="Baseline-S" style="fill:none;stroke:#27AAE1;opacity:1;stroke-width:0.5;" x1="263" x2="3036" y1="696" y2="696"/>
  <line id="Capline-S" style="fill:none;stroke:#27AAE1;opacity:1;stroke-width:0.5;" x1="263" x2="3036" y1="625.541" y2="625.541"/>
  <g id="H-reference" style="fill:#27AAE1;stroke:none;" transform="matrix(1 0 0 1 339 1126)">
   <path d="M0.993654 0L3.63775 0L29.3281-67.1323L30.0303-67.1323L30.0303-70.459L28.1226-70.459ZM11.6885-24.4799L46.9815-24.4799L46.2315-26.7285L12.4385-26.7285ZM55.1196 0L57.7637 0L30.6382-70.459L29.4326-70.459L29.4326-67.1323Z"/>
  </g>
  <line id="Baseline-M" style="fill:none;stroke:#27AAE1;opacity:1;stroke-width:0.5;" x1="263" x2="3036" y1="1126" y2="1126"/>
  <line id="Capline-M" style="fill:none;stroke:#27AAE1;opacity:1;stroke-width:0.5;" x1="263" x2="3036" y1="1055.54" y2="1055.54"/>
  <g id="H-reference" style="fill:#27AAE1;stroke:none;" transform="matrix(1 0 0 1 339 1556)">
   <path d="M0.993654 0L3.63775 0L29.3281-67.1323L30.0303-67.1323L30.0303-70.459L28.1226-70.459ZM11.6885-24.4799L46.9815-24.4799L46.2315-26.7285L12.4385-26.7285ZM55.1196 0L57.7637 0L30.6382-70.459L29.4326-70.459L29.4326-67.1323Z"/>
  </g>
  <line id="Baseline-L" style="fill:none;stroke:#27AAE1;opacity:1;stroke-width:0.5;" x1="263" x2="3036" y1="1556" y2="1556"/>
  <line id="Capline-L" style="fill:none;stroke:#27AAE1;opacity:1;stroke-width:0.5;" x1="263" x2="3036" y1="1485.54" y2="1485.54"/>
  <line id="right-margin" style="fill:none;stroke:#00AEEF;stroke-width:0.5;opacity:1.0;" x1="1486.17" x2="1486.17" y1="1030.79" y2="1150.12"/>
  <line id="left-margin" style="fill:none;stroke:#00AEEF;stroke-width:0.5;opacity:1.0;" x1="1413.52" x2="1413.52" y1="1030.79" y2="1150.12"/>
 </g>
 <g id="Symbols">
  <g id="Black-L" transform="matrix(1 0 0 1 2881.01 1556)">
   <path d="M97.912-35.2697C97.8536-39.3585 96.4569-42.5831 93.0587-45.9217L46.7837-91.2788C44.364-93.7193 41.547-94.8228 38.0835-94.8228C31.0773-94.8228 25.2941-89.12 25.2941-82.2294C25.2941-78.7867 26.7312-75.5413 29.4793-72.8683L68.3815-35.3281L29.4793 2.32894C26.7896 5.00186 25.2941 8.2265 25.2941 11.7484C25.2941 18.639 31.0773 24.3418 38.0835 24.3418C41.4886 24.3418 44.364 23.2383 46.7837 20.7978L93.0587-24.6177C96.5153-27.9563 97.912-31.2394 97.912-35.2697Z"/>
  </g>
  <g id="Heavy-L" transform="matrix(1 0 0 1 2585.67 1556)">
   <path d="M94.88-35.2697C94.8354-38.7453 93.64-41.5133 90.7728-44.3302L43.605-90.4436C41.5234-92.5554 39.0621-93.5221 36.0641-93.5221C29.9931-93.5221 25.0184-88.6278 25.0184-82.6405C25.0184-79.6726 26.2686-76.8744 28.5821-74.5897L69.2276-35.3143L28.5821 4.05033C26.3132 6.33502 25.0184 9.10305 25.0184 12.1457C25.0184 18.133 29.9931 23.0273 36.0641 23.0273C39.0175 23.0273 41.5234 22.0606 43.605 19.9488L90.7728-26.2092C93.6846-29.0261 94.88-31.8388 94.88-35.2697Z"/>
  </g>
  <g id="Bold-L" transform="matrix(1 0 0 1 2290.65 1556)">
   <path d="M91.2046-35.2697C91.1754-38.0218 90.2186-40.2363 87.9748-42.4375L39.7602-89.2871C38.0861-90.9991 36.0629-91.7967 33.6337-91.7967C28.7081-91.7967 24.71-87.8791 24.71-82.9987C24.71-80.6074 25.7296-78.3551 27.5277-76.5394L70.3025-35.2989L27.5277 6.00004C25.7588 7.81565 24.71 10.0301 24.71 12.4885C24.71 17.3689 28.7081 21.2865 33.6337 21.2865C36.0337 21.2865 38.0861 20.4889 39.7602 18.7769L87.9748-28.1019C90.2478-30.3031 91.2046-32.5468 91.2046-35.2697Z"/>
  </g>
  <g id="Semibold-L" transform="matrix(1 0 0 1 1995.1 1556)">
   <path d="M88.6708-35.2697C88.6522-37.5231 87.8598-39.3559 86.0459-41.1327L37.1096-88.4898C35.7165-89.9263 33.9953-90.6073 31.9583-90.6073C27.8222-90.6073 24.4974-87.3629 24.4974-83.2456C24.4974-81.2519 25.3581-79.3758 26.8007-77.8836L71.0435-35.2883L26.8007 7.34417C25.3767 8.83639 24.4974 10.6691 24.4974 12.7248C24.4974 16.8421 27.8222 20.0865 31.9583 20.0865C33.9767 20.0865 35.7165 19.4054 37.1096 17.969L86.0459-29.4067C87.8784-31.1835 88.6708-33.0348 88.6708-35.2697Z"/>
  </g>
  <g id="Medium-L" transform="matrix(1 0 0 1 1699.26 1556)">
   <path d="M86.7496-35.2697C86.739-37.145 86.0713-38.6883 84.5833-40.1434L35.0998-87.8853C33.9198-89.1127 32.4275-89.7054 30.6879-89.7054C27.1505-89.7054 24.3362-86.9716 24.3362-83.4328C24.3362-81.7406 25.0764-80.1498 26.2495-78.9027L71.6054-35.2802L26.2495 8.36333C25.0869 9.61035 24.3362 11.1537 24.3362 12.9039C24.3362 16.4427 27.1505 19.1765 30.6879 19.1765C32.417 19.1765 33.9198 18.5839 35.0998 17.3564L84.5833-30.396C86.0818-31.8511 86.7496-33.4049 86.7496-35.2697Z"/>
  </g>
  <g id="Regular-L" transform="matrix(1 0 0 1 1403.7 1556)">
   <path d="M84.2436-35.2697C84.2436-36.6517 83.7385-37.8176 82.6756-38.8529L32.4783-87.0968C31.5762-88.0516 30.3826-88.5291 29.0308-88.5291C26.2744-88.5291 24.126-86.4611 24.126-83.677C24.126-82.3779 24.7089-81.1593 25.5306-80.2321L72.3383-35.2697L25.5306 9.69268C24.7089 10.6199 24.126 11.7858 24.126 13.1376C24.126 15.9217 26.2744 17.9897 29.0308 17.9897C30.3826 17.9897 31.5762 17.5122 32.4783 16.5574L82.6756-31.6865C83.7385-32.7218 84.2436-33.8877 84.2436-35.2697Z"/>
  </g>
  <g id="Light-L" transform="matrix(1 0 0 1 1108 1556)">
   <path d="M82.2205-35.2697C82.2205-36.3846 81.8109-37.2451 80.9579-38.0513L30.4171-85.5127C29.7249-86.2385 28.8176-86.6015 27.8093-86.6015C25.7591-86.6015 24.126-85.0488 24.126-82.9518C24.126-81.9771 24.5562-81.0829 25.168-80.4039L73.2544-35.2697L25.168 9.86445C24.5562 10.5435 24.126 11.4041 24.126 12.4124C24.126 14.5094 25.7591 16.062 27.8093 16.062C28.8176 16.062 29.7249 15.6991 30.4171 14.9733L80.9579-32.4881C81.8109-33.2943 82.2205-34.1549 82.2205-35.2697Z"/>
  </g>
  <g id="Thin-L" transform="matrix(1 0 0 1 812.629 1556)">
   <path d="M79.5449-35.2697C79.5449-36.0312 79.2615-36.4878 78.6862-36.9912L27.6909-83.4177C27.2765-83.8406 26.7478-84.052 26.1939-84.052C25.0775-84.052 24.126-83.1809 24.126-81.9926C24.126-81.4471 24.3543-80.982 24.6884-80.631L74.466-35.2697L24.6884 10.0916C24.3543 10.4426 24.126 10.8992 24.126 11.4532C24.126 12.6415 25.0775 13.5126 26.1939 13.5126C26.7478 13.5126 27.2765 13.3012 27.6909 12.8783L78.6862-33.5482C79.2615-34.0516 79.5449-34.5082 79.5449-35.2697Z"/>
  </g>
  <g id="Ultralight-L" transform="matrix(1 0 0 1 516.603 1556)">
   <path d="M78.1745-35.2697C78.1745-35.8502 77.9557-36.1 77.5226-36.4482L26.2946-82.3446C26.0224-82.6123 25.6877-82.7462 25.3664-82.7462C24.7285-82.7462 24.126-82.2242 24.126-81.5013C24.126-81.1756 24.2509-80.9302 24.4427-80.7474L75.0866-35.2697L24.4427 10.208C24.2509 10.3908 24.126 10.6406 24.126 10.9619C24.126 11.6848 24.7285 12.2068 25.3664 12.2068C25.6877 12.2068 26.0224 12.0729 26.2946 11.8052L77.5226-34.0913C77.9557-34.4394 78.1745-34.6892 78.1745-35.2697Z"/>
  </g>
  <g id="Black-M" transform="matrix(1 0 0 1 2891.76 1126)">
   <path d="M78.1882-35.2606C78.1311-38.9192 76.889-41.7685 73.8283-44.7723L38.6978-79.1565C36.5611-81.2987 34.1118-82.2556 31.075-82.2556C24.9388-82.2556 19.8333-77.2125 19.8333-71.1907C19.8333-68.1594 21.0867-65.3046 23.5608-62.9337L52.375-35.3177L23.5608-7.58754C21.1438-5.21667 19.8333-2.36735 19.8333 0.726544C19.8333 6.74826 24.9388 11.7914 31.075 11.7914C34.0547 11.7914 36.5611 10.8345 38.6978 8.69228L73.8283-25.749C76.9461-28.7528 78.1882-31.6592 78.1882-35.2606Z"/>
  </g>
  <g id="Heavy-M" transform="matrix(1 0 0 1 2596.3 1126)">
   <path d="M75.4109-35.2606C75.3673-38.3444 74.3131-40.7755 71.7522-43.2905L35.7806-78.4861C33.955-80.3281 31.827-81.1619 29.2135-81.1619C23.9265-81.1619 19.5638-76.8615 19.5638-71.6595C19.5638-69.0624 20.6485-66.6149 22.7172-64.6007L53.1176-35.3043L22.7172-5.92061C20.6922-3.90638 19.5638-1.47526 19.5638 1.18185C19.5638 6.38388 23.9265 10.6842 29.2135 10.6842C31.7834 10.6842 33.955 9.85046 35.7806 8.00844L71.7522-27.2308C74.3567-29.7458 75.4109-32.2205 75.4109-35.2606Z"/>
  </g>
  <g id="Bold-M" transform="matrix(1 0 0 1 2301 1126)">
   <path d="M72.304-35.2606C72.2755-37.7014 71.4316-39.6647 69.4297-41.6329L32.5173-77.7362C31.0397-79.2424 29.2711-79.9385 27.1312-79.9385C22.7941-79.9385 19.2624-76.469 19.2624-72.1839C19.2624-70.0726 20.1584-68.0807 21.7735-66.4654L53.9483-35.2892L21.7735-4.05591C20.1869-2.44062 19.2624-0.477322 19.2624 1.69117C19.2624 5.97627 22.7941 9.44572 27.1312 9.44572C29.2426 9.44572 31.0397 8.74971 32.5173 7.24348L69.4297-28.8884C71.4601-30.8566 72.304-32.8484 72.304-35.2606Z"/>
  </g>
  <g id="Semibold-M" transform="matrix(1 0 0 1 2005.25 1126)">
   <path d="M70.1622-35.2606C70.144-37.2581 69.4451-38.8989 67.8286-40.4902L30.2676-77.2192C29.0299-78.494 27.5092-79.095 25.6957-79.095C22.0135-79.095 19.0545-76.1984 19.0545-72.5454C19.0545-70.769 19.8205-69.0912 21.123-67.7509L54.5209-35.2788L21.123-2.7704C19.8386-1.43014 19.0545 0.21065 19.0545 2.0423C19.0545 5.69527 22.0135 8.59191 25.6957 8.59191C27.491 8.59191 29.0299 7.99085 30.2676 6.71611L67.8286-30.0311C69.4633-31.6224 70.1622-33.2813 70.1622-35.2606Z"/>
  </g>
  <g id="Medium-M" transform="matrix(1 0 0 1 1709.27 1126)">
   <path d="M68.5382-35.2606C68.5279-36.922 67.9389-38.3183 66.6146-39.6237L28.5618-76.8273C27.506-77.9265 26.1731-78.4555 24.6072-78.4555C21.4216-78.4555 18.897-75.9932 18.897-72.8195C18.897-71.297 19.5642-69.8573 20.6297-68.7256L54.9551-35.2709L20.6297-1.79567C19.5745-0.663947 18.897 0.732298 18.897 2.30853C18.897 5.4822 21.4216 7.9445 24.6072 7.9445C26.1629 7.9445 27.506 7.41545 28.5618 6.31624L66.6146-30.8976C67.9491-32.203 68.5382-33.6095 68.5382-35.2606Z"/>
  </g>
  <g id="Regular-M" transform="matrix(1 0 0 1 1413.52 1126)">
   <path d="M66.4199-35.2606C66.4199-36.4836 65.9742-37.5609 65.0311-38.4935L26.3369-76.316C25.5183-77.1862 24.4305-77.6214 23.1874-77.6214C20.6495-77.6214 18.6914-75.7256 18.6914-73.1771C18.6914-71.9858 19.23-70.8567 19.9862-69.997L55.5215-35.2606L19.9862-0.524279C19.23 0.335433 18.6914 1.41271 18.6914 2.6558C18.6914 5.20428 20.6495 7.10007 23.1874 7.10007C24.4305 7.10007 25.5183 6.66494 26.3369 5.79467L65.0311-32.0278C65.9742-32.9604 66.4199-34.0377 66.4199-35.2606Z"/>
  </g>
  <g id="Light-M" transform="matrix(1 0 0 1 1117.72 1126)">
   <path d="M64.6061-35.2606C64.6061-36.2441 64.246-37.0476 63.4911-37.7748L24.4889-74.8958C23.8586-75.5607 23.0274-75.8932 22.0923-75.8932C20.1875-75.8932 18.6914-74.4594 18.6914-72.5269C18.6914-71.6264 19.0932-70.7883 19.6611-70.151L56.3428-35.2606L19.6611-0.37028C19.0932 0.266989 18.6914 1.07049 18.6914 2.00558C18.6914 3.93807 20.1875 5.37186 22.0923 5.37186C23.0274 5.37186 23.8586 5.0394 24.4889 4.37447L63.4911-32.7465C64.246-33.4737 64.6061-34.2772 64.6061-35.2606Z"/>
  </g>
  <g id="Thin-M" transform="matrix(1 0 0 1 822.203 1126)">
   <path d="M62.2073-35.2606C62.2073-35.9273 61.9603-36.3687 61.4543-36.8243L22.0448-73.0174C21.6634-73.4108 21.1717-73.6075 20.644-73.6075C19.5765-73.6075 18.6914-72.7847 18.6914-71.6669C18.6914-71.1512 18.9121-70.6978 19.2312-70.3547L57.4291-35.2606L19.2312-0.166605C18.9121 0.176466 18.6914 0.617879 18.6914 1.14562C18.6914 2.26341 19.5765 3.08617 20.644 3.08617C21.1717 3.08617 21.6634 2.88949 22.0448 2.49613L61.4543-33.697C61.9603-34.1526 62.2073-34.594 62.2073-35.2606Z"/>
  </g>
  <g id="Ultralight-M" transform="matrix(1 0 0 1 526.107 1126)">
   <path d="M60.9786-35.2606C60.9786-35.765 60.7896-36.0209 60.4111-36.3375L20.7929-72.0553C20.5391-72.3096 20.2212-72.4367 19.9021-72.4367C19.2635-72.4367 18.6914-71.9269 18.6914-71.2264C18.6914-70.9078 18.8194-70.6514 19.0109-70.459L57.9855-35.2606L19.0109-0.0622836C18.8194 0.130101 18.6914 0.386053 18.6914 0.705152C18.6914 1.40565 19.2635 1.91545 19.9021 1.91545C20.2212 1.91545 20.5391 1.78832 20.7929 1.53405L60.4111-34.1838C60.7896-34.5004 60.9786-34.7563 60.9786-35.2606Z"/>
  </g>
  <g id="Black-S" transform="matrix(1 0 0 1 2900.44 696)">
   <path d="M62.0117-35.2539C61.9629-38.2812 60.9375-40.625 58.3984-43.1152L31.1035-69.7754C29.3457-71.5332 27.3438-72.3145 24.8535-72.3145C19.8242-72.3145 15.625-68.1641 15.625-63.2324C15.625-60.7422 16.6504-58.3984 18.7012-56.4453L40.8691-35.3027L18.7012-14.0625C16.6992-12.1094 15.625-9.76562 15.625-7.22656C15.625-2.29492 19.8242 1.85547 24.8535 1.85547C27.2949 1.85547 29.3457 1.07422 31.1035-0.683594L58.3984-27.3926C60.9863-29.8828 62.0117-32.2754 62.0117-35.2539Z"/>
  </g>
  <g id="Heavy-S" transform="matrix(1 0 0 1 2604.69 696)">
   <path d="M59.8682-35.2539C59.8309-37.8203 58.9553-39.8413 56.8196-41.9397L28.8447-69.3836C27.3289-70.9109 25.569-71.5999 23.4014-71.5999C19.0175-71.5999 15.3945-68.0258 15.3945-63.7164C15.3945-61.5604 16.2931-59.5278 18.0212-57.8513L41.3993-35.2912L18.0212-12.6565C16.3304-10.98 15.3945-8.95891 15.3945-6.75406C15.3945-2.44474 19.0175 1.12943 23.4014 1.12943C25.5317 1.12943 27.3289 0.440373 28.8447-1.08695L56.8196-28.5681C58.9926-30.6665 59.8682-32.7248 59.8682-35.2539Z"/>
  </g>
  <g id="Bold-S" transform="matrix(1 0 0 1 2309.05 696)">
   <path d="M57.4707-35.2539C57.4463-37.3047 56.7383-38.9648 55.0537-40.625L26.3184-68.9453C25.0732-70.2148 23.584-70.8008 21.7773-70.8008C18.1152-70.8008 15.1367-67.8711 15.1367-64.2578C15.1367-62.4756 15.8936-60.791 17.2607-59.4238L41.9922-35.2783L17.2607-11.084C15.918-9.7168 15.1367-8.05664 15.1367-6.22559C15.1367-2.6123 18.1152 0.317383 21.7773 0.317383C23.5596 0.317383 25.0732-0.268555 26.3184-1.53809L55.0537-29.8828C56.7627-31.543 57.4707-33.2275 57.4707-35.2539Z"/>
  </g>
  <g id="Semibold-S" transform="matrix(1 0 0 1 2013.07 696)">
   <path d="M55.8178-35.2539C55.8022-36.9492 55.2098-38.3605 53.8362-39.7186L24.5766-68.6432C23.5181-69.735 22.2154-70.2498 20.6576-70.2498C17.4932-70.2498 14.959-67.7645 14.959-64.6311C14.959-63.1065 15.6181-61.6619 16.7364-60.508L42.401-35.2694L16.7364-9.9998C15.6336-8.8459 14.959-7.43457 14.959-5.86123C14.959-2.72783 17.4932-0.24248 20.6576-0.24248C22.1999-0.24248 23.5181-0.757324 24.5766-1.84912L53.8362-30.7893C55.2253-32.1473 55.8178-33.5741 55.8178-35.2539Z"/>
  </g>
  <g id="Medium-S" transform="matrix(1 0 0 1 1716.92 696)">
   <path d="M54.5645-35.2539C54.5557-36.6797 54.0508-37.9023 52.9131-39.0312L23.2559-68.4141C22.3389-69.3711 21.1777-69.832 19.8086-69.832C17.0215-69.832 14.8242-67.6836 14.8242-64.9141C14.8242-63.585 15.4092-62.3223 16.3389-61.3301L42.7109-35.2627L16.3389-9.17773C15.418-8.18555 14.8242-6.96289 14.8242-5.58496C14.8242-2.81543 17.0215-0.666992 19.8086-0.666992C21.1689-0.666992 22.3389-1.12793 23.2559-2.08496L52.9131-31.4766C54.0596-32.6055 54.5645-33.8369 54.5645-35.2539Z"/>
  </g>
  <g id="Regular-S" transform="matrix(1 0 0 1 1420.94 696)">
   <path d="M52.9297-35.2539C52.9297-36.3281 52.5391-37.3047 51.709-38.1348L21.5332-68.1152C20.8008-68.8965 19.8242-69.2871 18.7012-69.2871C16.4062-69.2871 14.6484-67.5781 14.6484-65.2832C14.6484-64.209 15.1367-63.1836 15.8203-62.4023L43.1152-35.2539L15.8203-8.10547C15.1367-7.32422 14.6484-6.34766 14.6484-5.22461C14.6484-2.92969 16.4062-1.2207 18.7012-1.2207C19.8242-1.2207 20.8008-1.61133 21.5332-2.39258L51.709-32.373C52.5391-33.2031 52.9297-34.1797 52.9297-35.2539Z"/>
  </g>
  <g id="Light-S" transform="matrix(1 0 0 1 1125.03 696)">
   <path d="M51.3252-35.2539C51.3252-36.1162 51.0103-36.8506 50.3467-37.499L19.8985-66.8589C19.3325-67.4585 18.583-67.7583 17.7324-67.7583C15.9976-67.7583 14.6484-66.458 14.6484-64.708C14.6484-63.8911 15.0156-63.123 15.5327-62.5386L43.8418-35.2539L15.5327-7.96924C15.0156-7.38477 14.6484-6.65039 14.6484-5.7998C14.6484-4.0498 15.9976-2.7495 17.7324-2.7495C18.583-2.7495 19.3325-3.04931 19.8985-3.64892L50.3467-33.0088C51.0103-33.6572 51.3252-34.3916 51.3252-35.2539Z"/>
  </g>
  <g id="Thin-S" transform="matrix(1 0 0 1 829.379 696)">
   <path d="M49.2032-35.2539C49.2032-35.8359 48.9883-36.25 48.5449-36.6582L17.7364-65.1973C17.3907-65.5567 16.9414-65.7364 16.4512-65.7364C15.457-65.7364 14.6484-64.9766 14.6484-63.9473C14.6484-63.4707 14.8555-63.043 15.1523-62.7187L44.8027-35.2539L15.1523-7.78906C14.8555-7.46484 14.6484-7.05078 14.6484-6.56054C14.6484-5.53123 15.457-4.77146 16.4512-4.77146C16.9414-4.77146 17.3907-4.95115 17.7364-5.31052L48.5449-33.8496C48.9883-34.2578 49.2032-34.6719 49.2032-35.2539Z"/>
  </g>
  <g id="Ultralight-S" transform="matrix(1 0 0 1 533.212 696)">
   <path d="M48.1162-35.2539C48.1162-35.6924 47.9527-35.9424 47.6221-36.2276L16.6289-64.3462C16.396-64.5826 16.1006-64.7007 15.7949-64.7007C15.1802-64.7007 14.6484-64.2178 14.6484-63.5576C14.6484-63.2554 14.7734-63.002 14.9575-62.811L45.2949-35.2539L14.9575-7.69678C14.7734-7.50586 14.6484-7.25585 14.6484-6.95018C14.6484-6.29001 15.1802-5.80709 15.7949-5.80709C16.1006-5.80709 16.396-5.92526 16.6289-6.16159L47.6221-34.2803C47.9527-34.5654 48.1162-34.8154 48.1162-35.2539Z"/>
  </g>
 </g>
</svg>
