<?xml version="1.0" encoding="UTF-8"?>
<!--Generator: Apple Native CoreSVG 341-->
<!DOCTYPE svg
PUBLIC "-//W3C//DTD SVG 1.1//EN"
       "http://www.w3.org/Graphics/SVG/1.1/DTD/svg11.dtd">
<svg version="1.1" xmlns="http://www.w3.org/2000/svg" xmlns:xlink="http://www.w3.org/1999/xlink" viewBox="0 0 3300 2200">
 <g id="Notes">
  <rect height="2200" id="artboard" style="fill:white;opacity:1" width="3300" x="0" y="0"/>
  <line style="fill:none;stroke:black;opacity:1;stroke-width:0.5;" x1="263" x2="3036" y1="292" y2="292"/>
  <text style="stroke:none;fill:black;font-family:sans-serif;font-size:13;font-weight:bold;" transform="matrix(1 0 0 1 263 322)">Weight/Scale Variations</text>
  <text style="stroke:none;fill:black;font-family:sans-serif;font-size:13;text-anchor:middle;" transform="matrix(1 0 0 1 559.711 322)">Ultralight</text>
  <text style="stroke:none;fill:black;font-family:sans-serif;font-size:13;text-anchor:middle;" transform="matrix(1 0 0 1 856.422 322)">Thin</text>
  <text style="stroke:none;fill:black;font-family:sans-serif;font-size:13;text-anchor:middle;" transform="matrix(1 0 0 1 1153.13 322)">Light</text>
  <text style="stroke:none;fill:black;font-family:sans-serif;font-size:13;text-anchor:middle;" transform="matrix(1 0 0 1 1449.84 322)">Regular</text>
  <text style="stroke:none;fill:black;font-family:sans-serif;font-size:13;text-anchor:middle;" transform="matrix(1 0 0 1 1746.56 322)">Medium</text>
  <text style="stroke:none;fill:black;font-family:sans-serif;font-size:13;text-anchor:middle;" transform="matrix(1 0 0 1 2043.27 322)">Semibold</text>
  <text style="stroke:none;fill:black;font-family:sans-serif;font-size:13;text-anchor:middle;" transform="matrix(1 0 0 1 2339.98 322)">Bold</text>
  <text style="stroke:none;fill:black;font-family:sans-serif;font-size:13;text-anchor:middle;" transform="matrix(1 0 0 1 2636.69 322)">Heavy</text>
  <text style="stroke:none;fill:black;font-family:sans-serif;font-size:13;text-anchor:middle;" transform="matrix(1 0 0 1 2933.4 322)">Black</text>
  <line style="fill:none;stroke:black;opacity:1;stroke-width:0.5;" x1="263" x2="3036" y1="1903" y2="1903"/>
  <g transform="matrix(0.2 0 0 0.2 263 1933)">
   <path d="m46.2402 4.15039c21.7773 0 39.4531-17.627 39.4531-39.4043s-17.6758-39.4043-39.4531-39.4043c-21.7285 0-39.4043 17.627-39.4043 39.4043s17.6758 39.4043 39.4043 39.4043Zm0-7.42188c-17.6758 0-31.9336-14.3066-31.9336-31.9824s14.2578-31.9824 31.9336-31.9824 31.9824 14.3066 31.9824 31.9824-14.3066 31.9824-31.9824 31.9824Zm3.61328-17.7734v-28.4668c0-2.24609-1.46484-3.75977-3.71094-3.75977-2.14844 0-3.61328 1.51367-3.61328 3.75977v28.4668c0 2.19727 1.46484 3.71094 3.61328 3.71094 2.24609 0 3.71094-1.51367 3.71094-3.71094Zm-17.8223-10.5957h28.418c2.19727 0 3.71094-1.46484 3.71094-3.61328 0-2.19727-1.51367-3.71094-3.71094-3.71094h-28.418c-2.24609 0-3.75977 1.51367-3.75977 3.71094 0 2.14844 1.51367 3.61328 3.75977 3.61328Z"/>
  </g>
  <g transform="matrix(0.2 0 0 0.2 281.506 1933)">
   <path d="m58.5449 14.5508c27.4902 0 49.8047-22.3145 49.8047-49.8047s-22.3145-49.8047-49.8047-49.8047-49.8047 22.3145-49.8047 49.8047 22.3145 49.8047 49.8047 49.8047Zm0-8.30078c-22.9492 0-41.5039-18.5547-41.5039-41.5039s18.5547-41.5039 41.5039-41.5039 41.5039 18.5547 41.5039 41.5039-18.5547 41.5039-41.5039 41.5039Zm4.05273-23.0957v-36.9141c0-2.49023-1.70898-4.19922-4.15039-4.19922-2.39258 0-4.05273 1.70898-4.05273 4.19922v36.9141c0 2.44141 1.66016 4.15039 4.05273 4.15039 2.44141 0 4.15039-1.66016 4.15039-4.15039Zm-22.5586-14.4043h36.9629c2.44141 0 4.15039-1.61133 4.15039-4.00391 0-2.44141-1.70898-4.15039-4.15039-4.15039h-36.9629c-2.49023 0-4.15039 1.70898-4.15039 4.15039 0 2.39258 1.66016 4.00391 4.15039 4.00391Z"/>
  </g>
  <g transform="matrix(0.2 0 0 0.2 304.924 1933)">
   <path d="m74.8535 28.3203c35.1074 0 63.623-28.4668 63.623-63.5742s-28.5156-63.623-63.623-63.623-63.5742 28.5156-63.5742 63.623 28.4668 63.5742 63.5742 63.5742Zm0-9.08203c-30.127 0-54.4922-24.3652-54.4922-54.4922s24.3652-54.4922 54.4922-54.4922 54.4922 24.3652 54.4922 54.4922-24.3652 54.4922-54.4922 54.4922Zm4.44336-30.3223v-48.4863c0-2.73438-1.85547-4.63867-4.54102-4.63867-2.58789 0-4.44336 1.9043-4.44336 4.63867v48.4863c0 2.68555 1.85547 4.58984 4.44336 4.58984 2.68555 0 4.54102-1.85547 4.54102-4.58984Zm-28.7109-19.7754h48.4863c2.68555 0 4.58984-1.80664 4.58984-4.39453 0-2.73438-1.85547-4.58984-4.58984-4.58984h-48.4863c-2.73438 0-4.58984 1.85547-4.58984 4.58984 0 2.58789 1.85547 4.39453 4.58984 4.39453Z"/>
  </g>
  <text style="stroke:none;fill:black;font-family:sans-serif;font-size:13;font-weight:bold;" transform="matrix(1 0 0 1 263 1953)">Design Variations</text>
  <text style="stroke:none;fill:black;font-family:sans-serif;font-size:13;" transform="matrix(1 0 0 1 263 1971)">Symbols are supported in up to nine weights and three scales.</text>
  <text style="stroke:none;fill:black;font-family:sans-serif;font-size:13;" transform="matrix(1 0 0 1 263 1989)">For optimal layout with text and other symbols, vertically align</text>
  <text style="stroke:none;fill:black;font-family:sans-serif;font-size:13;" transform="matrix(1 0 0 1 263 2007)">symbols with the adjacent text.</text>
  <line style="fill:none;stroke:#00AEEF;stroke-width:0.5;opacity:1.0;" x1="776" x2="776" y1="1919" y2="1933"/>
  <g transform="matrix(0.2 0 0 0.2 776 1933)">
   <path d="m16.5527 0.78125c2.58789 0 3.85742-0.976562 4.78516-3.71094l20.5566-57.5195h0.244141l20.6055 57.5195c0.927734 2.73438 2.19727 3.71094 4.73633 3.71094 2.58789 0 4.24805-1.5625 4.24805-4.00391 0-0.830078-0.146484-1.61133-0.537109-2.63672l-22.9004-60.9863c-1.12305-2.97852-3.125-4.49219-6.25-4.49219-3.02734 0-5.07812 1.46484-6.15234 4.44336l-22.9004 61.084c-0.390625 1.02539-0.537109 1.80664-0.537109 2.63672 0 2.44141 1.5625 3.95508 4.10156 3.95508Zm10.2051-20.9473h30.6641c2.00195 0 3.66211-1.66016 3.66211-3.66211 0-2.05078-1.66016-3.66211-3.66211-3.66211h-30.6641c-2.00195 0-3.66211 1.61133-3.66211 3.66211 0 2.00195 1.66016 3.66211 3.66211 3.66211Z"/>
  </g>
  <line style="fill:none;stroke:#00AEEF;stroke-width:0.5;opacity:1.0;" x1="792.836" x2="792.836" y1="1919" y2="1933"/>
  <text style="stroke:none;fill:black;font-family:sans-serif;font-size:13;font-weight:bold;" transform="matrix(1 0 0 1 776 1953)">Margins</text>
  <text style="stroke:none;fill:black;font-family:sans-serif;font-size:13;" transform="matrix(1 0 0 1 776 1971)">Leading and trailing margins on the left and right side of each symbol</text>
  <text style="stroke:none;fill:black;font-family:sans-serif;font-size:13;" transform="matrix(1 0 0 1 776 1989)">can be adjusted by modifying the x-location of the margin guidelines.</text>
  <text style="stroke:none;fill:black;font-family:sans-serif;font-size:13;" transform="matrix(1 0 0 1 776 2007)">Modifications are automatically applied proportionally to all</text>
  <text style="stroke:none;fill:black;font-family:sans-serif;font-size:13;" transform="matrix(1 0 0 1 776 2025)">scales and weights.</text>
  <g transform="matrix(0.2 0 0 0.2 1289 1933)">
   <path d="m14.209 13.1348 7.86133 7.86133c4.29688 4.39453 9.32617 4.10156 13.8672-1.02539l60.6934-68.2129-4.88281-4.88281-60.2539 67.6758c-1.80664 1.95312-3.4668 2.44141-5.81055 0.0976562l-5.17578-5.12695c-2.29492-2.29492-1.80664-3.95508 0.195312-5.81055l67.4805-62.1582-4.88281-4.83398-68.0664 62.5977c-4.98047 4.58984-5.32227 9.47266-1.02539 13.8184Zm44.873-97.4609c-2.05078 2.00195-2.24609 4.88281-1.07422 6.78711 1.12305 1.80664 3.4668 3.02734 6.5918 2.24609 5.85938-1.66016 12.5977-2.39258 18.8965 0.927734l-2.68555 7.12891c-1.61133 4.00391-0.732422 6.88477 1.70898 9.42383l10.2539 10.3027c2.34375 2.39258 4.54102 2.44141 7.08008 1.95312l4.44336-0.732422 2.58789 2.53906-0.195312 2.24609c-0.0976562 2.29492 0.537109 4.29688 2.7832 6.49414l3.36914 3.32031c2.29492 2.29492 5.51758 2.49023 7.8125 0.195312l12.9883-13.0371c2.29492-2.34375 2.14844-5.37109-0.195312-7.66602l-3.41797-3.41797c-2.19727-2.19727-4.05273-3.02734-6.34766-2.88086l-2.34375 0.244141-2.44141-2.44141 1.02539-4.6875c0.634766-2.73438-0.244141-4.98047-2.88086-7.61719l-11.2793-11.1816c-12.9395-12.8418-35.5957-11.0352-46.6797-0.146484Zm7.08008 2.05078c8.78906-6.39648 25.9766-5.66406 33.6914 1.95312l12.3047 12.207c1.02539 1.02539 1.2207 1.80664 0.927734 3.32031l-1.46484 6.64062 6.73828 6.68945 4.39453-0.244141c1.12305-0.0488281 1.51367 0.0488281 2.34375 0.878906l2.53906 2.49023-10.8398 10.8398-2.49023-2.49023c-0.830078-0.878906-0.976562-1.2207-0.927734-2.39258l0.292969-4.3457-6.68945-6.73828-6.83594 1.17188c-1.41602 0.292969-2.05078 0.195312-3.17383-0.878906l-8.93555-8.88672c-1.07422-1.02539-1.17188-1.70898-0.488281-3.36914l4.58984-11.4746c-6.10352-6.34766-17.041-7.51953-25.5859-4.58984-0.683594 0.244141-0.927734-0.390625-0.390625-0.78125Z"/>
  </g>
  <text style="stroke:none;fill:black;font-family:sans-serif;font-size:13;font-weight:bold;" transform="matrix(1 0 0 1 1289 1953)">Exporting</text>
  <text style="stroke:none;fill:black;font-family:sans-serif;font-size:13;" transform="matrix(1 0 0 1 1289 1971)">Symbols should be outlined when exporting to ensure the</text>
  <text style="stroke:none;fill:black;font-family:sans-serif;font-size:13;" transform="matrix(1 0 0 1 1289 1989)">design is preserved when submitting to Xcode.</text>
  <text id="template-version" style="stroke:none;fill:black;font-family:sans-serif;font-size:13;text-anchor:end;" transform="matrix(1 0 0 1 3036 1933)">Template v.2.0</text>
  <text style="stroke:none;fill:black;font-family:sans-serif;font-size:13;text-anchor:end;" transform="matrix(1 0 0 1 3036 1951)">Requires Xcode 12 or greater</text>
  <text id="descriptive-name" style="stroke:none;fill:black;font-family:sans-serif;font-size:13;text-anchor:end;" transform="matrix(1 0 0 1 3036 1969)">Generated from ellipsis.circle</text>
  <text style="stroke:none;fill:black;font-family:sans-serif;font-size:13;text-anchor:end;" transform="matrix(1 0 0 1 3036 1987)">Typeset at 100.0 points</text>
  <text style="stroke:none;fill:black;font-family:sans-serif;font-size:13;" transform="matrix(1 0 0 1 263 726)">Small</text>
  <text style="stroke:none;fill:black;font-family:sans-serif;font-size:13;" transform="matrix(1 0 0 1 263 1156)">Medium</text>
  <text style="stroke:none;fill:black;font-family:sans-serif;font-size:13;" transform="matrix(1 0 0 1 263 1586)">Large</text>
 </g>
 <g id="Guides">
  <g id="H-reference" style="fill:#27AAE1;stroke:none;" transform="matrix(1 0 0 1 339 696)">
   <path d="M0.993654 0L3.63775 0L29.3281-67.1323L30.0303-67.1323L30.0303-70.459L28.1226-70.459ZM11.6885-24.4799L46.9815-24.4799L46.2315-26.7285L12.4385-26.7285ZM55.1196 0L57.7637 0L30.6382-70.459L29.4326-70.459L29.4326-67.1323Z"/>
  </g>
  <line id="Baseline-S" style="fill:none;stroke:#27AAE1;opacity:1;stroke-width:0.5;" x1="263" x2="3036" y1="696" y2="696"/>
  <line id="Capline-S" style="fill:none;stroke:#27AAE1;opacity:1;stroke-width:0.5;" x1="263" x2="3036" y1="625.541" y2="625.541"/>
  <g id="H-reference" style="fill:#27AAE1;stroke:none;" transform="matrix(1 0 0 1 339 1126)">
   <path d="M0.993654 0L3.63775 0L29.3281-67.1323L30.0303-67.1323L30.0303-70.459L28.1226-70.459ZM11.6885-24.4799L46.9815-24.4799L46.2315-26.7285L12.4385-26.7285ZM55.1196 0L57.7637 0L30.6382-70.459L29.4326-70.459L29.4326-67.1323Z"/>
  </g>
  <line id="Baseline-M" style="fill:none;stroke:#27AAE1;opacity:1;stroke-width:0.5;" x1="263" x2="3036" y1="1126" y2="1126"/>
  <line id="Capline-M" style="fill:none;stroke:#27AAE1;opacity:1;stroke-width:0.5;" x1="263" x2="3036" y1="1055.54" y2="1055.54"/>
  <g id="H-reference" style="fill:#27AAE1;stroke:none;" transform="matrix(1 0 0 1 339 1556)">
   <path d="M0.993654 0L3.63775 0L29.3281-67.1323L30.0303-67.1323L30.0303-70.459L28.1226-70.459ZM11.6885-24.4799L46.9815-24.4799L46.2315-26.7285L12.4385-26.7285ZM55.1196 0L57.7637 0L30.6382-70.459L29.4326-70.459L29.4326-67.1323Z"/>
  </g>
  <line id="Baseline-L" style="fill:none;stroke:#27AAE1;opacity:1;stroke-width:0.5;" x1="263" x2="3036" y1="1556" y2="1556"/>
  <line id="Capline-L" style="fill:none;stroke:#27AAE1;opacity:1;stroke-width:0.5;" x1="263" x2="3036" y1="1485.54" y2="1485.54"/>
  <line id="right-margin" style="fill:none;stroke:#00AEEF;stroke-width:0.5;opacity:1.0;" x1="1508.37" x2="1508.37" y1="1030.79" y2="1150.12"/>
  <line id="left-margin" style="fill:none;stroke:#00AEEF;stroke-width:0.5;opacity:1.0;" x1="1391.32" x2="1391.32" y1="1030.79" y2="1150.12"/>
 </g>
 <g id="Symbols">
  <g id="Black-L" transform="matrix(1 0 0 1 2854.19 1556)">
   <path d="M79.1958 32.6673C116.725 32.6673 147.154 2.25907 147.154-35.2697C147.154-72.7985 116.725-103.207 79.1958-103.207C41.6878-103.207 11.2588-72.7985 11.2588-35.2697C11.2588 2.25907 41.6878 32.6673 79.1958 32.6673ZM79.1958 12.5197C52.7846 12.5197 31.426-8.85853 31.426-35.2697C31.426-61.6809 52.7846-83.0592 79.1958-83.0592C105.607-83.0592 126.985-61.6809 126.985-35.2697C126.985-8.85853 105.607 12.5197 79.1958 12.5197ZM49.0727-24.6491C54.9245-24.6491 59.7177-29.4203 59.7177-35.2721C59.7177-41.1239 54.9037-45.9159 49.0727-45.9159C43.2221-45.9159 38.4497-41.1239 38.4497-35.2721C38.4497-29.4203 43.2221-24.6491 49.0727-24.6491ZM79.175-24.6491C85.0476-24.6491 89.8188-29.4203 89.8188-35.2721C89.8188-41.1239 85.0476-45.9159 79.175-45.9159C73.3232-45.9159 68.552-41.1239 68.552-35.2721C68.552-29.4203 73.3232-24.6491 79.175-24.6491ZM109.298-24.6491C115.149-24.6491 119.921-29.4203 119.921-35.2721C119.921-41.1239 115.149-45.9159 109.298-45.9159C103.425-45.9159 98.653-41.1239 98.653-35.2721C98.653-29.4203 103.425-24.6491 109.298-24.6491Z" data-clipstroke-keyframes="0 4 0 0.49910918 1.5009863 0 0.24850748 0.25060266 1.7493968 0 0.49586442 0.003246713 1.9966586 0 0.75063205 0.7484781 1.2515224 0 1 0.49910918 1.5009863"/>
  </g>
  <g id="Heavy-L" transform="matrix(1 0 0 1 2558.42 1556)">
   <path d="M78.2532 31.7248C115.263 31.7248 145.278 1.74009 145.278-35.2697C145.278-72.2795 115.263-102.264 78.2532-102.264C41.2736-102.264 11.2588-72.2795 11.2588-35.2697C11.2588 1.74009 41.2736 31.7248 78.2532 31.7248ZM78.2532 13.9829C51.0308 13.9829 29.0252-8.04727 29.0252-35.2697C29.0252-62.4921 51.0308-84.5223 78.2532-84.5223C105.476-84.5223 127.506-62.4921 127.506-35.2697C127.506-8.04727 105.476 13.9829 78.2532 13.9829ZM48.3111-25.0617C53.9451-25.0617 58.5661-29.647 58.5661-35.2809C58.5661-40.9149 53.9149-45.5303 48.3111-45.5303C42.6828-45.5303 38.0919-40.9149 38.0919-35.2809C38.0919-29.647 42.6828-25.0617 48.3111-25.0617ZM78.2231-25.0617C83.8872-25.0617 88.4725-29.647 88.4725-35.2809C88.4725-40.9149 83.8872-45.5303 78.2231-45.5303C72.5891-45.5303 68.0038-40.9149 68.0038-35.2809C68.0038-29.647 72.5891-25.0617 78.2231-25.0617ZM108.165-25.0617C113.794-25.0617 118.384-29.647 118.384-35.2809C118.384-40.9149 113.794-45.5303 108.165-45.5303C102.501-45.5303 97.9102-40.9149 97.9102-35.2809C97.9102-29.647 102.501-25.0617 108.165-25.0617Z" data-clipstroke-keyframes="0 4 0 0.49911496 1.500977 0 0.24847426 0.2506417 1.7493632 0 0.49584827 0.0032687387 1.9966583 0 0.75062776 0.7484882 1.2515179 0 1 0.49911496 1.500977"/>
  </g>
  <g id="Bold-L" transform="matrix(1 0 0 1 2262.89 1556)">
   <path d="M77.0704 30.5419C113.427 30.5419 142.92 1.08726 142.92-35.2697C142.92-71.6267 113.427-101.081 77.0704-101.081C40.7514-101.081 11.2588-71.6267 11.2588-35.2697C11.2588 1.08726 40.7514 30.5419 77.0704 30.5419ZM77.0704 15.7963C48.8414 15.7963 26.0292-7.04073 26.0292-35.2697C26.0292-63.4987 48.8414-86.3357 77.0704-86.3357C105.299-86.3357 128.136-63.4987 128.136-35.2697C128.136-7.04073 105.299 15.7963 77.0704 15.7963ZM47.3735-25.6062C52.7236-25.6062 57.1147-29.9461 57.1147-35.2962C57.1147-40.6462 52.6856-45.0241 47.3735-45.0241C42.0366-45.0241 37.6836-40.6462 37.6836-35.2962C37.6836-29.9461 42.0366-25.6062 47.3735-25.6062ZM77.0324-25.6062C82.4205-25.6062 86.7603-29.9461 86.7603-35.2962C86.7603-40.6462 82.4205-45.0241 77.0324-45.0241C71.6823-45.0241 67.3425-40.6462 67.3425-35.2962C67.3425-29.9461 71.6823-25.6062 77.0324-25.6062ZM106.729-25.6062C112.066-25.6062 116.419-29.9461 116.419-35.2962C116.419-40.6462 112.066-45.0241 106.729-45.0241C101.341-45.0241 96.9881-40.6462 96.9881-35.2962C96.9881-29.9461 101.341-25.6062 106.729-25.6062Z" data-clipstroke-keyframes="0 4 0 0.4991212 1.5009787 0 0.24844806 0.25067374 1.7493408 0 0.4958291 0.0032933003 1.9966578 0 0.75062466 0.7484971 1.2515188 0 1 0.4991212 1.5009787"/>
  </g>
  <g id="Semibold-L" transform="matrix(1 0 0 1 1966.99 1556)">
   <path d="M76.2549 29.7265C112.162 29.7265 141.294 0.637211 141.294-35.2697C141.294-71.1766 112.162-100.266 76.2549-100.266C40.3914-100.266 11.2588-71.1766 11.2588-35.2697C11.2588 0.637211 40.3914 29.7265 76.2549 29.7265ZM76.2549 17.0464C47.3321 17.0464 23.9637-6.34682 23.9637-35.2697C23.9637-64.1926 47.3321-87.5858 76.2549-87.5858C105.178-87.5858 128.571-64.1926 128.571-35.2697C128.571-6.34682 105.178 17.0464 76.2549 17.0464ZM46.7271-25.9816C51.8815-25.9816 56.114-30.1523 56.114-35.3067C56.114-40.461 51.8381-44.6751 46.7271-44.6751C41.5912-44.6751 37.4021-40.461 37.4021-35.3067C37.4021-30.1523 41.5912-25.9816 46.7271-25.9816ZM76.2116-25.9816C81.4093-25.9816 85.58-30.1523 85.58-35.3067C85.58-40.461 81.4093-44.6751 76.2116-44.6751C71.0572-44.6751 66.8865-40.461 66.8865-35.3067C66.8865-30.1523 71.0572-25.9816 76.2116-25.9816ZM105.739-25.9816C110.875-25.9816 115.064-30.1523 115.064-35.3067C115.064-40.461 110.875-44.6751 105.739-44.6751C100.542-44.6751 96.3525-40.461 96.3525-35.3067C96.3525-30.1523 100.542-25.9816 105.739-25.9816Z" data-clipstroke-keyframes="0 4 0 0.49912587 1.5009798 0 0.24842998 0.250696 1.7493253 0 0.49581593 0.0033102364 1.9966576 0 0.7506225 0.74850345 1.2515194 0 1 0.49912587 1.5009798"/>
  </g>
  <g id="Medium-L" transform="matrix(1 0 0 1 1670.9 1556)">
   <path d="M75.6366 29.1081C111.202 29.1081 140.062 0.295961 140.062-35.2697C140.062-70.8354 111.202-99.6475 75.6366-99.6475C40.1184-99.6475 11.2588-70.8354 11.2588-35.2697C11.2588 0.295961 40.1184 29.1081 75.6366 29.1081ZM75.6366 17.9943C46.1876 17.9943 22.3976-5.82067 22.3976-35.2697C22.3976-64.7187 46.1876-88.5337 75.6366-88.5337C105.086-88.5337 128.901-64.7187 128.901-35.2697C128.901-5.82067 105.086 17.9943 75.6366 17.9943ZM46.237-26.2662C51.243-26.2662 55.3553-30.3086 55.3553-35.3146C55.3553-40.3206 51.1955-44.4105 46.237-44.4105C41.2535-44.4105 37.1886-40.3206 37.1886-35.3146C37.1886-30.3086 41.2535-26.2662 46.237-26.2662ZM75.5892-26.2662C80.6426-26.2662 84.685-30.3086 84.685-35.3146C84.685-40.3206 80.6426-44.4105 75.5892-44.4105C70.5832-44.4105 66.5408-40.3206 66.5408-35.3146C66.5408-30.3086 70.5832-26.2662 75.5892-26.2662ZM104.989-26.2662C109.972-26.2662 114.037-30.3086 114.037-35.3146C114.037-40.3206 109.972-44.4105 104.989-44.4105C99.9354-44.4105 95.8705-40.3206 95.8705-35.3146C95.8705-30.3086 99.9354-26.2662 104.989-26.2662Z" data-clipstroke-keyframes="0 4 0 0.49912962 1.5009806 0 0.24841629 0.250713 1.7493135 0 0.4958059 0.00332308 1.9966574 0 0.75062096 0.74850833 1.2515199 0 1 0.49912962 1.5009806"/>
  </g>
  <g id="Regular-L" transform="matrix(1 0 0 1 1374.99 1556)">
   <path d="M74.8301 28.3017C109.951 28.3017 138.454-0.149147 138.454-35.2697C138.454-70.3903 109.951-98.8411 74.8301-98.8411C39.7624-98.8411 11.2588-70.3903 11.2588-35.2697C11.2588-0.149147 39.7624 28.3017 74.8301 28.3017ZM74.8301 19.2307C44.6948 19.2307 20.3549-5.13439 20.3549-35.2697C20.3549-65.405 44.6948-89.7701 74.8301-89.7701C104.965-89.7701 129.331-65.405 129.331-35.2697C129.331-5.13439 104.965 19.2307 74.8301 19.2307ZM45.5977-26.6375C50.4101-26.6375 54.3656-30.5126 54.3656-35.325C54.3656-40.1375 50.3574-44.0653 45.5977-44.0653C40.8129-44.0653 36.9102-40.1375 36.9102-35.325C36.9102-30.5126 40.8129-26.6375 45.5977-26.6375ZM74.7774-26.6375C79.6426-26.6375 83.5177-30.5126 83.5177-35.325C83.5177-40.1375 79.6426-44.0653 74.7774-44.0653C69.9649-44.0653 66.0899-40.1375 66.0899-35.325C66.0899-30.5126 69.9649-26.6375 74.7774-26.6375ZM104.01-26.6375C108.795-26.6375 112.697-30.5126 112.697-35.325C112.697-40.1375 108.795-44.0653 104.01-44.0653C99.1446-44.0653 95.2419-40.1375 95.2419-35.325C95.2419-30.5126 99.1446-26.6375 104.01-26.6375Z" data-clipstroke-keyframes="0 4 0 0.4991348 1.5009816 0 0.24839842 0.2507353 1.7492981 0 0.49579284 0.0033398352 1.9966571 0 0.7506188 0.7485149 1.2515205 0 1 0.4991348 1.5009816"/>
  </g>
  <g id="Light-L" transform="matrix(1 0 0 1 1079.2 1556)">
   <path d="M73.9141 27.3856C108.519 27.3856 136.603-0.66445 136.603-35.2697C136.603-69.875 108.519-97.925 73.9141-97.925C39.3425-97.925 11.2588-69.875 11.2588-35.2697C11.2588-0.66445 39.3425 27.3856 73.9141 27.3856ZM73.9141 20.4903C43.0726 20.4903 18.141-4.42824 18.141-35.2697C18.141-66.1112 43.0726-91.0297 73.9141-91.0297C104.756-91.0297 129.674-66.1112 129.674-35.2697C129.674-4.42824 104.756 20.4903 73.9141 20.4903ZM44.987-27.2292C49.5131-27.2292 53.2014-30.837 53.2014-35.3632C53.2014-39.8894 49.4795-43.5309 44.987-43.5309C40.5075-43.5309 36.8529-39.8894 36.8529-35.3632C36.8529-30.837 40.5075-27.2292 44.987-27.2292ZM73.8804-27.2292C78.4402-27.2292 82.0481-30.837 82.0481-35.3632C82.0481-39.8894 78.4402-43.5309 73.8804-43.5309C69.3542-43.5309 65.7463-39.8894 65.7463-35.3632C65.7463-30.837 69.3542-27.2292 73.8804-27.2292ZM102.807-27.2292C107.287-27.2292 110.941-30.837 110.941-35.3632C110.941-39.8894 107.287-43.5309 102.807-43.5309C98.2476-43.5309 94.593-39.8894 94.593-35.3632C94.593-30.837 98.2476-27.2292 102.807-27.2292Z" data-clipstroke-keyframes="0 4 0 0.4991267 1.5010552 0 0.24847661 0.250649 1.7494005 0 0.49578533 0.0033392205 1.9966568 0 0.750631 0.7484946 1.2515575 0 1 0.4991267 1.5010552"/>
  </g>
  <g id="Thin-L" transform="matrix(1 0 0 1 783.716 1556)">
   <path d="M72.7024 26.174C106.626 26.174 134.155-1.34598 134.155-35.2697C134.155-69.1934 106.626-96.7134 72.7024-96.7134C38.7872-96.7134 11.2588-69.1934 11.2588-35.2697C11.2588-1.34598 38.7872 26.174 72.7024 26.174ZM72.7024 22.1563C40.927 22.1563 15.2129-3.49429 15.2129-35.2697C15.2129-67.0451 40.927-92.6957 72.7024-92.6957C104.478-92.6957 130.128-67.0451 130.128-35.2697C130.128-3.49429 104.478 22.1563 72.7024 22.1563ZM44.1792-28.0116C48.3268-28.0116 51.6617-31.2661 51.6617-35.4137C51.6617-39.5612 48.3183-42.8241 44.1792-42.8241C40.1037-42.8241 36.7772-39.5612 36.7772-35.4137C36.7772-31.2661 40.1037-28.0116 44.1792-28.0116ZM72.694-28.0116C76.85-28.0116 80.1045-31.2661 80.1045-35.4137C80.1045-39.5612 76.85-42.8241 72.694-42.8241C68.5465-42.8241 65.292-39.5612 65.292-35.4137C65.292-31.2661 68.5465-28.0116 72.694-28.0116ZM101.217-28.0116C105.293-28.0116 108.619-31.2661 108.619-35.4137C108.619-39.5612 105.293-42.8241 101.217-42.8241C97.0612-42.8241 93.7348-39.5612 93.7348-35.4137C93.7348-31.2661 97.0612-28.0116 101.217-28.0116Z" data-clipstroke-keyframes="0 4 0 0.49911413 1.5011477 0 0.24858002 0.25053394 1.7495334 0 0.49577537 0.003338395 1.9966562 0 0.75064707 0.7484669 1.2516038 0 1 0.49911413 1.5011477"/>
  </g>
  <g id="Ultralight-L" transform="matrix(1 0 0 1 487.631 1556)">
   <path d="M72.0819 25.5534C105.657 25.5534 132.9-1.69505 132.9-35.2697C132.9-68.8443 105.657-96.0928 72.0819-96.0928C38.5027-96.0928 11.2588-68.8443 11.2588-35.2697C11.2588-1.69505 38.5027 25.5534 72.0819 25.5534ZM72.0819 23.0096C39.8281 23.0096 13.7132-3.01593 13.7132-35.2697C13.7132-67.5235 39.8281-93.549 72.0819-93.549C104.336-93.549 130.361-67.5235 130.361-35.2697C130.361-3.01593 104.336 23.0096 72.0819 23.0096ZM43.7655-28.4124C47.7191-28.4124 50.873-31.4859 50.873-35.4395C50.873-39.3931 47.7236-42.4621 43.7655-42.4621C39.8968-42.4621 36.7384-39.3931 36.7384-35.4395C36.7384-31.4859 39.8968-28.4124 43.7655-28.4124ZM72.0864-28.4124C76.0355-28.4124 79.109-31.4859 79.109-35.4395C79.109-39.3931 76.0355-42.4621 72.0864-42.4621C68.1328-42.4621 65.0593-39.3931 65.0593-35.4395C65.0593-31.4859 68.1328-28.4124 72.0864-28.4124ZM100.403-28.4124C104.271-28.4124 107.43-31.4859 107.43-35.4395C107.43-39.3931 104.271-42.4621 100.403-42.4621C96.4536-42.4621 93.2952-39.3931 93.2952-35.4395C93.2952-31.4859 96.4536-28.4124 100.403-28.4124Z" data-clipstroke-keyframes="0 4 0 0.4991068 1.5011932 0 0.248633 0.25047454 1.7496005 0 0.49577028 0.0033379663 1.996656 0 0.7506553 0.74845225 1.2516266 0 1 0.4991068 1.5011932"/>
  </g>
  <g id="Black-M" transform="matrix(1 0 0 1 2871.36 1126)">
   <path d="M62.0422 18.0589C91.4936 18.0589 115.367-5.80932 115.367-35.2606C115.367-64.712 91.4936-88.5802 62.0422-88.5802C32.5964-88.5802 8.72266-64.712 8.72266-35.2606C8.72266-5.80932 32.5964 18.0589 62.0422 18.0589ZM62.0422 0.677054C42.1819 0.677054 26.1103-15.4003 26.1103-35.2606C26.1103-55.1209 42.1819-71.1983 62.0422-71.1983C81.9025-71.1983 97.9799-55.1209 97.9799-35.2606C97.9799-15.4003 81.9025 0.677054 62.0422 0.677054ZM38.5905-26.758C43.2726-26.758 47.0978-30.578 47.0978-35.2601C47.0978-39.9422 43.2671-43.7677 38.5905-43.7677C33.9081-43.7677 30.0884-39.9422 30.0884-35.2601C30.0884-30.578 33.9081-26.758 38.5905-26.758ZM62.0367-26.758C66.7243-26.758 70.5443-30.578 70.5443-35.2601C70.5443-39.9422 66.7243-43.7677 62.0367-43.7677C57.3546-43.7677 53.5347-39.9422 53.5347-35.2601C53.5347-30.578 57.3546-26.758 62.0367-26.758ZM85.4885-26.758C90.1709-26.758 93.9906-30.578 93.9906-35.2601C93.9906-39.9422 90.1709-43.7677 85.4885-43.7677C80.8009-43.7677 76.9812-39.9422 76.9812-35.2601C76.9812-30.578 80.8009-26.758 85.4885-26.758Z" data-clipstroke-keyframes="0 4 0 0.4991024 1.5010128 0 0.24855801 0.25054482 1.7494538 0 0.49588108 0.0032221824 1.9966589 0 0.7506389 0.74846387 1.2515355 0 1 0.4991024 1.5010128"/>
  </g>
  <g id="Heavy-M" transform="matrix(1 0 0 1 2575.48 1126)">
   <path d="M61.2053 17.222C90.1969 17.222 113.704-6.26912 113.704-35.2606C113.704-64.2522 90.1969-87.7433 61.2053-87.7433C32.2302-87.7433 8.72266-64.2522 8.72266-35.2606C8.72266-6.26912 32.2302 17.222 61.2053 17.222ZM61.2053 1.99116C40.6171 1.99116 23.9677-14.6724 23.9677-35.2606C23.9677-55.8489 40.6171-72.5124 61.2053-72.5124C81.7936-72.5124 98.4571-55.8489 98.4571-35.2606C98.4571-14.6724 81.7936 1.99116 61.2053 1.99116ZM37.9023-27.1067C42.3979-27.1067 46.0794-30.7697 46.0794-35.2652C46.0794-39.7607 42.3814-43.44 37.9023-43.44C33.4091-43.44 29.7439-39.7607 29.7439-35.2652C29.7439-30.7697 33.4091-27.1067 37.9023-27.1067ZM61.1889-27.1067C65.7009-27.1067 69.3638-30.7697 69.3638-35.2652C69.3638-39.7607 65.7009-43.44 61.1889-43.44C56.6934-43.44 53.0305-39.7607 53.0305-35.2652C53.0305-30.7697 56.6934-27.1067 61.1889-27.1067ZM84.492-27.1067C88.9852-27.1067 92.6504-30.7697 92.6504-35.2652C92.6504-39.7607 88.9852-43.44 84.492-43.44C79.98-43.44 76.3148-39.7607 76.3148-35.2652C76.3148-30.7697 79.98-27.1067 84.492-27.1067Z" data-clipstroke-keyframes="0 4 0 0.4991097 1.5009897 0 0.24850677 0.25060385 1.7493978 0 0.49586156 0.003250038 1.9966586 0 0.75063205 0.74847853 1.2515241 0 1 0.4991097 1.5009897"/>
  </g>
  <g id="Bold-M" transform="matrix(1 0 0 1 2279.69 1126)">
   <path d="M60.2692 16.2859C88.7463 16.2859 111.844-6.78347 111.844-35.2606C111.844-63.7378 88.7463-86.8071 60.2692-86.8071C31.8206-86.8071 8.72266-63.7378 8.72266-35.2606C8.72266-6.78347 31.8206 16.2859 60.2692 16.2859ZM60.2692 3.46117C38.8667 3.46117 21.5708-13.8582 21.5708-35.2606C21.5708-56.6631 38.8667-73.9825 60.2692-73.9825C81.6717-73.9825 98.991-56.6631 98.991-35.2606C98.991-13.8582 81.6717 3.46117 60.2692 3.46117ZM37.1325-27.4969C41.4193-27.4969 44.9403-30.9841 44.9403-35.2709C44.9403-39.5577 41.3907-43.0736 37.1325-43.0736C32.8508-43.0736 29.3585-39.5577 29.3585-35.2709C29.3585-30.9841 32.8508-27.4969 37.1325-27.4969ZM60.2405-27.4969C64.556-27.4969 68.0432-30.9841 68.0432-35.2709C68.0432-39.5577 64.556-43.0736 60.2405-43.0736C55.9537-43.0736 52.4665-39.5577 52.4665-35.2709C52.4665-30.9841 55.9537-27.4969 60.2405-27.4969ZM83.3772-27.4969C87.6589-27.4969 91.1512-30.9841 91.1512-35.2709C91.1512-39.5577 87.6589-43.0736 83.3772-43.0736C79.0618-43.0736 75.5694-39.5577 75.5694-35.2709C75.5694-30.9841 79.0618-27.4969 83.3772-27.4969Z" data-clipstroke-keyframes="0 4 0 0.49911895 1.5009658 0 0.24844946 0.25067046 1.749336 0 0.49583972 0.0032812099 1.9966581 0 0.7506244 0.7484955 1.2515123 0 1 0.49911895 1.5009658"/>
  </g>
  <g id="Semibold-M" transform="matrix(1 0 0 1 1983.62 1126)">
   <path d="M59.6238 15.6405C87.7463 15.6405 110.562-7.13807 110.562-35.2606C110.562-63.3832 87.7463-86.1618 59.6238-86.1618C31.5382-86.1618 8.72266-63.3832 8.72266-35.2606C8.72266-7.13807 31.5382 15.6405 59.6238 15.6405ZM59.6238 4.47459C37.6599 4.47459 19.9185-13.2968 19.9185-35.2606C19.9185-57.2245 37.6599-74.9959 59.6238-74.9959C81.5876-74.9959 99.359-57.2245 99.359-35.2606C99.359-13.2968 81.5876 4.47459 59.6238 4.47459ZM36.6018-27.7658C40.7447-27.7658 44.1549-31.1319 44.1549-35.2749C44.1549-39.4178 40.7077-42.8209 36.6018-42.8209C32.4659-42.8209 29.0928-39.4178 29.0928-35.2749C29.0928-31.1319 32.4659-27.7658 36.6018-27.7658ZM59.5867-27.7658C63.7667-27.7658 67.1328-31.1319 67.1328-35.2749C67.1328-39.4178 63.7667-42.8209 59.5867-42.8209C55.4438-42.8209 52.0777-39.4178 52.0777-35.2749C52.0777-31.1319 55.4438-27.7658 59.5867-27.7658ZM82.6087-27.7658C86.7445-27.7658 90.1177-31.1319 90.1177-35.2749C90.1177-39.4178 86.7445-42.8209 82.6087-42.8209C78.4287-42.8209 75.0555-39.4178 75.0555-35.2749C75.0555-31.1319 78.4287-27.7658 82.6087-27.7658Z" data-clipstroke-keyframes="0 4 0 0.49912608 1.5009503 0 0.24840996 0.25071678 1.749294 0 0.4958247 0.0033027069 1.9966578 0 0.7506191 0.74850756 1.2515047 0 1 0.49912608 1.5009503"/>
  </g>
  <g id="Medium-M" transform="matrix(1 0 0 1 1687.4 1126)">
   <path d="M59.1344 15.1511C86.9881 15.1511 109.59-7.40694 109.59-35.2606C109.59-63.1144 86.9881-85.6724 59.1344-85.6724C31.3241-85.6724 8.72266-63.1144 8.72266-35.2606C8.72266-7.40694 31.3241 15.1511 59.1344 15.1511ZM59.1344 5.24301C36.7449 5.24301 18.6656-12.8711 18.6656-35.2606C18.6656-57.6501 36.7449-75.7643 59.1344-75.7643C81.5239-75.7643 99.6381-57.6501 99.6381-35.2606C99.6381-12.8711 81.5239 5.24301 59.1344 5.24301ZM36.1994-27.9698C40.2332-27.9698 43.5595-31.244 43.5595-35.2778C43.5595-39.3117 40.1898-42.6293 36.1994-42.6293C32.1741-42.6293 28.8913-39.3117 28.8913-35.2778C28.8913-31.244 32.1741-27.9698 36.1994-27.9698ZM59.091-27.9698C63.1682-27.9698 66.4425-31.244 66.4425-35.2778C66.4425-39.3117 63.1682-42.6293 59.091-42.6293C55.0571-42.6293 51.7829-39.3117 51.7829-35.2778C51.7829-31.244 55.0571-27.9698 59.091-27.9698ZM82.026-27.9698C86.0512-27.9698 89.3341-31.244 89.3341-35.2778C89.3341-39.3117 86.0512-42.6293 82.026-42.6293C77.9487-42.6293 74.6659-39.3117 74.6659-35.2778C74.6659-31.244 77.9487-27.9698 82.026-27.9698Z" data-clipstroke-keyframes="0 4 0 0.4991319 1.5009391 0 0.24837999 0.25075206 1.7492626 0 0.49581325 0.0033190108 1.9966576 0 0.7506151 0.7485169 1.251499 0 1 0.4991319 1.5009391"/>
  </g>
  <g id="Regular-M" transform="matrix(1 0 0 1 1391.32 1126)">
   <path d="M58.4961 14.5128C85.9991 14.5128 108.321-7.75763 108.321-35.2606C108.321-62.7637 85.9991-85.0341 58.4961-85.0341C31.0448-85.0341 8.72266-62.7637 8.72266-35.2606C8.72266-7.75763 31.0448 14.5128 58.4961 14.5128ZM58.4961 6.24529C35.5514 6.24529 17.0314-12.316 17.0314-35.2606C17.0314-58.2053 35.5514-76.7666 58.4961-76.7666C81.4408-76.7666 100.002-58.2053 100.002-35.2606C100.002-12.316 81.4408 6.24529 58.4961 6.24529ZM35.6745-28.2358C39.566-28.2358 42.7828-31.3902 42.7828-35.2817C42.7828-39.1733 39.5143-42.3795 35.6745-42.3795C31.7935-42.3795 28.6285-39.1733 28.6285-35.2817C28.6285-31.3902 31.7935-28.2358 35.6745-28.2358ZM58.4443-28.2358C62.3876-28.2358 65.5421-31.3902 65.5421-35.2817C65.5421-39.1733 62.3876-42.3795 58.4443-42.3795C54.5528-42.3795 51.3984-39.1733 51.3984-35.2817C51.3984-31.3902 54.5528-28.2358 58.4443-28.2358ZM81.2659-28.2358C85.1469-28.2358 88.3119-31.3902 88.3119-35.2817C88.3119-39.1733 85.1469-42.3795 81.2659-42.3795C77.3227-42.3795 74.1577-39.1733 74.1577-35.2817C74.1577-31.3902 77.3227-28.2358 81.2659-28.2358Z" data-clipstroke-keyframes="0 4 0 0.49914 1.5009251 0 0.2483409 0.2507984 1.7492216 0 0.49579838 0.0033402822 1.9966574 0 0.7506099 0.74852943 1.2514921 0 1 0.49914 1.5009251"/>
  </g>
  <g id="Light-M" transform="matrix(1 0 0 1 1095.44 1126)">
   <path d="M57.6748 13.6915C84.7158 13.6915 106.662-8.21963 106.662-35.2606C106.662-62.3017 84.7158-84.2128 57.6748-84.2128C30.6684-84.2128 8.72266-62.3017 8.72266-35.2606C8.72266-8.21963 30.6684 13.6915 57.6748 13.6915ZM57.6748 7.37462C34.097 7.37462 15.0465-11.6829 15.0465-35.2606C15.0465-58.8384 34.097-77.8959 57.6748-77.8959C81.2526-77.8959 100.31-58.8384 100.31-35.2606C100.31-11.6829 81.2526 7.37462 57.6748 7.37462ZM35.1269-28.7662C38.7618-28.7662 41.739-31.6811 41.739-35.316C41.739-38.9508 38.7272-41.9004 35.1269-41.9004C31.5197-41.9004 28.5772-38.9508 28.5772-35.316C28.5772-31.6811 31.5197-28.7662 35.1269-28.7662ZM57.6401-28.7662C61.3096-28.7662 64.2245-31.6811 64.2245-35.316C64.2245-38.9508 61.3096-41.9004 57.6401-41.9004C54.0052-41.9004 51.0904-38.9508 51.0904-35.316C51.0904-31.6811 54.0052-28.7662 57.6401-28.7662ZM80.188-28.7662C83.7952-28.7662 86.7377-31.6811 86.7377-35.316C86.7377-38.9508 83.7952-41.9004 80.188-41.9004C76.5184-41.9004 73.5759-38.9508 73.5759-35.316C73.5759-31.6811 76.5184-28.7662 80.188-28.7662Z" data-clipstroke-keyframes="0 4 0 0.49913153 1.501013 0 0.2484314 0.25069898 1.7493415 0 0.49578968 0.003339577 1.9966569 0 0.75062394 0.7485064 1.2515363 0 1 0.49913153 1.501013"/>
  </g>
  <g id="Thin-M" transform="matrix(1 0 0 1 799.828 1126)">
   <path d="M56.5885 12.6052C83.0185 12.6052 104.466-8.83065 104.466-35.2606C104.466-61.6906 83.0185-83.1265 56.5885-83.1265C30.1705-83.1265 8.72266-61.6906 8.72266-35.2606C8.72266-8.83065 30.1705 12.6052 56.5885 12.6052ZM56.5885 8.86824C32.1734 8.86824 12.4213-10.8455 12.4213-35.2606C12.4213-59.6758 32.1734-79.3895 56.5885-79.3895C81.0036-79.3895 100.717-59.6758 100.717-35.2606C100.717-10.8455 81.0036 8.86824 56.5885 8.86824ZM34.4027-29.4678C37.6982-29.4678 40.3585-32.0658 40.3585-35.3612C40.3585-38.6566 37.6862-41.2667 34.4027-41.2667C31.1576-41.2667 28.5093-38.6566 28.5093-35.3612C28.5093-32.0658 31.1576-29.4678 34.4027-29.4678ZM56.5765-29.4678C59.8839-29.4678 62.482-32.0658 62.482-35.3612C62.482-38.6566 59.8839-41.2667 56.5765-41.2667C53.2811-41.2667 50.683-38.6566 50.683-35.3612C50.683-32.0658 53.2811-29.4678 56.5765-29.4678ZM78.7622-29.4678C82.0074-29.4678 84.6557-32.0658 84.6557-35.3612C84.6557-38.6566 82.0074-41.2667 78.7622-41.2667C75.4548-41.2667 72.8065-38.6566 72.8065-35.3612C72.8065-32.0658 75.4548-29.4678 78.7622-29.4678Z" data-clipstroke-keyframes="0 4 0 0.49911785 1.5011225 0 0.24855107 0.25056624 1.7494965 0 0.49577817 0.0033386275 1.9966564 0 0.7506426 0.7484748 1.2515912 0 1 0.49911785 1.5011225"/>
  </g>
  <g id="Ultralight-M" transform="matrix(1 0 0 1 503.679 1126)">
   <path d="M56.0321 12.0488C82.1491 12.0488 103.342-9.14362 103.342-35.2606C103.342-61.3777 82.1491-82.5701 56.0321-82.5701C29.9155-82.5701 8.72266-61.3777 8.72266-35.2606C8.72266-9.14362 29.9155 12.0488 56.0321 12.0488ZM56.0321 9.63326C31.1881 9.63326 11.0767-10.4166 11.0767-35.2606C11.0767-60.1046 31.1881-80.1545 56.0321-80.1545C80.8761-80.1545 100.926-60.1046 100.926-35.2606C100.926-10.4166 80.8761 9.63326 56.0321 9.63326ZM34.0318-29.8271C37.1534-29.8271 39.6515-32.2629 39.6515-35.3844C39.6515-38.506 37.153-40.9422 34.0318-40.9422C30.9722-40.9422 28.4745-38.506 28.4745-35.3844C28.4745-32.2629 30.9722-29.8271 34.0318-29.8271ZM56.0317-29.8271C59.1537-29.8271 61.5894-32.2629 61.5894-35.3844C61.5894-38.506 59.1537-40.9422 56.0317-40.9422C52.9101-40.9422 50.4744-38.506 50.4744-35.3844C50.4744-32.2629 52.9101-29.8271 56.0317-29.8271ZM78.032-29.8271C81.0916-29.8271 83.5893-32.2629 83.5893-35.3844C83.5893-38.506 81.0916-40.9422 78.032-40.9422C74.91-40.9422 72.4124-38.506 72.4124-35.3844C72.4124-32.2629 74.91-29.8271 78.032-29.8271Z" data-clipstroke-keyframes="0 4 0 0.49910972 1.5011756 0 0.24861237 0.25049773 1.7495744 0 0.49577227 0.0033381337 1.9966561 0 0.7506521 0.748458 1.2516178 0 1 0.49910972 1.5011756"/>
  </g>
  <g id="Black-S" transform="matrix(1 0 0 1 2884.57 696)">
   <path d="M48.8281 6.73828C72.0215 6.73828 90.8203-12.0605 90.8203-35.2539C90.8203-58.4473 72.0215-77.2461 48.8281-77.2461C25.6348-77.2461 6.83594-58.4473 6.83594-35.2539C6.83594-12.0605 25.6348 6.73828 48.8281 6.73828ZM48.8281-7.42188C33.4473-7.42188 20.9961-19.873 20.9961-35.2539C20.9961-50.6348 33.4473-63.0859 48.8281-63.0859C64.209-63.0859 76.6602-50.6348 76.6602-35.2539C76.6602-19.873 64.209-7.42188 48.8281-7.42188ZM30.4199-28.5156C34.1309-28.5156 37.1582-31.543 37.1582-35.2539C37.1582-38.9648 34.1309-41.9922 30.4199-41.9922C26.709-41.9922 23.6816-38.9648 23.6816-35.2539C23.6816-31.543 26.709-28.5156 30.4199-28.5156ZM48.8281-28.5156C52.5391-28.5156 55.5664-31.543 55.5664-35.2539C55.5664-38.9648 52.5391-41.9922 48.8281-41.9922C45.1172-41.9922 42.0898-38.9648 42.0898-35.2539C42.0898-31.543 45.1172-28.5156 48.8281-28.5156ZM67.2363-28.5156C70.9473-28.5156 73.9746-31.543 73.9746-35.2539C73.9746-38.9648 70.9473-41.9922 67.2363-41.9922C63.5254-41.9922 60.498-38.9648 60.498-35.2539C60.498-31.543 63.5254-28.5156 67.2363-28.5156Z" data-clipstroke-keyframes="0 4 0 0.49909934 1.5010297 0 0.24858454 0.2505148 1.749485 0 0.49588796 0.0032113674 1.996659 0 0.7506426 0.7484567 1.251544 0 1 0.49909934 1.5010297"/>
  </g>
  <g id="Heavy-S" transform="matrix(1 0 0 1 2588.47 696)">
   <path d="M48.2173 6.12748C71.0765 6.12748 89.6102-12.3948 89.6102-35.2539C89.6102-58.1131 71.0765-76.6353 48.2173-76.6353C25.3697-76.6353 6.83594-58.1131 6.83594-35.2539C6.83594-12.3948 25.3697 6.12748 48.2173 6.12748ZM48.2173-6.4423C32.2948-6.4423 19.4172-19.3314 19.4172-35.2539C19.4172-51.1764 32.2948-64.0655 48.2173-64.0655C64.1398-64.0655 77.0289-51.1764 77.0289-35.2539C77.0289-19.3314 64.1398-6.4423 48.2173-6.4423ZM29.9013-28.7461C33.4855-28.7461 36.4206-31.6697 36.4206-35.2539C36.4206-38.8381 33.474-41.7732 29.9013-41.7732C26.3172-41.7732 23.3935-38.8381 23.3935-35.2539C23.3935-31.6697 26.3172-28.7461 29.9013-28.7461ZM48.2058-28.7461C51.8015-28.7461 54.7251-31.6697 54.7251-35.2539C54.7251-38.8381 51.8015-41.7732 48.2058-41.7732C44.6216-41.7732 41.698-38.8381 41.698-35.2539C41.698-31.6697 44.6216-28.7461 48.2058-28.7461ZM66.5218-28.7461C70.106-28.7461 73.0296-31.6697 73.0296-35.2539C73.0296-38.8381 70.106-41.7732 66.5218-41.7732C62.9261-41.7732 60.0025-38.8381 60.0025-35.2539C60.0025-31.6697 62.9261-28.7461 66.5218-28.7461Z" data-clipstroke-keyframes="0 4 0 0.49910805 1.5009875 0 0.24851386 0.25059512 1.749403 0 0.4958681 0.0032418747 1.9966587 0 0.7506328 0.74847615 1.251523 0 1 0.49910805 1.5009875"/>
  </g>
  <g id="Bold-S" transform="matrix(1 0 0 1 2292.43 696)">
   <path d="M47.5342 5.44434C70.0195 5.44434 88.2568-12.7686 88.2568-35.2539C88.2568-57.7393 70.0195-75.9521 47.5342-75.9521C25.0732-75.9521 6.83594-57.7393 6.83594-35.2539C6.83594-12.7686 25.0732 5.44434 47.5342 5.44434ZM47.5342-5.34668C31.0059-5.34668 17.6514-18.7256 17.6514-35.2539C17.6514-51.7822 31.0059-65.1611 47.5342-65.1611C64.0625-65.1611 77.4414-51.7822 77.4414-35.2539C77.4414-18.7256 64.0625-5.34668 47.5342-5.34668ZM29.3213-29.0039C32.7637-29.0039 35.5957-31.8115 35.5957-35.2539C35.5957-38.6963 32.7393-41.5283 29.3213-41.5283C25.8789-41.5283 23.0713-38.6963 23.0713-35.2539C23.0713-31.8115 25.8789-29.0039 29.3213-29.0039ZM47.5098-29.0039C50.9766-29.0039 53.7842-31.8115 53.7842-35.2539C53.7842-38.6963 50.9766-41.5283 47.5098-41.5283C44.0674-41.5283 41.2598-38.6963 41.2598-35.2539C41.2598-31.8115 44.0674-29.0039 47.5098-29.0039ZM65.7227-29.0039C69.165-29.0039 71.9727-31.8115 71.9727-35.2539C71.9727-38.6963 69.165-41.5283 65.7227-41.5283C62.2559-41.5283 59.4482-38.6963 59.4482-35.2539C59.4482-31.8115 62.2559-29.0039 65.7227-29.0039Z" data-clipstroke-keyframes="0 4 0 0.49911916 1.5009434 0 0.24843483 0.25068566 1.7493129 0 0.49584585 0.0032760105 1.9966583 0 0.7506219 0.74849856 1.2515011 0 1 0.49911916 1.5009434"/>
  </g>
  <g id="Semibold-S" transform="matrix(1 0 0 1 1996.19 696)">
   <path d="M47.0632 4.97334C69.2908 4.97334 87.3237-13.0263 87.3237-35.2539C87.3237-57.4815 69.2908-75.4812 47.0632-75.4812C24.8688-75.4812 6.83594-57.4815 6.83594-35.2539C6.83594-13.0263 24.8688 4.97334 47.0632 4.97334ZM47.0632-4.59131C30.1172-4.59131 16.4339-18.3079 16.4339-35.2539C16.4339-52.1999 30.1172-65.9165 47.0632-65.9165C64.0092-65.9165 77.7258-52.1999 77.7258-35.2539C77.7258-18.3079 64.0092-4.59131 47.0632-4.59131ZM28.9214-29.1816C32.266-29.1816 35.027-31.9093 35.027-35.2539C35.027-38.5985 32.2327-41.3595 28.9214-41.3595C25.5768-41.3595 22.8491-38.5985 22.8491-35.2539C22.8491-31.9093 25.5768-29.1816 28.9214-29.1816ZM47.0299-29.1816C50.4078-29.1816 53.1354-31.9093 53.1354-35.2539C53.1354-38.5985 50.4078-41.3595 47.0299-41.3595C43.6853-41.3595 40.9576-38.5985 40.9576-35.2539C40.9576-31.9093 43.6853-29.1816 47.0299-29.1816ZM65.1717-29.1816C68.5163-29.1816 71.2439-31.9093 71.2439-35.2539C71.2439-38.5985 68.5163-41.3595 65.1717-41.3595C61.7938-41.3595 59.0661-38.5985 59.0661-35.2539C59.0661-31.9093 61.7938-29.1816 65.1717-29.1816Z" data-clipstroke-keyframes="0 4 0 0.49912772 1.500915 0 0.24838033 0.25074854 1.7492518 0 0.49583054 0.003299555 1.9966581 0 0.7506144 0.7485145 1.2514869 0 1 0.49912772 1.500915"/>
  </g>
  <g id="Medium-S" transform="matrix(1 0 0 1 1699.83 696)">
   <path d="M46.7061 4.61621C68.7383 4.61621 86.6162-13.2217 86.6162-35.2539C86.6162-57.2861 68.7383-75.124 46.7061-75.124C24.7139-75.124 6.83594-57.2861 6.83594-35.2539C6.83594-13.2217 24.7139 4.61621 46.7061 4.61621ZM46.7061-4.01855C29.4434-4.01855 15.5107-17.9912 15.5107-35.2539C15.5107-52.5166 29.4434-66.4893 46.7061-66.4893C63.9688-66.4893 77.9414-52.5166 77.9414-35.2539C77.9414-17.9912 63.9688-4.01855 46.7061-4.01855ZM28.6182-29.3164C31.8887-29.3164 34.5957-31.9834 34.5957-35.2539C34.5957-38.5244 31.8486-41.2314 28.6182-41.2314C25.3477-41.2314 22.6807-38.5244 22.6807-35.2539C22.6807-31.9834 25.3477-29.3164 28.6182-29.3164ZM46.666-29.3164C49.9766-29.3164 52.6436-31.9834 52.6436-35.2539C52.6436-38.5244 49.9766-41.2314 46.666-41.2314C43.3955-41.2314 40.7285-38.5244 40.7285-35.2539C40.7285-31.9834 43.3955-29.3164 46.666-29.3164ZM64.7539-29.3164C68.0244-29.3164 70.6914-31.9834 70.6914-35.2539C70.6914-38.5244 68.0244-41.2314 64.7539-41.2314C61.4434-41.2314 58.7764-38.5244 58.7764-35.2539C58.7764-31.9834 61.4434-29.3164 64.7539-29.3164Z" data-clipstroke-keyframes="0 4 0 0.4991347 1.5008943 0 0.24833901 0.2507965 1.7492058 0 0.4958189 0.0033174127 1.9966578 0 0.7506087 0.7485268 1.2514766 0 1 0.4991347 1.5008943"/>
  </g>
  <g id="Regular-S" transform="matrix(1 0 0 1 1403.58 696)">
   <path d="M46.2402 4.15039C68.0176 4.15039 85.6934-13.4766 85.6934-35.2539C85.6934-57.0312 68.0176-74.6582 46.2402-74.6582C24.5117-74.6582 6.83594-57.0312 6.83594-35.2539C6.83594-13.4766 24.5117 4.15039 46.2402 4.15039ZM46.2402-3.27148C28.5645-3.27148 14.3066-17.5781 14.3066-35.2539C14.3066-52.9297 28.5645-67.2363 46.2402-67.2363C63.916-67.2363 78.2227-52.9297 78.2227-35.2539C78.2227-17.5781 63.916-3.27148 46.2402-3.27148ZM28.2227-29.4922C31.3965-29.4922 34.0332-32.0801 34.0332-35.2539C34.0332-38.4277 31.3477-41.0645 28.2227-41.0645C25.0488-41.0645 22.4609-38.4277 22.4609-35.2539C22.4609-32.0801 25.0488-29.4922 28.2227-29.4922ZM46.1914-29.4922C49.4141-29.4922 52.002-32.0801 52.002-35.2539C52.002-38.4277 49.4141-41.0645 46.1914-41.0645C43.0176-41.0645 40.4297-38.4277 40.4297-35.2539C40.4297-32.0801 43.0176-29.4922 46.1914-29.4922ZM64.209-29.4922C67.3828-29.4922 69.9707-32.0801 69.9707-35.2539C69.9707-38.4277 67.3828-41.0645 64.209-41.0645C60.9863-41.0645 58.3984-38.4277 58.3984-35.2539C58.3984-32.0801 60.9863-29.4922 64.209-29.4922Z" data-clipstroke-keyframes="0 4 0 0.49914446 1.5008684 0 0.24828511 0.25085935 1.7491465 0 0.49580374 0.0033407123 1.9966576 0 0.75060123 0.7485432 1.2514638 0 1 0.49914446 1.5008684"/>
  </g>
  <g id="Light-S" transform="matrix(1 0 0 1 1107.6 696)">
   <path d="M45.5137 3.42383C66.8823 3.42383 84.2251-13.8853 84.2251-35.2539C84.2251-56.6226 66.8823-73.9316 45.5137-73.9316C24.1787-73.9316 6.83594-56.6226 6.83594-35.2539C6.83594-13.8853 24.1787 3.42383 45.5137 3.42383ZM45.5137-2.27247C27.2778-2.27247 12.5508-17.0181 12.5508-35.2539C12.5508-53.4897 27.2778-68.2353 45.5137-68.2353C63.7495-68.2353 78.4951-53.4897 78.4951-35.2539C78.4951-17.0181 63.7495-2.27247 45.5137-2.27247ZM27.7383-29.9614C30.6851-29.9614 33.1099-32.3374 33.1099-35.2842C33.1099-38.231 30.6514-40.6406 27.7383-40.6406C24.8066-40.6406 22.4155-38.231 22.4155-35.2842C22.4155-32.3374 24.8066-29.9614 27.7383-29.9614ZM45.48-29.9614C48.4605-29.9614 50.8364-32.3374 50.8364-35.2842C50.8364-38.231 48.4605-40.6406 45.48-40.6406C42.5332-40.6406 40.1572-38.231 40.1572-35.2842C40.1572-32.3374 42.5332-29.9614 45.48-29.9614ZM63.2554-29.9614C66.187-29.9614 68.5781-32.3374 68.5781-35.2842C68.5781-38.231 66.187-40.6406 63.2554-40.6406C60.2749-40.6406 57.8838-38.231 57.8838-35.2842C57.8838-32.3374 60.2749-29.9614 63.2554-29.9614Z" data-clipstroke-keyframes="0 4 0 0.49913585 1.5009707 0 0.24838725 0.2507476 1.7492833 0 0.4957939 0.0033399223 1.9966571 0 0.7506171 0.74851775 1.251515 0 1 0.49913585 1.5009707"/>
  </g>
  <g id="Thin-S" transform="matrix(1 0 0 1 811.863 696)">
   <path d="M44.5527 2.4629C65.3809 2.4629 82.2832-14.4258 82.2832-35.2539C82.2832-56.082 65.3809-72.9707 44.5527-72.9707C23.7383-72.9707 6.83594-56.082 6.83594-35.2539C6.83594-14.4258 23.7383 2.4629 44.5527 2.4629ZM44.5527-0.95119C25.5762-0.95119 10.2285-16.2774 10.2285-35.2539C10.2285-54.2305 25.5762-69.5566 44.5527-69.5566C63.5293-69.5566 78.8555-54.2305 78.8555-35.2539C78.8555-16.2774 63.5293-0.95119 44.5527-0.95119ZM27.0977-30.582C29.7442-30.582 31.8887-32.6777 31.8887-35.3242C31.8887-37.9707 29.7305-40.0801 27.0977-40.0801C24.4863-40.0801 22.3555-37.9707 22.3555-35.3242C22.3555-32.6777 24.4863-30.582 27.0977-30.582ZM44.5391-30.582C47.1992-30.582 49.2949-32.6777 49.2949-35.3242C49.2949-37.9707 47.1992-40.0801 44.5391-40.0801C41.8926-40.0801 39.7969-37.9707 39.7969-35.3242C39.7969-32.6777 41.8926-30.582 44.5391-30.582ZM61.9942-30.582C64.6055-30.582 66.7364-32.6777 66.7364-35.3242C66.7364-37.9707 64.6055-40.0801 61.9942-40.0801C59.334-40.0801 57.2031-37.9707 57.2031-35.3242C57.2031-32.6777 59.334-30.582 61.9942-30.582Z" data-clipstroke-keyframes="0 4 0 0.49912143 1.5010968 0 0.24852234 0.25059825 1.7494596 0 0.49578092 0.0033388573 1.9966565 0 0.7506381 0.7484825 1.2515783 0 1 0.49912143 1.5010968"/>
  </g>
  <g id="Ultralight-S" transform="matrix(1 0 0 1 515.649 696)">
   <path d="M44.0606 1.97072C64.6118 1.97072 81.2886-14.7026 81.2886-35.2539C81.2886-55.8052 64.6118-72.4785 44.0606-72.4785C23.5127-72.4785 6.83594-55.8052 6.83594-35.2539C6.83594-14.7026 23.5127 1.97072 44.0606 1.97072ZM44.0606-0.274438C24.7046-0.274438 9.0391-15.898 9.0391-35.2539C9.0391-54.6099 24.7046-70.2334 44.0606-70.2334C63.4165-70.2334 79.04-54.6099 79.04-35.2539C79.04-15.898 63.4165-0.274438 44.0606-0.274438ZM26.7695-30.8999C29.2622-30.8999 31.2632-32.852 31.2632-35.3447C31.2632-37.8374 29.2588-39.793 26.7695-39.793C24.3223-39.793 22.3247-37.8374 22.3247-35.3447C22.3247-32.852 24.3223-30.8999 26.7695-30.8999ZM44.0571-30.8999C46.5532-30.8999 48.5054-32.852 48.5054-35.3447C48.5054-37.8374 46.5532-39.793 44.0571-39.793C41.5645-39.793 39.6123-37.8374 39.6123-35.3447C39.6123-32.852 41.5645-30.8999 44.0571-30.8999ZM61.3482-30.8999C63.7954-30.8999 65.793-32.852 65.793-35.3447C65.793-37.8374 63.7954-39.793 61.3482-39.793C58.8521-39.793 56.8545-37.8374 56.8545-35.3447C56.8545-32.852 58.8521-30.8999 61.3482-30.8999Z" data-clipstroke-keyframes="0 4 0 0.49911258 1.5011578 0 0.24859153 0.25052106 1.7495481 0 0.49577427 0.0033383023 1.9966562 0 0.75064886 0.74846375 1.2516088 0 1 0.49911258 1.5011578"/>
  </g>
 </g>
</svg>
