<?xml version="1.0" encoding="UTF-8"?>
<!--Generator: Apple Native CoreSVG 341-->
<!DOCTYPE svg
PUBLIC "-//W3C//DTD SVG 1.1//EN"
       "http://www.w3.org/Graphics/SVG/1.1/DTD/svg11.dtd">
<svg version="1.1" xmlns="http://www.w3.org/2000/svg" xmlns:xlink="http://www.w3.org/1999/xlink" viewBox="0 0 3300 2200">
 <g id="Notes">
  <rect height="2200" id="artboard" style="fill:white;opacity:1" width="3300" x="0" y="0"/>
  <line style="fill:none;stroke:black;opacity:1;stroke-width:0.5;" x1="263" x2="3036" y1="292" y2="292"/>
  <text style="stroke:none;fill:black;font-family:sans-serif;font-size:13;font-weight:bold;" transform="matrix(1 0 0 1 263 322)">Weight/Scale Variations</text>
  <text style="stroke:none;fill:black;font-family:sans-serif;font-size:13;text-anchor:middle;" transform="matrix(1 0 0 1 559.711 322)">Ultralight</text>
  <text style="stroke:none;fill:black;font-family:sans-serif;font-size:13;text-anchor:middle;" transform="matrix(1 0 0 1 856.422 322)">Thin</text>
  <text style="stroke:none;fill:black;font-family:sans-serif;font-size:13;text-anchor:middle;" transform="matrix(1 0 0 1 1153.13 322)">Light</text>
  <text style="stroke:none;fill:black;font-family:sans-serif;font-size:13;text-anchor:middle;" transform="matrix(1 0 0 1 1449.84 322)">Regular</text>
  <text style="stroke:none;fill:black;font-family:sans-serif;font-size:13;text-anchor:middle;" transform="matrix(1 0 0 1 1746.56 322)">Medium</text>
  <text style="stroke:none;fill:black;font-family:sans-serif;font-size:13;text-anchor:middle;" transform="matrix(1 0 0 1 2043.27 322)">Semibold</text>
  <text style="stroke:none;fill:black;font-family:sans-serif;font-size:13;text-anchor:middle;" transform="matrix(1 0 0 1 2339.98 322)">Bold</text>
  <text style="stroke:none;fill:black;font-family:sans-serif;font-size:13;text-anchor:middle;" transform="matrix(1 0 0 1 2636.69 322)">Heavy</text>
  <text style="stroke:none;fill:black;font-family:sans-serif;font-size:13;text-anchor:middle;" transform="matrix(1 0 0 1 2933.4 322)">Black</text>
  <line style="fill:none;stroke:black;opacity:1;stroke-width:0.5;" x1="263" x2="3036" y1="1903" y2="1903"/>
  <g transform="matrix(0.2 0 0 0.2 263 1933)">
   <path d="m46.2402 4.15039c21.7773 0 39.4531-17.627 39.4531-39.4043s-17.6758-39.4043-39.4531-39.4043c-21.7285 0-39.4043 17.627-39.4043 39.4043s17.6758 39.4043 39.4043 39.4043Zm0-7.42188c-17.6758 0-31.9336-14.3066-31.9336-31.9824s14.2578-31.9824 31.9336-31.9824 31.9824 14.3066 31.9824 31.9824-14.3066 31.9824-31.9824 31.9824Zm3.61328-17.7734v-28.4668c0-2.24609-1.46484-3.75977-3.71094-3.75977-2.14844 0-3.61328 1.51367-3.61328 3.75977v28.4668c0 2.19727 1.46484 3.71094 3.61328 3.71094 2.24609 0 3.71094-1.51367 3.71094-3.71094Zm-17.8223-10.5957h28.418c2.19727 0 3.71094-1.46484 3.71094-3.61328 0-2.19727-1.51367-3.71094-3.71094-3.71094h-28.418c-2.24609 0-3.75977 1.51367-3.75977 3.71094 0 2.14844 1.51367 3.61328 3.75977 3.61328Z"/>
  </g>
  <g transform="matrix(0.2 0 0 0.2 281.506 1933)">
   <path d="m58.5449 14.5508c27.4902 0 49.8047-22.3145 49.8047-49.8047s-22.3145-49.8047-49.8047-49.8047-49.8047 22.3145-49.8047 49.8047 22.3145 49.8047 49.8047 49.8047Zm0-8.30078c-22.9492 0-41.5039-18.5547-41.5039-41.5039s18.5547-41.5039 41.5039-41.5039 41.5039 18.5547 41.5039 41.5039-18.5547 41.5039-41.5039 41.5039Zm4.05273-23.0957v-36.9141c0-2.49023-1.70898-4.19922-4.15039-4.19922-2.39258 0-4.05273 1.70898-4.05273 4.19922v36.9141c0 2.44141 1.66016 4.15039 4.05273 4.15039 2.44141 0 4.15039-1.66016 4.15039-4.15039Zm-22.5586-14.4043h36.9629c2.44141 0 4.15039-1.61133 4.15039-4.00391 0-2.44141-1.70898-4.15039-4.15039-4.15039h-36.9629c-2.49023 0-4.15039 1.70898-4.15039 4.15039 0 2.39258 1.66016 4.00391 4.15039 4.00391Z"/>
  </g>
  <g transform="matrix(0.2 0 0 0.2 304.924 1933)">
   <path d="m74.8535 28.3203c35.1074 0 63.623-28.4668 63.623-63.5742s-28.5156-63.623-63.623-63.623-63.5742 28.5156-63.5742 63.623 28.4668 63.5742 63.5742 63.5742Zm0-9.08203c-30.127 0-54.4922-24.3652-54.4922-54.4922s24.3652-54.4922 54.4922-54.4922 54.4922 24.3652 54.4922 54.4922-24.3652 54.4922-54.4922 54.4922Zm4.44336-30.3223v-48.4863c0-2.73438-1.85547-4.63867-4.54102-4.63867-2.58789 0-4.44336 1.9043-4.44336 4.63867v48.4863c0 2.68555 1.85547 4.58984 4.44336 4.58984 2.68555 0 4.54102-1.85547 4.54102-4.58984Zm-28.7109-19.7754h48.4863c2.68555 0 4.58984-1.80664 4.58984-4.39453 0-2.73438-1.85547-4.58984-4.58984-4.58984h-48.4863c-2.73438 0-4.58984 1.85547-4.58984 4.58984 0 2.58789 1.85547 4.39453 4.58984 4.39453Z"/>
  </g>
  <text style="stroke:none;fill:black;font-family:sans-serif;font-size:13;font-weight:bold;" transform="matrix(1 0 0 1 263 1953)">Design Variations</text>
  <text style="stroke:none;fill:black;font-family:sans-serif;font-size:13;" transform="matrix(1 0 0 1 263 1971)">Symbols are supported in up to nine weights and three scales.</text>
  <text style="stroke:none;fill:black;font-family:sans-serif;font-size:13;" transform="matrix(1 0 0 1 263 1989)">For optimal layout with text and other symbols, vertically align</text>
  <text style="stroke:none;fill:black;font-family:sans-serif;font-size:13;" transform="matrix(1 0 0 1 263 2007)">symbols with the adjacent text.</text>
  <line style="fill:none;stroke:#00AEEF;stroke-width:0.5;opacity:1.0;" x1="776" x2="776" y1="1919" y2="1933"/>
  <g transform="matrix(0.2 0 0 0.2 776 1933)">
   <path d="m16.5527 0.78125c2.58789 0 3.85742-0.976562 4.78516-3.71094l20.5566-57.5195h0.244141l20.6055 57.5195c0.927734 2.73438 2.19727 3.71094 4.73633 3.71094 2.58789 0 4.24805-1.5625 4.24805-4.00391 0-0.830078-0.146484-1.61133-0.537109-2.63672l-22.9004-60.9863c-1.12305-2.97852-3.125-4.49219-6.25-4.49219-3.02734 0-5.07812 1.46484-6.15234 4.44336l-22.9004 61.084c-0.390625 1.02539-0.537109 1.80664-0.537109 2.63672 0 2.44141 1.5625 3.95508 4.10156 3.95508Zm10.2051-20.9473h30.6641c2.00195 0 3.66211-1.66016 3.66211-3.66211 0-2.05078-1.66016-3.66211-3.66211-3.66211h-30.6641c-2.00195 0-3.66211 1.61133-3.66211 3.66211 0 2.00195 1.66016 3.66211 3.66211 3.66211Z"/>
  </g>
  <line style="fill:none;stroke:#00AEEF;stroke-width:0.5;opacity:1.0;" x1="792.836" x2="792.836" y1="1919" y2="1933"/>
  <text style="stroke:none;fill:black;font-family:sans-serif;font-size:13;font-weight:bold;" transform="matrix(1 0 0 1 776 1953)">Margins</text>
  <text style="stroke:none;fill:black;font-family:sans-serif;font-size:13;" transform="matrix(1 0 0 1 776 1971)">Leading and trailing margins on the left and right side of each symbol</text>
  <text style="stroke:none;fill:black;font-family:sans-serif;font-size:13;" transform="matrix(1 0 0 1 776 1989)">can be adjusted by modifying the x-location of the margin guidelines.</text>
  <text style="stroke:none;fill:black;font-family:sans-serif;font-size:13;" transform="matrix(1 0 0 1 776 2007)">Modifications are automatically applied proportionally to all</text>
  <text style="stroke:none;fill:black;font-family:sans-serif;font-size:13;" transform="matrix(1 0 0 1 776 2025)">scales and weights.</text>
  <g transform="matrix(0.2 0 0 0.2 1289 1933)">
   <path d="m14.209 13.1348 7.86133 7.86133c4.29688 4.39453 9.32617 4.10156 13.8672-1.02539l60.6934-68.2129-4.88281-4.88281-60.2539 67.6758c-1.80664 1.95312-3.4668 2.44141-5.81055 0.0976562l-5.17578-5.12695c-2.29492-2.29492-1.80664-3.95508 0.195312-5.81055l67.4805-62.1582-4.88281-4.83398-68.0664 62.5977c-4.98047 4.58984-5.32227 9.47266-1.02539 13.8184Zm44.873-97.4609c-2.05078 2.00195-2.24609 4.88281-1.07422 6.78711 1.12305 1.80664 3.4668 3.02734 6.5918 2.24609 5.85938-1.66016 12.5977-2.39258 18.8965 0.927734l-2.68555 7.12891c-1.61133 4.00391-0.732422 6.88477 1.70898 9.42383l10.2539 10.3027c2.34375 2.39258 4.54102 2.44141 7.08008 1.95312l4.44336-0.732422 2.58789 2.53906-0.195312 2.24609c-0.0976562 2.29492 0.537109 4.29688 2.7832 6.49414l3.36914 3.32031c2.29492 2.29492 5.51758 2.49023 7.8125 0.195312l12.9883-13.0371c2.29492-2.34375 2.14844-5.37109-0.195312-7.66602l-3.41797-3.41797c-2.19727-2.19727-4.05273-3.02734-6.34766-2.88086l-2.34375 0.244141-2.44141-2.44141 1.02539-4.6875c0.634766-2.73438-0.244141-4.98047-2.88086-7.61719l-11.2793-11.1816c-12.9395-12.8418-35.5957-11.0352-46.6797-0.146484Zm7.08008 2.05078c8.78906-6.39648 25.9766-5.66406 33.6914 1.95312l12.3047 12.207c1.02539 1.02539 1.2207 1.80664 0.927734 3.32031l-1.46484 6.64062 6.73828 6.68945 4.39453-0.244141c1.12305-0.0488281 1.51367 0.0488281 2.34375 0.878906l2.53906 2.49023-10.8398 10.8398-2.49023-2.49023c-0.830078-0.878906-0.976562-1.2207-0.927734-2.39258l0.292969-4.3457-6.68945-6.73828-6.83594 1.17188c-1.41602 0.292969-2.05078 0.195312-3.17383-0.878906l-8.93555-8.88672c-1.07422-1.02539-1.17188-1.70898-0.488281-3.36914l4.58984-11.4746c-6.10352-6.34766-17.041-7.51953-25.5859-4.58984-0.683594 0.244141-0.927734-0.390625-0.390625-0.78125Z"/>
  </g>
  <text style="stroke:none;fill:black;font-family:sans-serif;font-size:13;font-weight:bold;" transform="matrix(1 0 0 1 1289 1953)">Exporting</text>
  <text style="stroke:none;fill:black;font-family:sans-serif;font-size:13;" transform="matrix(1 0 0 1 1289 1971)">Symbols should be outlined when exporting to ensure the</text>
  <text style="stroke:none;fill:black;font-family:sans-serif;font-size:13;" transform="matrix(1 0 0 1 1289 1989)">design is preserved when submitting to Xcode.</text>
  <text id="template-version" style="stroke:none;fill:black;font-family:sans-serif;font-size:13;text-anchor:end;" transform="matrix(1 0 0 1 3036 1933)">Template v.2.0</text>
  <text style="stroke:none;fill:black;font-family:sans-serif;font-size:13;text-anchor:end;" transform="matrix(1 0 0 1 3036 1951)">Requires Xcode 12 or greater</text>
  <text id="descriptive-name" style="stroke:none;fill:black;font-family:sans-serif;font-size:13;text-anchor:end;" transform="matrix(1 0 0 1 3036 1969)">Generated from magnifyingglass</text>
  <text style="stroke:none;fill:black;font-family:sans-serif;font-size:13;text-anchor:end;" transform="matrix(1 0 0 1 3036 1987)">Typeset at 100.0 points</text>
  <text style="stroke:none;fill:black;font-family:sans-serif;font-size:13;" transform="matrix(1 0 0 1 263 726)">Small</text>
  <text style="stroke:none;fill:black;font-family:sans-serif;font-size:13;" transform="matrix(1 0 0 1 263 1156)">Medium</text>
  <text style="stroke:none;fill:black;font-family:sans-serif;font-size:13;" transform="matrix(1 0 0 1 263 1586)">Large</text>
 </g>
 <g id="Guides">
  <g id="H-reference" style="fill:#27AAE1;stroke:none;" transform="matrix(1 0 0 1 339 696)">
   <path d="M0.993654 0L3.63775 0L29.3281-67.1323L30.0303-67.1323L30.0303-70.459L28.1226-70.459ZM11.6885-24.4799L46.9815-24.4799L46.2315-26.7285L12.4385-26.7285ZM55.1196 0L57.7637 0L30.6382-70.459L29.4326-70.459L29.4326-67.1323Z"/>
  </g>
  <line id="Baseline-S" style="fill:none;stroke:#27AAE1;opacity:1;stroke-width:0.5;" x1="263" x2="3036" y1="696" y2="696"/>
  <line id="Capline-S" style="fill:none;stroke:#27AAE1;opacity:1;stroke-width:0.5;" x1="263" x2="3036" y1="625.541" y2="625.541"/>
  <g id="H-reference" style="fill:#27AAE1;stroke:none;" transform="matrix(1 0 0 1 339 1126)">
   <path d="M0.993654 0L3.63775 0L29.3281-67.1323L30.0303-67.1323L30.0303-70.459L28.1226-70.459ZM11.6885-24.4799L46.9815-24.4799L46.2315-26.7285L12.4385-26.7285ZM55.1196 0L57.7637 0L30.6382-70.459L29.4326-70.459L29.4326-67.1323Z"/>
  </g>
  <line id="Baseline-M" style="fill:none;stroke:#27AAE1;opacity:1;stroke-width:0.5;" x1="263" x2="3036" y1="1126" y2="1126"/>
  <line id="Capline-M" style="fill:none;stroke:#27AAE1;opacity:1;stroke-width:0.5;" x1="263" x2="3036" y1="1055.54" y2="1055.54"/>
  <g id="H-reference" style="fill:#27AAE1;stroke:none;" transform="matrix(1 0 0 1 339 1556)">
   <path d="M0.993654 0L3.63775 0L29.3281-67.1323L30.0303-67.1323L30.0303-70.459L28.1226-70.459ZM11.6885-24.4799L46.9815-24.4799L46.2315-26.7285L12.4385-26.7285ZM55.1196 0L57.7637 0L30.6382-70.459L29.4326-70.459L29.4326-67.1323Z"/>
  </g>
  <line id="Baseline-L" style="fill:none;stroke:#27AAE1;opacity:1;stroke-width:0.5;" x1="263" x2="3036" y1="1556" y2="1556"/>
  <line id="Capline-L" style="fill:none;stroke:#27AAE1;opacity:1;stroke-width:0.5;" x1="263" x2="3036" y1="1485.54" y2="1485.54"/>
  <line id="right-margin" style="fill:none;stroke:#00AEEF;stroke-width:0.5;opacity:1.0;" x1="1508.75" x2="1508.75" y1="1030.79" y2="1150.12"/>
  <line id="left-margin" style="fill:none;stroke:#00AEEF;stroke-width:0.5;opacity:1.0;" x1="1390.94" x2="1390.94" y1="1030.79" y2="1150.12"/>
 </g>
 <g id="Symbols">
  <g id="Black-L" transform="matrix(1 0 0 1 2854.49 1556)">
   <path d="M14.4756-45.3967C14.4756-15.1085 38.9983 9.39339 69.2865 9.39339C78.2802 9.39339 86.68 7.17432 94.0836 3.29714L115.92 25.1554C118.992 28.2084 123.168 29.6878 127.424 29.6878C136.491 29.6878 143.341 22.7309 143.341 13.7279C143.341 9.57027 141.881 5.53349 138.772 2.38209L117.211-19.1997C121.592-26.9005 124.075-35.8413 124.075-45.3967C124.075-75.6837 99.5735-100.206 69.2865-100.206C38.9983-100.206 14.4756-75.6837 14.4756-45.3967ZM35.6565-45.3967C35.6565-63.9224 50.7596-79.0255 69.2865-79.0255C87.8498-79.0255 102.915-63.9224 102.915-45.3967C102.915-26.8906 87.8498-11.7667 69.2865-11.7667C50.7596-11.7667 35.6565-26.8906 35.6565-45.3967Z"/>
  </g>
  <g id="Heavy-L" transform="matrix(1 0 0 1 2558.52 1556)">
   <path d="M14.4756-45.8335C14.4756-16.1962 38.4931 7.79121 68.1305 7.79121C77.5873 7.79121 86.377 5.26112 93.9741 0.876081L118.098 25.0356C120.773 27.6866 124.387 28.9736 128.08 28.9736C135.967 28.9736 141.871 22.9315 141.871 15.1169C141.871 11.4936 140.579 8.00552 137.924 5.28424L114.039-18.6308C118.937-26.5025 121.75-35.8194 121.75-45.8335C121.75-75.4653 97.7622-99.4828 68.1305-99.4828C38.4931-99.4828 14.4756-75.4653 14.4756-45.8335ZM33.0308-45.8335C33.0308-65.1814 48.777-80.9276 68.1305-80.9276C87.4929-80.9276 103.225-65.1814 103.225-45.8335C103.225-26.5102 87.4929-10.7338 68.1305-10.7338C48.777-10.7338 33.0308-26.5102 33.0308-45.8335Z"/>
  </g>
  <g id="Bold-L" transform="matrix(1 0 0 1 2262.73 1556)">
   <path d="M14.4756-46.3864C14.4756-17.5707 37.8557 5.77143 66.6714 5.77143C76.6597 5.77143 85.8962 2.87202 93.7017-2.11327L120.601 24.8373C122.792 27.0038 125.736 28.0676 128.76 28.0676C135.247 28.0676 140.02 23.1104 140.02 16.7188C140.02 13.7415 138.936 10.9074 136.812 8.69398L110.105-18.0506C115.611-26.1001 118.816-35.8484 118.816-46.3864C118.816-75.1888 95.4738-98.569 66.6714-98.569C37.8557-98.569 14.4756-75.1888 14.4756-46.3864ZM29.7804-46.3864C29.7804-66.7264 46.3182-83.2641 66.6714-83.2641C87.0026-83.2641 103.549-66.7264 103.549-46.3864C103.549-26.0712 87.0026-9.49543 66.6714-9.49543C46.3182-9.49543 29.7804-26.0712 29.7804-46.3864Z"/>
  </g>
  <g id="Semibold-L" transform="matrix(1 0 0 1 1966.66 1556)">
   <path d="M14.4756-46.7675C14.4756-18.5184 37.4163 4.379 65.6655 4.379C76.0203 4.379 85.5648 1.22498 93.514-4.17411L122.327 24.7007C124.184 26.5332 126.667 27.4429 129.229 27.4429C134.751 27.4429 138.744 23.2337 138.744 17.8232C138.744 15.2912 137.803 12.9079 136.045 11.0446L107.393-17.6506C113.318-25.8227 116.794-35.8683 116.794-46.7675C116.794-74.9982 93.8962-97.939 65.6655-97.939C37.4163-97.939 14.4756-74.9982 14.4756-46.7675ZM27.5396-46.7675C27.5396-67.7914 44.6231-84.8749 65.6655-84.8749C86.6646-84.8749 103.773-67.7914 103.773-46.7675C103.773-25.7686 86.6646-8.64169 65.6655-8.64169C44.6231-8.64169 27.5396-25.7686 27.5396-46.7675Z"/>
  </g>
  <g id="Medium-L" transform="matrix(1 0 0 1 1670.43 1556)">
   <path d="M14.4756-47.0565C14.4756-19.2369 37.0831 3.32321 64.9028 3.32321C75.5354 3.32321 85.3134-0.0238707 93.3716-5.73673L123.635 24.5971C125.24 26.1763 127.372 26.9693 129.585 26.9693C134.374 26.9693 137.776 23.3272 137.776 18.6606C137.776 16.4662 136.944 14.4247 135.463 12.827L105.337-17.3474C111.579-25.6124 115.26-35.8835 115.26-47.0565C115.26-74.8537 92.7-97.4613 64.9028-97.4613C37.0831-97.4613 14.4756-74.8537 14.4756-47.0565ZM25.8406-47.0565C25.8406-68.599 43.3379-86.0963 64.9028-86.0963C86.4083-86.0963 103.943-68.599 103.943-47.0565C103.943-25.5391 86.4083-7.99435 64.9028-7.99435C43.3379-7.99435 25.8406-25.5391 25.8406-47.0565Z"/>
  </g>
  <g id="Regular-L" transform="matrix(1 0 0 1 1374.35 1556)">
   <path d="M14.4756-47.4335C14.4756-20.1741 36.6485 1.94608 63.9079 1.94608C74.9029 1.94608 84.9856-1.65281 93.1859-7.77492L125.342 24.4619C126.616 25.7108 128.292 26.3516 130.049 26.3516C133.883 26.3516 136.514 23.4492 136.514 19.7528C136.514 17.9989 135.823 16.4032 134.705 15.1518L102.654-16.9518C109.312-25.338 113.26-35.9033 113.26-47.4335C113.26-74.6653 91.1397-96.8382 63.9079-96.8382C36.6485-96.8382 14.4756-74.6653 14.4756-47.4335ZM23.6244-47.4335C23.6244-69.6524 41.6614-87.6894 63.9079-87.6894C86.074-87.6894 104.164-69.6524 104.164-47.4335C104.164-25.2398 86.074-7.14999 63.9079-7.14999C41.6614-7.14999 23.6244-25.2398 23.6244-47.4335Z"/>
  </g>
  <g id="Light-L" transform="matrix(1 0 0 1 1078.37 1556)">
   <path d="M14.4756-47.8916C14.4756-21.3001 36.1332 0.323834 62.7247 0.323834C73.8151 0.323834 83.9741-3.42774 92.1171-9.77888L125.819 24.0039C126.807 25.0046 128.197 25.5882 129.667 25.5882C132.929 25.5882 135.045 23.1247 135.045 20.0964C135.045 18.686 134.487 17.3766 133.541 16.316L99.906-17.3526C106.773-25.6434 110.893-36.285 110.893-47.8916C110.893-74.4362 89.2693-96.0939 62.7247-96.0939C36.1332-96.0939 14.4756-74.4362 14.4756-47.8916ZM21.3914-47.8916C21.3914-70.6257 39.9438-89.178 62.7247-89.178C85.4251-89.178 104.011-70.6257 104.011-47.8916C104.011-25.1443 85.4251-6.55835 62.7247-6.55835C39.9438-6.55835 21.3914-25.1443 21.3914-47.8916Z"/>
  </g>
  <g id="Thin-L" transform="matrix(1 0 0 1 782.634 1556)">
   <path d="M14.4756-48.4974C14.4756-22.7894 35.4517-1.82172 61.1597-1.82172C72.3763-1.82172 82.6363-5.77523 90.7036-12.4293L126.45 23.398C127.06 24.0707 128.071 24.5785 129.162 24.5785C131.667 24.5785 133.101 22.6956 133.101 20.5507C133.101 19.5947 132.72 18.6639 132.001 17.8558L96.2712-17.8827C103.416-26.0473 107.763-36.7898 107.763-48.4974C107.763-74.1333 86.7956-95.1095 61.1597-95.1095C35.4517-95.1095 14.4756-74.1333 14.4756-48.4974ZM18.4382-48.4974C18.4382-71.913 37.672-91.1469 61.1597-91.1469C84.5669-91.1469 103.809-71.913 103.809-48.4974C103.809-25.0181 84.5669-5.77585 61.1597-5.77585C37.672-5.77585 18.4382-25.0181 18.4382-48.4974Z"/>
  </g>
  <g id="Ultralight-L" transform="matrix(1 0 0 1 486.42 1556)">
   <path d="M14.4756-48.8077C14.4756-23.5522 35.1026-2.92066 60.3581-2.92066C71.6393-2.92066 81.9511-6.9776 89.9796-13.7868L126.774 23.0878C127.189 23.5923 128.006 24.0613 128.904 24.0613C131.021 24.0613 132.106 22.4758 132.106 20.7834C132.106 20.0601 131.815 19.3233 131.213 18.6444L94.4094-18.1542C101.697-26.2541 106.16-37.0484 106.16-48.8077C106.16-73.9782 85.5286-94.6052 60.3581-94.6052C35.1026-94.6052 14.4756-73.9782 14.4756-48.8077ZM16.9255-48.8077C16.9255-72.5724 36.5084-92.1553 60.3581-92.1553C84.1273-92.1553 103.706-72.5724 103.706-48.8077C103.706-24.9535 84.1273-5.37506 60.3581-5.37506C36.5084-5.37506 16.9255-24.9535 16.9255-48.8077Z"/>
  </g>
  <g id="Black-M" transform="matrix(1 0 0 1 2871.73 1126)">
   <path d="M11.2148-42.7931C11.2148-18.8588 30.578 0.498897 54.5123 0.498897C61.095 0.498897 67.278-0.973708 72.8398-3.57207L88.0007 11.5941C90.6837 14.2712 94.3633 15.5751 98.1053 15.5751C106.067 15.5751 112.117 9.45849 112.117 1.55268C112.117-2.08112 110.859-5.64136 108.084-8.42667L93.1625-23.3537C96.1402-29.1601 97.8046-35.7741 97.8046-42.7931C97.8046-66.7277 78.4469-86.0909 54.5123-86.0909C30.578-86.0909 11.2148-66.7277 11.2148-42.7931ZM29.5786-42.7931C29.5786-56.5089 40.7968-67.7271 54.5123-67.7271C68.2797-67.7271 79.4463-56.5089 79.4463-42.7931C79.4463-29.0831 68.2797-17.8594 54.5123-17.8594C40.7968-17.8594 29.5786-29.0831 29.5786-42.7931Z"/>
  </g>
  <g id="Heavy-M" transform="matrix(1 0 0 1 2575.67 1126)">
   <path d="M11.2148-43.1779C11.2148-19.8181 30.1317-0.917687 53.4914-0.917687C60.518-0.917687 67.0751-2.68024 72.8314-5.75395L90.0859 11.5192C92.4071 13.8263 95.5633 14.9473 98.7818 14.9473C105.642 14.9473 110.815 9.68452 110.815 2.87881C110.815-0.264308 109.71-3.31457 107.362-5.69703L90.315-22.7606C93.7789-28.7429 95.7493-35.7174 95.7493-43.1779C95.7493-66.5353 76.8489-85.4522 53.4914-85.4522C30.1317-85.4522 11.2148-66.5353 11.2148-43.1779ZM27.2178-43.1779C27.2178-57.6499 39.0171-69.4492 53.4914-69.4492C67.9907-69.4492 79.7628-57.6499 79.7628-43.1779C79.7628-28.72 67.9907-16.9043 53.4914-16.9043C39.0171-16.9043 27.2178-28.72 27.2178-43.1779Z"/>
  </g>
  <g id="Bold-M" transform="matrix(1 0 0 1 2279.69 1126)">
   <path d="M11.2148-43.6083C11.2148-20.8913 29.6324-2.50234 52.3494-2.50234C59.8727-2.50234 66.8482-4.58924 72.8219-8.1947L92.4184 11.4355C94.3349 13.3286 96.9056 14.245 99.5385 14.245C105.168 14.245 109.359 9.93736 109.359 4.36227C109.359 1.76806 108.424-0.711734 106.555-2.64353L87.1296-22.0972C91.1375-28.2761 93.4502-35.654 93.4502-43.6083C93.4502-66.3201 75.0613-84.7377 52.3494-84.7377C29.6324-84.7377 11.2148-66.3201 11.2148-43.6083ZM24.577-43.6083C24.577-58.9263 37.0263-71.3756 52.3494-71.3756C67.6673-71.3756 80.1167-58.9263 80.1167-43.6083C80.1167-28.3138 67.6673-15.8358 52.3494-15.8358C37.0263-15.8358 24.577-28.3138 24.577-43.6083Z"/>
  </g>
  <g id="Semibold-M" transform="matrix(1 0 0 1 1983.48 1126)">
   <path d="M11.2148-43.905C11.2148-21.6311 29.2882-3.59479 51.5621-3.59479C59.4277-3.59479 66.6917-5.9053 72.8154-9.87734L94.0264 11.3778C95.664 12.9854 97.831 13.7609 100.06 13.7609C104.841 13.7609 108.355 10.1117 108.355 5.38496C108.355 3.16916 107.538 1.08265 105.998-0.538469L84.9336-21.6398C89.3165-27.9544 91.8652-35.6103 91.8652-43.905C91.8652-66.1718 73.8289-84.2451 51.5621-84.2451C29.2882-84.2451 11.2148-66.1718 11.2148-43.905ZM22.7564-43.905C22.7564-59.8062 35.6538-72.7036 51.5621-72.7036C67.4444-72.7036 80.3607-59.8062 80.3607-43.905C80.3607-28.0337 67.4444-15.0993 51.5621-15.0993C35.6538-15.0993 22.7564-28.0337 22.7564-43.905Z"/>
  </g>
  <g id="Medium-M" transform="matrix(1 0 0 1 1687.15 1126)">
   <path d="M11.2148-44.13C11.2148-22.1921 29.0272-4.42313 50.9651-4.42313C59.0904-4.42313 66.5731-6.90319 72.8105-11.1532L95.2457 11.334C96.6717 12.7252 98.5326 13.3938 100.456 13.3938C104.593 13.3938 107.594 10.2438 107.594 6.1604C107.594 4.23153 106.866 2.44322 105.576 1.05768L83.2685-21.293C87.9358-27.7104 90.6634-35.5772 90.6634-44.13C90.6634-66.0593 72.8944-83.8717 50.9651-83.8717C29.0272-83.8717 11.2148-66.0593 11.2148-44.13ZM21.3759-44.13C21.3759-60.4734 34.6131-73.7106 50.9651-73.7106C67.2754-73.7106 80.5457-60.4734 80.5457-44.13C80.5457-27.8214 67.2754-14.5408 50.9651-14.5408C34.6131-14.5408 21.3759-27.8214 21.3759-44.13Z"/>
  </g>
  <g id="Regular-M" transform="matrix(1 0 0 1 1390.94 1126)">
   <path d="M11.2148-44.4234C11.2148-22.9238 28.6868-5.50358 50.1865-5.50358C58.6503-5.50358 66.4183-8.20478 72.8041-12.8173L96.836 11.277C97.9862 12.3859 99.4478 12.915 100.972 12.915C104.269 12.915 106.601 10.4162 106.601 7.17185C106.601 5.61724 105.989 4.21789 105.025 3.13961L81.0967-20.8406C86.1348-27.3922 89.0958-35.534 89.0958-44.4234C89.0958-65.9125 71.6756-83.3845 50.1865-83.3845C28.6868-83.3845 11.2148-65.9125 11.2148-44.4234ZM19.5753-44.4234C19.5753-61.3437 33.2557-75.0241 50.1865-75.0241C67.0549-75.0241 80.7871-61.3437 80.7871-44.4234C80.7871-27.5444 67.0549-13.8123 50.1865-13.8123C33.2557-13.8123 19.5753-27.5444 19.5753-44.4234Z"/>
  </g>
  <g id="Light-M" transform="matrix(1 0 0 1 1094.88 1126)">
   <path d="M11.2148-44.8341C11.2148-23.9333 28.2248-6.95801 49.1256-6.95801C57.675-6.95801 65.5115-9.7961 71.8459-14.614L97.2638 10.8663C98.1573 11.7528 99.3623 12.2305 100.63 12.2305C103.413 12.2305 105.283 10.1254 105.283 7.47985C105.283 6.23323 104.792 5.09055 103.981 4.18338L78.6327-21.1999C83.859-27.6659 86.974-35.8762 86.974-44.8341C86.974-65.7072 69.9987-82.7172 49.1256-82.7172C28.2248-82.7172 11.2148-65.7072 11.2148-44.8341ZM17.5733-44.8341C17.5733-62.2163 31.7157-76.3587 49.1256-76.3587C66.4732-76.3587 80.6502-62.2163 80.6502-44.8341C80.6502-27.4589 66.4732-13.2818 49.1256-13.2818C31.7157-13.2818 17.5733-27.4589 17.5733-44.8341Z"/>
  </g>
  <g id="Thin-M" transform="matrix(1 0 0 1 799.044 1126)">
   <path d="M11.2148-45.3772C11.2148-25.2685 27.6138-8.88161 47.7225-8.88161C56.3851-8.88161 64.312-11.9007 70.5785-16.9902L97.8296 10.3232C98.3836 10.9154 99.2491 11.3253 100.177 11.3253C102.282 11.3253 103.541 9.74063 103.541 7.8872C103.541 7.04793 103.207 6.24471 102.601 5.56384L75.3739-21.6752C80.8492-28.028 84.1678-36.3288 84.1678-45.3772C84.1678-65.4356 67.7809-81.8346 47.7225-81.8346C27.6138-81.8346 11.2148-65.4356 11.2148-45.3772ZM14.9255-45.3772C14.9255-63.3705 29.6789-78.1239 47.7225-78.1239C65.7037-78.1239 80.4691-63.3705 80.4691-45.3772C80.4691-27.3457 65.7037-12.5803 47.7225-12.5803C29.6789-12.5803 14.9255-27.3457 14.9255-45.3772Z"/>
  </g>
  <g id="Ultralight-M" transform="matrix(1 0 0 1 502.78 1126)">
   <path d="M11.2148-45.6554C11.2148-25.9524 27.3008-9.86687 47.0038-9.86687C55.7244-9.86687 63.6977-12.9787 69.9294-18.2073L98.1194 10.045C98.4995 10.4866 99.1912 10.8617 99.9451 10.8617C101.702 10.8617 102.648 9.54358 102.648 8.09584C102.648 7.46522 102.396 6.83586 101.894 6.27091L73.7047-21.9186C79.3075-28.2135 82.7305-36.5606 82.7305-45.6554C82.7305-65.2966 66.645-81.3825 47.0038-81.3825C27.3008-81.3825 11.2148-65.2966 11.2148-45.6554ZM13.5694-45.6554C13.5694-63.9616 28.6357-79.028 47.0038-79.028C65.3096-79.028 80.3764-63.9616 80.3764-45.6554C80.3764-27.2877 65.3096-12.221 47.0038-12.221C28.6357-12.221 13.5694-27.2877 13.5694-45.6554Z"/>
  </g>
  <g id="Black-S" transform="matrix(1 0 0 1 2884.91 696)">
   <path d="M8.78906-41.0645C8.78906-22.168 24.0723-6.88477 42.9688-6.88477C47.998-6.88477 52.7344-7.95898 57.0312-9.86328L68.3594 1.46484C70.5566 3.66211 73.584 4.73633 76.6602 4.73633C83.2031 4.73633 88.1836-0.292969 88.1836-6.78711C88.1836-9.76562 87.1582-12.6953 84.8633-14.9902L73.7305-26.123C75.9277-30.6152 77.1484-35.6934 77.1484-41.0645C77.1484-59.9609 61.8652-75.2441 42.9688-75.2441C24.0723-75.2441 8.78906-59.9609 8.78906-41.0645ZM23.7793-41.0645C23.7793-51.6113 32.4219-60.2539 42.9688-60.2539C53.5645-60.2539 62.1582-51.6113 62.1582-41.0645C62.1582-30.5176 53.5645-21.875 42.9688-21.875C32.4219-21.875 23.7793-30.5176 23.7793-41.0645Z"/>
  </g>
  <g id="Heavy-S" transform="matrix(1 0 0 1 2588.68 696)">
   <path d="M8.78906-41.341C8.78906-22.8594 23.7496-7.91044 42.2312-7.91044C47.6293-7.91044 52.6768-9.21515 57.1465-11.4998L70.088 1.45332C72.0087 3.36247 74.6212 4.28687 77.2825 4.28687C82.9496 4.28687 87.2386-0.0624794 87.2386-5.69229C87.2386-8.29049 86.3284-10.8168 84.3793-12.7891L71.61-25.5699C74.1991-30.2234 75.6618-35.6012 75.6618-41.341C75.6618-59.8226 60.7128-74.7832 42.2312-74.7832C23.7496-74.7832 8.78906-59.8226 8.78906-41.341ZM22.0161-41.341C22.0161-52.4757 31.0966-61.5562 42.2312-61.5562C53.3916-61.5562 62.4463-52.4757 62.4463-41.341C62.4463-30.2179 53.3916-21.1259 42.2312-21.1259C31.0966-21.1259 22.0161-30.2179 22.0161-41.341Z"/>
  </g>
  <g id="Bold-S" transform="matrix(1 0 0 1 2292.49 696)">
   <path d="M8.78906-41.6504C8.78906-23.6328 23.3887-9.05762 41.4062-9.05762C47.2168-9.05762 52.6123-10.6201 57.2754-13.3301L72.0215 1.44043C73.6328 3.02734 75.7812 3.78418 77.9785 3.78418C82.666 3.78418 86.1816 0.195312 86.1816-4.46777C86.1816-6.64062 85.4004-8.71582 83.8379-10.3271L69.2383-24.9512C72.2656-29.7852 73.999-35.498 73.999-41.6504C73.999-59.668 59.4238-74.2676 41.4062-74.2676C23.3887-74.2676 8.78906-59.668 8.78906-41.6504ZM20.0439-41.6504C20.0439-53.4424 29.6143-63.0127 41.4062-63.0127C53.1982-63.0127 62.7686-53.4424 62.7686-41.6504C62.7686-29.8828 53.1982-20.2881 41.4062-20.2881C29.6143-20.2881 20.0439-29.8828 20.0439-41.6504Z"/>
  </g>
  <g id="Semibold-S" transform="matrix(1 0 0 1 1996.15 696)">
   <path d="M8.78906-41.8637C8.78906-24.166 23.1398-9.84854 40.8375-9.84854C46.9324-9.84854 52.5679-11.5888 57.3643-14.592L73.3545 1.43154C74.7525 2.79629 76.5811 3.4376 78.4584 3.4376C82.4705 3.4376 85.4529 0.373047 85.4529-3.62354C85.4529-5.50312 84.7605-7.26729 83.4646-8.62979L67.6031-24.5246C70.9326-29.483 72.8526-35.427 72.8526-41.8637C72.8526-59.5613 58.5352-73.9121 40.8375-73.9121C23.1398-73.9121 8.78906-59.5613 8.78906-41.8637ZM18.6843-41.8637C18.6843-54.1089 28.5923-64.0169 40.8375-64.0169C53.0649-64.0169 62.9907-54.1089 62.9907-41.8637C62.9907-29.6518 53.0649-19.7104 40.8375-19.7104C28.5923-19.7104 18.6843-29.6518 18.6843-41.8637Z"/>
  </g>
  <g id="Medium-S" transform="matrix(1 0 0 1 1699.71 696)">
   <path d="M8.78906-42.0254C8.78906-24.5703 22.9512-10.4482 40.4062-10.4482C46.7168-10.4482 52.5342-12.3232 57.4316-15.5488L74.3652 1.4248C75.6016 2.62109 77.1875 3.1748 78.8223 3.1748C82.3223 3.1748 84.9004 0.507812 84.9004-2.9834C84.9004-4.64062 84.2754-6.16895 83.1816-7.34277L66.3633-24.2012C69.9219-29.2539 71.9834-35.373 71.9834-42.0254C71.9834-59.4805 57.8613-73.6426 40.4062-73.6426C22.9512-73.6426 8.78906-59.4805 8.78906-42.0254ZM17.6533-42.0254C17.6533-54.6143 27.8174-64.7783 40.4062-64.7783C52.9639-64.7783 63.1592-54.6143 63.1592-42.0254C63.1592-29.4766 52.9639-19.2725 40.4062-19.2725C27.8174-19.2725 17.6533-29.4766 17.6533-42.0254Z"/>
  </g>
  <g id="Regular-S" transform="matrix(1 0 0 1 1403.36 696)">
   <path d="M8.78906-42.2363C8.78906-25.0977 22.7051-11.2305 39.8438-11.2305C46.4355-11.2305 52.4902-13.2812 57.5195-16.7969L75.6836 1.41602C76.709 2.39258 77.9785 2.83203 79.2969 2.83203C82.1289 2.83203 84.1797 0.683594 84.1797-2.14844C84.1797-3.51562 83.6426-4.73633 82.8125-5.66406L64.7461-23.7793C68.6035-28.9551 70.8496-35.3027 70.8496-42.2363C70.8496-59.375 56.9824-73.291 39.8438-73.291C22.7051-73.291 8.78906-59.375 8.78906-42.2363ZM16.3086-42.2363C16.3086-55.2734 26.8066-65.7715 39.8438-65.7715C52.832-65.7715 63.3789-55.2734 63.3789-42.2363C63.3789-29.248 52.832-18.7012 39.8438-18.7012C26.8066-18.7012 16.3086-29.248 16.3086-42.2363Z"/>
  </g>
  <g id="Light-S" transform="matrix(1 0 0 1 1107.23 696)">
   <path d="M8.78906-42.5996C8.78906-25.9907 22.2964-12.5171 38.9053-12.5171C45.5728-12.5171 51.688-14.689 56.6719-18.3862L76.062 1.05274C76.8604 1.83252 77.9028 2.22657 78.9941 2.22657C81.3721 2.22657 83.0142 0.426272 83.0142-1.87598C83.0142-2.97071 82.583-3.96436 81.8892-4.74073L62.5664-24.0972C66.5903-29.1973 68.9727-35.6055 68.9727-42.5996C68.9727-59.1934 55.499-72.7007 38.9053-72.7007C22.2964-72.7007 8.78906-59.1934 8.78906-42.5996ZM14.5376-42.5996C14.5376-56.0454 25.4443-66.9521 38.9053-66.9521C52.3174-66.9521 63.2578-56.0454 63.2578-42.5996C63.2578-29.1724 52.3174-18.2319 38.9053-18.2319C25.4443-18.2319 14.5376-29.1724 14.5376-42.5996Z"/>
  </g>
  <g id="Thin-S" transform="matrix(1 0 0 1 811.291 696)">
   <path d="M8.78906-43.0801C8.78906-27.1719 21.7559-14.2187 37.6641-14.2187C44.4317-14.2187 50.627-16.5508 55.5508-20.4883L76.5625 0.572272C77.0605 1.09181 77.8027 1.42579 78.5938 1.42579C80.3711 1.42579 81.4727 0.0859422 81.4727-1.51563C81.4727-2.25001 81.1817-2.94337 80.668-3.51955L59.6836-24.5176C63.9278-29.5176 66.4903-36.0059 66.4903-43.0801C66.4903-58.9531 53.5371-71.9199 37.6641-71.9199C21.7559-71.9199 8.78906-58.9531 8.78906-43.0801ZM12.1953-43.0801C12.1953-57.0664 23.6426-68.5137 37.6641-68.5137C51.6367-68.5137 63.0977-57.0664 63.0977-43.0801C63.0977-29.0723 51.6367-17.6113 37.6641-17.6113C23.6426-17.6113 12.1953-29.0723 12.1953-43.0801Z"/>
  </g>
  <g id="Ultralight-S" transform="matrix(1 0 0 1 514.975 696)">
   <path d="M8.78906-43.3262C8.78906-27.7768 21.479-15.0903 37.0283-15.0903C43.8472-15.0903 50.0835-17.5044 54.9766-21.5649L76.8188 0.32618C77.1631 0.712416 77.7515 1.01564 78.3887 1.01564C79.8584 1.01564 80.6831-0.0883728 80.6831-1.33106C80.6831-1.88087 80.4639-2.42043 80.0425-2.89406L58.2071-24.7329C62.564-29.6816 65.2188-36.2109 65.2188-43.3262C65.2188-58.8301 52.5323-71.52 37.0283-71.52C21.479-71.52 8.78906-58.8301 8.78906-43.3262ZM10.9956-43.3262C10.9956-57.5893 22.7198-69.3134 37.0283-69.3134C51.2881-69.3134 63.0156-57.5893 63.0156-43.3262C63.0156-29.021 51.2881-17.2935 37.0283-17.2935C22.7198-17.2935 10.9956-29.021 10.9956-43.3262Z"/>
  </g>
 </g>
</svg>
