<?xml version="1.0" encoding="UTF-8"?>
<!--Generator: Apple Native CoreSVG 341-->
<!DOCTYPE svg
PUBLIC "-//W3C//DTD SVG 1.1//EN"
       "http://www.w3.org/Graphics/SVG/1.1/DTD/svg11.dtd">
<svg version="1.1" xmlns="http://www.w3.org/2000/svg" xmlns:xlink="http://www.w3.org/1999/xlink" viewBox="0 0 3300 2200">
 <g id="Notes">
  <rect height="2200" id="artboard" style="fill:white;opacity:1" width="3300" x="0" y="0"/>
  <line style="fill:none;stroke:black;opacity:1;stroke-width:0.5;" x1="263" x2="3036" y1="292" y2="292"/>
  <text style="stroke:none;fill:black;font-family:sans-serif;font-size:13;font-weight:bold;" transform="matrix(1 0 0 1 263 322)">Weight/Scale Variations</text>
  <text style="stroke:none;fill:black;font-family:sans-serif;font-size:13;text-anchor:middle;" transform="matrix(1 0 0 1 559.711 322)">Ultralight</text>
  <text style="stroke:none;fill:black;font-family:sans-serif;font-size:13;text-anchor:middle;" transform="matrix(1 0 0 1 856.422 322)">Thin</text>
  <text style="stroke:none;fill:black;font-family:sans-serif;font-size:13;text-anchor:middle;" transform="matrix(1 0 0 1 1153.13 322)">Light</text>
  <text style="stroke:none;fill:black;font-family:sans-serif;font-size:13;text-anchor:middle;" transform="matrix(1 0 0 1 1449.84 322)">Regular</text>
  <text style="stroke:none;fill:black;font-family:sans-serif;font-size:13;text-anchor:middle;" transform="matrix(1 0 0 1 1746.56 322)">Medium</text>
  <text style="stroke:none;fill:black;font-family:sans-serif;font-size:13;text-anchor:middle;" transform="matrix(1 0 0 1 2043.27 322)">Semibold</text>
  <text style="stroke:none;fill:black;font-family:sans-serif;font-size:13;text-anchor:middle;" transform="matrix(1 0 0 1 2339.98 322)">Bold</text>
  <text style="stroke:none;fill:black;font-family:sans-serif;font-size:13;text-anchor:middle;" transform="matrix(1 0 0 1 2636.69 322)">Heavy</text>
  <text style="stroke:none;fill:black;font-family:sans-serif;font-size:13;text-anchor:middle;" transform="matrix(1 0 0 1 2933.4 322)">Black</text>
  <line style="fill:none;stroke:black;opacity:1;stroke-width:0.5;" x1="263" x2="3036" y1="1903" y2="1903"/>
  <g transform="matrix(0.2 0 0 0.2 263 1933)">
   <path d="m46.2402 4.15039c21.7773 0 39.4531-17.627 39.4531-39.4043s-17.6758-39.4043-39.4531-39.4043c-21.7285 0-39.4043 17.627-39.4043 39.4043s17.6758 39.4043 39.4043 39.4043Zm0-7.42188c-17.6758 0-31.9336-14.3066-31.9336-31.9824s14.2578-31.9824 31.9336-31.9824 31.9824 14.3066 31.9824 31.9824-14.3066 31.9824-31.9824 31.9824Zm3.61328-17.7734v-28.4668c0-2.24609-1.46484-3.75977-3.71094-3.75977-2.14844 0-3.61328 1.51367-3.61328 3.75977v28.4668c0 2.19727 1.46484 3.71094 3.61328 3.71094 2.24609 0 3.71094-1.51367 3.71094-3.71094Zm-17.8223-10.5957h28.418c2.19727 0 3.71094-1.46484 3.71094-3.61328 0-2.19727-1.51367-3.71094-3.71094-3.71094h-28.418c-2.24609 0-3.75977 1.51367-3.75977 3.71094 0 2.14844 1.51367 3.61328 3.75977 3.61328Z"/>
  </g>
  <g transform="matrix(0.2 0 0 0.2 281.506 1933)">
   <path d="m58.5449 14.5508c27.4902 0 49.8047-22.3145 49.8047-49.8047s-22.3145-49.8047-49.8047-49.8047-49.8047 22.3145-49.8047 49.8047 22.3145 49.8047 49.8047 49.8047Zm0-8.30078c-22.9492 0-41.5039-18.5547-41.5039-41.5039s18.5547-41.5039 41.5039-41.5039 41.5039 18.5547 41.5039 41.5039-18.5547 41.5039-41.5039 41.5039Zm4.05273-23.0957v-36.9141c0-2.49023-1.70898-4.19922-4.15039-4.19922-2.39258 0-4.05273 1.70898-4.05273 4.19922v36.9141c0 2.44141 1.66016 4.15039 4.05273 4.15039 2.44141 0 4.15039-1.66016 4.15039-4.15039Zm-22.5586-14.4043h36.9629c2.44141 0 4.15039-1.61133 4.15039-4.00391 0-2.44141-1.70898-4.15039-4.15039-4.15039h-36.9629c-2.49023 0-4.15039 1.70898-4.15039 4.15039 0 2.39258 1.66016 4.00391 4.15039 4.00391Z"/>
  </g>
  <g transform="matrix(0.2 0 0 0.2 304.924 1933)">
   <path d="m74.8535 28.3203c35.1074 0 63.623-28.4668 63.623-63.5742s-28.5156-63.623-63.623-63.623-63.5742 28.5156-63.5742 63.623 28.4668 63.5742 63.5742 63.5742Zm0-9.08203c-30.127 0-54.4922-24.3652-54.4922-54.4922s24.3652-54.4922 54.4922-54.4922 54.4922 24.3652 54.4922 54.4922-24.3652 54.4922-54.4922 54.4922Zm4.44336-30.3223v-48.4863c0-2.73438-1.85547-4.63867-4.54102-4.63867-2.58789 0-4.44336 1.9043-4.44336 4.63867v48.4863c0 2.68555 1.85547 4.58984 4.44336 4.58984 2.68555 0 4.54102-1.85547 4.54102-4.58984Zm-28.7109-19.7754h48.4863c2.68555 0 4.58984-1.80664 4.58984-4.39453 0-2.73438-1.85547-4.58984-4.58984-4.58984h-48.4863c-2.73438 0-4.58984 1.85547-4.58984 4.58984 0 2.58789 1.85547 4.39453 4.58984 4.39453Z"/>
  </g>
  <text style="stroke:none;fill:black;font-family:sans-serif;font-size:13;font-weight:bold;" transform="matrix(1 0 0 1 263 1953)">Design Variations</text>
  <text style="stroke:none;fill:black;font-family:sans-serif;font-size:13;" transform="matrix(1 0 0 1 263 1971)">Symbols are supported in up to nine weights and three scales.</text>
  <text style="stroke:none;fill:black;font-family:sans-serif;font-size:13;" transform="matrix(1 0 0 1 263 1989)">For optimal layout with text and other symbols, vertically align</text>
  <text style="stroke:none;fill:black;font-family:sans-serif;font-size:13;" transform="matrix(1 0 0 1 263 2007)">symbols with the adjacent text.</text>
  <line style="fill:none;stroke:#00AEEF;stroke-width:0.5;opacity:1.0;" x1="776" x2="776" y1="1919" y2="1933"/>
  <g transform="matrix(0.2 0 0 0.2 776 1933)">
   <path d="m16.5527 0.78125c2.58789 0 3.85742-0.976562 4.78516-3.71094l20.5566-57.5195h0.244141l20.6055 57.5195c0.927734 2.73438 2.19727 3.71094 4.73633 3.71094 2.58789 0 4.24805-1.5625 4.24805-4.00391 0-0.830078-0.146484-1.61133-0.537109-2.63672l-22.9004-60.9863c-1.12305-2.97852-3.125-4.49219-6.25-4.49219-3.02734 0-5.07812 1.46484-6.15234 4.44336l-22.9004 61.084c-0.390625 1.02539-0.537109 1.80664-0.537109 2.63672 0 2.44141 1.5625 3.95508 4.10156 3.95508Zm10.2051-20.9473h30.6641c2.00195 0 3.66211-1.66016 3.66211-3.66211 0-2.05078-1.66016-3.66211-3.66211-3.66211h-30.6641c-2.00195 0-3.66211 1.61133-3.66211 3.66211 0 2.00195 1.66016 3.66211 3.66211 3.66211Z"/>
  </g>
  <line style="fill:none;stroke:#00AEEF;stroke-width:0.5;opacity:1.0;" x1="792.836" x2="792.836" y1="1919" y2="1933"/>
  <text style="stroke:none;fill:black;font-family:sans-serif;font-size:13;font-weight:bold;" transform="matrix(1 0 0 1 776 1953)">Margins</text>
  <text style="stroke:none;fill:black;font-family:sans-serif;font-size:13;" transform="matrix(1 0 0 1 776 1971)">Leading and trailing margins on the left and right side of each symbol</text>
  <text style="stroke:none;fill:black;font-family:sans-serif;font-size:13;" transform="matrix(1 0 0 1 776 1989)">can be adjusted by modifying the x-location of the margin guidelines.</text>
  <text style="stroke:none;fill:black;font-family:sans-serif;font-size:13;" transform="matrix(1 0 0 1 776 2007)">Modifications are automatically applied proportionally to all</text>
  <text style="stroke:none;fill:black;font-family:sans-serif;font-size:13;" transform="matrix(1 0 0 1 776 2025)">scales and weights.</text>
  <g transform="matrix(0.2 0 0 0.2 1289 1933)">
   <path d="m14.209 13.1348 7.86133 7.86133c4.29688 4.39453 9.32617 4.10156 13.8672-1.02539l60.6934-68.2129-4.88281-4.88281-60.2539 67.6758c-1.80664 1.95312-3.4668 2.44141-5.81055 0.0976562l-5.17578-5.12695c-2.29492-2.29492-1.80664-3.95508 0.195312-5.81055l67.4805-62.1582-4.88281-4.83398-68.0664 62.5977c-4.98047 4.58984-5.32227 9.47266-1.02539 13.8184Zm44.873-97.4609c-2.05078 2.00195-2.24609 4.88281-1.07422 6.78711 1.12305 1.80664 3.4668 3.02734 6.5918 2.24609 5.85938-1.66016 12.5977-2.39258 18.8965 0.927734l-2.68555 7.12891c-1.61133 4.00391-0.732422 6.88477 1.70898 9.42383l10.2539 10.3027c2.34375 2.39258 4.54102 2.44141 7.08008 1.95312l4.44336-0.732422 2.58789 2.53906-0.195312 2.24609c-0.0976562 2.29492 0.537109 4.29688 2.7832 6.49414l3.36914 3.32031c2.29492 2.29492 5.51758 2.49023 7.8125 0.195312l12.9883-13.0371c2.29492-2.34375 2.14844-5.37109-0.195312-7.66602l-3.41797-3.41797c-2.19727-2.19727-4.05273-3.02734-6.34766-2.88086l-2.34375 0.244141-2.44141-2.44141 1.02539-4.6875c0.634766-2.73438-0.244141-4.98047-2.88086-7.61719l-11.2793-11.1816c-12.9395-12.8418-35.5957-11.0352-46.6797-0.146484Zm7.08008 2.05078c8.78906-6.39648 25.9766-5.66406 33.6914 1.95312l12.3047 12.207c1.02539 1.02539 1.2207 1.80664 0.927734 3.32031l-1.46484 6.64062 6.73828 6.68945 4.39453-0.244141c1.12305-0.0488281 1.51367 0.0488281 2.34375 0.878906l2.53906 2.49023-10.8398 10.8398-2.49023-2.49023c-0.830078-0.878906-0.976562-1.2207-0.927734-2.39258l0.292969-4.3457-6.68945-6.73828-6.83594 1.17188c-1.41602 0.292969-2.05078 0.195312-3.17383-0.878906l-8.93555-8.88672c-1.07422-1.02539-1.17188-1.70898-0.488281-3.36914l4.58984-11.4746c-6.10352-6.34766-17.041-7.51953-25.5859-4.58984-0.683594 0.244141-0.927734-0.390625-0.390625-0.78125Z"/>
  </g>
  <text style="stroke:none;fill:black;font-family:sans-serif;font-size:13;font-weight:bold;" transform="matrix(1 0 0 1 1289 1953)">Exporting</text>
  <text style="stroke:none;fill:black;font-family:sans-serif;font-size:13;" transform="matrix(1 0 0 1 1289 1971)">Symbols should be outlined when exporting to ensure the</text>
  <text style="stroke:none;fill:black;font-family:sans-serif;font-size:13;" transform="matrix(1 0 0 1 1289 1989)">design is preserved when submitting to Xcode.</text>
  <text id="template-version" style="stroke:none;fill:black;font-family:sans-serif;font-size:13;text-anchor:end;" transform="matrix(1 0 0 1 3036 1933)">Template v.2.0</text>
  <text style="stroke:none;fill:black;font-family:sans-serif;font-size:13;text-anchor:end;" transform="matrix(1 0 0 1 3036 1951)">Requires Xcode 12 or greater</text>
  <text id="descriptive-name" style="stroke:none;fill:black;font-family:sans-serif;font-size:13;text-anchor:end;" transform="matrix(1 0 0 1 3036 1969)">Generated from arrow.up.left.circle</text>
  <text style="stroke:none;fill:black;font-family:sans-serif;font-size:13;text-anchor:end;" transform="matrix(1 0 0 1 3036 1987)">Typeset at 100.0 points</text>
  <text style="stroke:none;fill:black;font-family:sans-serif;font-size:13;" transform="matrix(1 0 0 1 263 726)">Small</text>
  <text style="stroke:none;fill:black;font-family:sans-serif;font-size:13;" transform="matrix(1 0 0 1 263 1156)">Medium</text>
  <text style="stroke:none;fill:black;font-family:sans-serif;font-size:13;" transform="matrix(1 0 0 1 263 1586)">Large</text>
 </g>
 <g id="Guides">
  <g id="H-reference" style="fill:#27AAE1;stroke:none;" transform="matrix(1 0 0 1 339 696)">
   <path d="M0.993654 0L3.63775 0L29.3281-67.1323L30.0303-67.1323L30.0303-70.459L28.1226-70.459ZM11.6885-24.4799L46.9815-24.4799L46.2315-26.7285L12.4385-26.7285ZM55.1196 0L57.7637 0L30.6382-70.459L29.4326-70.459L29.4326-67.1323Z"/>
  </g>
  <line id="Baseline-S" style="fill:none;stroke:#27AAE1;opacity:1;stroke-width:0.5;" x1="263" x2="3036" y1="696" y2="696"/>
  <line id="Capline-S" style="fill:none;stroke:#27AAE1;opacity:1;stroke-width:0.5;" x1="263" x2="3036" y1="625.541" y2="625.541"/>
  <g id="H-reference" style="fill:#27AAE1;stroke:none;" transform="matrix(1 0 0 1 339 1126)">
   <path d="M0.993654 0L3.63775 0L29.3281-67.1323L30.0303-67.1323L30.0303-70.459L28.1226-70.459ZM11.6885-24.4799L46.9815-24.4799L46.2315-26.7285L12.4385-26.7285ZM55.1196 0L57.7637 0L30.6382-70.459L29.4326-70.459L29.4326-67.1323Z"/>
  </g>
  <line id="Baseline-M" style="fill:none;stroke:#27AAE1;opacity:1;stroke-width:0.5;" x1="263" x2="3036" y1="1126" y2="1126"/>
  <line id="Capline-M" style="fill:none;stroke:#27AAE1;opacity:1;stroke-width:0.5;" x1="263" x2="3036" y1="1055.54" y2="1055.54"/>
  <g id="H-reference" style="fill:#27AAE1;stroke:none;" transform="matrix(1 0 0 1 339 1556)">
   <path d="M0.993654 0L3.63775 0L29.3281-67.1323L30.0303-67.1323L30.0303-70.459L28.1226-70.459ZM11.6885-24.4799L46.9815-24.4799L46.2315-26.7285L12.4385-26.7285ZM55.1196 0L57.7637 0L30.6382-70.459L29.4326-70.459L29.4326-67.1323Z"/>
  </g>
  <line id="Baseline-L" style="fill:none;stroke:#27AAE1;opacity:1;stroke-width:0.5;" x1="263" x2="3036" y1="1556" y2="1556"/>
  <line id="Capline-L" style="fill:none;stroke:#27AAE1;opacity:1;stroke-width:0.5;" x1="263" x2="3036" y1="1485.54" y2="1485.54"/>
  <line id="right-margin" style="fill:none;stroke:#00AEEF;stroke-width:0.5;opacity:1.0;" x1="1508.37" x2="1508.37" y1="1030.79" y2="1150.12"/>
  <line id="left-margin" style="fill:none;stroke:#00AEEF;stroke-width:0.5;opacity:1.0;" x1="1391.32" x2="1391.32" y1="1030.79" y2="1150.12"/>
 </g>
 <g id="Symbols">
  <g id="Black-L" transform="matrix(1 0 0 1 2854.19 1556)">
   <path d="M79.1958 32.6673C116.725 32.6673 147.154 2.25907 147.154-35.2697C147.154-72.7985 116.725-103.207 79.1958-103.207C41.6878-103.207 11.2588-72.7985 11.2588-35.2697C11.2588 2.25907 41.6878 32.6673 79.1958 32.6673ZM79.1958 12.5197C52.7846 12.5197 31.426-8.85853 31.426-35.2697C31.426-61.6809 52.7846-83.0592 79.1958-83.0592C105.607-83.0592 126.985-61.6809 126.985-35.2697C126.985-8.85853 105.607 12.5197 79.1958 12.5197ZM72.9532-52.1085C65.033-58.6177 57.0662-48.6744 62.7266-41.9379L72.7499-29.9881L90.5609-12.2356C92.5885-10.2872 94.6797-9.47463 97.0539-9.47463C101.696-9.47463 105.576-12.829 105.576-17.8217C105.576-20.0738 104.567-22.361 102.89-24.0382L84.8654-42.0631ZM66.9916-31.2055L64.2321-51.0535L83.3089-47.7267L90.9267-47.7267C95.8079-47.7267 98.9702-50.4373 98.9702-54.8264C98.9702-59.213 95.7703-61.9236 90.7931-61.9236L62.8828-61.9236C56.5398-61.9236 52.7726-58.3438 52.7726-51.9499L52.7726-24.1032C52.7726-19.2637 55.4845-16.0597 59.8919-16.0597C64.2809-16.0597 66.9916-19.2597 66.9916-24.1784Z" data-clipstroke-keyframes="0 4 0 0.49910918 1.5009863 0 0.24850748 0.25060266 1.7493968 0 0.49586442 0.003246713 1.9966586 0 0.75063205 0.7484781 1.2515224 0 1 0.49910918 1.5009863 0 0 2.4783816 2.689197 0 0.6116338 2.8811443 2.289117 0 1 2.0008645 2.169285"/>
  </g>
  <g id="Heavy-L" transform="matrix(1 0 0 1 2558.42 1556)">
   <path d="M78.2532 31.7248C115.263 31.7248 145.278 1.74009 145.278-35.2697C145.278-72.2795 115.263-102.264 78.2532-102.264C41.2736-102.264 11.2588-72.2795 11.2588-35.2697C11.2588 1.74009 41.2736 31.7248 78.2532 31.7248ZM78.2532 13.9829C51.0308 13.9829 29.0252-8.04727 29.0252-35.2697C29.0252-62.4921 51.0308-84.5223 78.2532-84.5223C105.476-84.5223 127.506-62.4921 127.506-35.2697C127.506-8.04727 105.476 13.9829 78.2532 13.9829ZM70.49-52.4121C63.3833-58.3503 56.0178-49.5651 61.3741-43.3295L71.4787-31.582L90.8333-12.272C92.5869-10.5933 94.4366-9.84412 96.5879-9.84412C100.757-9.84412 104.131-12.8157 104.131-17.253C104.131-19.2636 103.217-21.2773 101.732-22.7631L82.2231-42.2717ZM65.2177-32.3546L62.7429-51.416L80.9795-48.4792L89.7572-48.4792C94.1569-48.4792 97.0103-50.9543 97.0103-54.9209C97.0103-58.8762 94.1424-61.3513 89.6837-61.3513L61.1896-61.3513C55.6397-61.3513 52.3098-58.2931 52.3098-52.5853L52.3098-24.1874C52.3098-19.8481 54.7906-16.9343 58.7761-16.9343C62.7426-16.9343 65.2177-19.8022 65.2177-24.2162Z" data-clipstroke-keyframes="0 4 0 0.49911496 1.500977 0 0.24847426 0.2506417 1.7493632 0 0.49584827 0.0032687387 1.9966583 0 0.75062776 0.7484882 1.2515179 0 1 0.49911496 1.500977 0 0 2.483121 2.6707778 0 0.6277875 2.8805444 2.2753618 0 1 2.0006287 2.1552105"/>
  </g>
  <g id="Bold-L" transform="matrix(1 0 0 1 2262.89 1556)">
   <path d="M77.0704 30.5419C113.427 30.5419 142.92 1.08726 142.92-35.2697C142.92-71.6267 113.427-101.081 77.0704-101.081C40.7514-101.081 11.2588-71.6267 11.2588-35.2697C11.2588 1.08726 40.7514 30.5419 77.0704 30.5419ZM77.0704 15.7963C48.8414 15.7963 26.0292-7.04073 26.0292-35.2697C26.0292-63.4987 48.8414-86.3357 77.0704-86.3357C105.299-86.3357 128.136-63.4987 128.136-35.2697C128.136-7.04073 105.299 15.7963 77.0704 15.7963ZM67.3277-52.8854C61.2649-58.0646 54.7193-50.7088 59.6096-45.1701L69.6203-33.8549L91.1863-12.3181C92.6092-10.9624 94.1592-10.2976 96.0265-10.2976C99.5897-10.2976 102.348-12.7929 102.348-16.5313C102.348-18.2422 101.557-19.9178 100.31-21.1654L78.6516-42.8235ZM62.8934-33.9103L60.8093-51.9661L77.8892-49.5432L88.4169-49.5432C92.1949-49.5432 94.6493-51.704 94.6493-55.1256C94.6493-58.5208 92.2036-60.6816 88.4052-60.6816L59.0546-60.6816C54.4883-60.6816 51.7038-58.239 51.7038-53.4139L51.7038-24.1905C51.7038-20.4885 53.8778-17.9581 57.311-17.9581C60.7326-17.9581 62.8934-20.4037 62.8934-24.1729Z" data-clipstroke-keyframes="0 4 0 0.4991212 1.5009787 0 0.24844806 0.25067374 1.7493408 0 0.4958291 0.0032933003 1.9966578 0 0.75062466 0.7484971 1.2515188 0 1 0.4991212 1.5009787 0 0 2.4873054 2.6467533 0 0.653301 2.882013 2.2532985 0 1 2.0002675 2.1350236"/>
  </g>
  <g id="Semibold-L" transform="matrix(1 0 0 1 1966.99 1556)">
   <path d="M76.2549 29.7265C112.162 29.7265 141.294 0.637211 141.294-35.2697C141.294-71.1766 112.162-100.266 76.2549-100.266C40.3914-100.266 11.2588-71.1766 11.2588-35.2697C11.2588 0.637211 40.3914 29.7265 76.2549 29.7265ZM76.2549 17.0464C47.3321 17.0464 23.9637-6.34682 23.9637-35.2697C23.9637-64.1926 47.3321-87.5858 76.2549-87.5858C105.178-87.5858 128.571-64.1926 128.571-35.2697C128.571-6.34682 105.178 17.0464 76.2549 17.0464ZM65.1476-53.2118C59.8045-57.8676 53.824-51.4972 58.3931-46.4389L68.3392-35.4218L91.4297-12.3498C92.6245-11.2169 93.968-10.6102 95.6394-10.6102C98.7846-10.6102 101.119-12.7771 101.119-16.0337C101.119-17.538 100.413-18.9805 99.3294-20.064L76.1895-43.2039ZM61.2911-34.9828L59.4763-52.3454L75.7588-50.2767L87.4928-50.2767C90.8423-50.2767 93.0216-52.2208 93.0216-55.2667C93.0216-58.2758 90.8671-60.2198 87.5238-60.2198L57.5828-60.2198C53.6944-60.2198 51.286-58.2017 51.286-53.9851L51.286-24.1927C51.286-20.9299 53.2486-18.6639 56.301-18.6639C59.347-18.6639 61.2911-20.8184 61.2911-24.1431Z" data-clipstroke-keyframes="0 4 0 0.49912587 1.5009798 0 0.24842998 0.250696 1.7493253 0 0.49581593 0.0033102364 1.9966576 0 0.7506225 0.74850345 1.2515194 0 1 0.49912587 1.5009798 0 0 2.4902506 2.6305823 0 0.67088985 2.8832414 2.2383072 0 1 2.0000372 2.121562"/>
  </g>
  <g id="Medium-L" transform="matrix(1 0 0 1 1670.9 1556)">
   <path d="M75.6366 29.1081C111.202 29.1081 140.062 0.295961 140.062-35.2697C140.062-70.8354 111.202-99.6475 75.6366-99.6475C40.1184-99.6475 11.2588-70.8354 11.2588-35.2697C11.2588 0.295961 40.1184 29.1081 75.6366 29.1081ZM75.6366 17.9943C46.1876 17.9943 22.3976-5.82067 22.3976-35.2697C22.3976-64.7187 46.1876-88.5337 75.6366-88.5337C105.086-88.5337 128.901-64.7187 128.901-35.2697C128.901-5.82067 105.086 17.9943 75.6366 17.9943ZM63.4946-53.4592C58.6971-57.7183 53.1452-52.095 57.4707-47.401L67.3677-36.6099L91.6142-12.3739C92.6362-11.4099 93.823-10.8473 95.346-10.8473C98.1742-10.8473 100.187-12.7652 100.187-15.6564C100.187-17.0041 99.5451-18.2699 98.5861-19.2288L74.3226-43.4923ZM60.0761-35.796L58.4655-52.6329L74.1434-50.8328L86.7922-50.8328C89.8167-50.8328 91.7874-52.6126 91.7874-55.3738C91.7874-58.09 89.8536-59.8698 86.8555-59.8698L56.4668-59.8698C53.0926-59.8698 50.9693-58.1735 50.9693-54.4182L50.9693-24.1943C50.9693-21.2647 52.7715-19.1991 55.5352-19.1991C58.2963-19.1991 60.0761-21.1329 60.0761-24.1205Z" data-clipstroke-keyframes="0 4 0 0.49912962 1.5009806 0 0.24841629 0.250713 1.7493135 0 0.4958059 0.00332308 1.9966574 0 0.75062096 0.74850833 1.2515199 0 1 0.49912962 1.5009806 0 0 2.4925041 2.6182113 0 0.6842264 2.884173 2.2268434 0 1 2.9998713 2.111268"/>
  </g>
  <g id="Regular-L" transform="matrix(1 0 0 1 1374.99 1556)">
   <path d="M74.8301 28.3017C109.951 28.3017 138.454-0.149147 138.454-35.2697C138.454-70.3903 109.951-98.8411 74.8301-98.8411C39.7624-98.8411 11.2588-70.3903 11.2588-35.2697C11.2588-0.149147 39.7624 28.3017 74.8301 28.3017ZM74.8301 19.2307C44.6948 19.2307 20.3549-5.13439 20.3549-35.2697C20.3549-65.405 44.6948-89.7701 74.8301-89.7701C104.965-89.7701 129.331-65.405 129.331-35.2697C129.331-5.13439 104.965 19.2307 74.8301 19.2307ZM61.3384-53.782C57.2527-57.5235 52.2598-52.8748 56.2677-48.6559L66.1007-38.1595L91.8549-12.4053C92.6514-11.6616 93.6339-11.1565 94.9632-11.1565C97.3779-11.1565 98.971-12.7496 98.971-15.1643C98.971-16.3077 98.4132-17.3429 97.6166-18.1395L71.8876-43.8686ZM58.4914-36.8567L57.1472-53.008L72.0364-51.5583L85.8783-51.5583C88.479-51.5583 90.1776-53.1237 90.1776-55.5134C90.1776-57.8477 88.5317-59.4131 85.9838-59.4131L55.0111-59.4131C52.3075-59.4131 50.5561-58.1366 50.5561-54.9832L50.5561-24.1965C50.5561-21.7013 52.1492-19.8971 54.5363-19.8971C56.9259-19.8971 58.4914-21.543 58.4914-24.0909Z" data-clipstroke-keyframes="0 4 0 0.4991348 1.5009816 0 0.24839842 0.2507353 1.7492981 0 0.49579284 0.0033398352 1.9966571 0 0.7506188 0.7485149 1.2515205 0 1 0.4991348 1.5009816 0 0 2.4954746 2.601937 0 0.701622 2.8853889 2.2117734 0 1 2.999666 2.0977383"/>
  </g>
  <g id="Light-L" transform="matrix(1 0 0 1 1079.2 1556)">
   <path d="M73.9141 27.3856C108.519 27.3856 136.603-0.66445 136.603-35.2697C136.603-69.875 108.519-97.925 73.9141-97.925C39.3425-97.925 11.2588-69.875 11.2588-35.2697C11.2588-0.66445 39.3425 27.3856 73.9141 27.3856ZM73.9141 20.4903C43.0726 20.4903 18.141-4.42824 18.141-35.2697C18.141-66.1112 43.0726-91.0297 73.9141-91.0297C104.756-91.0297 129.674-66.1112 129.674-35.2697C129.674-4.42824 104.756 20.4903 73.9141 20.4903ZM58.4375-54.7362C55.306-57.6189 51.3628-53.9245 54.4736-50.6789L62.9898-41.6521L92.1984-12.4435C92.8232-11.8524 93.5957-11.4428 94.6769-11.4428C96.5382-11.4428 97.7877-12.6923 97.7877-14.5536C97.7877-15.487 97.3444-16.2932 96.7196-16.918L67.4979-46.1397ZM56.0675-38.7843L55.2386-54.0386L68.582-53.1424L85.6493-53.1424C87.6583-53.1424 88.9752-54.3452 88.9752-56.2195C88.9752-58.0004 87.692-59.2032 85.7166-59.2032L53.2935-59.2032C51.2769-59.2032 49.9263-58.1557 49.9263-55.8229L49.9263-23.5476C49.9263-21.6059 51.1758-20.2216 52.9904-20.2216C54.8647-20.2216 56.0675-21.5048 56.0675-23.4802Z" data-clipstroke-keyframes="0 4 0 0.4991267 1.5010552 0 0.24847661 0.250649 1.7494005 0 0.49578533 0.0033392205 1.9966568 0 0.750631 0.7484946 1.2515575 0 1 0.4991267 1.5010552 0 0 2.4945822 2.5795557 0 0.75469506 2.9006817 2.1733232 0 1 2.9991899 2.0751076"/>
  </g>
  <g id="Thin-L" transform="matrix(1 0 0 1 783.716 1556)">
   <path d="M72.7024 26.174C106.626 26.174 134.155-1.34598 134.155-35.2697C134.155-69.1934 106.626-96.7134 72.7024-96.7134C38.7872-96.7134 11.2588-69.1934 11.2588-35.2697C11.2588-1.34598 38.7872 26.174 72.7024 26.174ZM72.7024 22.1563C40.927 22.1563 15.2129-3.49429 15.2129-35.2697C15.2129-67.0451 40.927-92.6957 72.7024-92.6957C104.478-92.6957 130.128-67.0451 130.128-35.2697C130.128-3.49429 104.478 22.1563 72.7024 22.1563ZM54.6007-55.9983C52.7313-57.7451 50.1764-55.3128 52.1009-53.3546L58.8753-46.2714L92.6527-12.494C93.0503-12.1048 93.5452-11.8214 94.2983-11.8214C95.4275-11.8214 96.2227-12.6166 96.2227-13.7459C96.2227-14.4016 95.9309-14.9049 95.5333-15.3025L61.6923-49.1435ZM52.8618-41.3338L52.7145-55.4016L64.0132-55.2374L85.3464-55.2374C86.5729-55.2374 87.385-55.9606 87.385-57.1535C87.385-58.2023 86.5813-58.9255 85.3632-58.9255L51.0217-58.9255C49.9138-58.9255 49.0933-58.1809 49.0933-56.9336L49.0933-22.6893C49.0933-21.4797 49.8885-20.6507 50.9458-20.6507C52.1386-20.6507 52.8618-21.4543 52.8618-22.6725Z" data-clipstroke-keyframes="0 4 0 0.49911413 1.5011477 0 0.24858002 0.25053394 1.7495334 0 0.49577537 0.003338395 1.9966562 0 0.75064707 0.7484669 1.2516038 0 1 0.49911413 1.5011477 0 0 2.494636 2.551067 0 0.82488847 2.9209042 2.1248019 0 1 2.9988515 2.0474312"/>
  </g>
  <g id="Ultralight-L" transform="matrix(1 0 0 1 487.631 1556)">
   <path d="M72.0819 25.5534C105.657 25.5534 132.9-1.69505 132.9-35.2697C132.9-68.8443 105.657-96.0928 72.0819-96.0928C38.5027-96.0928 11.2588-68.8443 11.2588-35.2697C11.2588-1.69505 38.5027 25.5534 72.0819 25.5534ZM72.0819 23.0096C39.8281 23.0096 13.7132-3.01593 13.7132-35.2697C13.7132-67.5235 39.8281-93.549 72.0819-93.549C104.336-93.549 130.361-67.5235 130.361-35.2697C130.361-3.01593 104.336 23.0096 72.0819 23.0096ZM52.6355-56.6448C51.4126-57.8097 49.5688-56.0239 50.8856-54.725L56.768-48.6374L92.8855-12.5198C93.1667-12.2341 93.5194-12.0153 94.1043-12.0153C94.8587-12.0153 95.4212-12.5778 95.4212-13.3321C95.4212-13.8457 95.2069-14.1939 94.9256-14.4751L58.7187-50.682ZM51.2199-42.6396L51.4216-56.0998L61.6731-56.3105L85.1912-56.3105C86.017-56.3105 86.5705-56.7881 86.5705-57.6318C86.5705-58.3057 86.0125-58.7833 85.1822-58.7833L49.8581-58.7833C49.2157-58.7833 48.6666-58.1939 48.6666-57.5024L48.6666-22.2498C48.6666-21.415 49.2291-20.8705 49.8986-20.8705C50.7423-20.8705 51.2199-21.4285 51.2199-22.2588Z" data-clipstroke-keyframes="0 4 0 0.4991068 1.5011932 0 0.248633 0.25047454 1.7496005 0 0.49577028 0.0033379663 1.996656 0 0.7506553 0.74845225 1.2516266 0 1 0.4991068 1.5011932 0 0 2.4943063 2.535026 0 0.86084116 2.930911 2.0984864 0 1 2.9987988 2.0314171"/>
  </g>
  <g id="Black-M" transform="matrix(1 0 0 1 2871.36 1126)">
   <path d="M62.0422 18.0589C91.4936 18.0589 115.367-5.80932 115.367-35.2606C115.367-64.712 91.4936-88.5802 62.0422-88.5802C32.5964-88.5802 8.72266-64.712 8.72266-35.2606C8.72266-5.80932 32.5964 18.0589 62.0422 18.0589ZM62.0422 0.677054C42.1819 0.677054 26.1103-15.4003 26.1103-35.2606C26.1103-55.1209 42.1819-71.1983 62.0422-71.1983C81.9025-71.1983 97.9799-55.1209 97.9799-35.2606C97.9799-15.4003 81.9025 0.677054 62.0422 0.677054ZM58.2439-48.1748C51.5379-53.592 44.9911-45.0225 49.5162-39.5048L57.0335-30.2721L69.9737-17.389C71.7568-15.6685 73.5562-14.9973 75.5534-14.9973C79.4812-14.9973 82.8762-17.8785 82.8762-22.1489C82.8762-24.0728 82.0283-26.0489 80.5877-27.4895L67.4249-40.6523ZM53.0973-31.3856L50.7846-47.317L66.0768-44.4795L71.4188-44.4795C75.5341-44.4795 78.1978-46.7328 78.1978-50.4265C78.1978-54.1207 75.4825-56.374 71.2585-56.374L49.9404-56.374C44.4377-56.374 41.1976-53.1833 41.1976-47.7512L41.1976-26.4492C41.1976-22.3449 43.4506-19.6702 47.1503-19.6702C50.844-19.6702 53.0973-22.3856 53.0973-26.5524Z" data-clipstroke-keyframes="0 4 0 0.4991024 1.5010128 0 0.24855801 0.25054482 1.7494538 0 0.49588108 0.0032221824 1.9966589 0 0.7506389 0.74846387 1.2515355 0 1 0.4991024 1.5010128 0 0 2.4742265 2.7049139 0 0.6029957 2.8841596 2.2984354 0 1 2.00099 2.1813982"/>
  </g>
  <g id="Heavy-M" transform="matrix(1 0 0 1 2575.48 1126)">
   <path d="M61.2053 17.222C90.1969 17.222 113.704-6.26912 113.704-35.2606C113.704-64.2522 90.1969-87.7433 61.2053-87.7433C32.2302-87.7433 8.72266-64.2522 8.72266-35.2606C8.72266-6.26912 32.2302 17.222 61.2053 17.222ZM61.2053 1.99116C40.6171 1.99116 23.9677-14.6724 23.9677-35.2606C23.9677-55.8489 40.6171-72.5124 61.2053-72.5124C81.7936-72.5124 98.4571-55.8489 98.4571-35.2606C98.4571-14.6724 81.7936 1.99116 61.2053 1.99116ZM56.1035-48.3835C50.1048-53.3219 44.049-45.7964 48.3596-40.6786L56.0778-31.5081L70.2084-17.4211C71.7394-15.9501 73.322-15.3321 75.1243-15.3321C78.6411-15.3321 81.5723-17.8708 81.5723-21.6493C81.5723-23.3565 80.8071-25.0863 79.5378-26.3557L65.2468-40.6466ZM51.5868-32.331L49.5049-47.5764L64.1183-45.069L70.2967-45.069C73.9958-45.069 76.3928-47.1255 76.3928-50.4537C76.3928-53.7773 73.9686-55.8339 70.1986-55.8339L48.4436-55.8339C43.6529-55.8339 40.8033-53.1319 40.8033-48.2949L40.8033-26.5914C40.8033-22.925 42.8621-20.4952 46.2021-20.4952C49.5303-20.4952 51.5868-22.9194 51.5868-26.6458Z" data-clipstroke-keyframes="0 4 0 0.4991097 1.5009897 0 0.24850677 0.25060385 1.7493978 0 0.49586156 0.003250038 1.9966586 0 0.75063205 0.74847853 1.2515241 0 1 0.4991097 1.5009897 0 0 2.478971 2.6853063 0 0.61705875 2.8819323 2.2849357 0 1 2.0007832 2.1659582"/>
  </g>
  <g id="Bold-M" transform="matrix(1 0 0 1 2279.69 1126)">
   <path d="M60.2692 16.2859C88.7463 16.2859 111.844-6.78347 111.844-35.2606C111.844-63.7378 88.7463-86.8071 60.2692-86.8071C31.8206-86.8071 8.72266-63.7378 8.72266-35.2606C8.72266-6.78347 31.8206 16.2859 60.2692 16.2859ZM60.2692 3.46117C38.8667 3.46117 21.5708-13.8582 21.5708-35.2606C21.5708-56.6631 38.8667-73.9825 60.2692-73.9825C81.6717-73.9825 98.991-56.6631 98.991-35.2606C98.991-13.8582 81.6717 3.46117 60.2692 3.46117ZM53.7092-48.617C48.5016-53.0196 42.9951-46.6622 47.0657-41.9917L55.0086-32.8907L70.4709-17.457C71.7199-16.2651 73.06-15.7067 74.6442-15.7067C77.7013-15.7067 80.1138-17.8622 80.1138-21.0905C80.1138-22.5552 79.4411-24.0096 78.3633-25.0873L62.8103-40.6403ZM49.8971-33.3887L48.0733-47.8665L61.9275-45.7284L69.0414-45.7284C72.2751-45.7284 74.3737-47.5648 74.3737-50.4842C74.3737-53.3932 72.2751-55.2296 69.013-55.2296L46.7693-55.2296C42.7749-55.2296 40.3622-53.0745 40.3622-48.9031L40.3622-26.7504C40.3622-23.574 42.2037-21.4181 45.1414-21.4181C48.0607-21.4181 49.8971-23.5167 49.8971-26.7502Z" data-clipstroke-keyframes="0 4 0 0.49911895 1.5009658 0 0.24844946 0.25067046 1.749336 0 0.49583972 0.0032812099 1.9966581 0 0.7506244 0.7484955 1.2515123 0 1 0.49911895 1.5009658 0 0 2.485853 2.6618912 0 0.6327903 2.8790035 2.2703466 0 1 2.0005574 2.1487834"/>
  </g>
  <g id="Semibold-M" transform="matrix(1 0 0 1 1983.62 1126)">
   <path d="M59.6238 15.6405C87.7463 15.6405 110.562-7.13807 110.562-35.2606C110.562-63.3832 87.7463-86.1618 59.6238-86.1618C31.5382-86.1618 8.72266-63.3832 8.72266-35.2606C8.72266-7.13807 31.5382 15.6405 59.6238 15.6405ZM59.6238 4.47459C37.6599 4.47459 19.9185-13.2968 19.9185-35.2606C19.9185-57.2245 37.6599-74.9959 59.6238-74.9959C81.5876-74.9959 99.359-57.2245 99.359-35.2606C99.359-13.2968 81.5876 4.47459 59.6238 4.47459ZM52.0586-48.7779C47.3964-52.8113 42.2685-47.259 46.1737-42.897L54.2715-33.8438L70.6518-17.4817C71.7065-16.4822 72.8794-15.9649 74.3133-15.9649C77.0534-15.9649 79.1082-17.8563 79.1082-20.7053C79.1082-22.0028 78.4993-23.2672 77.5536-24.213L61.1306-40.6359ZM48.7323-34.1178L47.0863-48.0665L60.4171-46.1831L68.176-46.1831C71.0888-46.1831 72.9817-47.8677 72.9817-50.5052C72.9817-53.1284 71.1077-54.8131 68.1957-54.8131L45.6151-54.8131C42.1696-54.8131 40.0581-53.0349 40.0581-49.3224L40.0581-26.86C40.0581-24.0213 41.7499-22.0543 44.4102-22.0543C47.0476-22.0543 48.7323-23.9284 48.7323-26.8222Z" data-clipstroke-keyframes="0 4 0 0.49912608 1.5009503 0 0.24840996 0.25071678 1.749294 0 0.4958247 0.0033027069 1.9966578 0 0.7506191 0.74850756 1.2515047 0 1 0.49912608 1.5009503 0 0 2.4889178 2.645823 0 0.6436356 2.8770835 2.258565 0 1 2.0003972 2.1353352"/>
  </g>
  <g id="Medium-M" transform="matrix(1 0 0 1 1687.4 1126)">
   <path d="M59.1344 15.1511C86.9881 15.1511 109.59-7.40694 109.59-35.2606C109.59-63.1144 86.9881-85.6724 59.1344-85.6724C31.3241-85.6724 8.72266-63.1144 8.72266-35.2606C8.72266-7.40694 31.3241 15.1511 59.1344 15.1511ZM59.1344 5.24301C36.7449 5.24301 18.6656-12.8711 18.6656-35.2606C18.6656-57.6501 36.7449-75.7643 59.1344-75.7643C81.5239-75.7643 99.6381-57.6501 99.6381-35.2606C99.6381-12.8711 81.5239 5.24301 59.1344 5.24301ZM50.807-48.8999C46.5584-52.6533 41.7176-47.7116 45.4974-43.5834L53.7127-34.5666L70.7891-17.5005C71.6963-16.6469 72.7425-16.1606 74.0624-16.1606C76.5621-16.1606 78.3458-17.8518 78.3458-20.4132C78.3458-21.584 77.7853-22.7044 76.9397-23.55L59.857-40.6326ZM47.849-34.6706L46.338-48.2181L59.2719-46.5278L67.5199-46.5278C70.1893-46.5278 71.9262-48.0973 71.9262-50.5211C71.9262-52.9276 70.2224-54.4972 67.5759-54.4972L44.7398-54.4972C41.7107-54.4972 39.8275-53.0049 39.8275-49.6403L39.8275-26.9431C39.8275-24.3606 41.4057-22.5368 43.8557-22.5368C46.2795-22.5368 47.849-24.2406 47.849-26.8768Z" data-clipstroke-keyframes="0 4 0 0.4991319 1.5009391 0 0.24837999 0.25075206 1.7492626 0 0.49581325 0.0033190108 1.9966576 0 0.7506151 0.7485169 1.251499 0 1 0.4991319 1.5009391 0 0 2.4917789 2.6338198 0 0.6518588 2.875722 2.2502458 0 1 2.0002813 2.1258552"/>
  </g>
  <g id="Regular-M" transform="matrix(1 0 0 1 1391.32 1126)">
   <path d="M58.4961 14.5128C85.9991 14.5128 108.321-7.75763 108.321-35.2606C108.321-62.7637 85.9991-85.0341 58.4961-85.0341C31.0448-85.0341 8.72266-62.7637 8.72266-35.2606C8.72266-7.75763 31.0448 14.5128 58.4961 14.5128ZM58.4961 6.24529C35.5514 6.24529 17.0314-12.316 17.0314-35.2606C17.0314-58.2053 35.5514-76.7666 58.4961-76.7666C81.4408-76.7666 100.002-58.2053 100.002-35.2606C100.002-12.316 81.4408 6.24529 58.4961 6.24529ZM49.1746-49.0591C45.4654-52.4472 40.999-48.3019 44.6152-44.4787L52.9837-35.5093L70.968-17.5249C71.683-16.8617 72.5639-16.416 73.7351-16.416C75.9213-16.416 77.3513-17.846 77.3513-20.0322C77.3513-21.0376 76.8539-21.9702 76.1389-22.6852L58.1957-40.6283ZM46.6969-35.3917L45.3619-48.4159L57.7782-46.9774L66.664-46.9774C69.016-46.9774 70.5495-48.3968 70.5495-50.5419C70.5495-52.6658 69.0678-54.0852 66.7675-54.0852L43.5983-54.0852C41.1121-54.0852 39.5268-52.9657 39.5268-50.055L39.5268-27.0515C39.5268-24.803 40.9568-23.166 43.1325-23.166C45.2775-23.166 46.6969-24.6477 46.6969-26.948Z" data-clipstroke-keyframes="0 4 0 0.49914 1.5009251 0 0.2483409 0.2507984 1.7492216 0 0.49579838 0.0033402822 1.9966574 0 0.7506099 0.74852943 1.2514921 0 1 0.49914 1.5009251 0 0 2.4955747 2.6179833 0 0.6625849 2.8739204 2.239295 0 1 2.000132 2.113375"/>
  </g>
  <g id="Light-M" transform="matrix(1 0 0 1 1095.44 1126)">
   <path d="M57.6748 13.6915C84.7158 13.6915 106.662-8.21963 106.662-35.2606C106.662-62.3017 84.7158-84.2128 57.6748-84.2128C30.6684-84.2128 8.72266-62.3017 8.72266-35.2606C8.72266-8.21963 30.6684 13.6915 57.6748 13.6915ZM57.6748 7.37462C34.097 7.37462 15.0465-11.6829 15.0465-35.2606C15.0465-58.8384 34.097-77.8959 57.6748-77.8959C81.2526-77.8959 100.31-58.8384 100.31-35.2606C100.31-11.6829 81.2526 7.37462 57.6748 7.37462ZM46.5737-49.9146C43.7201-52.5327 40.1948-49.243 43.0068-46.2924L50.1946-38.6406L71.276-17.5591C71.837-17.0328 72.5296-16.6726 73.4784-16.6726C75.1684-16.6726 76.2904-17.7947 76.2904-19.4846C76.2904-20.3018 75.8957-21.0291 75.3347-21.5901L54.2602-42.6645ZM44.5238-37.1199L43.6508-49.3399L54.6811-48.3976L66.4587-48.3976C68.2803-48.3976 69.4716-49.4919 69.4716-51.175C69.4716-52.8026 68.3149-53.897 66.528-53.897L42.0583-53.897C40.1881-53.897 38.9622-52.9828 38.9622-50.8078L38.9622-26.4697C38.9622-24.7175 40.0842-23.4569 41.7465-23.4569C43.4295-23.4569 44.5238-24.6135 44.5238-26.4005Z" data-clipstroke-keyframes="0 4 0 0.49913153 1.501013 0 0.2484314 0.25069898 1.7493415 0 0.49578968 0.003339577 1.9966569 0 0.75062394 0.7485064 1.2515363 0 1 0.49913153 1.501013 0 0 2.4954135 2.5927525 0 0.7240024 2.8919208 2.1960466 0 1 2.9994445 2.0887706"/>
  </g>
  <g id="Thin-M" transform="matrix(1 0 0 1 799.828 1126)">
   <path d="M56.5885 12.6052C83.0185 12.6052 104.466-8.83065 104.466-35.2606C104.466-61.6906 83.0185-83.1265 56.5885-83.1265C30.1705-83.1265 8.72266-61.6906 8.72266-35.2606C8.72266-8.83065 30.1705 12.6052 56.5885 12.6052ZM56.5885 8.86824C32.1734 8.86824 12.4213-10.8455 12.4213-35.2606C12.4213-59.6758 32.1734-79.3895 56.5885-79.3895C81.0036-79.3895 100.717-59.6758 100.717-35.2606C100.717-10.8455 81.0036 8.86824 56.5885 8.86824ZM43.1338-51.0462C41.4118-52.6459 39.1312-50.4877 40.8795-48.6913L46.5058-42.782L71.6834-17.6044C72.0407-17.2591 72.4844-17.0121 73.139-17.0121C74.1727-17.0121 74.8873-17.7268 74.8873-18.7605C74.8873-19.3287 74.6283-19.7844 74.271-20.1417L49.0552-45.3576ZM41.6498-39.4056L41.3877-50.562L50.5849-50.2759L66.1871-50.2759C67.3071-50.2759 68.0458-50.9403 68.0458-52.0123C68.0458-52.9837 67.3192-53.6481 66.2111-53.6481L40.0215-53.6481C38.966-53.6481 38.2153-53.0055 38.2153-51.8036L38.2153-25.7003C38.2153-24.6043 38.93-23.8416 39.9134-23.8416C40.9854-23.8416 41.6498-24.5683 41.6498-25.6763Z" data-clipstroke-keyframes="0 4 0 0.49911785 1.5011225 0 0.24855107 0.25056624 1.7494965 0 0.49577817 0.0033386275 1.9966564 0 0.7506426 0.7484748 1.2515912 0 1 0.49911785 1.5011225 0 0 2.494623 2.5590305 0 0.80523205 2.9152744 2.138346 0 1 2.9989142 2.0551794"/>
  </g>
  <g id="Ultralight-M" transform="matrix(1 0 0 1 503.679 1126)">
   <path d="M56.0321 12.0488C82.1491 12.0488 103.342-9.14362 103.342-35.2606C103.342-61.3777 82.1491-82.5701 56.0321-82.5701C29.9155-82.5701 8.72266-61.3777 8.72266-35.2606C8.72266-9.14362 29.9155 12.0488 56.0321 12.0488ZM56.0321 9.63326C31.1881 9.63326 11.0767-10.4166 11.0767-35.2606C11.0767-60.1046 31.1881-80.1545 56.0321-80.1545C80.8761-80.1545 100.926-60.1046 100.926-35.2606C100.926-10.4166 80.8761 9.63326 56.0321 9.63326ZM41.372-51.6257C40.2294-52.7039 38.5864-51.1252 39.7899-49.9199L44.6164-44.9032L71.892-17.6276C72.145-17.375 72.4612-17.186 72.9651-17.186C73.6627-17.186 74.1687-17.692 74.1687-18.3895C74.1687-18.8303 73.9792-19.1469 73.7262-19.3999L46.3892-46.7369ZM40.1777-40.5763L40.2286-51.1879L48.4869-51.238L66.048-51.238C66.8087-51.238 67.3156-51.6821 67.3156-52.4412C67.3156-53.0764 66.8091-53.5205 66.0489-53.5205L38.9783-53.5205C38.3401-53.5205 37.8328-53.0171 37.8328-52.3136L37.8328-25.3062C37.8328-24.5463 38.3388-24.0386 38.9745-24.0386C39.7335-24.0386 40.1777-24.5451 40.1777-25.3054Z" data-clipstroke-keyframes="0 4 0 0.49910972 1.5011756 0 0.24861237 0.25049773 1.7495744 0 0.49577227 0.0033381337 1.9966561 0 0.7506521 0.748458 1.2516178 0 1 0.49910972 1.5011756 0 0 2.4954202 2.5414762 0 0.8468375 2.9270468 2.109891 0 1 2.9988093 2.0388443"/>
  </g>
  <g id="Black-S" transform="matrix(1 0 0 1 2884.57 696)">
   <path d="M48.8281 6.73828C72.0215 6.73828 90.8203-12.0605 90.8203-35.2539C90.8203-58.4473 72.0215-77.2461 48.8281-77.2461C25.6348-77.2461 6.83594-58.4473 6.83594-35.2539C6.83594-12.0605 25.6348 6.73828 48.8281 6.73828ZM48.8281-7.42188C33.4473-7.42188 20.9961-19.873 20.9961-35.2539C20.9961-50.6348 33.4473-63.0859 48.8281-63.0859C64.209-63.0859 76.6602-50.6348 76.6602-35.2539C76.6602-19.873 64.209-7.42188 48.8281-7.42188ZM46.1426-45.3613C40.7227-49.707 35.498-42.7246 39.0625-38.3301L44.8242-31.1523L54.7852-21.2402C56.25-19.8242 57.7148-19.2871 59.3262-19.2871C62.5-19.2871 65.2832-21.6309 65.2832-25.0977C65.2832-26.6602 64.5996-28.2715 63.4277-29.4434L53.2715-39.5996ZM41.9434-32.0312L40.0879-44.6777L52.1973-42.3828L56.2988-42.3828C59.6191-42.3828 61.7676-44.1895 61.7676-47.168C61.7676-50.1465 59.5703-51.9531 56.1523-51.9531L39.502-51.9531C35.0098-51.9531 32.373-49.3164 32.373-44.9219L32.373-28.2715C32.373-24.9512 34.1797-22.8027 37.1582-22.8027C40.1367-22.8027 41.9434-25 41.9434-28.3691Z" data-clipstroke-keyframes="0 4 0 0.49909934 1.5010297 0 0.24858454 0.2505148 1.749485 0 0.49588796 0.0032113674 1.996659 0 0.7506426 0.7484567 1.251544 0 1 0.49909934 1.5010297 0 0 2.4724379 2.710569 0 0.6021233 2.8862867 2.3005214 0 1 2.0009997 2.1855383"/>
  </g>
  <g id="Heavy-S" transform="matrix(1 0 0 1 2588.47 696)">
   <path d="M48.2173 6.12748C71.0765 6.12748 89.6102-12.3948 89.6102-35.2539C89.6102-58.1131 71.0765-76.6353 48.2173-76.6353C25.3697-76.6353 6.83594-58.1131 6.83594-35.2539C6.83594-12.3948 25.3697 6.12748 48.2173 6.12748ZM48.2173-6.4423C32.2948-6.4423 19.4172-19.3314 19.4172-35.2539C19.4172-51.1764 32.2948-64.0655 48.2173-64.0655C64.1398-64.0655 77.0289-51.1764 77.0289-35.2539C77.0289-19.3314 64.1398-6.4423 48.2173-6.4423ZM44.6444-45.4305C39.72-49.465 34.7951-43.2663 38.2788-39.1022L44.3632-31.8092L54.9465-21.2633C56.2154-20.0432 57.5189-19.5406 58.992-19.5406C61.8777-19.5406 64.3036-21.6309 64.3036-24.7404C64.3036-26.1416 63.6777-27.5685 62.6325-28.6136L51.9116-39.3345ZM40.9292-32.619L39.212-44.7815L50.918-42.7055L55.3653-42.7055C58.3975-42.7055 60.3616-44.3854 60.3616-47.1103C60.3616-49.8353 58.3718-51.5152 55.2765-51.5152L38.4187-51.5152C34.4566-51.5152 32.108-49.2703 32.108-45.2907L32.108-28.4674C32.108-25.4582 33.7879-23.4712 36.5244-23.4712C39.2493-23.4712 40.9292-25.461 40.9292-28.519Z" data-clipstroke-keyframes="0 4 0 0.49910805 1.5009875 0 0.24851386 0.25059512 1.749403 0 0.4958681 0.0032418747 1.9966587 0 0.7506328 0.74847615 1.251523 0 1 0.49910805 1.5009875 0 0 2.4775434 2.6933284 0 0.607455 2.8810465 2.2926528 0 1 2.0009272 2.1726584"/>
  </g>
  <g id="Bold-S" transform="matrix(1 0 0 1 2292.43 696)">
   <path d="M47.5342 5.44434C70.0195 5.44434 88.2568-12.7686 88.2568-35.2539C88.2568-57.7393 70.0195-75.9521 47.5342-75.9521C25.0732-75.9521 6.83594-57.7393 6.83594-35.2539C6.83594-12.7686 25.0732 5.44434 47.5342 5.44434ZM47.5342-5.34668C31.0059-5.34668 17.6514-18.7256 17.6514-35.2539C17.6514-51.7822 31.0059-65.1611 47.5342-65.1611C64.0625-65.1611 77.4414-51.7822 77.4414-35.2539C77.4414-18.7256 64.0625-5.34668 47.5342-5.34668ZM42.9688-45.5078C38.5986-49.1943 34.0088-43.8721 37.4023-39.9658L43.8477-32.5439L55.127-21.2891C56.1768-20.2881 57.2998-19.8242 58.6182-19.8242C61.1816-19.8242 63.208-21.6309 63.208-24.3408C63.208-25.5615 62.6465-26.7822 61.7432-27.6855L50.3906-39.0381ZM39.7949-33.2764L38.2324-44.8975L49.4873-43.0664L54.3213-43.0664C57.0312-43.0664 58.7891-44.6045 58.7891-47.0459C58.7891-49.4873 57.0312-51.0254 54.2969-51.0254L37.207-51.0254C33.8379-51.0254 31.8115-49.2188 31.8115-45.7031L31.8115-28.6865C31.8115-26.0254 33.3496-24.2188 35.8154-24.2188C38.2568-24.2188 39.7949-25.9766 39.7949-28.6865Z" data-clipstroke-keyframes="0 4 0 0.49911916 1.5009434 0 0.24843483 0.25068566 1.7493129 0 0.49584585 0.0032760105 1.9966583 0 0.7506219 0.74849856 1.2515011 0 1 0.49911916 1.5009434 0 0 2.484327 2.672966 0 0.61341834 2.8747907 2.284225 0 1 2.0008464 2.1582346"/>
  </g>
  <g id="Semibold-S" transform="matrix(1 0 0 1 1996.19 696)">
   <path d="M47.0632 4.97334C69.2908 4.97334 87.3237-13.0263 87.3237-35.2539C87.3237-57.4815 69.2908-75.4812 47.0632-75.4812C24.8688-75.4812 6.83594-57.4815 6.83594-35.2539C6.83594-13.0263 24.8688 4.97334 47.0632 4.97334ZM47.0632-4.59131C30.1172-4.59131 16.4339-18.3079 16.4339-35.2539C16.4339-52.1999 30.1172-65.9165 47.0632-65.9165C64.0092-65.9165 77.7258-52.1999 77.7258-35.2539C77.7258-18.3079 64.0092-4.59131 47.0632-4.59131ZM41.8135-45.5611C37.8255-49.0077 33.4667-44.2897 36.798-40.5612L43.4922-33.0505L55.2514-21.3068C56.1501-20.4569 57.1487-20.0197 58.3604-20.0197C60.7018-20.0197 62.4526-21.6309 62.4526-24.0653C62.4526-25.1616 61.9355-26.2401 61.13-27.0457L49.342-38.8337ZM39.0129-33.7296L37.557-44.9774L48.5009-43.3152L53.6015-43.3152C56.0893-43.3152 57.7049-44.7556 57.7049-47.0015C57.7049-49.2474 56.107-50.6877 53.6215-50.6877L36.3717-50.6877C33.4113-50.6877 31.6071-49.1832 31.6071-45.9875L31.6071-28.8376C31.6071-26.4164 33.0475-24.7342 35.3267-24.7342C37.5726-24.7342 39.0129-26.332 39.0129-28.8021Z" data-clipstroke-keyframes="0 4 0 0.49912772 1.500915 0 0.24838033 0.25074854 1.7492518 0 0.49583054 0.003299555 1.9966581 0 0.7506144 0.7485145 1.2514869 0 1 0.49912772 1.500915 0 0 2.4889882 2.6586952 0 0.6175297 2.8704047 2.2782242 0 1 2.0007894 2.1480312"/>
  </g>
  <g id="Medium-S" transform="matrix(1 0 0 1 1699.83 696)">
   <path d="M46.7061 4.61621C68.7383 4.61621 86.6162-13.2217 86.6162-35.2539C86.6162-57.2861 68.7383-75.124 46.7061-75.124C24.7139-75.124 6.83594-57.2861 6.83594-35.2539C6.83594-13.2217 24.7139 4.61621 46.7061 4.61621ZM46.7061-4.01855C29.4434-4.01855 15.5107-17.9912 15.5107-35.2539C15.5107-52.5166 29.4434-66.4893 46.7061-66.4893C63.9688-66.4893 77.9414-52.5166 77.9414-35.2539C77.9414-17.9912 63.9688-4.01855 46.7061-4.01855ZM40.9375-45.6016C37.2393-48.8662 33.0557-44.6064 36.3398-41.0127L43.2227-33.4346L55.3457-21.3203C56.1299-20.585 57.0342-20.168 58.165-20.168C60.3379-20.168 61.8799-21.6309 61.8799-23.8564C61.8799-24.8584 61.3965-25.8291 60.665-26.5605L48.5469-38.6787ZM38.4199-34.0732L37.0449-45.0381L47.7529-43.5039L53.0557-43.5039C55.375-43.5039 56.8828-44.8701 56.8828-46.9678C56.8828-49.0654 55.4062-50.4316 53.1094-50.4316L35.7383-50.4316C33.0879-50.4316 31.4521-49.1562 31.4521-46.2031L31.4521-28.9521C31.4521-26.7129 32.8184-25.125 34.9561-25.125C37.0537-25.125 38.4199-26.6016 38.4199-28.8896Z" data-clipstroke-keyframes="0 4 0 0.4991347 1.5008943 0 0.24833901 0.2507965 1.7492058 0 0.4958189 0.0033174127 1.9966578 0 0.7506087 0.7485268 1.2514766 0 1 0.4991347 1.5008943 0 0 2.4914804 2.6476312 0 0.62064713 2.8669953 2.2724648 0 1 2.0007393 2.1390033"/>
  </g>
  <g id="Regular-S" transform="matrix(1 0 0 1 1403.58 696)">
   <path d="M46.2402 4.15039C68.0176 4.15039 85.6934-13.4766 85.6934-35.2539C85.6934-57.0312 68.0176-74.6582 46.2402-74.6582C24.5117-74.6582 6.83594-57.0312 6.83594-35.2539C6.83594-13.4766 24.5117 4.15039 46.2402 4.15039ZM46.2402-3.27148C28.5645-3.27148 14.3066-17.5781 14.3066-35.2539C14.3066-52.9297 28.5645-67.2363 46.2402-67.2363C63.916-67.2363 78.2227-52.9297 78.2227-35.2539C78.2227-17.5781 63.916-3.27148 46.2402-3.27148ZM39.7949-45.6543C36.4746-48.6816 32.5195-45.0195 35.7422-41.6016L42.8711-33.9355L55.4688-21.3379C56.1035-20.752 56.8848-20.3613 57.9102-20.3613C59.8633-20.3613 61.1328-21.6309 61.1328-23.584C61.1328-24.4629 60.6934-25.293 60.0586-25.9277L47.5098-38.4766ZM37.6465-34.5215L36.377-45.1172L46.7773-43.75L52.3438-43.75C54.4434-43.75 55.8105-45.0195 55.8105-46.9238C55.8105-48.8281 54.4922-50.0977 52.4414-50.0977L34.9121-50.0977C32.666-50.0977 31.25-49.1211 31.25-46.4844L31.25-29.1016C31.25-27.0996 32.5195-25.6348 34.4727-25.6348C36.377-25.6348 37.6465-26.9531 37.6465-29.0039Z" data-clipstroke-keyframes="0 4 0 0.49914446 1.5008684 0 0.24828511 0.25085935 1.7491465 0 0.49580374 0.0033407123 1.9966576 0 0.75060123 0.7485432 1.2514638 0 1 0.49914446 1.5008684 0 0 2.4956646 2.6335824 0 0.6247133 2.8627028 2.2661045 0 1 2.0006814 2.128538"/>
  </g>
  <g id="Light-S" transform="matrix(1 0 0 1 1107.6 696)">
   <path d="M45.5137 3.42383C66.8823 3.42383 84.2251-13.8853 84.2251-35.2539C84.2251-56.6226 66.8823-73.9316 45.5137-73.9316C24.1787-73.9316 6.83594-56.6226 6.83594-35.2539C6.83594-13.8853 24.1787 3.42383 45.5137 3.42383ZM45.5137-2.27247C27.2778-2.27247 12.5508-17.0181 12.5508-35.2539C12.5508-53.4897 27.2778-68.2353 45.5137-68.2353C63.7495-68.2353 78.4951-53.4897 78.4951-35.2539C78.4951-17.0181 63.7495-2.27247 45.5137-2.27247ZM37.4942-46.4111C34.9307-48.7573 31.8081-45.852 34.3193-43.206L40.4038-36.7055L55.7412-21.3682C56.2397-20.9033 56.8545-20.5884 57.6831-20.5884C59.1973-20.5884 60.1943-21.5854 60.1943-23.0996C60.1943-23.812 59.8457-24.4605 59.3472-24.959L44.0283-40.2778ZM35.7241-36.0503L34.8633-45.9346L44.0376-45.0063L52.1621-45.0063C53.7925-45.0063 54.8569-45.9883 54.8569-47.4839C54.8569-48.9492 53.8262-49.9312 52.2295-49.9312L33.5498-49.9312C31.8486-49.9312 30.7505-49.1362 30.7505-47.1504L30.7505-28.5869C30.7505-27.0239 31.7476-25.8921 33.2466-25.8921C34.7422-25.8921 35.7241-26.9229 35.7241-28.5195Z" data-clipstroke-keyframes="0 4 0 0.49913585 1.5009707 0 0.24838725 0.2507476 1.7492833 0 0.4957939 0.0033399223 1.9966571 0 0.7506171 0.74851775 1.251515 0 1 0.49913585 1.5009707 0 0 2.4954946 2.6050513 0 0.6940395 2.8831687 2.2171102 0 1 2.9997487 2.1007762"/>
  </g>
  <g id="Thin-S" transform="matrix(1 0 0 1 811.863 696)">
   <path d="M44.5527 2.4629C65.3809 2.4629 82.2832-14.4258 82.2832-35.2539C82.2832-56.082 65.3809-72.9707 44.5527-72.9707C23.7383-72.9707 6.83594-56.082 6.83594-35.2539C6.83594-14.4258 23.7383 2.4629 44.5527 2.4629ZM44.5527-0.95119C25.5762-0.95119 10.2285-16.2774 10.2285-35.2539C10.2285-54.2305 25.5762-69.5566 44.5527-69.5566C63.5293-69.5566 78.8555-54.2305 78.8555-35.2539C78.8555-16.2774 63.5293-0.95119 44.5527-0.95119ZM34.4512-47.4121C32.8887-48.8574 30.8672-46.9531 32.4375-45.3281L37.1407-40.3691L56.1016-21.4082C56.4199-21.1035 56.8145-20.8887 57.3828-20.8887C58.3164-20.8887 58.9531-21.5254 58.9531-22.459C58.9531-22.9512 58.7246-23.3594 58.4063-23.6778L39.4239-42.6601ZM33.1817-38.0722L32.8614-47.0156L40.4141-46.6679L51.9219-46.6679C52.9317-46.6679 53.5957-47.2695 53.5957-48.2246C53.5957-49.1094 52.9453-49.7109 51.9492-49.7109L31.7481-49.7109C30.7676-49.7109 30.0899-49.1562 30.0899-48.0312L30.0899-27.9063C30.0899-26.9238 30.7266-26.2324 31.625-26.2324C32.5801-26.2324 33.1817-26.8828 33.1817-27.8789Z" data-clipstroke-keyframes="0 4 0 0.49912143 1.5010968 0 0.24852234 0.25059825 1.7494596 0 0.49578092 0.0033388573 1.9966565 0 0.7506381 0.7484825 1.2515783 0 1 0.49912143 1.5010968 0 0 2.4946086 2.566943 0 0.78572905 2.9096632 2.151818 0 1 2.999001 2.062869"/>
  </g>
  <g id="Ultralight-S" transform="matrix(1 0 0 1 515.649 696)">
   <path d="M44.0606 1.97072C64.6118 1.97072 81.2886-14.7026 81.2886-35.2539C81.2886-55.8052 64.6118-72.4785 44.0606-72.4785C23.5127-72.4785 6.83594-55.8052 6.83594-35.2539C6.83594-14.7026 23.5127 1.97072 44.0606 1.97072ZM44.0606-0.274438C24.7046-0.274438 9.0391-15.898 9.0391-35.2539C9.0391-54.6099 24.7046-70.2334 44.0606-70.2334C63.4165-70.2334 79.04-54.6099 79.04-35.2539C79.04-15.898 63.4165-0.274438 44.0606-0.274438ZM32.8926-47.9248C31.8428-48.9087 30.3853-47.5171 31.4737-46.415L35.4693-42.2455L56.2861-21.4287C56.5122-21.2061 56.7939-21.0425 57.229-21.0425C57.8653-21.0425 58.3174-21.4946 58.3174-22.1309C58.3174-22.5103 58.1504-22.7954 57.9243-23.0215L37.0655-43.8803ZM31.8794-39.1079L31.836-47.5693L38.5582-47.519L51.7988-47.519C52.4907-47.519 52.9497-47.9258 52.9497-48.604C52.9497-49.1914 52.4942-49.5981 51.8057-49.5981L30.8252-49.5981C30.2139-49.5981 29.7515-49.1665 29.7515-48.4824L29.7515-27.5576C29.7515-26.8726 30.2036-26.4067 30.7945-26.4067C31.4727-26.4067 31.8794-26.8623 31.8794-27.5508Z" data-clipstroke-keyframes="0 4 0 0.49911258 1.5011578 0 0.24859153 0.25052106 1.7495481 0 0.49577427 0.0033383023 1.9966562 0 0.75064886 0.74846375 1.2516088 0 1 0.49911258 1.5011578 0 0 2.4955459 2.547082 0 0.83269197 2.9229915 2.1196532 0 1 2.9988315 2.0444374"/>
  </g>
 </g>
 <g id="Data">
  <g id="Black-L-draw-attachment-data" data-d="0 1 0.6116338 2933.07 1520.04"/>
  <g id="Heavy-L-draw-attachment-data" data-d="0 1 0.6277875 2635.34 1519.14"/>
  <g id="Bold-L-draw-attachment-data" data-d="0 1 0.653301 2337.1 1517.73"/>
  <g id="Semibold-L-draw-attachment-data" data-d="0 1 0.6708898 2039.33 1516.76"/>
  <g id="Medium-L-draw-attachment-data" data-d="0 1 0.6842264 1741.82 1516.03"/>
  <g id="Regular-L-draw-attachment-data" data-d="0 1 0.701622 1444.06 1515.07"/>
  <g id="Light-L-draw-attachment-data" data-d="0 1 0.75469506 1144.56 1512.21"/>
  <g id="Thin-L-draw-attachment-data" data-d="0 1 0.82488847 844.145 1508.44"/>
  <g id="Ultralight-L-draw-attachment-data" data-d="0 1 0.86084116 545.539 1506.5"/>
  <g id="Black-M-draw-attachment-data" data-d="0 1 0.6029957 2933.64 1090.6"/>
  <g id="Heavy-M-draw-attachment-data" data-d="0 1 0.61705875 2636.19 1089.98"/>
  <g id="Bold-M-draw-attachment-data" data-d="0 1 0.6327903 2338.66 1089.29"/>
  <g id="Semibold-M-draw-attachment-data" data-d="0 1 0.6436356 2041.38 1088.81"/>
  <g id="Medium-M-draw-attachment-data" data-d="0 1 0.6518588 1744.23 1088.45"/>
  <g id="Regular-M-draw-attachment-data" data-d="0 1 0.6625849 1446.96 1087.98"/>
  <g id="Light-M-draw-attachment-data" data-d="0 1 0.7240024 1147.74 1085.42"/>
  <g id="Thin-M-draw-attachment-data" data-d="0 1 0.80523205 847.713 1082.04"/>
  <g id="Ultralight-M-draw-attachment-data" data-d="0 1 0.8468375 549.303 1080.3"/>
  <g id="Black-S-draw-attachment-data" data-d="0 1 0.6021233 2933.67 660.672"/>
  <g id="Heavy-S-draw-attachment-data" data-d="0 1 0.607455 2636.65 660.47"/>
  <g id="Bold-S-draw-attachment-data" data-d="0 1 0.61341834 2339.59 660.245"/>
  <g id="Semibold-S-draw-attachment-data" data-d="0 1 0.6175297 2042.64 660.09"/>
  <g id="Medium-S-draw-attachment-data" data-d="0 1 0.62064713 1745.74 659.972"/>
  <g id="Regular-S-draw-attachment-data" data-d="0 1 0.6247133 1448.8 659.819"/>
  <g id="Light-S-draw-attachment-data" data-d="0 1 0.6940395 1149.87 657.555"/>
  <g id="Thin-S-draw-attachment-data" data-d="0 1 0.78572905 850.221 654.561"/>
  <g id="Ultralight-S-draw-attachment-data" data-d="0 1 0.83269197 552.007 653.028"/>
 </g>
</svg>
